<svg id="icon-color-medium-app-c" xmlns="http://www.w3.org/2000/svg" viewBox="0 0 24 24"><path fill="#DEF1FF" d="M21.796 21.5H2.204C.988 21.5 0 20.426 0 19.105V4.894c0-1.321.988-2.395 2.204-2.395h19.592C23.012 2.499 24 3.573 24 4.894v14.211c0 1.321-.988 2.395-2.204 2.395z"/><path fill="#CEEAF8" d="M21.796 20.501H2.204C.988 20.501 0 19.427 0 18.106v1c0 1.321.988 2.395 2.204 2.395h19.592c1.216 0 2.204-1.074 2.204-2.395v-1c0 1.321-.988 2.395-2.204 2.395z"/><path fill="#676767" d="M21.796 2.5H2.204C.988 2.5 0 3.574 0 4.895V8.5h24V4.895c0-1.321-.988-2.395-2.204-2.395z"/><path fill="#AAC3D4" d="M7.083 18.5H2.917c-.506 0-.917-.449-.917-1v-6c0-.551.411-1 .917-1h4.166c.506 0 .917.448.917 1v6c0 .551-.411 1-.917 1zM14.083 18.5H9.917c-.506 0-.917-.449-.917-1v-6c0-.551.411-1 .917-1h4.166c.506 0 .917.449.917 1v6c0 .551-.411 1-.917 1zM21.083 18.5h-4.166c-.506 0-.917-.449-.917-1v-6c0-.551.411-1 .917-1h4.166c.506 0 .917.449.917 1v6c0 .551-.411 1-.917 1z" opacity=".75"/><circle fill="#F59B9A" cx="3.5" cy="5.5" r="1"/><circle fill="#F4EA00" cx="6.5" cy="5.5" r="1"/><circle fill="#AAD8B5" cx="9.5" cy="5.5" r="1"/><path fill="#AAC3D4" d="M2.917 18.5h4.166c.267 0 .503-.13.67-.329l-5.507-7.342c-.149.178-.246.41-.246.671v6c0 .551.411 1 .917 1zM9.917 18.5h4.166c.267 0 .503-.13.67-.329l-5.507-7.342c-.149.178-.246.41-.246.671v6c0 .551.411 1 .917 1zM16.917 18.5h4.166c.267 0 .503-.13.67-.329l-5.507-7.342c-.149.178-.246.41-.246.671v6c0 .551.411 1 .917 1z"/><path fill="#CEEAF8" d="M0 8.5h24v1H0z"/></svg>