<svg id="icon-color-large-class-pulse-future" xmlns="http://www.w3.org/2000/svg" viewBox="0 0 38 38"><path fill="#FFF" d="M5 33.5c-.827 0-1.5-.673-1.5-1.5V6c0-.827.673-1.5 1.5-1.5h28c.827 0 1.5.673 1.5 1.5v26c0 .827-.673 1.5-1.5 1.5H5z"/><path fill="#767676" d="M33 5c.551 0 1 .449 1 1v26c0 .551-.449 1-1 1H5c-.551 0-1-.449-1-1V6c0-.551.449-1 1-1h28m0-1H5c-1.1 0-2 .9-2 2v26c0 1.1.9 2 2 2h28c1.1 0 2-.9 2-2V6c0-1.1-.9-2-2-2z"/><path fill="none" stroke="#FFD6D4" stroke-miterlimit="10" d="M30.5 5v28"/><path fill="none" stroke="#CDCDCD" stroke-miterlimit="10" d="M4 19.5h30M9.5 5v28M16.5 5v28M23.5 5v28"/><path fill="none" stroke="#767676" stroke-miterlimit="10" d="M3.459 19.5l6.041-4 7 8 7-10 7 6"/><circle fill="#FFD8D6" stroke="#767676" stroke-miterlimit="10" cx="16.5" cy="23.5" r="2"/><circle fill="#D7F9E4" stroke="#767676" stroke-miterlimit="10" cx="23.5" cy="13.5" r="2"/><circle fill="#E5E5E5" stroke="#767676" stroke-miterlimit="10" cx="30.5" cy="19.5" r="2"/><circle fill="#D7F9E4" stroke="#767676" stroke-miterlimit="10" cx="9.5" cy="15.5" r="2"/><path fill="#FFF" d="M19.5 8.5c-2.206 0-4-1.794-4-4s1.794-4 4-4 4 1.794 4 4-1.794 4-4 4z"/><path fill="#767676" d="M19.5 1C21.43 1 23 2.57 23 4.5S21.43 8 19.5 8 16 6.43 16 4.5 17.57 1 19.5 1m0-1a4.5 4.5 0 1 0 0 9 4.5 4.5 0 0 0 0-9z"/><g fill="none" stroke="#767676" stroke-linecap="round" stroke-miterlimit="10"><path d="M19.5 3v3M21 4.5h-3"/></g><g><path fill="#FFF" d="M19.5 37.5c-2.206 0-4-1.794-4-4s1.794-4 4-4 4 1.794 4 4-1.794 4-4 4z"/><path fill="#767676" d="M19.5 30c1.93 0 3.5 1.57 3.5 3.5S21.43 37 19.5 37 16 35.43 16 33.5s1.57-3.5 3.5-3.5m0-1a4.5 4.5 0 1 0 0 9 4.5 4.5 0 0 0 0-9z"/></g><g><path fill="none" stroke="#767676" stroke-linecap="round" stroke-miterlimit="10" d="M21 33.5h-3"/></g></svg>