<svg id="icon-color-large-class-pulse-a" xmlns="http://www.w3.org/2000/svg" viewBox="0 0 38 38"><path fill="#FFF" d="M5 33.5c-.827 0-1.5-.673-1.5-1.5V6c0-.827.673-1.5 1.5-1.5h28c.827 0 1.5.673 1.5 1.5v26c0 .827-.673 1.5-1.5 1.5H5z"/><path fill="#FF3B30" d="M33 5c.551 0 1 .449 1 1v26c0 .551-.449 1-1 1H5c-.551 0-1-.449-1-1V6c0-.551.449-1 1-1h28m0-1H5c-1.1 0-2 .9-2 2v26c0 1.1.9 2 2 2h28c1.1 0 2-.9 2-2V6c0-1.1-.9-2-2-2z"/><path fill="#FBE9E8" d="M19.5 16.5c-4.411 0-8-3.589-8-8s3.589-8 8-8 8 3.589 8 8-3.589 8-8 8z"/><path fill="#FF3B30" d="M19.5 1C23.636 1 27 4.364 27 8.5S23.636 16 19.5 16 12 12.635 12 8.5 15.364 1 19.5 1m0-1a8.5 8.5 0 1 0 .001 17.001A8.5 8.5 0 0 0 19.5 0z"/><g fill="none" stroke="#FF3B30" stroke-linecap="round" stroke-miterlimit="10"><path d="M19.5 5.5v6M22.5 8.5h-6"/></g><path fill="#FBE9E8" d="M19.5 37.5c-4.411 0-8-3.589-8-8s3.589-8 8-8 8 3.589 8 8-3.589 8-8 8z"/><path fill="#FF3B30" d="M19.5 22c4.136 0 7.5 3.364 7.5 7.5S23.636 37 19.5 37 12 33.635 12 29.5s3.364-7.5 7.5-7.5m0-1a8.5 8.5 0 1 0 .001 17.001A8.5 8.5 0 0 0 19.5 21z"/><g><path fill="none" stroke="#FF3B30" stroke-linecap="round" stroke-miterlimit="10" d="M22.5 29.5h-6"/></g><g fill="#FF3B30"><path d="M4 18h2v2H4zM8 18h2v2H8zM12 18h2v2h-2zM16 18h2v2h-2zM20 18h2v2h-2zM24 18h2v2h-2zM28 18h2v2h-2zM32 18h2v2h-2z"/></g></svg>