<svg id="icon-color-large-course-dynamic-a" xmlns="http://www.w3.org/2000/svg" viewBox="0 0 38 38"><path fill="#FFF" d="M8 37.5c-1.93 0-3.5-1.57-3.5-3.5V4h29v30c0 1.93-1.57 3.5-3.5 3.5H8z"/><path fill="#FF3B30" d="M33 4.5V34c0 1.654-1.346 3-3 3H8c-1.654 0-3-1.346-3-3V4.5h28m1-1H4V34c0 2.2 1.8 4 4 4h22c2.2 0 4-1.8 4-4V3.5z"/><path fill="#FFF" d="M33 1h1v5h-1z"/><path fill="#FF3B30" d="M8 7h1v30H8z"/><path fill="#FBE9E8" d="M5 34V5.938A3.486 3.486 0 0 0 7.5 7H8v30c-1.654 0-3-1.346-3-3zm4 3"/><path fill="#FFF" stroke="#FF3B30" stroke-linecap="round" stroke-miterlimit="10" d="M33.5 6.5H7.47A2.97 2.97 0 0 1 4.5 3.53v-.06A2.97 2.97 0 0 1 7.47.5H33.5M8.5 2.5h25M8.5 4.5h25"/></svg>