<svg id="icon-color-large-cry-a" xmlns="http://www.w3.org/2000/svg" viewBox="0 0 38 38"><circle fill="#FFF" stroke="#FF3B30" stroke-linecap="round" stroke-linejoin="round" stroke-miterlimit="10" cx="19" cy="19" r="18.5"/><path fill="none" stroke="#FF3B30" stroke-linecap="round" stroke-linejoin="round" stroke-miterlimit="10" d="M10.89 29.314l.133-.133c2.172-2.214 4.81-3.321 7.916-3.321s5.757 1.107 7.954 3.321l.133.133"/><path fill="#FF3B30" d="M28.408 13.924c0-.784-.221-1.455-.663-2.012-.442-.557-.978-.835-1.61-.835-.619 0-1.149.278-1.591.835-.455.557-.682 1.227-.682 2.012 0 .797.227 1.468.682 2.012.442.557.972.835 1.591.835.631 0 1.168-.278 1.61-.835.442-.545.663-1.215.663-2.012zM14.014 13.924c0-.784-.221-1.455-.663-2.012-.442-.557-.978-.835-1.61-.835-.619 0-1.149.278-1.591.835-.455.557-.682 1.227-.682 2.012 0 .797.227 1.468.682 2.012.442.557.972.835 1.591.835.631 0 1.168-.278 1.61-.835.442-.545.663-1.215.663-2.012z"/><path fill="none" stroke="#FF3B30" stroke-linecap="round" stroke-linejoin="round" stroke-miterlimit="10" d="M30.301 13.051c-1.887-1.061-3.358-2.661-4.413-4.801M7.613 13.051c2.015-1.126 3.486-2.726 4.413-4.801"/><path fill="#FBE9E8" stroke="#FF3B30" stroke-miterlimit="10" d="M12.386 18.801c-.463-.603-.697-1.102-.701-1.499-.004.397-.237.89-.701 1.48-.467.595-.701 1.05-.701 1.366 0 .392.133.721.398.987.29.278.625.418 1.004.418.391 0 .72-.139.985-.418.29-.266.436-.595.436-.987-.001-.291-.241-.74-.72-1.347z"/></svg>