<svg id="icon-color-large-essay-c" xmlns="http://www.w3.org/2000/svg" viewBox="0 0 38 38"><path fill="#FFF" d="M30.564 37.984h-25A1.486 1.486 0 0 1 4.08 36.5v-35c0-.818.666-1.484 1.484-1.484h25c.818 0 1.484.666 1.484 1.484v35c0 .818-.666 1.484-1.484 1.484zm0 0h-25"/><path fill="#E2E2E2" d="M30.564 35.984h-25A1.486 1.486 0 0 1 4.08 34.5v2c0 .818.666 1.484 1.484 1.484h25c.818 0 1.484-.666 1.484-1.484v-2c0 .818-.666 1.484-1.484 1.484z"/><path fill="none" stroke="#DFF1FF" stroke-miterlimit="10" d="M11.064 4.493h21M11.064 6.493h21M11.064 8.493h21M11.064 10.493h21M11.064 12.493h21M11.064 14.493h21M11.064 16.493h21M11.064 18.493h21M11.064 20.493h21M11.064 22.493h21M11.064 24.493h21M11.064 26.493h21M11.064 28.493h21M11.064 30.493h21M11.064 32.493h21"/><circle fill="#666" cx="7.064" cy="7" r="1"/><circle fill="#666" cx="7.064" cy="19" r="1"/><circle fill="#666" cx="7.064" cy="31" r="1"/><path fill="none" stroke="#FFD8D6" stroke-miterlimit="10" d="M10.564 0v37.986"/></svg>