<svg id="icon-color-large-exam-c" xmlns="http://www.w3.org/2000/svg" viewBox="0 0 38 38"><path fill="#FFF" d="M30.926 38H7.074A2.065 2.065 0 0 1 5 35.946V2.054C5 .92 5.929 0 7.074 0h23.852C32.071 0 33 .92 33 2.054v33.892A2.065 2.065 0 0 1 30.926 38z"/><path fill="#CEEAF8" d="M30.926 0H7.074C5.929 0 5 .92 5 2.054v33.892C5 37.08 5.929 38 7.074 38h23.852C32.071 38 33 37.08 33 35.946V2.054A2.065 2.065 0 0 0 30.926 0z"/><path fill="#DEF1FF" d="M30.926 0H7.074C5.929 0 5 .92 5 2.054v31.892C5 35.08 5.929 36 7.074 36h23.852C32.071 36 33 35.08 33 33.946V2.054A2.065 2.065 0 0 0 30.926 0z"/><path fill="none" stroke="#AAC3D4" stroke-linecap="round" stroke-linejoin="round" stroke-miterlimit="10" d="M18.508 11.5h3v3h-3z"/><path opacity=".5" fill="#AAC3D4" stroke="#AAC3D4" stroke-linecap="round" stroke-linejoin="round" stroke-miterlimit="10" d="M24.508 11.5h3v3h-3zM18.508 5.5h3v3h-3z"/><path fill="none" stroke="#AAC3D4" stroke-linecap="round" stroke-linejoin="round" stroke-miterlimit="10" d="M24.508 5.5h3v3h-3z"/><path opacity=".5" fill="#AAC3D4" stroke="#AAC3D4" stroke-linecap="round" stroke-linejoin="round" stroke-miterlimit="10" d="M18.508 17.5h3v3h-3z"/><path fill="none" stroke="#AAC3D4" stroke-linecap="round" stroke-linejoin="round" stroke-miterlimit="10" d="M24.508 17.5h3v3h-3z"/><g fill="#AAC3D4"><path d="M10.008 24h1.983v.992h-1.983zM14.008 24h1.983v.992h-1.983zM18.008 24h1.983v.992h-1.983zM22.008 24.008h1.983V25h-1.983zM26.008 24h2v1h-2z"/></g><path fill="none" stroke="#AAC3D4" stroke-linecap="round" stroke-miterlimit="10" d="M10.508 5.5h5M10.508 8.5h3M10.508 11.5h5M10.508 14.5h3M10.508 17.5h5M10.508 20.5h3"/><path fill="none" stroke="#AAC3D4" stroke-linecap="round" stroke-linejoin="round" stroke-miterlimit="10" d="M18.508 29.5h3v3h-3z"/><path opacity=".5" fill="#AAC3D4" stroke="#AAC3D4" stroke-linecap="round" stroke-linejoin="round" stroke-miterlimit="10" d="M24.508 29.5h3v3h-3z"/><path fill="none" stroke="#AAC3D4" stroke-linecap="round" stroke-miterlimit="10" d="M10.508 29.5h5M10.508 32.5h3"/></svg>