<svg id="icon-color-large-good-at-c" xmlns="http://www.w3.org/2000/svg" viewBox="0 0 38 38"><path fill="#0BA440" d="M.888 26.5H1.7v.953H.888zM36.076 26.5h.812v.953h-.812z"/><path fill="#0BA440" d="M24.888 17L36.71 27.093a.51.51 0 0 1-.333.895h-7.966a.51.51 0 0 0-.509.509v7.992a.51.51 0 0 1-.895.333L16.888 23l-2.177-.504L24.888 17z"/><path fill="#0BA440" d="M12.888 17L1.066 27.093a.51.51 0 0 0 .333.895h7.966a.51.51 0 0 1 .509.509v7.992c0 .472.587.69.895.333L20.888 23l2.177-.504L12.888 17z"/><path fill="#39DF79" d="M24.888 16L36.71 26.093a.51.51 0 0 1-.333.895h-7.966a.51.51 0 0 0-.509.509v7.992a.51.51 0 0 1-.895.333L16.888 22l-2.177-.504L24.888 16z"/><path fill="#39DF79" d="M12.888 16L1.066 26.093a.51.51 0 0 0 .333.895h7.966a.51.51 0 0 1 .509.509v7.992c0 .472.587.69.895.333L20.888 22l2.177-.504L12.888 16z"/><path fill="#231F20" d="M12.888 16L1.066 26.093a.51.51 0 0 0 .333.895h7.966a.51.51 0 0 1 .509.509v7.992c0 .472.587.69.895.333L20.888 22l2.177-.504L12.888 16z" opacity=".1"/><path fill="#0BA440" d="M18.888 1c-7.168 0-13 5.832-13 13s5.832 13 13 13 13-5.832 13-13-5.832-13-13-13z"/><path fill="#0BA440" d="M30.849 21.089L24.888 16l-6 3.24-6-3.24-5.961 5.089a13.045 13.045 0 0 0 9.08 7.578l2.881-3.935 2.881 3.935a13.045 13.045 0 0 0 9.08-7.578z" opacity=".4"/><path fill="#39DF79" d="M18.888 1c-6.627 0-12 5.373-12 12s5.373 12 12 12 12-5.373 12-12-5.373-12-12-12z"/><path fill="#A0EBBB" d="M18.888 2c6.065 0 11 4.935 11 11s-4.935 11-11 11-11-4.935-11-11 4.935-11 11-11m0-2c-7.168 0-13 5.832-13 13s5.832 13 13 13 13-5.832 13-13-5.832-13-13-13z"/><path fill="#FFF" d="M19.524 5l1.458 4.551a.67.67 0 0 0 .631.45h4.608c.644.005.912.847.393 1.223l-3.707 2.687a.65.65 0 0 0-.241.728l1.39 4.502c.194.603-.505 1.102-1.029.734l-3.749-2.63a.68.68 0 0 0-.78 0l-3.749 2.63c-.524.368-1.224-.131-1.029-.734l1.39-4.502a.652.652 0 0 0-.241-.728l-3.707-2.687c-.518-.376-.251-1.218.393-1.223h4.608a.67.67 0 0 0 .631-.45L18.252 5c.204-.6 1.068-.6 1.272 0z"/><path fill="#231F20" d="M18.888 0c-7.168 0-13 5.832-13 13s5.832 13 13 13V0z" opacity=".1"/></svg>