<svg id="icon-color-large-grade-not-associated-c" xmlns="http://www.w3.org/2000/svg" viewBox="0 0 38 38"><path fill="#CEEAF8" d="M33 10v26c0 1.1-.9 2-2 2H7c-1.1 0-2-.9-2-2V2c0-1.1.9-2 2-2h16l2 8 8 2z"/><path fill="#DEF1FF" d="M33 10v24c0 1.1-.9 2-2 2H7c-1.1 0-2-.9-2-2V2c0-1.1.9-2 2-2h16l2 8 8 2z"/><path fill="#AAC3D4" d="M33 11a.995.995 0 0 0-.293-.706l-9-9.003A1.006 1.006 0 0 0 23 1h-1v9c0 1.1.898 2 1.996 2H33v-1z" opacity=".5"/><path fill="#FFF" d="M33 10a.995.995 0 0 0-.293-.706l-9-9.003A1.006 1.006 0 0 0 23 0h-1v9c0 1.1.898 2 1.996 2H33v-1z"/><g fill="#AAC3D4"><path d="M10 19h1.983v.992H10zM14 19h1.983v.992H14zM18 19h1.983v.992H18zM22 19.008h1.983V20H22zM10 32.008h1.983V33H10zM14 32.008h1.983V33H14zM18 32.008h1.983V33H18zM22 32.008h1.983V33H22zM26.017 32.008H28V33h-1.983z"/><path d="M10 19h.992v1.983H10zM10.008 23H11v1.983h-.992zM10.008 27.017H11V29h-.992zM10 31.017h.992V33H10zM27 23h.992v1.983H27zM27 27h.992v1.983H27zM27.008 31.017H28V33h-.992zM26 19h2v1h-2z"/><path d="M27 19h1v2h-1z"/></g></svg>