<svg id="icon-color-large-grades-a" xmlns="http://www.w3.org/2000/svg" viewBox="0 0 38 38"><path fill="#FFF" d="M7 37.5c-.827 0-1.5-.673-1.5-1.5V2c0-.827.673-1.5 1.5-1.5h14.609l1.979 7.912 7.912 1.979V36c0 .827-.673 1.5-1.5 1.5H7z"/><path fill="#FF3B30" d="M21.219 1l1.811 7.243.146.582.582.146L31 10.781V36c0 .551-.449 1-1 1H7c-.551 0-1-.449-1-1V2c0-.551.449-1 1-1h14.219M22 0H7C5.9 0 5 .9 5 2v34c0 1.1.9 2 2 2h23c1.1 0 2-.9 2-2V10l-8-2-2-8z"/><path fill="#FBE9E8" d="M22.996 10.5A1.5 1.5 0 0 1 21.5 9V.5h.5c.132 0 .26.053.354.146l9 9.002A.505.505 0 0 1 31.5 10v.5h-8.504z"/><path fill="#FF3B30" d="M22 1l9 9h-8.004A1 1 0 0 1 22 9V1m0-1h-1v9c0 1.1.898 2 1.996 2H32v-1a.995.995 0 0 0-.293-.706l-9-9.003A1.006 1.006 0 0 0 22 0z"/><path fill="#FFF" d="M19.24 32.5a.509.509 0 0 1-.415-.229.484.484 0 0 1-.048-.464L20.66 27.1a.511.511 0 0 1 .11-.167l9.754-9.754c.284-.284.661-.44 1.062-.44s.778.156 1.062.44l1.41 1.41a1.504 1.504 0 0 1 0 2.125l-9.752 9.752a.476.476 0 0 1-.169.112l-4.707 1.883a.49.49 0 0 1-.19.039z"/><path fill="#FF3B30" d="M31.587 17.239c.268 0 .52.104.709.294l1.41 1.41a1.004 1.004 0 0 1 0 1.418l-9.753 9.753-4.711 1.879 1.884-4.708 9.752-9.752a.997.997 0 0 1 .709-.294m0-1c-.513 0-1.025.196-1.416.587l-9.752 9.752a.999.999 0 0 0-.222.337l-1.883 4.708c-.277.69.259 1.377.926 1.377.123 0 .25-.023.378-.074l4.708-1.883a.999.999 0 0 0 .337-.222l9.752-9.752a2.003 2.003 0 0 0 0-2.832l-1.41-1.41a2.002 2.002 0 0 0-1.418-.588z"/><path fill="#FBE9E8" d="M32.646 21.42l1.059-1.058a.997.997 0 0 0 .294-.709.993.993 0 0 0-.294-.709l-1.41-1.41a.997.997 0 0 0-.709-.294.993.993 0 0 0-.709.294l-1.058 1.058"/><path fill="#FF3B30" d="M29.465 17.53l4.243 4.243-.707.707-4.243-4.242zM21.688 26.723l2.828 2.828-.707.707-2.828-2.828z"/><path fill="none" stroke="#FF3B30" stroke-linecap="round" stroke-linejoin="round" stroke-miterlimit="10" d="M10.5 15.5h16M10.5 19.5h9M10.5 23.5h5M10.5 31.5h5M10.5 27.5h5"/></svg>