<svg id="icon-color-large-groups-c" xmlns="http://www.w3.org/2000/svg" viewBox="0 0 38 38"><path fill="#C26FD2" d="M31 7.5c-3.59 0-6.5 3.264-6.5 7.29 0 1.357.336 2.622.912 3.71h11.176a7.915 7.915 0 0 0 .912-3.71c0-4.026-2.91-7.29-6.5-7.29z"/><path fill="#955CA1" d="M25.721 18A7.468 7.468 0 0 1 25 14.79c0-3.692 2.619-6.699 5.864-6.782l.009-1.001C27.073 7.084 24 10.542 24 14.79c0 1.38.336 2.743.97 3.943l.141.267h11.777l-.609-1H25.721z"/><path fill="#D498DF" d="M38 14.79C38 10.494 34.859 7 31 7c-.043 0-.084.006-.127.007l-.009 1.001C30.91 8.007 30.954 8 31 8c3.309 0 6 3.046 6 6.79 0 1.116-.248 2.22-.721 3.21l.609 1 .142-.267c.634-1.2.97-2.563.97-3.943z"/><path fill="#884D8A" d="M25.388 10.156C26.489 11.588 28.146 12.5 30 12.5c1.656 0 3.155-.727 4.24-1.902a6.514 6.514 0 0 0 1.185-1.838C34.219 7.661 32.678 7 31 7c-.043 0-.084.006-.127.007-2.246.045-4.231 1.277-5.485 3.149z"/><path fill="#C26FD2" d="M31 11.5c-2.481 0-4.5-2.468-4.5-5.5S28.519.5 31 .5s4.5 2.468 4.5 5.5-2.019 5.5-4.5 5.5z"/><g><path fill="none" d="M31 1c-1.137 0-2.159.603-2.888 1.558l5.765 6.901C34.569 8.559 35 7.343 35 6c0-2.757-1.794-5-4-5z"/><path fill="#D498DF" d="M31 1c2.206 0 4 2.243 4 5 0 1.343-.431 2.559-1.123 3.458l.657.786C35.439 9.159 36 7.658 36 6c0-3.314-2.239-6-5-6-1.386 0-2.64.677-3.545 1.77l.658.787C28.841 1.603 29.863 1 31 1z"/><path fill="#955CA1" d="M31 12c1.38 0 2.629-.671 3.534-1.755l-.657-.786C33.149 10.405 32.131 11 31 11c-2.206 0-4-2.243-4-5 0-1.336.427-2.544 1.112-3.442l-.657-.788C26.556 2.855 26 4.35 26 6c0 3.314 2.239 6 5 6z"/></g><g><path fill="#39DF79" d="M19 26.5c-3.59 0-6.5 3.264-6.5 7.29 0 1.357.336 2.622.912 3.71h11.176a7.915 7.915 0 0 0 .912-3.71c0-4.026-2.91-7.29-6.5-7.29z"/><path fill="#27C762" d="M13.721 37A7.468 7.468 0 0 1 13 33.79c0-3.692 2.619-6.699 5.864-6.782l.009-1.001c-3.8.077-6.873 3.535-6.873 7.783 0 1.38.336 2.743.97 3.943l.141.267h11.777l-.609-1H13.721z"/><path fill="#A0EBBB" d="M26 33.79c0-4.296-3.141-7.79-7-7.79-.043 0-.084.006-.127.007l-.009 1.001c.046-.001.09-.008.136-.008 3.309 0 6 3.046 6 6.79 0 1.116-.248 2.22-.721 3.21l.609 1 .142-.267c.634-1.2.97-2.563.97-3.943z"/><path fill="#0CA440" d="M13.388 29.156C14.489 30.588 16.146 31.5 18 31.5c1.656 0 3.155-.727 4.24-1.902a6.514 6.514 0 0 0 1.185-1.838C22.219 26.661 20.678 26 19 26c-.043 0-.084.006-.127.007-2.246.045-4.231 1.277-5.485 3.149z"/><path fill="#39DF79" d="M19 30.5c-2.481 0-4.5-2.468-4.5-5.5s2.019-5.5 4.5-5.5 4.5 2.468 4.5 5.5-2.019 5.5-4.5 5.5z"/><g><path fill="#A0EBBB" d="M19 20c2.206 0 4 2.243 4 5 0 1.343-.431 2.559-1.123 3.458l.657.786C23.439 28.159 24 26.658 24 25c0-3.314-2.239-6-5-6-1.386 0-2.64.677-3.545 1.77l.658.787C16.841 20.603 17.863 20 19 20z"/><path fill="#27C762" d="M19 31c1.38 0 2.629-.671 3.534-1.755l-.657-.786C21.149 29.405 20.131 30 19 30c-2.206 0-4-2.243-4-5 0-1.336.427-2.544 1.112-3.442l-.658-.787C14.556 21.855 14 23.35 14 25c0 3.314 2.239 6 5 6z"/></g></g><path fill="none" stroke="#EEE" stroke-linecap="round" stroke-miterlimit="10" d="M30 21l-4 5M8 21l4 5"/><g><path fill="#26D3F9" d="M7 7.5C3.41 7.5.5 10.764.5 14.79c0 1.357.336 2.622.912 3.71h11.176a7.915 7.915 0 0 0 .912-3.71c0-4.026-2.91-7.29-6.5-7.29z"/><path fill="#11B1D0" d="M1.721 18A7.468 7.468 0 0 1 1 14.79c0-3.692 2.619-6.699 5.864-6.782l.009-1.001C3.073 7.084 0 10.542 0 14.79c0 1.38.336 2.743.97 3.943l.141.267h11.777l-.609-1H1.721z"/><path fill="#86EAFB" d="M14 14.79C14 10.494 10.859 7 7 7c-.043 0-.084.006-.127.007l-.009 1.001C6.91 8.007 6.954 8 7 8c3.309 0 6 3.046 6 6.79 0 1.116-.248 2.22-.721 3.21l.609 1 .142-.267c.634-1.2.97-2.563.97-3.943z"/><path fill="#0095AE" d="M1.388 10.156C2.489 11.588 4.146 12.5 6 12.5c1.656 0 3.155-.727 4.24-1.902a6.514 6.514 0 0 0 1.185-1.838C10.219 7.661 8.678 7 7 7c-.043 0-.084.006-.127.007-2.246.045-4.231 1.277-5.485 3.149z"/><path fill="#26D3F9" d="M7 11.5c-2.481 0-4.5-2.468-4.5-5.5S4.519.5 7 .5s4.5 2.468 4.5 5.5-2.019 5.5-4.5 5.5z"/><g><path fill="#86EAFB" d="M7 1c2.206 0 4 2.243 4 5 0 1.343-.431 2.559-1.123 3.458l.657.786C11.439 9.159 12 7.658 12 6c0-3.314-2.239-6-5-6-1.386 0-2.64.677-3.545 1.77l.658.787C4.841 1.603 5.863 1 7 1z"/><path fill="#11B1D0" d="M7 12c1.38 0 2.629-.671 3.534-1.755l-.657-.787C9.149 10.405 8.131 11 7 11c-2.206 0-4-2.243-4-5 0-1.336.427-2.544 1.112-3.442l-.657-.788C2.556 2.855 2 4.35 2 6c0 3.314 2.239 6 5 6z"/></g></g></svg>