<svg id="icon-color-large-happy" xmlns="http://www.w3.org/2000/svg" viewBox="0 0 38 38"><circle fill="#FFF9CC" stroke="#767676" stroke-miterlimit="10" cx="19" cy="19" r="18.5"/><path fill="#767676" stroke="#767676" stroke-linecap="round" stroke-linejoin="round" stroke-miterlimit="10" d="M7.651 24.62c.544 1.819 1.535 3.448 2.973 4.886 2.298 2.298 5.069 3.447 8.314 3.447s6.01-1.149 8.295-3.447c1.447-1.439 2.438-3.067 2.973-4.886-1.886-.24-4.241-.417-7.064-.53-5.655-.24-10.819-.063-15.491.53z"/><path fill="#767676" d="M28.408 13.825c0-.783-.221-1.452-.663-2.007s-.978-.833-1.61-.833c-.619 0-1.149.278-1.591.833-.455.556-.682 1.225-.682 2.007.001.794.311.958.928.492.627-.451 1.233-.583 1.818-.398.598.186 1.046.413 1.345.682.302.28.453.021.455-.776zM14.015 13.825c0-.783-.221-1.452-.663-2.007s-.979-.833-1.61-.833c-.619 0-1.149.278-1.591.833-.455.556-.682 1.225-.682 2.007-.001.796.245.973.739.53.495-.43 1.051-.607 1.667-.53.629.077 1.14.291 1.534.644.404.366.606.151.606-.644z"/><path fill="none" stroke="#767676" stroke-linecap="round" stroke-linejoin="round" d="M23.446 9.659c1.742-1.553 3.478-1.553 5.208 0M9.109 9.659c1.742-1.553 3.478-1.553 5.208 0"/><path fill="#FFF" d="M23.123 24.589c-5.363-.227-10.336-.075-14.806.453.207.571.479 1.117.784 1.649 4.418-.244 7.693-.367 9.8-.367 2.442-.012 5.731.121 9.846.395.312-.541.588-1.096.797-1.677-1.761-.2-3.918-.352-6.421-.453z"/></svg>