<svg id="icon-color-large-homework-c" xmlns="http://www.w3.org/2000/svg" viewBox="0 0 38 38"><path fill="#299B5F" d="M32.699 34H5.301C4.032 34 3 33.131 3 32.063V21.937C3 20.869 4.032 20 5.301 20h27.398c1.269 0 2.301.869 2.301 1.937v10.126C35 33.131 33.968 34 32.699 34z"/><path fill="#1F7447" d="M32.699 33H5.301C4.032 33 3 32.131 3 31.063v1C3 33.131 4.032 34 5.301 34h27.398C33.968 34 35 33.131 35 32.063v-1C35 32.131 33.968 33 32.699 33z"/><path fill="#27C762" d="M23.5 6h-2a.5.5 0 0 1-.5-.5V3h-4v2.5a.5.5 0 0 1-.5.5h-2a.5.5 0 0 1-.5-.5v-4c0-.827.673-1.5 1.5-1.5h7c.827 0 1.5.673 1.5 1.5v4a.5.5 0 0 1-.5.5z"/><path fill="#39DF79" d="M22.5 0h-7c-.827 0-1.5.673-1.5 1.5v1c0-.827.673-1.5 1.5-1.5h7c.827 0 1.5.673 1.5 1.5v-1c0-.827-.673-1.5-1.5-1.5z"/><path fill="none" stroke="#CDCDCD" stroke-linecap="round" stroke-miterlimit="10" d="M6.5 25.5h25"/><path fill="#39DF79" d="M6 32.995v-19.51C6 8.806 9.808 5 14.489 5h9.022C28.192 5 32 8.806 32 13.485v19.51"/><path fill="#69E597" d="M23.511 5h-9.022C9.808 5 6 8.806 6 13.485v2C6 10.806 9.808 7 14.489 7h9.022C28.192 7 32 10.806 32 15.485v-2C32 8.806 28.192 5 23.511 5z"/><path fill="#FFF" d="M19.007 9.682l3.663 3.663-3.663 3.662-3.663-3.662z"/><path fill="#C19F5E" d="M19.007 17.507a.502.502 0 0 1-.354-.146l-3.663-3.662a.5.5 0 0 1 0-.708l3.663-3.662a.5.5 0 0 1 .707 0l3.662 3.662a.5.5 0 0 1 0 .707L19.36 17.36a.495.495 0 0 1-.353.147z"/><path opacity=".5" fill="#917747" d="M19 9.184a.497.497 0 0 0-.346.145l-3.663 3.662a.5.5 0 0 0 0 .708l3.663 3.662a.497.497 0 0 0 .346.145V9.184z"/><path fill="#FFF" d="M28.481 29.5h-19a3 3 0 0 1-3-3v-6h25v6a3 3 0 0 1-3 3z"/><path fill="#27C762" d="M28.513 29.968H9.458a3.488 3.488 0 0 1-3.477-3.477v-6.459h26V26.5a3.468 3.468 0 0 1-3.468 3.468z"/><path fill="#299B5F" d="M28.513 28.968H9.458a3.488 3.488 0 0 1-3.477-3.477v1a3.487 3.487 0 0 0 3.477 3.477h19.055a3.468 3.468 0 0 0 3.468-3.468v-1a3.468 3.468 0 0 1-3.468 3.468z"/><path fill="#C19F5E" d="M13.5 31.5a1 1 0 0 0 1-1v-10h-2v10a1 1 0 0 0 1 1z"/><path fill="#299B5F" d="M13.5 31.972c-.812 0-1.472-.66-1.472-1.472V19.531c0-.278.225-.503.503-.503h1.939c.278 0 .503.225.503.503V30.5a1.475 1.475 0 0 1-1.473 1.472z"/><path fill="#C19F5E" d="M24.5 31.5a1 1 0 0 0 1-1v-10h-2v10a1 1 0 0 0 1 1z"/><path fill="#299B5F" d="M24.5 31.972c-.812 0-1.472-.66-1.472-1.472V19.501a.5.5 0 0 1 .501-.501h1.942a.5.5 0 0 1 .501.501V30.5c0 .812-.66 1.472-1.472 1.472z"/><path fill="none" stroke="#FBDF03" stroke-linecap="round" stroke-miterlimit="10" d="M17.5 13.345h3"/><circle fill="#27C762" cx="13.5" cy="21.5" r=".5"/><circle fill="#27C762" cx="13.5" cy="24.5" r=".5"/><circle fill="#27C762" cx="13.5" cy="27.5" r=".5"/><circle fill="#27C762" cx="24.5" cy="21.5" r=".5"/><circle fill="#27C762" cx="24.5" cy="24.5" r=".5"/><circle fill="#27C762" cx="24.5" cy="27.5" r=".5"/><path fill="#C19F5E" d="M6 36.511c0 .819.66 1.484 1.472 1.484h23.055a1.48 1.48 0 0 0 1.472-1.484v-3.516H6v3.516z"/><path fill="#917747" d="M30.528 35.995H7.472A1.48 1.48 0 0 1 6 34.511v2c0 .819.66 1.484 1.472 1.484h23.055a1.48 1.48 0 0 0 1.472-1.484v-2a1.478 1.478 0 0 1-1.471 1.484z"/><g fill="#299B5F"><path d="M14 4h3v1h-3zM21 4h3v1h-3z"/></g></svg>