<svg id="icon-color-large-jobs-c" xmlns="http://www.w3.org/2000/svg" viewBox="0 0 38 38"><path fill="#A37D33" d="M24 5c.551 0 1 .449 1 1v5.001c0 .812-.681 1.951-1 2h-9.996c-.323-.05-1.004-1.188-1.004-2V6c0-.551.449-1 1-1h10m0-1H14c-1.1 0-2 .9-2 2v5.001c0 1.1.9 3 2 3h10c1.1 0 2-1.9 2-3V6c0-1.1-.9-2-2-2z"/><path fill="#C19F5E" d="M36 34H2c-1.1 0-2-.9-2-2V11c0-1.1.9-2 2-2h34c1.1 0 2 .9 2 2v21c0 1.1-.9 2-2 2z"/><path fill="none" stroke="#FFF" stroke-width="1.014" stroke-linecap="round" stroke-linejoin="round" stroke-miterlimit="10" d="M.5 17.5L19 22l18.5-4.5"/><circle fill="#C16B05" stroke="#FFF" stroke-width=".875" stroke-linejoin="round" stroke-miterlimit="10" cx="19" cy="22" r="1.75"/><path fill="#B28C4F" d="M7.5 9.5h4v24h-4z"/><path fill="#A37D33" d="M11 10v23H8V10h3m1-1H7v25h5V9z"/><path fill="#B28C4F" d="M26.5 9.5h4v24h-4z"/><path fill="#A37D33" d="M30 10v23h-3V10h3m1-1h-5v25h5V9z"/><g><path fill="#A37D33" d="M38 32c0 1.1-.9 2-2 2H2c-1.1 0-2-.9-2-2"/></g></svg>