<svg id="icon-color-large-learning-c" xmlns="http://www.w3.org/2000/svg" viewBox="0 0 38 38"><path fill="#B36400" d="M18.888 7c-7.168 0-13 5.832-13 13s5.832 13 13 13 13-5.832 13-13-5.832-13-13-13z"/><g fill="#FB9200"><path d="M18.888 31.5c-6.892 0-12.5-5.607-12.5-12.5s5.607-12.5 12.5-12.5 12.5 5.607 12.5 12.5-5.608 12.5-12.5 12.5z"/><path d="M18.888 7c6.627 0 12 5.373 12 12s-5.373 12-12 12-12-5.373-12-12 5.373-12 12-12m0-1c-7.168 0-13 5.832-13 13s5.832 13 13 13 13-5.832 13-13-5.832-13-13-13z"/></g><path fill="#FBC17F" d="M18.888 8c6.065 0 11 4.935 11 11s-4.935 11-11 11-11-4.935-11-11 4.935-11 11-11m0-2c-7.168 0-13 5.832-13 13s5.832 13 13 13 13-5.832 13-13-5.832-13-13-13z"/><path fill="#FFF" d="M19.524 11l1.458 4.551a.67.67 0 0 0 .631.45h4.608c.644.005.912.847.393 1.223l-3.707 2.687a.65.65 0 0 0-.241.728l1.39 4.502c.194.603-.505 1.102-1.029.734l-3.749-2.63a.68.68 0 0 0-.78 0l-3.749 2.63c-.524.368-1.224-.131-1.029-.734l1.39-4.502a.652.652 0 0 0-.241-.728l-3.707-2.687c-.518-.376-.251-1.218.393-1.223h4.608a.67.67 0 0 0 .631-.45L18.252 11c.204-.6 1.068-.6 1.272 0z"/><path fill="#B36400" d="M18.888 6c-7.168 0-13 5.832-13 13s5.832 13 13 13V6z" opacity=".25"/></svg>