<svg id="icon-color-large-link" xmlns="http://www.w3.org/2000/svg" viewBox="0 0 38 38"><path fill="#FFF" d="M7 37.5c-.827 0-1.5-.673-1.5-1.5V2c0-.827.673-1.5 1.5-1.5h15.609l1.979 7.912 7.912 1.979V36c0 .827-.673 1.5-1.5 1.5H7z"/><path fill="#767676" d="M22.219 1l1.811 7.243.146.582.582.146L32 10.781V36c0 .551-.449 1-1 1H7c-.551 0-1-.449-1-1V2c0-.551.449-1 1-1h15.219M23 0H7C5.9 0 5 .9 5 2v34c0 1.1.9 2 2 2h24c1.1 0 2-.9 2-2V10l-8-2-2-8z"/><path fill="#E0E0E0" d="M23.996 10.5A1.5 1.5 0 0 1 22.5 9V.5h.5c.132 0 .26.053.354.146l9 9.002A.505.505 0 0 1 32.5 10v.5h-8.504z"/><path fill="#767676" d="M23 .999l9 9h-8.004A.998.998 0 0 1 23 9V.999M23 0h-1v9c0 1.1.898 2 1.996 2H33v-1a.995.995 0 0 0-.293-.706l-9-9.003A1.006 1.006 0 0 0 23 0z"/><g fill="#FFF" stroke="#767676" stroke-linecap="round" stroke-miterlimit="10"><path d="M19.305 26.094c.358.85.191 1.868-.501 2.56l-2.918 2.918a2.336 2.336 0 0 1-3.305 0l-1.214-1.214a2.336 2.336 0 0 1 0-3.305l2.918-2.918a2.338 2.338 0 0 1 2.505-.524M18.719 21.745a2.339 2.339 0 0 1 .506-2.55l2.918-2.918a2.336 2.336 0 0 1 3.305 0l1.214 1.214a2.336 2.336 0 0 1 0 3.305l-2.918 2.918a2.336 2.336 0 0 1-2.558.502M15.845 27.094l6.315-6.315"/></g></svg>