<svg id="icon-color-medium-menu-c" xmlns="http://www.w3.org/2000/svg" viewBox="0 0 24 24"><path fill="#C26FD2" d="M12 0C5.4 0 0 5.4 0 12s5.4 12 12 12 12-5.4 12-12S18.6 0 12 0zM7 13.5c-.8 0-1.5-.7-1.5-1.5s.7-1.5 1.5-1.5 1.5.7 1.5 1.5-.7 1.5-1.5 1.5zm5 0c-.8 0-1.5-.7-1.5-1.5s.7-1.5 1.5-1.5 1.5.7 1.5 1.5-.7 1.5-1.5 1.5zm5 0c-.8 0-1.5-.7-1.5-1.5s.7-1.5 1.5-1.5 1.5.7 1.5 1.5-.7 1.5-1.5 1.5z"/><circle fill="#FFF" cx="7" cy="12" r="1.5"/><circle fill="#FFF" cx="12" cy="12" r="1.5"/><circle fill="#FFF" cx="17" cy="12" r="1.5"/></svg>