<svg id="icon-color-large-photo-c" xmlns="http://www.w3.org/2000/svg" viewBox="0 0 38 38"><path fill="#26D4FA" d="M30 33H6c-1.1 0-2-.9-2-2V8c0-1.1.9-2 2-2h24c1.1 0 2 .9 2 2v23c0 1.1-.9 2-2 2z"/><circle fill="#FFE000" cx="22.5" cy="19.5" r="2"/><path fill="#FBF96E" d="M22.5 18c.827 0 1.5.673 1.5 1.5s-.673 1.5-1.5 1.5-1.5-.673-1.5-1.5.673-1.5 1.5-1.5m0-1a2.5 2.5 0 1 0 0 5 2.5 2.5 0 0 0 0-5z"/><path fill="#303030" d="M21.717 26.717l-8.419-8.419a.4.4 0 0 0-.58.015L4 28v1c0 1.1.9 2 2 2h24c1.1 0 2-.9 2-2v-2l-4.717-4.717a.4.4 0 0 0-.566 0l-4.434 4.434a.4.4 0 0 1-.566 0z" opacity=".2"/><path fill="#39E079" d="M6 32.5c-.827 0-1.5-.673-1.5-1.5v-.809l8.519-9.466 8.344 8.345c.17.17.396.264.637.264s.467-.094.637-.264L27 24.707l4.5 4.5V31c0 .827-.673 1.5-1.5 1.5H6z"/><path fill="#7DF977" d="M13.038 21.452l7.972 7.972c.264.264.616.41.99.41s.726-.146.99-.41l4.01-4.01 4 4V31c0 .551-.449 1-1 1H6c-.551 0-1-.449-1-1v-.616l8.038-8.932m-.023-1.271a.397.397 0 0 0-.297.132L4 30v1c0 1.1.9 2 2 2h24c1.1 0 2-.9 2-2v-2l-4.717-4.717a.398.398 0 0 0-.566 0l-4.434 4.434a.398.398 0 0 1-.566 0l-8.419-8.419a.4.4 0 0 0-.283-.117z"/><path fill="#C1C1C1" d="M4 30v1c0 1.1.9 2 2 2h24c1.1 0 2-.9 2-2v-1h-1v1c0 .551-.449 1-1 1H6c-.551 0-1-.449-1-1v-1H4z"/><g><path fill="#FFF" d="M30 6c.551 0 1 .449 1 1v23c0 .551-.449 1-1 1H6c-.551 0-1-.449-1-1V7c0-.551.449-1 1-1h24m0-1H6c-1.1 0-2 .9-2 2v23c0 1.1.9 2 2 2h24c1.1 0 2-.9 2-2V7c0-1.1-.9-2-2-2z"/></g></svg>