<svg id="icon-color-medium-presenter-c" xmlns="http://www.w3.org/2000/svg" viewBox="0 0 24 24"><path fill="#DEF1FF" stroke="#CEEAF8" stroke-miterlimit="10" d="M9.536 19.47H2.829c-.734 0-1.329-.653-1.329-1.458v-14.5h21V19.47H9.536z"/><path fill="none" stroke="#AAC3D4" stroke-linecap="round" stroke-linejoin="round" stroke-miterlimit="10" d="M4.5 6.511H14M4.5 8.511H12"/><path opacity=".5" fill="#AAC3D4" stroke="#AAC3D4" stroke-linejoin="round" stroke-miterlimit="10" d="M4.5 11.511H11v5H4.5z"/><path fill="#C26FD2" d="M13.683 15.153c-1.333 1.194-2.183 3.001-2.183 5.023 0 1.211.311 2.341.842 3.313h10.316a6.89 6.89 0 0 0 .842-3.313c0-2.005-.835-3.798-2.149-4.992"/><path fill="#955CA1" d="M22.955 23.989h-10.91l-.142-.26A7.423 7.423 0 0 1 11 20.176c0-2.092.856-4.059 2.351-5.396a.5.5 0 1 1 .666.745C12.735 16.673 12 18.368 12 20.176c0 .978.223 1.944.646 2.813h9.707l.602 1z"/><path fill="#D498DF" d="M22.955 24l.142-.26A7.42 7.42 0 0 0 24 20.187c0-2.071-.843-4.025-2.312-5.362a.5.5 0 1 0-.672.741C22.276 16.712 23 18.397 23 20.187A6.44 6.44 0 0 1 22.354 23l.601 1z"/><path fill="#884D8A" d="M16.953 18.511c2.081 0 3.855-1.299 4.589-3.134-.064-.064-.124-.132-.19-.193l-7.172-.029a.493.493 0 0 0-.123-.336.5.5 0 0 0-.706-.039 6.803 6.803 0 0 0-.836.911c.804 1.664 2.48 2.82 4.438 2.82z"/><path fill="#AAC3D4" stroke="#AAC3D4" stroke-linejoin="round" stroke-miterlimit="10" d="M11 16.511H4.5l1.896-2.979 2.167 2.708 1.083-1.625z"/><path fill="#BDC2C9" d="M22.5 4.011h-21c-.827 0-1.5-.673-1.5-1.5v-1c0-.827.673-1.5 1.5-1.5h21c.827 0 1.5.673 1.5 1.5v1c0 .827-.673 1.5-1.5 1.5z"/><path fill="#A4AAAD" d="M22.5 3.011h-21c-.827 0-1.5-.673-1.5-1.5v1c0 .827.673 1.5 1.5 1.5h21c.827 0 1.5-.673 1.5-1.5v-1c0 .827-.673 1.5-1.5 1.5z"/><path fill="none" stroke="#E3E3E3" stroke-linecap="round" stroke-linejoin="round" stroke-miterlimit="10" d="M1.5 1.511h21"/><ellipse fill="#C26FD2" cx="17.5" cy="12.511" rx="4.5" ry="5"/><path fill="#D498DF" d="M17.5 8.011c2.206 0 4 2.019 4 4.5 0 1.223-.438 2.33-1.144 3.141l.678.746c.905-.996 1.466-2.371 1.466-3.887 0-3.033-2.243-5.5-5-5.5-1.378 0-2.628.617-3.534 1.613l.678.746c.727-.836 1.737-1.359 2.856-1.359z"/><path fill="#955CA1" d="M17.5 18.011c1.378 0 2.628-.617 3.534-1.613l-.678-.746c-.727.836-1.737 1.359-2.856 1.359-2.206 0-4-2.019-4-4.5 0-1.223.438-2.33 1.144-3.141l-.678-.746c-.905.996-1.466 2.371-1.466 3.887 0 3.033 2.243 5.5 5 5.5z"/></svg>