<svg id="icon-color-large-record" xmlns="http://www.w3.org/2000/svg" viewBox="0 0 38 38"><path fill="#FFF" stroke="#767676" stroke-linecap="round" stroke-miterlimit="10" d="M35.992 11.14L28.5 16V9.5a1 1 0 0 0-1-1h-26a1 1 0 0 0-1 1v19a1 1 0 0 0 1 1h26a1 1 0 0 0 1-1V22l7.492 4.86c.664.388 1.508-.078 1.508-.833V11.973c0-.756-.845-1.222-1.508-.833z"/><path fill="#E0E0E0" stroke="#767676" stroke-miterlimit="10" d="M.5 19.521V28.5a1 1 0 0 0 1 1h26a1 1 0 0 0 1-1v-8.979H.5zM34.5 12.107L28.5 16v6l6 3.892z"/><path fill="#FFF" stroke="#767676" stroke-linecap="round" stroke-miterlimit="10" d="M28.5 16v6"/><path fill="#FFF" stroke="#767676" stroke-miterlimit="10" d="M34.5 12v14"/><path fill="#FFF" d="M5 25.5a.5.5 0 0 1-.5-.5V13a.5.5 0 0 1 .5-.5h18a.5.5 0 0 1 .5.5v12c0 .275-.225.5-.5.5H5z"/><path fill="#767676" d="M23 13v12H5V13h18m0-1H5a1 1 0 0 0-1 1v12a1 1 0 0 0 1 1h18a1 1 0 0 0 1-1V13a1 1 0 0 0-1-1zM0 19.042h4V20H0zM24 19.042h4V20h-4z"/><circle fill="#FFD6D4" stroke="#767676" stroke-linecap="round" stroke-linejoin="round" stroke-miterlimit="10" cx="14" cy="19" r="3"/></svg>