<svg id="icon-color-large-reminder-c" xmlns="http://www.w3.org/2000/svg" viewBox="0 0 38 38"><path fill="#CB2D28" d="M26.004 26h-18c-1.1 0-2-.9-2-2V6c0-1.1.9-2 2-2h18c1.1 0 2 .9 2 2v18c0 1.1-.9 2-2 2z"/><path fill="#E2E2E2" d="M28.004 28h-22c-1.1 0-2-.9-2-2V8c0-1.1.9-2 2-2h22c1.1 0 2 .9 2 2v18c0 1.1-.9 2-2 2z"/><path fill="#FFF" d="M28.004 26h-22c-1.1 0-2-.9-2-2V8c0-1.1.9-2 2-2h22c1.1 0 2 .9 2 2v16c0 1.1-.9 2-2 2z"/><path fill="#FF3A30" d="M4.004 14V8c0-1.1.9-2 2-2h22c1.1 0 2 .9 2 2v6h-26z"/><path opacity=".2" fill="#303030" d="M10.004 4H11.5v4h-1.496zM21.004 4h1.512v4h-1.512zM30.004 20.031a8.292 8.292 0 0 0-.49-.542c-3.314-3.314-8.707-3.314-12.021 0-2.299 2.299-3 5.598-2.109 8.51h12.619c1.1 0 2-.9 2-2v-5.968z"/><path fill="#F5F5F5" d="M25.504 33.5c-4.411 0-8-3.589-8-8s3.589-8 8-8 8 3.589 8 8-3.589 8-8 8z"/><path fill="#E2E2E2" d="M20.201 20.197a7.5 7.5 0 1 1 10.607 10.607 7.5 7.5 0 0 1-10.607-10.607m-.707-.707c-3.314 3.314-3.314 8.707 0 12.021s8.707 3.314 12.021 0 3.314-8.707 0-12.021-8.707-3.315-12.021 0z"/><path fill="#FFF" d="M20.201 20.197a7.5 7.5 0 0 1 10.607 10.607l.707.707c3.314-3.314 3.314-8.707 0-12.021s-8.707-3.314-12.021 0"/><path fill="none" stroke="#FDFEFF" stroke-linecap="round" stroke-miterlimit="10" d="M11.5 3.5v4M22.5 3.5v4"/><path fill="none" stroke="#666" stroke-linecap="round" stroke-linejoin="round" stroke-miterlimit="10" d="M25.5 20.5v5h3"/></svg>