<svg id="icon-color-large-retention-center-a" xmlns="http://www.w3.org/2000/svg" viewBox="0 0 38 38"><path fill="#FFF" d="M7 32.5c-.827 0-1.5-.673-1.5-1.5V7c0-.827.673-1.5 1.5-1.5h24c.827 0 1.5.673 1.5 1.5v24c0 .827-.673 1.5-1.5 1.5H7z"/><path fill="#FF3B30" d="M31 6c.551 0 1 .449 1 1v24c0 .551-.449 1-1 1H7c-.551 0-1-.449-1-1V7c0-.551.449-1 1-1h24m0-1H7c-1.1 0-2 .9-2 2v24c0 1.1.9 2 2 2h24c1.1 0 2-.9 2-2V7c0-1.1-.9-2-2-2z"/><path fill="#FBE9E8" d="M14 6h1v26h-1zM24 6v26h-1V6"/><path fill="#FBE9E8" d="M6 14h26v1H6zM32 24H6v-1h26"/><path fill="none" stroke="#FF3B30" stroke-linecap="round" stroke-linejoin="round" stroke-miterlimit="10" d="M5.627 23.627l4.175-5.176 4.721 5.721 8.995-9.994 9.019 10.019"/><circle fill="#FBE9E8" stroke="#FF3B30" stroke-linejoin="round" stroke-miterlimit="10" cx="14.5" cy="24.197" r="2.062"/><circle fill="#FBE9E8" stroke="#FF3B30" stroke-linejoin="round" stroke-miterlimit="10" cx="23.5" cy="14.178" r="2.062"/><circle fill="#FBE9E8" stroke="#FF3B30" stroke-linejoin="round" stroke-miterlimit="10" cx="9.781" cy="18.438" r="2.062"/></svg>