<svg id="icon-color-large-support-call-a" xmlns="http://www.w3.org/2000/svg" viewBox="0 0 38 38"><path fill="#FFF" stroke="#FF3B30" stroke-miterlimit="10" d="M4.732 9.889c-.484 0-.969.161-1.453.646l-1.776 1.776c-1.13 1.13-1.292 3.068-.323 4.36 5.329 7.913 12.274 15.019 20.187 20.187 1.453.969 3.23.646 4.522-.484l1.776-1.776c.807-.807.807-2.099 0-2.745l-3.391-3.391c-.807-.807-2.099-.807-2.745 0l-1.13 1.13c-.484.484-1.13.484-1.615 0-3.714-3.068-7.429-6.621-10.497-10.497a1.467 1.467 0 0 1 0-1.615l1.13-1.13c.807-.807.807-2.099 0-2.745l-3.23-3.23c-.325-.325-.809-.486-1.455-.486z"/><path fill="#FBE9E8" stroke="#FF3B30" stroke-miterlimit="10" d="M35.739 21.678c-.646 0-1.13-.484-1.13-1.13 0-9.367-7.59-16.957-16.957-16.957-.646 0-1.13-.484-1.13-1.13s.323-1.292.969-1.292c10.659 0 19.38 8.721 19.38 19.38a1.105 1.105 0 0 1-1.132 1.129z"/><path fill="#FBE9E8" stroke="#FF3B30" stroke-miterlimit="10" d="M29.279 21.678c-.646 0-1.13-.484-1.13-1.13 0-5.814-4.845-10.659-10.659-10.659-.646 0-1.13-.484-1.13-1.13 0-.646.484-1.13 1.13-1.13A13.027 13.027 0 0 1 30.571 20.71c0 .484-.646.968-1.292.968z"/><path fill="#FBE9E8" stroke="#FF3B30" stroke-miterlimit="10" d="M22.981 21.678c-.646 0-1.13-.484-1.13-1.13a4.342 4.342 0 0 0-4.36-4.36c-.646 0-1.13-.484-1.13-1.13s.484-1.13 1.13-1.13c3.714 0 6.783 3.068 6.783 6.783-.001.483-.647.967-1.293.967z"/></svg>