<svg id="icon-color-large-support-a" xmlns="http://www.w3.org/2000/svg" viewBox="0 0 38 38"><path fill="#FBE9E8" d="M11.036 27.244a5.49 5.49 0 0 1 0-10.98M26.122 27.244a5.49 5.49 0 0 0 0-10.98"/><path fill="none" stroke="#FF3B30" stroke-linecap="round" stroke-miterlimit="10" d="M11.036 27.244a5.49 5.49 0 0 1 0-10.98"/><path fill="#FFF" stroke="#FF3B30" stroke-miterlimit="10" d="M13.612 27.178a1.525 1.525 0 0 1-3.05 0V16.103a1.525 1.525 0 0 1 3.05 0v11.075z"/><path fill="none" stroke="#FF3B30" stroke-linecap="round" stroke-miterlimit="10" d="M26.122 27.244a5.49 5.49 0 0 0 0-10.98"/><path fill="#FFF" stroke="#FF3B30" stroke-miterlimit="10" d="M23.547 27.178a1.525 1.525 0 0 0 3.05 0V16.103a1.525 1.525 0 0 0-3.05 0v11.075z"/><path fill="none" stroke="#FF3B30" stroke-linecap="round" stroke-miterlimit="10" d="M5.558 21.755v-8.367C5.558 6.273 11.326.505 18.441.505h.26c7.115 0 12.883 5.768 12.883 12.883v7.982"/><path fill="none" stroke="#FF3B30" stroke-linecap="round" stroke-miterlimit="10" d="M31.583 21.158v5.543a8.874 8.874 0 0 1-8.874 8.874H21.39"/><path fill="#FFF" d="M17.57 37.5c-1.103 0-2-.897-2-2s.897-2 2-2h2c1.103 0 2 .897 2 2s-.897 2-2 2h-2z"/><path fill="#FF3B30" d="M19.571 34c.827 0 1.5.673 1.5 1.5s-.673 1.5-1.5 1.5h-2c-.827 0-1.5-.673-1.5-1.5s.673-1.5 1.5-1.5h2m0-1h-2a2.5 2.5 0 1 0 0 5h2a2.5 2.5 0 1 0 0-5z"/></svg>