<svg id="icon-color-large-support-document-c" xmlns="http://www.w3.org/2000/svg" viewBox="0 0 38 38"><path fill="#CEEAF8" d="M33 10v26c0 1.1-.9 2-2 2H7c-1.1 0-2-.9-2-2V2c0-1.1.9-2 2-2h16l2 8 8 2z"/><path fill="#DEF1FF" d="M33 10v24c0 1.1-.9 2-2 2H7c-1.1 0-2-.9-2-2V2c0-1.1.9-2 2-2h16l2 8 8 2z"/><path fill="#C4DAE8" d="M33 11a.995.995 0 0 0-.293-.706l-9-9.003A1.006 1.006 0 0 0 23 1h-1v9c0 1.1.898 2 1.996 2H33v-1z"/><path fill="#FFF" d="M33 10a.995.995 0 0 0-.293-.706l-9-9.003A1.006 1.006 0 0 0 23 0h-1v9c0 1.1.898 2 1.996 2H33v-1z"/><path fill="none" stroke="#AAC3D4" stroke-linecap="round" stroke-miterlimit="10" d="M14.512 20.903c0-2.178 2.009-3.944 4.488-3.944s4.488 1.766 4.488 3.944c0 1.66-1.166 3.08-2.818 3.662-.985.347-1.67 1.242-1.67 2.287v1.002"/><circle fill="#AAC3D4" cx="19" cy="30.56" r=".633"/></svg>