<svg id="icon-color-large-survey-c" xmlns="http://www.w3.org/2000/svg" viewBox="0 0 38 38"><path fill="#C19F5E" d="M31 38H7c-1.1 0-2-.9-2-2V5.107c0-1.1.9-2 2-2h24c1.1 0 2 .9 2 2V36c0 1.1-.9 2-2 2z"/><path fill="#A37D33" d="M31 37H7c-1.1 0-2-.9-2-2v1c0 1.1.9 2 2 2h24c1.1 0 2-.9 2-2v-1c0 1.1-.9 2-2 2z"/><path fill="#FFF" d="M7 6.107h24V35H7z"/><path fill="#E0E0E0" d="M28 9.107v-2a4 4 0 0 0-4-4H14a4 4 0 0 0-4 4v2h18z"/><g fill="#E0E0E0"><circle cx="19" cy="3.5" r="3"/><path d="M19 7c-1.93 0-3.5-1.57-3.5-3.5S17.07 0 19 0s3.5 1.57 3.5 3.5S20.93 7 19 7zm0-6c-1.379 0-2.5 1.121-2.5 2.5S17.621 6 19 6s2.5-1.121 2.5-2.5S20.379 1 19 1z"/></g><circle fill="none" stroke="#BFC1C1" stroke-miterlimit="10" cx="19" cy="3.107" r="1.5"/><path fill="#BFC1C1" d="M10 8.107h18v1H10z"/><path fill="none" stroke="#CDCDCD" stroke-linecap="round" stroke-miterlimit="10" d="M16.5 15.5h11M16.5 18.5h7"/><path fill="#FFF" stroke="#767676" stroke-linejoin="round" stroke-miterlimit="10" d="M10.5 15.5h3v3h-3z"/><path fill="none" stroke="#CDCDCD" stroke-linecap="round" stroke-miterlimit="10" d="M16.5 21.5h11M16.5 24.5h7"/><path fill="#FFF" stroke="#767676" stroke-linejoin="round" stroke-miterlimit="10" d="M10.5 21.5h3v3h-3z"/><path fill="none" stroke="#CDCDCD" stroke-linecap="round" stroke-miterlimit="10" d="M16.5 27.5h11M16.5 30.5h7"/><path fill="#FFF" stroke="#767676" stroke-linejoin="round" stroke-miterlimit="10" d="M10.5 27.5h3v3h-3z"/></svg>