<svg id="icon-color-large-textbook" xmlns="http://www.w3.org/2000/svg" viewBox="0 0 38 38"><path fill="#F3E2F7" stroke="#777677" stroke-linecap="round" stroke-linejoin="round" stroke-miterlimit="10" d="M36.5 4.5h-35a1 1 0 0 0-1 1v26a1 1 0 0 0 1 1h15a2.5 2.5 0 1 0 5 0h15a1 1 0 0 0 1-1v-26a1 1 0 0 0-1-1z"/><path fill="#FFF" stroke="#777677" stroke-linejoin="round" stroke-miterlimit="10" d="M18.992 32.039l.411-.651c.366-.58 1.167-.894 1.853-.894l13.359-.039a1 1 0 0 0 1-1V4.538a1 1 0 0 0-1-1h-14.5a1 1 0 0 0-1 1 1 1 0 0 0-1-1h-14.5a1 1 0 0 0-1 1v24.917a1 1 0 0 0 1 1l13.437.039c.686 0 1.162.313 1.529.894l.411.651z"/><path fill="#FFF" stroke="#CDCDCD" stroke-linecap="round" stroke-linejoin="round" stroke-miterlimit="10" d="M19 6.5v22"/><path fill="#E0E0DF" stroke="#777677" stroke-linecap="round" stroke-linejoin="round" stroke-miterlimit="10" d="M5.5 7.5h10v6h-10z"/><path fill="none" stroke="#CDCDCD" stroke-linecap="round" stroke-linejoin="round" stroke-miterlimit="10" d="M5.5 17.5h10M5.5 21.5h10M5.5 25.538h4.885M22.5 7.5h10M22.5 11.5h10M22.5 15.5h10M22.5 19.5h10M22.5 23.5H28"/></svg>