<svg id="icon-color-medium-user-focus-c" xmlns="http://www.w3.org/2000/svg" viewBox="0 0 24 24"><path fill="#C26FD2" stroke="#955CA1" stroke-miterlimit="10" d="M12 .5C5.649.5.5 5.649.5 12S5.649 23.5 12 23.5 23.5 18.351 23.5 12 18.351.5 12 .5z"/><path fill="#F0F0F0" d="M9.427 11.31c-.884.886-1.448 2.228-1.448 3.729 0 .899.206 1.738.558 2.459h6.84c.352-.721.558-1.56.558-2.459 0-1.488-.554-2.819-1.425-3.705"/><path fill="#E5E5E5" d="M15.689 17.998H8.225l-.137-.28a6.135 6.135 0 0 1-.609-2.679c0-1.578.581-3.066 1.595-4.082a.5.5 0 0 1 .707.707c-.827.829-1.302 2.06-1.302 3.375 0 .68.131 1.351.382 1.959h6.193l.635 1z"/><path fill="#FFF" d="M15.689 17.998l.137-.281a6.133 6.133 0 0 0 .608-2.678c0-1.564-.571-3.042-1.568-4.056a.5.5 0 0 0-.713.701c.814.828 1.281 2.051 1.281 3.354 0 .679-.131 1.351-.381 1.959l.636 1.001z"/><path fill="none" stroke="#955CA1" stroke-linecap="round" stroke-miterlimit="10" d="M12 .5v3M12 20.5v3M.5 12h3M20.5 12h3"/><path fill="#CDCDCD" d="M13.784 12.229c.344-.393.62-.862.822-1.376a.49.49 0 0 0-.596.479l-4.084-.019a.5.5 0 0 0-.853-.356c-.371.372-.662.823-.91 1.303.722.807 1.707 1.309 2.794 1.309 1.103 0 2.103-.512 2.827-1.34z"/><ellipse fill="#F0F0F0" cx="11.957" cy="8.998" rx="3" ry="3.5"/><path fill="#FFF" d="M11.957 5.998c1.379 0 2.5 1.346 2.5 3 0 .801-.267 1.525-.694 2.064l.668.763c.634-.724 1.026-1.724 1.026-2.827 0-2.206-1.57-4-3.5-4-.965 0-1.84.449-2.474 1.173l.668.763c.456-.574 1.095-.936 1.806-.936z"/><path fill="#E5E5E5" d="M11.957 12.998c.965 0 1.84-.449 2.474-1.173l-.668-.763c-.456.574-1.094.936-1.806.936-1.379 0-2.5-1.346-2.5-3 0-.801.267-1.525.694-2.064l-.668-.763c-.633.724-1.026 1.724-1.026 2.827 0 2.206 1.57 4 3.5 4z"/></svg>