<svg id="icon-color-large-wiki-c" xmlns="http://www.w3.org/2000/svg" viewBox="0 0 38 38"><path fill="#CEEAF8" d="M33 8v23c0 1.1-.9 2-2 2H7c-1.1 0-2-.9-2-2V8"/><path fill="#DEF1FF" d="M33 13v16c0 1.1-.9 2-2 2H7c-1.1 0-2-.9-2-2V13"/><path fill="#666" d="M5 13V8c0-1.1.933-2 2.074-2h23.852C32.067 6 33 6.9 33 8v5H5z"/><path fill="#CEEAF8" d="M5 13h28v1H5z"/><circle fill="#FB9A98" cx="9" cy="10" r="1"/><circle fill="#FF0" cx="13" cy="10" r="1"/><circle fill="#9FEDBB" cx="17" cy="10" r="1"/><path fill="#E5F4FF" stroke="#AAC3D4" stroke-linecap="round" stroke-linejoin="round" stroke-miterlimit="10" d="M8.5 16.5h9v6h-9z"/><path fill="none" stroke="#AAC3D4" stroke-linecap="round" stroke-miterlimit="10" d="M8.5 25.5h9M8.5 28.5h9"/><path fill="#E5F4FF" stroke="#AAC3D4" stroke-linecap="round" stroke-linejoin="round" stroke-miterlimit="10" d="M20.5 16.5h9v6h-9z"/><path fill="none" stroke="#AAC3D4" stroke-linecap="round" stroke-miterlimit="10" d="M20.5 25.5h9M20.5 28.5h9"/></svg>