<svg width="461" height="457" viewBox="0 0 461 457" fill="none" xmlns="http://www.w3.org/2000/svg">
<path d="M235.306 0C359.652 0 460.612 100.96 460.612 225.306C460.612 349.652 359.652 450.612 235.306 450.612C110.96 450.612 10 349.652 10 225.306C10 100.96 110.96 0 235.306 0Z" fill="#3497A2"/>
<mask id="mask0_115_4118" style="mask-type:alpha" maskUnits="userSpaceOnUse" x="183" y="110" width="84" height="177">
<path d="M266.951 118.761L265.549 279.231C265.513 283.403 262.073 286.782 257.902 286.746L190.585 286.158C186.413 286.121 183.027 282.682 183.063 278.511L184.465 118.041C184.501 113.869 187.947 110.483 192.119 110.519L259.436 111.107C263.607 111.144 266.987 114.589 266.951 118.761Z" fill="#FECFB7"/>
</mask>
<g mask="url(#mask0_115_4118)">
<path d="M263.893 101.083V242.373H198.352V101.083H263.893Z" fill="url(#paint0_linear_115_4118)"/>
<path d="M263.893 101.083V242.373H198.352V101.083H263.893Z" fill="url(#paint1_linear_115_4118)"/>
<path d="M270.957 101.154H191.285V242.302H270.957V101.154Z" fill="white"/>
<path d="M153.686 150.696L153.643 148.253C153.643 148.253 169.224 139.62 179.662 129.541C189.339 118.774 192.397 99.9987 192.397 99.9987L196.279 99.9311C196.279 99.9311 194.178 119.95 182.237 131.892C170.295 143.834 153.686 150.696 153.686 150.696Z" fill="#6EE4FF"/>
<path d="M153.75 154.402C153.749 154.31 153.686 150.696 153.686 150.696L168.667 142.207L181.898 131.944L194.091 108.171L196.279 99.9311L202.023 99.831L200.838 108.121L201.024 130.358L199.211 131.612L181.052 137.153L153.75 154.402Z" fill="#EFF2F4"/>
<path d="M213.828 171.022L212.437 169.09L216.28 166.64L218.716 165.345L189.62 142.169L192.38 140.287L196.658 143.054C196.658 143.054 199.8 140.188 200.953 139.954C202.106 139.72 226.38 160.933 226.38 160.933C226.38 160.933 226.995 161.824 225.855 162.829C224.715 163.835 213.828 171.022 213.828 171.022Z" fill="#EFF2F4"/>
<path d="M270.513 166.488C270.513 166.488 262.041 170.47 260.139 171.171C258.237 171.872 256.449 171.235 256.449 171.235L244.697 163.273L241.812 162.712L241.544 160.945C241.544 160.945 209.09 135.199 209.168 135.075C209.245 134.951 208.625 131.448 208.625 131.448L221.476 131.53L221.448 134.495C221.448 134.495 221.268 135.413 222.182 135.429C223.097 135.446 225.655 135.491 225.655 135.491C225.655 135.491 226.934 135.622 227.258 135.891C227.582 136.161 227.242 137.236 228.201 137.28C229.159 137.325 229.705 136.582 229.705 136.582L231.539 136.519L231.031 107.529L235.339 107.454L235.405 127.132C235.405 127.132 243.822 126.986 243.942 126.983C244.061 126.981 245.295 126.851 245.729 127.693C246.163 128.534 245.102 129.408 245.102 129.408L237.761 131.828L246.514 148.543L250.168 147.563C250.168 147.563 252.557 151.799 253.289 152.581C254.021 153.363 258.543 154.109 259.109 154.558C259.676 155.006 260.783 161.254 260.783 161.254L293.667 142.476L295.8 145.861L293.725 145.836L265.662 160.143L270.513 166.488Z" fill="#EFF2F4"/>
<path d="M160.933 162.897L160.695 149.345C160.695 149.345 180.509 136.643 181.046 136.817C181.583 136.991 199.211 131.612 199.211 131.612C199.211 131.612 180.918 144.276 180.03 144.841C179.142 145.407 178.854 147.184 179.753 148.391C180.652 149.597 203.703 167.104 203.703 167.104L213.978 179.576L198.54 191.212C198.54 191.212 170.908 169.319 170.762 169.203C170.617 169.088 168.87 169.543 168.87 169.543L160.933 162.897Z" fill="#EFF2F4"/>
<path d="M244.387 197.962L233.55 189.212C233.55 189.212 252.717 174.623 253.461 174.381C254.205 174.139 255.059 173.933 255.556 174.345C256.052 174.757 265.487 182.583 265.487 182.583L244.387 197.962Z" fill="#EFF2F4"/>
<path d="M219.367 177.434L218.03 176.296L213.828 171.022C213.828 171.022 224.026 163.174 225.168 162.36C226.312 161.546 225.453 160.369 225.453 160.369L202.774 141.39C202.774 141.39 201.941 140.35 200.895 141.147C199.848 141.945 198.532 142.961 197.94 143.353C197.349 143.745 196.185 143.384 196.185 143.384L192.541 140.345L203.303 132.824L238.757 161.298C238.757 161.298 239.964 161.828 239.261 162.726C238.559 163.624 219.367 177.434 219.367 177.434Z" fill="#EFF2F4"/>
<path d="M212.437 169.09C212.396 168.999 216.28 166.64 216.28 166.64C216.28 166.64 218.376 166.42 218.883 165.739C219.39 165.058 218.38 164.373 218.38 164.373L189.62 142.169L184.576 145.832L212.437 169.09Z" fill="#EFF2F4"/>
<path d="M260.139 171.171C260.168 171.102 256.096 172.708 256.096 172.708L253.992 172.218L252.057 172.778L232.001 187.956L221.068 178.841C221.068 178.841 238.912 165.581 240.419 164.478C241.926 163.375 241.822 162.551 241.822 162.551L244.79 162.889C244.79 162.889 255.943 170.831 256.815 171.068C257.687 171.305 260.139 171.171 260.139 171.171Z" fill="#EFF2F4"/>
<path d="M293.667 142.476L260.708 161.481C260.708 161.481 259.852 155.37 258.874 154.778C257.896 154.187 252.857 152.95 252.857 152.95L250.092 147.753C250.092 147.753 246.285 149.093 246.282 148.942C246.279 148.791 237.242 131.775 237.362 131.743C237.481 131.71 245.102 129.408 245.102 129.408C245.102 129.408 245.905 128.735 245.796 127.859C245.688 126.983 244.602 127.003 244.602 127.003L235.405 127.132L235.339 107.454L245.672 107.274C245.672 107.274 245.889 123.114 246.872 127.941C247.854 132.767 256.541 146.871 256.541 146.871C256.541 146.871 253.962 148.253 253.22 148.64C252.479 149.028 252.632 150.929 253.742 151.12C254.853 151.31 255.092 150.705 255.092 150.705L254.916 149.8L289.716 136.504L293.667 142.476Z" fill="#EFF2F4"/>
<path d="M258.561 146.053C258.599 145.919 273.616 140.527 273.616 140.527C273.616 140.527 266.826 128.083 266.21 127.115C265.595 126.148 264.234 119.724 264.226 118.624C264.218 117.524 264.141 106.952 264.141 106.952L248.025 107.233C248.025 107.233 247.443 121.85 249.227 127.991C251.01 134.133 258.561 146.053 258.561 146.053Z" fill="#EFF2F4"/>
<path d="M223.433 133.91C223.433 133.91 225.71 134.023 226.587 134.008C227.465 133.993 228.725 134.617 228.919 135.006C229.113 135.396 229.705 136.582 229.705 136.582L231.539 136.519L231.031 107.529L222.973 107.669L223.433 133.91Z" fill="#EFF2F4"/>
<path d="M208.625 131.448L208.575 128.546L209.36 127.799L209.011 107.912L220.979 107.704L221.475 131.686L208.625 131.448Z" fill="#EFF2F4"/>
<path d="M274.85 140.021C275.466 139.803 288.63 135.078 288.63 135.078L284.21 126.417L281.899 117.506L281.285 107.495L265.61 107.768L265.809 119.099L267.293 126.399L274.85 140.021Z" fill="#EFF2F4"/>
<path d="M233.472 106.555L233.345 99.2859L281.206 98.453L281.333 105.722L233.472 106.555Z" fill="#EFF2F4"/>
<path d="M209.303 106.976L232.116 106.579L231.989 99.3094L209.893 99.6939L209.303 106.976Z" fill="#EFF2F4"/>
<path d="M206.649 133.113L206.607 130.731L205.033 131.972L206.649 133.113Z" fill="#EFF2F4"/>
<path d="M204.962 127.929L205.959 127.125L205.848 108.645L204.625 108.666L204.962 127.929Z" fill="#EFF2F4"/>
<path d="M204.591 106.793L205.815 106.772L206.064 99.7606L204.591 106.793Z" fill="#EFF2F4"/>
<path d="M153.194 122.638L152.998 111.439L155.066 100.648L187.346 100.087L185.265 102.771L153.194 122.638Z" fill="#EFF2F4"/>
<path d="M300.564 152.825C300.564 152.825 295.92 146.051 295.8 145.861C295.681 145.67 293.421 145.861 293.421 145.861L265.369 160.046L270.513 166.488L300.564 152.825Z" fill="#EFF2F4"/>
<path d="M245.455 198.431C245.455 198.431 266.364 183.443 266.258 183.485C266.153 183.528 276.997 192.179 276.997 192.179L256.624 207.158L245.455 198.431Z" fill="#EFF2F4"/>
<path d="M278.677 190.928L257.414 173.577L269.57 169.048L278.437 177.245L283.836 184.809L284.814 185.973L287.279 186.994L288.183 186.978L289.145 187.242L281.294 191.534C281.294 191.534 280.092 191.911 279.593 191.563C279.093 191.216 278.677 190.928 278.677 190.928Z" fill="#EFF2F4"/>
<path d="M290.058 186.945L297.3 183.627L289.173 172.923L281.827 163.488L270.587 168.694L279.024 176.564L285.156 185.03L287.611 186.24L288.645 186.039L290.058 186.945Z" fill="#EFF2F4"/>
<path d="M292.37 173.173L310.06 165.013L301.933 154.308L283.71 162.783L292.37 173.173Z" fill="#EFF2F4"/>
<path d="M299.278 182.646L293.395 174.774L311.283 166.519L317.567 174.506L299.278 182.646Z" fill="#EFF2F4"/>
<path d="M266.864 215.779C266.783 215.688 258.316 208.381 258.316 208.381L278.997 193.234L280.837 193.507L282.351 193.389L286.616 190.902L296.062 201.767L266.864 215.779Z" fill="#EFF2F4"/>
<path d="M240.104 220.929L216.47 201.792L230.727 192.78L256.676 213.389L256.698 214.652L240.104 220.929Z" fill="#EFF2F4"/>
<path d="M197.192 191.486L169.633 170.013L169.819 169.248L161.522 162.455L160.695 149.345L153.75 154.402L154.524 198.547C154.524 198.547 162.431 196.478 163.371 196.129C164.31 195.781 165.551 195.055 166.207 196.103C166.864 197.151 164.375 197.784 164.375 197.784L154.559 200.516L154.721 209.787L158.227 214.247L176.583 205.333L197.192 191.486Z" fill="#EFF2F4"/>
<path d="M153.75 154.402L154.226 181.529C162.274 188.836 170.433 196.106 179.47 203.123C179.507 203.178 179.553 203.239 179.601 203.305L197.192 191.486C197.192 191.486 170.075 170.435 169.811 170.159C169.547 169.884 169.819 169.248 169.819 169.248L161.522 162.455L160.695 149.345L153.75 154.402Z" fill="#E2E2E2"/>
<path d="M215.708 201.576L229.105 191.963L215.782 180.769L202.272 190.696L215.708 201.576Z" fill="#EFF2F4"/>
<path d="M201.12 211.454L212.392 203.589C212.392 203.589 198.914 192.611 198.916 192.703C198.918 192.794 187.683 200.567 187.683 200.567L201.12 211.454Z" fill="#EFF2F4"/>
<path d="M153.643 148.253L153.397 124.838L179.725 108.421L187.407 103.589L189.845 100.043L192.397 99.9987L190.502 108.234C190.502 108.234 187.825 122.841 178.631 131.038C169.437 139.235 153.643 148.253 153.643 148.253Z" fill="#E3E4E5"/>
<path d="M214.723 222.144L201.922 211.735L213.158 204.044L229.29 217.043L214.723 222.144Z" fill="#EFF2F4"/>
<path d="M198.234 211.504L186.039 201.624L177.041 207.198L159.578 215.487L169.684 227.572L175.626 223.599L177.883 221.889L185.469 220.698L193.326 216.732L193.575 215.791L198.234 211.504Z" fill="#EFF2F4"/>
<path d="M182.403 242.994L170.823 228.775L178.811 223.218L186.029 222.277L194.836 217.887L196.165 217.864L201.201 213.785L218.524 227.924L221.315 229.362L222.964 232.389L182.403 242.994Z" fill="#EFF2F4"/>
<path d="M154.868 215.894C154.868 215.854 156.431 214.971 156.431 214.971L154.765 212.261L154.868 215.894Z" fill="#EFF2F4"/>
<path d="M155.068 229.578L154.861 217.727L157.682 216.538L165.021 225.494L155.068 229.578Z" fill="#EFF2F4"/>
<path d="M155.139 231.329L165.999 226.699L171.429 233.001L160.226 237.921C160.226 237.921 158.674 238.469 158.323 237.954C157.973 237.439 155.174 233.324 155.174 233.324L155.139 231.329Z" fill="#EFF2F4"/>
<path d="M155.431 250.307L180.177 243.521L172.569 234.325L160.002 239.677C160.002 239.677 157.743 240.319 157.179 239.44C156.615 238.562 155.187 236.338 155.187 236.338L155.431 250.307Z" fill="#EFF2F4"/>
<path d="M224.074 232.003L222.643 229.258L224.922 228.77C224.922 228.77 256.147 216.617 256.203 216.779C256.259 216.941 252.589 220.019 252.589 220.019L245.142 223.041C245.142 223.041 230.208 229.941 230.157 230.064C230.106 230.187 224.074 232.003 224.074 232.003Z" fill="#EFF2F4"/>
<path d="M215.359 222.633L230.033 217.611L235.78 222.277L222.877 227.421C222.877 227.421 221.459 228.012 220.829 227.456C220.199 226.901 215.359 222.633 215.359 222.633Z" fill="#EFF2F4"/>
<path d="M297.01 201.2L308.635 195.223L300.225 184.34L287.642 190.272L297.01 201.2Z" fill="#EFF2F4"/>
<path d="M309.464 194.781L326.8 186.872L318.67 175.954L301.11 184.019L309.464 194.781Z" fill="#EFF2F4"/>
<path d="M258.811 218.403L262.202 217.611L260.252 215.608L258.811 218.403Z" fill="#EFF2F4"/>
<path d="M269.084 181.764L274.065 178.133C274.065 178.133 266.037 171.855 266.036 171.764C266.034 171.672 261.074 175.547 261.074 175.547L269.084 181.764Z" fill="#C5C7C9"/>
<path d="M207.545 194.455L203.536 191.132L209.564 186.719L213.541 189.927L207.545 194.455Z" fill="#C5C7C9"/>
<path d="M167.887 165.19L170.866 162.724L165.714 159.017L162.765 161.521L167.887 165.19Z" fill="#C5C7C9"/>
<path d="M220.121 153.83L222.692 151.975L219.777 149.551L217.207 151.475L220.121 153.83Z" fill="#C5C7C9"/>
<path d="M224.216 117.663L224.18 115.623L230.313 115.517L230.349 117.556L224.216 117.663Z" fill="#C5C7C9"/>
<path d="M263.508 153.931C263.508 153.931 272.432 150.786 272.315 150.697C272.197 150.609 269.256 145.268 269.256 145.268L260.169 148.617L263.508 153.931Z" fill="#C5C7C9"/>
<path d="M190.086 192.123C190.234 192.006 192.005 190.6 192.005 190.6L188.912 188.316L186.802 189.991L190.086 192.123Z" fill="#C5C7C9"/>
<path d="M234.044 214.303C234.042 214.181 218.863 201.735 218.863 201.735L223.671 198.321L239.246 210.607L234.044 214.303Z" fill="#C5C7C9"/>
<path d="M208.398 214.749L204.436 211.763L208.608 208.513L210.873 210.245L210.047 210.932L211.746 212.247L208.398 214.749Z" fill="#C5C7C9"/>
<path d="M193.213 203.098L189.711 200.149L198.162 194.075L201.824 197.021L200.364 197.917L199.815 197.361L198.83 198.02L198.463 197.599L197.004 198.564L196.578 198.182L195.297 199.075L196.006 199.643L194.566 200.569L195.151 200.987L194.264 201.567L194.749 201.941L193.213 203.098Z" fill="#C5C7C9"/>
<path d="M221.163 225.984C221.044 226.017 220.114 226.009 219.801 225.654C219.488 225.299 216.951 222.422 216.951 222.422L224.644 219.706L227.226 223.648L221.163 225.984Z" fill="#F7D2AD"/>
<path d="M230.71 223.236L233.785 222.266L229.029 218.362L225.916 219.47L230.71 223.236Z" fill="#C5C7C9"/>
<path d="M269.848 206.164C269.806 206.073 267.403 203.243 267.403 203.243L274.441 199.607L276.89 202.803L269.848 206.164Z" fill="#C5C7C9"/>
<path d="M298.734 199.398L296.691 196.653L298.947 195.636L296.987 193.043L294.613 194.184L292.525 191.165L294.862 190.208L295.235 190.996L296.346 190.61L295.671 189.681L297.947 188.657L299.132 190.225L298.659 190.57L301.241 194.496L301.874 194.18L302.776 195.57L303.569 195.281L304.39 196.611L302.096 197.751L302.601 198.23L301.436 198.77L300.827 198.201L298.734 199.398Z" fill="#F7D2AD"/>
<path d="M320.266 187.472L324.188 185.787L318.551 178.278L314.551 179.967L317.7 184.342L319.135 183.781L320.68 185.94L319.652 186.446L320.266 187.472Z" fill="#F7D2AD"/>
<path d="M289.561 151.794C289.561 151.794 294.259 149.676 294.338 149.675C294.418 149.673 296.032 152.211 296.032 152.211L291.39 154.431L291.117 154.048L290.246 154.451L289.321 153.224L290.323 152.779L289.561 151.794Z" fill="#F7D2AD"/>
<path d="M289.561 151.794L288.325 150.146L287.793 150.399L287.106 149.434L292.16 146.82L293.115 148.007L293.63 147.815L294.058 148.484L293.625 148.707L294.338 149.675L289.561 151.794Z" fill="#C5C7C9"/>
<path d="M278.834 131.521L277.639 129.373L283.11 127.384L284.422 129.392L278.834 131.521Z" fill="#F7D2AD"/>
<path d="M274.181 105.083L280.203 104.978L280.148 101.832L275.522 101.913L275.54 102.982L274.144 103.006L274.181 105.083Z" fill="#F7D2AD"/>
<path d="M269.36 219.34C269.122 219.406 295.41 207.827 295.41 207.827L326.895 192.278L310.655 198.977L283.358 212.192L269.36 219.34Z" fill="#E2E2E2"/>
<path d="M249.431 229.525L248.029 226.922L254.125 224.147L263.73 221.292L264.38 221.982L249.431 229.525Z" fill="#E2E2E2"/>
<path d="M247.452 230.415L245.574 227.942L225.049 235.999L179.509 247.851L180.272 248.937L225.465 237.017L236.511 234.394L247.452 230.415Z" fill="#E2E2E2"/>
<path d="M155.56 255.356L173.68 250.641L173.26 249.487L155.513 254.929L155.56 255.356Z" fill="#E2E2E2"/>
<path d="M223.906 243.657L221.316 241.563L239.717 237.515L252.117 232.534L260.239 245.224C260.239 245.224 260.961 246.983 262.125 246.597C263.289 246.21 262.672 244.448 262.672 244.448L256.531 235.451L318.015 250.146C318.015 250.146 316.817 251.613 317.02 252.546C317.223 253.48 318.09 254.422 318.09 254.422L325.693 264.8C325.693 264.8 326.584 265.578 327.377 265.32C328.171 265.062 327.346 263.549 327.346 263.549C327.346 263.549 320.371 254.036 319.663 253.111C318.955 252.187 319.939 250.662 319.939 250.662L328.498 252.774L328.831 271.772L305.549 267.289L288.998 260.794L303.348 255.534C303.348 255.534 304.935 255.017 304.363 254.233C303.79 253.448 302.606 254.202 302.606 254.202L286.512 260.104L269.093 254.175C269.093 254.175 279.94 249.342 280.181 249.399C280.421 249.456 282.16 248.509 281.908 247.78C281.655 247.051 279.358 248.008 279.358 248.008L266.131 253.615L234.543 245.854L223.906 243.657Z" fill="#E2E2E2"/>
<path d="M255.17 233.702L254.022 231.95L267.788 225.213L271.846 229.135L275.182 232.804L281.592 234.281L283.812 228.927C283.812 228.927 284.434 227.999 283.39 227.651C282.347 227.302 281.732 228.657 281.732 228.657L279.877 232.05L276.118 231.566L271.394 226.088L270.557 223.861L287.032 216.894L289.044 217.878L328.086 229.256L328.209 236.281L308.73 230.265L288.249 224.857C288.249 224.857 286.515 223.828 285.975 224.897C285.435 225.965 287.274 226.178 287.274 226.178L302.748 230.369L300.216 236.157C300.216 236.157 299.673 237.083 300.556 237.373C301.439 237.663 302.033 236.614 302.033 236.614L304.996 231.186L325.081 236.702L323.955 238.494L319.706 237.345C319.706 237.345 317.944 236.948 317.796 237.623C317.648 238.298 318.85 238.582 318.85 238.582L323.105 240.036L319.185 248.598L296.781 242.755L298.278 239.429C298.278 239.429 298.539 238.386 297.618 238.158C296.696 237.929 296.037 238.979 296.037 238.979L294.576 242.182L258.465 233.523L255.17 233.702Z" fill="#E2E2E2"/>
<path d="M320.972 248.893L328.466 250.962L328.239 238.012L326.674 237.306L320.972 248.893Z" fill="#E2E2E2"/>
<path d="M328.055 227.464C328.052 227.301 327.697 207.021 327.697 207.021L318.322 203.884L316.116 202.456L289.061 215.84L328.055 227.464Z" fill="#E2E2E2"/>
<path d="M327.663 205.127L319.716 202.592L318.038 201.384L327.515 196.636L327.663 205.127Z" fill="#F7EDED"/>
<path d="M212.302 282.703L183.041 252.097L213.578 244.692L243.983 251.037L302.603 269.173L328.88 274.582L328.998 281.301L212.302 282.703Z" fill="#E2E2E2"/>
<path d="M155.638 259.815L176.693 254.133L184.903 262.728L180.088 265.744C180.088 265.744 179.246 265.53 179.011 265.763C178.776 265.996 169.89 271.146 169.89 271.146C169.89 271.146 163.819 272.62 163.455 272.771C163.091 272.922 162.828 273.408 162.828 273.408L156.23 274.867L155.836 273.407L155.638 259.815Z" fill="#E2E2E2"/>
<path d="M198.582 282.942L202.3 281.062L185.351 263.239L180.576 266.286C180.576 266.286 180.863 266.709 180.432 267.113C180 267.518 175.536 270.04 175.536 270.04L188.173 283.123L198.582 282.942Z" fill="#E2E2E2"/>
<path d="M176.207 283.331L185.74 283.165L174.035 270.952L171.98 272.057L176.207 283.331Z" fill="#E2E2E2"/>
<path d="M159.775 283.617L156.799 275.438L163.245 273.96C163.245 273.96 163.707 274.279 164.118 274.18C164.529 274.08 170.117 272.731 170.117 272.731L173.934 283.371L159.775 283.617Z" fill="#E2E2E2"/>
<path d="M283.907 255.461C300.235 255.553 283.981 295.453 283.981 295.453H177.678C177.678 295.453 161.276 255.53 177.604 255.461C230.055 255.241 229.353 243.405 231.125 243.157C232.783 243.368 231.53 255.167 283.907 255.461Z" fill="#83DDFF"/>
<path d="M242.84 240.228C242.84 240.468 242.644 240.663 242.404 240.663H219.84C219.599 240.663 219.404 240.468 219.404 240.228C219.404 239.989 219.599 239.794 219.84 239.794H242.404C242.644 239.794 242.84 239.989 242.84 240.228Z" fill="white"/>
</g>
<path d="M259.025 110.087C263.197 110.123 266.576 113.568 266.54 117.74L265.138 278.21C265.102 282.383 261.663 285.761 257.491 285.724L190.175 285.136C186.002 285.1 182.617 281.662 182.653 277.489L184.055 117.02C184.091 112.848 187.536 109.463 191.709 109.499L259.025 110.087ZM258.817 104.412L191.713 103.826C184.591 103.764 178.699 109.553 178.637 116.681L177.174 284.098C177.112 291.233 182.902 297.112 190.024 297.175L257.128 297.761C264.256 297.823 270.148 292.045 270.21 284.91L271.672 117.494C271.734 110.366 265.945 104.474 258.817 104.412Z" fill="#29293D"/>
<path d="M269.895 284.908C269.834 291.88 264.105 297.504 257.132 297.443L190.028 296.857C183.054 296.796 177.432 291.073 177.493 284.101L178.955 116.684C179.016 109.711 184.738 104.081 191.711 104.142L258.815 104.728C265.789 104.789 271.418 110.518 271.357 117.491L269.895 284.908ZM258.82 104.094L191.717 103.508C184.394 103.444 178.385 109.356 178.321 116.678L176.859 284.095C176.795 291.418 182.7 297.427 190.023 297.49L257.126 298.077C264.449 298.141 270.459 292.236 270.523 284.913L271.985 117.496C272.049 110.174 266.143 104.158 258.82 104.094Z" fill="#CCCCCC"/>
<path d="M218.21 110.894C219.302 110.903 220.178 111.795 220.169 112.886C220.159 113.972 219.268 114.848 218.176 114.838C217.091 114.829 216.213 113.937 216.223 112.851C216.233 111.76 217.125 110.884 218.21 110.894Z" fill="#3B414B"/>
<path d="M234.091 112.818C234.083 113.743 233.288 114.493 232.311 114.485C231.341 114.476 230.551 113.712 230.56 112.787C230.568 111.863 231.37 111.113 232.34 111.121C233.317 111.13 234.099 111.893 234.091 112.818Z" fill="#515760"/>
<path d="M228.268 111.96L228.26 112.957C228.255 113.5 227.816 113.932 227.272 113.927L223.404 113.893C222.868 113.888 222.429 113.45 222.434 112.907L222.443 111.91C222.447 111.374 222.894 110.934 223.43 110.939L227.298 110.973C227.842 110.978 228.273 111.424 228.268 111.96Z" fill="#1A1F29"/>
<path d="M232.34 111.125C231.368 111.116 230.568 111.861 230.56 112.787C230.552 113.715 231.339 114.474 232.311 114.483C233.29 114.491 234.085 113.746 234.094 112.818C234.102 111.891 233.319 111.134 232.34 111.125ZM210.533 109.665L240.323 109.926C240.323 109.926 237.111 110.454 237.06 113.463C237.002 116.469 234.473 116.957 232.209 116.937L225.366 116.877L218.524 116.818C216.258 116.798 213.739 116.266 213.733 113.26C213.735 110.249 210.533 109.665 210.533 109.665ZM227.298 110.973L223.431 110.939C222.894 110.934 222.448 111.374 222.443 111.91L222.434 112.907C222.43 113.45 222.868 113.888 223.405 113.893L227.273 113.927C227.816 113.932 228.255 113.5 228.26 112.957L228.269 111.96C228.274 111.424 227.841 110.978 227.298 110.973ZM220.169 112.887C220.179 111.795 219.303 110.903 218.211 110.894C217.125 110.884 216.233 111.76 216.224 112.852C216.214 113.937 217.09 114.83 218.176 114.839C219.268 114.849 220.16 113.972 220.169 112.887Z" fill="#3E394F"/>
<path d="M268.431 117.071L267.023 278.226L265.14 278.21L266.542 117.74C266.578 113.568 263.199 110.123 259.028 110.087L191.711 109.499C187.538 109.463 184.093 112.848 184.056 117.019L182.655 277.489L180.889 277.474L182.296 116.319C182.345 110.736 186.96 106.216 192.527 106.265L258.377 106.84C263.96 106.889 268.48 111.489 268.431 117.071Z" fill="#3E394F"/>
<path d="M267.023 278.226L266.962 285.258C266.913 290.834 262.314 295.36 256.731 295.311L190.881 294.736C185.313 294.687 180.779 290.081 180.827 284.506L180.889 277.474L182.655 277.489C182.618 281.661 186.004 285.1 190.177 285.136L257.494 285.724C261.665 285.761 265.104 282.382 265.14 278.21L267.023 278.226Z" fill="#3E394F"/>
<path d="M255.866 330.023C255.866 330.023 230.482 267.979 269.038 233.325C269.038 233.325 259.397 174.683 269.621 166.614C279.845 158.545 286.476 187.973 301.979 281.113L336.683 329.278L336.364 370.937L273.224 370.386L255.866 330.023Z" fill="#EB996D"/>
<path d="M177.503 221.105L168.257 221.025C163.72 220.985 160.041 217.241 160.08 212.704C160.12 208.167 163.864 204.488 168.401 204.527L177.647 204.608C182.184 204.648 185.863 208.392 185.823 212.929C185.784 217.465 182.039 221.145 177.503 221.105Z" fill="#EB996D"/>
<path d="M175.563 240.396L166.771 240.319C161.462 240.273 157.156 235.891 157.203 230.581C157.249 225.273 161.631 220.967 166.94 221.013L175.731 221.09C181.04 221.136 185.347 225.518 185.301 230.827C185.254 236.137 180.872 240.442 175.563 240.396Z" fill="#EB996D"/>
<path d="M175.76 259.707L166.967 259.63C161.659 259.583 157.352 255.201 157.398 249.892C157.444 244.583 161.827 240.276 167.136 240.322L175.929 240.399C181.238 240.446 185.543 244.828 185.497 250.137C185.451 255.446 181.069 259.753 175.76 259.707Z" fill="#EB996D"/>
<path d="M177.429 276.218L168.185 276.137C163.648 276.097 159.968 272.353 160.008 267.816C160.048 263.279 163.792 259.6 168.329 259.64L177.573 259.72C182.11 259.76 185.79 263.504 185.75 268.041C185.71 272.578 181.966 276.257 177.429 276.218Z" fill="#EB996D"/>
<g opacity="0.01">
<path d="M275.223 158.767L278.278 188.249L284.641 174.099L281.586 144.617L275.223 158.767Z" fill="#FECFB7"/>
</g>
<g opacity="0.01">
<path d="M293.169 128.345C292.799 139.223 294.401 149.441 296.75 151.158C299.098 152.876 301.303 145.452 301.674 134.569C302.046 123.691 300.442 113.473 298.094 111.756C295.745 110.042 293.54 117.466 293.169 128.345Z" fill="#FECFB7"/>
</g>
<g opacity="0.01">
<path d="M285.891 250.179C285.638 257.614 286.733 264.597 288.338 265.775C289.943 266.948 291.45 261.873 291.704 254.434C291.959 247 290.862 240.016 289.257 238.843C287.652 237.665 286.144 242.745 285.891 250.179Z" fill="#FC6011"/>
</g>
<path d="M312 455.5L253.5 352.5L319 300L390 398V455.5H312Z" fill="#EE9E97"/>
<path d="M390 398.5L319 300.5L253 353L312 456" stroke="black"/>
<g opacity="0.391034">
<path d="M224.973 223.713C236.818 223.713 246.435 228.522 246.435 234.444C246.435 240.367 236.818 245.176 224.973 245.176C213.127 245.176 203.51 240.367 203.51 234.444C203.51 228.522 213.127 223.713 224.973 223.713Z" fill="#D1E4FC"/>
</g>
<g opacity="0.01">
<path d="M224.972 220.445C238.203 220.445 248.945 225.816 248.945 232.431C248.945 239.046 238.203 244.417 224.972 244.417C211.742 244.417 201 239.046 201 232.431C201 225.816 211.742 220.445 224.972 220.445Z" fill="#D1E4FC"/>
</g>
<rect y="56" width="200" height="75" rx="14" fill="#FC6011"/>
<path d="M50.0213 107.377C48.0839 107.377 46.2974 107.05 44.6619 106.396C43.0516 105.717 41.6426 104.773 40.4348 103.565C39.2523 102.333 38.3339 100.886 37.6797 99.2252C37.0255 97.5394 36.6984 95.7026 36.6984 93.7148C36.6984 91.7774 37.0381 89.991 37.7174 88.3555C38.3968 86.6948 39.3529 85.2606 40.5858 84.0529C41.8187 82.82 43.2655 81.8639 44.9261 81.1845C46.5868 80.5052 48.3858 80.1655 50.3232 80.1655C51.5813 80.1655 52.8142 80.3416 54.0219 80.6939C55.2548 81.021 56.3745 81.5116 57.381 82.1658C58.4126 82.82 59.2932 83.6 60.0229 84.5058L56.4752 88.431C55.8713 87.8271 55.2423 87.3113 54.5881 86.8835C53.959 86.4306 53.2797 86.091 52.55 85.8645C51.8455 85.6129 51.0906 85.4871 50.2855 85.4871C49.2035 85.4871 48.1845 85.6884 47.2284 86.091C46.2974 86.4935 45.4797 87.0597 44.7752 87.7894C44.0706 88.4939 43.5045 89.3619 43.0768 90.3935C42.6742 91.4 42.4729 92.5197 42.4729 93.7526C42.4729 95.0106 42.6742 96.1555 43.0768 97.1871C43.4794 98.1935 44.0455 99.0616 44.7752 99.7913C45.5048 100.496 46.3729 101.049 47.3794 101.452C48.411 101.829 49.5432 102.018 50.7761 102.018C51.5813 102.018 52.3613 101.905 53.1161 101.678C53.871 101.452 54.5629 101.137 55.1919 100.735C55.8461 100.332 56.4248 99.8668 56.9281 99.3384L59.6832 103.754C59.0794 104.434 58.2616 105.05 57.23 105.604C56.2235 106.157 55.0913 106.597 53.8332 106.925C52.5752 107.226 51.3045 107.377 50.0213 107.377ZM64.4558 107V80.5806H70.1171V101.905H82.0813V107H64.4558ZM84.2116 107L94.5529 80.5806H99.6104L109.914 107H104.102L98.78 92.7713C98.6291 92.3687 98.4404 91.8529 98.2139 91.2239C98.0126 90.5948 97.7987 89.9281 97.5723 89.2235C97.3458 88.519 97.132 87.8523 96.9307 87.2232C96.7294 86.569 96.5784 86.0281 96.4778 85.6003L97.4968 85.5626C97.3458 86.1413 97.1697 86.7452 96.9684 87.3742C96.7923 87.9781 96.6036 88.6071 96.4023 89.2613C96.201 89.8903 95.9871 90.5068 95.7607 91.1106C95.5342 91.7145 95.3204 92.3058 95.1191 92.8845L89.7975 107H84.2116ZM89.0049 101.452L90.8542 96.8852H102.969L104.856 101.452H89.0049ZM112.944 107V102.131H117.36V85.4494H112.944V80.5806H127.437V85.4494H123.021V102.131H127.437V107H112.944ZM133.637 107V80.5806H138.808L148.432 96.2435L145.035 96.2058L154.773 80.5806H159.717V107H154.169V97.9419C154.169 95.6774 154.219 93.6394 154.32 91.8277C154.445 90.0161 154.647 88.2171 154.924 86.4306L155.603 88.2045L147.866 100.206H145.375L137.789 88.28L138.43 86.4306C138.707 88.1165 138.896 89.8526 138.996 91.639C139.122 93.4003 139.185 95.5013 139.185 97.9419V107H133.637Z" fill="white"/>
<path d="M215.5 181L202.5 190.5L215.5 201.5L228.5 192L215.5 181Z" fill="#FC6011" fill-opacity="0.5"/>
<path d="M214.368 144.775C218.865 147.335 223.184 152.216 225.895 157.825C228.043 162.266 228.798 166.348 228.425 169.869C228.283 171.189 227.986 172.429 227.542 173.579C226.447 176.428 224.772 178.765 223.273 181.167C221.678 183.729 220.02 186.219 218.344 188.686C217.481 189.957 216.613 191.223 215.734 192.476C215.343 193.034 214.829 193.132 214.315 192.839C213.803 192.547 213.292 191.87 212.903 190.876C211.161 186.424 209.453 181.966 207.782 177.509C206.677 174.564 205.603 171.651 204.585 168.713C203.566 165.769 202.368 162.821 201.435 159.876C199.921 155.107 199.42 150.743 200.841 147.505C203.016 142.542 208.488 141.426 214.368 144.775Z" fill="#FC6011"/>
<path d="M233.985 165.308C233.987 165.251 233.987 165.193 233.989 165.137C233.992 165.036 233.995 164.935 233.996 164.833C233.997 164.774 234 164.717 234 164.658C234 164.589 233.998 164.519 233.997 164.45C233.997 164.355 233.996 164.261 233.994 164.165C233.993 164.118 233.994 164.071 233.992 164.023C233.99 163.933 233.983 163.842 233.98 163.752C233.976 163.666 233.972 163.579 233.967 163.492C233.965 163.459 233.965 163.428 233.963 163.395C233.955 163.268 233.943 163.138 233.932 163.009C233.927 162.944 233.923 162.879 233.917 162.813C233.915 162.799 233.915 162.785 233.913 162.771C233.894 162.564 233.871 162.356 233.844 162.146C233.843 162.14 233.842 162.133 233.841 162.126C233.836 162.084 233.829 162.041 233.823 161.999C233.802 161.839 233.78 161.679 233.755 161.518C233.751 161.489 233.745 161.46 233.74 161.431C233.727 161.35 233.712 161.269 233.698 161.188C233.68 161.086 233.664 160.984 233.645 160.881C233.635 160.828 233.623 160.774 233.613 160.721C233.595 160.631 233.577 160.541 233.558 160.451C233.543 160.378 233.53 160.307 233.514 160.234C233.497 160.155 233.477 160.074 233.459 159.995C233.438 159.903 233.417 159.812 233.395 159.72C233.383 159.673 233.374 159.626 233.362 159.578C233.333 159.463 233.301 159.347 233.271 159.231C233.25 159.151 233.229 159.071 233.208 158.99C233.201 158.965 233.195 158.941 233.188 158.916C233.13 158.705 233.068 158.493 233.003 158.28C233.001 158.272 232.998 158.264 232.996 158.256L232.995 158.253C232.928 158.035 232.858 157.816 232.784 157.595C232.776 157.569 232.766 157.542 232.757 157.516C232.732 157.443 232.706 157.369 232.68 157.295C232.64 157.179 232.601 157.064 232.559 156.947C232.537 156.887 232.513 156.826 232.491 156.765C232.46 156.682 232.428 156.598 232.397 156.514C232.37 156.445 232.346 156.377 232.319 156.308C232.276 156.197 232.23 156.085 232.185 155.973C232.156 155.903 232.129 155.832 232.1 155.761C232.088 155.731 232.076 155.702 232.064 155.672C231.976 155.459 231.884 155.245 231.79 155.03C231.787 155.024 231.784 155.017 231.781 155.01C231.764 154.973 231.746 154.935 231.729 154.898C231.65 154.72 231.57 154.542 231.486 154.362C231.454 154.293 231.422 154.224 231.388 154.155C231.305 153.98 231.221 153.807 231.135 153.634C231.078 153.52 231.019 153.408 230.961 153.295C230.907 153.189 230.852 153.082 230.797 152.976C230.767 152.918 230.738 152.86 230.707 152.802C230.653 152.7 230.594 152.6 230.539 152.499C230.418 152.276 230.296 152.055 230.17 151.835C230.134 151.773 230.101 151.708 230.065 151.646C230.006 151.545 229.944 151.447 229.884 151.346C229.785 151.18 229.686 151.014 229.584 150.85C229.481 150.682 229.375 150.517 229.27 150.352C229.165 150.189 229.061 150.028 228.955 149.867C228.912 149.803 228.871 149.736 228.828 149.672C228.779 149.601 228.728 149.533 228.679 149.462C228.497 149.196 228.312 148.934 228.123 148.674C228.07 148.601 228.02 148.525 227.966 148.452C227.926 148.398 227.885 148.347 227.845 148.293C227.76 148.179 227.673 148.067 227.587 147.954C227.511 147.855 227.436 147.754 227.36 147.656C227.295 147.574 227.228 147.494 227.163 147.413C227.089 147.321 227.016 147.229 226.941 147.138C226.891 147.077 226.843 147.015 226.793 146.954C226.672 146.809 226.549 146.668 226.427 146.525C226.378 146.468 226.329 146.41 226.28 146.353C226.265 146.335 226.25 146.317 226.234 146.3C226.045 146.084 225.854 145.872 225.661 145.663C225.643 145.643 225.624 145.624 225.606 145.604C225.546 145.541 225.487 145.48 225.427 145.417C225.306 145.289 225.185 145.159 225.062 145.033C225.01 144.98 224.957 144.93 224.905 144.877C224.822 144.794 224.739 144.712 224.655 144.63C224.582 144.558 224.51 144.484 224.437 144.413C224.348 144.328 224.259 144.248 224.17 144.165C224.085 144.085 224.001 144.005 223.915 143.927C223.874 143.889 223.833 143.849 223.791 143.811C223.646 143.68 223.499 143.555 223.353 143.429C223.295 143.378 223.236 143.325 223.178 143.275C223.164 143.263 223.151 143.251 223.137 143.239C222.922 143.058 222.706 142.88 222.488 142.708C222.471 142.695 222.453 142.682 222.436 142.668C222.378 142.623 222.321 142.581 222.263 142.536C222.126 142.431 221.99 142.324 221.852 142.222C221.795 142.18 221.738 142.141 221.681 142.1C221.604 142.045 221.527 141.99 221.45 141.936C221.377 141.885 221.305 141.831 221.232 141.781C221.109 141.696 220.986 141.617 220.864 141.536C220.808 141.5 220.753 141.462 220.698 141.427C220.676 141.413 220.653 141.397 220.631 141.383C220.435 141.258 220.238 141.137 220.042 141.021C219.996 140.994 219.951 140.968 219.905 140.941C219.76 140.857 219.615 140.776 219.47 140.697C219.41 140.665 219.35 140.635 219.289 140.603C219.216 140.565 219.143 140.527 219.07 140.49C219.015 140.462 218.961 140.432 218.907 140.405C218.798 140.351 218.691 140.302 218.583 140.252C218.524 140.224 218.465 140.195 218.407 140.168C218.386 140.159 218.365 140.148 218.344 140.139C218.155 140.054 217.966 139.974 217.778 139.899C217.77 139.895 217.763 139.893 217.754 139.89C217.715 139.874 217.676 139.86 217.637 139.845C217.494 139.79 217.352 139.734 217.21 139.684C217.175 139.672 217.141 139.662 217.106 139.65C217.03 139.624 216.955 139.6 216.879 139.576C216.796 139.549 216.713 139.519 216.631 139.494C216.572 139.477 216.514 139.463 216.456 139.446C216.372 139.422 216.287 139.398 216.203 139.376C216.148 139.361 216.093 139.344 216.037 139.33C215.96 139.311 215.883 139.296 215.806 139.278C215.718 139.258 215.631 139.238 215.544 139.22C215.507 139.213 215.469 139.203 215.431 139.195C215.341 139.178 215.252 139.166 215.162 139.151C215.071 139.135 214.979 139.118 214.888 139.105C214.861 139.101 214.834 139.095 214.807 139.092C214.721 139.08 214.637 139.075 214.551 139.065C214.441 139.053 214.33 139.04 214.221 139.031C214.196 139.029 214.17 139.025 214.145 139.023C214.074 139.018 214.005 139.02 213.934 139.016C213.802 139.01 213.67 139.004 213.539 139.003C213.507 139.003 213.475 139 213.444 139C213.304 139.001 213.166 139.005 213.029 139.012C213.006 139.013 212.984 139.015 212.962 139.016C212.87 139.022 212.777 139.027 212.686 139.035C212.616 139.042 212.547 139.052 212.478 139.06C212.433 139.065 212.387 139.069 212.342 139.075C212.173 139.098 212.006 139.124 211.842 139.156C211.833 139.158 211.824 139.161 211.815 139.163C211.754 139.175 211.695 139.191 211.634 139.205C211.508 139.234 211.382 139.263 211.258 139.297C211.187 139.317 211.117 139.341 211.046 139.364C210.963 139.39 210.879 139.412 210.798 139.441C210.775 139.449 210.753 139.46 210.73 139.469C210.597 139.517 210.467 139.572 210.338 139.628C210.275 139.655 210.21 139.68 210.148 139.709C209.959 139.797 209.773 139.893 209.593 139.998L203.838 143.35C204.019 143.245 204.205 143.15 204.394 143.061C204.456 143.032 204.52 143.008 204.584 142.98C204.713 142.924 204.843 142.869 204.976 142.821C205.08 142.783 205.186 142.749 205.292 142.716C205.362 142.694 205.432 142.67 205.503 142.65C205.627 142.615 205.753 142.586 205.88 142.557C205.94 142.544 206 142.527 206.061 142.515C206.234 142.48 206.41 142.451 206.587 142.428C206.632 142.422 206.678 142.417 206.723 142.412C206.883 142.393 207.045 142.378 207.208 142.369C207.23 142.367 207.252 142.365 207.274 142.364C207.442 142.356 207.613 142.354 207.785 142.356C207.915 142.356 208.047 142.362 208.179 142.369C208.275 142.373 208.37 142.376 208.466 142.384C208.575 142.392 208.686 142.406 208.797 142.418C208.909 142.43 209.02 142.441 209.133 142.458C209.224 142.471 209.316 142.487 209.408 142.503C209.535 142.525 209.662 142.546 209.789 142.573C209.876 142.59 209.964 142.611 210.051 142.631C210.183 142.661 210.315 142.693 210.449 142.728C210.533 142.751 210.617 142.774 210.702 142.798C210.842 142.839 210.983 142.882 211.124 142.928C211.2 142.953 211.276 142.976 211.351 143.002C211.527 143.063 211.704 143.128 211.882 143.197C211.921 143.213 211.961 143.226 212 143.242C212.217 143.328 212.434 143.422 212.652 143.521C212.711 143.548 212.77 143.577 212.829 143.604C212.991 143.68 213.153 143.759 213.316 143.842C213.388 143.879 213.462 143.917 213.535 143.956C213.74 144.064 213.945 144.174 214.151 144.294C214.416 144.447 214.68 144.61 214.943 144.779C214.999 144.815 215.054 144.853 215.109 144.889C215.305 145.018 215.501 145.151 215.695 145.288C215.772 145.343 215.849 145.397 215.926 145.453C216.121 145.594 216.315 145.739 216.508 145.888C216.566 145.933 216.624 145.976 216.681 146.021C216.93 146.216 217.177 146.419 217.423 146.627C217.482 146.677 217.54 146.73 217.599 146.781C217.787 146.944 217.975 147.11 218.161 147.28C218.246 147.358 218.331 147.437 218.415 147.516C218.578 147.669 218.74 147.824 218.901 147.983C218.984 148.064 219.067 148.146 219.15 148.229C219.326 148.406 219.5 148.586 219.673 148.769C219.732 148.832 219.792 148.893 219.851 148.957C220.079 149.201 220.303 149.451 220.526 149.705C220.575 149.762 220.623 149.82 220.672 149.877C220.845 150.079 221.017 150.283 221.187 150.49C221.261 150.581 221.335 150.673 221.409 150.765C221.551 150.944 221.692 151.124 221.832 151.306C221.918 151.419 222.005 151.531 222.091 151.646C222.184 151.771 222.276 151.899 222.368 152.027C222.557 152.286 222.743 152.549 222.925 152.815C223.017 152.949 223.109 153.084 223.2 153.22C223.306 153.38 223.411 153.541 223.515 153.703C223.621 153.869 223.726 154.035 223.83 154.203C223.931 154.366 224.03 154.532 224.129 154.697C224.225 154.86 224.322 155.024 224.416 155.188C224.541 155.407 224.663 155.628 224.784 155.85C224.87 156.009 224.959 156.168 225.043 156.329C225.098 156.434 225.152 156.541 225.206 156.647C225.352 156.932 225.496 157.218 225.634 157.508C225.753 157.757 225.866 158.006 225.977 158.254C225.992 158.29 226.01 158.326 226.026 158.362C226.137 158.614 226.243 158.864 226.345 159.113C226.374 159.184 226.402 159.254 226.43 159.325C226.503 159.506 226.574 159.687 226.642 159.867C226.674 159.951 226.705 160.034 226.736 160.117C226.802 160.294 226.864 160.471 226.925 160.647C226.951 160.721 226.978 160.795 227.003 160.869C227.086 161.117 227.166 161.363 227.241 161.608C227.244 161.616 227.246 161.624 227.248 161.632C227.321 161.87 227.389 162.107 227.453 162.343C227.475 162.423 227.495 162.502 227.516 162.582C227.559 162.746 227.601 162.91 227.64 163.073C227.662 163.165 227.683 163.255 227.704 163.346C227.739 163.499 227.772 163.651 227.804 163.803C227.822 163.893 227.841 163.984 227.858 164.074C227.889 164.23 227.917 164.386 227.944 164.541C227.958 164.622 227.972 164.703 227.985 164.782C228.016 164.974 228.044 165.163 228.069 165.352C228.074 165.394 228.081 165.437 228.086 165.479C228.116 165.709 228.141 165.938 228.162 166.165C228.168 166.231 228.172 166.297 228.178 166.363C228.191 166.524 228.204 166.685 228.213 166.844C228.218 166.931 228.221 167.018 228.225 167.105C228.231 167.243 228.236 167.381 228.239 167.518C228.241 167.613 228.242 167.708 228.243 167.802C228.244 167.931 228.243 168.058 228.241 168.185C228.24 168.287 228.238 168.388 228.234 168.489C228.231 168.61 228.225 168.729 228.219 168.849C228.213 168.957 228.207 169.065 228.199 169.172C228.186 169.35 228.173 169.527 228.154 169.702C228.124 169.995 228.082 170.282 228.036 170.566C228.029 170.616 228.023 170.667 228.014 170.717C227.963 171.014 227.904 171.307 227.837 171.596C227.812 171.705 227.782 171.81 227.754 171.917C227.703 172.118 227.652 172.32 227.593 172.517C227.581 172.556 227.569 172.596 227.556 172.635C227.47 172.914 227.377 173.189 227.275 173.458C227.152 173.785 227.018 174.104 226.881 174.418C226.839 174.514 226.796 174.607 226.754 174.701C226.654 174.922 226.551 175.139 226.445 175.355C226.392 175.462 226.34 175.57 226.285 175.677C226.173 175.898 226.057 176.118 225.939 176.335C225.896 176.415 225.853 176.498 225.809 176.578C225.646 176.872 225.48 177.163 225.311 177.45C225.279 177.505 225.246 177.558 225.214 177.612C225.072 177.851 224.929 178.088 224.784 178.324C224.72 178.428 224.656 178.531 224.591 178.635C224.47 178.831 224.349 179.026 224.227 179.219C224.128 179.377 224.029 179.534 223.93 179.691C223.808 179.885 223.685 180.079 223.563 180.273C223.381 180.562 223.201 180.851 223.023 181.141C222.622 181.795 222.217 182.445 221.809 183.09C221.794 183.115 221.778 183.139 221.762 183.163C221.231 184.003 220.692 184.836 220.151 185.666C220.011 185.88 219.871 186.094 219.731 186.308C219.194 187.127 218.654 187.942 218.112 188.754C217.252 190.041 216.387 191.322 215.511 192.592C215.415 192.731 215.312 192.842 215.203 192.926C215.167 192.953 215.13 192.978 215.092 193L220.847 189.648C220.997 189.56 221.138 189.425 221.266 189.239C222.141 187.97 223.007 186.688 223.866 185.402C224.408 184.591 224.947 183.775 225.484 182.958C225.625 182.743 225.766 182.527 225.907 182.312C226.446 181.484 226.984 180.654 227.514 179.815C227.528 179.794 227.541 179.773 227.555 179.751C227.558 179.746 227.561 179.742 227.564 179.737C227.972 179.092 228.377 178.443 228.777 177.788C228.955 177.499 229.136 177.21 229.318 176.92C229.44 176.727 229.562 176.533 229.685 176.339C229.784 176.182 229.882 176.024 229.981 175.867C230.103 175.673 230.224 175.478 230.346 175.283C230.41 175.179 230.475 175.076 230.539 174.971C230.683 174.736 230.826 174.499 230.968 174.26C231 174.206 231.033 174.152 231.065 174.098C231.234 173.811 231.4 173.52 231.563 173.226C231.607 173.146 231.65 173.063 231.694 172.982C231.812 172.765 231.927 172.546 232.04 172.324C232.094 172.218 232.147 172.11 232.2 172.002C232.25 171.899 232.303 171.799 232.352 171.694C232.406 171.581 232.456 171.464 232.508 171.349C232.551 171.255 232.594 171.161 232.636 171.066C232.773 170.751 232.906 170.433 233.03 170.106C233.044 170.068 233.059 170.03 233.073 169.992C233.159 169.76 233.237 169.522 233.311 169.283C233.323 169.243 233.336 169.204 233.347 169.165C233.36 169.125 233.373 169.085 233.385 169.045C233.43 168.887 233.468 168.725 233.509 168.564C233.536 168.457 233.567 168.352 233.592 168.244C233.596 168.226 233.601 168.209 233.605 168.192C233.664 167.932 233.717 167.669 233.763 167.402C233.765 167.389 233.767 167.377 233.769 167.364C233.777 167.315 233.783 167.264 233.791 167.214C233.821 167.03 233.85 166.845 233.874 166.657C233.887 166.555 233.898 166.453 233.909 166.35C233.922 166.225 233.934 166.099 233.944 165.973C233.948 165.922 233.95 165.871 233.953 165.82C233.961 165.713 233.968 165.605 233.973 165.496C233.977 165.433 233.982 165.371 233.985 165.308Z" fill="#3E394F"/>
<path d="M214.283 151.107C210.044 148.58 206.594 150.61 206.581 155.639C206.567 160.67 209.993 166.794 214.233 169.321C218.472 171.848 221.922 169.821 221.936 164.79C221.949 159.761 218.523 153.634 214.283 151.107Z" fill="white"/>
<defs>
<linearGradient id="paint0_linear_115_4118" x1="378.425" y1="85.1204" x2="305.988" y2="338.597" gradientUnits="userSpaceOnUse">
<stop stop-color="#CF892D"/>
<stop offset="0.5" stop-color="#7E5645"/>
<stop offset="1" stop-color="#2D245C"/>
</linearGradient>
<linearGradient id="paint1_linear_115_4118" x1="154.794" y1="99.3418" x2="208.307" y2="323.98" gradientUnits="userSpaceOnUse">
<stop stop-color="#4FAFDD"/>
<stop offset="0.5" stop-color="#9691D1"/>
<stop offset="1" stop-color="#DD72C5"/>
</linearGradient>
</defs>
</svg>
