<svg width="374" height="293" viewBox="0 0 374 293" fill="none" xmlns="http://www.w3.org/2000/svg">
<path d="M186.893 24.9448C260.746 24.9448 320.708 84.9074 320.708 158.76C320.708 232.613 260.746 292.575 186.893 292.575C113.041 292.575 53.0781 232.613 53.0781 158.76C53.0781 84.9074 113.041 24.9448 186.893 24.9448Z" fill="#3497A2"/>
<path d="M341.145 270.012H46.6582V269.815H341.145V270.012Z" stroke="#0C2B34" stroke-width="3" stroke-miterlimit="10"/>
<g opacity="0.151825">
<path opacity="0.151825" d="M123.377 53.3122C123.732 50.7377 120.098 48.6201 117.368 48.4004C116.067 48.295 114.715 48.4944 113.481 48.0646C110.809 47.1335 109.742 43.681 107.134 42.5815C105.185 41.7589 102.941 42.4912 101.052 43.4421C99.1614 44.3929 97.2943 45.59 95.1827 45.7254C93.346 45.8428 91.3524 45.1621 89.7455 46.0587C88.5485 46.7274 87.9214 48.1066 86.8177 48.9209C85.738 49.717 84.3299 49.8856 82.9896 49.9583C81.6506 50.0317 80.2641 50.0452 79.0441 50.6036C77.8242 51.162 76.8156 52.4517 77.0684 53.7691L123.377 53.3122Z" fill="#D7D9D9"/>
</g>
<g opacity="0.140205">
<path opacity="0.140205" d="M181.337 79.4355C181.856 75.6713 176.543 72.5743 172.55 72.2524C170.647 72.0989 168.669 72.3902 166.866 71.7613C162.958 70.3994 161.397 65.3516 157.584 63.7429C154.733 62.5404 151.451 63.611 148.688 65.0018C145.925 66.3926 143.194 68.1428 140.106 68.3407C137.421 68.5128 134.504 67.5169 132.155 68.8282C130.404 69.8061 129.487 71.8232 127.873 73.0136C126.294 74.1781 124.234 74.425 122.275 74.5314C120.317 74.6379 118.288 74.6578 116.505 75.4745C114.721 76.2912 113.246 78.1772 113.616 80.1036L181.337 79.4355Z" fill="#D7D9D9"/>
</g>
<circle cx="124.646" cy="19.3025" r="11.5816" fill="white"/>
<circle cx="31.9937" cy="122.646" r="11.5816" fill="white"/>
<circle cx="340.835" cy="106.016" r="11.5816" fill="white"/>
<circle cx="241.056" cy="44.2475" r="9.79979" fill="white"/>
<path d="M12.5977 156.628C12.5963 156.533 14.3667 156.432 16.5509 156.401C18.7358 156.37 20.5081 156.422 20.5094 156.517C20.5107 156.612 18.741 156.714 16.5555 156.745C14.3713 156.775 12.599 156.723 12.5977 156.628Z" stroke="#FC6011" stroke-width="3.23777"/>
<path d="M2 156.795C1.99868 156.7 2.88319 156.611 3.97695 156.596C5.07071 156.58 5.95918 156.645 5.9605 156.74C5.96116 156.835 5.07599 156.924 3.98223 156.94C2.88913 156.955 2.00132 156.89 2 156.795Z" stroke="#FC6011" stroke-width="3.23777"/>
<path d="M368.041 136.137C368.041 136.042 368.928 135.966 370.021 135.966C371.115 135.966 372.002 136.042 372.002 136.137C372.002 136.232 371.115 136.309 370.021 136.309C368.928 136.309 368.041 136.232 368.041 136.137Z" stroke="#FC6011" stroke-width="3.23777"/>
<path d="M352.213 136.137C352.213 136.042 353.985 135.966 356.169 135.966C358.355 135.966 360.125 136.042 360.125 136.137C360.125 136.232 358.355 136.309 356.169 136.309C353.985 136.309 352.213 136.232 352.213 136.137Z" stroke="#FC6011" stroke-width="3.23777"/>
<path d="M355.981 105.074C355.981 95.9635 347.721 88.7767 338.257 90.5461C332.304 91.6592 327.558 96.5041 326.516 102.45C325.864 106.165 326.634 109.664 328.335 112.55H328.327L328.37 112.604C328.94 113.56 329.654 114.245 330.375 115.251L338.993 126.631C340.068 128.048 342.202 128.048 343.275 126.631L351.752 115.437C351.752 115.437 353.335 113.557 353.908 112.592L353.94 112.55H353.933C355.227 110.354 355.981 107.806 355.981 105.074ZM341.136 111.516C337.527 111.516 334.6 108.6 334.6 105.004C334.6 101.408 337.527 98.4918 341.136 98.4918C344.746 98.4918 347.67 101.408 347.67 105.004C347.67 108.6 344.746 111.516 341.136 111.516Z" fill="#EE9E97"/>
<path d="M336.387 136.137C336.387 136.042 338.159 135.966 340.343 135.966C342.529 135.966 344.299 136.042 344.299 136.137C344.299 136.232 342.529 136.309 340.343 136.309C338.159 136.309 336.387 136.232 336.387 136.137Z" stroke="#FC6011" stroke-width="3.23777"/>
<path d="M320.562 136.137C320.562 136.042 322.334 135.966 324.518 135.966C326.704 135.966 328.475 136.042 328.475 136.137C328.475 136.232 326.704 136.309 324.518 136.309C322.334 136.309 320.562 136.232 320.562 136.137Z" stroke="#FC6011" stroke-width="3.23777"/>
<path d="M304.734 136.137C304.734 136.042 306.506 135.966 308.69 135.966C310.876 135.966 312.647 136.042 312.647 136.137C312.647 136.232 310.876 136.309 308.69 136.309C306.506 136.309 304.734 136.232 304.734 136.137Z" stroke="#FC6011" stroke-width="3.23777"/>
<path d="M288.922 135.787C288.934 135.692 290.697 135.814 292.876 135.893C295.055 135.978 296.826 136.039 296.826 136.137C296.827 136.228 295.053 136.322 292.863 136.237C290.671 136.157 288.909 135.881 288.922 135.787Z" stroke="#FC6011" stroke-width="3.23777"/>
<path d="M274.929 129.383C275.013 129.313 276.114 130.714 277.874 131.978C279.626 133.249 281.279 133.914 281.234 134.017C281.218 134.057 280.787 133.938 280.123 133.654C279.46 133.37 278.569 132.905 277.671 132.257C275.863 130.955 274.858 129.423 274.929 129.383Z" stroke="#FC6011" stroke-width="3.24101"/>
<path d="M270.61 114.427C270.694 114.429 270.809 116.189 271.073 118.351C271.333 120.512 271.71 122.237 271.617 122.262C271.527 122.288 270.994 120.577 270.733 118.392C270.465 116.215 270.504 114.423 270.61 114.427Z" stroke="#FC6011" stroke-width="3.23777"/>
<path d="M264.846 100.018C264.908 99.9583 266.163 101.243 267.322 103.121C268.49 104.994 269.062 106.701 268.979 106.729C268.884 106.768 268.18 105.145 267.031 103.302C265.89 101.453 264.767 100.085 264.846 100.018Z" stroke="#FC6011" stroke-width="3.24101"/>
<path d="M251.852 91.3226C251.874 91.2374 253.614 91.6797 255.592 92.6513C257.574 93.6157 258.996 94.7088 258.944 94.7794C258.886 94.8639 257.396 93.9114 255.441 92.9609C253.492 92.0018 251.821 91.4189 251.852 91.3226Z" stroke="#FC6011" stroke-width="3.23777"/>
<path d="M236.197 90.7185C236.174 90.6314 237.901 90.1449 240.099 89.9852C241.194 89.8994 242.196 89.9159 242.908 89.9502C243.623 89.9839 244.068 90.0188 244.068 90.0664C244.068 90.1139 243.626 90.1647 242.909 90.1938C242.189 90.2215 241.21 90.2433 240.124 90.3278C237.957 90.4855 236.219 90.8156 236.197 90.7185Z" stroke="#FC6011" stroke-width="3.24101"/>
<path d="M222.452 98.1166C222.386 98.0586 223.567 96.7041 225.346 95.3984C227.117 94.0842 228.754 93.3449 228.791 93.4241C228.839 93.5145 227.295 94.3793 225.55 95.6743C223.798 96.9608 222.524 98.1886 222.452 98.1166Z" stroke="#FC6011" stroke-width="3.23777"/>
<path d="M215.537 112.037C215.45 112.033 215.545 110.232 216.193 108.12C216.832 106.003 217.752 104.455 217.827 104.498C217.919 104.545 217.149 106.141 216.522 108.221C215.884 110.296 215.639 112.05 215.537 112.037Z" stroke="#916C78" stroke-width="11.4048"/>
<path d="M215.177 127.854C215.081 127.853 215.03 126.08 215.062 123.895C215.094 121.711 215.195 119.941 215.291 119.942C215.385 119.944 215.437 121.716 215.405 123.901C215.374 126.085 215.272 127.855 215.177 127.854Z" stroke="#FC6011" stroke-width="3.24101"/>
<path d="M214.948 143.678C214.853 143.677 214.802 141.904 214.834 139.72C214.865 137.535 214.967 135.765 215.063 135.766C215.157 135.768 215.209 137.54 215.178 139.725C215.146 141.909 215.044 143.679 214.948 143.678Z" stroke="#FC6011" stroke-width="3.23777"/>
<path d="M214.722 159.501C214.627 159.5 214.575 157.727 214.607 155.543C214.639 153.358 214.74 151.588 214.835 151.589C214.93 151.591 214.982 153.363 214.95 155.548C214.919 157.732 214.817 159.502 214.722 159.501Z" stroke="#FC6011" stroke-width="3.24101"/>
<path d="M210.353 174.415C210.268 174.355 211.268 172.894 212.212 170.94C213.167 168.99 213.69 167.297 213.788 167.326C213.874 167.345 213.493 169.105 212.522 171.09C211.56 173.077 210.42 174.469 210.353 174.415Z" stroke="#FC6011" stroke-width="3.23777"/>
<path d="M197.948 183.864C197.912 183.768 199.554 183.111 201.456 182.063C203.364 181.022 204.796 179.984 204.858 180.065C204.915 180.132 203.558 181.308 201.622 182.364C199.692 183.428 197.974 183.948 197.948 183.864Z" stroke="#FC6011" stroke-width="3.24101"/>
<path d="M182.336 185.7C182.338 185.611 184.107 185.537 186.292 185.535C186.828 185.538 187.337 185.541 187.832 185.544C188.263 185.538 188.678 185.532 189.083 185.527C189.798 185.528 190.243 185.552 190.246 185.599C190.25 185.646 189.811 185.708 189.095 185.77C188.686 185.799 188.267 185.829 187.833 185.86C187.359 185.879 186.839 185.877 186.292 185.879C184.109 185.881 182.335 185.8 182.336 185.7Z" stroke="#FC6011" stroke-width="3.24101"/>
<path d="M167.392 181.139C167.448 181.053 168.949 181.991 170.923 182.9C172.892 183.819 174.574 184.366 174.545 184.464C174.524 184.549 172.776 184.143 170.778 183.211C168.776 182.288 167.34 181.209 167.392 181.139Z" stroke="#FC6011" stroke-width="3.23777"/>
<path d="M157.526 169.097C157.623 169.061 158.281 170.704 159.384 172.573C160.479 174.449 161.584 175.831 161.504 175.897C161.442 175.956 160.201 174.654 159.088 172.747C157.966 170.846 157.443 169.123 157.526 169.097Z" stroke="#FC6011" stroke-width="3.23777"/>
<path d="M156.019 153.453C156.114 153.453 156.191 155.224 156.191 157.409C156.191 159.595 156.113 161.364 156.024 161.365C155.923 161.366 155.848 159.593 155.848 157.409C155.848 155.224 155.924 153.453 156.019 153.453Z" stroke="#FC6011" stroke-width="3.23777"/>
<path d="M156.019 137.627C156.114 137.627 156.191 139.399 156.191 141.583C156.191 143.769 156.114 145.54 156.019 145.54C155.924 145.54 155.848 143.769 155.848 141.583C155.848 139.399 155.924 137.627 156.019 137.627Z" stroke="#FC6011" stroke-width="3.23777"/>
<path d="M156.019 121.802C156.114 121.802 156.191 123.574 156.191 125.758C156.191 127.944 156.114 129.716 156.019 129.716C155.924 129.716 155.848 127.944 155.848 125.758C155.848 123.574 155.924 121.802 156.019 121.802Z" stroke="#FC6011" stroke-width="3.23777"/>
<path d="M156.019 105.977C156.114 105.977 156.191 107.749 156.191 109.933C156.191 112.118 156.114 113.89 156.019 113.89C155.924 113.89 155.848 112.118 155.848 109.933C155.848 107.749 155.924 105.977 156.019 105.977Z" stroke="#FC6011" stroke-width="3.23777"/>
<path d="M155.986 90.1527C156.033 90.1501 156.088 90.591 156.138 91.3105C156.174 92.0274 156.19 93.0155 156.192 94.1086C156.192 96.2935 156.114 98.0645 156.019 98.0645C155.924 98.0645 155.848 96.2935 155.848 94.1086C155.846 93.0162 155.868 92.0267 155.895 91.3112C155.906 90.5996 155.938 90.1554 155.986 90.1527Z" stroke="#FC6011" stroke-width="3.23777"/>
<path d="M150.015 75.8138C150.077 75.7524 151.357 77.0158 152.533 78.8832C153.718 80.7466 154.3 82.4503 154.218 82.4786C154.123 82.5183 153.409 80.8991 152.243 79.0667C151.086 77.2297 149.938 75.8824 150.015 75.8138Z" stroke="#FC6011" stroke-width="3.23777"/>
<path d="M136.727 67.6367C136.745 67.5509 138.504 67.908 140.528 68.7813C142.556 69.646 144.022 70.683 143.973 70.7549C143.919 70.842 142.391 69.9489 140.392 69.0968C138.398 68.2354 136.7 67.735 136.727 67.6367Z" stroke="#FC6011" stroke-width="3.24101"/>
<path d="M145.137 19.969C145.137 7.67423 134.027 -2.02428 121.3 0.363533C113.293 1.86554 106.912 8.40371 105.509 16.428C104.632 21.4415 105.668 26.1628 107.956 30.0571H107.945L108.003 30.1296C108.769 31.421 109.73 32.3453 110.699 33.7023L122.29 49.06C123.735 50.972 126.605 50.972 128.048 49.06L139.448 33.9538C139.448 33.9538 141.578 31.4164 142.348 30.1138L142.391 30.0571H142.382C144.122 27.0939 145.137 23.6549 145.137 19.969ZM125.171 28.6616C120.319 28.6616 116.381 24.7265 116.381 19.8738C116.381 15.0212 120.319 11.086 125.171 11.086C130.026 11.086 133.959 15.0212 133.959 19.8738C133.959 24.7265 130.026 28.6616 125.171 28.6616Z" fill="#FC6011"/>
<path d="M121.016 67.1232C120.995 67.0354 122.733 66.5925 124.933 66.4856C126.034 66.4262 127.026 66.4697 127.74 66.4955C128.456 66.5265 128.899 66.5694 128.899 66.6169C128.899 66.6645 128.456 66.708 127.74 66.7391C127.023 66.776 126.034 66.7694 124.951 66.8282C122.781 66.9338 121.035 67.2209 121.016 67.1232Z" stroke="#FC6011" stroke-width="3.23777"/>
<path d="M107.082 74.1647C107.018 74.1047 108.238 72.7839 110.048 71.5251C111.854 70.2584 113.509 69.5613 113.544 69.6412C113.59 69.7329 112.024 70.5587 110.246 71.8069C108.461 73.0459 107.153 74.2387 107.082 74.1647Z" fill="#FF7A65"/>
<path d="M107.082 74.1647C107.018 74.1047 108.238 72.7839 110.048 71.5251C111.854 70.2584 113.509 69.5613 113.544 69.6412C113.59 69.7329 112.024 70.5587 110.246 71.8069C108.461 73.0459 107.153 74.2387 107.082 74.1647Z" stroke="#FC6011" stroke-width="3.24101"/>
<path d="M99.758 87.8729C99.6722 87.8656 99.8227 86.0702 100.536 83.9804C101.239 81.886 102.205 80.3664 102.278 80.4126C102.369 80.4615 101.552 82.0325 100.862 84.0906C100.16 86.1441 99.8604 87.8887 99.758 87.8729Z" fill="#FF7A65"/>
<path d="M99.758 87.8729C99.6722 87.8656 99.8227 86.0702 100.536 83.9804C101.239 81.886 102.205 80.3664 102.278 80.4126C102.369 80.4615 101.552 82.0325 100.862 84.0906C100.16 86.1441 99.8604 87.8887 99.758 87.8729Z" stroke="#FC6011" stroke-width="3.23777"/>
<path d="M99.49 103.684C99.3949 103.684 99.3184 101.913 99.3184 99.7292C99.3184 97.5437 99.3949 95.7727 99.49 95.7727C99.585 95.7727 99.6616 97.5437 99.6616 99.7292C99.6616 101.913 99.585 103.684 99.49 103.684Z" fill="#FF7A65"/>
<path d="M99.49 103.684C99.3949 103.684 99.3184 101.913 99.3184 99.7292C99.3184 97.5437 99.3949 95.7727 99.49 95.7727C99.585 95.7727 99.6616 97.5437 99.6616 99.7292C99.6616 101.913 99.585 103.684 99.49 103.684Z" stroke="#FC6011" stroke-width="3.24101"/>
<path d="M99.49 119.51C99.3949 119.51 99.3184 117.739 99.3184 115.554C99.3184 113.369 99.3949 111.598 99.49 111.598C99.585 111.598 99.6616 113.369 99.6616 115.554C99.6616 117.739 99.585 119.51 99.49 119.51Z" fill="#FF7A65"/>
<path d="M99.49 119.51C99.3949 119.51 99.3184 117.739 99.3184 115.554C99.3184 113.369 99.3949 111.598 99.49 111.598C99.585 111.598 99.6616 113.369 99.6616 115.554C99.6616 117.739 99.585 119.51 99.49 119.51Z" stroke="#FC6011" stroke-width="3.23777"/>
<path d="M99.0846 135.311C98.9849 135.292 99.2859 133.547 99.3117 131.377C99.3183 129.197 99.3902 127.422 99.4866 127.422C99.5803 127.424 99.6622 129.191 99.6556 131.382C99.6285 133.591 99.1698 135.333 99.0846 135.311Z" fill="#FF7A65"/>
<path d="M99.0846 135.311C98.9849 135.292 99.2859 133.547 99.3117 131.377C99.3183 129.197 99.3902 127.422 99.4866 127.422C99.5803 127.424 99.6622 129.191 99.6556 131.382C99.6285 133.591 99.1698 135.333 99.0846 135.311Z" stroke="#FC6011" stroke-width="3.23777"/>
<path d="M91.3249 148.783C91.2562 148.706 92.5546 147.503 93.9289 145.822C95.3124 144.148 96.2299 142.635 96.3184 142.686C96.397 142.725 95.6002 144.338 94.1943 146.04C92.7975 147.748 91.379 148.851 91.3249 148.783Z" fill="#FF7A65"/>
<path d="M91.3249 148.783C91.2562 148.706 92.5546 147.503 93.9289 145.822C95.3124 144.148 96.2299 142.635 96.3184 142.686C96.397 142.725 95.6002 144.338 94.1943 146.04C92.7975 147.748 91.379 148.851 91.3249 148.783Z" stroke="#FC6011" stroke-width="3.23777"/>
<path d="M77.1954 155.434C77.1796 155.333 78.9196 155.016 80.9962 154.375C83.0761 153.744 84.6933 153.027 84.7375 153.119C84.7785 153.197 83.2061 154.063 81.0965 154.703C78.9908 155.353 77.2047 155.521 77.1954 155.434Z" fill="#FF7A65"/>
<path d="M77.1954 155.434C77.1796 155.333 78.9196 155.016 80.9962 154.375C83.0761 153.744 84.6933 153.027 84.7375 153.119C84.7785 153.197 83.2061 154.063 81.0965 154.703C78.9908 155.353 77.2047 155.521 77.1954 155.434Z" stroke="#FC6011" stroke-width="3.23777"/>
<path d="M61.3887 155.963C61.3874 155.868 63.1577 155.766 65.3419 155.736C67.5274 155.705 69.2991 155.757 69.3004 155.852C69.3017 155.947 67.5321 156.049 65.3472 156.08C63.1623 156.11 61.39 156.058 61.3887 155.963Z" fill="#FF7A65"/>
<path d="M61.3887 155.963C61.3874 155.868 63.1577 155.766 65.3419 155.736C67.5274 155.705 69.2991 155.757 69.3004 155.852C69.3017 155.947 67.5321 156.049 65.3472 156.08C63.1623 156.11 61.39 156.058 61.3887 155.963Z" stroke="#FC6011" stroke-width="3.23777"/>
<path d="M45.5684 156.185C45.567 156.09 47.3374 155.988 49.5216 155.958C51.7071 155.927 53.4788 155.979 53.4801 156.074C53.4814 156.169 51.7118 156.271 49.5269 156.301C47.342 156.332 45.5697 156.28 45.5684 156.185Z" stroke="#FC6011" stroke-width="3.23777"/>
<path d="M29.7402 156.407C29.7389 156.312 31.5093 156.21 33.6935 156.179C35.879 156.149 37.6507 156.201 37.652 156.296C37.6533 156.391 35.8836 156.492 33.6988 156.523C31.5139 156.554 29.7416 156.502 29.7402 156.407Z" fill="#FF7965"/>
<path d="M29.7402 156.407C29.7389 156.312 31.5093 156.21 33.6935 156.179C35.879 156.149 37.6507 156.201 37.652 156.296C37.6533 156.391 35.8836 156.492 33.6988 156.523C31.5139 156.554 29.7416 156.502 29.7402 156.407Z" stroke="#FC6011" stroke-width="3.23777"/>
<path d="M49.8646 124.399C49.8646 114.36 40.7951 106.441 30.4015 108.392C23.8658 109.62 18.6565 114.955 17.5108 121.507C16.795 125.602 17.6411 129.453 19.5072 132.634H19.5003L19.546 132.694C20.1726 133.748 20.9547 134.5 21.7459 135.607L31.211 148.148C32.3888 149.707 34.7327 149.707 35.9104 148.148L45.22 135.815C45.22 135.815 46.9557 133.746 47.5869 132.68L47.6212 132.634H47.6143C49.0367 130.212 49.8646 127.407 49.8646 124.399ZM33.5642 131.495C29.6011 131.495 26.3882 128.285 26.3882 124.322C26.3882 120.359 29.6011 117.146 33.5642 117.146C37.5272 117.146 40.7356 120.359 40.7356 124.322C40.7356 128.285 37.5272 131.495 33.5642 131.495Z" fill="#EDAC4A"/>
<path d="M261.727 44.8347C261.727 32.2224 250.333 22.2734 237.275 24.7241C229.067 26.2668 222.52 32.9694 221.08 41.2004C220.184 46.343 221.244 51.1839 223.591 55.1801H223.583L223.634 55.2548C224.421 56.5792 225.407 57.5244 226.401 58.9149L238.295 74.6702C239.774 76.6295 242.719 76.6295 244.199 74.6702L255.895 59.1764C255.895 59.1764 258.072 56.5764 258.865 55.2376L258.908 55.1801H258.903C260.689 52.1377 261.727 48.6126 261.727 44.8347ZM241.245 53.7494C236.269 53.7494 232.233 49.7158 232.233 44.737C232.233 39.7582 236.269 35.7217 241.245 35.7217C246.224 35.7217 250.258 39.7582 250.258 44.737C250.258 49.7158 246.224 53.7494 241.245 53.7494Z" fill="#3C6091"/>
<path d="M199.705 120.737C200.642 119.859 202.09 119.6 202.791 118.514C203.566 117.314 203.087 115.63 203.709 114.34C204.218 113.285 205.348 112.718 206.091 111.821C207.157 110.535 207.325 108.721 207.398 107.033C207.577 102.874 207.483 98.6562 208.467 94.6183C209.451 90.5805 211.72 86.6336 215.371 84.8387L228.951 84.6018C230.949 86.1549 232.046 88.6747 232.52 91.2037C232.995 93.7327 232.927 96.3306 233.049 98.9031C233.172 101.476 233.508 104.11 234.704 106.372C235.55 107.972 236.791 109.318 237.673 110.897C238.532 112.437 239.037 114.227 238.856 115.993C238.675 117.759 237.746 119.481 236.251 120.37C234.663 121.315 232.674 121.227 230.903 120.737C230.145 120.527 229.059 120.642 227.947 120.757C226.314 120.925 224.625 121.093 223.83 120.237C223.065 119.412 221.582 118.055 220.46 116.673L208.957 141.77C207.863 143.928 204.655 144.11 202.789 142.612C200.924 141.115 200.189 138.557 199.981 136.133C199.773 133.708 199.98 131.24 199.509 128.856C199.232 127.457 198.724 126.107 198.569 124.689C198.413 123.271 198.679 121.697 199.705 120.737Z" fill="#3B2C23"/>
<path d="M215.264 113.861C215.264 113.861 221.574 127.179 223.928 128.866C226.282 130.555 226.463 131.617 227.187 130.434C227.911 129.251 229.45 117.32 229.45 117.32L229.649 109.704L233.591 110.177C233.591 110.177 240.733 132.324 240.795 135.676C240.858 139.028 242.399 154.579 242.399 154.579C242.399 154.579 238.348 155.789 235.529 155.51C232.71 155.231 220.094 153.853 220.094 153.853L216.503 152.316L213.33 114.796L215.264 113.861Z" fill="#D7D9D9"/>
<path d="M216.277 148.945C216.275 148.955 216.362 148.984 216.53 149.031C216.728 149.082 216.971 149.146 217.266 149.224C217.587 149.31 217.981 149.401 218.442 149.49C218.902 149.583 219.426 149.694 220.011 149.782C221.176 149.987 222.575 150.153 224.129 150.305C225.685 150.442 227.399 150.549 229.198 150.62C232.799 150.751 236.057 150.786 238.412 150.87C239.591 150.91 240.544 150.945 241.202 150.98C241.506 150.991 241.757 151 241.961 151.008C242.135 151.011 242.226 151.008 242.227 150.999C242.228 150.989 242.138 150.974 241.965 150.952C241.762 150.931 241.512 150.905 241.209 150.872C240.552 150.806 239.599 150.74 238.421 150.675C236.063 150.542 232.803 150.476 229.209 150.345C227.412 150.273 225.702 150.175 224.15 150.052C222.599 149.915 221.204 149.77 220.039 149.589C219.455 149.514 218.931 149.417 218.47 149.338C218.007 149.265 217.611 149.189 217.288 149.12C216.989 149.062 216.742 149.015 216.542 148.977C216.37 148.946 216.279 148.935 216.277 148.945Z" fill="#EE9992"/>
<path d="M216.383 144.433C216.383 144.442 216.47 144.455 216.636 144.469C216.834 144.483 217.074 144.499 217.364 144.52C218.038 144.553 218.944 144.598 220.044 144.653C222.307 144.755 225.433 144.875 228.887 144.991C232.342 145.108 235.47 145.197 237.734 145.248C238.835 145.267 239.742 145.283 240.416 145.295C240.707 145.294 240.948 145.293 241.145 145.293C241.312 145.29 241.4 145.283 241.401 145.274C241.401 145.265 241.314 145.252 241.147 145.238C240.95 145.224 240.71 145.208 240.42 145.188C239.745 145.154 238.84 145.109 237.74 145.054C235.477 144.953 232.351 144.832 228.896 144.716C225.442 144.6 222.315 144.51 220.05 144.459C218.949 144.44 218.043 144.424 217.368 144.413C217.077 144.413 216.836 144.414 216.638 144.414C216.471 144.418 216.383 144.423 216.383 144.433Z" fill="#EE9992"/>
<path d="M215.561 137.97C215.558 137.979 215.641 138.015 215.802 138.074C215.993 138.14 216.227 138.22 216.511 138.318C217.126 138.533 218.033 138.793 219.162 139.073C220.292 139.355 221.652 139.623 223.174 139.85C224.696 140.065 226.379 140.235 228.151 140.323C231.696 140.486 234.907 140.331 237.222 140.168C238.38 140.085 239.314 140.002 239.96 139.933C240.257 139.898 240.503 139.87 240.703 139.847C240.872 139.825 240.961 139.809 240.96 139.799C240.96 139.79 240.869 139.788 240.699 139.792C240.497 139.801 240.251 139.812 239.952 139.825C239.264 139.863 238.338 139.913 237.211 139.973C234.896 140.088 231.694 140.21 228.163 140.048C226.4 139.96 224.724 139.799 223.207 139.599C221.692 139.387 220.334 139.14 219.204 138.883C218.074 138.629 217.163 138.398 216.54 138.216C216.251 138.138 216.013 138.074 215.818 138.021C215.652 137.979 215.563 137.961 215.561 137.97Z" fill="#EE9992"/>
<path d="M215.357 132.194C215.355 132.215 215.708 132.275 216.343 132.392C216.978 132.511 217.893 132.707 219.013 132.993C220.134 133.275 221.459 133.656 222.942 134.047C224.424 134.433 226.071 134.832 227.839 135.018C231.388 135.414 234.615 134.691 236.778 133.857C237.866 133.437 238.713 133.012 239.276 132.682C239.564 132.528 239.773 132.382 239.919 132.292C240.063 132.198 240.137 132.145 240.132 132.137C240.121 132.117 239.806 132.294 239.228 132.588C238.652 132.886 237.8 133.281 236.715 133.673C234.554 134.453 231.367 135.134 227.866 134.744C226.121 134.561 224.483 134.173 223.002 133.801C221.519 133.425 220.187 133.063 219.056 132.804C217.926 132.541 217.002 132.373 216.36 132.286C216.039 132.238 215.787 132.22 215.618 132.202C215.448 132.187 215.358 132.184 215.357 132.194Z" fill="#EE9992"/>
<path d="M226.916 130.868C226.929 130.916 227.611 130.685 228.756 130.694C229.326 130.689 230.007 130.735 230.771 130.762C231.531 130.783 232.392 130.778 233.262 130.544C235.007 130.083 236.338 129.084 237.25 128.375C237.707 128.012 238.063 127.702 238.306 127.485C238.547 127.266 238.675 127.137 238.664 127.122C238.638 127.089 238.071 127.533 237.138 128.219C236.203 128.884 234.877 129.835 233.197 130.276C232.362 130.502 231.531 130.516 230.776 130.508C230.019 130.496 229.331 130.47 228.751 130.499C228.171 130.524 227.704 130.604 227.39 130.691C227.076 130.775 226.911 130.854 226.916 130.868Z" fill="#EE9992"/>
<path d="M214.752 125.474C214.735 125.505 215.278 125.86 216.19 126.371C217.101 126.883 218.387 127.541 219.845 128.181C221.304 128.821 222.657 129.319 223.647 129.641C224.637 129.964 225.261 130.121 225.271 130.087C225.283 130.048 224.679 129.826 223.708 129.457C222.737 129.089 221.403 128.564 219.95 127.928C218.499 127.291 217.207 126.664 216.276 126.199C215.346 125.733 214.771 125.439 214.752 125.474Z" fill="#EE9992"/>
<path d="M214.985 120.661C214.947 120.727 215.999 121.452 217.334 122.281C218.67 123.11 219.783 123.729 219.822 123.663C219.86 123.598 218.808 122.874 217.472 122.044C216.137 121.215 215.024 120.596 214.985 120.661Z" fill="#EE9992"/>
<path d="M237.412 121.839C237.386 121.803 236.936 122.118 236.178 122.572C235.422 123.027 234.346 123.601 233.099 124.091C231.85 124.579 230.676 124.887 229.817 125.065C228.958 125.245 228.418 125.319 228.422 125.362C228.424 125.394 228.973 125.389 229.85 125.257C230.725 125.126 231.927 124.843 233.194 124.349C234.46 123.851 235.539 123.24 236.277 122.738C237.017 122.236 237.43 121.864 237.412 121.839Z" fill="#EE9992"/>
<path d="M236.163 115.046C236.154 115.013 235.748 115.087 235.11 115.281C234.473 115.474 233.606 115.801 232.693 116.258C231.779 116.717 230.995 117.218 230.454 117.615C229.912 118.011 229.606 118.295 229.626 118.324C229.674 118.392 231.002 117.405 232.81 116.505C234.612 115.595 236.186 115.128 236.163 115.046Z" fill="#EE9992"/>
<path d="M229.074 83.7157C226.753 81.3848 224.781 80.9402 222.519 80.8556C219.089 80.7266 215.431 81.8262 212.975 84.2914C210.721 86.5546 209.742 89.9152 209.768 93.1553C209.777 94.2982 210.245 95.3328 210.691 96.3801C211.137 97.4274 212.518 98.6479 213.561 99.0418C214.605 99.4361 214.969 99.0424 215.698 98.1796C216.144 97.652 216.346 96.9591 216.545 96.2908C217.387 93.4668 218.402 90.6426 220.128 88.2816C221.853 85.9205 224.39 84.0496 227.248 83.751" fill="#E8505B"/>
<path d="M231.208 89.7863C231.509 87.569 230.684 85.2229 229.075 83.7157C227.862 82.5801 226.277 81.934 224.665 81.6211C222.501 81.2009 220.17 81.3695 218.242 82.4633C216.313 83.5566 214.868 85.6691 214.876 87.9343C214.879 88.9627 215.166 90.0034 214.948 91.0069C214.853 91.4429 214.665 91.9025 214.827 92.3169C214.975 92.6969 215.391 92.9116 215.789 92.9169C216.186 92.9216 216.567 92.7542 216.914 92.5548C218.098 91.8766 219.029 90.824 219.937 89.7893L231.208 89.7863Z" fill="#3B2C23"/>
<path d="M220.572 83.2515C220.571 83.3378 222.053 83.1011 223.712 83.7655C225.381 84.4026 226.335 85.5915 226.39 85.5259C226.412 85.5073 226.211 85.1875 225.776 84.7683C225.344 84.3492 224.656 83.8554 223.802 83.5196C222.947 83.1871 222.114 83.0866 221.521 83.1045C220.924 83.1208 220.567 83.223 220.572 83.2515Z" fill="black"/>
<path d="M224.538 83.1139C224.508 83.1869 225.312 83.465 225.912 84.2817C226.53 85.0847 226.589 85.9548 226.665 85.9432C226.696 85.9426 226.728 85.7235 226.668 85.374C226.637 85.1883 226.574 84.9675 226.473 84.7363C226.384 84.5337 226.266 84.3231 226.114 84.121C225.789 83.6896 225.387 83.3995 225.075 83.2546C224.761 83.107 224.546 83.0844 224.538 83.1139Z" fill="black"/>
<path d="M218.125 112.48C218.125 112.48 228.41 109.638 228.423 109.78L229.674 109.775L230.784 128.673L226.578 134.236L222.251 130.087L215.153 119.297L214.756 115.046L214.57 114.196L218.125 112.48Z" fill="#EB996D"/>
<path d="M226.436 85.8721L216.008 88.2655C215.084 88.469 214.467 89.3656 214.585 90.3289L217.744 111.758C217.96 113.222 218.638 114.571 219.675 115.598L220.767 116.679C223.257 119.144 227.461 118.227 228.621 114.879C228.702 114.645 228.752 114.443 228.762 114.284C228.768 114.086 228.799 113.952 228.785 113.787C228.824 112.084 228.491 110.514 228.491 110.514C228.314 108.591 228.232 107.802 228.235 107.82C228.235 107.82 232.105 106.716 232.374 101.339C232.508 98.6651 231.933 94.3677 231.352 90.8675C230.829 87.7167 229.474 85.2011 226.436 85.8721Z" fill="#EB996D"/>
<path d="M228.237 107.82C228.237 107.82 224.802 108.428 221.156 106.685C221.156 106.685 223.266 110.156 228.361 109.097L228.237 107.82Z" fill="#E7793F"/>
<path d="M230.675 94.5063C230.724 94.8631 230.472 95.1999 230.111 95.2602C229.75 95.3193 229.417 95.0798 229.367 94.723C229.318 94.3662 229.571 94.0288 229.932 93.9691C230.293 93.9088 230.626 94.1495 230.675 94.5063Z" fill="#0D0D0D"/>
<path d="M230.675 93.2094C230.602 93.3066 230.063 92.9815 229.354 93.0614C228.645 93.1301 228.162 93.5627 228.076 93.4817C228.035 93.4463 228.101 93.2777 228.31 93.0832C228.516 92.8897 228.88 92.6834 229.322 92.6369C229.764 92.5908 230.153 92.7179 230.384 92.8652C230.62 93.0139 230.711 93.1655 230.675 93.2094Z" fill="#0D0D0D"/>
<path d="M223.998 95.3326C224.047 95.6894 223.794 96.0262 223.433 96.0865C223.072 96.1456 222.739 95.9061 222.69 95.5493C222.64 95.1925 222.893 94.8553 223.254 94.795C223.616 94.7353 223.948 94.9758 223.998 95.3326Z" fill="#0D0D0D"/>
<path d="M223.714 94.1097C223.641 94.2069 223.101 93.8818 222.393 93.9617C221.683 94.0304 221.202 94.463 221.115 94.3821C221.074 94.3466 221.139 94.1778 221.349 93.9833C221.555 93.7892 221.919 93.5837 222.361 93.5366C222.803 93.4912 223.192 93.6176 223.423 93.7656C223.659 93.9142 223.75 94.0659 223.714 94.1097Z" fill="#0D0D0D"/>
<path d="M226.849 99.2394C226.841 99.1982 227.274 99.0718 227.979 98.8989C228.158 98.8598 228.325 98.8041 228.343 98.6737C228.372 98.5346 228.275 98.3418 228.164 98.135C227.948 97.7026 227.72 97.2494 227.482 96.7742C226.529 94.8362 225.819 93.2338 225.894 93.1953C225.971 93.1568 226.806 94.6962 227.759 96.6348C227.989 97.1133 228.21 97.5693 228.42 98.006C228.51 98.2101 228.653 98.4376 228.589 98.7267C228.555 98.8714 228.432 98.9868 228.32 99.0317C228.207 99.0814 228.105 99.0945 228.016 99.1093C227.302 99.2282 226.856 99.2806 226.849 99.2394Z" fill="#0D0D0D"/>
<path d="M226.735 101.03C226.444 100.711 225.978 100.57 225.539 100.668C225.235 100.736 224.939 100.922 224.779 101.201C224.618 101.479 224.618 101.85 224.813 102.077C225.033 102.332 225.439 102.352 225.768 102.217C226.096 102.081 226.364 101.819 226.617 101.561C226.687 101.489 226.758 101.415 226.797 101.323C226.836 101.231 226.834 101.117 226.768 101.051" fill="#E7793F"/>
<path d="M224.815 99.9726C224.93 99.9531 225.014 100.745 225.731 101.235C226.447 101.727 227.259 101.548 227.277 101.658C227.292 101.707 227.11 101.832 226.764 101.879C226.426 101.929 225.918 101.871 225.479 101.571C225.041 101.27 224.82 100.83 224.761 100.507C224.697 100.179 224.762 99.9737 224.815 99.9726Z" fill="#0D0D0D"/>
<path d="M223.606 91.8906C223.556 92.0967 222.838 92.0802 222.017 92.2743C221.191 92.4519 220.546 92.776 220.417 92.6101C220.359 92.5308 220.456 92.331 220.708 92.1094C220.957 91.8878 221.367 91.659 221.861 91.5469C222.355 91.4358 222.821 91.4676 223.137 91.5612C223.456 91.6541 223.626 91.7934 223.606 91.8906Z" fill="#0D0D0D"/>
<path d="M230.142 90.042C230.034 90.2212 229.527 90.1027 228.939 90.1588C228.349 90.1943 227.865 90.3892 227.732 90.2285C227.673 90.1498 227.735 89.9753 227.936 89.7945C228.134 89.6143 228.479 89.4477 228.884 89.4155C229.29 89.3849 229.655 89.4964 229.877 89.6438C230.102 89.7912 230.188 89.9547 230.142 90.042Z" fill="#0D0D0D"/>
<path d="M216.957 99.0272C216.916 98.634 216.377 97.7536 215.992 97.7347C214.966 97.6835 213.155 97.9661 213.411 100.605C213.762 104.213 217.211 103.107 217.206 103.003C217.203 102.921 217.101 100.386 216.957 99.0272Z" fill="#EB996D"/>
<path d="M216.002 101.746C215.986 101.736 215.945 101.796 215.847 101.855C215.751 101.913 215.581 101.964 215.391 101.912C215.007 101.81 214.636 101.237 214.556 100.589C214.515 100.261 214.552 99.9416 214.64 99.6709C214.721 99.3961 214.869 99.1952 215.053 99.1418C215.233 99.0784 215.377 99.18 215.43 99.2766C215.486 99.3728 215.471 99.4472 215.49 99.4515C215.501 99.4595 215.56 99.3834 215.517 99.2374C215.496 99.1671 215.446 99.0862 215.357 99.0254C215.266 98.9636 215.139 98.9402 215.01 98.9683C214.741 99.0154 214.523 99.2962 214.426 99.5932C214.315 99.8929 214.266 100.253 214.312 100.62C214.405 101.345 214.833 101.988 215.355 102.087C215.607 102.128 215.806 102.03 215.904 101.934C216.004 101.834 216.015 101.751 216.002 101.746Z" fill="#E7793F"/>
<path d="M226.438 85.6576C226.35 87.4313 224.56 87.4967 222.984 88.2221C222.142 88.6096 221.097 88.8211 220.671 89.6626C220.236 90.5217 220.687 91.6326 220.292 92.5117C219.744 93.7309 217.864 93.9194 217.499 95.2083C217.339 95.7708 217.535 96.394 217.366 96.9538C217.14 97.7002 216.279 98.1136 215.532 97.9726C214.784 97.8309 214.173 97.2435 213.809 96.5579C213.444 95.8723 213.29 95.0919 213.156 94.3227C212.894 92.8092 212.694 91.2534 212.966 89.7419C213.536 86.5742 217.315 81.8079 220.442 81.6298" fill="#3B2C23"/>
<path d="M233.897 233.486L227.865 247.704L224.514 243.28L226.753 231.149L233.897 233.486Z" fill="#EB996D"/>
<path d="M221.412 182.791L232.427 208.429L225.717 235.115L233.764 238.237L246.567 208.034L246.554 172.473L236.981 173.152L221.518 173.554L221.412 182.791Z" fill="#3C6091"/>
<path d="M221.412 182.791L232.427 208.429L225.717 235.115L233.764 238.237L246.567 208.034L246.554 172.473L236.981 173.152L221.518 173.554L221.412 182.791Z" stroke="#758EB7" stroke-width="2" stroke-miterlimit="10"/>
<path d="M229.89 246.231L229.372 246.541C229.372 246.541 230.92 257.21 229.301 258.293L219.286 241.225L225.265 238.031C225.545 241.278 226.967 244.014 229.89 246.231Z" fill="#D7D9D9"/>
<path d="M219.285 241.225L220.723 240.457L229.796 257.097C229.796 257.097 229.901 258.056 229.3 258.293L219.285 241.225Z" fill="#0C2B34"/>
<path d="M224.416 240.869C224.124 240.583 223.605 240.573 223.307 240.853C223.01 241.133 222.994 241.662 223.282 241.952C223.569 242.242 224.192 242.275 224.456 241.963C224.72 241.651 224.704 241.03 224.356 240.817" fill="white"/>
<path d="M229.36 246.629C229.273 246.677 228.989 246.283 228.473 246.035C227.963 245.773 227.468 245.779 227.457 245.682C227.429 245.596 228.014 245.42 228.633 245.731C229.256 246.038 229.449 246.601 229.36 246.629Z" fill="#0C2B34"/>
<path d="M229.644 248.866C229.572 248.934 229.214 248.659 228.685 248.588C228.159 248.502 227.725 248.66 227.68 248.576C227.621 248.505 228.089 248.153 228.744 248.253C229.401 248.347 229.724 248.817 229.644 248.866Z" fill="#0C2B34"/>
<path d="M228.036 251.176C227.974 251.111 228.334 250.743 228.929 250.682C229.524 250.616 229.939 250.901 229.889 250.978C229.846 251.066 229.445 250.962 228.958 251.019C228.469 251.065 228.093 251.253 228.036 251.176Z" fill="#0C2B34"/>
<path d="M223.683 248.128L221.325 263.82L213.592 263.15L215.026 247.225L223.683 248.128Z" fill="#EB996D"/>
<path d="M230.301 191.012L228.388 173.802L218.902 173.345L209.834 171.288L211.718 182.827L214.871 192.99L218.736 211.933L213.01 252.558L224.64 253.544L231.634 214.025L230.301 191.012Z" fill="#3C6091"/>
<path d="M230.301 191.012L228.388 173.802L218.902 173.345L209.834 171.288L211.718 182.827L214.871 192.99L218.736 211.933L213.01 252.558L224.64 253.544L231.634 214.025L230.301 191.012Z" stroke="#758EB7" stroke-width="2" stroke-miterlimit="10"/>
<path d="M222.355 262.027L222.321 262.63C222.321 262.63 232.024 267.329 232.014 269.276L212.265 268.002L212.972 261.26C215.817 262.848 218.88 263.204 222.355 262.027Z" fill="#D7D9D9"/>
<path d="M212.263 268.002L212.432 266.381L231.298 268.196C231.298 268.196 232.152 268.646 232.011 269.276L212.263 268.002Z" fill="#0C2B34"/>
<path d="M214.833 263.55C214.444 263.633 214.151 264.058 214.214 264.461C214.277 264.864 214.694 265.172 215.084 265.096C215.475 265.021 215.841 264.521 215.735 264.129C215.628 263.736 215.12 263.401 214.758 263.571" fill="white"/>
<path d="M222.387 262.691C222.378 262.79 221.892 262.804 221.398 263.092C220.895 263.367 220.623 263.782 220.536 263.736C220.449 263.711 220.631 263.127 221.236 262.79C221.839 262.446 222.414 262.602 222.387 262.691Z" fill="#0C2B34"/>
<path d="M224.402 263.706C224.417 263.803 223.989 263.945 223.634 264.343C223.268 264.731 223.156 265.179 223.061 265.169C222.969 265.179 222.94 264.593 223.39 264.107C223.836 263.616 224.406 263.611 224.402 263.706Z" fill="#0C2B34"/>
<path d="M225.412 266.332C225.323 266.347 225.221 265.843 225.504 265.316C225.783 264.786 226.252 264.602 226.287 264.687C226.336 264.772 226.025 265.045 225.799 265.481C225.563 265.912 225.509 266.328 225.412 266.332Z" fill="#0C2B34"/>
<path d="M210.357 173.31L211.185 151.05L216.507 152.015L220.098 153.553L226.224 154.219L233.776 155.028L240.135 154.973L243.588 154.446L247.205 174.291L236.737 175.726L228.265 176.182L218.036 175.107L210.357 173.31Z" fill="#3C6091"/>
<path d="M236.654 160.566C236.721 160.576 236.85 159.43 236.521 158.065C236.203 156.699 235.575 155.741 235.521 155.781C235.449 155.821 235.954 156.809 236.262 158.131C236.58 159.449 236.573 160.565 236.654 160.566Z" fill="#0C2B34"/>
<path d="M237.931 160.795C237.997 160.806 238.185 159.533 237.966 157.974C237.756 156.415 237.232 155.245 237.171 155.274C237.096 155.302 237.496 156.49 237.701 158.013C237.915 159.534 237.85 160.789 237.931 160.795Z" fill="#0C2B34"/>
<path d="M242.715 162.788C242.68 162.757 242.514 163.028 242.085 163.159C241.876 163.222 241.607 163.246 241.33 163.176C241.054 163.107 240.772 162.934 240.535 162.688C240.054 162.189 239.871 161.54 239.759 161.085C239.651 160.621 239.598 160.323 239.559 160.329C239.525 160.332 239.51 160.634 239.573 161.121C239.64 161.597 239.802 162.315 240.345 162.882C240.612 163.161 240.943 163.357 241.276 163.424C241.609 163.491 241.917 163.44 242.149 163.342C242.626 163.136 242.743 162.791 242.715 162.788Z" fill="#0C2B34"/>
<path d="M223.219 155.718C223.168 155.709 223.109 156.359 222.702 157.297C222.307 158.224 221.487 159.435 220.181 160.228C218.873 161.018 217.445 161.167 216.465 161.072C215.471 160.983 214.889 160.72 214.873 160.771C214.867 160.786 215.005 160.865 215.271 160.971C215.536 161.077 215.937 161.195 216.445 161.266C217.449 161.415 218.945 161.294 220.317 160.466C221.687 159.634 222.516 158.347 222.876 157.372C223.063 156.881 223.157 156.464 223.195 156.174C223.235 155.883 223.235 155.72 223.219 155.718Z" fill="#0C2B34"/>
<path d="M223.709 158.521C223.778 158.548 224.127 157.79 224.487 156.828C224.849 155.866 225.085 155.062 225.016 155.035C224.948 155.008 224.599 155.766 224.238 156.729C223.877 157.691 223.64 158.493 223.709 158.521Z" fill="#0C2B34"/>
<path d="M224.978 159.437C225.044 159.467 225.47 158.638 225.81 157.539C226.154 156.44 226.274 155.51 226.204 155.497C226.129 155.48 225.894 156.373 225.556 157.455C225.221 158.538 224.909 159.405 224.978 159.437Z" fill="#0C2B34"/>
<path d="M229.533 108.82L231.544 109.31L233.59 109.213C233.59 109.213 242.546 127.6 243.135 130.415C243.723 133.231 245.056 144.522 245.056 144.522C245.056 144.522 247.369 149.89 248.345 151.814C249.32 153.737 255.132 168.645 255.132 168.645C255.132 168.645 255.834 173.675 253.719 174.01C251.605 174.345 249.679 173.483 248.073 174.153C246.468 174.821 245.056 175.047 245.056 175.047L243.56 167.186C243.56 167.186 241.361 158.098 240.794 155.533C240.227 152.968 238.763 147.7 238.6 145.608C238.438 143.518 238.681 137.413 238.356 135.74C238.031 134.067 235.673 133.231 234.779 131.977C233.884 130.723 231.364 124.199 231.12 120.938C230.876 117.676 229.533 108.82 229.533 108.82Z" fill="#758EB7"/>
<path d="M231.542 109.31C231.523 109.312 231.53 109.582 231.559 110.07C231.594 110.556 231.658 111.26 231.787 112.123C232.029 113.853 232.562 116.212 233.359 118.745C233.704 119.851 234.084 120.655 234.421 121.619L234.189 121.392C233.265 120.574 232.663 120.423 231.787 120.171L231.723 120.153L231.684 120.203C231.376 120.602 231.277 121.056 231.235 121.435C231.199 121.82 231.229 122.151 231.269 122.417C231.312 122.682 231.37 122.883 231.416 123.016C231.464 123.148 231.497 123.215 231.505 123.211C231.529 123.204 231.43 122.924 231.377 122.402C231.353 122.142 231.34 121.819 231.39 121.454C231.442 121.095 231.478 120.7 231.759 120.357L231.783 120.322C232.629 120.591 233.551 121.12 234.435 121.919L234.793 122.244L234.635 121.779C234.309 120.813 233.957 119.763 233.614 118.661C232.819 116.137 232.263 113.804 231.974 112.092C231.822 111.237 231.73 110.54 231.663 110.058C231.602 109.576 231.56 109.309 231.542 109.31Z" fill="#0C2B34"/>
<path d="M247.579 174.679C247.583 174.678 247.578 174.63 247.564 174.539C247.546 174.431 247.524 174.298 247.496 174.133C247.426 173.758 247.329 173.239 247.206 172.582C246.933 171.216 246.545 169.277 246.068 166.891C245.084 162.072 243.732 155.449 242.238 148.134C241.51 144.467 240.831 140.972 240.295 137.776C240.014 136.177 239.681 134.665 239.239 133.288C238.803 131.908 238.24 130.679 237.648 129.609C236.454 127.471 235.235 125.917 234.407 124.844C233.989 124.309 233.657 123.899 233.431 123.623C233.326 123.497 233.239 123.394 233.171 123.311C233.11 123.242 233.078 123.208 233.075 123.212C233.071 123.215 233.096 123.254 233.149 123.329C233.213 123.416 233.291 123.524 233.389 123.658C233.616 123.961 233.929 124.379 234.325 124.91C235.127 126.002 236.32 127.572 237.483 129.704C238.06 130.772 238.606 131.99 239.028 133.358C239.456 134.724 239.78 136.227 240.053 137.82C240.575 141.019 241.248 144.522 241.976 148.189C243.441 155.522 244.86 162.141 245.883 166.932C246.395 169.31 246.811 171.243 247.104 172.604C247.247 173.256 247.361 173.771 247.444 174.145C247.482 174.308 247.513 174.439 247.537 174.544C247.561 174.634 247.574 174.679 247.579 174.679Z" fill="#0C2B34"/>
<path d="M247.917 108.261L258.159 104.481C259.605 101.132 263.544 99.5186 265.706 101.505L263.652 102.351C263.652 102.351 262.533 111.223 264.212 112.768L266.639 111.29C266.639 111.29 267.476 116.206 265.999 117.664C264.521 119.122 262.187 118.885 262.187 118.885L260.888 117.23C260.888 117.23 259.571 121.568 255.175 123.872C250.779 126.176 241.939 127.272 240.049 129.54L236.579 125.42L232.046 109.6L247.917 108.261Z" fill="#758EB7"/>
<path d="M243.279 115.507C243.261 115.505 243.222 115.686 243.17 116.017C243.117 116.348 243.052 116.827 242.976 117.42C242.819 118.679 242.617 120.281 242.395 122.052C242.149 123.857 241.893 125.486 241.639 126.649C241.396 127.816 241.148 128.508 241.188 128.525C241.205 128.532 241.281 128.364 241.407 128.052C241.525 127.739 241.674 127.275 241.822 126.694C242.126 125.532 242.414 123.899 242.66 122.088C242.9 120.278 243.061 118.632 243.164 117.441C243.206 116.894 243.243 116.424 243.273 116.028C243.294 115.695 243.297 115.509 243.279 115.507Z" fill="#0C2B34"/>
<path d="M234.75 116.192C234.732 116.196 234.753 116.393 234.807 116.748C234.857 117.104 234.961 117.615 235.117 118.238C235.426 119.484 236 121.175 236.899 122.911C237.804 124.646 238.852 126.074 239.687 127.029C240.105 127.508 240.459 127.879 240.719 128.12C240.975 128.363 241.124 128.49 241.137 128.477C241.168 128.443 240.622 127.884 239.832 126.902C239.039 125.923 238.029 124.494 237.136 122.78C236.246 121.065 235.652 119.407 235.299 118.185C234.944 116.962 234.796 116.183 234.75 116.192Z" fill="#0C2B34"/>
<path d="M263.912 101.417C263.901 101.409 263.791 101.574 263.691 101.909C263.594 102.242 263.498 102.736 263.423 103.349C263.274 104.576 263.196 106.28 263.224 108.161C263.247 109.101 263.266 109.996 263.377 110.814C263.487 111.63 263.731 112.355 264.07 112.881C264.404 113.411 264.801 113.739 265.097 113.91C265.398 114.077 265.586 114.111 265.591 114.097C265.625 114.056 264.838 113.83 264.231 112.778C263.929 112.265 263.715 111.574 263.622 110.779C263.527 109.986 263.514 109.089 263.491 108.155C263.463 106.284 263.512 104.589 263.612 103.369C263.661 102.759 263.728 102.269 263.793 101.934C263.859 101.601 263.933 101.428 263.912 101.417Z" fill="#0C2B34"/>
<path d="M263.542 102.401L280.534 95.4034L283.376 100.044C283.376 100.044 265.855 112.781 264.137 112.803C263.123 110.536 263.051 106.883 263.542 102.401Z" fill="#EB996D"/>
<path d="M287.874 92.57C288.206 92.561 289.466 92.3991 290.135 92.4452C292.496 92.5353 299.272 91.6051 299.272 91.6051L299.445 92.3365C299.335 93.624 292.655 95.2893 292.655 95.2893L294.521 97.9738C294.709 98.2392 294.806 98.5617 294.796 98.8903L294.608 105.463L293.975 105.392C292.934 105.042 292.996 103.347 292.996 103.347C291.922 102.71 285.997 101.388 284.416 101.253C282.835 101.119 281.822 99.8562 281.822 99.8562L280.532 95.4035C280.532 95.4035 287.541 92.5794 287.874 92.57Z" fill="#EB996D"/>
<path d="M286.341 97.7367C286.329 97.7457 286.402 97.8931 286.595 98.1143C286.787 98.3348 287.112 98.6184 287.571 98.8648C288.028 99.1138 288.617 99.3181 289.276 99.4696C289.935 99.6268 290.665 99.7409 291.395 99.9637C292.122 100.184 292.777 100.528 293.243 100.988C293.709 101.442 293.988 102.016 293.968 102.503C293.961 103.004 293.6 103.29 293.352 103.361C293.092 103.439 292.939 103.349 292.932 103.376C292.921 103.38 293.066 103.518 293.375 103.465C293.525 103.439 293.701 103.356 293.859 103.2C294.019 103.046 294.137 102.794 294.157 102.515C294.204 101.946 293.908 101.307 293.416 100.806C292.921 100.299 292.228 99.9293 291.473 99.6996C290.716 99.4698 289.981 99.3634 289.33 99.2216C288.677 99.0858 288.107 98.9081 287.656 98.6899C286.743 98.259 286.375 97.7013 286.341 97.7367Z" fill="#BB8379"/>
<path d="M290.722 97.3799C290.655 97.3948 290.863 98.2327 291.546 98.9975C291.857 99.3523 292.201 99.614 292.474 99.775L292.43 99.696C292.475 100.066 292.523 100.295 292.562 100.292C292.602 100.29 292.625 100.057 292.629 99.683L292.629 99.6397L292.585 99.604C292.347 99.414 292.04 99.1476 291.745 98.8122C291.102 98.0959 290.795 97.3488 290.722 97.3799Z" fill="#BB8379"/>
<path d="M288.154 96.7839C288.155 96.8205 288.46 96.8065 288.853 96.5652C289.05 96.4524 289.266 96.2962 289.514 96.1698C289.76 96.0368 290.045 95.9916 290.382 95.9773C291.726 95.8978 292.813 95.7722 292.809 95.6959C292.805 95.6203 291.712 95.6228 290.368 95.7023C290.034 95.7133 289.67 95.7806 289.402 95.945C289.132 96.0993 288.929 96.2729 288.751 96.401C288.405 96.6703 288.148 96.7435 288.154 96.7839Z" fill="#BB8379"/>
<path d="M214.506 114.229C214.506 114.229 217.208 124.742 217.456 125.253C217.705 125.764 220.807 144.272 219.938 147.591C219.07 150.91 213.237 153.831 213.981 157.859C214.726 161.886 216.712 167.502 215.719 172.416C214.726 177.331 211.747 178.607 211.747 178.607L206.535 174.778C206.535 174.778 204.922 168.524 205.542 164.311C206.163 160.1 209.018 155.887 209.018 155.887C209.018 155.887 210.755 130.614 211.003 130.231C211.251 129.848 212.165 115.317 212.165 115.317L214.506 114.229Z" fill="#758EB7"/>
<path d="M211.184 178.193C211.186 178.198 211.228 178.172 211.307 178.116C211.385 178.06 211.499 177.973 211.644 177.854C211.936 177.616 212.352 177.247 212.851 176.732C213.347 176.215 213.928 175.55 214.517 174.712C214.833 174.314 215.072 173.778 215.215 173.206C215.318 172.623 215.386 171.999 215.365 171.347C215.347 170.039 215.146 168.624 214.855 167.127C214.714 166.377 214.544 165.607 214.373 164.815C214.288 164.419 214.202 164.018 214.134 163.613C214.113 163.406 214.092 163.199 214.07 162.99C214.043 162.776 214.006 162.565 213.967 162.352C213.803 161.506 213.595 160.652 213.371 159.784C213.256 159.351 213.139 158.913 213.022 158.471C212.905 158.024 212.748 157.594 212.73 157.151C212.664 156.249 212.929 155.328 213.353 154.494C213.776 153.649 214.36 152.888 214.992 152.148C215.622 151.406 216.273 150.684 216.82 149.886C217.374 149.095 217.785 148.201 217.999 147.277C218.423 145.417 218.228 143.578 218.052 141.882C217.674 138.481 217.334 135.417 217.047 132.835C216.753 130.277 216.515 128.2 216.346 126.739C216.26 126.036 216.192 125.482 216.143 125.084C216.118 124.908 216.099 124.766 216.083 124.654C216.068 124.557 216.058 124.507 216.053 124.508C216.049 124.508 216.05 124.559 216.056 124.657C216.065 124.769 216.075 124.912 216.089 125.089C216.126 125.489 216.178 126.046 216.243 126.751C216.391 128.214 216.601 130.294 216.859 132.857C217.13 135.44 217.45 138.507 217.807 141.91C217.977 143.603 218.159 145.418 217.745 147.213C217.535 148.105 217.144 148.955 216.602 149.728C216.069 150.506 215.424 151.221 214.791 151.968C214.155 152.711 213.553 153.495 213.117 154.368C212.679 155.232 212.396 156.202 212.468 157.17C212.486 157.407 212.521 157.656 212.587 157.882C212.649 158.104 212.711 158.325 212.772 158.544C212.891 158.985 213.008 159.42 213.124 159.852C213.35 160.717 213.56 161.567 213.725 162.401C213.764 162.609 213.801 162.817 213.828 163.022C213.851 163.233 213.874 163.443 213.896 163.651C213.968 164.069 214.055 164.472 214.143 164.868C214.319 165.66 214.493 166.426 214.638 167.172C214.936 168.659 215.146 170.063 215.175 171.35C215.203 171.994 215.142 172.602 215.048 173.168C214.911 173.727 214.709 174.212 214.395 174.623C213.823 175.463 213.258 176.133 212.776 176.657C212.291 177.18 211.889 177.561 211.61 177.811C211.479 177.927 211.374 178.02 211.29 178.094C211.218 178.157 211.181 178.19 211.184 178.193Z" fill="black"/>
<path d="M206.703 189.379C211.45 189.953 216.452 191.748 218.925 195.931C221.196 199.774 220.025 204.721 218.79 209.062C217.555 213.405 215.872 218.286 211.812 220.051C209.406 221.097 206.679 220.775 204.107 220.374C195.551 219.04 187.099 217.033 178.851 214.379C176.179 213.518 173.281 212.381 171.994 209.831C170.876 207.618 171.287 204.939 171.727 202.473C172.386 198.774 173.044 195.076 173.704 191.377C174.121 189.03 174.711 186.411 176.681 185.134C178.323 184.069 180.422 184.286 182.336 184.556C190.581 185.717 198.549 187.693 206.703 189.379Z" fill="#EDAC4A"/>
<path d="M209.525 219.495C209.529 219.461 209.033 219.475 208.195 219.228C207.369 218.977 206.192 218.396 205.16 217.2C204.645 216.61 204.163 215.88 203.822 215.015C203.475 214.153 203.262 213.163 203.209 212.111C203.091 210.001 203.639 207.666 204.712 205.475C205.779 203.272 207.17 201.384 208.431 199.683C209.685 197.981 210.993 196.566 212.362 195.778C213.722 194.98 215.024 194.793 215.885 194.852C216.757 194.915 217.206 195.139 217.215 195.107C217.218 195.099 217.107 195.048 216.89 194.962C216.668 194.892 216.338 194.788 215.895 194.746C215.018 194.652 213.677 194.812 212.27 195.609C210.854 196.394 209.506 197.827 208.236 199.528C206.963 201.226 205.555 203.12 204.472 205.355C203.383 207.577 202.827 209.967 202.963 212.128C203.023 213.206 203.251 214.221 203.617 215.103C203.978 215.992 204.482 216.736 205.019 217.332C206.096 218.54 207.317 219.108 208.166 219.331C209.029 219.551 209.525 219.495 209.525 219.495Z" fill="#0C2B34"/>
<path d="M177.269 185.664C177.27 185.699 177.812 185.634 178.773 185.761C179.734 185.882 181.092 186.281 182.654 187.052C184.228 187.787 185.997 188.917 188.169 189.748C190.326 190.598 192.816 191.194 195.457 191.543C198.1 191.898 200.633 192.043 202.932 192.199C205.23 192.353 207.298 192.501 209.022 192.727C209.885 192.835 210.663 192.956 211.344 193.07C212.02 193.206 212.609 193.299 213.082 193.412C213.535 193.52 213.898 193.605 214.173 193.669C214.423 193.725 214.556 193.75 214.558 193.741C214.561 193.731 214.434 193.689 214.187 193.616C213.916 193.539 213.556 193.437 213.106 193.308C212.635 193.178 212.048 193.07 211.371 192.919C210.691 192.789 209.912 192.656 209.048 192.535C207.321 192.283 205.249 192.114 202.951 191.947C200.652 191.777 198.124 191.623 195.495 191.27C192.867 190.923 190.398 190.34 188.258 189.511C186.109 188.704 184.331 187.594 182.734 186.874C181.152 186.12 179.763 185.744 178.786 185.654C177.809 185.559 177.269 185.664 177.269 185.664Z" fill="#0C2B34"/>
<path d="M180.637 186.17C180.611 186.143 180.386 186.324 180.043 186.64C179.876 186.804 179.662 186.969 179.457 187.24C179.256 187.485 179.122 188.036 179.543 188.33C179.756 188.459 180.008 188.393 180.165 188.281C180.33 188.173 180.443 187.991 180.492 187.827C180.592 187.491 180.558 187.202 180.571 186.977C180.573 186.516 180.76 186.296 180.736 186.271C180.717 186.228 180.434 186.458 180.383 186.961C180.346 187.201 180.352 187.486 180.26 187.745C180.193 187.991 179.882 188.215 179.68 188.093C179.583 188.037 179.528 187.9 179.529 187.765C179.527 187.631 179.583 187.503 179.658 187.384C179.816 187.154 180.028 186.955 180.176 186.777C180.484 186.427 180.663 186.196 180.637 186.17Z" fill="#0C2B34"/>
<path d="M176.054 196.861C176.051 196.87 176.126 196.913 176.272 196.986C176.448 197.072 176.66 197.174 176.918 197.298C177.48 197.565 178.303 197.93 179.329 198.36C181.379 199.223 184.254 200.317 187.494 201.326C190.736 202.332 193.721 203.06 195.897 203.511C196.984 203.737 197.867 203.902 198.481 204.001C198.762 204.045 198.995 204.081 199.188 204.11C199.35 204.132 199.436 204.139 199.438 204.13C199.439 204.12 199.357 204.095 199.198 204.056C199.008 204.012 198.779 203.959 198.501 203.896C197.855 203.751 196.989 203.556 195.938 203.32C193.777 202.822 190.806 202.066 187.573 201.063C184.342 200.057 181.465 198.995 179.4 198.18C178.399 197.778 177.574 197.446 176.959 197.2C176.695 197.094 176.475 197.008 176.294 196.936C176.14 196.878 176.058 196.853 176.054 196.861Z" fill="#0C2B34"/>
<path d="M186.271 207.641C186.252 207.641 186.237 207.792 186.224 208.067C186.206 208.343 186.222 208.743 186.278 209.233C186.331 209.724 186.453 210.301 186.643 210.924C186.845 211.543 187.122 212.205 187.491 212.857C187.868 213.504 188.3 214.073 188.729 214.552C189.168 215.023 189.6 215.41 189.993 215.693C190.382 215.979 190.715 216.185 190.958 216.301C191.198 216.421 191.334 216.479 191.343 216.463C191.366 216.418 190.844 216.138 190.108 215.537C189.738 215.241 189.33 214.849 188.912 214.379C188.503 213.903 188.09 213.345 187.723 212.716C187.363 212.081 187.087 211.44 186.877 210.842C186.679 210.238 186.54 209.68 186.465 209.203C186.308 208.25 186.32 207.641 186.271 207.641Z" fill="#0C2B34"/>
<path d="M184.323 210.165C184.262 210.2 184.729 211.119 185.559 212.058C186.386 213.002 187.228 213.572 187.269 213.513C187.317 213.45 186.566 212.795 185.759 211.873C184.948 210.956 184.39 210.121 184.323 210.165Z" fill="#0C2B34"/>
<path d="M202.821 218.108C202.826 218.18 203.352 218.165 203.893 217.828C204.437 217.494 204.699 217.023 204.639 216.985C204.579 216.937 204.25 217.292 203.756 217.592C203.268 217.899 202.808 218.03 202.821 218.108Z" fill="#0C2B34"/>
<path d="M203.208 216.742C203.219 216.817 203.51 216.831 203.858 216.772C204.205 216.713 204.477 216.605 204.466 216.53C204.455 216.455 204.164 216.442 203.817 216.5C203.469 216.559 203.197 216.667 203.208 216.742Z" fill="#0C2B34"/>
<path d="M195.651 183.187C197.003 182.642 198.347 182.905 199.677 183.479C200.918 184.014 202.193 184.572 203.135 185.556C204.078 186.541 204.614 188.068 204.08 189.346L202.331 189.055C202.294 188.631 202.323 187.444 202.209 187.035C201.97 186.178 201.162 185.631 200.363 185.284C199.244 184.796 197.752 184.448 196.57 184.77C195.388 185.092 194.55 186.172 194.347 187.409C193.81 187.207 193.273 187.004 192.734 186.803C193.278 185.231 194.139 183.796 195.651 183.187Z" fill="#0C2B34"/>
<path d="M213.135 114.616C213.135 114.616 205.586 116.834 203.9 118.681C202.214 120.529 199.929 146.492 199.929 146.492C199.929 146.492 197.294 148.385 196.558 150.939C196.234 152.065 197.052 154.266 197.317 154.885C198.182 156.906 203.34 157.735 205.897 157.699C208.454 157.663 212.246 153.559 212.246 153.559L212.033 146.297L213.135 114.616Z" fill="#758EB7"/>
<path d="M210.115 128.879C210.105 128.878 210.085 128.976 210.054 129.164C210.022 129.384 209.982 129.656 209.932 129.989C209.834 130.705 209.711 131.745 209.593 133.034C209.342 135.611 209.185 139.185 209 143.123C208.9 145.092 208.782 146.967 208.63 148.667C208.551 149.517 208.478 150.325 208.389 151.079C208.35 151.458 208.299 151.814 208.284 152.184C208.279 152.546 208.312 152.886 208.344 153.208C208.412 153.851 208.477 154.43 208.426 154.93C208.376 155.43 208.18 155.825 207.939 156.074C207.815 156.192 207.7 156.297 207.581 156.36C207.47 156.437 207.37 156.491 207.283 156.523C207.114 156.598 207.026 156.642 207.029 156.65C207.031 156.66 207.125 156.634 207.303 156.574C207.395 156.55 207.501 156.503 207.62 156.431C207.748 156.373 207.873 156.271 208.012 156.15C208.28 155.899 208.509 155.474 208.575 154.949C208.642 154.424 208.588 153.831 208.532 153.189C208.507 152.869 208.481 152.533 208.49 152.189C208.508 151.853 208.566 151.482 208.61 151.106C208.708 150.351 208.79 149.542 208.876 148.69C209.042 146.987 209.167 145.108 209.267 143.136C209.453 139.193 209.579 135.626 209.781 133.05C209.875 131.762 209.969 130.721 210.036 130.001C210.065 129.666 210.089 129.391 210.107 129.172C210.121 128.981 210.124 128.881 210.115 128.879Z" fill="#0C2B34"/>
<path d="M202.987 176.082C202.987 176.082 204.022 180.493 204.025 181.242C204.026 181.816 203.379 185.12 203.075 186.639C202.958 187.222 202.419 187.653 201.85 187.539L201.747 187.509C201.168 187.276 201.145 186.647 201.145 186.647C201.145 186.647 200.783 187.395 199.945 187.251C199.106 187.106 199.117 186.031 199.117 186.031C199.117 186.031 199.06 186.085 198.961 186.156C198.307 186.622 197.409 186.154 197.376 185.337L197.357 184.848C197.357 184.848 196.986 185.435 196.414 185.318C195.316 185.094 195.561 182.507 195.561 182.507L196.734 175.623L198.485 151.784C201.753 151.968 204.669 152.41 206.784 154.167L202.987 176.082Z" fill="#EB996D"/>
<path d="M203.634 183.441C203.575 183.429 203.38 184.134 203.237 185.023C203.095 185.907 202.999 186.629 203.06 186.641C203.119 186.655 203.315 185.95 203.458 185.061C203.6 184.176 203.696 183.455 203.634 183.441Z" fill="#BB8379"/>
<path d="M201.588 183.872C201.53 183.854 201.313 184.454 201.203 185.229C201.09 186.005 201.13 186.642 201.189 186.642C201.253 186.644 201.314 186.021 201.425 185.263C201.532 184.503 201.649 183.89 201.588 183.872Z" fill="#BB8379"/>
<path d="M202.149 182.133C202.127 182.075 201.929 182.107 201.769 182.282C201.609 182.457 201.589 182.661 201.646 182.681C201.706 182.703 201.806 182.575 201.932 182.44C202.056 182.302 202.174 182.192 202.149 182.133Z" fill="#BB8379"/>
<path d="M199.497 183.079C199.435 183.073 199.286 183.744 199.164 184.579C199.042 185.415 198.992 186.102 199.053 186.114C199.114 186.126 199.262 185.454 199.386 184.614C199.508 183.773 199.558 183.086 199.497 183.079Z" fill="#BB8379"/>
<path d="M200.765 181.246C200.778 181.22 200.719 181.152 200.588 181.11C200.46 181.068 200.256 181.063 200.063 181.168C199.871 181.272 199.758 181.449 199.72 181.581C199.68 181.716 199.7 181.804 199.729 181.808C199.788 181.821 199.881 181.525 200.168 181.371C200.452 181.215 200.742 181.304 200.765 181.246Z" fill="#BB8379"/>
<path d="M197.475 182.152C197.412 182.148 197.327 182.763 197.283 183.526C197.239 184.288 197.253 184.91 197.315 184.913C197.377 184.917 197.463 184.302 197.507 183.539C197.551 182.777 197.536 182.155 197.475 182.152Z" fill="#BB8379"/>
<path d="M198.9 180.397C198.909 180.368 198.842 180.311 198.709 180.29C198.578 180.268 198.389 180.296 198.212 180.391C197.864 180.591 197.703 180.859 197.738 180.899C197.782 180.953 198.024 180.76 198.315 180.596C198.608 180.428 198.879 180.453 198.9 180.397Z" fill="#BB8379"/>
<path d="M198.056 151.816C198.059 151.864 198.636 151.819 199.562 151.872C200.487 151.922 201.761 152.106 203.112 152.527C204.464 152.953 205.624 153.524 206.43 153.995C207.237 154.464 207.707 154.809 207.734 154.772C207.745 154.757 207.639 154.656 207.434 154.486C207.232 154.314 206.923 154.086 206.526 153.828C205.736 153.308 204.567 152.697 203.191 152.264C201.814 151.834 200.509 151.677 199.569 151.677C199.098 151.675 198.718 151.698 198.457 151.736C198.196 151.77 198.054 151.798 198.056 151.816Z" fill="#0C2B34"/>
<path d="M212.164 115.016C212.146 115.019 212.154 115.251 212.184 115.673C212.219 116.093 212.282 116.7 212.389 117.446C212.596 118.94 212.99 120.985 213.52 123.219C213.837 124.551 214.159 125.801 214.446 126.882L214.527 127.19L214.665 126.909C214.987 126.252 214.93 125.595 215.055 125.081C215.158 124.561 215.421 124.134 215.758 124.006C216.1 123.875 216.413 123.977 216.56 124.102C216.717 124.228 216.735 124.355 216.754 124.346C216.761 124.345 216.757 124.316 216.744 124.26C216.725 124.206 216.691 124.123 216.61 124.044C216.458 123.884 216.115 123.74 215.711 123.869C215.294 124.004 214.989 124.486 214.864 125.033C214.721 125.582 214.749 126.231 214.456 126.792L214.676 126.819C214.408 125.722 214.104 124.475 213.781 123.154C213.251 120.925 212.83 118.894 212.576 117.414C212.461 116.717 212.365 116.13 212.288 115.659C212.226 115.244 212.182 115.014 212.164 115.016Z" fill="black"/>
<g opacity="0.140205">
<path opacity="0.140205" d="M179.689 74.602C180.219 70.7571 174.792 67.5938 170.714 67.265C168.77 67.1082 166.75 67.4058 164.908 66.7634C160.916 65.3724 159.322 60.2164 155.427 58.5732C152.516 57.3451 149.163 58.4385 146.341 59.8591C143.518 61.2797 140.729 63.0674 137.575 63.2696C134.832 63.4453 131.853 62.4281 129.453 63.7675C127.665 64.7664 126.728 66.8267 125.08 68.0426C123.467 69.232 121.363 69.4842 119.363 69.5929C117.362 69.7016 115.29 69.722 113.469 70.5562C111.647 71.3904 110.14 73.3168 110.518 75.2844L179.689 74.602Z" fill="#D7D9D9"/>
</g>
<path d="M176.311 239.442L173.818 256.9L194.679 258.22C193.543 255.252 184.866 252.01 184.866 252.01L186.911 240.881L176.311 239.442Z" fill="#EE9992"/>
<path d="M173.821 256.901L174.14 255.15L194.296 257.713C194.296 257.713 194.361 257.754 194.452 257.826C194.803 258.248 194.998 258.624 194.971 258.926L173.821 256.901Z" fill="#0C2B34"/>
<path d="M178.193 251.815C177.924 251.697 177.715 251.431 177.693 251.129C177.662 250.719 177.97 250.312 178.36 250.213C178.51 250.156 178.675 250.174 178.829 250.242C179.09 250.356 179.315 250.613 179.366 250.884C179.446 251.314 179.005 251.822 178.577 251.874C178.445 251.891 178.313 251.868 178.193 251.815Z" fill="#EFE8E4"/>
<path d="M185.228 251.946C185.209 252.052 184.683 252.03 184.122 252.303C183.555 252.562 183.223 252.986 183.135 252.931C183.042 252.898 183.291 252.285 183.975 251.966C184.656 251.642 185.264 251.852 185.228 251.946Z" fill="#0C2B34"/>
<path d="M187.315 253.184C187.323 253.29 186.848 253.41 186.429 253.811C186 254.201 185.839 254.673 185.736 254.655C185.637 254.658 185.657 254.029 186.186 253.539C186.711 253.046 187.328 253.082 187.315 253.184Z" fill="#0C2B34"/>
<path d="M188.174 256.077C188.077 256.087 188.011 255.538 188.363 254.992C188.711 254.445 189.234 254.282 189.265 254.376C189.311 254.471 188.95 254.74 188.667 255.192C188.375 255.637 188.279 256.08 188.174 256.077Z" fill="#0C2B34"/>
<path d="M185.42 249.363C185.362 249.454 184.909 249.244 184.315 249.207C183.725 249.157 183.238 249.298 183.199 249.199C183.15 249.115 183.653 248.782 184.35 248.835C185.046 248.884 185.483 249.286 185.42 249.363Z" fill="#0C2B34"/>
<path d="M185.293 246.72C185.289 246.763 184.869 246.775 184.231 246.573C183.914 246.472 183.545 246.312 183.17 246.076C182.982 245.957 182.793 245.821 182.608 245.663C182.52 245.586 182.414 245.505 182.325 245.365C182.226 245.239 182.203 244.949 182.36 244.795C182.495 244.642 182.697 244.596 182.851 244.613C183.008 244.628 183.131 244.677 183.242 244.722C183.469 244.812 183.679 244.922 183.868 245.042C184.246 245.284 184.541 245.567 184.751 245.83C185.175 246.362 185.285 246.78 185.246 246.796C185.195 246.825 185.004 246.461 184.559 246.009C184.338 245.785 184.048 245.544 183.692 245.337C183.513 245.234 183.318 245.141 183.11 245.063C182.894 244.973 182.702 244.946 182.629 245.04C182.603 245.077 182.598 245.092 182.635 245.165C182.675 245.234 182.756 245.307 182.843 245.383C183.012 245.534 183.186 245.668 183.356 245.786C183.7 246.024 184.035 246.199 184.325 246.326C184.908 246.581 185.304 246.663 185.293 246.72Z" fill="#0C2B34"/>
<path d="M185.137 246.853C185.098 246.865 184.948 246.458 185.011 245.766C185.044 245.423 185.139 245.015 185.332 244.595C185.43 244.386 185.552 244.175 185.701 243.971C185.857 243.774 186.051 243.506 186.46 243.512C186.672 243.533 186.822 243.723 186.86 243.875C186.908 244.032 186.903 244.159 186.91 244.288C186.912 244.547 186.869 244.795 186.802 245.02C186.667 245.474 186.425 245.834 186.182 246.083C185.683 246.59 185.232 246.66 185.229 246.623C185.202 246.565 185.594 246.408 185.991 245.909C186.187 245.665 186.379 245.331 186.479 244.932C186.53 244.735 186.558 244.521 186.553 244.302C186.553 244.066 186.496 243.87 186.408 243.882C186.303 243.866 186.098 244.017 185.983 244.188C185.846 244.369 185.73 244.556 185.633 244.743C185.442 245.118 185.329 245.485 185.266 245.8C185.144 246.434 185.195 246.845 185.137 246.853Z" fill="#0C2B34"/>
<path d="M170.994 144.454C171.607 145.717 185.06 197.121 185.06 197.121L187.945 244.249L174.085 242.534L166.501 200.982L156.589 166.978L150.396 147.723L170.994 144.454Z" fill="#0C2B34"/>
<path d="M170.994 144.454C171.607 145.717 185.06 197.121 185.06 197.121L187.945 244.249L174.085 242.534L166.501 200.982L156.589 166.978L150.396 147.723L170.994 144.454Z" stroke="#345862" stroke-width="2" stroke-miterlimit="10"/>
<path d="M128.083 245.638L127.924 245.993L124.543 253.514L121.211 259.482L134.481 269.613L141.076 268.857C141.076 268.857 140.374 266.11 136.462 265.244L132.661 258.019L136.755 248.722L128.083 245.638Z" fill="#EE9992"/>
<path d="M140.748 269.81L134.483 269.613L121.214 259.482L121.923 258.213L134.315 267.86L140.669 268.569L140.748 269.81Z" fill="#0C2B34"/>
<path d="M134.777 261.904C134.759 262.009 134.208 261.963 133.638 262.255C133.061 262.53 132.766 262.995 132.671 262.945C132.573 262.921 132.772 262.263 133.471 261.921C134.167 261.573 134.816 261.812 134.777 261.904Z" fill="#0C2B34"/>
<path d="M133.776 260.141C133.727 260.231 133.177 259.939 132.524 260.103C131.869 260.261 131.531 260.773 131.444 260.717C131.402 260.695 131.426 260.526 131.578 260.309C131.727 260.094 132.024 259.843 132.429 259.743C132.832 259.643 133.218 259.726 133.455 259.845C133.697 259.965 133.802 260.102 133.776 260.141Z" fill="#0C2B34"/>
<path d="M132.687 257.78C132.626 257.861 132.157 257.541 131.548 257.605C130.937 257.661 130.556 258.064 130.478 257.997C130.439 257.968 130.482 257.816 130.65 257.639C130.814 257.463 131.119 257.274 131.503 257.236C131.888 257.199 132.231 257.324 132.433 257.464C132.64 257.604 132.718 257.745 132.687 257.78Z" fill="#0C2B34"/>
<path d="M133.808 255.015C133.734 255.09 133.314 254.755 132.701 254.669C132.091 254.565 131.603 254.758 131.551 254.664C131.483 254.588 131.998 254.182 132.748 254.303C133.498 254.416 133.892 254.963 133.808 255.015Z" fill="#0C2B34"/>
<path d="M134.017 252.983C133.991 253.026 133.596 252.836 132.978 252.494C132.624 252.291 132.267 252.085 131.901 251.875C131.707 251.748 131.481 251.663 131.256 251.423C131.148 251.299 131.068 251.128 131.076 250.937C131.073 250.739 131.234 250.536 131.409 250.481C131.758 250.374 132.023 250.459 132.285 250.519C132.546 250.593 132.785 250.704 132.996 250.834C133.419 251.095 133.723 251.436 133.923 251.75C134.324 252.392 134.294 252.879 134.26 252.875C134.196 252.889 134.129 252.44 133.712 251.897C133.506 251.63 133.213 251.344 132.83 251.127C132.639 251.02 132.428 250.93 132.202 250.87C131.982 250.815 131.707 250.77 131.547 250.828C131.472 250.86 131.446 250.897 131.44 250.965C131.436 251.036 131.467 251.123 131.526 251.191C131.645 251.334 131.88 251.455 132.072 251.585C132.424 251.818 132.768 252.045 133.109 252.271C133.694 252.67 134.043 252.939 134.017 252.983Z" fill="#0C2B34"/>
<path d="M134.393 253.083C134.357 253.097 134.19 252.682 134.371 252.029C134.553 251.407 135.189 250.532 136.384 250.566C136.482 250.594 136.589 250.676 136.633 250.784C136.68 250.892 136.674 250.991 136.66 251.069C136.63 251.23 136.56 251.335 136.51 251.437C136.396 251.644 136.268 251.831 136.132 251.997C135.86 252.33 135.559 252.576 135.287 252.746C134.738 253.086 134.333 253.138 134.322 253.098C134.301 253.041 134.662 252.901 135.135 252.529C135.37 252.344 135.631 252.097 135.866 251.781C135.983 251.623 136.094 251.449 136.192 251.259C136.241 251.16 136.292 251.067 136.302 250.995C136.305 250.91 136.305 250.934 136.284 250.92C136.246 250.903 136.13 250.92 136.028 250.941C135.925 250.962 135.824 250.991 135.729 251.029C135.538 251.103 135.366 251.204 135.218 251.32C134.919 251.554 134.729 251.852 134.616 252.123C134.393 252.675 134.453 253.08 134.393 253.083Z" fill="#0C2B34"/>
<path d="M126.71 257.682C126.676 257.704 126.64 257.724 126.603 257.742C126.115 257.975 125.521 257.759 125.278 257.258C125.053 256.795 125.206 256.253 125.616 255.989C125.65 255.967 125.685 255.947 125.723 255.929C126.211 255.696 126.805 255.912 127.048 256.412C127.272 256.875 127.12 257.418 126.71 257.682Z" fill="#EFE8E4"/>
<path d="M166.45 148.972L161.206 196.084C160.585 202.506 159.072 206.766 156.726 212.392L139.444 251.627L124.318 245.596L138.713 201.566L141.583 153.009L166.45 148.972Z" fill="#0C2B34"/>
<path d="M166.45 148.972L161.206 196.084C160.585 202.506 159.072 206.766 156.726 212.392L139.444 251.627L124.318 245.596L138.713 201.566L141.583 153.009L166.45 148.972Z" stroke="#345862" stroke-width="2" stroke-miterlimit="10"/>
<path d="M169.091 96.0792L176.413 131.956L174.614 142.296L171.45 144.824L172.18 138.251C171.054 138.629 170.243 135.759 169.094 135.471C166.867 134.911 169.813 126.831 169.094 124.512L160.153 99.6827C159.339 97.4211 157.64 92.7712 159.313 91.1341L157.646 89.2759C160.414 86.5656 167.33 91.7511 169.091 96.0792Z" fill="#EE9E97"/>
<path d="M178.071 170.821C177.179 170.777 176.298 170.501 175.519 170.042C175.096 169.792 174.703 169.488 174.355 169.137C172.178 166.948 171.922 163.491 171.799 160.359C171.617 155.673 171.434 150.988 171.25 146.302L174.172 145.912C174.782 145.559 175.458 145.421 176.14 145.455C177.5 145.524 178.88 146.275 179.79 147.36C181.154 148.987 181.69 151.168 182.093 153.279C182.765 156.795 183.184 160.363 183.344 163.944C183.369 164.504 183.387 165.073 183.359 165.635C183.323 166.335 183.217 167.024 182.966 167.675C182.332 169.319 180.767 170.518 179.066 170.773C178.736 170.823 178.403 170.838 178.071 170.821Z" fill="#F5C086"/>
<path d="M179.08 170.224C178.863 169.991 178.7 169.625 178.614 169.17C178.528 168.715 178.488 168.171 178.414 167.578C178.14 165.202 177.737 161.923 177.271 158.306C176.806 154.685 176.365 151.412 176.029 149.044C175.861 147.911 175.721 146.969 175.614 146.244C175.508 145.583 175.438 145.22 175.414 145.224C175.391 145.227 175.415 145.596 175.481 146.262C175.56 146.992 175.663 147.938 175.787 149.078C176.062 151.454 176.464 154.733 176.93 158.353C177.395 161.972 177.836 165.244 178.172 167.611C178.262 168.204 178.318 168.738 178.425 169.214C178.533 169.686 178.732 170.083 178.983 170.321C179.498 170.816 179.954 170.689 179.928 170.678C179.944 170.643 179.519 170.708 179.08 170.224Z" fill="#18363E"/>
<path d="M179.696 169.505C179.658 169.414 179.43 169.427 179.169 169.449C178.908 169.476 178.683 169.507 178.662 169.605C178.639 169.698 178.88 169.834 179.2 169.803C179.521 169.773 179.734 169.593 179.696 169.505Z" fill="#18363E"/>
<path d="M179.569 154.992C178.04 155.276 176.79 155.455 176.797 155.556C176.804 155.65 178.081 155.628 179.629 155.34C181.176 155.057 182.383 154.619 182.357 154.53C182.331 154.432 181.098 154.711 179.569 154.992Z" fill="#18363E"/>
<path d="M180.61 161.832C179.06 162.048 177.781 162.113 177.782 162.221C177.783 162.308 179.072 162.403 180.656 162.183C182.238 161.951 183.456 161.499 183.432 161.414C183.406 161.31 182.158 161.605 180.61 161.832Z" fill="#18363E"/>
<path d="M176.228 145.46L166.394 90.8173L165.65 90.309L167.863 109.793L173.851 146.321L176.228 145.46Z" fill="#18363E"/>
<path d="M139.853 153.181C139.349 148.595 139.168 130.761 139.168 130.761C138.539 122.453 138.234 113.387 137.753 107.352C137.301 101.671 135.139 95.3749 137.747 93.6994C147.089 87.6987 150.199 87.9327 150.199 87.9327L155.209 88.0008C161.184 88.4625 165.602 92.6122 166.488 98.2912L177.752 151.235L139.853 153.181Z" fill="#EE9E97"/>
<path d="M165.932 91.0534C165.932 148.039 139.744 151.919 139.744 151.919L139.588 149.085C165.809 138.777 162.994 89.203 162.994 89.203C162.994 89.203 165.932 89.6736 165.932 91.0534Z" fill="#3E606A"/>
<path d="M147.226 156.438L140.601 162.955C139.524 164.015 137.801 163.967 136.754 162.849L132.718 158.542C131.671 157.424 131.694 155.659 132.771 154.598L139.397 148.081L147.226 156.438Z" fill="#18363E"/>
<path d="M147.226 156.438L140.601 162.955C139.524 164.015 137.801 163.967 136.754 162.849L132.718 158.542C131.671 157.424 131.694 155.659 132.771 154.598L139.397 148.081L147.226 156.438Z" stroke="#3E606A" stroke-miterlimit="10"/>
<path d="M137.616 162.036L133.651 166.385L130.177 163.048L134.142 158.701L137.616 162.036Z" fill="#18363E"/>
<path d="M135.25 165.883L132.96 168.393L128.272 163.892L130.562 161.38C131.024 160.874 131.805 160.853 132.304 161.333L135.181 164.095C135.681 164.576 135.712 165.376 135.25 165.883Z" fill="#18363E"/>
<path d="M132.835 154.552L132.652 154.405C131.954 153.843 131.909 152.778 132.558 152.174L134.501 150.365C134.792 150.095 135.233 150.086 135.539 150.343L136.381 151.048L132.835 154.552Z" fill="#18363E"/>
<path d="M133.242 168.371L132.754 168.907L127.741 164.093L128.229 163.558L133.242 168.371Z" fill="#18363E"/>
<path d="M133.125 168.239C133.107 168.261 132.806 168.041 132.341 167.656C131.876 167.27 131.25 166.716 130.585 166.074C129.921 165.431 129.345 164.824 128.942 164.37C128.538 163.918 128.307 163.621 128.327 163.601C128.348 163.582 128.617 163.84 129.046 164.266C129.603 164.814 130.14 165.344 130.726 165.921C131.321 166.485 131.869 167.005 132.435 167.543C132.875 167.956 133.144 168.216 133.125 168.239Z" fill="#3E606A"/>
<path d="M135.541 164.495C135.49 164.533 134.831 163.636 133.862 162.682C132.897 161.722 131.999 161.079 132.034 161.025C132.059 160.979 133.023 161.554 134.004 162.53C134.991 163.501 135.585 164.467 135.541 164.495Z" fill="#3E606A"/>
<path d="M136.165 158.757C136.206 158.797 135.599 159.503 134.808 160.334C134.016 161.165 133.343 161.802 133.304 161.759C133.266 161.715 133.873 161.009 134.662 160.181C135.45 159.354 136.123 158.716 136.165 158.757Z" fill="#3E606A"/>
<path d="M137.125 159.551C137.166 159.592 136.52 160.323 135.682 161.184C134.843 162.045 134.133 162.707 134.094 162.664C134.055 162.619 134.701 161.888 135.537 161.029C136.372 160.172 137.083 159.509 137.125 159.551Z" fill="#3E606A"/>
<path d="M137.607 161.054C137.647 161.096 137.09 161.732 136.364 162.473C135.636 163.215 135.014 163.782 134.973 163.74C134.932 163.698 135.489 163.063 136.216 162.321C136.943 161.58 137.566 161.013 137.607 161.054Z" fill="#3E606A"/>
<path d="M137.38 162.484C137.342 162.465 137.573 162.124 137.63 161.492C137.695 160.881 137.519 159.932 136.818 159.283C136.107 158.647 135.168 158.583 134.585 158.723C133.981 158.858 133.679 159.135 133.657 159.098C133.65 159.089 133.716 159.013 133.86 158.904C134.004 158.796 134.236 158.667 134.548 158.578C135.154 158.392 136.17 158.426 136.955 159.126C137.726 159.841 137.882 160.872 137.775 161.512C137.726 161.84 137.63 162.093 137.542 162.253C137.455 162.414 137.39 162.49 137.38 162.484Z" fill="#3E606A"/>
<path d="M132.668 152.805C132.662 152.872 133.284 153.585 133.284 153.585L135.283 151.603L134.665 150.903L132.668 152.805Z" fill="white"/>
<path d="M143.928 159.44C143.941 159.437 143.823 159.642 143.469 159.654C143.108 159.686 142.673 159.357 142.279 158.932C141.375 157.996 140.275 156.858 139.06 155.601C138.738 155.284 138.461 154.926 138.152 154.67C137.837 154.398 137.466 154.343 137.105 154.465C136.748 154.584 136.332 154.637 135.987 154.524C135.639 154.421 135.351 154.219 135.153 153.979C134.754 153.482 134.746 152.926 134.811 152.603C134.844 152.435 134.894 152.313 134.934 152.234C134.975 152.157 135.003 152.12 135.009 152.123C135.027 152.132 134.931 152.293 134.891 152.617C134.852 152.928 134.889 153.447 135.263 153.881C135.632 154.314 136.341 154.572 137.054 154.276C137.24 154.224 137.455 154.176 137.677 154.217C137.898 154.254 138.1 154.369 138.274 154.505C138.621 154.792 138.889 155.142 139.212 155.457C140.408 156.729 141.49 157.878 142.38 158.824C142.77 159.269 143.145 159.576 143.469 159.572C143.787 159.586 143.919 159.42 143.928 159.44Z" fill="#3E606A"/>
<path d="M189.447 115.33L186.646 133.178L196.164 133.732L198.526 115.891L189.447 115.33Z" fill="#152E3F"/>
<path d="M188.114 122.571L188.404 124.723L196.217 122.907C196.217 122.907 196.836 125.31 196.301 126.217C196.301 126.217 197.393 127.473 196.797 128.48C196.203 129.488 195.661 129.371 195.661 129.371C195.661 129.371 196.394 130.892 195.696 131.499C194.998 132.105 184.45 134.16 184.45 134.16L183.366 127.308L185.635 126.503C185.839 124.141 186.979 122.939 188.114 122.571Z" fill="#EB996D"/>
<path d="M143.281 95.827C139.382 93.4989 137.668 93.6582 137.744 93.6999C135.379 95.4012 132.675 98.7783 132.931 105.277C133.197 112.004 135.395 124.989 137.148 134.475C138.298 140.705 144.288 144.667 150.278 143.161L184.511 134.553L183.255 126.703L152.015 127.168L148.741 104.418C148.741 104.418 146.618 97.8196 143.281 95.827Z" fill="#EE9E97"/>
<path d="M143.281 95.827C139.382 93.4989 137.668 93.6582 137.744 93.6999C135.379 95.4012 132.675 98.7783 132.931 105.277C133.197 112.004 135.395 124.989 137.148 134.475C138.298 140.705 144.288 144.667 150.278 143.161L184.511 134.553L183.255 126.703L152.015 127.168L148.741 104.418C148.741 104.418 146.618 97.8196 143.281 95.827Z" stroke="black" stroke-width="0.5" stroke-miterlimit="10"/>
<path d="M144.138 68.6801C144.21 69.5432 143.52 70.3003 142.749 70.651C141.979 71.0023 141.118 71.0683 140.306 71.2963C139.493 71.5237 138.66 71.9875 138.357 72.7954C138.126 73.4135 138.271 74.1623 138.716 74.6408C139.161 75.1193 139.882 75.3026 140.492 75.0929C139.509 75.7064 139.231 77.25 139.937 78.1848C140.643 79.1196 142.167 79.2251 142.987 78.3966C141.983 79.7384 142.595 81.9122 144.023 82.7549C145.451 83.5971 147.362 83.2231 148.623 82.1346C149.885 81.0462 150.562 79.3736 150.794 77.6969C151.027 76.0202 150.859 74.3155 150.691 72.6299L144.138 68.6801Z" fill="#EDAC4A"/>
<path d="M159.668 83.7528C160.287 84.4744 161.355 84.7455 162.23 84.4031C163.105 84.0608 163.727 83.1273 163.723 82.164C164.798 82.8393 166.339 82.569 167.136 81.567C167.932 80.5641 167.883 78.9576 167.026 78.0092C167.7 78.4251 168.651 77.9589 168.96 77.2148C169.269 76.4708 169.063 75.5918 168.655 74.9003C168.248 74.2085 165.037 72.7165 165.037 70.4515C165.037 65.4643 164.388 65.9061 164.097 62.0244" fill="#EDAC4A"/>
<path d="M144.385 66.3355L145.95 89.143C146.206 92.8666 149.217 95.7532 152.847 95.7532C156.843 95.7532 160.009 92.2777 159.746 88.1769C159.607 86.0053 159.482 84.2277 159.482 84.2277C159.482 84.2277 164.85 83.3694 164.917 77.8491C164.954 74.6603 164.42 67.4254 163.962 61.8819C163.653 58.1343 160.602 55.2579 156.946 55.2579H153.703C148.119 55.5936 143.905 60.6027 144.385 66.3355Z" fill="#FFBD9D"/>
<path d="M159.492 84.1485C159.492 84.1485 156.1 84.4323 152.494 82.1034C152.494 82.1034 154.148 86.0763 159.504 85.5786L159.492 84.1485Z" fill="#EB996D"/>
<path d="M162.756 68.9759C162.77 69.3926 162.44 69.7479 162.017 69.771C161.595 69.7941 161.241 69.477 161.227 69.0603C161.212 68.6436 161.543 68.2884 161.965 68.2646C162.387 68.2415 162.742 68.5593 162.756 68.9759Z" fill="#0C2B34"/>
<path d="M163.036 67.4178C162.94 67.5207 162.359 67.0788 161.534 67.0815C160.71 67.0713 160.106 67.5076 160.016 67.4035C159.972 67.3578 160.068 67.1721 160.333 66.9747C160.592 66.7787 161.034 66.5872 161.548 66.5893C162.062 66.592 162.494 66.7867 162.743 66.9855C162.996 67.1856 163.082 67.3722 163.036 67.4178Z" fill="#0C2B34"/>
<path d="M155.009 68.9759C155.023 69.3926 154.692 69.7479 154.269 69.771C153.848 69.7941 153.494 69.477 153.479 69.0603C153.465 68.6436 153.796 68.2884 154.218 68.2646C154.64 68.2415 154.994 68.5593 155.009 68.9759Z" fill="#0C2B34"/>
<path d="M154.93 67.5765C154.835 67.6794 154.254 67.2373 153.429 67.2394C152.606 67.2292 152 67.6657 151.911 67.5622C151.866 67.5159 151.962 67.3306 152.227 67.1332C152.487 66.9364 152.929 66.7452 153.443 66.7473C153.957 66.7507 154.389 66.9447 154.638 67.1442C154.891 67.3443 154.977 67.5303 154.93 67.5765Z" fill="#0C2B34"/>
<path d="M157.921 73.8679C157.917 73.8196 158.43 73.7284 159.261 73.6195C159.472 73.597 159.671 73.5535 159.707 73.4059C159.756 73.2493 159.668 73.0158 159.566 72.7639C159.368 72.2397 159.161 71.6904 158.943 71.1144C158.078 68.7657 157.452 66.8343 157.544 66.7996C157.636 66.7642 158.413 68.6397 159.277 70.9884C159.486 71.5678 159.684 72.1192 159.874 72.6481C159.954 72.8938 160.091 73.173 159.983 73.4977C159.927 73.6597 159.772 73.7774 159.637 73.8148C159.502 73.8571 159.383 73.8598 159.279 73.8659C158.443 73.9121 157.924 73.9162 157.921 73.8679Z" fill="#0C2B34"/>
<path d="M155.495 74.4548C155.629 74.4467 155.631 75.3679 156.398 76.0214C157.162 76.6769 158.117 76.5734 158.123 76.7021C158.137 76.76 157.912 76.881 157.508 76.8926C157.113 76.9062 156.536 76.7756 156.068 76.376C155.6 75.9751 155.399 75.44 155.368 75.0622C155.334 74.6776 155.434 74.4494 155.495 74.4548Z" fill="#0C2B34"/>
<path d="M155.141 64.2516C155.06 64.4823 154.236 64.3736 153.269 64.4934C152.299 64.5927 151.518 64.8848 151.39 64.6779C151.332 64.5785 151.469 64.3611 151.784 64.1379C152.097 63.9153 152.596 63.7035 153.177 63.6369C153.757 63.5715 154.29 63.6663 154.642 63.8139C154.997 63.9609 155.176 64.1421 155.141 64.2516Z" fill="#0C2B34"/>
<path d="M162.732 64.9628C162.587 65.1548 162.019 64.9555 161.336 64.946C160.652 64.912 160.074 65.0753 159.941 64.8737C159.882 64.7763 159.974 64.583 160.226 64.4006C160.476 64.2188 160.892 64.0703 161.362 64.0847C161.831 64.1003 162.238 64.2752 162.475 64.472C162.717 64.6701 162.797 64.8689 162.732 64.9628Z" fill="#0C2B34"/>
<path d="M146.194 70.4785C146.103 70.4376 142.506 69.3567 142.624 73.1308C142.741 76.9048 146.401 76.0057 146.403 75.8974C146.407 75.7891 146.194 70.4785 146.194 70.4785Z" fill="#FFBD9D"/>
<path d="M145.238 74.5038C145.221 74.4921 145.176 74.5521 145.069 74.6064C144.965 74.6595 144.785 74.6999 144.591 74.6325C144.199 74.499 143.853 73.8768 143.814 73.1967C143.794 72.8535 143.854 72.5241 143.964 72.2498C144.068 71.97 144.235 71.7713 144.429 71.729C144.622 71.6765 144.764 71.7923 144.812 71.8971C144.864 72.0012 144.843 72.0768 144.863 72.0828C144.873 72.0918 144.94 72.0168 144.906 71.8623C144.888 71.7873 144.842 71.7005 144.754 71.6303C144.664 71.5595 144.533 71.526 144.397 71.5458C144.115 71.5751 143.868 71.8515 143.748 72.153C143.612 72.4566 143.536 72.8271 143.559 73.2123C143.606 73.9719 144.006 74.6712 144.541 74.8113C144.802 74.8719 145.015 74.7849 145.123 74.6922C145.234 74.5956 145.251 74.5106 145.238 74.5038Z" fill="#EB996D"/>
<path d="M144.155 70.3506C144.714 70.2117 145.683 70.7429 145.922 71.282C146.16 71.8205 146.212 72.4317 146.451 72.9708C146.688 73.51 147.226 73.9983 147.786 73.8621C148.173 73.7675 148.449 73.395 148.551 73.0002C148.653 72.6054 148.611 72.1887 148.562 71.7831C148.346 70.0205 147.985 68.273 147.917 66.4976C147.848 64.7222 148.093 62.878 149 61.366C149.906 59.8534 151.571 58.7408 153.292 58.8839C154.433 58.9784 155.479 59.5898 156.612 59.7532C157.956 59.9465 159.376 59.4592 160.337 58.4741C160.459 58.3481 161.033 57.9601 161.033 57.9601C161.033 57.8683 160.949 57.0801 160.647 56.7928C158.399 54.6552 154.348 54.058 151.38 54.8266C148.41 55.5952 145.627 57.7513 144.35 60.6131C143.072 63.4751 143.451 67.4547 144.155 70.3506Z" fill="#EDAC4A"/>
<path d="M151.923 61.3427C152.421 62.1698 153.309 62.7342 154.251 62.8227C155.192 62.9105 156.165 62.5199 156.799 61.799C157.077 62.5124 157.823 63.0026 158.57 62.9624C159.316 62.9222 160.009 62.3546 160.213 61.6145C160.622 62.023 161.047 62.4422 161.583 62.6438C162.117 62.8454 162.796 62.7691 163.147 62.3075C163.505 61.8377 163.401 61.1216 163.049 60.6464C162.699 60.1706 162.159 59.888 161.622 59.6579C159.95 58.9397 158.106 58.5788 156.309 58.8293C154.512 59.0792 152.773 59.975 151.65 61.4387L151.923 61.3427Z" fill="#EDAC4A"/>
<path d="M143.848 69.1086C143.848 69.1086 143.847 69.1074 143.847 69.1053C143.83 69.0474 143.619 68.3121 143.404 67.3809C143.173 66.3774 142.938 65.1467 142.938 64.2923C142.938 63.1697 143.591 56.4835 150.279 54.3805C150.279 54.3805 152.078 53.6746 154.433 53.6746C157.65 53.6746 161.904 54.9931 164.021 61.2383C164.021 61.2383 162.418 59.278 159.544 59.1472C159.46 59.1431 159.375 59.1401 159.289 59.1389C158.687 59.0219 158.077 58.9586 157.468 58.9586C157.08 58.9586 156.693 58.9837 156.308 59.0375C154.977 59.2226 153.678 59.7617 152.637 60.6236C150.157 61.7285 147.628 63.5135 145.626 66.1862C144.981 67.0371 144.384 68.0064 143.848 69.1086Z" fill="#3F3F3F"/>
<path d="M144.438 67.6421C146.526 64.3561 149.405 61.6393 152.642 59.5603C155.878 57.4798 161.23 55.4232 164.92 54.4158C166.027 54.1143 167.182 53.8494 168.311 54.0501C169.44 54.2509 170.545 55.0236 170.825 56.1666C171.176 57.597 168.708 59.8039 167.547 60.6718C166.388 61.5397 164.022 62.8129 164.022 62.8129C164.022 62.8129 164.054 60.16 159.926 59.6134C154.31 58.8687 144.438 67.6421 144.438 67.6421Z" fill="#595959"/>
</svg>
