<svg width="595" height="451" viewBox="0 0 595 451" fill="none" xmlns="http://www.w3.org/2000/svg">
<path d="M298.306 0C422.652 0 523.612 100.96 523.612 225.306C523.612 349.652 422.652 450.612 298.306 450.612C173.96 450.612 73 349.652 73 225.306C73 100.96 173.96 0 298.306 0Z" fill="#3497A2"/>
<path d="M591.012 234.681L485.675 230.48C485.689 230.336 485.702 230.191 485.712 230.027C485.717 229.961 485.723 229.888 485.728 229.828C485.732 229.718 485.736 229.589 485.74 229.46C485.743 229.384 485.746 229.315 485.749 229.254V229.252C485.751 229.173 485.752 229.092 485.752 229.013L485.755 227.964L485.755 227.832V227.796L485.754 227.743V227.696L485.752 227.624C485.752 227.642 485.753 227.665 485.753 227.685L485.743 227.444C485.741 227.367 485.738 227.292 485.734 227.218L485.721 226.895C485.708 226.707 485.684 226.482 485.661 226.271C485.657 226.231 485.653 226.189 485.648 226.15C485.644 226.111 485.639 226.064 485.635 226.029L485.627 225.975C485.625 225.957 485.622 225.934 485.621 225.916L485.607 225.831C485.509 225.117 485.379 224.537 485.26 224.112C485.227 223.994 485.185 223.848 485.139 223.689C485.117 223.613 485.093 223.539 485.07 223.464C485.055 223.415 485.042 223.371 485.025 223.32L485.025 223.317L485.024 223.317C485.019 223.299 485.013 223.281 485.007 223.264L484.942 223.069L484.926 223.03C484.867 222.859 484.801 222.683 484.727 222.498C484.671 222.353 484.611 222.213 484.55 222.072C484.462 221.873 484.376 221.68 484.296 221.511L484.265 221.442C484.25 221.413 484.232 221.379 484.216 221.349C484.168 221.251 484.121 221.153 484.071 221.058C483.88 220.687 483.716 220.406 483.594 220.214C483.584 220.199 483.572 220.18 483.562 220.164C483.513 220.083 483.46 220.007 483.409 219.928C483.357 219.847 483.302 219.765 483.247 219.681L483.06 219.395C483.035 219.362 483.005 219.323 482.98 219.288C482.833 219.079 482.686 218.875 482.548 218.702C482.349 218.454 482.113 218.171 481.868 217.892C481.851 217.871 481.832 217.848 481.816 217.828L481.779 217.789C481.52 217.498 481.254 217.216 481.011 216.988C480.81 216.8 480.58 216.591 480.343 216.38C480.294 216.335 480.239 216.287 480.192 216.244C480.098 216.163 480.006 216.084 479.912 216.004C479.899 215.993 479.885 215.981 479.872 215.971C479.735 215.853 479.599 215.742 479.466 215.635C478.573 214.848 477.531 214.103 476.336 213.413C438.851 191.731 401.367 170.049 363.883 148.369C357.203 144.504 347.599 143.394 339.236 145.01L272.23 68.77C269.764 65.9641 265.662 65.2963 262.436 67.175L34.1721 200.068C29.9129 202.549 28.9775 208.31 32.2335 212.014L105.877 295.798C106.604 296.625 107.476 297.262 108.423 297.707C108.888 298.299 109.441 298.914 110.205 299.628C110.619 300.013 111.189 300.511 111.645 300.844C112.027 301.124 112.484 301.436 112.944 301.74C113.419 302.058 113.848 302.327 114.193 302.542L226.647 367.585C226.773 367.657 226.911 367.734 227.056 367.812C227.185 367.883 227.315 367.955 227.444 368.023C227.462 368.033 227.482 368.042 227.501 368.053C227.709 368.162 227.916 368.269 228.122 368.371C228.2 368.411 228.282 368.454 228.353 368.492L228.603 368.604C228.952 368.77 229.294 368.923 229.63 369.067L229.924 369.2C230.112 369.277 230.325 369.36 230.543 369.444C230.856 369.566 231.159 369.68 231.453 369.785C231.536 369.817 231.623 369.848 231.7 369.878L231.842 369.923C232.376 370.106 232.871 370.262 233.321 370.394L233.432 370.429C233.537 370.46 233.654 370.491 233.771 370.522C234.297 370.671 234.739 370.781 235.08 370.863C235.126 370.875 235.174 370.887 235.221 370.898C235.239 370.903 235.26 370.908 235.277 370.912C235.319 370.922 235.365 370.931 235.409 370.941C239.913 372.009 245.031 372.368 250.244 371.658L362.014 376.114C362.801 376.145 363.581 375.952 364.263 375.555L489.513 302.635L489.593 302.638L501.818 295.52L501.737 295.517L544.417 270.669L544.577 270.675L556.802 263.559L556.641 263.553L592.931 242.425C596.519 240.336 595.159 234.846 591.012 234.681Z" fill="#155960"/>
<path d="M441.82 196.333L213.151 329.463C209.563 331.552 210.923 337.042 215.07 337.207L317.174 341.878C317.961 341.91 318.741 341.716 319.422 341.319L548.091 208.189C551.679 206.099 550.32 200.61 546.172 200.444L444.069 195.774C443.281 195.742 442.501 195.937 441.82 196.333Z" fill="#EFF2F4"/>
<path d="M232.154 34.1783L3.89039 167.072C-0.369649 169.552 -1.305 175.313 1.95174 179.018L74.6252 261.504C77.0908 264.31 81.1915 264.977 84.4181 263.1L312.677 130.209C316.936 127.729 317.871 121.967 314.616 118.263L241.949 35.7741C239.482 32.9682 235.38 32.2997 232.154 34.1783Z" fill="#EFF2F4"/>
<path d="M391.17 299.547L403.393 292.43L285.222 287.504L272.998 294.621L391.17 299.547Z" fill="white"/>
<path d="M444.754 268.401L456.977 261.284L338.806 256.358L326.582 263.475L444.754 268.401Z" fill="white"/>
<path d="M72.0003 128.772L146.019 213.994C146.766 214.855 147.815 215.296 148.87 215.296C149.748 215.296 150.629 214.99 151.344 214.369C152.918 213 153.086 210.611 151.719 209.035L77.8661 124.004L71.3949 127.771C71.5451 128.125 71.7354 128.467 72.0003 128.772Z" fill="white"/>
<path d="M125.584 97.6258L199.603 182.847C200.349 183.708 201.399 184.149 202.454 184.149C203.331 184.149 204.213 183.844 204.928 183.223C206.502 181.854 206.67 179.465 205.303 177.888L131.45 92.8573L124.979 96.6244C125.129 96.9784 125.319 97.3203 125.584 97.6258Z" fill="white"/>
<path d="M499.737 236.439L511.961 229.322L393.789 224.396L381.566 231.513L499.737 236.439Z" fill="white"/>
<path d="M180.568 65.6638L254.587 150.885C255.333 151.746 256.383 152.187 257.438 152.187C258.315 152.187 259.197 151.882 259.912 151.261C261.486 149.892 261.654 147.503 260.287 145.927L186.434 60.8953L179.963 64.6625C180.113 65.0164 180.303 65.3583 180.568 65.6638Z" fill="white"/>
<path d="M25.1317 205.389L268.289 65.744L263.198 59.9515L20.0397 199.597L25.1317 205.389Z" fill="white"/>
<path d="M454.504 193.54V193.412L454.503 193.403L454.501 193.33C454.501 193.348 454.502 193.372 454.503 193.391L454.491 193.151C454.488 193.074 454.486 192.999 454.483 192.925L454.47 192.601C454.456 192.413 454.432 192.189 454.409 191.977C454.405 191.937 454.402 191.898 454.397 191.858C454.393 191.818 454.389 191.771 454.385 191.735L454.376 191.681C454.374 191.663 454.371 191.641 454.37 191.624L454.356 191.538C454.258 190.824 454.128 190.243 454.01 189.818C453.977 189.7 453.935 189.555 453.887 189.396C453.866 189.321 453.842 189.245 453.819 189.17C453.804 189.121 453.792 189.079 453.774 189.027L453.773 189.024V189.023C453.768 189.006 453.762 188.988 453.756 188.971L453.69 188.778L453.675 188.737C453.616 188.567 453.55 188.39 453.477 188.205C453.419 188.061 453.359 187.919 453.299 187.779C453.211 187.58 453.126 187.387 453.045 187.218L453.013 187.149C452.999 187.12 452.981 187.086 452.966 187.055C452.917 186.958 452.871 186.86 452.82 186.765C452.629 186.395 452.465 186.113 452.343 185.922C452.332 185.906 452.321 185.887 452.311 185.871C452.261 185.791 452.209 185.714 452.158 185.635C452.105 185.554 452.051 185.473 451.995 185.389L451.808 185.103C451.783 185.069 451.753 185.03 451.728 184.996C451.581 184.786 451.435 184.581 451.297 184.409C451.098 184.161 450.862 183.878 450.616 183.599C450.6 183.578 450.581 183.555 450.564 183.535L450.527 183.496C450.268 183.205 450.003 182.923 449.76 182.696C449.559 182.508 449.328 182.298 449.091 182.086C449.042 182.041 448.988 181.993 448.941 181.951C448.848 181.869 448.755 181.792 448.661 181.712C448.648 181.701 448.634 181.689 448.621 181.678C448.387 181.48 448.156 181.289 447.943 181.13C447.909 181.104 447.867 181.075 447.831 181.049C447.581 180.861 447.326 180.679 447.057 180.498C446.969 180.436 446.884 180.375 446.787 180.305C446.815 180.323 446.845 180.343 446.872 180.36L446.774 180.296C446.764 180.288 446.756 180.284 446.746 180.277C446.733 180.269 446.718 180.259 446.706 180.25L446.415 180.061C446.137 179.884 445.767 179.664 445.478 179.49C445.833 179.709 446.276 179.976 446.654 180.219C446.284 179.99 445.829 179.707 445.472 179.486C445.472 179.486 445.475 179.488 445.478 179.49C445.471 179.485 445.463 179.481 445.456 179.478C445.454 179.476 445.45 179.474 445.448 179.472C445.444 179.47 445.44 179.466 445.435 179.464C445.438 179.465 445.441 179.468 445.444 179.47C445.406 179.448 445.367 179.428 445.327 179.411C445.339 179.419 445.352 179.428 445.365 179.436C445.324 179.416 445.282 179.393 445.238 179.38C445.235 179.378 445.232 179.378 445.229 179.378C445.226 179.377 445.225 179.376 445.222 179.375L445.226 179.378C445.222 179.376 445.217 179.377 445.213 179.375C445.206 179.373 445.2 179.37 445.193 179.368C445.182 179.366 445.172 179.366 445.161 179.364C445.15 179.362 445.139 179.357 445.128 179.356C445.125 179.355 445.123 179.352 445.12 179.352C445.122 179.353 445.125 179.356 445.125 179.356C445.119 179.355 445.112 179.357 445.106 179.356C445.09 179.353 445.076 179.35 445.06 179.348C445.046 179.347 445.032 179.341 445.018 179.341L445.02 179.342C445.001 179.341 444.979 179.344 444.959 179.344C444.945 179.344 444.932 179.34 444.917 179.34H444.914L444.915 179.341C444.898 179.342 444.88 179.348 444.862 179.35C444.856 179.35 444.848 179.351 444.84 179.352C444.828 179.354 444.816 179.35 444.803 179.352L444.807 179.354C444.775 179.36 444.742 179.367 444.709 179.375C444.699 179.378 444.69 179.375 444.68 179.378C444.682 179.379 444.683 179.38 444.686 179.381C444.653 179.39 444.622 179.401 444.588 179.413C444.567 179.42 444.547 179.422 444.526 179.431C444.529 179.432 444.531 179.435 444.534 179.437C444.467 179.463 444.402 179.487 444.334 179.527C444.628 179.697 444.914 179.87 445.19 180.047C445.8 180.437 446.361 180.843 446.881 181.262C447.086 181.427 447.286 181.593 447.477 181.761C448.29 182.479 448.975 183.231 449.538 184.006C450.447 185.485 451.406 187.457 451.421 189.694C451.348 192.044 450.265 194.384 448.159 196.472C448.136 196.494 448.116 196.515 448.094 196.536C447.981 196.647 447.859 196.755 447.741 196.865C446.975 197.553 446.06 198.244 444.99 198.933C444.808 199.047 444.628 199.16 444.44 199.27L230.555 323.793C230.105 324.055 229.63 324.293 229.154 324.53C227.872 325.148 226.24 325.823 224.296 326.407C220.287 327.569 215.837 328.044 211.462 327.822C207.675 327.575 203.47 326.736 198.923 324.987C198.097 324.62 197.293 324.23 196.536 323.793L84.0829 258.75C77.343 254.853 75.3998 249.219 78.2609 244.333C78.3055 244.259 78.3477 244.185 78.3945 244.113C78.4376 244.043 78.4836 243.973 78.5289 243.904C79.3737 242.636 80.5113 241.47 81.84 240.428C82.4862 239.934 83.1906 239.457 83.9667 239.006C83.9516 238.996 83.9364 238.993 83.9206 238.985C83.9221 238.983 83.9259 238.982 83.9259 238.982C83.9055 238.971 83.8858 238.967 83.8655 238.958C83.867 238.956 83.8708 238.954 83.8708 238.954C83.8511 238.944 83.8323 238.942 83.8119 238.933C83.8141 238.932 83.8172 238.93 83.8172 238.93C83.7975 238.92 83.7779 238.918 83.7583 238.91C83.7583 238.91 83.7613 238.908 83.7635 238.907C83.7432 238.899 83.7243 238.896 83.7054 238.889L83.7047 238.888L83.7084 238.885C83.6994 238.882 83.6911 238.882 83.682 238.879C83.6722 238.875 83.6624 238.871 83.6526 238.868C83.6488 238.866 83.6451 238.865 83.6405 238.865C83.6307 238.862 83.6224 238.861 83.6133 238.858C83.6073 238.856 83.6013 238.853 83.596 238.852L83.5944 238.851C83.5877 238.85 83.5809 238.849 83.5733 238.848C83.5605 238.845 83.5484 238.842 83.5356 238.84H83.5341L83.5363 238.838C83.5333 238.837 83.5318 238.839 83.5288 238.838C83.5182 238.836 83.5069 238.834 83.4963 238.833C83.488 238.831 83.4797 238.829 83.4722 238.828V238.827H83.4684C83.4639 238.827 83.4601 238.828 83.4556 238.827C83.4374 238.825 83.4186 238.824 83.4005 238.822L83.405 238.82C83.3989 238.82 83.3937 238.822 83.3876 238.822C83.3785 238.822 83.3687 238.82 83.3597 238.82C83.3521 238.819 83.3453 238.82 83.3378 238.82C83.3348 238.82 83.3325 238.818 83.3302 238.818H83.328C83.3227 238.818 83.3182 238.82 83.3136 238.82C83.3046 238.82 83.297 238.82 83.288 238.82C83.2804 238.82 83.2714 238.822 83.2631 238.822H83.2457H83.2472C83.2434 238.822 83.2396 238.823 83.2359 238.824C83.2261 238.825 83.217 238.827 83.2064 238.828C83.1996 238.829 83.1921 238.831 83.1853 238.832L83.1566 238.837C83.1521 238.837 83.1475 238.837 83.1438 238.838C83.1377 238.839 83.1317 238.842 83.1257 238.843C83.1174 238.845 83.109 238.846 83.1007 238.848L83.0879 238.85C83.0841 238.851 83.0811 238.852 83.0781 238.853L83.0735 238.853C83.0705 238.854 83.0675 238.856 83.0653 238.856C83.0622 238.857 83.0577 238.859 83.0539 238.859C83.0502 238.861 83.0464 238.862 83.0426 238.863C83.0396 238.864 83.0373 238.865 83.0351 238.865C83.0328 238.865 83.0298 238.868 83.0298 238.868C83.0215 238.87 83.0139 238.874 83.0056 238.877C83.0079 238.876 83.0101 238.874 83.0124 238.873C82.9513 238.894 82.8909 238.922 82.8335 238.955C82.6719 239.054 82.4961 239.162 82.3156 239.274C82.1375 239.384 81.9797 239.485 81.834 239.579C81.7313 239.644 81.6332 239.709 81.5328 239.775C81.5147 239.787 81.4942 239.8 81.4769 239.813C81.2172 239.985 80.9651 240.155 80.7499 240.317C80.5627 240.458 80.3611 240.618 80.155 240.786C79.9965 240.91 79.8266 241.044 79.6304 241.199L78.612 242.123C78.3485 242.363 77.8065 242.937 77.2629 243.604C77.2607 243.607 77.2599 243.609 77.2584 243.611L77.2456 243.625C76.9262 244.02 76.6061 244.446 76.3449 244.857C76.2377 245.024 76.0882 245.263 75.9191 245.55C75.8912 245.595 75.8618 245.642 75.8361 245.684L75.7848 245.782C75.6663 245.991 75.5409 246.226 75.4134 246.481L75.3839 246.537C75.3779 246.549 75.3711 246.568 75.3643 246.58C75.1129 247.092 74.863 247.682 74.6486 248.336L74.6237 248.403C74.6177 248.422 74.6124 248.445 74.6063 248.464C74.5928 248.506 74.5769 248.546 74.5641 248.589C74.5293 248.702 74.5067 248.79 74.4765 248.892C74.4757 248.895 74.4757 248.897 74.475 248.899C74.435 249.038 74.3942 249.182 74.3625 249.3C74.355 249.327 74.3444 249.361 74.3376 249.386L74.3149 249.487C74.2009 249.937 74.1443 250.235 74.1247 250.362C74.1126 250.442 74.1028 250.506 74.0922 250.577C74.0598 250.782 74.0281 250.988 74.0009 251.164L73.985 251.338C73.9594 251.541 73.9405 251.721 73.9277 251.904L73.9209 251.976L73.908 252.182C73.9005 252.425 73.8914 252.75 73.8839 252.995L73.8809 254.044C73.8824 254.607 73.9126 255.115 73.9571 255.577C73.9586 255.593 73.9601 255.611 73.9624 255.627C74.0182 256.185 74.0945 256.663 74.1738 257.051C74.1745 257.057 74.1768 257.062 74.1768 257.066C74.2402 257.375 74.3029 257.633 74.3557 257.821C74.3753 257.889 74.4025 257.982 74.4274 258.069C74.5105 258.372 74.6033 258.665 74.703 258.952C74.74 259.061 74.7769 259.168 74.8185 259.279C75.0646 259.937 75.3477 260.556 75.664 261.135C75.7886 261.368 75.8965 261.556 75.9901 261.709C76.095 261.882 76.2023 262.048 76.3117 262.212C76.4408 262.41 76.5737 262.604 76.7095 262.797C76.7435 262.844 76.7767 262.893 76.8115 262.938C77.349 263.683 77.9839 264.429 78.9539 265.334C79.3676 265.72 79.9361 266.217 80.3928 266.551C80.7748 266.83 81.2315 267.143 81.6913 267.447C82.1661 267.766 82.5964 268.034 82.9414 268.249C82.8622 268.204 82.7867 268.146 82.715 268.079C82.7867 268.146 82.8629 268.203 82.9414 268.249L195.395 333.293C195.521 333.365 195.659 333.441 195.803 333.518C195.933 333.59 196.063 333.662 196.191 333.73C196.21 333.74 196.23 333.749 196.249 333.759C196.457 333.869 196.665 333.976 196.87 334.078C196.948 334.119 197.029 334.16 197.101 334.199L197.352 334.312C197.7 334.477 198.042 334.631 198.378 334.775L198.672 334.906C198.859 334.984 199.073 335.067 199.291 335.15C199.604 335.273 199.906 335.386 200.201 335.492C200.285 335.523 200.371 335.555 200.448 335.584L200.59 335.629C201.124 335.813 201.619 335.968 202.069 336.1L202.18 336.136C202.285 336.166 202.402 336.198 202.518 336.229C203.045 336.377 203.488 336.488 203.827 336.571C203.874 336.583 203.922 336.594 203.969 336.604C203.987 336.609 204.008 336.615 204.024 336.62C204.067 336.63 204.113 336.637 204.157 336.648C209.24 337.853 215.102 338.162 221.003 337.043C221.858 336.89 222.579 336.735 223.103 336.608C223.678 336.468 224.446 336.285 225.009 336.103C225.027 336.098 225.048 336.091 225.066 336.085C225.595 335.925 226.233 335.708 226.731 335.547L228.398 334.905C228.619 334.819 228.867 334.71 229.119 334.595C229.382 334.479 229.609 334.371 229.873 334.24C229.976 334.188 230.082 334.137 230.176 334.09C230.631 333.865 231.216 333.529 231.662 333.288L445.547 208.765C446.165 208.398 446.685 208.064 447.148 207.745C447.17 207.731 447.195 207.714 447.217 207.7L447.241 207.682C447.655 207.394 448.018 207.119 448.359 206.843L448.397 206.815C448.808 206.484 448.975 206.346 449.295 206.041C449.325 206.015 449.353 205.99 449.382 205.964C449.621 205.747 449.899 205.472 450.188 205.168C450.216 205.14 450.238 205.118 450.269 205.088L450.335 205.013C450.565 204.766 450.798 204.501 451.026 204.228L451.071 204.176C451.08 204.165 451.089 204.152 451.098 204.141C451.438 203.727 451.757 203.301 452.017 202.894C452.122 202.731 452.267 202.501 452.43 202.224L452.554 202.023C452.618 201.908 452.688 201.776 452.757 201.641C452.761 201.635 452.764 201.63 452.768 201.623C452.803 201.559 452.841 201.492 452.874 201.432C452.858 201.461 452.84 201.487 452.825 201.515C452.905 201.363 452.988 201.2 453.07 201.031C453.086 200.999 453.102 200.964 453.117 200.935L453.146 200.869C453.252 200.642 453.354 200.4 453.456 200.148L453.477 200.1L453.518 199.987C453.629 199.703 453.734 199.41 453.829 199.098C453.843 199.054 453.854 199.016 453.866 198.973L453.887 198.911C453.883 198.926 453.877 198.939 453.872 198.955C453.94 198.723 453.998 198.515 454.045 198.328L454.06 198.281C454.063 198.266 454.067 198.249 454.071 198.234C454.202 197.715 454.256 197.391 454.267 197.313C454.29 197.168 454.309 197.042 454.327 196.926L454.373 196.639C454.361 196.72 454.345 196.81 454.331 196.894C454.334 196.87 454.337 196.849 454.34 196.826L454.389 196.501C454.393 196.471 454.396 196.433 454.399 196.401C454.426 196.181 454.446 195.976 454.46 195.734C454.467 195.668 454.473 195.594 454.478 195.535C454.481 195.425 454.484 195.296 454.488 195.167C454.491 195.091 454.494 195.021 454.497 194.961V194.959C454.5 194.88 454.501 194.799 454.501 194.72L454.505 193.67L454.504 193.54Z" fill="#29293D"/>
<path d="M445.084 179.119C454.507 184.567 454.553 193.413 445.191 198.862C373.895 240.37 300.448 283.022 229.154 324.53C219.794 329.981 205.323 328.837 195.901 323.386C158.417 301.704 120.933 280.023 83.448 258.342C74.0243 252.893 73.9699 244.048 83.3325 238.598C154.627 197.091 227.307 155.583 298.602 114.076C307.961 108.625 323.21 108.625 332.63 114.076C370.114 135.757 407.6 157.438 445.084 179.119Z" fill="#3E394F"/>
<path d="M422.636 178.019L333.417 126.415C322.784 120.264 305.596 120.268 295.033 126.418L107 237C96.4364 243.15 101.012 250.901 111.645 257.051L200.864 308.656C211.502 314.809 225.231 314.806 235.795 308.656L422.761 200.297C433.325 194.147 433.274 184.172 422.636 178.019Z" fill="#EFF2F4"/>
<path d="M280.223 283.282C279.901 282.726 279.449 282.237 278.853 281.894L152.637 209.32L145.619 213.405C145.941 213.962 146.394 214.451 146.99 214.794L273.205 287.368L280.223 283.282Z" fill="white"/>
<path d="M333.807 252.135C333.485 251.58 333.033 251.091 332.437 250.748L206.22 178.174L199.203 182.259C199.525 182.816 199.977 183.304 200.574 183.648L326.789 256.222L333.807 252.135Z" fill="white"/>
<path d="M388.79 220.173C388.468 219.618 388.016 219.13 387.42 218.786L261.205 146.212L254.186 150.297C254.508 150.854 254.961 151.342 255.557 151.686L381.772 224.26L388.79 220.173Z" fill="white"/>
<path d="M187.063 298.374L408.446 169.811L400.884 165.438L179.5 294L187.063 298.374Z" fill="white"/>
<path d="M431.907 180.536C438.097 184.051 444.042 190.75 447.775 198.449C450.732 204.545 451.772 210.146 451.258 214.98C451.063 216.791 450.653 218.494 450.043 220.071C448.536 223.982 446.229 227.19 444.166 230.486C441.97 234.003 439.687 237.42 437.38 240.806C436.192 242.551 434.997 244.288 433.787 246.009C433.249 246.775 432.541 246.908 431.833 246.506C431.129 246.107 430.425 245.177 429.89 243.813C427.492 237.701 425.141 231.583 422.84 225.466C421.32 221.423 419.84 217.425 418.44 213.393C417.037 209.352 415.387 205.306 414.103 201.263C412.019 194.718 411.329 188.728 413.286 184.284C416.28 177.472 423.813 175.941 431.907 180.536Z" fill="#6F7ABE"/>
<path d="M222.77 157.128C228.96 160.643 234.905 167.342 238.638 175.041C241.595 181.137 242.635 186.738 242.12 191.572C241.926 193.383 241.516 195.086 240.906 196.663C239.398 200.574 237.092 203.782 235.029 207.078C232.832 210.595 230.55 214.012 228.243 217.398C227.055 219.143 225.859 220.88 224.649 222.601C224.112 223.367 223.404 223.5 222.696 223.098C221.992 222.699 221.288 221.769 220.752 220.405C218.355 214.293 216.004 208.175 213.703 202.058C212.183 198.015 210.703 194.017 209.303 189.985C207.9 185.944 206.25 181.898 204.965 177.855C202.882 171.31 202.192 165.32 204.148 160.876C207.143 154.064 214.676 152.532 222.77 157.128Z" fill="#FC6011"/>
<path d="M458.912 208.719C458.915 208.641 458.915 208.562 458.917 208.484C458.922 208.345 458.925 208.207 458.927 208.067C458.928 207.987 458.932 207.908 458.932 207.827C458.933 207.733 458.929 207.636 458.929 207.541C458.928 207.412 458.927 207.282 458.924 207.151C458.922 207.086 458.924 207.021 458.921 206.955C458.918 206.833 458.91 206.708 458.904 206.584C458.899 206.465 458.894 206.346 458.888 206.226C458.885 206.182 458.884 206.139 458.881 206.094C458.87 205.919 458.854 205.741 458.839 205.564C458.832 205.474 458.826 205.385 458.818 205.294C458.816 205.275 458.815 205.256 458.813 205.237C458.786 204.953 458.754 204.667 458.718 204.38C458.716 204.371 458.715 204.361 458.714 204.352C458.706 204.294 458.697 204.236 458.689 204.178C458.66 203.958 458.63 203.739 458.595 203.517C458.589 203.478 458.581 203.437 458.575 203.398C458.556 203.287 458.536 203.175 458.517 203.064C458.493 202.924 458.47 202.784 458.444 202.643C458.43 202.571 458.414 202.497 458.399 202.424C458.375 202.3 458.35 202.177 458.324 202.052C458.303 201.953 458.285 201.855 458.264 201.756C458.24 201.646 458.212 201.536 458.187 201.426C458.158 201.301 458.13 201.176 458.099 201.05C458.083 200.985 458.07 200.92 458.054 200.855C458.015 200.697 457.97 200.538 457.929 200.379C457.899 200.268 457.872 200.158 457.842 200.047C457.832 200.013 457.824 199.98 457.815 199.946C457.734 199.657 457.649 199.366 457.56 199.073C457.557 199.062 457.553 199.051 457.55 199.04L457.549 199.036C457.457 198.737 457.361 198.436 457.259 198.133C457.247 198.097 457.233 198.061 457.221 198.024C457.187 197.924 457.15 197.822 457.116 197.721C457.06 197.562 457.007 197.403 456.949 197.244C456.919 197.161 456.886 197.077 456.855 196.994C456.812 196.879 456.769 196.764 456.725 196.649C456.689 196.554 456.656 196.461 456.618 196.366C456.56 196.214 456.496 196.06 456.434 195.907C456.395 195.81 456.357 195.713 456.316 195.615C456.3 195.574 456.284 195.534 456.267 195.493C456.146 195.201 456.02 194.907 455.89 194.613C455.885 194.604 455.881 194.594 455.877 194.585C455.854 194.534 455.83 194.482 455.807 194.431C455.698 194.187 455.587 193.942 455.472 193.696C455.428 193.601 455.383 193.506 455.337 193.411C455.223 193.172 455.107 192.933 454.988 192.695C454.911 192.54 454.829 192.386 454.749 192.231C454.674 192.085 454.6 191.938 454.523 191.793C454.481 191.714 454.442 191.633 454.4 191.554C454.325 191.414 454.244 191.278 454.168 191.138C454.001 190.833 453.833 190.529 453.66 190.227C453.61 190.141 453.565 190.053 453.515 189.968C453.434 189.829 453.348 189.694 453.266 189.556C453.13 189.327 452.993 189.1 452.853 188.874C452.711 188.645 452.566 188.418 452.421 188.191C452.277 187.968 452.133 187.746 451.987 187.526C451.928 187.438 451.872 187.346 451.812 187.259C451.746 187.161 451.675 187.068 451.608 186.971C451.357 186.605 451.102 186.245 450.842 185.889C450.769 185.788 450.7 185.683 450.626 185.584C450.572 185.51 450.515 185.439 450.46 185.366C450.342 185.209 450.223 185.055 450.104 184.9C449.999 184.764 449.897 184.625 449.791 184.491C449.702 184.378 449.611 184.269 449.521 184.157C449.419 184.031 449.318 183.905 449.215 183.78C449.147 183.697 449.08 183.611 449.011 183.528C448.845 183.329 448.676 183.134 448.507 182.939C448.44 182.861 448.373 182.78 448.305 182.703C448.284 182.678 448.263 182.653 448.242 182.629C447.982 182.333 447.719 182.042 447.453 181.756C447.428 181.728 447.402 181.703 447.376 181.675C447.295 181.588 447.213 181.504 447.131 181.418C446.964 181.242 446.798 181.064 446.629 180.892C446.557 180.819 446.484 180.749 446.412 180.677C446.297 180.563 446.183 180.45 446.068 180.338C445.968 180.239 445.869 180.137 445.767 180.04C445.646 179.924 445.522 179.813 445.4 179.699C445.284 179.59 445.167 179.48 445.05 179.373C444.992 179.321 444.936 179.266 444.878 179.214C444.679 179.034 444.477 178.862 444.276 178.689C444.195 178.619 444.115 178.546 444.034 178.478C444.015 178.462 443.997 178.445 443.979 178.429C443.682 178.18 443.384 177.936 443.085 177.7C443.061 177.681 443.037 177.664 443.013 177.645C442.934 177.584 442.854 177.525 442.775 177.464C442.587 177.319 442.399 177.173 442.209 177.033C442.131 176.976 442.052 176.922 441.974 176.866C441.868 176.789 441.762 176.715 441.656 176.64C441.556 176.57 441.456 176.496 441.355 176.427C441.187 176.311 441.018 176.203 440.849 176.092C440.772 176.042 440.697 175.99 440.621 175.942C440.59 175.922 440.559 175.9 440.529 175.881C440.259 175.709 439.988 175.543 439.717 175.384C439.655 175.347 439.592 175.311 439.53 175.275C439.33 175.16 439.13 175.048 438.931 174.94C438.847 174.895 438.765 174.855 438.681 174.811C438.581 174.758 438.48 174.706 438.38 174.655C438.305 174.617 438.229 174.575 438.155 174.538C438.006 174.465 437.858 174.398 437.71 174.329C437.628 174.291 437.547 174.251 437.466 174.214C437.438 174.201 437.409 174.187 437.38 174.174C437.12 174.057 436.86 173.947 436.601 173.844C436.591 173.839 436.58 173.836 436.569 173.832C436.515 173.81 436.461 173.791 436.407 173.771C436.21 173.694 436.014 173.618 435.819 173.55C435.771 173.533 435.724 173.519 435.676 173.503C435.571 173.467 435.468 173.434 435.363 173.401C435.25 173.364 435.135 173.323 435.022 173.289C434.941 173.265 434.862 173.246 434.781 173.222C434.665 173.189 434.549 173.157 434.433 173.126C434.357 173.107 434.281 173.082 434.205 173.063C434.098 173.037 433.992 173.017 433.886 172.993C433.765 172.965 433.645 172.937 433.526 172.913C433.474 172.902 433.422 172.888 433.371 172.878C433.246 172.854 433.124 172.838 433 172.817C432.874 172.796 432.748 172.773 432.623 172.755C432.585 172.75 432.548 172.741 432.512 172.737C432.393 172.721 432.277 172.713 432.159 172.7C432.007 172.683 431.854 172.665 431.704 172.654C431.67 172.651 431.634 172.645 431.6 172.642C431.502 172.636 431.406 172.638 431.309 172.633C431.127 172.624 430.945 172.616 430.766 172.615C430.722 172.614 430.677 172.61 430.634 172.61C430.442 172.611 430.252 172.617 430.063 172.627C430.032 172.628 430.002 172.631 429.971 172.633C429.844 172.64 429.717 172.648 429.591 172.659C429.494 172.668 429.4 172.681 429.305 172.692C429.242 172.7 429.18 172.706 429.118 172.714C428.885 172.745 428.655 172.78 428.43 172.825C428.417 172.827 428.405 172.831 428.393 172.834C428.309 172.85 428.227 172.873 428.144 172.892C427.97 172.931 427.796 172.971 427.626 173.019C427.527 173.046 427.431 173.079 427.334 173.109C427.22 173.145 427.104 173.176 426.992 173.216C426.96 173.227 426.931 173.242 426.899 173.254C426.716 173.32 426.537 173.395 426.359 173.472C426.272 173.51 426.183 173.543 426.098 173.583C425.837 173.705 425.581 173.836 425.333 173.98L417.412 178.581C417.66 178.437 417.916 178.306 418.176 178.184C418.261 178.145 418.35 178.111 418.437 178.073C418.615 177.996 418.794 177.921 418.978 177.855C419.12 177.803 419.267 177.756 419.412 177.711C419.51 177.68 419.606 177.648 419.704 177.62C419.874 177.572 420.048 177.532 420.222 177.493C420.305 177.474 420.387 177.452 420.471 177.435C420.709 177.387 420.951 177.348 421.196 177.315C421.258 177.307 421.321 177.301 421.383 177.293C421.603 177.268 421.825 177.247 422.05 177.234C422.081 177.232 422.111 177.229 422.141 177.228C422.372 177.216 422.608 177.214 422.844 177.216C423.023 177.217 423.205 177.226 423.387 177.234C423.519 177.241 423.65 177.244 423.782 177.255C423.933 177.266 424.085 177.285 424.238 177.301C424.392 177.318 424.545 177.334 424.701 177.356C424.826 177.374 424.952 177.397 425.078 177.418C425.253 177.448 425.428 177.478 425.604 177.514C425.723 177.538 425.844 177.567 425.964 177.594C426.145 177.635 426.328 177.679 426.511 177.728C426.627 177.758 426.743 177.791 426.86 177.824C427.053 177.879 427.247 177.939 427.441 178.002C427.546 178.036 427.65 178.068 427.754 178.104C427.996 178.187 428.24 178.277 428.485 178.372C428.539 178.393 428.593 178.411 428.647 178.433C428.945 178.551 429.244 178.68 429.545 178.816C429.625 178.852 429.707 178.892 429.788 178.93C430.011 179.034 430.234 179.142 430.458 179.256C430.558 179.307 430.659 179.359 430.76 179.412C431.042 179.561 431.324 179.712 431.608 179.876C431.973 180.087 432.336 180.31 432.699 180.543C432.775 180.592 432.851 180.644 432.927 180.693C433.197 180.87 433.466 181.053 433.734 181.241C433.84 181.316 433.946 181.391 434.052 181.467C434.32 181.66 434.587 181.86 434.853 182.065C434.932 182.126 435.012 182.185 435.091 182.247C435.434 182.515 435.774 182.793 436.112 183.079C436.193 183.147 436.274 183.22 436.354 183.29C436.614 183.514 436.872 183.741 437.129 183.975C437.245 184.082 437.362 184.191 437.478 184.299C437.702 184.509 437.925 184.722 438.147 184.939C438.261 185.052 438.376 185.164 438.49 185.278C438.732 185.521 438.971 185.768 439.21 186.019C439.291 186.105 439.374 186.189 439.455 186.276C439.768 186.612 440.077 186.955 440.383 187.304C440.451 187.381 440.518 187.462 440.585 187.54C440.823 187.816 441.06 188.097 441.293 188.381C441.396 188.506 441.498 188.632 441.599 188.759C441.796 189.003 441.989 189.251 442.182 189.501C442.301 189.656 442.42 189.81 442.538 189.967C442.667 190.139 442.793 190.315 442.92 190.49C443.18 190.846 443.435 191.206 443.686 191.572C443.813 191.756 443.94 191.941 444.065 192.128C444.212 192.347 444.355 192.569 444.498 192.792C444.644 193.019 444.789 193.246 444.932 193.477C445.071 193.701 445.207 193.928 445.343 194.156C445.477 194.379 445.609 194.604 445.738 194.829C445.912 195.13 446.079 195.433 446.245 195.738C446.364 195.956 446.486 196.174 446.602 196.395C446.678 196.54 446.752 196.686 446.827 196.831C447.027 197.223 447.226 197.615 447.416 198.013C447.58 198.356 447.735 198.697 447.887 199.037C447.909 199.086 447.933 199.136 447.955 199.186C448.108 199.531 448.254 199.874 448.395 200.217C448.435 200.314 448.473 200.41 448.512 200.507C448.612 200.756 448.71 201.004 448.804 201.252C448.847 201.366 448.891 201.48 448.933 201.594C449.023 201.838 449.109 202.08 449.193 202.322C449.229 202.423 449.265 202.525 449.3 202.626C449.415 202.966 449.525 203.305 449.628 203.641C449.632 203.652 449.634 203.663 449.638 203.674C449.738 204.001 449.831 204.326 449.92 204.649C449.95 204.759 449.977 204.868 450.006 204.977C450.066 205.203 450.124 205.428 450.177 205.652C450.208 205.777 450.236 205.902 450.265 206.026C450.313 206.236 450.359 206.445 450.402 206.654C450.428 206.778 450.454 206.902 450.477 207.025C450.52 207.24 450.558 207.454 450.595 207.667C450.614 207.777 450.635 207.889 450.653 207.998C450.695 208.26 450.733 208.521 450.767 208.78C450.775 208.837 450.785 208.896 450.792 208.954C450.832 209.27 450.867 209.583 450.896 209.895C450.905 209.986 450.91 210.077 450.918 210.168C450.936 210.388 450.953 210.609 450.966 210.827C450.973 210.947 450.977 211.066 450.982 211.185C450.991 211.375 450.998 211.564 451.002 211.752C451.005 211.883 451.007 212.013 451.007 212.143C451.008 212.319 451.008 212.494 451.005 212.668C451.003 212.808 451 212.947 450.995 213.085C450.99 213.251 450.983 213.415 450.974 213.579C450.966 213.728 450.957 213.876 450.947 214.023C450.929 214.267 450.911 214.51 450.885 214.75C450.843 215.152 450.786 215.546 450.723 215.937C450.712 216.005 450.704 216.075 450.692 216.143C450.623 216.551 450.541 216.953 450.449 217.35C450.414 217.499 450.372 217.643 450.335 217.791C450.264 218.067 450.194 218.344 450.113 218.613C450.096 218.668 450.079 218.722 450.062 218.776C449.943 219.159 449.816 219.536 449.675 219.905C449.505 220.354 449.322 220.792 449.132 221.224C449.075 221.354 449.016 221.483 448.957 221.612C448.819 221.914 448.678 222.213 448.532 222.509C448.46 222.656 448.387 222.805 448.312 222.951C448.158 223.255 447.998 223.556 447.836 223.854C447.776 223.965 447.717 224.078 447.656 224.188C447.432 224.592 447.204 224.991 446.971 225.385C446.927 225.46 446.881 225.533 446.837 225.608C446.642 225.935 446.445 226.261 446.246 226.584C446.158 226.727 446.069 226.869 445.98 227.011C445.814 227.279 445.646 227.547 445.479 227.813C445.342 228.029 445.206 228.245 445.07 228.46C444.901 228.726 444.733 228.993 444.565 229.259C444.315 229.656 444.066 230.052 443.821 230.451C443.269 231.349 442.712 232.24 442.15 233.126C442.129 233.16 442.107 233.193 442.086 233.226C441.354 234.38 440.613 235.523 439.868 236.661C439.675 236.955 439.483 237.25 439.289 237.543C438.55 238.666 437.807 239.786 437.061 240.9C435.877 242.666 434.686 244.425 433.481 246.167C433.349 246.359 433.206 246.511 433.056 246.625C433.007 246.664 432.955 246.698 432.904 246.728L440.825 242.127C441.032 242.007 441.226 241.821 441.402 241.566C442.608 239.824 443.799 238.065 444.983 236.299C445.729 235.185 446.47 234.067 447.209 232.944C447.404 232.649 447.597 232.354 447.791 232.058C448.534 230.922 449.274 229.782 450.004 228.631C450.023 228.601 450.042 228.573 450.06 228.543C450.065 228.537 450.068 228.53 450.073 228.524C450.634 227.638 451.191 226.747 451.743 225.849C451.988 225.451 452.237 225.055 452.487 224.658C452.655 224.392 452.823 224.126 452.992 223.859C453.128 223.644 453.264 223.428 453.4 223.212C453.568 222.946 453.735 222.678 453.902 222.41C453.99 222.268 454.079 222.126 454.168 221.982C454.367 221.66 454.563 221.334 454.759 221.006C454.803 220.932 454.848 220.859 454.893 220.784C455.125 220.39 455.354 219.99 455.578 219.587C455.639 219.477 455.698 219.364 455.758 219.253C455.92 218.954 456.079 218.654 456.234 218.349C456.309 218.203 456.382 218.055 456.454 217.907C456.524 217.766 456.597 217.628 456.664 217.485C456.738 217.329 456.807 217.169 456.879 217.011C456.937 216.882 456.997 216.753 457.054 216.622C457.244 216.191 457.427 215.753 457.597 215.304C457.617 215.252 457.636 215.2 457.656 215.148C457.774 214.829 457.882 214.503 457.984 214.175C458.001 214.121 458.018 214.067 458.034 214.013C458.051 213.958 458.069 213.904 458.085 213.849C458.148 213.632 458.2 213.409 458.257 213.189C458.294 213.042 458.336 212.897 458.371 212.749C458.376 212.725 458.384 212.702 458.389 212.678C458.47 212.321 458.543 211.959 458.606 211.593C458.609 211.576 458.611 211.558 458.614 211.541C458.626 211.473 458.633 211.404 458.645 211.336C458.686 211.082 458.727 210.829 458.759 210.571C458.776 210.431 458.792 210.29 458.807 210.149C458.825 209.978 458.841 209.805 458.855 209.632C458.861 209.562 458.863 209.492 458.868 209.422C458.879 209.275 458.888 209.127 458.896 208.978C458.9 208.891 458.908 208.806 458.912 208.719Z" fill="#3E394F"/>
<path d="M249.774 185.311C249.778 185.233 249.778 185.154 249.78 185.076C249.784 184.937 249.788 184.799 249.79 184.659C249.791 184.579 249.795 184.5 249.795 184.419C249.796 184.325 249.792 184.228 249.792 184.133C249.791 184.004 249.79 183.874 249.787 183.743C249.785 183.678 249.786 183.613 249.784 183.547C249.781 183.424 249.772 183.3 249.767 183.176C249.762 183.057 249.757 182.938 249.751 182.818C249.748 182.774 249.747 182.73 249.744 182.686C249.733 182.511 249.717 182.333 249.702 182.156C249.695 182.066 249.689 181.977 249.681 181.886C249.679 181.867 249.678 181.848 249.676 181.829C249.649 181.545 249.617 181.259 249.581 180.972C249.579 180.963 249.578 180.953 249.577 180.944C249.569 180.886 249.56 180.828 249.552 180.77C249.522 180.55 249.493 180.331 249.458 180.109C249.452 180.07 249.444 180.029 249.437 179.99C249.419 179.879 249.399 179.767 249.38 179.656C249.355 179.516 249.333 179.376 249.307 179.235C249.293 179.162 249.277 179.089 249.262 179.016C249.238 178.892 249.213 178.769 249.187 178.644C249.166 178.545 249.148 178.447 249.127 178.348C249.102 178.238 249.075 178.128 249.05 178.018C249.021 177.893 248.992 177.768 248.962 177.642C248.946 177.577 248.933 177.512 248.917 177.447C248.878 177.289 248.833 177.13 248.791 176.971C248.762 176.86 248.734 176.75 248.704 176.639C248.695 176.605 248.687 176.572 248.678 176.538C248.597 176.249 248.512 175.958 248.422 175.665C248.419 175.654 248.416 175.643 248.413 175.632L248.412 175.628C248.32 175.329 248.223 175.028 248.122 174.725C248.11 174.689 248.096 174.652 248.084 174.616C248.05 174.516 248.013 174.414 247.978 174.313C247.923 174.154 247.87 173.995 247.812 173.836C247.782 173.753 247.749 173.669 247.718 173.586C247.675 173.471 247.632 173.356 247.588 173.241C247.552 173.146 247.519 173.053 247.481 172.958C247.422 172.805 247.358 172.652 247.297 172.499C247.257 172.402 247.22 172.305 247.179 172.207C247.163 172.166 247.147 172.126 247.13 172.085C247.009 171.793 246.883 171.499 246.753 171.205C246.748 171.196 246.744 171.186 246.74 171.177C246.717 171.126 246.692 171.074 246.67 171.023C246.56 170.778 246.45 170.534 246.335 170.288C246.29 170.193 246.246 170.098 246.2 170.003C246.086 169.764 245.97 169.525 245.851 169.287C245.773 169.132 245.691 168.978 245.612 168.823C245.537 168.677 245.462 168.53 245.386 168.385C245.344 168.306 245.305 168.225 245.263 168.146C245.188 168.006 245.107 167.87 245.031 167.73C244.864 167.425 244.696 167.121 244.523 166.819C244.473 166.733 244.428 166.645 244.378 166.56C244.297 166.421 244.211 166.286 244.129 166.148C243.992 165.919 243.856 165.692 243.716 165.466C243.574 165.237 243.429 165.01 243.283 164.783C243.14 164.56 242.996 164.338 242.85 164.118C242.791 164.03 242.734 163.938 242.675 163.851C242.609 163.753 242.538 163.66 242.471 163.562C242.22 163.197 241.965 162.837 241.705 162.481C241.632 162.38 241.563 162.275 241.489 162.176C241.434 162.102 241.377 162.031 241.323 161.958C241.205 161.801 241.085 161.647 240.966 161.492C240.862 161.356 240.76 161.217 240.654 161.083C240.565 160.97 240.473 160.861 240.384 160.749C240.282 160.623 240.181 160.497 240.078 160.372C240.01 160.289 239.943 160.203 239.874 160.12C239.708 159.921 239.539 159.726 239.37 159.531C239.302 159.453 239.236 159.372 239.168 159.295C239.147 159.27 239.126 159.245 239.105 159.221C238.845 158.925 238.582 158.634 238.316 158.348C238.291 158.32 238.264 158.294 238.239 158.267C238.158 158.18 238.076 158.096 237.994 158.01C237.827 157.834 237.661 157.656 237.492 157.483C237.42 157.411 237.347 157.341 237.274 157.269C237.16 157.155 237.046 157.042 236.931 156.93C236.831 156.831 236.732 156.729 236.63 156.632C236.509 156.516 236.385 156.405 236.263 156.291C236.147 156.182 236.03 156.072 235.913 155.965C235.855 155.913 235.799 155.858 235.741 155.806C235.542 155.626 235.34 155.454 235.139 155.281C235.058 155.211 234.978 155.138 234.897 155.07C234.878 155.054 234.86 155.037 234.841 155.021C234.545 154.772 234.247 154.528 233.948 154.292C233.924 154.273 233.9 154.256 233.876 154.237C233.797 154.175 233.717 154.117 233.638 154.056C233.45 153.911 233.262 153.765 233.072 153.625C232.994 153.568 232.915 153.514 232.837 153.458C232.731 153.381 232.625 153.307 232.519 153.232C232.419 153.162 232.319 153.087 232.218 153.019C232.05 152.903 231.88 152.795 231.711 152.684C231.635 152.634 231.559 152.582 231.483 152.534C231.453 152.514 231.422 152.492 231.391 152.473C231.122 152.301 230.851 152.135 230.58 151.976C230.517 151.939 230.455 151.903 230.393 151.867C230.193 151.752 229.993 151.64 229.794 151.532C229.71 151.487 229.627 151.447 229.544 151.403C229.443 151.35 229.343 151.298 229.243 151.247C229.167 151.209 229.092 151.167 229.017 151.13C228.868 151.057 228.721 150.99 228.572 150.921C228.491 150.883 228.41 150.843 228.329 150.806C228.301 150.793 228.272 150.779 228.243 150.766C227.982 150.649 227.723 150.539 227.464 150.436C227.453 150.431 227.443 150.428 227.431 150.424C227.378 150.402 227.324 150.383 227.27 150.362C227.073 150.286 226.877 150.21 226.682 150.142C226.634 150.125 226.586 150.111 226.538 150.095C226.434 150.059 226.331 150.026 226.226 149.992C226.113 149.956 225.998 149.915 225.885 149.881C225.804 149.857 225.724 149.838 225.644 149.814C225.528 149.781 225.412 149.749 225.296 149.718C225.22 149.698 225.144 149.674 225.068 149.655C224.961 149.629 224.855 149.609 224.749 149.584C224.628 149.557 224.508 149.529 224.388 149.505C224.337 149.494 224.285 149.48 224.234 149.47C224.109 149.446 223.987 149.43 223.863 149.409C223.737 149.388 223.611 149.365 223.485 149.347C223.448 149.341 223.411 149.333 223.374 149.328C223.256 149.312 223.14 149.305 223.022 149.292C222.87 149.275 222.717 149.257 222.567 149.245C222.533 149.243 222.497 149.237 222.463 149.234C222.365 149.227 222.269 149.229 222.172 149.225C221.99 149.216 221.808 149.208 221.628 149.207C221.585 149.206 221.54 149.202 221.497 149.202C221.305 149.203 221.115 149.209 220.926 149.219C220.895 149.22 220.865 149.223 220.834 149.225C220.707 149.232 220.579 149.24 220.454 149.251C220.357 149.26 220.263 149.273 220.168 149.284C220.105 149.291 220.043 149.298 219.98 149.306C219.748 149.337 219.518 149.372 219.292 149.417C219.28 149.419 219.268 149.423 219.256 149.425C219.172 149.442 219.09 149.465 219.007 149.484C218.832 149.523 218.659 149.563 218.489 149.611C218.39 149.638 218.294 149.671 218.197 149.701C218.083 149.737 217.967 149.768 217.855 149.808C217.823 149.819 217.794 149.834 217.762 149.845C217.579 149.912 217.4 149.987 217.222 150.064C217.135 150.102 217.046 150.135 216.961 150.175C216.7 150.297 216.444 150.428 216.196 150.572L208.274 155.173C208.523 155.029 208.778 154.898 209.039 154.776C209.124 154.737 209.213 154.703 209.3 154.665C209.478 154.588 209.657 154.513 209.84 154.447C209.983 154.395 210.129 154.348 210.275 154.302C210.372 154.272 210.469 154.239 210.567 154.212C210.737 154.164 210.911 154.124 211.085 154.085C211.168 154.066 211.25 154.043 211.334 154.026C211.572 153.979 211.814 153.94 212.059 153.907C212.12 153.899 212.184 153.893 212.246 153.885C212.466 153.86 212.688 153.839 212.913 153.826C212.943 153.824 212.973 153.821 213.004 153.82C213.235 153.808 213.47 153.806 213.707 153.808C213.886 153.809 214.068 153.817 214.25 153.826C214.382 153.832 214.513 153.836 214.645 153.847C214.796 153.858 214.948 153.877 215.1 153.893C215.254 153.91 215.408 153.926 215.563 153.948C215.689 153.966 215.815 153.989 215.941 154.01C216.116 154.04 216.291 154.07 216.467 154.106C216.586 154.13 216.707 154.158 216.827 154.186C217.008 154.227 217.191 154.271 217.374 154.32C217.49 154.35 217.606 154.382 217.723 154.416C217.916 154.471 218.11 154.531 218.304 154.594C218.409 154.627 218.512 154.66 218.617 154.696C218.859 154.779 219.103 154.868 219.347 154.964C219.402 154.984 219.456 155.003 219.51 155.025C219.808 155.143 220.107 155.272 220.407 155.407C220.488 155.444 220.57 155.484 220.651 155.522C220.873 155.626 221.097 155.734 221.321 155.848C221.421 155.899 221.522 155.951 221.623 156.004C221.905 156.153 222.187 156.304 222.471 156.468C222.836 156.679 223.199 156.902 223.562 157.135C223.638 157.184 223.714 157.236 223.789 157.285C224.06 157.462 224.329 157.645 224.597 157.833C224.703 157.908 224.809 157.982 224.915 158.059C225.183 158.252 225.45 158.452 225.716 158.657C225.795 158.718 225.875 158.777 225.954 158.839C226.297 159.107 226.637 159.385 226.975 159.671C227.056 159.739 227.136 159.812 227.217 159.882C227.477 160.106 227.735 160.333 227.992 160.567C228.108 160.673 228.225 160.783 228.341 160.891C228.565 161.101 228.788 161.314 229.01 161.531C229.124 161.644 229.239 161.756 229.353 161.87C229.594 162.113 229.834 162.36 230.073 162.611C230.154 162.697 230.237 162.781 230.318 162.868C230.631 163.204 230.94 163.546 231.246 163.896C231.314 163.973 231.38 164.054 231.448 164.132C231.686 164.408 231.923 164.689 232.156 164.973C232.258 165.098 232.36 165.224 232.462 165.351C232.658 165.595 232.852 165.843 233.045 166.093C233.164 166.248 233.283 166.402 233.401 166.559C233.53 166.731 233.656 166.907 233.783 167.082C234.042 167.438 234.298 167.798 234.549 168.164C234.676 168.348 234.803 168.533 234.928 168.72C235.074 168.939 235.218 169.161 235.361 169.383C235.507 169.61 235.652 169.838 235.795 170.069C235.934 170.293 236.07 170.52 236.206 170.748C236.339 170.971 236.472 171.196 236.601 171.421C236.774 171.722 236.942 172.025 237.108 172.33C237.227 172.548 237.349 172.766 237.465 172.987C237.541 173.132 237.615 173.278 237.69 173.423C237.89 173.815 238.089 174.207 238.279 174.605C238.442 174.948 238.598 175.289 238.75 175.629C238.772 175.678 238.796 175.728 238.818 175.778C238.971 176.123 239.117 176.466 239.257 176.809C239.298 176.906 239.336 177.002 239.375 177.099C239.475 177.348 239.573 177.596 239.667 177.844C239.71 177.958 239.753 178.072 239.796 178.186C239.886 178.43 239.972 178.672 240.056 178.914C240.092 179.015 240.128 179.117 240.162 179.218C240.278 179.558 240.388 179.897 240.491 180.233C240.495 180.244 240.497 180.255 240.501 180.266C240.601 180.593 240.694 180.918 240.783 181.241C240.813 181.351 240.84 181.46 240.869 181.569C240.929 181.795 240.986 182.02 241.04 182.244C241.071 182.369 241.099 182.494 241.128 182.618C241.176 182.828 241.222 183.037 241.265 183.246C241.291 183.37 241.316 183.494 241.34 183.617C241.382 183.832 241.421 184.046 241.458 184.259C241.477 184.369 241.497 184.48 241.515 184.59C241.558 184.852 241.596 185.112 241.63 185.372C241.638 185.429 241.648 185.488 241.655 185.546C241.695 185.862 241.73 186.175 241.759 186.487C241.767 186.578 241.773 186.668 241.78 186.76C241.799 186.98 241.816 187.201 241.829 187.419C241.836 187.539 241.84 187.658 241.845 187.777C241.854 187.967 241.861 188.156 241.865 188.344C241.868 188.475 241.869 188.605 241.87 188.735C241.871 188.911 241.87 189.086 241.868 189.26C241.866 189.4 241.863 189.539 241.858 189.677C241.853 189.843 241.845 190.007 241.837 190.171C241.829 190.32 241.82 190.468 241.81 190.615C241.792 190.859 241.774 191.102 241.748 191.342C241.706 191.744 241.649 192.138 241.586 192.529C241.575 192.597 241.567 192.667 241.555 192.735C241.485 193.143 241.404 193.545 241.312 193.942C241.277 194.091 241.235 194.235 241.197 194.383C241.127 194.659 241.057 194.936 240.976 195.205C240.959 195.26 240.942 195.314 240.925 195.368C240.806 195.751 240.678 196.128 240.538 196.497C240.368 196.946 240.184 197.384 239.995 197.816C239.938 197.946 239.879 198.075 239.82 198.204C239.682 198.506 239.541 198.805 239.395 199.101C239.323 199.248 239.25 199.396 239.175 199.542C239.02 199.847 238.861 200.148 238.699 200.446C238.639 200.557 238.58 200.67 238.519 200.78C238.295 201.184 238.066 201.583 237.834 201.977C237.789 202.052 237.744 202.125 237.7 202.2C237.504 202.527 237.308 202.853 237.109 203.176C237.02 203.319 236.932 203.461 236.843 203.603C236.676 203.871 236.509 204.139 236.341 204.405C236.205 204.621 236.069 204.837 235.933 205.052C235.764 205.318 235.595 205.585 235.428 205.851C235.178 206.248 234.929 206.644 234.684 207.043C234.132 207.94 233.574 208.832 233.013 209.718C232.992 209.752 232.97 209.785 232.949 209.818C232.217 210.972 231.475 212.115 230.731 213.253C230.538 213.547 230.345 213.842 230.152 214.135C229.412 215.258 228.67 216.378 227.924 217.492C226.74 219.258 225.549 221.017 224.344 222.76C224.211 222.951 224.069 223.103 223.919 223.217C223.869 223.256 223.818 223.29 223.767 223.32L231.688 218.719C231.895 218.599 232.089 218.413 232.265 218.158C233.471 216.416 234.662 214.657 235.845 212.891C236.591 211.777 237.333 210.659 238.072 209.536C238.266 209.241 238.46 208.946 238.654 208.65C239.397 207.514 240.136 206.374 240.866 205.223C240.885 205.193 240.904 205.165 240.923 205.135C240.928 205.129 240.931 205.122 240.935 205.116C241.497 204.23 242.054 203.339 242.606 202.441C242.851 202.043 243.099 201.647 243.35 201.25C243.518 200.984 243.686 200.718 243.855 200.451C243.991 200.236 244.126 200.02 244.263 199.804C244.431 199.538 244.598 199.27 244.765 199.002C244.853 198.86 244.942 198.718 245.03 198.574C245.229 198.252 245.426 197.926 245.622 197.598C245.666 197.524 245.711 197.45 245.756 197.376C245.988 196.981 246.217 196.582 246.44 196.179C246.502 196.069 246.56 195.956 246.621 195.844C246.783 195.546 246.942 195.246 247.097 194.941C247.171 194.795 247.244 194.647 247.317 194.499C247.387 194.358 247.459 194.22 247.527 194.077C247.601 193.921 247.67 193.761 247.741 193.603C247.8 193.474 247.86 193.345 247.917 193.214C248.106 192.782 248.29 192.345 248.46 191.896C248.48 191.844 248.499 191.792 248.519 191.74C248.637 191.421 248.745 191.095 248.847 190.767C248.864 190.713 248.881 190.659 248.897 190.605C248.914 190.55 248.932 190.496 248.948 190.441C249.011 190.224 249.063 190.001 249.119 189.78C249.157 189.634 249.199 189.489 249.234 189.341C249.239 189.317 249.247 189.294 249.252 189.27C249.333 188.913 249.406 188.551 249.469 188.185C249.472 188.168 249.474 188.15 249.477 188.133C249.488 188.065 249.496 187.996 249.508 187.928C249.549 187.674 249.589 187.421 249.621 187.163C249.639 187.023 249.655 186.882 249.67 186.741C249.688 186.57 249.704 186.397 249.718 186.224C249.724 186.154 249.726 186.083 249.731 186.014C249.742 185.867 249.751 185.719 249.758 185.57C249.763 185.483 249.771 185.398 249.774 185.311Z" fill="#3E394F"/>
<path d="M431.79 189.228C425.954 185.76 421.206 188.545 421.187 195.448C421.168 202.353 425.885 210.759 431.721 214.227C437.557 217.695 442.305 214.913 442.325 208.008C442.343 201.105 437.627 192.696 431.79 189.228Z" fill="white"/>
<path d="M222.653 165.82C216.816 162.352 212.068 165.137 212.05 172.04C212.03 178.945 216.747 187.351 222.584 190.819C228.42 194.287 233.168 191.505 233.187 184.6C233.206 177.697 228.489 169.288 222.653 165.82Z" fill="white"/>
<path d="M210.5 190L164.5 216.5L239 259.5L285 232.5L210.5 190Z" fill="#FC6011" fill-opacity="0.5"/>
<path d="M192.314 55.2961C192.572 58.4194 190.075 61.159 187.287 62.4279C184.501 63.699 181.385 63.9379 178.447 64.763C175.506 65.5858 172.49 67.2638 171.393 70.1873C170.558 72.4237 171.082 75.1332 172.694 76.8647C174.303 78.5963 176.911 79.2593 179.12 78.5006C175.561 80.7203 174.557 86.3059 177.11 89.6883C179.665 93.0708 185.179 93.4528 188.149 90.4546C184.515 95.3101 186.728 103.176 191.897 106.225C197.065 109.272 203.977 107.919 208.542 103.981C213.106 100.042 215.557 93.99 216.398 87.9229C217.239 81.8558 216.632 75.6878 216.024 69.5883L192.314 55.2961Z" fill="#EDAC4A"/>
<path d="M248.496 109.836C250.735 112.446 254.602 113.427 257.768 112.189C260.934 110.95 263.185 107.572 263.17 104.086C267.058 106.53 272.633 105.552 275.517 101.926C278.398 98.2974 278.22 92.4843 275.119 89.0529C277.56 90.5576 281.002 88.8705 282.12 86.1783C283.236 83.4861 282.491 80.3056 281.016 77.8033C279.541 75.3002 267.923 69.9015 267.923 61.7058C267.923 43.6598 265.575 45.2587 264.524 31.2129" fill="#EDAC4A"/>
<path d="M193.205 46.8122L196.789 121.349C197.716 134.822 216.966 140.69 230.1 140.69C245.144 135.318 246.218 135.318 247.832 121.349C247.329 113.49 247.832 111.554 247.832 111.554C247.832 111.554 267.258 108.448 267.498 88.4733C267.634 76.9351 265.702 50.7559 264.042 30.6973C262.924 17.1368 251.885 6.72888 238.655 6.72888H226.921C206.715 7.9435 191.468 26.0687 193.205 46.8122Z" fill="#FFBD9D"/>
<path d="M247.869 111.267C247.869 111.267 235.595 112.294 222.549 103.867C222.549 103.867 228.534 118.243 247.914 116.442L247.869 111.267Z" fill="#EB996D"/>
<path d="M259.68 56.3671C259.733 57.8748 258.536 59.1602 257.005 59.2439C255.48 59.3275 254.199 58.1799 254.148 56.6722C254.095 55.1645 255.29 53.879 256.819 53.7931C258.347 53.7095 259.63 54.8593 259.68 56.3671Z" fill="#0C2B34"/>
<path d="M260.701 50.7289C260.356 51.1012 258.253 49.5023 255.269 49.512C252.288 49.4751 250.099 51.0537 249.776 50.6769C249.615 50.5119 249.965 49.8398 250.92 49.1255C251.859 48.4165 253.459 47.7233 255.32 47.7308C257.178 47.7406 258.742 48.4451 259.643 49.1647C260.557 49.8888 260.869 50.5639 260.701 50.7289Z" fill="#0C2B34"/>
<path d="M231.654 56.3671C231.704 57.8748 230.506 59.1602 228.978 59.2439C227.452 59.3275 226.171 58.1799 226.119 56.6722C226.068 55.1645 227.266 53.879 228.791 53.7931C230.319 53.7095 231.601 54.8593 231.654 56.3671Z" fill="#0C2B34"/>
<path d="M231.364 51.3031C231.019 51.6753 228.916 50.0757 225.932 50.0832C222.953 50.0463 220.761 51.6256 220.438 51.2511C220.278 51.0838 220.625 50.4132 221.583 49.6989C222.521 48.9869 224.121 48.2952 225.982 48.3027C227.84 48.3148 229.405 49.017 230.306 49.7389C231.22 50.463 231.532 51.1358 231.364 51.3031Z" fill="#0C2B34"/>
<path d="M242.191 74.0681C242.177 73.8933 244.035 73.5633 247.04 73.1692C247.802 73.0878 248.522 72.9304 248.652 72.3961C248.831 71.8295 248.513 70.9849 248.144 70.0731C247.425 68.1766 246.676 66.1889 245.888 64.1048C242.76 55.6062 240.492 48.6176 240.828 48.4917C241.161 48.3637 243.971 55.1503 247.098 63.6489C247.853 65.7451 248.571 67.7403 249.258 69.6542C249.546 70.5433 250.044 71.5537 249.653 72.7284C249.45 73.3146 248.889 73.7404 248.401 73.876C247.913 74.029 247.481 74.0387 247.105 74.0606C244.08 74.2279 242.203 74.2429 242.191 74.0681Z" fill="#0C2B34"/>
<path d="M233.418 76.1916C233.904 76.1622 233.909 79.4956 236.685 81.8601C239.451 84.232 242.904 83.8576 242.928 84.3232C242.977 84.5327 242.162 84.9705 240.701 85.0126C239.273 85.0616 237.185 84.5892 235.49 83.1432C233.797 81.6928 233.068 79.7563 232.958 78.3895C232.836 76.9978 233.198 76.172 233.418 76.1916Z" fill="#0C2B34"/>
<path d="M232.139 39.2722C231.845 40.1071 228.863 39.7138 225.364 40.147C221.853 40.5064 219.029 41.5636 218.564 40.8146C218.356 40.4552 218.849 39.6686 219.991 38.8608C221.122 38.0553 222.928 37.289 225.031 37.0479C227.131 36.8113 229.057 37.1542 230.333 37.6884C231.617 38.2204 232.263 38.8759 232.139 39.2722Z" fill="#0C2B34"/>
<path d="M259.602 41.846C259.077 42.5407 257.022 41.8196 254.55 41.785C252.076 41.6622 249.983 42.2529 249.502 41.5235C249.289 41.1709 249.619 40.4716 250.534 39.8116C251.437 39.1538 252.943 38.6166 254.644 38.6686C256.342 38.7251 257.814 39.358 258.672 40.07C259.546 40.7866 259.837 41.5062 259.602 41.846Z" fill="#0C2B34"/>
<path d="M199.755 61.8036C199.424 61.656 186.41 57.7446 186.836 71.4008C187.261 85.057 200.502 81.8035 200.512 81.4117C200.524 81.0198 199.755 61.8036 199.755 61.8036Z" fill="#FFBD9D"/>
<path d="M196.295 76.369C196.236 76.3268 196.071 76.5438 195.685 76.7405C195.309 76.9326 194.657 77.0788 193.956 76.8347C192.538 76.3517 191.285 74.1003 191.144 71.6394C191.072 70.3976 191.288 69.2056 191.686 68.2133C192.062 67.2006 192.667 66.4818 193.369 66.3288C194.066 66.1389 194.581 66.5579 194.755 66.9369C194.944 67.3136 194.868 67.5871 194.94 67.609C194.976 67.6414 195.218 67.3701 195.094 66.811C195.029 66.5398 194.864 66.2256 194.545 65.9716C194.217 65.7155 193.745 65.5941 193.254 65.6657C192.231 65.772 191.34 66.7718 190.904 67.8629C190.411 68.9615 190.138 70.3019 190.219 71.6959C190.39 74.4446 191.838 76.9748 193.776 77.4819C194.719 77.7012 195.488 77.3862 195.881 77.0509C196.281 76.7013 196.344 76.3939 196.295 76.369Z" fill="#EB996D"/>
<path d="M192.375 61.3403C194.399 60.8377 197.903 62.7598 198.768 64.7106C199.63 66.6591 199.819 68.8706 200.681 70.8214C201.541 72.7722 203.488 74.5391 205.514 74.0463C206.913 73.7042 207.913 72.3563 208.283 70.9276C208.651 69.499 208.5 67.9913 208.321 66.5235C207.54 60.146 206.235 53.8227 205.986 47.3985C205.737 40.9742 206.625 34.3013 209.906 28.8303C213.186 23.3569 219.209 19.331 225.438 19.8487C229.565 20.1908 233.349 22.403 237.449 22.9945C242.312 23.6937 247.451 21.9306 250.929 18.3658C251.372 17.91 253.447 16.5062 253.447 16.5062C253.447 16.1739 253.143 13.322 252.049 12.2821C243.916 4.54759 229.258 2.38659 218.516 5.16771C207.772 7.94884 197.702 15.7505 193.079 26.1056C188.457 36.4616 189.829 50.8615 192.375 61.3403Z" fill="#EDAC4A"/>
<path d="M220.48 28.7465C222.281 31.7394 225.496 33.7813 228.904 34.1015C232.309 34.4195 235.831 33.006 238.125 30.3974C239.131 32.9789 241.83 34.7526 244.531 34.6071C247.232 34.4617 249.738 32.4077 250.476 29.7298C251.956 31.2082 253.496 32.7249 255.433 33.4543C257.368 34.1837 259.823 33.9079 261.095 32.2374C262.388 30.5376 262.013 27.9463 260.741 26.2268C259.471 24.5051 257.517 23.4826 255.577 22.65C249.525 20.0513 242.853 18.7455 236.353 19.6519C229.85 20.5561 223.556 23.7976 219.494 29.0939L220.48 28.7465Z" fill="#EDAC4A"/>
<path d="M191.27 56.847C191.27 56.847 191.267 56.8425 191.265 56.835C191.206 56.6255 190.442 53.9649 189.663 50.5953C188.828 46.9643 187.975 42.5112 187.975 39.4196C187.975 35.3575 190.338 11.1638 214.54 3.55432C214.54 3.55432 221.05 1 229.569 1C241.211 1 256.605 5.77109 264.262 28.3689C264.262 28.3689 258.463 21.2756 248.062 20.8024C247.76 20.7873 247.452 20.7768 247.141 20.7723C244.964 20.3488 242.757 20.1198 240.551 20.1198C239.148 20.1198 237.748 20.2109 236.354 20.4053C231.54 21.0752 226.838 23.026 223.073 26.1446C214.099 30.1427 204.945 36.6016 197.703 46.2726C195.37 49.3513 193.208 52.8588 191.27 56.847Z" fill="#3F3F3F"/>
<path d="M193.396 51.5408C200.952 39.6508 211.371 29.82 223.082 22.2972C234.794 14.7691 254.16 7.32767 267.51 3.68229C271.517 2.59124 275.696 1.63281 279.779 2.35917C283.866 3.08553 287.864 5.88172 288.878 10.0176C290.147 15.1933 281.216 23.1788 277.018 26.3193C272.822 29.4599 264.262 34.0667 264.262 34.0667C264.262 34.0667 264.377 24.4673 249.439 22.4894C229.12 19.7949 193.396 51.5408 193.396 51.5408Z" fill="#595959"/>
<path d="M404.5 232.5L362 257.5L456.5 261.5L499.5 236.5L404.5 232.5Z" fill="#6F7ABE" fill-opacity="0.5"/>
<path d="M501 164C500.712 161.5 502.62 162.336 500.208 158.601C497.543 154.473 499.192 148.679 497.051 144.241C495.299 140.609 491.412 138.66 488.855 135.574C485.187 131.149 484.612 124.908 484.361 119.099C483.743 104.792 484.066 90.2788 480.681 76.3864C477.296 62.494 469.491 48.9144 456.927 42.7391L410.203 41.924C403.329 47.2675 399.557 55.9371 397.925 64.6383C396.293 73.3394 396.526 82.2777 396.105 91.1283C395.684 99.981 394.527 109.043 390.41 116.827C387.5 122.329 383.231 126.96 380.198 132.393C377.241 137.692 375.504 143.852 376.127 149.927C376.749 156.002 379.945 161.929 385.087 164.987C390.552 168.237 397.396 167.936 403.49 166.249C406.096 165.528 409.832 165.922 413.661 166.317C419.277 166.897 425.09 167.476 427.824 164.529C430.456 161.69 434.572 169.741 438.433 164.987L441.501 169C445.263 176.428 475.581 197.151 482.001 192C488.418 186.847 494.001 184.5 494.001 184.5C504.194 181.609 500.013 182.943 502.096 179C505.001 173.5 501.966 176.878 502.5 172C500.846 167.5 501.654 169.683 501 164Z" fill="#3B2C23"/>
<path d="M409.751 38.8752C417.736 30.8558 424.52 29.326 432.303 29.0349C444.104 28.5909 456.69 32.3744 465.139 40.856C472.896 48.6425 476.262 60.2048 476.174 71.3526C476.144 75.2848 474.533 78.8445 472.998 82.4477C471.465 86.0509 466.712 90.2504 463.123 91.6055C459.533 92.9621 458.279 91.6076 455.772 88.6392C454.238 86.8239 453.542 84.4398 452.857 82.1405C449.96 72.4244 446.469 62.7075 440.531 54.5843C434.594 46.4611 425.865 40.0241 416.035 38.9965" fill="#E8505B"/>
<path d="M402.412 59.7617C401.378 52.133 404.214 44.061 409.751 38.8753C413.924 34.9684 419.379 32.7456 424.923 31.6689C432.368 30.2233 440.39 30.8033 447.023 34.5665C453.659 38.3282 458.63 45.5964 458.605 53.3899C458.595 56.9279 457.605 60.5087 458.356 63.9611C458.683 65.4614 459.328 67.0424 458.773 68.4684C458.263 69.7759 456.831 70.5145 455.463 70.5327C454.096 70.5489 452.787 69.973 451.593 69.287C447.518 66.9534 444.316 63.3319 441.191 59.7722L402.412 59.7617Z" fill="#3B2C23"/>
<path d="M439.002 37.2782C439.007 37.5749 433.908 36.7605 428.201 39.0465C422.456 41.2384 419.174 45.3291 418.985 45.1033C418.91 45.0394 419.602 43.9389 421.098 42.4968C422.585 41.0546 424.951 39.3558 427.888 38.2005C430.831 37.0565 433.696 36.7107 435.739 36.7724C437.79 36.8286 439.019 37.18 439.002 37.2782Z" fill="black"/>
<path d="M425.353 36.8047C425.457 37.0558 422.689 38.0125 420.626 40.8224C418.5 43.5853 418.295 46.579 418.035 46.539C417.929 46.5369 417.817 45.7829 418.024 44.5807C418.13 43.9417 418.347 43.182 418.696 42.3866C419.002 41.6894 419.408 40.9648 419.928 40.2697C421.048 38.7855 422.43 37.7874 423.506 37.2887C424.587 36.7808 425.325 36.703 425.353 36.8047Z" fill="black"/>
<path d="M418.828 46.2943L454.707 54.529C457.883 55.229 460.009 58.3139 459.603 61.6281L448.734 135.356C447.991 140.392 445.657 145.035 442.088 148.568L438.332 152.287C429.765 160.767 415.301 157.613 411.312 146.094C411.032 145.291 410.861 144.593 410.823 144.048C410.806 143.367 410.698 142.904 410.748 142.336C410.613 136.479 411.758 131.076 411.758 131.076C412.366 124.459 412.648 121.747 412.638 121.807C412.638 121.807 399.322 118.007 398.397 99.5093C397.937 90.3094 399.914 75.5241 401.912 63.4813C403.713 52.6408 408.375 43.9859 418.828 46.2943Z" fill="#EB996D"/>
<path d="M412.643 121.806C412.643 121.806 424.46 123.899 437.004 117.903C437.004 117.903 429.744 129.844 412.217 126.203L412.643 121.806Z" fill="#E7793F"/>
<path d="M404.232 76.0004C404.062 77.2279 404.932 78.3866 406.173 78.5942C407.415 78.7977 408.561 77.9735 408.731 76.746C408.901 75.5185 408.031 74.3576 406.789 74.1521C405.546 73.9445 404.399 74.7729 404.232 76.0004Z" fill="#0D0D0D"/>
<path d="M404.241 71.5387C404.49 71.8732 406.344 70.7545 408.784 71.0294C411.224 71.2658 412.884 72.7542 413.18 72.4758C413.323 72.3537 413.093 71.7736 412.375 71.1045C411.666 70.4388 410.416 69.729 408.895 69.5691C407.375 69.4105 406.034 69.8475 405.239 70.3546C404.428 70.866 404.115 71.3878 404.241 71.5387Z" fill="#0D0D0D"/>
<path d="M427.211 78.8433C427.041 80.0708 427.912 81.2296 429.155 81.4372C430.396 81.6406 431.542 80.8165 431.711 79.589C431.881 78.3615 431.011 77.2013 429.77 76.9937C428.526 76.7882 427.383 77.6158 427.211 78.8433Z" fill="#0D0D0D"/>
<path d="M428.184 74.6361C428.433 74.9707 430.29 73.8519 432.727 74.1269C435.169 74.3633 436.826 75.8517 437.123 75.5732C437.266 75.4512 437.041 74.8704 436.319 74.2012C435.61 73.5335 434.359 72.8265 432.838 72.6644C431.318 72.508 429.979 72.9429 429.183 73.4521C428.373 73.9635 428.06 74.4853 428.184 74.6361Z" fill="#0D0D0D"/>
<path d="M417.396 92.2847C417.423 92.143 415.934 91.7081 413.507 91.1133C412.892 90.9786 412.316 90.7872 412.255 90.3382C412.157 89.8599 412.489 89.1963 412.869 88.4851C413.614 86.9974 414.397 85.4381 415.218 83.8031C418.496 77.1353 420.94 71.6221 420.68 71.4896C420.416 71.357 417.544 76.6534 414.266 83.3233C413.472 84.9695 412.713 86.5386 411.992 88.0411C411.68 88.7432 411.189 89.526 411.408 90.5206C411.527 91.0186 411.947 91.4156 412.335 91.5699C412.722 91.7411 413.073 91.786 413.378 91.8372C415.838 92.2461 417.372 92.4264 417.396 92.2847Z" fill="#0D0D0D"/>
<path d="M417.805 98.4466C418.806 97.3496 420.412 96.8621 421.922 97.1988C422.967 97.4338 423.984 98.0756 424.536 99.0323C425.088 99.9891 425.091 101.266 424.419 102.046C423.662 102.927 422.263 102.995 421.133 102.528C420.003 102.061 419.082 101.16 418.212 100.271C417.971 100.026 417.726 99.7688 417.591 99.4525C417.459 99.1361 417.464 98.7433 417.692 98.5175" fill="#E7793F"/>
<path d="M424.4 94.8078C424.003 94.7404 423.717 97.4648 421.248 99.151C418.785 100.844 415.991 100.228 415.931 100.606C415.877 100.774 416.506 101.205 417.694 101.368C418.859 101.537 420.606 101.339 422.116 100.308C423.623 99.273 424.382 97.7566 424.587 96.6469C424.806 95.519 424.582 94.8113 424.4 94.8078Z" fill="#0D0D0D"/>
<path d="M428.562 67.0011C428.732 67.7103 431.202 67.6534 434.028 68.3212C436.871 68.9321 439.09 70.0474 439.534 69.4764C439.734 69.2036 439.398 68.5162 438.532 67.7537C437.676 66.9913 436.264 66.2043 434.564 65.8185C432.865 65.4362 431.261 65.5457 430.173 65.8676C429.077 66.1875 428.491 66.6665 428.562 67.0011Z" fill="#0D0D0D"/>
<path d="M406.087 60.6406C406.456 61.2572 408.2 60.8497 410.225 61.0425C412.255 61.1646 413.919 61.8352 414.375 61.2824C414.579 61.0117 414.367 60.4113 413.675 59.7891C412.993 59.169 411.806 58.596 410.412 58.4851C409.017 58.3799 407.76 58.7636 406.998 59.2707C406.221 59.7779 405.926 60.3404 406.087 60.6406Z" fill="#0D0D0D"/>
<path d="M451.432 91.5551C451.575 90.202 453.429 87.1733 454.752 87.108C458.283 86.932 464.513 87.9042 463.632 96.9841C462.427 109.396 450.561 105.591 450.575 105.233C450.585 104.953 450.937 96.2315 451.432 91.5551Z" fill="#EB996D"/>
<path d="M454.721 100.909C454.776 100.875 454.915 101.082 455.253 101.286C455.583 101.484 456.169 101.659 456.823 101.481C458.144 101.132 459.42 99.1599 459.696 96.9279C459.837 95.8022 459.71 94.7016 459.407 93.7701C459.128 92.8246 458.618 92.1337 457.987 91.9499C457.365 91.7318 456.872 92.0811 456.689 92.4136C456.495 92.7446 456.546 93.0007 456.48 93.0154C456.443 93.0427 456.242 92.7811 456.389 92.2789C456.463 92.0369 456.633 91.7584 456.938 91.5494C457.251 91.3369 457.69 91.2562 458.132 91.353C459.057 91.515 459.809 92.4809 460.141 93.5029C460.525 94.534 460.693 95.7734 460.534 97.0374C460.214 99.5309 458.743 101.743 456.948 102.083C456.078 102.223 455.393 101.886 455.057 101.557C454.713 101.212 454.677 100.927 454.721 100.909Z" fill="#E7793F"/>
<path d="M418.824 45.5562C419.126 51.6586 425.285 51.8838 430.71 54.3794C433.606 55.7128 437.201 56.4402 438.666 59.3357C440.163 62.2915 438.611 66.1136 439.969 69.1381C441.854 73.3326 448.323 73.9814 449.581 78.4159C450.129 80.3511 449.457 82.4953 450.039 84.4215C450.815 86.9894 453.777 88.4119 456.348 87.9265C458.919 87.439 461.022 85.4182 462.276 83.0593C463.532 80.7004 464.062 78.0153 464.522 75.3689C465.424 70.1615 466.112 64.8089 465.176 59.6085C463.213 48.7098 450.213 32.3112 439.454 31.6982" fill="#3B2C23"/>
</svg>
