<svg xmlns="http://www.w3.org/2000/svg" viewBox="0 0 700 700" role="img" aria-label="Therr logo">
  <title>Therr</title>
  <g fill="#000000">
    <path fill-rule="evenodd" d="M12 350A338 338 0 1 0 688 350A338 338 0 1 0 12 350ZM46 350A304 304 0 1 0 654 350A304 304 0 1 0 46 350Z"/>
    <path d="M373 207c-12.9 2.7-39.8 8.2-59.7 12.2l-36.1 7.2-5.6-3.7c-3.1-2.1-9.9-7.3-15.1-11.7-5.8-4.9-9.7-7.5-10-6.8-.2.7-13.7 66.3-30 145.8s-29.9 145.3-30.1 146.2c-.5 1.7 1.7 1.8 36.8 1.8h37.3l17.9-84.8c9.9-46.6 19.2-88.6 20.7-93.4 6.9-21.4 14.7-30.8 31.2-37.5 9.4-3.8 19.2-5.4 37.6-6.1l17.4-.7 6.3-35c6.6-36.2 6.9-38.5 5.7-38.4-.5 0-11.4 2.2-24.3 4.9"/>
    <path d="M437.6 203.7c-.3 1-8.4 39.4-18.1 85.3s-18.9 87.4-20.5 92.2c-6.6 19.7-13.3 28.3-27.3 34.8-11.3 5.3-21 7.1-41.4 7.7-9.5.3-17.3.7-17.3.9s-2.9 16.7-6.5 36.6-6.3 36.3-6.1 36.5 22.2-4.1 49-9.6 53.9-11 60.2-12.1l11.5-2.1 4.5 2.6c2.5 1.5 9.3 6.7 15.2 11.6s10.8 8.6 10.9 8.2c.5-1.6 60.3-292.7 60.3-293.5 0-.4-16.6-.8-36.9-.8-34.3 0-37 .1-37.5 1.7"/>
  </g>
</svg>
