<?xml version="1.0" standalone="no"?>
<!DOCTYPE svg PUBLIC "-//W3C//DTD SVG 20010904//EN"
 "http://www.w3.org/TR/2001/REC-SVG-20010904/DTD/svg10.dtd">
<svg version="1.0" xmlns="http://www.w3.org/2000/svg"
 width="1350.000000pt" height="1350.000000pt" viewBox="0 0 1350.000000 1350.000000"
 preserveAspectRatio="xMidYMid meet">

<g transform="translate(0.000000,1350.000000) scale(0.100000,-0.100000)"
fill="#000000" stroke="none">
<path d="M6365 13364 c-127 -8 -396 -36 -538 -55 -2169 -293 -4069 -1628
-5057 -3553 -960 -1868 -971 -4046 -31 -5925 581 -1158 1513 -2139 2648 -2785
746 -424 1545 -697 2398 -820 360 -52 490 -61 960 -61 461 0 540 4 895 51
2310 303 4302 1779 5244 3887 293 655 465 1311 543 2072 25 245 25 938 0 1180
-90 856 -293 1575 -652 2300 -935 1893 -2720 3229 -4820 3609 -170 31 -388 61
-595 82 -148 15 -843 27 -995 18z m665 -954 c571 -31 1093 -131 1620 -312
1705 -588 3023 -1922 3575 -3620 364 -1120 362 -2324 -6 -3448 -153 -466 -391
-955 -667 -1370 -197 -297 -427 -575 -697 -846 -227 -227 -370 -352 -600 -527
-2082 -1574 -4973 -1565 -7045 22 -691 529 -1256 1218 -1640 1998 -472 959
-658 2037 -535 3103 138 1191 673 2331 1501 3200 528 554 1095 960 1786 1278
841 387 1791 570 2708 522z"/>
<path d="M6045 11618 c-14 -39 -1745 -6042 -1742 -6044 5 -5 907 -261 907
-257 0 14 936 3260 968 3358 128 389 365 871 540 1099 122 158 288 285 452
345 126 46 181 55 320 55 117 -1 147 -4 225 -28 211 -64 379 -167 573 -350 34
-33 64 -57 66 -55 31 38 566 844 566 853 0 19 -218 245 -304 315 -103 84 -232
166 -350 221 -255 121 -484 137 -736 54 -233 -77 -402 -198 -729 -519 -124
-121 -191 -181 -186 -165 106 342 260 892 251 895 -6 2 -184 54 -396 115 -212
61 -393 113 -403 116 -9 3 -19 -1 -22 -8z"/>
<path d="M8386 8502 c-2 -4 -216 -736 -474 -1627 -259 -891 -493 -1685 -520
-1765 -153 -449 -396 -911 -587 -1117 -224 -243 -560 -375 -845 -334 -215 32
-443 161 -626 354 l-80 84 -244 -350 c-135 -193 -269 -386 -299 -429 l-54 -77
39 -48 c73 -89 225 -232 332 -313 178 -134 412 -238 605 -270 201 -32 448 12
629 113 152 85 374 271 583 490 69 71 125 127 125 123 0 -4 -59 -208 -131
-453 -71 -245 -128 -447 -125 -450 6 -6 820 -243 822 -240 13 19 1754 6051
1748 6056 -5 4 -178 56 -384 114 -206 59 -405 116 -442 126 -37 11 -70 16 -72
13z"/>
</g>
</svg>
