<svg xmlns="http://www.w3.org/2000/svg" viewBox="0 0 1200 400" role="img" aria-label="Therr wordmark">
  <title>Therr</title>
  <path fill="#ffffff" d="M271.1 41.2c-5 29.7-43.2 307.1-43.4 316.2-.2 5.7-.1 5.9 2.6 6.7 1.5.4 16.8.9 34 1.1l31.1.3 10.1-72.9 10-72.9 12-7.9c36.8-24.1 57.2-31.2 70.4-24.3 5.6 2.9 6.6 5.6 6.4 18-.1 11.9-.5 14.8-12.4 100.4-4.3 31.6-7.7 57.6-7.5 57.8.6.6 39.9 2.2 55.3 2.3h13.2l1-5.3c.6-2.8 4.4-29.3 8.6-58.7 17.6-126.4 18-131.7 10.7-147.4-6.2-13.3-18.5-22.5-35.3-26.6-9.3-2.2-23.4-2.6-33.6-1-23.4 3.8-49.8 17-75.7 37.9-4.9 3.9-9.1 7-9.3 6.8s.8-5.1 2.2-10.8c4.9-20.5 20-115.6 19.3-121.7-.3-2.4-.8-2.8-5.3-3.4-2.7-.3-18.1-.7-34.1-.7l-29.2-.1zM99.5 68c-1.2.4-2.6 1.4-3.2 2.1-1 1.3-6.4 36-7.9 51.2-.4 3.8-1.3 7.4-2 8.1-1.5 1.5-14.6 3.3-31.6 4.2-8.1.5-11.8 1-11.8 1.9 0 2.2-5 39-5.6 41.2l-.6 2.3h21.6c11.9 0 21.6.2 21.6.4 0 .3-1.3 8.7-3 18.8-7.4 46.1-15.2 107.1-15.3 119.8 0 13.5 4.2 26.3 11.5 34.5 4.7 5.5 14.5 12 21.8 14.7 6.2 2.2 7.6 2.3 33.5 2.2 27.9 0 38.5-1.1 52.7-5.2l6.1-1.7-.6-19.7c-.7-22.2-1.4-24.9-6.9-26.6-1.8-.6-10.2-1.3-18.6-1.6-28-1-29.6-2.7-26.7-29.5 3.8-35.2 12.4-98.1 14.1-102.5.3-.8 1.3-1.8 2.2-2.2.9-.5 14.3-1.1 29.7-1.4 30.1-.6 31.4-.8 33.5-6 .5-1.4 1.9-9.3 3.1-17.5 3.6-26 3.6-23.1-.1-23.9-1.8-.3-16.2-.6-32.1-.6-27.8 0-28.9-.1-28.9-1.9 0-2.2 3.9-29.6 7-48.3 1.1-7 2-13 2-13.3 0-.9-63.4-.4-65.5.5m518.8 59c-27.8 3.5-58.9 18.1-71.9 33.8-24.4 29.7-38.2 103.3-27.3 146 10.6 41.7 35.8 59.1 91.4 63.2 27 2 67.5-1.2 96.4-7.6 15.1-3.4 21.8-6.4 22.7-10 .6-2.5-.7-22-2.3-34l-.5-4.1-56.2-.7c-32.4-.4-58.4-1.1-61.5-1.7-6.5-1.3-13.7-7.5-17.1-14.7-2.1-4.4-5.8-20.7-4.9-21.6.2-.2 15.5-1.8 33.9-3.6 64.2-6.1 82.3-9.3 98.8-17.6 11.3-5.7 18-11.5 24.2-21.1 7.3-11.1 8.5-16.9 8.5-40.8 0-18.1-.2-20.7-2.3-27.4-1.9-5.9-3.4-8.5-7.5-12.9-9.8-10.4-27-19.6-41.2-22.1-14.6-2.5-71-4.6-83.2-3.1m58.1 50.9c6.9 1.7 8 3.8 8.5 14.9.4 13.4-1 19.3-6.2 24.7-3.5 3.6-5.6 4.7-12.7 6.8-4.7 1.4-11.6 3-15.5 3.6-10.8 1.7-49.5 6.1-53.9 6.1h-3.9l.7-3.8c.9-5.7 5.2-20.2 8.7-29.3 5.5-14.2 14.4-21.6 29-23.8 7.4-1.2 39.6-.6 45.3.8M943 130.6c-46.6 9.9-80.9 16.6-88 17.1l-7.5.6-14.4-9.7c-7.9-5.3-14.9-9.5-15.5-9.3s-2.1 5.5-3.4 11.8c-4.8 23.9-38.6 223.8-38 224.4.2.2 15.6 0 34.3-.5s35.6-.9 37.6-1h3.6l3.8-23.3c12.1-75.7 18.1-102.1 25.8-114.4 5.9-9.3 18.6-17.6 31.8-20.8 3.5-.8 14.5-2 24.4-2.6 9.9-.5 18.4-1.4 18.9-1.9 1.5-1.5 11.6-64.6 11.6-72.6 0-3.2-.3-3.1-25 2.2m178 3.4c-20.1 4.4-44.9 9.6-55.2 11.7-22.3 4.4-21.6 4.5-37.7-6.2-10.1-6.7-16.7-10.3-17.5-9.4-1 1.1-7.3 37.2-22.6 129.4-9.4 56.1-17.2 103-17.5 104.3l-.5 2.2h74.7l1.1-5.2c.6-2.9 4.3-24 8.1-46.8 8-47.3 9-52.5 13.2-67 4-13.7 6.9-19 15.4-27.6 12.1-12.2 21.7-15.2 50.3-16.1 17.6-.5 18.2-.6 18.7-2.7 1.7-7.8 9.7-59.6 10.2-66.4.6-8.2.6-8.2-1.8-8.1-1.3 0-18.8 3.6-38.9 7.9"/>
</svg>
