<svg id="icon-stroke-medium-asl-interpreter" xmlns="http://www.w3.org/2000/svg" viewBox="0 0 24 24"><path fill="none"  stroke-linecap="round" stroke-linejoin="round" stroke-miterlimit="10" d="M20.5 9.417h-3V5a1.5 1.5 0 0 1 3 0v4.417zM17.5 9.417h-3V6.893a1.5 1.5 0 0 1 3 0v2.524zM23.5 16.459V5.896c0-.833-.672-1.509-1.5-1.509s-1.5.676-1.5 1.509v3.521"/><path fill="none"  stroke-linecap="round" stroke-linejoin="round" stroke-miterlimit="10" d="M20 23.5h-4.5c-1.657 0-3-1.351-3-3.018v-6.538c0-.833.672-1.509 1.5-1.509s1.5.676 1.5 1.509v2.012l2 2.012 2-3.018-1-2.515H14c-.828 0-1.5-.676-1.5-1.509 0-.833.672-1.509 1.5-1.509h6.5l3 7.041L20 23.5zM3.5 14.583h3V19a1.5 1.5 0 0 1-3 0v-4.417zM6.5 14.583h3v2.524a1.5 1.5 0 0 1-3 0v-2.524zM.5 7.541v10.562c0 .833.672 1.509 1.5 1.509s1.5-.676 1.5-1.509v-3.521"/><path fill="none"  stroke-linecap="round" stroke-linejoin="round" stroke-miterlimit="10" d="M4 .5h4.5c1.657 0 3 1.351 3 3.018v6.538c0 .833-.672 1.509-1.5 1.509s-1.5-.676-1.5-1.509V8.044l-2-2.012-2 3.018 1 2.515H10c.828 0 1.5.676 1.5 1.509 0 .833-.672 1.509-1.5 1.509H3.5l-3-7.041L4 .5z"/></svg>