<svg id="icon-stroke-medium-attempts" xmlns="http://www.w3.org/2000/svg" viewBox="0 0 24 24"><path fill="none"  stroke-miterlimit="10" d="M19.072 20.579H2.035a1.48 1.48 0 0 1-1.481-1.481V2.061A1.48 1.48 0 0 1 2.035.58h17.037a1.48 1.48 0 0 1 1.481 1.481v17.037a1.48 1.48 0 0 1-1.481 1.481z"/><path fill="none"  stroke-miterlimit="10" d="M20.565 3.579h1.4a1.48 1.48 0 0 1 1.481 1.481v17.037a1.48 1.48 0 0 1-1.481 1.481H4.928a1.48 1.48 0 0 1-1.481-1.481V20.6"/><path fill="none"  stroke-linecap="round" stroke-linejoin="round" stroke-miterlimit="10" d="M6.5 11.5L10 15l5.5-8.5"/></svg>