<svg id="icon-stroke-medium-capture" xmlns="http://www.w3.org/2000/svg" viewBox="0 0 24 24"><path fill="none"  stroke-linecap="round" stroke-linejoin="round" stroke-miterlimit="10" d="M.5 7.5v-7h7M.5 16.5v7h7M23.5 7.5v-7h-7M23.5 16.5v7h-7M13.5 4.5h-3l-2 2H5.269c-.977 0-1.769-.208-1.769.769v9.462c0 .977.792 1.769 1.769 1.769h13.462c.977 0 1.769-.791 1.769-1.769V8.269c0-.977-.792-1.769-1.769-1.769H15.5l-2-2z"/><circle fill="none"  stroke-linecap="round" stroke-linejoin="round" stroke-miterlimit="10" cx="12" cy="12.5" r="4"/><circle fill="none"  stroke-linecap="round" stroke-linejoin="round" stroke-miterlimit="10" cx="17.5" cy="9.5" r=".5"/><path fill="none"  stroke-linecap="round" stroke-linejoin="round" stroke-miterlimit="10" d="M7.5 6.5v-1h-2v1"/></svg>