<svg id="icon-stroke-medium-erase" xmlns="http://www.w3.org/2000/svg" viewBox="0 0 24 24"><g fill="none"  stroke-linecap="round" stroke-miterlimit="10" stroke-dasharray="0,2"><path d="M14.5 21.5h-13M.5 21.5"/></g><path fill="none"  stroke-miterlimit="10" d="M16.095 18a.747.747 0 0 1-.403-.117L.83 8.41a.69.69 0 0 1-.265-.88l1.259-2.744a.724.724 0 0 1 .362-.355l5.406-2.368a.753.753 0 0 1 .671.035l13.316 7.628c.097.056.18.133.24.224l1.561 2.297a.695.695 0 0 1-.182.963l-6.676 4.658a.764.764 0 0 1-.427.132z"/><path fill="none"  stroke-miterlimit="10" d="M15.981 17.975v-5.161l5.402-3.096M7.736 12.533l1.303-3.871 5.236-2.884M15.981 12.815L2.333 4.652"/></svg>