<svg id="icon-stroke-medium-language" xmlns="http://www.w3.org/2000/svg" viewBox="0 0 24 24"><path fill="none"  stroke-miterlimit="10" d="M17.928 5.62C16.374 7.056 14.283 8.428 12 8.428c-2.438 0-4.346-1.194-5.928-2.808M6.072 18.38c1.582-1.614 3.489-2.808 5.928-2.808 2.41 0 4.35 1.227 5.928 2.808"/><path fill="none"  stroke-miterlimit="10" d="M7.05 12c0 3.316 1.468 6.332 3.868 8.589.582.548 1.583.548 2.165 0 2.4-2.257 3.868-5.273 3.868-8.589s-1.468-6.332-3.868-8.589c-.582-.548-1.583-.548-2.165 0C8.518 5.668 7.05 8.684 7.05 12z"/><circle fill="none"  stroke-miterlimit="10" cx="12" cy="12" r="9"/><path fill="none"  stroke-linecap="round" stroke-linejoin="round" stroke-miterlimit="10" d="M12 .5C5.659.5.5 5.659.5 12c0 2.166.605 4.269 1.751 6.097L.808 23.481l5.519-1.479A11.478 11.478 0 0 0 12 23.5c6.341 0 11.5-5.159 11.5-11.5S18.341.5 12 .5z"/><path fill="none"  stroke-miterlimit="10" d="M3 12h18M12 3v18"/></svg>