<svg id="icon-stroke-medium-link" xmlns="http://www.w3.org/2000/svg" viewBox="0 0 24 24"><g fill="none"  stroke-linecap="round" stroke-linejoin="round" stroke-miterlimit="10"><path d="M11.599 14.994a3.227 3.227 0 0 0 .692 3.534l4.028 4.028a3.224 3.224 0 0 0 4.561 0l1.675-1.675a3.224 3.224 0 0 0 0-4.561l-4.028-4.028a3.226 3.226 0 0 0-3.458-.723M12.407 8.992a3.226 3.226 0 0 0-.698-3.519L7.681 1.445a3.224 3.224 0 0 0-4.561 0L1.445 3.12a3.224 3.224 0 0 0 0 4.561l4.028 4.028a3.224 3.224 0 0 0 3.53.693M16.375 16.375L7.658 7.658"/></g></svg>