<svg id="icon-stroke-medium-multiple-instructors" xmlns="http://www.w3.org/2000/svg" viewBox="0 0 24 24"><g fill="none"  stroke-linejoin="round" stroke-miterlimit="10"><path d="M15.027 7.853c.114-2.054 1.539-3.677 3.279-3.677 1.815 0 3.286 1.765 3.286 3.943s-1.471 3.943-3.286 3.943c-.663 0-1.28-.236-1.796-.641M17.783 18.348h4.598a5.07 5.07 0 0 0 1.039-3.06c0-1.952-1.107-3.628-2.715-4.49M7.649 11.291c-.546.485-1.222.772-1.954.772-1.815 0-3.286-1.765-3.286-3.943S3.88 4.177 5.695 4.177c1.729 0 3.145 1.602 3.276 3.636"/><path d="M3.296 10.799c-1.608.862-2.715 2.538-2.715 4.49 0 1.153.395 2.204 1.039 3.06H6.2"/><g><ellipse cx="12" cy="11.694" rx="4.436" ry="5.093"/><path d="M7.912 13.676c-.997 1.312-1.829 3.355-1.829 5.299 0 .893.135 1.744.371 2.535h11.091a8.86 8.86 0 0 0 .371-2.535c0-1.961-.817-3.984-1.829-5.299"/></g></g></svg>