<svg id="icon-stroke-medium-outline" xmlns="http://www.w3.org/2000/svg" viewBox="0 0 24 24"><path fill="none"  stroke-linejoin="round" stroke-miterlimit="10" d="M.5.5h23v23H.5z"/><path fill="none"  stroke-miterlimit="10" d="M5.5 17.787l.232.469.518.076-.375.365.089.516-.464-.243-.464.243.089-.516-.375-.365.518-.076.232-.469zM5.5 11.787l.232.47.518.075-.375.365.089.516-.464-.243-.464.244.089-.516-.375-.366.518-.075.232-.47zM5.5 5.787l.232.469.518.076-.375.365.089.516L5.5 6.97l-.464.243.089-.516-.375-.365.518-.076.232-.469z"/><path fill="none"  stroke-linecap="round" stroke-linejoin="round" stroke-miterlimit="10" d="M10.5 6.5h9M10.5 12.5h9M10.5 18.5h9"/></svg>