<svg id="icon-stroke-medium-presentation-menu" xmlns="http://www.w3.org/2000/svg" viewBox="0 0 24 24"><g fill="none"  stroke-linejoin="round" stroke-miterlimit="10"><path d="M15.048 9.746c.115-2.068 1.549-3.703 3.302-3.703 1.828 0 3.309 1.778 3.309 3.971s-1.482 3.971-3.309 3.971a2.914 2.914 0 0 1-1.809-.645M17.824 20.315h4.63a5.102 5.102 0 0 0 1.046-3.081c0-1.966-1.114-3.654-2.734-4.522"/></g><g fill="none"  stroke-linejoin="round" stroke-miterlimit="10"><path d="M7.618 13.208c-.55.489-1.231.778-1.968.778-1.828 0-3.309-1.778-3.309-3.971S3.822 6.043 5.65 6.043c1.741 0 3.168 1.613 3.299 3.661"/><path d="M3.234 12.712C1.614 13.58.5 15.268.5 17.233c0 1.161.398 2.22 1.046 3.081h4.612"/></g><g fill="none"  stroke-linejoin="round" stroke-miterlimit="10"><ellipse cx="12" cy="13.613" rx="4.468" ry="5.129"/><path d="M7.883 15.61c-1.004 1.322-1.842 3.378-1.842 5.337 0 .899.136 1.756.373 2.553h11.17a8.946 8.946 0 0 0 .373-2.553c0-1.975-.823-4.012-1.842-5.337"/></g><path fill="none"  stroke-linejoin="round" stroke-miterlimit="10" d="M2.341 11.5H.5V.5h23v11h-1.969"/></svg>