<svg id="icon-stroke-medium-share-file" xmlns="http://www.w3.org/2000/svg" viewBox="0 0 24 24"><path fill="none"  stroke-linecap="round" stroke-linejoin="round" stroke-miterlimit="10" d="M18.5 9.5h4.284c.43 0 .764.334.71.712l-1.452 12.016c0 .7-.647 1.272-1.438 1.272H3.355c-.791 0-1.437-.572-1.437-1.272L.506 10.212c-.054-.378.279-.712.71-.712H15.5M18.5 7h2.492c.791 0 1.438.625 1.438 1.389V9.5M1.511 9.01V5.453c0-.794.647-1.443 1.437-1.443h5.206c.163 0 .322.056.45.158l3.199 2.673a.714.714 0 0 0 .45.159H15.5M17 .5V16M13.019 4.49L17 .51l3.981 3.98"/></svg>