<svg id="icon-stroke-medium-split-screen" xmlns="http://www.w3.org/2000/svg" viewBox="0 0 24 24"><path fill="none"  stroke-linecap="round" stroke-linejoin="round" stroke-miterlimit="10" d="M10.5 15v7.5a1 1 0 0 1-1 1h-8a1 1 0 0 1-1-1v-21a1 1 0 0 1 1-1h8a1 1 0 0 1 1 1V10M13.5 10V1.5a1 1 0 0 1 1-1h8a1 1 0 0 1 1 1v21a1 1 0 0 1-1 1h-8a1 1 0 0 1-1-1V15"/><path fill="none"  stroke-linecap="round" stroke-linejoin="round" stroke-miterlimit="10" d="M17.5 15.5l3-3-3-3M6.5 9.5l-3 3 3 3M20.5 12.5h-17M.5 4.5h10M13.5 4.5h10"/></svg>