<svg id="icon-stroke-medium-stream" xmlns="http://www.w3.org/2000/svg" viewBox="0 0 24 24"><path fill="none"  stroke-miterlimit="10" d="M19.862 3.31C17.801 5.215 15.028 7.034 12 7.034c-3.234 0-5.764-1.583-7.862-3.724M4.138 20.69c2.098-2.141 4.628-3.724 7.862-3.724 3.196 0 5.77 1.628 7.862 3.724"/><path fill="none"  stroke-miterlimit="10" d="M6.845 12c0 4.237 1.529 8.091 4.028 10.975.606.7 1.648.7 2.255 0 2.499-2.884 4.028-6.738 4.028-10.975s-1.529-8.091-4.028-10.975c-.606-.7-1.648-.7-2.255 0C8.373 3.909 6.845 7.763 6.845 12z"/><circle fill="none"  stroke-miterlimit="10" cx="12" cy="12" r="11.5"/><path fill="none"  stroke-miterlimit="10" d="M.5 12h23M12 .5v23"/></svg>