<svg id="icon-stroke-medium-unlock" xmlns="http://www.w3.org/2000/svg" viewBox="0 0 24 24"><path fill="none"  stroke-miterlimit="10" d="M12 20.5c-.831 0-1.511-.68-1.511-1.511V15.01c0-.831.68-1.511 1.511-1.511.831 0 1.511.68 1.511 1.511v3.979c0 .831-.68 1.511-1.511 1.511z"/><path fill="none"  stroke-width=".919" stroke-miterlimit="10" d="M19.387 23.5H4.613A2.113 2.113 0 0 1 2.5 21.387v-8.775c0-1.167.946-2.113 2.113-2.113h14.775c1.167 0 2.113.946 2.113 2.113v8.775a2.114 2.114 0 0 1-2.114 2.113z"/><path fill="none"  stroke-linecap="round" stroke-miterlimit="10" d="M17.477 5.5a5.443 5.443 0 0 0-5.422-5h-.11A5.445 5.445 0 0 0 6.5 5.945V10"/></svg>