<?xml version="1.0" encoding="UTF-8" standalone="yes"?>
<svg version="1.2" width="700.000000pt" height="700.000000pt" viewBox="0 0 700.000000 700.000000" preserveAspectRatio="xMidYMid meet" baseProfile="tiny-ps" xmlns="http://www.w3.org/2000/svg">
  <title>Therr, Inc.</title>
  <g transform="translate(0.000000,700.000000) scale(0.100000,-0.100000)" fill="#1c7f8a" stroke="none">
    <path d="M3273 6870 c-624 -46 -1210 -253 -1708 -603 -312 -219 -624 -531&#xA;-839 -840 -640 -921 -781 -2122 -369 -3162 175 -442 418 -811 757 -1151 724&#xA;-723 1691 -1069 2721 -973 843 79 1647 494 2207 1138 195 225 328 421 464 686&#xA;494 963 494 2107 0 3070 -100 195 -171 311 -286 465 -524 702 -1267 1169&#xA;-2103 1320 -257 47 -605 67 -844 50z m538 -655 c432 -50 841 -200 1199 -440&#xA;173 -115 274 -198 420 -345 430 -429 688 -949 782 -1575 18 -122 18 -588 0&#xA;-710 -94 -624 -354 -1149 -781 -1576 -427 -427 -952 -687 -1576 -781 -122 -18&#xA;-588 -18 -710 0 -521 79 -971 272 -1365 589 -111 88 -318 295 -404 403 -327&#xA;410 -531 896 -591 1409 -19 161 -19 461 0 622 60 513 264 999 591 1409 86 108&#xA;293 315 404 403 394 317 886 528 1365 586 50 6 101 13 115 15 72 10 438 4 551&#xA;-9z"/>
    <path d="M3730 4930 c-129 -27 -398 -82 -597 -122 l-361 -72 -56 37 c-31 21&#xA;-99 73 -151 117 -58 49 -97 75 -100 68 -2 -7 -137 -663 -300 -1458 -163 -795&#xA;-299 -1453 -301 -1462 -5 -17 17 -18 368 -18 l373 0 179 848 c99 466 192 886&#xA;207 934 69 214 147 308 312 375 94 38 192 54 376 61 l174 7 63 350 c66 362 69&#xA;385 57 384 -5 0 -114 -22 -243 -49z"/>
    <path d="M4376 4963 c-3 -10 -84 -394 -181 -853 -97 -459 -189 -874 -205 -922&#xA;-66 -197 -133 -283 -273 -348 -113 -53 -210 -71 -414 -77 -95 -3 -173 -7 -173&#xA;-9 0 -2 -29 -167 -65 -366 -36 -199 -63 -363 -61 -365 2 -2 222 41 490 96 268&#xA;55 539 110 602 121 l115 21 45 -26 c25 -15 93 -67 152 -116 59 -49 108 -86&#xA;109 -82 5 16 603 2927 603 2935 0 4 -166 8 -369 8 -343 0 -370 -1 -375 -17z"/>
  </g>
</svg>
