<svg id="icon-color-large-announcement" xmlns="http://www.w3.org/2000/svg" viewBox="0 0 38 38"><path fill="#FFD8D6" d="M13 35.5c-1.8 0-3.5-1.6-3.5-3.4l2.8-13 3.2 3.2 1 9.8c0 1.7-1.7 3.4-3.5 3.4z"/><path fill="#767676" d="M12.6 20l2.4 2.4 1 9.6c0 1.5-1.5 3-3 3s-2.9-1.4-3-2.9L12.6 20m-.6-2L9 32c0 2.1 1.9 4 4 4s4-1.9 4-4l-1-10-4-4z"/><path fill="#FFF" d="M7.1 20.5c-.3-.1-.6-.4-.6-.5v-7c0-.2.4-.5.6-.5l22.9-7c.2 0 .4.2.4.5v21c0 .3-.2.5-.4.5l-22.9-7z"/><path fill="#767676" d="M30 6v21L7.3 20.1c-.1 0-.2-.1-.3-.2v-6.8c.1-.1.2-.1.3-.1L30 6m0-1L7 12s-1 .3-1 1v7c0 .6 1 1 1 1l23 7c.5 0 1-.5 1-1V6c0-.5-.5-1-1-1z"/><g><path fill="#FFF" d="M28 30.5c-.3 0-.5-.2-.5-.5V4c0-.3.2-.5.5-.5h5c.3 0 .5.2.5.5v26c0 .3-.2.5-.5.5h-5z"/><path fill="#767676" d="M33 4v26h-5V4h5m0-1h-5c-.5 0-1 .5-1 1v26c0 .5.5 1 1 1h5c.5 0 1-.5 1-1V4c0-.5-.5-1-1-1z"/></g><path fill="#767676" d="M4.5 20c-.3 0-.5-.2-.5-.5v-6c0-.3.2-.5.5-.5s.5.2.5.5v6c0 .3-.2.5-.5.5z"/><path fill="#FFF" d="M5 14h1v5H5z"/></svg>