<svg id="icon-color-medium-audio-on-c" xmlns="http://www.w3.org/2000/svg" viewBox="0 0 24 24"><path fill="none" stroke="#39E179" stroke-linecap="round" stroke-linejoin="round" stroke-miterlimit="10" d="M12 19.5c-3.038 0-5.5-2.475-5.5-5.527V6.028C6.5 2.975 8.962.5 12 .5s5.5 2.475 5.5 5.527v7.945c0 3.053-2.462 5.528-5.5 5.528z"/><path fill="#FFF" stroke="#FFF" stroke-linecap="round" stroke-miterlimit="10" d="M8.5 8.5V14.028c0 1.943 1.567 3.517 3.5 3.517s3.5-1.575 3.5-3.517V8.5h-7z"/><path fill="none" stroke="#80F36B" stroke-linecap="round" stroke-linejoin="round" stroke-miterlimit="10" d="M4.5 9.5v5.147c0 3.91 3.57 6.682 7.483 6.85.027.007.055 0 .083 0h-.132c.028 0 .055.007.083 0 3.914-.168 7.483-2.941 7.483-6.85V9.5M15 23.5H9M12 23v-1.5"/></svg>