<svg id="icon-color-large-blank-space-a" xmlns="http://www.w3.org/2000/svg" viewBox="0 0 38 38"><path fill="none" d="M222 122h38v11.875h-38zM512.289 122h38v11.875h-38zM280.058 180h38v11.875h-38zM338.116 180h38v11.875h-38zM570.347 180h38v11.875h-38zM686.463 180h38v11.875h-38zM-161.479 64h38v11.875h-38zM-161.479 122h38v11.875h-38zM-103.421 122h38v11.875h-38z"/><path fill="#166CAA" d="M-689-139v-7c0-1.1.9-2 2-2h7.649c.227 0 .448.077.626.219l4.451 3.561c.178.142.399.22.627.22H-661c1.1 0 2 .9 2 2v3h-30z"/><path fill="#008EFF" d="M-659-140v18c0 1.1-.9 2-2 2h-26c-1.1 0-2-.9-2-2v-18h30z"/><path fill="#095E92" d="M-689-141h30v1h-30z"/><path fill="#FFF" stroke="#FF3B30" stroke-linecap="round" stroke-linejoin="round" stroke-miterlimit="10" d="M31.5 33.5h-25c-1.1 0-2-.9-2-2v-25c0-1.1.9-2 2-2h25c1.1 0 2 .9 2 2v25c0 1.1-.9 2-2 2z"/><path fill="#FFF" d="M9.5 9.5h19v19h-19z"/><g fill="none" stroke="#FF3B30" stroke-miterlimit="10"><path d="M28.5 27.5v1h-1"/><path stroke-dasharray="1.8889,2.8333" d="M24.667 28.5h-12.75"/><path d="M10.5 28.5h-1v-1"/><path stroke-dasharray="1.8889,2.8333" d="M9.5 24.667v-12.75"/><path d="M9.5 10.5v-1h1"/><path stroke-dasharray="1.8889,2.8333" d="M13.333 9.5h12.75"/><path d="M27.5 9.5h1v1"/><path stroke-dasharray="1.8889,2.8333" d="M28.5 13.333v12.75"/></g></svg>