<svg id="icon-color-large-blog-a" xmlns="http://www.w3.org/2000/svg" viewBox="0 0 38 38"><path fill="#FFF" d="M31.002 4H6.998A1.999 1.999 0 0 0 5 5.998v23.003C5 30.105 5.895 31 6.998 31H15l4 4 4-4h8.002A1.999 1.999 0 0 0 33 29.002V5.998A1.999 1.999 0 0 0 31.002 4z"/><path fill="#FFF" d="M15.207 30.5H6.999A1.5 1.5 0 0 1 5.5 29.002V5.999A1.5 1.5 0 0 1 6.999 4.5h24.003A1.5 1.5 0 0 1 32.5 5.999v23.003a1.5 1.5 0 0 1-1.498 1.498h-8.209L19 34.293 15.207 30.5z"/><path fill="#FF3B30" d="M31.002 5a1 1 0 0 1 .998.998v23.003a1 1 0 0 1-.998.999h-8.416l-.293.293L19 33.586l-3.293-3.293-.293-.293H6.998A1 1 0 0 1 6 29.002V5.998A1 1 0 0 1 6.998 5h24.004m0-1H6.998A1.999 1.999 0 0 0 5 5.998v23.003C5 30.105 5.895 31 6.998 31H15l4 4 4-4h8.002A1.999 1.999 0 0 0 33 29.002V5.998A1.999 1.999 0 0 0 31.002 4z"/><path fill="#FFF" stroke="#FF3B30" stroke-linecap="round" stroke-miterlimit="10" d="M10.5 11.5h17M10.5 15.5h17M10.5 19.5h17M10.5 23.5h8"/></svg>