<svg id="icon-color-large-calculation-a" xmlns="http://www.w3.org/2000/svg" viewBox="0 0 38 38"><path fill="#FFF" d="M31 33H6c-1.1 0-2-.9-2-2V6c0-1.1.9-2 2-2h25c1.1 0 2 .9 2 2v25c0 1.1-.9 2-2 2z"/><path fill="#FFF" d="M31 33H6c-1.1 0-2-.9-2-2V6c0-1.1.9-2 2-2h25c1.1 0 2 .9 2 2v25c0 1.1-.9 2-2 2z"/><path fill="#FBE9E8" d="M18.5 18.5v14.062h12.123c1.067 0 1.94-.873 1.94-1.94V18.5H18.5z"/><path fill="none" stroke="#FF3B30" stroke-linecap="round" stroke-linejoin="round" stroke-miterlimit="10" d="M28.5 24.5h-6M28.5 26.5h-6"/><path fill="#FF3B30" d="M18 5h1v27h-1z"/><path fill="#FF3B30" d="M5 18h27v1H5z"/><path fill="#FF3B30" d="M31 5c.551 0 1 .449 1 1v25c0 .551-.449 1-1 1H6c-.551 0-1-.449-1-1V6c0-.551.449-1 1-1h25m0-1H6c-1.1 0-2 .9-2 2v25c0 1.1.9 2 2 2h25c1.1 0 2-.9 2-2V6c0-1.1-.9-2-2-2z"/><path fill="none" stroke="#FF3B30" stroke-linecap="round" stroke-linejoin="round" stroke-miterlimit="10" d="M11.5 8.5v6M14.5 11.5h-6M28.5 11.5h-6M9.379 23.379l4.242 4.242M13.621 23.379l-4.242 4.242"/></svg>