<svg id="icon-color-large-calendar" xmlns="http://www.w3.org/2000/svg" viewBox="0 0 38 38"><path fill="#FFD8D6" d="M8 29.5c-.827 0-1.5-.673-1.5-1.5V9c0-.827.673-1.5 1.5-1.5h22c.827 0 1.5.673 1.5 1.5v19c0 .827-.673 1.5-1.5 1.5H8z"/><path fill="#767676" d="M30 8c.551 0 1 .449 1 1v19c0 .551-.449 1-1 1H8c-.551 0-1-.449-1-1V9c0-.551.449-1 1-1h22m0-1H8c-1.1 0-2 .9-2 2v19c0 1.1.9 2 2 2h22c1.1 0 2-.9 2-2V9c0-1.1-.9-2-2-2z"/><path fill="#FFF" d="M6 31.5c-.827 0-1.5-.673-1.5-1.5V11c0-.827.673-1.5 1.5-1.5h26c.827 0 1.5.673 1.5 1.5v19c0 .827-.673 1.5-1.5 1.5H6z"/><path fill="#767676" d="M32 10c.551 0 1 .449 1 1v19c0 .551-.449 1-1 1H6c-.551 0-1-.449-1-1V11c0-.551.449-1 1-1h26m0-1H6c-1.1 0-2 .9-2 2v19c0 1.1.9 2 2 2h26c1.1 0 2-.9 2-2V11c0-1.1-.9-2-2-2z"/><path fill="#767676" d="M5 16h28v1H5z"/><path fill="none" stroke="#767676" stroke-linecap="round" stroke-miterlimit="10" d="M11.5 6.5v4M26.5 6.5v4"/></svg>