<svg id="icon-color-large-class-pulse-c" xmlns="http://www.w3.org/2000/svg" viewBox="0 0 38 38"><path fill="#666" d="M5 33.5c-.827 0-1.5-.673-1.5-1.5V6c0-.827.673-1.5 1.5-1.5h28c.827 0 1.5.673 1.5 1.5v26c0 .827-.673 1.5-1.5 1.5H5z"/><path fill="#FFF" d="M33 5c.551 0 1 .449 1 1v26c0 .551-.449 1-1 1H5c-.551 0-1-.449-1-1V6c0-.551.449-1 1-1h28m0-1H5c-1.1 0-2 .9-2 2v26c0 1.1.9 2 2 2h28c1.1 0 2-.9 2-2V6c0-1.1-.9-2-2-2z"/><circle fill="#39E379" cx="19.5" cy="8.5" r="8.5"/><g fill="none" stroke="#FFF" stroke-linecap="round" stroke-miterlimit="10"><path d="M19.5 5.5v6M22.5 8.5h-6"/></g><circle fill="#FF3C30" cx="19.5" cy="29.5" r="8.5"/><path fill="none" stroke="#FFF" stroke-linecap="round" stroke-miterlimit="10" d="M22.5 29.5h-6"/><g fill="#FFF"><path d="M4 18h2v2H4zM8 18h2v2H8zM12 18h2v2h-2zM16 18h2v2h-2zM20 18h2v2h-2zM24 18h2v2h-2zM28 18h2v2h-2zM32 18h2v2h-2z"/></g></svg>