<svg id="icon-color-large-collaborate-a" xmlns="http://www.w3.org/2000/svg" viewBox="0 0 38 38"><path fill="none" d="M222 122h38v11.875h-38zM512.289 122h38v11.875h-38zM280.058 180h38v11.875h-38zM338.116 180h38v11.875h-38zM570.347 180h38v11.875h-38zM686.463 180h38v11.875h-38zM-161.479 64h38v11.875h-38zM-161.479 122h38v11.875h-38zM-103.421 122h38v11.875h-38z"/><path fill="#166CAA" d="M-689-139v-7c0-1.1.9-2 2-2h7.649c.227 0 .448.077.626.219l4.451 3.561c.178.142.399.22.627.22H-661c1.1 0 2 .9 2 2v3h-30z"/><path fill="#008EFF" d="M-659-140v18c0 1.1-.9 2-2 2h-26c-1.1 0-2-.9-2-2v-18h30z"/><path fill="#095E92" d="M-689-141h30v1h-30z"/><path fill="#FFF" d="M28.5 22l7.492 4.86c.664.388 1.508-.078 1.508-.833V11.973c0-.755-.845-1.221-1.508-.833L28.5 16v6z"/><path fill="#FBE9E8" stroke="#FF3B30" stroke-linejoin="round" stroke-miterlimit="10" d="M34.5 12.108L28.5 16v6l6 3.892zM28.5 18.5v10a1 1 0 0 1-1 1h-26a1 1 0 0 1-1-1v-10h28z"/><path fill="#FFF" d="M.5 18.5v-9a1 1 0 0 1 1-1h26a1 1 0 0 1 1 1v9H.5z"/><path fill="none" stroke="#FF3B30" stroke-linecap="round" stroke-miterlimit="10" d="M35.992 11.14L28.5 16V9.5a1 1 0 0 0-1-1h-26a1 1 0 0 0-1 1v19a1 1 0 0 0 1 1h26a1 1 0 0 0 1-1V22l7.492 4.86c.664.388 1.508-.078 1.508-.833V11.973c0-.755-.845-1.222-1.508-.833z"/><path fill="#FFF" stroke="#FF3B30" stroke-linecap="round" stroke-miterlimit="10" d="M28.5 16v6M28.5 18.5h-3"/><path fill="#FFF" stroke="#FF3B30" stroke-miterlimit="10" d="M34.5 12v14"/><path fill="#FFF" stroke="#FF3B30" stroke-linecap="round" stroke-linejoin="round" stroke-miterlimit="10" d="M3.521 11.5h22v15h-22z"/><path fill="#FFF" stroke="#FF3B30" stroke-linecap="round" stroke-miterlimit="10" d="M3.543 18.5h-3"/><path fill="#FFF" d="M11.152 23.631a.996.996 0 0 1-.652-.243.995.995 0 0 1-.345-.682.99.99 0 0 1 .238-.727L12.689 19l-2.313-3a.977.977 0 0 1-.221-.707.998.998 0 0 1 .997-.924c.292 0 .569.127.759.349l2.842 3.648a.987.987 0 0 1-.016 1.284l-2.811 3.611c-.206.243-.483.37-.774.37z"/><path fill="#FF3B30" d="M11.152 14.87c.141 0 .281.059.38.175l2.826 3.63a.5.5 0 0 1 0 .65l-2.826 3.63a.499.499 0 0 1-.705.054.5.5 0 0 1-.055-.705L13.32 19l-2.548-3.305a.5.5 0 0 1 .38-.825m0-1a1.5 1.5 0 0 0-1.16 2.451L12.058 19l-2.066 2.68a1.49 1.49 0 0 0-.335 1.066c.031.4.216.763.52 1.024a1.501 1.501 0 0 0 2.113-.161l2.857-3.668c.455-.529.455-1.35-.03-1.915l-2.797-3.594a1.515 1.515 0 0 0-1.168-.562z"/><g><path fill="#FFF" d="M16.152 23.631a.996.996 0 0 1-.652-.243.995.995 0 0 1-.345-.682.99.99 0 0 1 .238-.727L17.689 19l-2.313-3a.977.977 0 0 1-.221-.707.998.998 0 0 1 .997-.924c.292 0 .569.127.759.349l2.842 3.648a.987.987 0 0 1-.016 1.284l-2.811 3.611c-.206.243-.483.37-.774.37z"/><path fill="#FF3B30" d="M16.152 14.87c.141 0 .281.059.38.175l2.826 3.63a.5.5 0 0 1 0 .65l-2.826 3.63a.499.499 0 0 1-.705.054.5.5 0 0 1-.055-.705L18.32 19l-2.548-3.305a.5.5 0 0 1 .38-.825m0-1a1.5 1.5 0 0 0-1.16 2.451L17.058 19l-2.066 2.68a1.49 1.49 0 0 0-.335 1.066c.031.4.216.763.52 1.024a1.501 1.501 0 0 0 2.113-.161l2.857-3.668c.455-.529.455-1.35-.03-1.915l-2.797-3.594a1.515 1.515 0 0 0-1.168-.562z"/></g></svg>