<svg id="icon-color-large-content-collection" xmlns="http://www.w3.org/2000/svg" viewBox="0 0 38 38"><path fill="#FFF" d="M35.4 26.5L31.6 23v3.5M6.5 23v3.5H2.7z"/><path fill="#FFF" stroke="#767676" stroke-miterlimit="10" d="M29.7 4.5c1 0 1.8.7 1.8 1.5v25.1c0 .8-.8 1.5-1.8 1.5H8.4c-1 0-1.8-.7-1.8-1.5V6c0-.8.8-1.5 1.8-1.5h21.3z"/><path fill="#E0E0E0" stroke="#767676" stroke-linejoin="round" stroke-miterlimit="10" d="M33.3 37.5H4.7c-1.2 0-2.2-.9-2.2-2.1v-8.9h10v3h13v-3h10v8.9c0 1.2-1 2.1-2.2 2.1z"/><path fill="#E0E0E0" d="M25 18c0-3-2.2-5-5-5v5h5z"/><path fill="none" stroke="#BFC1C0" stroke-linejoin="round" stroke-miterlimit="10" d="M23.5 19.5c0 3-2.2 5-5 5s-5-2.2-5-5c0-2.7 2.2-5 4.9-5h.1v5h5z"/><path fill="none" stroke="#767676" stroke-miterlimit="10" d="M2.5 26.5l4-4M35.5 26.5l-4-4"/><path fill="none" stroke="#767676" stroke-linecap="square" stroke-miterlimit="10" d="M10.5.5h17M8.5 2.5h21"/><path fill="none" stroke="#CDCDCD" stroke-linecap="round" stroke-miterlimit="10" d="M10.5 8.5h17M10.5 10.5h13"/><path fill="none" stroke="#E0E0E0" stroke-linejoin="round" stroke-miterlimit="10" d="M10 1.5h18M8 3.5h22"/></svg>