<svg id="icon-color-large-content-collection-c" xmlns="http://www.w3.org/2000/svg" viewBox="0 0 38 38"><path fill="#333" d="M2.5 26.5l4-4h25l4 4z"/><path fill="#969696" d="M31.293 23l3 3H3.707l3-3h24.586m.207-1h-25a.504.504 0 0 0-.354.146l-4 4A.499.499 0 0 0 2.5 27h33a.5.5 0 0 0 .354-.854l-4-4A.504.504 0 0 0 31.5 22z"/><path fill="#DFF1FF" d="M29.65 4H8.35C7.054 4 6 4.886 6 5.974v25.053C6 32.114 7.054 33 8.35 33h21.269c1.296 0 2.35-.886 2.35-1.973L32 5.974C32 4.886 30.946 4 29.65 4z"/><path opacity=".5" fill="#AAC3D4" d="M25 18a5 5 0 0 0-5-5v5h5z"/><path fill="#CEEAF8" stroke="#AAC3D4" stroke-linecap="round" stroke-linejoin="round" stroke-miterlimit="10" d="M23.5 19.5a5 5 0 1 1-5.065-5h.065v5h5z"/><path fill="none" stroke="#CEEAF8" stroke-linejoin="round" stroke-miterlimit="10" d="M10 .5h18"/><path fill="none" stroke="#C4DAE8" stroke-linejoin="round" stroke-miterlimit="10" d="M10 1.5h18"/><path fill="none" stroke="#CEEAF8" stroke-linejoin="round" stroke-miterlimit="10" d="M8 2.5h22"/><path fill="none" stroke="#C4DAE8" stroke-linejoin="round" stroke-miterlimit="10" d="M8 3.5h22"/><path fill="#E0E0E0" stroke="#AAC3D4" stroke-linecap="round" stroke-linejoin="round" stroke-miterlimit="10" d="M10.5 8.5h17M10.5 10.5h13"/><path fill="#CEEAF8" d="M25.5 25a.5.5 0 0 0-.5.5V28H13v-2.5a.5.5 0 0 0-.5-.5H6v6.026C6 32.114 7.054 33 8.35 33h21.269c1.296 0 2.35-.886 2.35-1.973L31.976 25H25.5z"/><path fill="#666" d="M35.5 26h-10a.5.5 0 0 0-.5.5V29H13v-2.5a.5.5 0 0 0-.5-.5h-10a.5.5 0 0 0-.5.5v8.948C2 36.855 3.215 38 4.707 38h28.586C34.785 38 36 36.855 36 35.448V26.5a.5.5 0 0 0-.5-.5z"/><path fill="#555" d="M33.293 36H4.707C3.215 36 2 34.855 2 33.448v2C2 36.855 3.215 38 4.707 38h28.586C34.785 38 36 36.855 36 35.448v-2C36 34.855 34.785 36 33.293 36z"/><g fill="#969696"><path d="M13 27v-.5a.5.5 0 0 0-.5-.5h-10a.5.5 0 0 0-.5.5v.5h11zM13 29h12v1H13zM25 27v-.5a.5.5 0 0 1 .5-.5h10a.5.5 0 0 1 .5.5v.5H25z"/></g></svg>