<svg id="icon-color-large-diploma" xmlns="http://www.w3.org/2000/svg" viewBox="0 0 38 38"><path fill-rule="evenodd" clip-rule="evenodd" fill="#FFF" stroke="#767676" stroke-miterlimit="10" d="M2.556.5h32.889c1.135 0 2.056.912 2.056 2.038v22.925c0 1.125-.92 2.038-2.056 2.038H2.556A2.048 2.048 0 0 1 .5 25.462V2.538C.5 1.412 1.42.5 2.556.5z"/><path fill="none" stroke="#CDCDCD" stroke-linecap="round" stroke-miterlimit="10" d="M4.5 15.5h29M4.5 19.5h13M4.5 23.5h13"/><path fill-rule="evenodd" clip-rule="evenodd" fill="#D4F7FF" d="M30.328 27.6L27.5 30.429l5.657 7.071v-4.243h4.242z"/><path fill="none" stroke="#767676" stroke-linejoin="round" stroke-miterlimit="10" d="M30.328 27.6L27.5 30.429l5.657 7.071v-4.243h4.242z"/><path fill-rule="evenodd" clip-rule="evenodd" fill="#D4F7FF" d="M28.399 30.429L25.571 27.6 18.5 33.257h4.243V37.5z"/><path fill="none" stroke="#767676" stroke-linejoin="round" stroke-miterlimit="10" d="M28.399 30.429L25.571 27.6 18.5 33.257h4.243V37.5z"/><g stroke="#767676" stroke-miterlimit="10"><path fill="#D4F7FF" d="M28 19.274l.92 1.053 1.201-.717.55 1.286 1.363-.311.125 1.393 1.393.125-.311 1.364 1.286.55-.717 1.2 1.053.92-1.053.92.717 1.201-1.286.55.311 1.363-1.393.126-.125 1.392-1.363-.311-.55 1.286-1.201-.717L28 33l-.92-1.053-1.201.717-.55-1.286-1.363.311-.125-1.392-1.393-.126.311-1.363-1.286-.55.717-1.201-1.053-.92 1.053-.92-.717-1.2 1.286-.55-.311-1.364 1.393-.125.125-1.393 1.363.311.55-1.286 1.201.717z"/><path fill-rule="evenodd" clip-rule="evenodd" fill="#FFF9CC" d="M28 22.721a3.42 3.42 0 0 1 3.424 3.416A3.42 3.42 0 0 1 28 29.553a3.42 3.42 0 0 1-3.424-3.416A3.42 3.42 0 0 1 28 22.721z"/></g><path clip-rule="evenodd" fill="none" stroke="#767676" stroke-linecap="round" stroke-linejoin="round" stroke-miterlimit="10" d="M5.5 11.5h-1v-6h1a2 2 0 0 1 2 2v2a2 2 0 0 1-2 2zM20 11.5a1.5 1.5 0 0 1-1.5-1.5V7a1.5 1.5 0 0 1 3 0v3a1.5 1.5 0 0 1-1.5 1.5zM29.5 11.5V7a1.5 1.5 0 0 1 3 0v4.5M29.5 8.5h3M9.5 5.5v6M23.5 5.5v6M23.5 5.5l2 4 2-4v6M11.5 5.5v6M15.5 5.5v6h2M13 8.5h-1.5v-3H13c.583 0 1 .917 1 1.5 0 .667-.333 1.5-1 1.5z"/></svg>