<svg id="icon-color-large-discussion-a" xmlns="http://www.w3.org/2000/svg" viewBox="0 0 38 38"><path fill="#FFF" d="M17.8 30.8c-2.2 0-4.5-.6-6.4-1.7l-.3-.1-6.2 1.6 1.8-5.7-.1-.2c-1.3-2.1-2-4.4-2-6.9 0-7.2 5.8-13 13-13s13 5.8 13 13c.2 7.2-5.6 13-12.8 13z"/><path fill="#FF3B30" d="M17.8 5.3c6.9 0 12.5 5.6 12.5 12.5s-5.6 12.5-12.5 12.5c-2.2 0-4.3-.6-6.2-1.6l-.4-.2-.4.1-5.1 1.3 1.5-4.6.1-.4-.3-.4c-1.2-2-1.9-4.3-1.9-6.6.1-7 5.7-12.6 12.7-12.6m0-1c-7.4 0-13.5 6.1-13.5 13.5 0 2.5.7 5 2.1 7.2l-2.1 6.3 6.8-1.8c2 1.2 4.3 1.8 6.7 1.8 7.4 0 13.5-6.1 13.5-13.5S25.2 4.3 17.8 4.3z"/><path fill="#FBE9E8" d="M28.3 33.6c-1.4.7-3.2 1.2-4.9 1.2-5.5 0-9.7-4.4-9.7-10 0-5.5 4.5-10 10-10 5.6 0 10 4.3 10 9.7 0 1.8-.5 3.8-1.4 5.3L34 35l-5.7-1.4z"/><path fill="#FF3B30" d="M23.8 15.3c5.2 0 9.5 4 9.5 9.2 0 1.8-.5 3.7-1.5 5.2l1.5 4.5-5-1.2c-1.4.8-3.2 1.2-4.8 1.2-5.2 0-9.2-4.3-9.2-9.5-.1-5.1 4.2-9.4 9.5-9.4m0-1c-5.8 0-10.5 4.7-10.5 10.5 0 5.9 4.5 10.5 10.2 10.5 1.7 0 3.5-.4 5-1.1l4.6 1.1 1.7.4-.6-1.7-1.3-4.1c.9-1.6 1.4-3.6 1.4-5.4-.1-5.7-4.6-10.2-10.5-10.2z"/><circle fill="#FF3B30" cx="19.8" cy="24.8" r="1.5"/><g><circle fill="#FF3B30" cx="23.8" cy="24.8" r="1.5"/></g><g><circle fill="#FF3B30" cx="27.8" cy="24.8" r="1.5"/></g></svg>