<svg id="icon-color-large-document-multiple" xmlns="http://www.w3.org/2000/svg" viewBox="0 0 38 38"><path fill="#E0E0E0" d="M8 0h24v35H8z"/><path fill="#E0E0E0" d="M7 3h24v33H7z"/><path fill="#FFF" d="M7 37.5c-.8 0-1.5-.7-1.5-1.5V6c0-.8.7-1.5 1.5-1.5h11.6l2 7.9 7.9 2V36c0 .8-.7 1.5-1.5 1.5H7z"/><path fill="#767676" d="M18.2 5l1.8 7.2.1.6.6.1 7.2 1.8V36c0 .6-.4 1-1 1h-20c-.6 0-1-.4-1-1V6c0-.6.4-1 1-1h11.3m.8-1H7c-1.1 0-2 .9-2 2v30c0 1.1.9 2 2 2h20c1.1 0 2-.9 2-2V14l-8-2-2-8z"/><path fill="#E0E0E0" d="M20 14.5c-.8 0-1.5-.7-1.5-1.5V4.5h.5c.1 0 .3.1.4.1l9 9c.1.1.1.2.1.4v.5H20z"/><path fill="#767676" d="M19 5l9 9h-8c-.5 0-1-.4-1-1V5m0-1h-1v9c0 1.1.9 2 2 2h9v-1c0-.3-.1-.5-.3-.7l-9-9c-.2-.2-.4-.3-.7-.3z"/><path fill="none" stroke="#767676" stroke-linecap="square" stroke-linejoin="round" stroke-miterlimit="10" d="M7.5 2.5h23v33"/><path fill="none" stroke="#767676" stroke-linecap="square" stroke-linejoin="round" stroke-miterlimit="10" d="M8.5.5h24v34"/><path fill="none" stroke="#CDCDCD" stroke-linecap="round" stroke-miterlimit="10" d="M11.5 20.5h11M11.5 23.5h11M11.5 26.5h11M11.5 29.5h11M11.5 32.5h11"/></svg>