<svg id="icon-color-large-document-2x" xmlns="http://www.w3.org/2000/svg" viewBox="0 0 38 38"><path d="M7 37.5c-.827 0-1.5-.673-1.5-1.5V4c0-.827.673-1.5 1.5-1.5h13.609l1.979 7.912 7.912 1.979V36c0 .827-.673 1.5-1.5 1.5H7z" fill="#fff"/><path d="M20.219 3l1.811 7.243.146.582.582.146L30 12.781V36c0 .551-.449 1-1 1H7c-.551 0-1-.449-1-1V4c0-.551.449-1 1-1h13.219M21 2H7c-1.1 0-2 .9-2 2v32c0 1.1.9 2 2 2h22c1.1 0 2-.9 2-2V12l-8-2-2-8z" fill="#767676"/><path d="M21.996 12.5A1.5 1.5 0 0 1 20.5 11V2.5h.5c.133 0 .259.052.354.146l8.999 9.001A.506.506 0 0 1 30.5 12v.5h-8.504z" fill="#e0e0e0"/><path d="M21 2.999l9 9h-8.004A.998.998 0 0 1 21 11V2.999M21 2h-1v9c0 1.1.898 2 1.996 2H31v-1a.995.995 0 0 0-.293-.706l-9-9.003A1.006 1.006 0 0 0 21 2z" fill="#767676"/><path fill="none" stroke="#767676" stroke-linecap="round" stroke-linejoin="round" stroke-miterlimit="10" d="M7.5.5h25v35"/></svg>