<svg id="icon-color-large-document-text-a" xmlns="http://www.w3.org/2000/svg" viewBox="0 0 38 38"><path fill="#FFF" d="M7 37.5c-.827 0-1.5-.673-1.5-1.5V2c0-.827.673-1.5 1.5-1.5h15.609l1.979 7.912 7.912 1.979V36c0 .827-.673 1.5-1.5 1.5H7z"/><path fill="#FF3B30" d="M22.219 1l1.811 7.243.146.582.582.146L32 10.781V36c0 .551-.449 1-1 1H7c-.551 0-1-.449-1-1V2c0-.551.449-1 1-1h15.219M23 0H7C5.9 0 5 .9 5 2v34c0 1.1.9 2 2 2h24c1.1 0 2-.9 2-2V10l-8-2-2-8z"/><path fill="#FBE9E8" d="M23.996 10.5A1.5 1.5 0 0 1 22.5 9V.5h.5c.132 0 .26.053.354.146l9 9.002A.505.505 0 0 1 32.5 10v.5h-8.504z"/><path fill="#FF3B30" d="M23 1l9 9h-8.004A1 1 0 0 1 23 9V1m0-1h-1v9c0 1.1.898 2 1.996 2H33v-1a.995.995 0 0 0-.293-.706l-9-9.003A1.006 1.006 0 0 0 23 0z"/><path fill="#FFF" stroke="#FF3B30" stroke-linecap="round" stroke-miterlimit="10" d="M10.5 15.5h17M10.5 31.5h17M20.5 19.5h7M20.5 23.5h7M20.5 27.5h7"/><path fill="#FBE9E8" stroke="#FF3B30" stroke-linejoin="round" stroke-miterlimit="10" d="M10.5 19.5h7v8h-7z"/></svg>