<svg id="icon-color-large-enterprise-surveys" xmlns="http://www.w3.org/2000/svg" viewBox="0 0 38 38"><path fill="#FFF" d="M7 37.5c-.827 0-1.5-.673-1.5-1.5V5c0-.827.673-1.5 1.5-1.5h24c.827 0 1.5.673 1.5 1.5v31c0 .827-.673 1.5-1.5 1.5H7z"/><path fill="#767676" d="M31 4c.551 0 1 .449 1 1v31c0 .551-.449 1-1 1H7c-.551 0-1-.449-1-1V5c0-.551.449-1 1-1h24m0-1H7c-1.1 0-2 .9-2 2v31c0 1.1.9 2 2 2h24c1.1 0 2-.9 2-2V5c0-1.1-.9-2-2-2z"/><path fill="#E0E0E0" d="M10.5 8.5V7.107c0-1.93 1.57-3.5 3.5-3.5h10c1.93 0 3.5 1.57 3.5 3.5V8.5h-17z"/><path fill="#767676" d="M24 4.108c1.654 0 3 1.346 3 3V8H11v-.892c0-1.654 1.346-3 3-3h10m0-1H14a4 4 0 0 0-4 4V9h18V7.108a4 4 0 0 0-4-4z"/><circle fill="#E0E0E0" stroke="#767676" stroke-miterlimit="10" cx="19" cy="3.5" r="3"/><g fill="none" stroke="#767675" stroke-linecap="round" stroke-miterlimit="10"><path d="M10.5 30.5l3-3M10.5 27.5l3 3"/></g><path fill="none" stroke="#CDCDCD" stroke-linecap="round" stroke-miterlimit="10" d="M16.5 14.5h11M16.5 17.5h7"/><path fill="#FFF" stroke="#CDCDCD" stroke-linecap="round" stroke-linejoin="round" stroke-miterlimit="10" d="M10.5 14.5h3v3h-3z"/><path fill="none" stroke="#CDCDCD" stroke-linecap="round" stroke-miterlimit="10" d="M16.5 20.5h11"/><path fill="none" stroke="#767676" stroke-linecap="round" stroke-miterlimit="10" d="M10.5 32.5h17"/><path fill="none" stroke="#CDCDCD" stroke-linecap="round" stroke-miterlimit="10" d="M16.5 23.5h7"/><path fill="#FFF" stroke="#CDCDCD" stroke-linecap="round" stroke-linejoin="round" stroke-miterlimit="10" d="M10.5 20.5h3v3h-3z"/></svg>