<svg id="icon-color-medium-erase-c" xmlns="http://www.w3.org/2000/svg" viewBox="0 0 24 24"><g fill="none" stroke="#F0F0F0" stroke-linecap="round" stroke-miterlimit="10" stroke-dasharray="0,2"><path d="M14.501 21.773h-13M.501 21.773"/></g><path fill="#F59698" d="M7.394 2.373L1.966 4.755a1.17 1.17 0 0 0-.594.582L.105 8.102a1.15 1.15 0 0 0 .433 1.449l14.936 9.535c.405.259.93.248 1.323-.027l6.707-4.687a1.148 1.148 0 0 0 .298-1.588l-1.57-2.317a1.164 1.164 0 0 0-.387-.358L8.467 2.431a1.194 1.194 0 0 0-1.073-.058z"/><path fill="#F7B2B7" d="M7.394 2.373L1.966 4.755a1.17 1.17 0 0 0-.594.582L.105 8.102a1.15 1.15 0 0 0 .433 1.449l14.936 9.535c.405.259.93.248 1.323-.027l6.707-4.687a1.148 1.148 0 0 0 .298-1.588l-1.57-2.317a1.164 1.164 0 0 0-.387-.358L8.467 2.431a1.194 1.194 0 0 0-1.073-.058z"/><path fill="#F3E8D6" d="M9.574 8.861l5.444-2.671-6.551-3.76a1.197 1.197 0 0 0-1.073-.057L1.966 4.755a1.172 1.172 0 0 0-.595.584L.105 8.102a1.147 1.147 0 0 0 .429 1.446l6.997 4.467 1.464-4.489c.095-.29.304-.529.579-.665z"/><path fill="#F59698" d="M15.018 6.19zM16.089 13.31a.567.567 0 0 1-.569-.009L9.045 9.439c.106-.247.285-.458.529-.578l5.444-2.671 6.658 3.821a.108.108 0 0 1-.001.189l-5.586 3.11z"/><path fill="#DF8383" d="M15.978 18.175l-.182-4.387a.568.568 0 0 0-.277-.487L9.027 9.428l-1.496 4.587 7.487 4.78.456.291c.356.227.799.234 1.17.049 0 0-.339.032-.5-.234-.161-.266-.166-.726-.166-.726z"/><path fill="#D5C3AA" d="M2.019 5.55s-.203-.115-.375-.249 0-.328 0-.328a1.158 1.158 0 0 0-.273.366l-.234.511h.008L.105 8.102c-.24.52-.058 1.135.426 1.444l7 4.469 1.496-4.587L2.019 5.55z"/></svg>