<svg id="icon-color-large-familiar-with-a" xmlns="http://www.w3.org/2000/svg" viewBox="0 0 38 38"><path fill="#B89D00" d="M26.062 37.77"/><path fill="#FFF" d="M27.17 37.5c-.342 0-.668-.13-.918-.366l-7.014-6.625c-.062-.059-.147-.091-.238-.091s-.176.032-.238.091l-7.014 6.625c-.25.236-.576.366-.918.366-.381 0-.746-.157-1-.432a1.23 1.23 0 0 1-.326-.943l1.906-24.444c.052-.662.631-1.181 1.319-1.181h12.543c.688 0 1.267.519 1.319 1.181l1.906 24.444c.027.351-.088.686-.326.943a1.365 1.365 0 0 1-1.001.432z"/><path fill="#FF3B30" d="M25.271 11c.431 0 .789.314.82.72l1.906 24.444c.039.494-.383.836-.826.836a.829.829 0 0 1-.575-.23l-7.014-6.625c-.161-.152-.371-.228-.582-.228s-.421.076-.582.228l-7.014 6.625a.827.827 0 0 1-.575.23c-.443 0-.865-.342-.827-.836l1.906-24.444c.032-.406.389-.72.82-.72h12.543m0-1H12.729c-.947 0-1.745.721-1.817 1.642L9.005 36.086c-.038.492.124.961.458 1.322.348.376.846.592 1.366.592.47 0 .918-.178 1.262-.503L19 30.972l6.909 6.526c.343.323.791.502 1.262.502.52 0 1.018-.216 1.366-.592.334-.361.496-.83.458-1.322l-1.906-24.444c-.072-.921-.87-1.642-1.818-1.642z"/><g><path fill="#FFF" d="M19 25.5c-6.893 0-12.5-5.607-12.5-12.5S12.107.5 19 .5 31.5 6.107 31.5 13 25.893 25.5 19 25.5z"/><path fill="#FF3B30" d="M19 1c6.627 0 12 5.373 12 12s-5.373 12-12 12S7 19.627 7 13 12.373 1 19 1m0-1C11.832 0 6 5.832 6 13s5.832 13 13 13 13-5.832 13-13S26.168 0 19 0z"/><path fill="#FBE9E8" stroke="#FF3B30" stroke-linejoin="round" stroke-miterlimit="10" d="M19 4.5l2.472 5.267 5.528.844-4 4.1.944 5.789L19 17.767 14.056 20.5 15 14.711l-4-4.1 5.528-.844z"/></g></svg>