<svg id="icon-color-large-forum" xmlns="http://www.w3.org/2000/svg" viewBox="0 0 38 38"><path fill="#D0F4F5" d="M4.5 12.5V6c0-.827.673-1.5 1.5-1.5h7.649c.113 0 .225.039.314.11l4.45 3.561c.267.212.6.329.939.329H32c.827 0 1.5.673 1.5 1.5v2.5h-29z"/><path fill="#767676" d="M13.649 5l4.452 3.561c.353.283.798.439 1.251.439H32c.551 0 1 .449 1 1v2H5V6c0-.551.449-1 1-1h7.649m0-1H6c-1.1 0-2 .9-2 2v7h30v-3c0-1.1-.9-2-2-2H19.352c-.228 0-.449-.078-.627-.22l-4.451-3.561A1 1 0 0 0 13.649 4z"/><path fill="#FFF" d="M6 33.5c-.827 0-1.5-.673-1.5-1.5V12.5h29V32c0 .827-.673 1.5-1.5 1.5H6z"/><path fill="#767676" d="M33 13v19c0 .551-.449 1-1 1H6c-.551 0-1-.449-1-1V13h28m1-1H4v20c0 1.1.9 2 2 2h26c1.1 0 2-.9 2-2V12z"/><path fill="#FFF" d="M18.864 30.054a6.672 6.672 0 0 1-5.045-2.256c-1.338-1.5-1.969-3.546-1.732-5.612.363-3.163 2.912-5.72 6.061-6.082.292-.034.582-.05.868-.05 3.937 0 7.022 2.995 7.022 6.818 0 1.23-.356 2.575-.961 3.646l.771 2.369a.794.794 0 0 1-.113.717.803.803 0 0 1-.646.33h-.061l-.131-.023-2.657-.65c-.971.499-2.217.793-3.376.793z"/><path fill="#767676" d="M19.015 16.554c3.572 0 6.522 2.734 6.522 6.318 0 1.206-.377 2.564-1.006 3.587l.839 2.583a.3.3 0 0 1-.357.384l-2.843-.697c-.962.539-2.203.825-3.307.825-3.838 0-6.734-3.367-6.281-7.312.334-2.906 2.715-5.308 5.621-5.641a7.01 7.01 0 0 1 .812-.047m0-1c-.306 0-.617.018-.924.053-3.377.388-6.111 3.13-6.5 6.521-.253 2.208.423 4.397 1.856 6.003a7.17 7.17 0 0 0 5.419 2.423 8.124 8.124 0 0 0 3.433-.764l2.479.607a1.302 1.302 0 0 0 1.545-1.664l-.703-2.164a8.249 8.249 0 0 0 .919-3.697c-.002-4.104-3.306-7.318-7.524-7.318z"/><g><circle fill="#767676" cx="16" cy="23" r="1"/></g><g><circle fill="#767676" cx="19" cy="23" r="1"/></g><g><circle fill="#767676" cx="22" cy="23" r="1"/></g></svg>