<svg id="icon-color-large-forum-c" xmlns="http://www.w3.org/2000/svg" viewBox="0 0 38 38"><path fill="#039696" d="M4 13V6c0-1.1.9-2 2-2h7.649c.227 0 .448.077.626.219l4.451 3.561c.177.142.398.22.626.22H32c1.1 0 2 .9 2 2v3H4z"/><path fill="#3CB5B5" d="M34 12v20c0 1.1-.9 2-2 2H6c-1.1 0-2-.9-2-2V12h30z"/><path fill="#40BEC4" d="M6 31.5c-.827 0-1.5-.673-1.5-1.5V12.5h29V30c0 .827-.673 1.5-1.5 1.5H6z"/><path fill="#40BEC4" d="M33 13v17c0 .551-.449 1-1 1H6c-.551 0-1-.449-1-1V13h28m1-1H4v18c0 1.1.9 2 2 2h26c1.1 0 2-.9 2-2V12z"/><path fill="#047A77" d="M4 11h30v1H4z"/><path fill="#49DBDB" d="M4 12h30v1H4z"/><path fill="#FFF" d="M18.828 30a6.674 6.674 0 0 1-5.046-2.256c-1.338-1.5-1.969-3.546-1.731-5.612.363-3.163 2.912-5.72 6.06-6.082.292-.034.582-.05.868-.05C22.916 16 26 18.995 26 22.817a7.694 7.694 0 0 1-.961 3.647l.771 2.369a.794.794 0 0 1-.113.717.803.803 0 0 1-.646.33h-.06l-.132-.023-2.657-.651c-.971.499-2.215.794-3.374.794z"/><path fill="#FFF" d="M18.978 16.5c3.572 0 6.522 2.734 6.522 6.318 0 1.206-.377 2.564-1.006 3.587l.839 2.583a.3.3 0 0 1-.357.384l-2.843-.697c-.962.539-2.203.825-3.307.825-3.838 0-6.734-3.367-6.281-7.312.334-2.906 2.715-5.308 5.621-5.641a7.01 7.01 0 0 1 .812-.047m0-1c-.306 0-.617.018-.924.053-3.377.388-6.111 3.13-6.5 6.521-.253 2.208.423 4.397 1.856 6.003a7.17 7.17 0 0 0 5.419 2.423 8.124 8.124 0 0 0 3.433-.764l2.479.607a1.305 1.305 0 0 0 1.362-.499c.243-.335.312-.771.184-1.165l-.703-2.164a8.249 8.249 0 0 0 .919-3.697c-.003-4.104-3.307-7.318-7.525-7.318z"/><circle fill="#AAC3D4" cx="15.963" cy="22.946" r="1"/><g><circle fill="#AAC3D4" cx="18.963" cy="22.946" r="1"/></g><g><circle fill="#AAC3D4" cx="21.963" cy="22.946" r="1"/></g></svg>