<svg id="icon-color-large-frown" xmlns="http://www.w3.org/2000/svg" viewBox="0 0 38 38"><circle fill="#FFF9CC" stroke="#767676" stroke-miterlimit="10" cx="19" cy="19" r="18.5"/><path fill="none" stroke="#767676" stroke-linecap="round" stroke-linejoin="round" d="M10.636 29.379l.133-.133c2.184-2.222 4.837-3.333 7.96-3.333s5.789 1.111 7.998 3.333l.133.133"/><path fill="#767676" d="M28.251 13.934c0-.787-.222-1.46-.667-2.019s-.984-.838-1.619-.838c-.622 0-1.155.279-1.6.838-.457.559-.686 1.231-.686 2.019 0 .8.229 1.473.686 2.019.444.559.978.838 1.6.838.635 0 1.174-.279 1.619-.838.445-.546.667-1.219.667-2.019zM13.778 13.934c0-.787-.222-1.46-.667-2.019-.444-.559-.984-.838-1.619-.838-.622 0-1.155.279-1.6.838-.457.559-.686 1.231-.686 2.019 0 .8.229 1.473.686 2.019.444.559.978.838 1.6.838.635 0 1.174-.279 1.619-.838.445-.546.667-1.219.667-2.019z"/><path fill="none" stroke="#767676" stroke-linecap="round" stroke-linejoin="round" d="M30.156 13.058L25.719 8.24M7.341 13.058l4.437-4.818"/></svg>