<svg id="icon-color-large-frown-a" xmlns="http://www.w3.org/2000/svg" viewBox="0 0 38 38"><path fill="none" d="M222 122h38v11.875h-38zM512.289 122h38v11.875h-38zM280.058 180h38v11.875h-38zM338.116 180h38v11.875h-38zM570.347 180h38v11.875h-38zM686.463 180h38v11.875h-38zM-161.479 64h38v11.875h-38zM-161.479 122h38v11.875h-38zM-103.421 122h38v11.875h-38z"/><path fill="#166CAA" d="M-689-139v-7c0-1.1.9-2 2-2h7.649c.227 0 .448.077.626.219l4.451 3.561c.178.142.399.22.627.22H-661c1.1 0 2 .9 2 2v3h-30z"/><path fill="#008EFF" d="M-659-140v18c0 1.1-.9 2-2 2h-26c-1.1 0-2-.9-2-2v-18h30z"/><path fill="#095E92" d="M-689-141h30v1h-30z"/><circle fill="#FFF" stroke="#FF3B30" stroke-linecap="round" stroke-linejoin="round" stroke-miterlimit="10" cx="19" cy="19" r="18.5"/><path fill="none" stroke="#FF3B30" stroke-linecap="round" stroke-linejoin="round" stroke-miterlimit="10" d="M10.636 29.379l.133-.133c2.184-2.222 4.837-3.333 7.96-3.333s5.789 1.111 7.998 3.333l.133.133"/><path fill="#FF3B30" d="M28.251 13.934c0-.787-.222-1.46-.667-2.019-.444-.559-.984-.838-1.619-.838-.622 0-1.155.279-1.6.838-.457.559-.686 1.232-.686 2.019 0 .8.229 1.473.686 2.019.444.559.978.838 1.6.838.635 0 1.174-.279 1.619-.838.445-.546.667-1.219.667-2.019zM13.778 13.934c0-.787-.222-1.46-.667-2.019-.444-.559-.984-.838-1.619-.838-.622 0-1.155.279-1.6.838-.457.559-.686 1.232-.686 2.019 0 .8.229 1.473.686 2.019.444.559.978.838 1.6.838.635 0 1.174-.279 1.619-.838.445-.546.667-1.219.667-2.019z"/><path fill="none" stroke="#FF3B30" stroke-linecap="round" stroke-linejoin="round" stroke-miterlimit="10" d="M30.156 13.058L25.719 8.24M7.341 13.058l4.437-4.818"/></svg>