<svg id="icon-color-large-goal-a" xmlns="http://www.w3.org/2000/svg" viewBox="0 0 38 38"><path fill="#FFF" stroke="#FF3B30" stroke-miterlimit="10" d="M11.5 34c3-.3 4.5-2.5 4.5-4.5h6c0 2 1.5 4.2 3.5 4.5"/><path fill="#FFF" stroke="#FF3B30" stroke-linejoin="round" stroke-miterlimit="10" d="M7 15.5H5.1c-2 0-3.6-1.6-3.6-3.6V7.5H6M32 7.5h4.5v4.4c0 2-1.6 3.6-3.6 3.6H31"/><path fill="#FFF" stroke="#FF3B30" stroke-miterlimit="10" d="M32.5 4.5h-27c-.6 0-1-.4-1-1v-2c0-.6.4-1 1-1h27c.6 0 1 .4 1 1v2c0 .6-.4 1-1 1zM19.1 24.5h-.2c-6.8 0-12.4-5.5-12.4-12.4V4.5h25v7.6c0 6.9-5.5 12.4-12.4 12.4zM21 29.5h-4.1c-1.4 0-2.5-1.1-2.5-2.5s1.1-2.5 2.5-2.5H21c1.4 0 2.5 1.1 2.5 2.5v.1c0 1.3-1.1 2.4-2.5 2.4zM26.5 37.5h-15c-.6 0-1-.4-1-1v-2c0-.6.4-1 1-1h15c.6 0 1 .4 1 1v2c0 .6-.4 1-1 1z"/><path fill="#FBE9E8" stroke="#FF3B30" stroke-linejoin="round" stroke-miterlimit="10" d="M19 8.2l1.7 3.4 3.8.6-2.7 2.7.6 3.8-3.4-1.8-3.4 1.8.6-3.8-2.7-2.7 3.8-.6z"/><path fill="none" d="M0 0h38v38H0z"/></svg>