<svg id="icon-color-large-good-at-a" xmlns="http://www.w3.org/2000/svg" viewBox="0 0 38 38"><path fill="#FFF" d="M27.5 36.5a.995.995 0 0 1-.76-.351L16.707 22.445l-3.285-.76 11.643-6.288 12.083 10.316c.325.28.438.719.289 1.118s-.52.657-.946.657h-7.966l-.009 8.001A1.016 1.016 0 0 1 27.5 36.5z"/><path fill="#FF3B30" d="M25 16l11.822 10.093a.51.51 0 0 1-.333.895h-7.966a.51.51 0 0 0-.509.509v7.992a.508.508 0 0 1-.895.332L17 22l-2.177-.504L25 16m.128-1.206l-.603.326-10.177 5.496-2.328 1.257 2.578.597 1.815.42 9.9 13.523.024.032.026.03A1.5 1.5 0 0 0 27.5 37c.835 0 1.514-.678 1.514-1.51v-7.501h7.475c.637 0 1.193-.386 1.415-.983a1.497 1.497 0 0 0-.429-1.669L25.649 15.239l-.521-.445z"/><path fill="#FFF" d="M10.5 36.5a1.013 1.013 0 0 1-1.014-1.011v-7.992l-7.976-.009c-.426 0-.797-.258-.946-.657a1.002 1.002 0 0 1 .287-1.117l12.085-10.317 11.643 6.288-3.285.76-10.01 13.672c-.22.258-.49.383-.784.383z"/><path fill="#FF3B30" d="M13 16l10.177 5.496L21 22 10.881 35.822a.508.508 0 0 1-.895-.332v-7.992a.51.51 0 0 0-.509-.509H1.51a.51.51 0 0 1-.333-.895L13 16m-.128-1.206l-.521.445L.528 25.333a1.498 1.498 0 0 0-.433 1.672c.222.597.777.983 1.415.983h7.475v7.501c0 .833.679 1.51 1.514 1.51.436 0 .851-.191 1.138-.524l.026-.03.024-.032 9.9-13.523 1.815-.42 2.578-.597-2.328-1.257-10.177-5.496-.603-.326z"/><g><path fill="#FFF" d="M19 25.5c-6.893 0-12.5-5.607-12.5-12.5S12.107.5 19 .5 31.5 6.107 31.5 13 25.893 25.5 19 25.5z"/><path fill="#FF3B30" d="M19 1c6.627 0 12 5.373 12 12s-5.373 12-12 12S7 19.627 7 13 12.373 1 19 1m0-1C11.832 0 6 5.832 6 13s5.832 13 13 13 13-5.832 13-13S26.168 0 19 0z"/><path fill="#FBE9E8" stroke="#FF3B30" stroke-linejoin="round" stroke-miterlimit="10" d="M19 4.5l2.472 5.267 5.528.844-4 4.1.944 5.789L19 17.767 14.056 20.5 15 14.711l-4-4.1 5.528-.844z"/></g></svg>