<svg id="icon-color-large-groups" xmlns="http://www.w3.org/2000/svg" viewBox="0 0 38 38"><path fill="#FFF" stroke="#767676" stroke-linecap="round" stroke-miterlimit="10" d="M30 20.97l-4 5M8 20.97l4 5"/><path fill="#D4F7FF" stroke="#767676" stroke-linejoin="round" stroke-miterlimit="10" d="M7 7.47c-3.59 0-6.5 3.264-6.5 7.29 0 1.357.336 2.622.912 3.71h11.176a7.915 7.915 0 0 0 .912-3.71c0-4.026-2.91-7.29-6.5-7.29z"/><path fill="#FFF" d="M7 11.47c-2.481 0-4.5-2.467-4.5-5.5S4.519.47 7 .47s4.5 2.467 4.5 5.5-2.019 5.5-4.5 5.5z"/><path fill="#767676" d="M7 .97c2.206 0 4 2.243 4 5s-1.794 5-4 5-4-2.243-4-5 1.794-5 4-5m0-1c-2.761 0-5 2.686-5 6s2.239 6 5 6 5-2.686 5-6-2.239-6-5-6z"/><path fill="#F3E2F7" stroke="#767676" stroke-miterlimit="10" d="M31 7.47c-3.59 0-6.5 3.264-6.5 7.29 0 1.357.336 2.622.912 3.71h11.176a7.915 7.915 0 0 0 .912-3.71c0-4.026-2.91-7.29-6.5-7.29z"/><path fill="#FFF" d="M31 11.47c-2.481 0-4.5-2.467-4.5-5.5S28.519.47 31 .47s4.5 2.467 4.5 5.5-2.019 5.5-4.5 5.5z"/><path fill="#767676" d="M31 .97c2.206 0 4 2.243 4 5s-1.794 5-4 5-4-2.243-4-5 1.794-5 4-5m0-1c-2.761 0-5 2.686-5 6s2.239 6 5 6 5-2.686 5-6-2.239-6-5-6z"/><path fill="#D7F9E4" stroke="#767676" stroke-linejoin="round" stroke-miterlimit="10" d="M19 26.47c-3.59 0-6.5 3.264-6.5 7.29 0 1.357.336 2.622.912 3.71h11.176a7.915 7.915 0 0 0 .912-3.71c0-4.026-2.91-7.29-6.5-7.29z"/><g><path fill="#FFF" d="M19 30.47c-2.481 0-4.5-2.468-4.5-5.5s2.019-5.5 4.5-5.5 4.5 2.467 4.5 5.5-2.019 5.5-4.5 5.5z"/><path fill="#767676" d="M19 19.97c2.206 0 4 2.243 4 5s-1.794 5-4 5-4-2.243-4-5 1.794-5 4-5m0-1c-2.761 0-5 2.686-5 6s2.239 6 5 6 5-2.686 5-6-2.239-6-5-6z"/></g></svg>