<svg id="icon-color-large-groups-a" xmlns="http://www.w3.org/2000/svg" viewBox="0 0 38 38"><path fill="none" stroke="#FF3B30" stroke-linecap="round" stroke-linejoin="round" stroke-miterlimit="10" d="M30 21l-4 5M8 21l4 5"/><path fill="#FBE9E8" stroke="#FF3B30" stroke-linejoin="round" stroke-miterlimit="10" d="M7 7.5C3.41 7.5.5 10.764.5 14.79c0 1.357.336 2.622.912 3.71h11.176a7.915 7.915 0 0 0 .912-3.71c0-4.026-2.91-7.29-6.5-7.29z"/><path fill="#FFF" d="M7 11.5c-2.481 0-4.5-2.467-4.5-5.5S4.519.5 7 .5s4.5 2.467 4.5 5.5-2.019 5.5-4.5 5.5z"/><path fill="#FF3B30" d="M7 1c2.206 0 4 2.243 4 5s-1.794 5-4 5-4-2.243-4-5 1.794-5 4-5m0-1C4.239 0 2 2.686 2 6s2.239 6 5 6 5-2.686 5-6-2.239-6-5-6z"/><path fill="#FBE9E8" stroke="#FF3B30" stroke-linejoin="round" stroke-miterlimit="10" d="M31 7.5c-3.59 0-6.5 3.264-6.5 7.29 0 1.357.336 2.622.912 3.71h11.176a7.915 7.915 0 0 0 .912-3.71c0-4.026-2.91-7.29-6.5-7.29z"/><path fill="#FFF" d="M31 11.5c-2.481 0-4.5-2.467-4.5-5.5S28.519.5 31 .5s4.5 2.467 4.5 5.5-2.019 5.5-4.5 5.5z"/><path fill="#FF3B30" d="M31 1c2.206 0 4 2.243 4 5s-1.794 5-4 5-4-2.243-4-5 1.794-5 4-5m0-1c-2.761 0-5 2.686-5 6s2.239 6 5 6 5-2.686 5-6-2.239-6-5-6z"/><path fill="#FBE9E8" stroke="#FF3B30" stroke-linejoin="round" stroke-miterlimit="10" d="M19 26.5c-3.59 0-6.5 3.264-6.5 7.29 0 1.357.336 2.622.912 3.71h11.176a7.915 7.915 0 0 0 .912-3.71c0-4.026-2.91-7.29-6.5-7.29z"/><g><path fill="#FFF" d="M19 30.5c-2.481 0-4.5-2.468-4.5-5.5s2.019-5.5 4.5-5.5 4.5 2.468 4.5 5.5-2.019 5.5-4.5 5.5z"/><path fill="#FF3B30" d="M19 20c2.206 0 4 2.243 4 5s-1.794 5-4 5-4-2.243-4-5 1.794-5 4-5m0-1c-2.761 0-5 2.686-5 6s2.239 6 5 6 5-2.686 5-6-2.239-6-5-6z"/></g></svg>