<svg id="icon-color-medium-hand-pointer-a" xmlns="http://www.w3.org/2000/svg" viewBox="0 0 24 24"><path fill="#C26FD2" d="M18.997 11V9.76c0-1.248-1.082-2.25-2.412-2.25h-.175c-1.33 0-2.412 1.002-2.412 2.234V9.25c0-1.248-1.082-2.25-2.412-2.25h-.175c-1.33 0-2.412 1.002-2.412 2.234V3c0-1.279-1.082-2.5-2.412-2.5h-.178C5.079.5 3.997 1.721 3.997 3v6.608a2.763 2.763 0 0 0-1.74.071C.871 10.208.155 11.821.659 13.275l3.119 7.363A4.557 4.557 0 0 0 8.03 23.5h8.681c3.196 0 6.786-2.642 6.786-5.995V11c0-1.292-.957-2.25-2.134-2.25h-.232c-1.177 0-2.134.958-2.134 2.25"/><path fill="#D498DF" d="M6.585 1c1.001 0 1.912.953 1.912 2v7.51a.5.5 0 0 0 1 0V3c0-1.598-1.36-3-2.912-3v1z"/><g fill="#D498DF"><path d="M2.078 9.211a3.286 3.286 0 0 1 2.061-.083.5.5 0 1 1-.276.961 2.277 2.277 0 0 0-1.428.056l-.357-.934zM21.363 9.25c.932 0 1.634.752 1.634 1.75v6.505c0 1.556-.855 2.684-2.075 3.42l.983.983c1.246-1.139 2.092-2.666 2.092-4.403V11c0-1.542-1.157-2.75-2.634-2.75v1z"/></g><path fill="#955CA1" d="M6.585 0h-.176C4.857 0 3.497 1.402 3.497 3v11.75a.5.5 0 0 0 1 0V3c0-1.047.911-2 1.912-2h.176V0zM11.585 7.5h-.176c-1.055 0-1.912.778-1.912 1.734V10.5a.5.5 0 0 1-1 0V9.234c0-1.507 1.307-2.734 2.912-2.734h.176v1z"/><path fill="#D498DF" d="M11.585 7.5c1.055 0 1.912.785 1.912 1.75V10a.5.5 0 0 0 1 0v-.75c0-1.516-1.307-2.75-2.912-2.75v1z"/><path fill="#955CA1" d="M16.585 8.01h-.176c-1.055 0-1.912.778-1.912 1.733v.767a.5.5 0 0 1-1 0v-.766c0-1.507 1.307-2.733 2.912-2.733h.176v.999z"/><path fill="#D498DF" d="M16.585 8.01c1.055 0 1.912.785 1.912 1.75V11a.5.5 0 0 0 1 0V9.76c0-1.516-1.307-2.75-2.912-2.75v1z"/><g fill="#955CA1"><path d="M20.923 20.926C19.717 21.654 18.156 22 16.711 22H8.03c-1.692 0-3.146.022-3.793-1.558L1.13 13.111c-.417-1.202.169-2.532 1.305-2.966l-.357-.934c-1.635.624-2.483 2.521-1.88 4.258l3.116 7.357A5.083 5.083 0 0 0 8.03 24h8.681c1.832 0 3.779-.788 5.2-2.086l-.988-.988zM21.363 8.25h-.233c-1.477 0-2.634 1.208-2.634 2.75a.5.5 0 0 0 1 0c0-.998.702-1.75 1.634-1.75h.232v-1z"/></g></svg>