<svg id="icon-color-medium-hang-up" xmlns="http://www.w3.org/2000/svg" viewBox="0 0 24 24"><path fill="none"  stroke-miterlimit="10" d="M11.971 3.5c-5.638 0-8.175.877-10.051 2.759C.994 7.189.53 8.368.5 9.874V12.5c0 .57.416 1 .969 1h4.276c.566 0 1.222-.505 1.255-1v-2c0-1.14.746-2 1.736-2h6.529c.989 0 1.736.86 1.736 2v2c.033.495.689 1 1.255 1h4.276c.553 0 .969-.43.969-1V9.874c-.029-1.506-.494-2.686-1.421-3.615C20.204 4.376 17.661 3.5 12.023 3.5h-.052zM.5 10.5H7M17 10.5h6.5"/><path fill="none" stroke="#EE4136" stroke-linecap="round" stroke-miterlimit="10" d="M11.997 12.5v8"/><path fill="none" stroke="#EE4136" stroke-linecap="round" stroke-linejoin="round" stroke-miterlimit="10" d="M8.997 17.5l2.999 3 3.001-3"/></svg>