<svg id="icon-color-large-help-ticket-c" xmlns="http://www.w3.org/2000/svg" viewBox="0 0 38 38"><path fill="#14C4CA" d="M23 1v.518c0 2.089-1.527 3.955-3.607 4.153A4 4 0 0 1 15 1.69V1a1 1 0 0 0-1-1H8a1 1 0 0 0-1 1v36a1 1 0 0 0 1 1h6a1 1 0 0 0 1-1v-.394c0-2.089 1.527-3.955 3.607-4.153A4.001 4.001 0 0 1 23 36.435V37a1 1 0 0 0 1 1h6a1 1 0 0 0 1-1V1a1 1 0 0 0-1-1h-6a1 1 0 0 0-1 1z"/><path fill="#2EDFE0" d="M7 25v12a1 1 0 0 0 1 1h6a1 1 0 0 0 1-1v-.394c0-2.089 1.527-3.955 3.607-4.153A4.001 4.001 0 0 1 23 36.435V37a1 1 0 0 0 1 1h6a1 1 0 0 0 1-1V25H7z"/><g fill="none" stroke="#D3F7F7" stroke-linecap="round" stroke-linejoin="round" stroke-miterlimit="10"><path d="M19.034 20.135L19 10M22.951 16.007l-3.917 4.44-3.918-4.44"/></g><g fill="#12B0B0"><path d="M8 25h2v1H8zM12 25h2v1h-2zM16 25h2v1h-2zM20 25h2v1h-2zM24 25h2v1h-2zM28 25h2v1h-2z"/></g><path opacity=".3" fill="#FFF" d="M8 1.005V1h6v.69a5.006 5.006 0 0 0 5.488 4.977C22.018 6.426 24 4.164 24 1.518V1h6v36h-.036l.522.856A.986.986 0 0 0 31 37V1a1 1 0 0 0-1-1h-6a1 1 0 0 0-1 1v.518c0 2.089-1.527 3.955-3.607 4.153A4 4 0 0 1 15 1.69V1a1 1 0 0 0-1-1H8a.972.972 0 0 0-.514.163L8 1.005z"/><path opacity=".2" fill="#303030" d="M8 38h6a1 1 0 0 0 1-1v-.394c0-2.089 1.527-3.955 3.607-4.153A4 4 0 0 1 23 36.434V37a1 1 0 0 0 1 1h6c.18 0 .34-.061.486-.144L29.964 37H24v-.565a5.006 5.006 0 0 0-5.488-4.977c-2.53.241-4.512 2.503-4.512 5.148V37H8V1.005L7.486.163A.983.983 0 0 0 7 1v36a1 1 0 0 0 1 1z"/></svg>