<svg id="icon-color-large-help-a" xmlns="http://www.w3.org/2000/svg" viewBox="0 0 38 38"><path fill="#FFF" stroke="#FF3B30" stroke-linejoin="round" stroke-miterlimit="10" d="M19 1.5C9.335 1.5 1.5 9.33 1.5 18.988c0 3.423.999 6.607 2.701 9.304L2.531 36.5l7.887-2.281A17.41 17.41 0 0 0 19 36.475c9.665 0 17.5-7.83 17.5-17.488S28.665 1.5 19 1.5z"/><path fill="#FFF" stroke="#FF3B30" stroke-linecap="round" stroke-miterlimit="10" d="M13.512 16.12c0-2.664 2.457-4.823 5.488-4.823s5.488 2.159 5.488 4.823c0 2.029-1.426 3.766-3.445 4.478-1.205.425-2.043 1.519-2.043 2.797v1.225"/><circle fill="#FF3B30" cx="19" cy="27.929" r=".774"/></svg>