<svg id="icon-color-large-individual-chat" xmlns="http://www.w3.org/2000/svg" viewBox="0 0 38 38"><path fill="#FFF" stroke="#767676" stroke-miterlimit="10" d="M17.469.5C8.097.5.5 8.106.5 17.488c0 3.326.969 6.418 2.619 9.038L1.5 34.5l7.647-2.216a16.858 16.858 0 0 0 8.321 2.192c9.372 0 16.969-7.606 16.969-16.988S26.84.5 17.469.5z"/><path fill="none" stroke="#CDCDCD" stroke-linecap="round" stroke-linejoin="round" stroke-miterlimit="10" d="M9.969 13.469h15M9.969 17.5h15M9.969 21.5h15"/><path fill="#FFF" stroke="#767676" stroke-linejoin="round" stroke-miterlimit="10" d="M29.5 24.5c-4.418 0-8 3.857-8 8.615 0 1.603.414 3.099 1.122 4.385h13.755a9.07 9.07 0 0 0 1.122-4.385C37.5 28.357 33.918 24.5 29.5 24.5z"/><path fill="#FFF" d="M29.5 29.5c-3.309 0-6-3.141-6-7 0-3.86 2.691-7 6-7s6 3.14 6 7c0 3.859-2.691 7-6 7z"/><path fill="#767676" d="M29.5 16c3.033 0 5.5 2.916 5.5 6.5S32.533 29 29.5 29 24 26.084 24 22.5s2.467-6.5 5.5-6.5m0-1c-3.59 0-6.5 3.358-6.5 7.5s2.91 7.5 6.5 7.5 6.5-3.358 6.5-7.5-2.91-7.5-6.5-7.5z"/></svg>