<svg id="icon-color-large-internship" xmlns="http://www.w3.org/2000/svg" viewBox="0 0 38 38"><path fill="#FFF" d="M30 7H8c-1.1 0-2 .9-2 2v27c0 1.1.9 2 2 2h22c1.1 0 2-.9 2-2V9c0-1.1-.9-2-2-2zm-5.5 5.52a1.98 1.98 0 0 1-1.98 1.98h-7.04a1.98 1.98 0 0 1-1.98-1.98v-.04a1.98 1.98 0 0 1 1.98-1.98h7.04a1.98 1.98 0 0 1 1.98 1.98v.04z"/><path fill="#FFEACC" d="M29.926 7H8.074C6.933 7 6 7.9 6 9v8h26V9c0-1.1-.933-2-2.074-2zM24.5 12.52a1.98 1.98 0 0 1-1.98 1.98h-7.04a1.98 1.98 0 0 1-1.98-1.98v-.04a1.98 1.98 0 0 1 1.98-1.98h7.04a1.98 1.98 0 0 1 1.98 1.98v.04z"/><path fill="#767676" d="M7 17h24v1H7z"/><path fill="#767676" d="M30 8c.551 0 1 .449 1 1v27c0 .551-.449 1-1 1H8c-.551 0-1-.449-1-1V9c0-.551.449-1 1-1h22m0-1H8c-1.1 0-2 .9-2 2v27c0 1.1.9 2 2 2h22c1.1 0 2-.9 2-2V9c0-1.1-.9-2-2-2z"/><path fill="#767676" d="M19 22a3 3 0 1 1 0 6 3 3 0 0 1 0-6m0-1c-2.206 0-4 1.794-4 4s1.794 4 4 4 4-1.794 4-4-1.794-4-4-4z"/><path fill="none" stroke="#CDCDCD" stroke-linecap="round" stroke-miterlimit="10" d="M12.5 31.5h13M14.5 33.5h9"/><path fill="none" stroke="#767676" stroke-miterlimit="10" d="M22.52 14.5h-7.04a1.98 1.98 0 0 1-1.98-1.98v-.04a1.98 1.98 0 0 1 1.98-1.98h7.04a1.98 1.98 0 0 1 1.98 1.98v.04a1.98 1.98 0 0 1-1.98 1.98z"/><path fill="#FFF" stroke="#767676" stroke-width=".944" stroke-linejoin="round" stroke-miterlimit="10" d="M20.5.5h-3a1 1 0 0 0-1 1v10h5v-10a1 1 0 0 0-1-1z"/><circle fill="none" stroke="#CDCDCD" stroke-linecap="round" stroke-miterlimit="10" cx="19" cy="4" r="1"/></svg>