<svg id="icon-color-large-kudos-c" xmlns="http://www.w3.org/2000/svg" viewBox="0 0 38 38"><g fill="#C26FD2"><path d="M11.313 12.5a.495.495 0 0 1-.485-.387L8.01 1.101A.498.498 0 0 1 8.499.5h22.003c.152 0 .294.068.389.188.096.12.131.275.096.425l-2.812 10.988a.5.5 0 0 1-.488.399H11.313z"/><path d="M30.499 1l-2.813 11-16.376-.023L8.498 1h22.001m.003-1H8.498a1 1 0 0 0-.972 1.225l2.815 11a.999.999 0 0 0 .972.775h16.373a.997.997 0 0 0 .972-.775l2.815-11A.999.999 0 0 0 30.502 0z"/></g><path fill="#955CA1" d="M23.5 13h-8l-2-13h12z"/><path opacity=".5" fill="#7B5080" d="M9.516 9l.825 3.225a.999.999 0 0 0 .972.775h16.373a.997.997 0 0 0 .972-.775L29.484 9H9.516z"/><path fill="#FFC23F" d="M19.5 37.5C13.71 37.5 9 32.79 9 27s4.71-10.5 10.5-10.5S30 21.21 30 27s-4.71 10.5-10.5 10.5z"/><path fill="#FFD795" d="M12.429 19.929c3.905-3.905 10.237-3.905 14.142 0s3.905 10.237 0 14.142l.707.707c4.289-4.289 4.289-11.267 0-15.556s-11.267-4.289-15.556 0"/><path fill="#FFD795" d="M27.278 34.778c4.289-4.289 4.289-11.267 0-15.556s-11.267-4.289-15.556 0l.707.707c3.905-3.905 10.237-3.905 14.142 0s3.905 10.237 0 14.142l.707.707z"/><path fill="#FFD795" stroke="#FBB40E" stroke-linejoin="round" stroke-miterlimit="10" d="M19.5 19.5l2.163 4.609 4.837.739-3.5 3.587.826 5.065-4.326-2.391-4.326 2.391.826-5.065-3.5-3.587 4.837-.739z"/><path fill="#F4CBFF" d="M7.609 1.549A.995.995 0 0 1 8.498 1h22.003c.396 0 .726.228.889.549l.083-.324A.999.999 0 0 0 30.502 0H8.498a1 1 0 0 0-.972 1.225l.083.324z" opacity=".5"/><path fill="#FFC23F" d="M29.5 10h-20c-.55 0-1 .45-1 1v3c0 .55.45 1 1 1h20c.55 0 1-.45 1-1v-3c0-.55-.45-1-1-1z"/><path fill="#FFD795" d="M29.5 10h-20c-.55 0-1 .45-1 1v1c0-.55.45-1 1-1h20c.55 0 1 .45 1 1v-1c0-.55-.45-1-1-1z"/><path fill="#FBB40E" d="M29.5 14h-20c-.55 0-1-.45-1-1v1c0 .55.45 1 1 1h20c.55 0 1-.45 1-1v-1c0 .55-.45 1-1 1z"/><circle fill="#FFD795" cx="19.5" cy="15" r="2"/><path fill="#FFC23F" d="M19.5 16c-.929 0-1.705-.64-1.929-1.5a1.966 1.966 0 0 0-.071.5c0 1.103.897 2 2 2s2-.897 2-2c0-.174-.029-.339-.071-.5-.224.86-1 1.5-1.929 1.5z"/><path fill="#FBB40E" d="M11.722 19.227c-4.289 4.289-4.289 11.267 0 15.556s11.267 4.289 15.556 0l-.707-.707c-3.905 3.905-10.237 3.905-14.142 0s-3.905-10.237 0-14.142l-.707-.707z"/></svg>