<svg id="icon-color-large-learning" xmlns="http://www.w3.org/2000/svg" viewBox="0 0 38 38"><path fill="#FFF" d="M19 31.5c-6.893 0-12.5-5.607-12.5-12.5S12.107 6.5 19 6.5 31.5 12.107 31.5 19 25.893 31.5 19 31.5z"/><path fill="#767676" d="M19 7c6.627 0 12 5.373 12 12s-5.373 12-12 12S7 25.627 7 19 12.373 7 19 7m0-1C11.832 6 6 11.832 6 19s5.832 13 13 13 13-5.832 13-13S26.168 6 19 6z"/><path fill="#FFEACC" stroke="#767676" stroke-linejoin="round" stroke-miterlimit="10" d="M19 10.5l2.472 5.267 5.528.844-4 4.1.944 5.789L19 23.767 14.056 26.5 15 20.711l-4-4.1 5.528-.844z"/></svg>