<svg id="icon-color-large-link-c" xmlns="http://www.w3.org/2000/svg" viewBox="0 0 38 38"><path fill="#CEEAF8" d="M33 10v26c0 1.1-.9 2-2 2H7c-1.1 0-2-.9-2-2V2c0-1.1.9-2 2-2h16l2 8 8 2z"/><path fill="#DEF1FF" d="M33 10v24c0 1.1-.9 2-2 2H7c-1.1 0-2-.9-2-2V2c0-1.1.9-2 2-2h16l2 8 8 2z"/><path fill="#C4DAE8" d="M33 11a.995.995 0 0 0-.293-.706l-9-9.003A1.006 1.006 0 0 0 23 1h-1v9c0 1.1.898 2 1.996 2H33v-1z"/><path fill="#FFF" d="M33 10a.995.995 0 0 0-.293-.706l-9-9.003A1.006 1.006 0 0 0 23 0h-1v9c0 1.1.898 2 1.996 2H33v-1z"/><g fill="none" stroke="#AAC3D4" stroke-linecap="round" stroke-miterlimit="10"><path d="M19.305 26.094c.358.85.191 1.868-.501 2.56l-2.918 2.918a2.336 2.336 0 0 1-3.305 0l-1.214-1.214a2.336 2.336 0 0 1 0-3.305l2.918-2.918a2.338 2.338 0 0 1 2.505-.524M18.719 21.745a2.339 2.339 0 0 1 .506-2.55l2.918-2.918a2.336 2.336 0 0 1 3.305 0l1.214 1.214a2.336 2.336 0 0 1 0 3.305l-2.918 2.918a2.336 2.336 0 0 1-2.558.502M15.845 27.094l6.315-6.315"/></g></svg>