<svg id="icon-color-large-neutral" xmlns="http://www.w3.org/2000/svg" viewBox="0 0 38 38"><circle fill="#FFF9CC" stroke="#767676" stroke-miterlimit="10" cx="19" cy="19" r="18.5"/><path fill="none" stroke="#767676" stroke-linecap="round" stroke-linejoin="round" d="M11.512 26.962h15.051"/><path fill="#767676" d="M28.541 13.89c0-.786-.222-1.459-.666-2.017s-.983-.837-1.617-.837c-.622 0-1.154.279-1.598.837-.457.558-.685 1.23-.685 2.017 0 .799.228 1.471.685 2.017.444.558.977.837 1.598.837.634 0 1.173-.279 1.617-.837.444-.545.666-1.218.666-2.017zM14.08 13.89c0-.786-.222-1.459-.666-2.017-.444-.558-.983-.837-1.617-.837-.622 0-1.154.279-1.598.837-.457.558-.685 1.23-.685 2.017 0 .799.228 1.471.685 2.017.444.558.977.837 1.598.837.634 0 1.173-.279 1.617-.837.444-.545.666-1.218.666-2.017z"/><path fill="none" stroke="#767676" stroke-linecap="round" stroke-linejoin="round" d="M23.556 9.704h5.233M9.152 9.704h5.233"/></svg>