<svg id="icon-color-large-overall-grade-c" xmlns="http://www.w3.org/2000/svg" viewBox="0 0 38 38"><path fill="#C26FD2" d="M3 3.5V34c0 2.2 1.8 4 4 4h22c2.2 0 4-1.8 4-4V3.5H3z"/><path fill="#955CA1" d="M33 7H6.5A3.51 3.51 0 0 1 3 3.5 3.51 3.51 0 0 1 6.5 0H33v7z"/><path fill="#955CA1" d="M7 3.5H3V34c0 2.2 1.8 4 4 4V3.5z"/><path fill="#DFF1FF" d="M3.164 4.5C3.599 5.938 4.925 7 6.5 7H33V2H6.5C4.925 2 3.599 3.062 3.164 4.5z"/><path fill="#D498DF" d="M32 1v5H6.5C5.122 6 4 4.878 4 3.5S5.122 1 6.5 1H32m1-1H6.5C4.575 0 3 1.575 3 3.5S4.575 7 6.5 7H33V0z"/><path fill="#DFF1FF" d="M32 2h1v4h-1z"/><path fill="none" stroke="#C4DAE8" stroke-linecap="round" stroke-miterlimit="10" d="M7.5 4.5h25"/><path fill="#955CA1" d="M31 1h2v1h-2zM9.022 4h4.312v2H9.022z"/><path fill="#7B5080" d="M27.82 32.431h-1.026c.119-.186.206-.395.206-.631V7h-8.01v22.462l6.211 3.377c.149.086.315.129.486.146v.008h.063c.016.001.032.007.05.007.012 0 .021-.006.033-.007h1.988v-.562zm-2.018-.432L25.8 32l.002-.001z"/><path fill="#7B5080" d="M11 7h-1v24.8c0 .63.493 1.134 1.111 1.182v.011h.056c.012 0 .021.007.033.007.017 0 .034-.006.051-.007h1.018v-.265h-.266L19 28.924l.014.008V7H11zm.201 25l-.004-.001.004.001zm.105-.031c-.004.003-.009.002-.014.004.005-.002.01-.001.014-.004L19 27.785l-7.694 4.184z"/><path fill="#965CA1" d="M28 7H11v24.8a1.202 1.202 0 0 0 1.799 1.039L20 28.924l7.201 3.916A1.201 1.201 0 0 0 29 31.8V7h-1zM12.055 31.928zm.142.071l.004.001H12.2l-.003-.001zM20 27.785l-7.694 4.184c-.004.003-.009.002-.014.004.005-.002.009-.001.014-.004L20 27.785l7.694 4.184c.004.003.009.002.014.004-.004-.002-.009-.001-.014-.004L20 27.785zM27.799 32l.004-.001-.004.001zm.123-.05l.023-.022a.12.12 0 0 1-.023.022z"/><path fill="#C26FD2" d="M20.006 14l1.547 3.135 3.46.502-2.504 2.44.591 3.446-3.094-1.627-3.094 1.627.591-3.446L15 17.637l3.459-.502z"/><path fill="#FFF" d="M23.101 24.022a.49.49 0 0 1-.232-.058l-2.862-1.505-2.861 1.505a.5.5 0 1 1-.725-.527l.547-3.186-2.314-2.256a.5.5 0 0 1 .276-.854l3.199-.465 1.431-2.899c.168-.34.729-.34.896 0l1.432 2.899 3.199.465a.5.5 0 1 1 .276.854l-2.314 2.256.547 3.186a.5.5 0 0 1-.495.585zm-3.095-2.627c.08 0 .16.02.232.058l2.198 1.155-.42-2.446a.5.5 0 0 1 .145-.443l1.777-1.732-2.457-.356a.5.5 0 0 1-.376-.273l-1.1-2.227-1.099 2.227a.5.5 0 0 1-.376.273l-2.457.356 1.777 1.732c.118.115.172.28.145.443l-.42 2.446 2.197-1.155a.513.513 0 0 1 .234-.058z"/><path fill="#C26FD2" d="M28.984 7H11.022l-2-3h17.962z"/><path fill="none" stroke="#C4DAE8" stroke-linecap="round" stroke-miterlimit="10" d="M7.5 2.5h25"/></svg>