<svg id="icon-color-large-overall-grade-a" xmlns="http://www.w3.org/2000/svg" viewBox="0 0 38 38"><path fill="#FFF" d="M8 37.5c-1.93 0-3.5-1.57-3.5-3.5V4h29v30c0 1.93-1.57 3.5-3.5 3.5H8z"/><path fill="#FF3B30" d="M33 4.5V34c0 1.654-1.346 3-3 3H8c-1.654 0-3-1.346-3-3V4.5h28m1-1H4V34c0 2.2 1.8 4 4 4h22c2.2 0 4-1.8 4-4V3.5z"/><path fill="#FFF" d="M33 1h1v5h-1z"/><path fill="#FF3B30" d="M8 7h1v30H8z"/><path fill="#FBE9E8" d="M28.8 32.5a.704.704 0 0 1-.373-.108L21 28.354l-7.455 4.054A.7.7 0 0 1 12.5 31.8V7a.5.5 0 0 1 .5-.5h16a.5.5 0 0 1 .5.5v24.8a.7.7 0 0 1-.7.7z"/><path fill="#FF3B30" d="M29 7v24.8a.2.2 0 0 1-.306.169L21 27.785l-7.694 4.184A.2.2 0 0 1 13 31.8V7h16m0-1H13a1 1 0 0 0-1 1v24.8a1.202 1.202 0 0 0 1.799 1.039L21 28.924l7.201 3.916A1.201 1.201 0 0 0 30 31.8V7a1 1 0 0 0-1-1z"/><path fill="#FFF" stroke="#FF3B30" stroke-linejoin="round" stroke-miterlimit="10" d="M21.006 14l1.547 3.135 3.46.502-2.504 2.44.591 3.446-3.094-1.627-3.094 1.627.591-3.446L16 17.637l3.459-.502z"/><path fill="#FFF" stroke="#FF3B30" stroke-linecap="round" stroke-miterlimit="10" d="M33.5 6.5H7.47A2.97 2.97 0 0 1 4.5 3.53v-.06A2.97 2.97 0 0 1 7.47.5H33.5M8.5 2.5h25M8.5 4.5h25"/></svg>