<svg id="icon-color-large-participants-a" xmlns="http://www.w3.org/2000/svg" viewBox="0 0 38 38"><path fill="#FBE9E8" stroke="#FF3B30" stroke-linejoin="round" stroke-miterlimit="10" d="M29.5 11.5c-4.418 0-8 3.857-8 8.615 0 1.603.414 3.099 1.122 4.385h13.755a9.07 9.07 0 0 0 1.122-4.385C37.5 15.357 33.918 11.5 29.5 11.5z"/><path fill="#FFF" d="M29.5 16.5c-3.309 0-6-3.141-6-7 0-3.86 2.692-7 6-7s6 3.14 6 7c0 3.859-2.691 7-6 7z"/><path fill="#FF3B30" d="M29.5 3C32.532 3 35 5.916 35 9.5S32.532 16 29.5 16 24 13.084 24 9.5 26.467 3 29.5 3m0-1C25.91 2 23 5.358 23 9.5s2.91 7.5 6.5 7.5S36 13.642 36 9.5 33.09 2 29.5 2z"/><g><path fill="#FBE9E8" stroke="#FF3B30" stroke-linejoin="round" stroke-miterlimit="10" d="M8.5 11.5c-4.418 0-8 3.857-8 8.615 0 1.603.414 3.099 1.122 4.385h13.755a9.07 9.07 0 0 0 1.122-4.385C16.5 15.357 12.918 11.5 8.5 11.5z"/><path fill="#FFF" d="M8.5 16.5c-3.309 0-6-3.141-6-7 0-3.86 2.691-7 6-7s6 3.14 6 7c0 3.859-2.692 7-6 7z"/><path fill="#FF3B30" d="M8.5 3C11.532 3 14 5.916 14 9.5S11.532 16 8.5 16 3 13.084 3 9.5 5.467 3 8.5 3m0-1C4.91 2 2 5.358 2 9.5S4.91 17 8.5 17 15 13.642 15 9.5 12.09 2 8.5 2z"/></g><g><path fill="#FFF" stroke="#FF3B30" stroke-linejoin="round" stroke-miterlimit="10" d="M19 17.589c-5.799 0-10.5 5.314-10.5 11.87 0 2.209.544 4.27 1.473 6.041h18.054a12.976 12.976 0 0 0 1.473-6.041c0-6.556-4.701-11.87-10.5-11.87z"/><path fill="#FFF" d="M19 24.5c-4.687 0-8.5-4.486-8.5-10s3.813-10 8.5-10 8.5 4.486 8.5 10-3.813 10-8.5 10z"/><path fill="#FF3B30" d="M19 5c4.411 0 8 4.262 8 9.5S23.411 24 19 24s-8-4.262-8-9.5S14.589 5 19 5m0-1c-4.971 0-9 4.701-9 10.5S14.029 25 19 25s9-4.701 9-10.5S23.97 4 19 4z"/></g></svg>