<svg id="icon-color-large-portfolios" xmlns="http://www.w3.org/2000/svg" viewBox="0 0 38 38"><path fill="#FFF" d="M7 37.5c-.827 0-1.5-.673-1.5-1.5V2c0-.827.673-1.5 1.5-1.5h24c.827 0 1.5.673 1.5 1.5v34c0 .827-.673 1.5-1.5 1.5H7z"/><path fill="#767676" d="M31 1c.551 0 1 .449 1 1v34c0 .551-.449 1-1 1H7c-.551 0-1-.449-1-1V2c0-.551.449-1 1-1h24m0-1H7C5.9 0 5 .9 5 2v34c0 1.1.9 2 2 2h24c1.1 0 2-.9 2-2V2c0-1.1-.9-2-2-2z"/><path fill="#FFF" stroke="#BEC0BF" stroke-linejoin="round" stroke-miterlimit="10" d="M9.5 21.5h5v5h-5z"/><path fill="#FFF9CC" stroke="#767676" stroke-linejoin="round" stroke-miterlimit="10" d="M16.5 21.5h5v5h-5z"/><path fill="#FFF" stroke="#BEC0BF" stroke-linejoin="round" stroke-miterlimit="10" d="M23.5 21.5h5v5h-5z"/><path fill="#FFEACC" stroke="#767676" stroke-linecap="round" stroke-linejoin="round" stroke-miterlimit="10" d="M9.5 28.5h5v5h-5z"/><path fill="#FFF" stroke="#BEC0BF" stroke-linejoin="round" stroke-miterlimit="10" d="M16.5 28.5h5v5h-5z"/><path fill="#FFD8D6" stroke="#767676" stroke-linejoin="round" stroke-miterlimit="10" d="M23.5 28.5h5v5h-5z"/><path fill="#E0E0E0" d="M5.5 17.5V2c0-.827.673-1.5 1.5-1.5h24c.827 0 1.5.673 1.5 1.5v15.5h-27z"/><path fill="#767676" d="M31 1c.551 0 1 .449 1 1v15H6V2c0-.551.449-1 1-1h24m0-1H7C5.9 0 5 .9 5 2v16h28V2c0-1.1-.9-2-2-2z"/><circle fill="#E0E0E0" stroke="#767676" stroke-miterlimit="10" cx="19.5" cy="6.5" r="3"/><path fill="none" stroke="#767676" stroke-linecap="round" stroke-miterlimit="10" d="M9.5 12.5h19M14.5 14.5h9"/></svg>