<svg id="icon-color-large-presentation-c" xmlns="http://www.w3.org/2000/svg" viewBox="0 0 38 38"><path fill="#E77A14" d="M32 34H6c-1.1 0-2-.9-2-2V9c0-1.1.9-2 2-2h26c1.1 0 2 .9 2 2v23c0 1.1-.9 2-2 2z"/><path fill="#FA9126" d="M32 32H6c-1.1 0-2-.9-2-2V9c0-1.1.9-2 2-2h26c1.1 0 2 .9 2 2v21c0 1.1-.9 2-2 2z"/><path fill="#FFBE66" stroke="#FFF" stroke-linejoin="round" stroke-miterlimit="10" d="M25 20v-5c2.87 0 5 2.13 5 5s-2.13 5-5 5c-2.842 0-4.954-2.169-5-5h5z"/><path fill="none" stroke="#FFF" stroke-linecap="round" stroke-miterlimit="10" d="M9.5 12.5h15M9.5 28.5h19M9.5 16.5h7M9.5 20.5h7M9.5 24.5h3"/><path fill="none" stroke="#FA9126" stroke-miterlimit="10" d="M8.5 3.5h21M6.5 5.5h25"/><path fill="none" stroke="#E77A14" stroke-miterlimit="10" d="M8.5 4.5h21M6.5 6.5h25"/></svg>