<svg id="icon-color-large-presentation-event" xmlns="http://www.w3.org/2000/svg" viewBox="0 0 38 38"><path fill="#FFF" stroke="#767676" stroke-linecap="round" stroke-miterlimit="10" d="M6.5 14.3V3.5h25v10.8L20.9 27h-6z"/><path fill="none" stroke="#CDCDCD" stroke-linecap="round" stroke-linejoin="round" stroke-miterlimit="10" d="M10.4 6.5h16M10.5 9.5h10"/><path fill="#E1E0E0" d="M5.5 3.5c-.5 0-1-.4-1-1V1.4c0-.5.4-1 1-1h27.1c.5 0 1 .4 1 1v1.1c0 .5-.4 1-1 1H5.5z"/><path fill="#767676" d="M32.5 1c.3 0 .5.2.5.5v1.1c0 .3-.2.5-.5.5H5.4c-.3 0-.5-.2-.5-.5V1.5c0-.3.2-.5.5-.5h27.1m0-1H5.4c-.8 0-1.5.7-1.5 1.5v1.1c0 .8.7 1.5 1.5 1.5h27.1c.8 0 1.5-.7 1.5-1.5V1.5c0-.8-.7-1.5-1.5-1.5z"/><path fill="none" stroke="#CDCDCD" stroke-linecap="round" stroke-linejoin="round" stroke-miterlimit="10" d="M10.5 13.7v-1.2h17v1.2"/><path fill="#D7F9E4" stroke="#767676" stroke-linejoin="round" stroke-miterlimit="10" d="M29 20.5c-3.6 0-6.5 3.3-6.5 7.3 0 1.4.3 2.6.9 3.7h11.2c.6-1.1.9-2.4.9-3.7 0-4-2.9-7.3-6.5-7.3z"/><path fill="#FFF" d="M29 24.5c-2.5 0-4.5-2.5-4.5-5.5s2-5.5 4.5-5.5 4.5 2.5 4.5 5.5-2 5.5-4.5 5.5z"/><path fill="#767676" d="M29 14c2.2 0 4 2.2 4 5s-1.8 5-4 5-4-2.2-4-5 1.8-5 4-5m0-1c-2.8 0-5 2.7-5 6s2.2 6 5 6 5-2.7 5-6-2.2-6-5-6z"/><g><path fill="#D4F7FF" stroke="#767676" stroke-linejoin="round" stroke-miterlimit="10" d="M9 20.5c-3.6 0-6.5 3.3-6.5 7.3 0 1.4.3 2.6.9 3.7h11.2c.6-1.1.9-2.4.9-3.7 0-4-2.9-7.3-6.5-7.3z"/><path fill="#FFF" d="M9 24.5c-2.5 0-4.5-2.5-4.5-5.5s2-5.5 4.5-5.5 4.5 2.5 4.5 5.5-2 5.5-4.5 5.5z"/><path fill="#767676" d="M9 14c2.2 0 4 2.2 4 5s-1.8 5-4 5-4-2.2-4-5 1.8-5 4-5m0-1c-2.8 0-5 2.7-5 6s2.2 6 5 6 5-2.7 5-6-2.2-6-5-6z"/></g><g><path fill="#F3E2F7" stroke="#767676" stroke-linejoin="round" stroke-miterlimit="10" d="M19 26.5c-3.6 0-6.5 3.3-6.5 7.3 0 1.4.3 2.6.9 3.7h11.2c.6-1.1.9-2.4.9-3.7 0-4-2.9-7.3-6.5-7.3z"/><path fill="#FFF" d="M19 30.5c-2.5 0-4.5-2.5-4.5-5.5s2-5.5 4.5-5.5 4.5 2.5 4.5 5.5-2 5.5-4.5 5.5z"/><path fill="#767676" d="M19 20c2.2 0 4 2.2 4 5s-1.8 5-4 5-4-2.2-4-5 1.8-5 4-5m0-1c-2.8 0-5 2.7-5 6s2.2 6 5 6 5-2.7 5-6-2.2-6-5-6z"/></g></svg>