<svg id="icon-color-large-presenter" xmlns="http://www.w3.org/2000/svg" viewBox="0 0 38 38"><path fill="#E0E0E0" d="M1.458 3.5A.96.96 0 0 1 .5 2.542V1.459A.96.96 0 0 1 1.458.5h34.084a.96.96 0 0 1 .958.958v1.083a.96.96 0 0 1-.958.958H1.458z"/><path fill="#767676" d="M35.542 1a.46.46 0 0 1 .458.458v1.083a.46.46 0 0 1-.458.459H1.458A.46.46 0 0 1 1 2.542V1.458A.46.46 0 0 1 1.458 1h34.084m0-1H1.458C.653 0 0 .653 0 1.458v1.083C0 3.347.653 4 1.458 4h34.083C36.347 4 37 3.347 37 2.542V1.458C37 .653 36.347 0 35.542 0z"/><path fill="#FFF" stroke="#767676" stroke-miterlimit="10" d="M23 30.458H3.892c-.769 0-1.392-.653-1.392-1.458V3.5h32v18.542"/><path fill="none" stroke="#CDCDCD" stroke-linecap="round" stroke-linejoin="round" stroke-miterlimit="10" d="M6.5 7.5H30M6.5 11.5H26"/><path fill="#FFF" stroke="#767676" stroke-linecap="round" stroke-miterlimit="10" d="M29.5 24.5c-4.418 0-8 3.857-8 8.615 0 1.603.414 3.099 1.122 4.385h13.755a9.07 9.07 0 0 0 1.122-4.385C37.5 28.357 33.918 24.5 29.5 24.5z"/><path fill="#FFF" d="M29.5 29.5c-3.309 0-6-3.141-6-7 0-3.86 2.691-7 6-7s6 3.14 6 7c0 3.859-2.691 7-6 7z"/><path fill="#767676" d="M29.5 16c3.033 0 5.5 2.916 5.5 6.5S32.533 29 29.5 29 24 26.084 24 22.5s2.467-6.5 5.5-6.5m0-1c-3.59 0-6.5 3.358-6.5 7.5s2.91 7.5 6.5 7.5 6.5-3.358 6.5-7.5-2.91-7.5-6.5-7.5z"/><path fill="#E0E0E0" stroke="#E0E0E0" stroke-linecap="round" stroke-linejoin="round" stroke-miterlimit="10" d="M6.5 15.5h12v11h-12z"/></svg>