<svg id="icon-color-large-presentation-a" xmlns="http://www.w3.org/2000/svg" viewBox="0 0 38 38"><path fill="#FFF" d="M-974 765.5c-.8 0-1.5-.7-1.5-1.5v-23c0-.8.7-1.5 1.5-1.5h26c.8 0 1.5.7 1.5 1.5v23c0 .8-.7 1.5-1.5 1.5h-26z"/><path fill="#FF3B30" d="M-948 740c.6 0 1 .4 1 1v23c0 .6-.4 1-1 1h-26c-.6 0-1-.4-1-1v-23c0-.6.4-1 1-1h26m0-1h-26c-1.1 0-2 .9-2 2v23c0 1.1.9 2 2 2h26c1.1 0 2-.9 2-2v-23c0-1.1-.9-2-2-2z"/><path fill="#FBE9E8" stroke="#FF3B30" stroke-linejoin="round" stroke-miterlimit="10" d="M-955 752v-5c2.9 0 5 2.1 5 5s-2.1 5-5 5c-2.8 0-5-2.2-5-5h5z"/><path fill="none" stroke="#FF3B30" stroke-linecap="round" stroke-miterlimit="10" d="M-970.5 744.5h15M-970.5 760.5h19M-970.5 748.5h7M-970.5 752.5h7M-970.5 756.5h3"/><path fill="none" stroke="#FF3B30" stroke-miterlimit="10" d="M-971.5 735.5h21M-973.5 737.5h25"/><path fill="none" stroke="#FBE9E8" stroke-miterlimit="10" d="M-971.5 736.5h21M-973.5 738.5h25"/><path fill="#FFF" d="M6 33.5c-.8 0-1.5-.7-1.5-1.5V9c0-.8.7-1.5 1.5-1.5h26c.8 0 1.5.7 1.5 1.5v23c0 .8-.7 1.5-1.5 1.5H6z"/><path fill="#FF3B30" d="M32 8c.6 0 1 .4 1 1v23c0 .6-.4 1-1 1H6c-.6 0-1-.4-1-1V9c0-.6.4-1 1-1h26m0-1H6c-1.1 0-2 .9-2 2v23c0 1.1.9 2 2 2h26c1.1 0 2-.9 2-2V9c0-1.1-.9-2-2-2z"/><path fill="#FBE9E8" stroke="#FF3B30" stroke-linejoin="round" stroke-miterlimit="10" d="M25 20v-5c2.9 0 5 2.1 5 5s-2.1 5-5 5c-2.8 0-5-2.2-5-5h5z"/><path fill="none" stroke="#FF3B30" stroke-linecap="round" stroke-miterlimit="10" d="M9.5 12.5h15M9.5 28.5h19M9.5 16.5h7M9.5 20.5h7M9.5 24.5h3"/><path fill="none" stroke="#FF3B30" stroke-miterlimit="10" d="M8.5 3.5h21M6.5 5.5h25"/><path fill="none" stroke="#FBE9E8" stroke-miterlimit="10" d="M8.5 4.5h21M6.5 6.5h25"/></svg>