<svg id="icon-color-large-quiz-a" xmlns="http://www.w3.org/2000/svg" viewBox="0 0 38 38"><path fill="#FFF" d="M7 37.5c-.827 0-1.5-.673-1.5-1.5V2c0-.827.673-1.5 1.5-1.5h15.609l1.905 7.621a.503.503 0 0 0 .365.364l7.621 1.906V36c0 .827-.673 1.5-1.5 1.5H7z"/><path fill="#FF3B30" d="M22.219 1l1.811 7.243c.09.358.369.638.728.728L32 10.781V36c0 .551-.449 1-1 1H7c-.551 0-1-.449-1-1V2c0-.551.449-1 1-1h15.219M23 0H7C5.9 0 5 .9 5 2v34c0 1.1.9 2 2 2h24c1.1 0 2-.9 2-2V10l-8-2-2-8z"/><path fill="#FBE9E8" d="M23.996 10.5A1.5 1.5 0 0 1 22.5 9V.5h.5c.132 0 .26.053.354.146l9 9.002A.505.505 0 0 1 32.5 10v.5h-8.504z"/><path fill="#FF3B30" d="M23 1l9 9h-8.004A1 1 0 0 1 23 9V1m0-1h-1v9c0 1.1.898 2 1.996 2H33v-1a.995.995 0 0 0-.293-.706l-9-9.003A1.006 1.006 0 0 0 23 0z"/><path fill="#FFF" stroke="#FF3B30" stroke-linejoin="round" stroke-miterlimit="10" d="M10.5 14.5h7v7h-7z"/><path fill="#FBE9E8" stroke="#FF3B30" stroke-linejoin="round" stroke-miterlimit="10" d="M20.5 14.5h7v7h-7z"/><path fill="#FFF" stroke="#FF3B30" stroke-linejoin="round" stroke-miterlimit="10" d="M10.5 25.5h7v7h-7zM20.5 25.5h7v7h-7z"/><g fill="#FFF" stroke="#FF3B30" stroke-linecap="round" stroke-miterlimit="10"><path d="M22.5 16.5l3 3M25.5 16.5l-3 3"/></g></svg>