<svg id="icon-color-large-retention-center-c" xmlns="http://www.w3.org/2000/svg" viewBox="0 0 38 38"><path fill="#CEEAF8" d="M31 33H7c-1.1 0-2-.9-2-2V7c0-1.1.9-2 2-2h24c1.1 0 2 .9 2 2v24c0 1.1-.9 2-2 2z"/><path fill="#DEF1FF" d="M31 31H7c-1.1 0-2-.9-2-2V7c0-1.1.9-2 2-2h24c1.1 0 2 .9 2 2v22c0 1.1-.9 2-2 2z"/><path fill="#CEEAF8" d="M14 6h1v26h-1zM24 6v26h-1V6"/><path fill="#CEEAF8" d="M6 14h26v1H6zM32 24H6v-1h26"/><path fill="#157AF9" d="M33 23.946l-9.482-10.515-8.978 9.976-4.743-5.748L5 23.63v1.596l4.807-5.983 4.7 5.695 9.011-10.013L33 25.439z"/><circle fill="#FFF" stroke="#157AF9" stroke-linejoin="round" stroke-miterlimit="10" cx="14.5" cy="24.197" r="2.062"/><circle fill="#FFF" stroke="#157AF9" stroke-linejoin="round" stroke-miterlimit="10" cx="23.5" cy="14.178" r="2.062"/><circle fill="#FFF" stroke="#157AF9" stroke-linejoin="round" stroke-miterlimit="10" cx="9.781" cy="18.437" r="2.062"/></svg>