<svg id="icon-color-large-settings-a" xmlns="http://www.w3.org/2000/svg" viewBox="0 0 38 38"><path fill="#FFF" d="M33.5 20.9c.1-1.2.1-2.3 0-3.5l3.6-2.9c.5-.4.7-1.1.4-1.7l-.9-2.1c-.2-.6-.8-.9-1.4-.9H35l-4.6.4c-.6-.9-1.4-1.7-2.4-2.4l.5-4.6c.1-.6-.3-1.3-.9-1.5L25.5.8c-.2-.1-.4-.1-.6-.1-.4 0-.8.2-1.1.5l-3 3.5c-.6-.1-1.2-.1-1.9-.1-.5 0-1 0-1.5.1l-2.9-3.6c-.3-.4-.7-.6-1.2-.6-.2 0-.4 0-.6.1l-2.1.9c-.6.2-1 .9-.9 1.5l.4 4.5c-.9.8-1.7 1.6-2.4 2.5l-4.5-.5H3c-.6 0-1.1.4-1.4.9l-.9 2.1c-.3.6-.1 1.3.4 1.7l3.4 2.9c-.2 1.2-.2 2.4-.1 3.6L1 23.5c-.5.4-.7 1.1-.4 1.7l.9 2.1c.2.6.8.9 1.4.9H3l4.3-.4c.8 1 1.6 1.9 2.6 2.7l-.5 4.3c-.1.6.3 1.3.9 1.5l2.1.9c.2.1.4.1.6.1.4 0 .8-.2 1.1-.5l2.8-3.3c.7.1 1.3.1 2 .1.6 0 1.2 0 1.8-.1l2.7 3.4c.3.4.7.6 1.2.6.2 0 .4 0 .6-.1l2.1-.9c.6-.2 1-.9.9-1.5l-.4-4.4c1-.7 1.8-1.6 2.6-2.6l4.4.5h.2c.6 0 1.1-.4 1.4-.9l.9-2.1c.3-.6.1-1.3-.4-1.7l-3.4-2.9zM19 24c-2.8 0-5-2.2-5-5s2.2-5 5-5 5 2.2 5 5-2.2 5-5 5z"/><path fill="none" stroke="#FF3B30" stroke-miterlimit="10" d="M13.5.5c-.2 0-.4 0-.6.1l-2.1.9c-.6.2-1 .9-.9 1.5l.4 4.5c-.9.7-1.8 1.5-2.5 2.4l-4.5-.5h-.2c-.6 0-1.1.4-1.4.9l-.9 2.1c-.3.6-.1 1.3.4 1.7L4.6 17c-.2 1.2-.2 2.4-.1 3.6l-3.4 2.8c-.5.4-.7 1.1-.4 1.7l.9 2.1c.2.6.8.9 1.4.9h.1l4.3-.4c.8 1 1.6 1.9 2.6 2.7l-.5 4.3c-.1.6.3 1.3.9 1.5l2.1.9c.2.1.4.1.6.1.4 0 .8-.2 1.1-.5l2.8-3.3c.7.1 1.3.1 2 .1.6 0 1.2 0 1.8-.1l2.7 3.4c.3.4.7.6 1.2.6.2 0 .4 0 .6-.1l2.1-.9c.6-.2 1-.9.9-1.5l-.4-4.4c1-.7 1.8-1.6 2.6-2.6l4.4.5h.2c.6 0 1.1-.4 1.4-.9l.9-2.1c.3-.6.1-1.3-.4-1.7l-3.5-2.9c.1-1.2.1-2.3 0-3.5l3.6-2.9c.5-.4.7-1.1.4-1.7l-.9-2.1c-.2-.6-.8-.9-1.4-.9H35l-4.6.4c-.7-.9-1.5-1.7-2.4-2.4l.5-4.6c.1-.6-.3-1.3-.9-1.5L25.5.7c-.2-.1-.4-.1-.6-.1-.4 0-.8.2-1.1.5l-3 3.5c-.6-.1-1.2-.1-1.9-.1-.5 0-1 0-1.5.1L14.5 1c-.2-.3-.5-.5-1-.5z"/><path fill="#FBE9E8" d="M19 8C13 8 8 12.9 8 19s5 11 11 11 11-4.9 11-11S25.1 8 19 8zm0 16c-2.8 0-5-2.2-5-5s2.2-5 5-5 5 2.2 5 5-2.2 5-5 5z"/><path fill="none" stroke="#FFF" stroke-linecap="round" stroke-linejoin="round" stroke-miterlimit="10" d="M17 13.8l-2.4-5.4M24.2 16.9l5.4-2.3M21.1 24.2l2.4 5.4M13.8 21.1l-5.3 2.3M13.8 16.9l-5.3-2.3M21.1 13.8l2.4-5.4M24.2 21.1l5.4 2.3M17 24.2l-2.4 5.4"/><path fill="#FF3B30" d="M19 14c2.8 0 5 2.2 5 5s-2.2 5-5 5-5-2.2-5-5 2.2-5 5-5m0-1c-3.3 0-6 2.7-6 6s2.7 6 6 6 6-2.7 6-6-2.7-6-6-6z"/></svg>