<svg id="icon-color-large-share-file-a" xmlns="http://www.w3.org/2000/svg" viewBox="0 0 38 38"><path fill="#FBE9E8" d="M24 9.469h-4.648c-.228 0-.449-.078-.627-.22l-4.451-3.561a1.002 1.002 0 0 0-.626-.219l-7.234.008c-1.1 0-2 .9-2 2l-.008 6.085H24V9.469zM31.511 9.469H27v4.093h6.511v-2.093c0-1.1-.9-2-2-2z"/><path fill="none" stroke="#FF3B30" stroke-linecap="round" stroke-miterlimit="10" d="M27.516 9.469h3.995c1.1 0 2 .9 2 2v3H4.406v-7c0-1.1.9-2 2-2h7.242c.227 0 .448.077.626.219l4.451 3.561c.178.142.399.22.627.22h4.169"/><path fill="#FFF" d="M34.004 13.561a.996.996 0 0 1 .988 1.119l-2.02 18.853c0 1.1-.9 2-2 2h-24c-1.1 0-2-.9-2-2L3.008 14.681a.996.996 0 0 1 .989-1.12h30.007z"/><path fill="none" stroke="#FF3B30" stroke-linecap="round" stroke-miterlimit="10" d="M27.469 13.561h6.535a.996.996 0 0 1 .988 1.119l-2.02 18.853c0 1.1-.9 2-2 2h-24c-1.1 0-2-.9-2-2L3.008 14.681a.996.996 0 0 1 .989-1.12h19.545"/><path fill="#FFF" stroke="#FF3B30" stroke-linecap="round" stroke-linejoin="round" stroke-miterlimit="10" d="M25.466 2.085v22.953"/><path fill="none" stroke="#FF3B30" stroke-linecap="round" stroke-linejoin="round" stroke-miterlimit="10" d="M20.3 7.528l5.166-5.854 5.165 5.854"/></svg>