<svg id="icon-color-large-smile-a" xmlns="http://www.w3.org/2000/svg" viewBox="0 0 38 38"><path fill="#FFF" stroke="#FF3B30" stroke-linecap="round" stroke-linejoin="round" stroke-miterlimit="10" d="M32.046 32.104c3.61-3.61 5.415-7.971 5.415-13.084 0-5.101-1.805-9.456-5.415-13.066C28.449 2.344 24.093.539 18.981.539c-5.101 0-9.456 1.805-13.066 5.415C2.305 9.564.5 13.919.5 19.02c0 5.113 1.805 9.474 5.415 13.084 3.61 3.597 7.965 5.396 13.066 5.396 5.112.001 9.467-1.798 13.065-5.396z"/><path fill="none" stroke="#FF3B30" stroke-linecap="round" stroke-linejoin="round" stroke-miterlimit="10" d="M28.924 25.786a11.284 11.284 0 0 1-2.12 2.84c-2.171 2.209-4.808 3.313-7.913 3.313s-5.755-1.104-7.951-3.313a11.078 11.078 0 0 1-2.082-2.84"/><path fill="#FF3B30" d="M28.356 13.86c0-.782-.221-1.451-.663-2.007-.442-.555-.978-.833-1.609-.833-.618 0-1.148.278-1.59.833-.454.555-.681 1.224-.681 2.007 0 .795.227 1.464.681 2.007.442.555.972.833 1.59.833.631 0 1.167-.278 1.609-.833.442-.543.663-1.212.663-2.007zM13.969 13.86c0-.782-.221-1.451-.663-2.007-.442-.555-.978-.833-1.609-.833-.618 0-1.148.278-1.59.833-.454.555-.681 1.224-.681 2.007 0 .795.227 1.464.681 2.007.442.555.972.833 1.59.833.631 0 1.167-.278 1.609-.833.442-.543.663-1.212.663-2.007z"/><path fill="none" stroke="#FF3B30" stroke-linecap="round" stroke-linejoin="round" stroke-miterlimit="10" d="M23.396 9.695c1.742-1.552 3.477-1.552 5.206 0M9.066 9.695c1.742-1.552 3.477-1.552 5.206 0"/></svg>