<svg id="icon-color-large-support-c" xmlns="http://www.w3.org/2000/svg" viewBox="0 0 38 38"><path fill="#CBCACA" d="M5.884 21.755h-1v-8.368C4.884 6.008 10.888.005 18.267.005h.26c7.379 0 13.383 6.003 13.383 13.382v7.982h-1v-7.982c0-6.828-5.555-12.382-12.383-12.382h-.26c-6.828 0-12.383 5.555-12.383 12.382v8.368z"/><g fill="#676767"><path d="M30.909 14.078h1v7.291h-1zM4.884 14.078h1v7.677h-1z"/></g><path fill="#CBCACA" d="M22.535 36.074h-1.319v-1h1.319c4.617 0 8.374-3.756 8.374-8.374v-5.543h1V26.7c0 5.169-4.205 9.374-9.374 9.374z"/><path fill="#25A3F9" d="M10.862 16.765v-1a5.997 5.997 0 0 0-5.99 5.99 5.997 5.997 0 0 0 5.99 5.989V16.765zM25.948 15.765v11.979a5.996 5.996 0 0 0 5.989-5.989 5.995 5.995 0 0 0-5.989-5.99z"/><path fill="#008EFF" d="M10.862 21.755h-5.99a5.997 5.997 0 0 0 5.99 5.989v-5.989zM25.948 21.755v5.99a5.996 5.996 0 0 0 5.989-5.989h-5.989z"/><g fill="#676767"><path d="M11.913 14.078a2.027 2.027 0 0 0-2.025 2.024v11.076c0 1.116.908 2.024 2.025 2.024a2.026 2.026 0 0 0 2.024-2.024V16.102a2.026 2.026 0 0 0-2.024-2.024zM24.897 14.078a2.027 2.027 0 0 0-2.025 2.024v11.076c0 1.116.908 2.024 2.025 2.024a2.026 2.026 0 0 0 2.024-2.024V16.102a2.025 2.025 0 0 0-2.024-2.024z"/></g><path fill="#555" d="M11.913 28.203a2.027 2.027 0 0 1-2.025-2.024v1c0 1.116.908 2.024 2.025 2.024a2.026 2.026 0 0 0 2.024-2.024v-1a2.026 2.026 0 0 1-2.024 2.024zM24.913 28.203a2.027 2.027 0 0 1-2.025-2.024v1c0 1.116.908 2.024 2.025 2.024a2.026 2.026 0 0 0 2.024-2.024v-1a2.026 2.026 0 0 1-2.024 2.024z"/><path fill="#676767" d="M19.396 33h-2a2.5 2.5 0 1 0 0 5h2a2.5 2.5 0 1 0 0-5z"/><path fill="#555" d="M19.396 37h-2a2.502 2.502 0 0 1-2.45-2 2.501 2.501 0 0 0 2.45 3h2a2.5 2.5 0 0 0 2.45-3 2.5 2.5 0 0 1-2.45 2z"/></svg>