<svg id="icon-color-large-support" xmlns="http://www.w3.org/2000/svg" viewBox="0 0 38 38"><path fill="#FFF" d="M13.532 27.126a1.525 1.525 0 0 1-3.05 0V16.05a1.525 1.525 0 0 1 3.05 0v11.076zM23.468 27.126a1.525 1.525 0 0 0 3.05 0V16.05a1.525 1.525 0 0 0-3.05 0v11.076zM21.554 35.448a2.188 2.188 0 0 1-2.188 2.188h-1.75a2.188 2.188 0 1 1 0-4.376h1.75c1.209 0 2.188.98 2.188 2.188z"/><path fill="#D0E4FE" d="M10.957 27.192a5.49 5.49 0 0 1 0-10.98M26.043 27.192a5.49 5.49 0 0 0 0-10.98"/><path fill="none" stroke="#767676" stroke-miterlimit="10" d="M10.957 27.192a5.49 5.49 0 0 1 0-10.98M13.532 27.126a1.525 1.525 0 0 1-3.05 0V16.05a1.525 1.525 0 0 1 3.05 0v11.076zM26.043 27.192a5.49 5.49 0 0 0 0-10.98"/><path fill="none" stroke="#767676" stroke-miterlimit="10" d="M23.468 27.126a1.525 1.525 0 0 0 3.05 0V16.05a1.525 1.525 0 0 0-3.05 0v11.076z"/><path fill="none" stroke="#767676" stroke-miterlimit="10" d="M5.479 21.702v-8.367C5.479 6.22 11.247.452 18.362.452h.26c7.115 0 12.883 5.768 12.883 12.883v7.982"/><path fill="none" stroke="#767676" stroke-miterlimit="10" d="M31.504 21.105v5.543a8.874 8.874 0 0 1-8.874 8.874h-1.319"/><path fill="#767676" d="M19.491 33.948c.827 0 1.5.673 1.5 1.5s-.673 1.5-1.5 1.5h-2c-.827 0-1.5-.673-1.5-1.5s.673-1.5 1.5-1.5h2m0-1h-2a2.5 2.5 0 1 0 0 5h2a2.5 2.5 0 1 0 0-5z"/></svg>