<svg id="icon-color-medium-text-c" xmlns="http://www.w3.org/2000/svg" viewBox="0 0 24 24"><path fill="#26D3F9" d="M15.5 24h-7a.5.5 0 0 1-.5-.5v-3a.5.5 0 0 1 .5-.5H10V4H6v3.5a.5.5 0 0 1-.5.5h-3a.5.5 0 0 1-.5-.5v-7a.5.5 0 0 1 .5-.5h19a.5.5 0 0 1 .5.5v7a.5.5 0 0 1-.5.5h-3a.5.5 0 0 1-.5-.5V4h-4v16h1.5a.5.5 0 0 1 .5.5v3a.5.5 0 0 1-.5.5z"/><path fill="#26D3F9" d="M6 3h4v1H6zM14 3h4v1h-4z"/><path fill="#11B1D0" d="M5.5 7h-3a.5.5 0 0 1-.5-.5v1a.5.5 0 0 0 .5.5h3a.5.5 0 0 0 .5-.5v-1a.5.5 0 0 1-.5.5zM21.5 7h-3a.5.5 0 0 1-.5-.5v1a.5.5 0 0 0 .5.5h3a.5.5 0 0 0 .5-.5v-1a.5.5 0 0 1-.5.5zM15.5 23h-7a.5.5 0 0 1-.5-.5v1a.5.5 0 0 0 .5.5h7a.5.5 0 0 0 .5-.5v-1a.5.5 0 0 1-.5.5zM6 3h4v1H6zM14 3h4v1h-4z"/></svg>