<svg id="icon-color-large-user-card-a" xmlns="http://www.w3.org/2000/svg" viewBox="0 0 38 38"><path fill="#FBE9E8" d="M30.9 4H8c-1 0-2 .9-2 2v7h26.9V6c0-1.1-.8-2-2-2zM21 10h-3.9c-.8 0-1.4-.7-1.4-1.5S16.3 7 17.1 7H21c.8 0 1.4.7 1.4 1.5S21.7 10 21 10z"/><path fill="#F9F9F9" d="M31 34H7c-1.1 0-2-.9-2-2V12h28v20c0 1.1-.9 2-2 2z"/><path fill="#FF3B30" d="M6 12h26v1H6z"/><path fill="#FF3B30" d="M31 5c.6 0 1 .4 1 1v26c0 .6-.4 1-1 1H7c-.6 0-1-.4-1-1V6c0-.6.4-1 1-1h24m0-1H7c-1.1 0-2 .9-2 2v26c0 1.1.9 2 2 2h24c1.1 0 2-.9 2-2V6c0-1.1-.9-2-2-2z"/><path fill="#FFF" d="M19 23.5c-1.9 0-3.5-1.6-3.5-3.5s1.6-3.5 3.5-3.5 3.5 1.6 3.5 3.5-1.6 3.5-3.5 3.5z"/><path fill="#FF3B30" d="M19 17c1.7 0 3 1.3 3 3s-1.3 3-3 3-3-1.3-3-3 1.3-3 3-3m0-1c-2.2 0-4 1.8-4 4s1.8 4 4 4 4-1.8 4-4-1.8-4-4-4z"/><path fill="none" stroke="#FF3B30" stroke-miterlimit="10" d="M22 8.5c0 .8-.7 1.5-1.5 1.5h-3c-.8 0-1.5-.7-1.5-1.5S16.7 7 17.5 7h3c.8 0 1.5.7 1.5 1.5z"/><path fill="none" stroke="#FF3B30" stroke-linecap="round" stroke-miterlimit="10" d="M12.5 26.5h13M14.5 28.5h9"/></svg>