<svg id="icon-color-large-video-c" xmlns="http://www.w3.org/2000/svg" viewBox="0 0 38 38"><path fill="#4B6DFF" d="M31 32H7c-1.1 0-2-.9-2-2V7c0-1.1.9-2 2-2h24c1.1 0 2 .9 2 2v23c0 1.1-.9 2-2 2z"/><path fill="#333" d="M10 32H7c-1.1 0-2-.9-2-2V7c0-1.1.9-2 2-2h3v27zM28 32h3c1.1 0 2-.9 2-2V7c0-1.1-.9-2-2-2h-3v27z"/><g fill="#FFF"><path d="M17 22.5a.5.5 0 0 1-.5-.5v-7a.5.5 0 0 1 .787-.41l5 3.5a.503.503 0 0 1 0 .82l-5 3.5a.5.5 0 0 1-.287.09z"/><path d="M17 15l5 3.5-5 3.5v-7m0-1a.998.998 0 0 0-1 1v7a.999.999 0 0 0 1.574.819l5-3.5a1 1 0 0 0-.001-1.638l-5-3.5A.998.998 0 0 0 17 14z"/></g><path fill="#666" d="M31 7c.551 0 1 .449 1 1v22c0 .551-.449 1-1 1H7c-.551 0-1-.449-1-1V8c0-.551.449-1 1-1h24m0-1H7c-1.1 0-2 .9-2 2v22c0 1.1.9 2 2 2h24c1.1 0 2-.9 2-2V8c0-1.1-.9-2-2-2z"/><path fill="#C1C1C1" d="M31 6c.551 0 1 .449 1 1v22c0 .551-.449 1-1 1H7c-.551 0-1-.449-1-1V7c0-.551.449-1 1-1h24m0-1H7c-1.1 0-2 .9-2 2v22c0 1.1.9 2 2 2h24c1.1 0 2-.9 2-2V7c0-1.1-.9-2-2-2z"/><path fill="#BFC1C1" d="M9 6h1v25H9zM28 6h1v25h-1zM6 10h3v1H6zM6 14h3v1H6zM6 22h3v1H6zM6 26h3v1H6zM6 18h3v1H6zM29 10h3v1h-3zM29 14h3v1h-3zM29 22h3v1h-3zM29 26h3v1h-3zM29 18h3v1h-3z"/><path fill="#666" d="M6 11h3v1H6zM6 15h3v1H6zM6 23h3v1H6zM6 27h3v1H6zM6 19h3v1H6zM29 11h3v1h-3zM29 15h3v1h-3zM29 23h3v1h-3zM29 27h3v1h-3zM29 19h3v1h-3z"/></svg>