<svg id="icon-color-large-whiteboard" xmlns="http://www.w3.org/2000/svg" viewBox="0 0 38 38"><path fill="#FFF" stroke="#767676" stroke-linecap="round" stroke-linejoin="round" stroke-miterlimit="10" d="M25.8 27.5H.5v-26h35v19.1"/><path fill="#FFF" d="M22.23 31.35l9.193-9.193 3.536 3.536-9.193 9.192z"/><path fill="#E0E0E0" d="M25.7 27.5H.5v-3h28.2z"/><path fill="#F3E2F7" d="M31.3 22l2.3-2.3c.3-.3.7-.3.9 0l2.8 2.8c.3.3.3.7 0 .9L35 25.7 31.3 22z"/><path fill="#F3E2F7" stroke="#767676" stroke-miterlimit="10" d="M22.3 31.2l-1.8 4.5c-.1.5.3.9.8.8l4.5-1.8"/><path fill="none" stroke="#767676" stroke-miterlimit="10" d="M26.2 34.5c-.3.3-.7.3-.9 0l-2.8-2.8c-.3-.3-.3-.7 0-.9l11.1-11.1c.3-.3.7-.3.9 0l2.8 2.8c.3.3.3.7 0 .9L26.2 34.5zM31.3 22l3.7 3.7"/><path fill="none" stroke="#767676" stroke-linecap="round" stroke-linejoin="round" stroke-miterlimit="10" d="M25.8 27.5H.5v-26h35v19.1"/><path fill="none" stroke="#767676" stroke-linecap="round" stroke-miterlimit="10" d="M.5 24.5h28.3"/><path fill="none" stroke="#CDCDCD" stroke-linecap="round" stroke-miterlimit="10" d="M19 8.5h11M19 11.5h8M19 14.5h10M19 17.5h3M25 17.5h3"/><path fill="#F3E2F7" stroke="#767676" stroke-linecap="round" stroke-linejoin="round" stroke-miterlimit="10" d="M10.5 12.5v-4H10c-2.5 0-4.5 2-4.5 4.5s2 4.5 4.5 4.5 4.5-2 4.5-4.5v-.5h-4z"/></svg>