<svg id="icon-color-large-whiteboard-c" xmlns="http://www.w3.org/2000/svg" viewBox="0 0 38 38"><path fill="#FFF" stroke="#CBCACA" stroke-linecap="round" stroke-linejoin="round" stroke-miterlimit="10" d="M25.752 28.497H.488v-26h35v19.134"/><path fill="#E1E0DF" d="M25.655 28.497H-.011v-3h28.666z"/><path fill="#CBCACA" d="M-.011 24.997h28.802v1H-.011z"/><path fill="none" stroke="#676767" stroke-linecap="round" stroke-linejoin="round" stroke-miterlimit="10" d="M18.988 9.497h11M18.988 12.497h8M18.988 15.497h10M18.988 18.497h3M24.988 18.497h3"/><path fill="none" stroke="#C26FD2" stroke-linejoin="round" stroke-miterlimit="10" d="M10.488 13.497v-3.95c-.166-.019-.329-.05-.5-.05a4.5 4.5 0 1 0 4.5 4.5c0-.171-.032-.334-.05-.5h-3.95z"/><path fill="#A3A3A3" d="M-.012 27.997v.5a.5.5 0 0 0 .5.5h26.5a.5.5 0 0 0 .398-.197l.38-.5c.039-.052.051-.242.068-.303H-.012z"/><path opacity=".2" fill="#333" d="M34.274 21.71l-1.385-1.385c-.436-.438-1.198-.437-1.632-.001l-2.311 2.311-6.362 6.362h3.169a.494.494 0 0 0 .288-.092l9.048-6.38-.815-.815z"/><path fill="#FFF" d="M30.945 22.635l2.2 2.2-8.781 8.783-2.2-2.2z"/><path fill="#AE74AE" d="M38 23.913c0-.021-.011-.039-.012-.059v.118c.001-.02.012-.038.012-.059z"/><path fill="#C26FD2" d="M36.274 21.71l-1.385-1.385c-.436-.438-1.198-.437-1.632-.001l-2.311 2.311 2.201 2.201 3.127-3.126z"/><path fill="#EEE" d="M24.362 33.615l-2.198-2.199-.001.001a1.122 1.122 0 0 0-.289.575l-.012-.005-1.111 2.755 1.254 1.228 2.357-2.355z"/><path fill="#AE74AE" d="M21.114 38c.031 0 .066-.012.098-.014h-.17c.026.002.047.014.072.014z"/><path fill="#C26FD2" d="M20.75 34.743l-.731 1.813c-.109.4 0 .813.291 1.108l1.694-1.693-1.254-1.228z"/><path fill="#E2E2E2" d="M26.57 35.823l-2.208-2.207 8.783-8.782 2.206 2.206z"/><path fill="#955CA1" d="M35.35 27.04l2.31-2.31a1.14 1.14 0 0 0 .328-.757v-.118a1.139 1.139 0 0 0-.327-.756l-1.387-1.387-3.128 3.126 2.204 2.202z"/><path fill="#CBCACA" d="M22.004 35.972l1.27 1.244 2.668-1.093c.234-.04.455-.129.627-.3l-2.207-2.207-2.358 2.356z"/><path fill="#955CA1" d="M23.274 37.216l-1.27-1.244-1.694 1.693.005.006c.195.195.448.299.728.315h.17c.09-.007.181-.012.275-.039l1.786-.731z"/></svg>