<?xml version="1.0" standalone="no"?>
<!DOCTYPE svg PUBLIC "-//W3C//DTD SVG 20010904//EN"
 "http://www.w3.org/TR/2001/REC-SVG-20010904/DTD/svg10.dtd">
<svg version="1.0" xmlns="http://www.w3.org/2000/svg"
 width="900.000000pt" height="900.000000pt" viewBox="0 0 900.000000 900.000000"
 preserveAspectRatio="xMidYMid meet">

<g transform="translate(0.000000,900.000000) scale(0.100000,-0.100000)"
fill="#ffffff" stroke="none">
<path d="M4230 8994 c-511 -38 -944 -135 -1390 -311 -1349 -533 -2363 -1696
-2710 -3108 -47 -190 -83 -396 -107 -607 -21 -188 -24 -711 -5 -888 74 -674
260 -1260 577 -1816 85 -148 272 -424 378 -556 210 -264 459 -513 722 -723
1356 -1084 3228 -1288 4785 -519 472 232 820 483 1196 858 375 376 626 724
858 1196 559 1132 613 2450 149 3630 -404 1029 -1182 1878 -2173 2375 -487
244 -1003 393 -1575 455 -103 11 -607 21 -705 14z m730 -219 c1163 -134 2190
-703 2912 -1615 880 -1112 1151 -2584 727 -3945 -166 -532 -499 -1131 -838
-1509 -430 -481 -845 -801 -1376 -1063 -884 -435 -1887 -550 -2855 -328 -612
141 -1194 421 -1690 813 -216 171 -382 330 -609 582 -126 139 -343 449 -466
664 -558 977 -709 2137 -420 3231 151 572 423 1108 813 1597 136 171 469 504
640 640 704 561 1498 876 2387 948 156 12 615 4 775 -15z"/>
<path d="M4104 8555 c-955 -99 -1816 -506 -2484 -1175 -677 -676 -1084 -1545
-1176 -2510 -22 -227 -14 -670 16 -890 69 -515 234 -1019 474 -1448 l63 -113
27 55 c94 192 311 373 638 531 l158 77 0 154 0 154 243 0 c133 0 247 -4 252
-8 6 -4 53 -55 104 -114 51 -60 97 -108 101 -108 4 0 53 52 109 115 l102 115
244 0 245 0 0 -575 0 -575 -255 0 -255 0 -2 281 -3 280 -89 -103 c-49 -57 -92
-104 -95 -105 -3 -1 -46 45 -96 103 l-90 105 -3 -281 -2 -280 -255 0 -255 0 0
290 c0 160 -3 290 -6 290 -16 0 -218 -111 -298 -163 -118 -78 -233 -193 -277
-277 -30 -59 -34 -73 -34 -150 0 -74 4 -93 29 -145 36 -75 180 -221 284 -289
766 -504 2513 -738 4096 -551 972 115 1744 381 2049 705 102 108 131 170 132
275 0 72 -4 88 -34 150 -79 161 -316 336 -636 470 -112 47 -270 105 -286 105
-5 0 -9 -89 -9 -210 l0 -210 220 0 220 0 0 -145 0 -145 -475 0 -475 0 0 575 0
575 255 0 255 0 0 -94 0 -94 113 -38 c518 -172 887 -415 1019 -671 18 -34 35
-63 38 -63 3 0 31 46 62 102 263 478 413 950 485 1528 24 193 24 679 -1 885
-108 923 -494 1740 -1126 2389 -656 673 -1465 1080 -2400 1207 -202 27 -715
35 -916 14z m909 -550 c55 -13 78 -26 113 -59 l44 -43 0 -135 0 -135 159 -52
c265 -87 535 -232 742 -399 106 -85 271 -261 352 -373 76 -107 184 -316 223
-433 59 -180 92 -422 74 -546 -58 -405 -678 -670 -1755 -751 -197 -14 -728
-14 -930 0 -944 69 -1554 288 -1715 614 -46 95 -56 171 -42 324 67 747 651
1360 1530 1609 9 2 12 34 12 112 0 141 6 167 46 207 74 74 158 84 669 81 351
-3 420 -6 478 -21z m-2079 -3682 c108 -313 196 -571 196 -575 0 -12 -510 -10
-510 1 0 6 -14 48 -31 95 l-31 86 -183 0 -183 0 -33 -95 -33 -95 -253 0 c-139
0 -253 3 -253 8 0 4 88 262 196 575 l197 567 362 0 362 0 197 -567z m1305 540
c180 -61 279 -202 269 -386 -16 -301 -344 -466 -594 -297 l-44 29 0 -234 0
-235 -255 0 -255 0 0 576 0 575 408 -3 c385 -4 410 -5 471 -25z m1348 0 c129
-43 211 -118 254 -231 17 -48 20 -73 17 -152 -5 -113 -26 -164 -99 -244 -121
-132 -292 -161 -457 -75 -41 21 -77 39 -79 39 -2 0 -3 -103 -3 -230 l0 -230
-255 0 -255 0 0 568 c0 313 3 572 7 576 4 4 188 6 408 4 374 -4 404 -5 462
-25z m973 -48 c28 -41 68 -99 89 -129 l38 -55 87 129 87 130 255 0 c140 0 254
-4 254 -8 0 -4 -97 -151 -215 -326 l-215 -319 0 -248 0 -249 -255 0 -255 0 0
251 0 250 -211 312 c-116 172 -214 318 -216 325 -4 9 50 12 251 12 l255 0 51
-75z m-2100 -1575 l0 -150 -220 0 -220 0 0 -65 0 -65 155 0 155 0 0 -145 0
-145 -155 0 -155 0 0 -70 0 -70 220 0 220 0 0 -145 0 -145 -475 0 -475 0 0
575 0 575 475 0 475 0 0 -150z m1298 93 c54 -158 362 -1042 371 -1065 l11 -28
-258 0 -258 0 -30 93 -30 92 -186 3 -186 2 -32 -95 -32 -95 -254 0 c-140 0
-254 2 -254 5 0 8 369 1071 386 1113 l13 32 360 0 359 0 20 -57z"/>
<path d="M4185 7840 c-60 -4 -125 -10 -142 -14 l-33 -8 0 -69 c0 -81 -14 -77
175 -54 67 8 207 14 315 14 108 0 248 -6 315 -14 180 -22 165 -27 165 54 0 63
-2 69 -22 75 -77 22 -531 31 -773 16z"/>
<path d="M4295 7473 c-375 -44 -603 -109 -883 -253 -344 -177 -611 -436 -767
-746 -25 -49 -45 -94 -45 -100 0 -6 39 8 86 32 268 134 661 227 1194 281 250
25 987 25 1240 0 506 -51 899 -143 1168 -272 61 -29 112 -50 112 -46 0 5 -24
56 -54 115 -272 535 -893 915 -1610 985 -101 10 -371 13 -441 4z"/>
<path d="M4090 6469 c-683 -45 -1219 -182 -1460 -372 -181 -143 -162 -311 51
-453 230 -152 640 -261 1214 -321 241 -25 965 -25 1205 0 499 52 831 129 1085
251 212 102 305 200 305 319 -1 63 -30 116 -102 182 -206 189 -681 324 -1353
385 -159 15 -775 21 -945 9z"/>
<path d="M2331 4348 c-23 -68 -41 -126 -41 -131 0 -4 38 -7 85 -7 47 0 85 4
85 8 0 11 -78 244 -84 249 -2 2 -22 -51 -45 -119z"/>
<path d="M3870 4516 l0 -126 46 0 c39 0 51 5 80 34 22 22 34 44 35 63 4 102
-23 137 -116 149 l-45 7 0 -127z"/>
<path d="M5227 4634 c-4 -4 -7 -61 -7 -126 l0 -118 40 0 c83 0 126 46 124 132
0 41 -6 54 -30 78 -29 29 -110 50 -127 34z"/>
<path d="M5336 2852 c-21 -64 -41 -123 -43 -129 -4 -10 16 -13 81 -13 47 0 86
4 86 8 0 9 -78 243 -83 248 -1 2 -20 -49 -41 -114z"/>
<path d="M2020 1271 c36 -28 124 -91 195 -140 546 -371 1161 -597 1840 -677
206 -25 692 -25 885 -1 691 86 1272 298 1815 660 118 79 275 194 275 202 0 2
-26 -5 -57 -16 -473 -163 -1062 -271 -1803 -331 -212 -17 -1132 -17 -1345 0
-763 61 -1332 168 -1853 349 -10 3 12 -17 48 -46z"/>
</g>
</svg>
