<?xml version="1.0" standalone="no"?>
<!DOCTYPE svg PUBLIC "-//W3C//DTD SVG 20010904//EN"
 "http://www.w3.org/TR/2001/REC-SVG-20010904/DTD/svg10.dtd">
<svg version="1.0" xmlns="http://www.w3.org/2000/svg"
 width="2160.000000pt" height="2160.000000pt" viewBox="0 0 2160.000000 2160.000000"
 preserveAspectRatio="xMidYMid meet">

<g transform="translate(0.000000,2160.000000) scale(0.100000,-0.100000)"
fill="#4a5073" stroke="none">
<path d="M10495 21054 c-831 -22 -1720 -161 -2540 -395 -828 -237 -1682 -607
-2395 -1037 -630 -380 -1153 -770 -1681 -1253 -437 -400 -933 -942 -1265
-1384 -400 -531 -741 -1085 -1020 -1653 -596 -1211 -929 -2458 -1030 -3847
-23 -319 -23 -1051 0 -1370 56 -771 175 -1453 377 -2160 237 -828 607 -1682
1037 -2395 252 -417 562 -864 816 -1175 630 -771 1322 -1423 2077 -1957 454
-322 917 -598 1397 -834 1211 -596 2458 -929 3847 -1030 319 -23 1051 -23
1370 0 771 56 1453 175 2160 377 828 237 1682 607 2395 1037 417 252 864 562
1175 816 769 628 1424 1323 1957 2077 322 454 598 917 834 1397 596 1211 929
2458 1030 3847 23 319 23 1051 0 1370 -56 771 -175 1453 -377 2160 -237 828
-607 1682 -1037 2395 -252 417 -562 864 -816 1175 -489 598 -992 1101 -1591
1591 -406 332 -1024 745 -1510 1009 -1300 706 -2728 1119 -4215 1220 -216 14
-771 25 -995 19z m781 -1964 c1002 -58 1967 -293 2899 -705 443 -196 1014
-519 1375 -778 549 -394 900 -702 1339 -1172 271 -291 446 -506 718 -885 251
-351 561 -894 763 -1341 218 -480 420 -1086 534 -1599 135 -607 196 -1167 196
-1810 0 -541 -32 -916 -121 -1425 -141 -807 -387 -1550 -754 -2285 -238 -474
-455 -824 -806 -1295 -427 -574 -1040 -1187 -1614 -1614 -471 -351 -821 -568
-1295 -806 -735 -367 -1478 -613 -2285 -754 -509 -89 -884 -121 -1425 -121
-643 0 -1203 61 -1810 196 -513 114 -1119 316 -1599 534 -447 202 -990 512
-1341 763 -549 394 -900 702 -1339 1172 -271 291 -446 506 -718 885 -251 351
-561 894 -763 1341 -218 480 -420 1086 -534 1599 -135 607 -196 1167 -196
1810 0 643 61 1203 196 1810 114 513 316 1119 534 1599 202 447 512 990 763
1341 272 379 447 594 718 885 439 470 790 778 1339 1172 351 251 894 561 1341
763 902 409 1923 661 2914 719 198 12 771 12 971 1z"/>
<path d="M12170 15278 c-106 -19 -498 -98 -910 -183 -228 -47 -534 -110 -680
-140 -146 -30 -519 -106 -830 -170 -514 -105 -986 -194 -1115 -209 -80 -10
-167 39 -432 246 -131 102 -414 338 -475 394 -41 38 -68 54 -68 40 0 -3 -31
-159 -70 -348 -88 -432 -177 -866 -466 -2265 -92 -449 -221 -1072 -314 -1528
-38 -187 -106 -515 -150 -730 -44 -214 -112 -543 -150 -730 -38 -187 -106
-515 -150 -730 -79 -381 -146 -704 -311 -1505 -44 -217 -114 -556 -154 -753
l-72 -357 1131 2 1131 3 37 175 c21 96 87 411 148 700 133 628 218 1029 305
1440 67 317 118 558 236 1115 38 182 103 488 144 680 41 193 106 500 144 682
160 761 329 1172 585 1429 215 214 574 382 966 449 231 40 324 46 772 52 l447
5 5 27 c3 14 40 217 81 451 42 234 103 571 135 750 32 179 80 444 105 589 25
144 52 294 60 333 24 110 28 106 -85 86z"/>
<path d="M13465 15278 c-2 -7 -26 -121 -54 -253 -46 -219 -146 -692 -332
-1570 -74 -351 -173 -819 -294 -1390 -41 -192 -108 -510 -149 -705 -41 -195
-107 -503 -145 -685 -124 -591 -156 -713 -252 -970 -155 -417 -319 -644 -579
-806 -231 -143 -477 -235 -760 -284 -231 -40 -324 -46 -772 -52 -247 -3 -448
-8 -448 -11 0 -3 -20 -116 -45 -251 -60 -333 -153 -851 -230 -1286 -35 -198
-78 -434 -94 -525 -17 -91 -31 -169 -31 -174 0 -17 205 22 1035 194 215 44
532 110 705 145 173 35 547 112 830 170 450 92 913 179 1063 200 38 5 57 2
101 -18 124 -57 358 -237 806 -621 36 -30 66 -52 67 -48 4 12 81 382 143 687
33 160 98 477 145 705 47 228 117 568 155 755 38 187 106 516 150 730 44 215
109 532 145 705 35 173 103 502 150 730 47 228 119 577 160 775 41 198 113
547 160 775 47 228 117 568 155 755 38 187 106 516 150 730 77 373 161 784
270 1315 27 135 52 255 55 268 l5 22 -1130 0 c-896 0 -1131 -3 -1135 -12z"/>
</g>
</svg>
