<svg xmlns="http://www.w3.org/2000/svg" viewBox="0 0 700 700" role="img" aria-label="Therr logo">
  <title>Therr</title>
  <g fill="#4a5073">
    <path d="M327.3 13c-62.4 4.6-121 25.3-170.8 60.3-31.2 21.9-62.4 53.1-83.9 84-64 92.1-78.1 212.2-36.9 316.2 17.5 44.2 41.8 81.1 75.7 115.1 72.4 72.3 169.1 106.9 272.1 97.3 84.3-7.9 164.7-49.4 220.7-113.8 19.5-22.5 32.8-42.1 46.4-68.6 49.4-96.3 49.4-210.7 0-307-10-19.5-17.1-31.1-28.6-46.5C569.6 79.8 495.3 33.1 411.7 18c-25.7-4.7-60.5-6.7-84.4-5m53.8 65.5c43.2 5 84.1 20 119.9 44 17.3 11.5 27.4 19.8 42 34.5 43 42.9 68.8 94.9 78.2 157.5 1.8 12.2 1.8 58.8 0 71-9.4 62.4-35.4 114.9-78.1 157.6s-95.2 68.7-157.6 78.1c-12.2 1.8-58.8 1.8-71 0-52.1-7.9-97.1-27.2-136.5-58.9-11.1-8.8-31.8-29.5-40.4-40.3-32.7-41-53.1-89.6-59.1-140.9-1.9-16.1-1.9-46.1 0-62.2 6-51.3 26.4-99.9 59.1-140.9 8.6-10.8 29.3-31.5 40.4-40.3 39.4-31.7 88.6-52.8 136.5-58.6 5-.6 10.1-1.3 11.5-1.5 7.2-1 43.8-.4 55.1.9"/>
    <path d="M373 207c-12.9 2.7-39.8 8.2-59.7 12.2l-36.1 7.2-5.6-3.7c-3.1-2.1-9.9-7.3-15.1-11.7-5.8-4.9-9.7-7.5-10-6.8-.2.7-13.7 66.3-30 145.8s-29.9 145.3-30.1 146.2c-.5 1.7 1.7 1.8 36.8 1.8h37.3l17.9-84.8c9.9-46.6 19.2-88.6 20.7-93.4 6.9-21.4 14.7-30.8 31.2-37.5 9.4-3.8 19.2-5.4 37.6-6.1l17.4-.7 6.3-35c6.6-36.2 6.9-38.5 5.7-38.4-.5 0-11.4 2.2-24.3 4.9"/>
    <path d="M437.6 203.7c-.3 1-8.4 39.4-18.1 85.3s-18.9 87.4-20.5 92.2c-6.6 19.7-13.3 28.3-27.3 34.8-11.3 5.3-21 7.1-41.4 7.7-9.5.3-17.3.7-17.3.9s-2.9 16.7-6.5 36.6-6.3 36.3-6.1 36.5 22.2-4.1 49-9.6 53.9-11 60.2-12.1l11.5-2.1 4.5 2.6c2.5 1.5 9.3 6.7 15.2 11.6s10.8 8.6 10.9 8.2c.5-1.6 60.3-292.7 60.3-293.5 0-.4-16.6-.8-36.9-.8-34.3 0-37 .1-37.5 1.7"/>
  </g>
</svg>
