<svg id="icon-stroke-medium-account" xmlns="http://www.w3.org/2000/svg" viewBox="0 0 24 24"><path fill="none"  stroke-miterlimit="10" d="M22.501 20.5h-21c-.55 0-1-.45-1-1v-14c0-.55.45-1 1-1h21c.55 0 1 .45 1 1v14c0 .55-.45 1-1 1z"/><g fill="none"  stroke-linejoin="round" stroke-miterlimit="10"><ellipse cx="7.548" cy="10.766" rx="2.5" ry="3.038"/><path stroke-linecap="round" d="M5.122 12.33C4.433 13.092 4 14.172 4 15.373c0 .778.184 1.503.498 2.127h6.101a4.728 4.728 0 0 0 .498-2.127c0-1.201-.433-2.281-1.122-3.043"/></g><path fill="none"  stroke-linecap="round" stroke-miterlimit="10" d="M14.501 10.5h5M14.501 12.427h5M14.501 14.5h5"/></svg>