<svg id="icon-stroke-medium-add-reminder" xmlns="http://www.w3.org/2000/svg" viewBox="0 0 24 24"><path fill="none"  stroke-linecap="round" stroke-miterlimit="10" d="M.481 4.269A3.538 3.538 0 0 1 4.019.731M23.519 4.269A3.538 3.538 0 0 0 19.981.731"/><circle clip-rule="evenodd" fill="none"  stroke-linecap="round" stroke-miterlimit="10" cx="18.981" cy="18.769" r="4.5"/><path clip-rule="evenodd" fill="none"  stroke-linecap="round" stroke-miterlimit="10" d="M22.051 14.728c.276-.939.43-1.931.43-2.959 0-5.799-4.701-10.5-10.5-10.5s-10.5 4.701-10.5 10.5 4.701 10.5 10.5 10.5c1.029 0 2.02-.154 2.959-.43M18.981 16.269v5M21.481 18.769h-5"/><path fill="none"  stroke-linecap="round" stroke-miterlimit="10" d="M11.981 3.769v8M11.981 11.769h-5"/></svg>