<svg id="icon-stroke-medium-app" xmlns="http://www.w3.org/2000/svg" viewBox="0 0 24 24"><path fill="none"  stroke-miterlimit="10" d="M21.796 3H2.204C1.263 3 .5 3.848.5 4.895v14.211C.5 20.152 1.263 21 2.204 21h19.592c.941 0 1.704-.848 1.704-1.895V4.895C23.5 3.848 22.737 3 21.796 3z"/><circle fill="none"  stroke-miterlimit="10" cx="3.5" cy="5.5" r=".5"/><circle fill="none"  stroke-miterlimit="10" cx="6.5" cy="5.5" r=".5"/><circle fill="none"  stroke-miterlimit="10" cx="9.5" cy="5.5" r=".5"/><path fill="none"  stroke-miterlimit="10" d="M.5 8h23M7.083 18H2.917c-.23 0-.417-.224-.417-.5v-6c0-.276.187-.5.417-.5h4.167c.23 0 .417.224.417.5v6c-.001.276-.188.5-.418.5zM14.083 18H9.917c-.23 0-.417-.224-.417-.5v-6c0-.276.187-.5.417-.5h4.167c.23 0 .417.224.417.5v6c-.001.276-.188.5-.418.5zM21.083 18h-4.167c-.23 0-.417-.224-.417-.5v-6c0-.276.187-.5.417-.5h4.167c.23 0 .417.224.417.5v6c0 .276-.187.5-.417.5z"/></svg>