<svg id="icon-stroke-small-approval" xmlns="http://www.w3.org/2000/svg" viewBox="0 0 16 16"><path fill="none"  stroke-linecap="round" stroke-miterlimit="10" d="M13.5 12.5c.827 0 1.5-.649 1.5-1.447v-.105c0-.798-.673-1.447-1.5-1.447"/><path fill="none"  stroke-linecap="round" stroke-linejoin="round" stroke-miterlimit="10" d="M3.789 14.211L2.5 15.5h-2v-9h2"/><path fill="none"  stroke-linecap="round" stroke-linejoin="round" stroke-miterlimit="10" d="M13 12.5c.827 0 1.5.649 1.5 1.447v.105c0 .798-.673 1.447-1.5 1.447H6a2.5 2.5 0 0 1-2.5-2.5V7.5a1 1 0 0 1 1-1c1.381 0 3-3.119 3-4.5 0-.775.702-1.5 1.5-1.5.857 0 1.5.672 1.5 1.5v4.5H14c.827 0 1.5.649 1.5 1.447v.105c0 .799-.673 1.448-1.5 1.448"/></svg>