<svg id="icon-stroke-medium-attendance" xmlns="http://www.w3.org/2000/svg" viewBox="0 0 24 24"><g fill="none"  stroke-linecap="round" stroke-linejoin="round" stroke-miterlimit="10"><path d="M5.65 4.5H3.5v16h17v-16h-2.15"/><path d="M14 2.5h8.5a1 1 0 0 1 1 1v19a1 1 0 0 1-1 1h-21a1 1 0 0 1-1-1v-19a1 1 0 0 1 1-1H10M10 16.5h7"/><path d="M6 8.5l1 1 1-2M10 8.5h7M6 12.5l1 1 1-2M10 12.5h7M6 15.5l2 2M6 17.5l2-2"/><circle cx="12" cy="2.5" r="2"/><path d="M10 2.5H8.5a3 3 0 0 0-3 3h13a3 3 0 0 0-3-3H14"/></g></svg>