<svg id="icon-stroke-small-audio-echo" xmlns="http://www.w3.org/2000/svg" viewBox="0 0 16 16"><circle fill="none"  stroke-linecap="round" stroke-miterlimit="10" cx="8" cy="8" r="1"/><path fill="none"  stroke-linecap="round" stroke-miterlimit="10" d="M5.526 10.476A3.49 3.49 0 0 1 4.5 8c0-.939.37-1.791.971-2.42M10.479 5.529A3.488 3.488 0 0 1 11.5 8c0 .939-.37 1.791-.971 2.42M4.112 11.89A5.482 5.482 0 0 1 2.5 8c0-1.519.616-2.894 1.611-3.889M11.892 4.114A5.481 5.481 0 0 1 13.5 8a5.484 5.484 0 0 1-1.612 3.89"/><path fill="none"  stroke-linecap="round" stroke-miterlimit="10" d="M2.698 13.304A7.474 7.474 0 0 1 .5 8c0-2.071.839-3.946 2.197-5.303M13.302 2.696A7.474 7.474 0 0 1 15.5 8a7.48 7.48 0 0 1-2.197 5.304"/></svg>