<svg id="icon-stroke-medium-audio" xmlns="http://www.w3.org/2000/svg" viewBox="0 0 24 24"><path fill="none"  stroke-linecap="round" stroke-miterlimit="10" d="M19.286 8.714c0-4.37-2.885-8.214-7.119-8.214S4.5 3.971 4.5 8.341c0 4.53 4.016 7.357 5.111 11.5.522 1.974 1.939 3.659 4.089 3.659 2.108 0 4.089-2.03 4.089-4.182 0-.654-.248-1.018-.511-1.568"/><path fill="none"  stroke-linecap="round" stroke-linejoin="round" stroke-miterlimit="10" d="M8.333 8.714c.292-.933.912-2.076 1.643-2.738.731-.662 1.751-1.218 2.738-1.095.657.082 1.459.658 1.875 1.165.514.625.533 1.395.412 2.16-.185 1.169-.649 2.282-.837 3.45-.189 1.168-.104 2.786.74 3.63 0 0-1.095 1.095-3.286 1.095"/><path fill="none"  stroke-linecap="round" stroke-linejoin="round" stroke-miterlimit="10" d="M13.679 11.429a1.667 1.667 0 0 0 0 3.334h.833l-.833-3.334z"/><path fill="none"  stroke-linecap="round" stroke-linejoin="round" stroke-miterlimit="10" d="M13.429 12.429a.667.667 0 1 0 0 1.334h.333l-.333-1.334z"/></svg>