<svg id="icon-stroke-medium-close-captioning" xmlns="http://www.w3.org/2000/svg" viewBox="0 0 24 24"><path fill="none"  stroke-linecap="round" stroke-miterlimit="10" d="M.5 18.602a2.61 2.61 0 0 0 1.817 2.495C5.166 21.989 8.473 22.5 12 22.5s6.834-.511 9.683-1.403a2.61 2.61 0 0 0 1.817-2.495V5.398a2.61 2.61 0 0 0-1.817-2.495C18.834 2.011 15.527 1.5 12 1.5s-6.834.511-9.683 1.403A2.61 2.61 0 0 0 .5 5.398v13.204z"/><path fill="none"  stroke-linecap="round" stroke-miterlimit="10" d="M10.201 16.167c-.62.259-1.323.389-2.108.389-1.157 0-2.045-.388-2.665-1.165-.62-.776-.93-1.887-.93-3.332 0-.91.151-1.707.452-2.389.3-.683.736-1.205 1.305-1.569.569-.364 1.238-.545 2.005-.545.807 0 1.553.187 2.238.563"/><path fill="none"  stroke-linecap="round" stroke-miterlimit="10" d="M10.227 16.167c-.566.259-1.207.389-1.924.389-1.056 0-1.866-.388-2.432-1.165-.566-.776-.848-1.887-.848-3.332 0-.91.137-1.707.412-2.389.274-.683.672-1.205 1.191-1.569.519-.364 1.13-.545 1.83-.545.736 0 1.417.187 2.042.563M19.226 16.167c-.62.259-1.323.389-2.108.389-1.157 0-2.045-.388-2.665-1.165-.62-.776-.93-1.887-.93-3.332 0-.91.151-1.707.452-2.389.3-.683.736-1.205 1.305-1.569.569-.364 1.238-.545 2.005-.545.807 0 1.553.187 2.238.563"/><path fill="none"  stroke-linecap="round" stroke-miterlimit="10" d="M19.252 16.167c-.566.259-1.207.389-1.924.389-1.056 0-1.866-.388-2.432-1.165-.566-.776-.848-1.887-.848-3.332 0-.91.137-1.707.412-2.389.274-.683.672-1.205 1.191-1.569.519-.364 1.13-.545 1.83-.545.736 0 1.417.187 2.042.563"/></svg>