<svg id="icon-stroke-small-disapproval" xmlns="http://www.w3.org/2000/svg" viewBox="0 0 16 16"><path fill="none"  stroke-linecap="round" stroke-miterlimit="10" d="M2.5 3.5c-.827 0-1.5.649-1.5 1.448v.105C1 5.851 1.673 6.5 2.5 6.5"/><path fill="none"  stroke-linecap="round" stroke-linejoin="round" stroke-miterlimit="10" d="M12.211 1.789L13.5.5h2v9h-2"/><path fill="none"  stroke-linecap="round" stroke-linejoin="round" stroke-miterlimit="10" d="M3 3.5c-.827 0-1.5-.649-1.5-1.447v-.105C1.5 1.149 2.173.5 3 .5h7A2.5 2.5 0 0 1 12.5 3v5.5a1 1 0 0 1-1 1c-1.381 0-3 3.119-3 4.5 0 .775-.702 1.5-1.5 1.5-.857 0-1.5-.672-1.5-1.5V9.5H2C1.173 9.5.5 8.851.5 8.053v-.106C.5 7.149 1.173 6.5 2 6.5"/></svg>