<svg id="icon-stroke-medium-discussion" xmlns="http://www.w3.org/2000/svg" viewBox="0 0 24 24"><path fill="none"  stroke-linejoin="round" stroke-miterlimit="10" d="M23.5 15.79c0-4.135-3.404-7.29-7.526-7.29S8.5 11.864 8.5 15.999c0 4.136 3.18 7.501 7.301 7.501 1.274 0 2.705-.329 3.816-.952l3.883.952-1.161-3.571c.726-1.181 1.161-2.748 1.161-4.139z"/><path fill="none"  stroke-linecap="round" stroke-linejoin="round" stroke-miterlimit="10" d="M20.484 9.934C20.19 4.682 15.824.5 10.5.5 4.986.5.5 4.986.5 10.499c0 1.883.526 3.713 1.523 5.302L.5 20.5l5.067-1.303a9.968 9.968 0 0 0 4.046 1.258"/><circle fill="none"  stroke-linejoin="round" stroke-miterlimit="10" cx="13" cy="16" r=".5"/><circle fill="none"  stroke-linejoin="round" stroke-miterlimit="10" cx="16" cy="16" r=".5"/><circle fill="none"  stroke-linejoin="round" stroke-miterlimit="10" cx="19" cy="16" r=".5"/></svg>