<svg id="icon-stroke-medium-draw" xmlns="http://www.w3.org/2000/svg" viewBox="0 0 24 24"><path fill="none"  stroke-linejoin="round" stroke-miterlimit="10" d="M15.829 21.229l-9.96-9.959-.631-.603-4.133-4.133A2.049 2.049 0 0 1 .5 5.074c0-.55.215-1.069.604-1.46l2.511-2.511A2.056 2.056 0 0 1 5.074.5c.551 0 1.069.215 1.46.604l3.615 3.614-.015.014 11.097 11.097L23.5 23.5l-7.671-2.271zM8.461 3.154L3.154 8.462"/><path fill="none"  stroke-linejoin="round" stroke-miterlimit="10" d="M15.981 21.288l2.653-2.653 2.654-2.654M14.864 16c-.302 0-.588-.118-.803-.332L8.333 9.941A1.13 1.13 0 0 1 8 9.136 1.133 1.133 0 0 1 9.136 8c.303 0 .588.118.803.332l5.729 5.728c.214.215.332.5.332.804A1.133 1.133 0 0 1 14.864 16z"/></svg>