<svg id="icon-stroke-medium-edit-tool" xmlns="http://www.w3.org/2000/svg" viewBox="0 0 24 24"><path fill="none"  stroke-miterlimit="10" d="M7.646 10.814a5.303 5.303 0 0 1-1.829.324A5.304 5.304 0 0 1 .5 5.868a5.31 5.31 0 0 1 .315-1.856.134.134 0 0 1 .22-.049l2.642 2.643c.834.834 2.215.85 3.033 0a2.104 2.104 0 0 0-.028-2.946L4.033 1.01a.134.134 0 0 1 .05-.221A5.32 5.32 0 0 1 5.798.5c2.916-.01 5.319 2.37 5.336 5.287a5.303 5.303 0 0 1-.333 1.889l.928.928 11.125 11.128a2.207 2.207 0 0 1-3.12 3.121L7.646 10.814z"/></svg>