<svg id="icon-stroke-medium-goal" xmlns="http://www.w3.org/2000/svg" viewBox="0 0 24 24"><path fill="none"  stroke-miterlimit="10" d="M10.5 18.5h3v2h-3zM20.503 3.5H3.497a.997.997 0 0 1-.997-.997V1.497C2.5.946 2.946.5 3.497.5h17.006c.551 0 .997.446.997.997v1.006a.997.997 0 0 1-.997.997zM15.503 23.5H8.497a.997.997 0 0 1-.997-.997v-1.006c0-.551.446-.997.997-.997h7.006c.551 0 .997.446.997.997v1.006a.997.997 0 0 1-.997.997zM12.075 15.5h-.15A7.425 7.425 0 0 1 4.5 8.075V3.5h15v4.575a7.425 7.425 0 0 1-7.425 7.425z"/><path fill="none"  stroke-miterlimit="10" d="M13.019 18.509l-2.021.012A1.489 1.489 0 0 1 9.5 17.032v-.042c0-.823.667-1.489 1.489-1.489h2.021c.823 0 1.489.667 1.489 1.489v.03a1.488 1.488 0 0 1-1.48 1.489zM19.54 10.5h-.04v-5H23a.5.5 0 0 1 .5.5v.54a3.96 3.96 0 0 1-3.96 3.96zM4.46 10.5h.04v-5H1a.5.5 0 0 0-.5.5v.54a3.96 3.96 0 0 0 3.96 3.96z"/></svg>