<svg id="icon-stroke-medium-grades" xmlns="http://www.w3.org/2000/svg" viewBox="0 0 24 24"><g fill="none"  stroke-linecap="round" stroke-linejoin="round" stroke-miterlimit="10"><path d="M15.1 22.3l-2.4-2.4 8.4-8.4 2.4 2.4zM19.3 13.3l2.4 2.4"/><path d="M12.8 19.9l-1.2 3c-.1.3.2.6.5.5l3-1.2"/></g><path fill="none"  stroke-linecap="round" stroke-linejoin="round" stroke-miterlimit="10" d="M9.5 22.5h-8c-.6 0-1-.4-1-1v-20c0-.6.4-1 1-1h16c.6 0 1 .4 1 1v10"/><path fill="none"  stroke-linecap="round" stroke-miterlimit="10" d="M3.5 4.5h6M3.5 7.5h12M3.5 10.5h12M3.5 13.5h12M3.5 16.5h5.8"/></svg>