<svg id="icon-stroke-medium-groups" xmlns="http://www.w3.org/2000/svg" viewBox="0 0 24 24"><g fill="none"  stroke-linecap="round" stroke-linejoin="round" stroke-miterlimit="10"><path d="M9.427 17.31c-.884.886-1.448 2.228-1.448 3.729 0 .899.206 1.738.558 2.459h6.84c.352-.721.558-1.56.558-2.459 0-1.488-.554-2.819-1.425-3.705"/><ellipse cx="11.957" cy="14.998" rx="3" ry="3.5"/><path d="M1.845 6.31C.961 7.196.397 8.538.397 10.039c0 .899.206 1.738.558 2.459h6.84c.352-.721.558-1.56.558-2.459 0-1.488-.554-2.819-1.425-3.705"/><ellipse cx="4.375" cy="3.998" rx="3" ry="3.5"/><path d="M16.845 6.31c-.884.886-1.448 2.228-1.448 3.729 0 .899.206 1.738.558 2.459h6.84c.352-.721.558-1.56.558-2.459 0-1.488-.554-2.819-1.425-3.705"/><ellipse cx="19.375" cy="3.998" rx="3" ry="3.5"/><path d="M17.435 17.507l3-3M6.375 17.507l-3-3M9.935 5.498h4"/></g></svg>