<svg id="icon-stroke-medium-help" xmlns="http://www.w3.org/2000/svg" viewBox="0 0 24 24"><path fill="none"  stroke-linecap="round" stroke-miterlimit="10" d="M8 9.064c0-1.999 1.791-3.62 4-3.62s4 1.621 4 3.62c0 1.523-1.039 2.827-2.511 3.361A2.236 2.236 0 0 0 12 14.524v.976"/><circle fill="none"  stroke-miterlimit="10" cx="12" cy="18" r=".5"/><path fill="none"  stroke-linecap="round" stroke-linejoin="round" stroke-miterlimit="10" d="M12 .5C5.659.5.5 5.659.5 12c0 2.166.605 4.269 1.751 6.097L.808 23.481l5.519-1.479A11.478 11.478 0 0 0 12 23.5c6.341 0 11.5-5.159 11.5-11.5S18.341.5 12 .5z"/></svg>