<svg id="icon-stroke-medium-lightbulb" xmlns="http://www.w3.org/2000/svg" viewBox="0 0 24 24"><path fill="none"  stroke-linecap="round" stroke-miterlimit="10" d="M8 19.524h8M8 21.524h8M10 23.524h4"/><path fill="none"  stroke-width="1.067" stroke-linejoin="round" stroke-miterlimit="10" d="M19.5 7.559c0-4.413-4.272-7.883-9.123-6.922-2.862.566-5.156 2.773-5.725 5.481-.483 2.299.221 4.431 1.626 5.988a7.568 7.568 0 0 1 1.972 5.083v.036c0 .139.122.252.271.252h6.905c.179 0 .324-.134.324-.3v-.037c0-1.808.632-3.59 1.904-4.96 1.147-1.235 1.846-2.846 1.846-4.621z"/><path fill="none"  stroke-width="1.067" stroke-linecap="round" stroke-linejoin="round" stroke-miterlimit="10" d="M12.056 10.393v6.742"/></svg>