<svg id="icon-stroke-medium-locked-view" xmlns="http://www.w3.org/2000/svg" viewBox="0 0 24 24"><path fill="none"  stroke-miterlimit="10" d="M14 10.9c0-1.1-.9-2-2-2s-2 .9-2 2c0 .7.4 1.4 1 1.7v2.3c0 .5.5 1 1 1s1-.5 1-1v-2.3c.6-.3 1-.9 1-1.7z"/><g fill="none"  stroke-linecap="round" stroke-linejoin="round"><path d="M1.1 11.5c-.2.2-.3.4-.3.4l-.3.3.3.3s.1.2.3.5"/><path stroke-dasharray="2.0668,2.5835" d="M2.8 14.9c1.9 1.9 5.1 4.2 9.2 4.2 4.8 0 8.3-3.2 10.1-5.1"/><path d="M22.9 13c.2-.2.3-.4.3-.5l.3-.3-.3-.3s-.1-.2-.3-.4"/><path stroke-dasharray="2.0669,2.5837" d="M21.2 9.5c-1.9-1.9-5.1-4.2-9.2-4.2-4.8 0-8.3 3.2-10.1 5.1"/></g></svg>