<svg id="icon-stroke-medium-main-speaker" xmlns="http://www.w3.org/2000/svg" viewBox="0 0 24 24"><path fill="none"  stroke-linecap="round" stroke-linejoin="round" stroke-miterlimit="10" d="M1.5 7.5h21a1 1 0 0 1 1 1v14a1 1 0 0 1-1 1h-21a1 1 0 0 1-1-1v-14a1 1 0 0 1 1-1z"/><path fill="none"  stroke-linecap="round" stroke-miterlimit="10" d="M19.5.5h3a1 1 0 0 1 1 1v3a1 1 0 0 1-1 1h-3a1 1 0 0 1-1-1v-3a1 1 0 0 1 1-1zM10.5.5h3a1 1 0 0 1 1 1v3a1 1 0 0 1-1 1h-3a1 1 0 0 1-1-1v-3a1 1 0 0 1 1-1zM1.5.5h3a1 1 0 0 1 1 1v3a1 1 0 0 1-1 1h-3a1 1 0 0 1-1-1v-3a1 1 0 0 1 1-1z"/></svg>