<svg id="icon-stroke-medium-merge-windows" xmlns="http://www.w3.org/2000/svg" viewBox="0 0 24 24"><path fill="none"  stroke-linecap="round" stroke-linejoin="round" stroke-miterlimit="10" d="M10.5 5.5v5h-5M10 10L3.5 3.5M13.5 18.5v-5h5M14 14l6.5 6.5"/><path fill="none"  stroke-linecap="round" stroke-linejoin="round" stroke-miterlimit="10" d="M9.5 16.5v6a1 1 0 0 0 1 1h12a1 1 0 0 0 1-1v-12a1 1 0 0 0-1-1h-6M14.5 7.5v-6a1 1 0 0 0-1-1h-12a1 1 0 0 0-1 1v12a1 1 0 0 0 1 1h6"/><g fill="none"  stroke-linecap="round" stroke-linejoin="round"><path d="M9.5 14.5"/><path stroke-dasharray="0,1.7678" d="M10.75 13.25l3.125-3.125"/><path d="M14.5 9.5"/></g></svg>