<svg id="icon-stroke-medium-multi-account" xmlns="http://www.w3.org/2000/svg" viewBox="0 0 24 24"><path fill="none"  stroke-miterlimit="10" d="M20.5 21.5h-19c-.55 0-1-.45-1-1v-14c0-.55.45-1 1-1h19c.55 0 1 .45 1 1v14c0 .55-.45 1-1 1z"/><g fill="none"  stroke-linejoin="round" stroke-miterlimit="10"><ellipse cx="6.472" cy="11.845" rx="2.5" ry="3.038"/><path stroke-linecap="round" d="M4.098 13.442C3.424 14.187 3 15.244 3 16.419c0 .761.18 1.471.487 2.081h5.969c.307-.61.487-1.32.487-2.081 0-1.175-.424-2.232-1.098-2.978"/></g><path fill="none"  stroke-linecap="round" stroke-miterlimit="10" d="M12.5 11.421h6M12.5 13.421h6M12.5 15.421h6"/><path fill="none"  stroke-linecap="round" stroke-linejoin="round" stroke-miterlimit="10" d="M3.5 3.421h19a1 1 0 0 1 1 1v15"/></svg>