<svg id="icon-stroke-medium-mute-phone" xmlns="http://www.w3.org/2000/svg" viewBox="0 0 24 24"><path fill="none"  stroke-linecap="round" stroke-linejoin="round" stroke-miterlimit="10" d="M21.117 4.995A11.448 11.448 0 0 1 23.496 12M11.995.5c2.634 0 5.061.886 7 2.375M18.927 7.079A8.46 8.46 0 0 1 20.495 12M11.995 3.5c1.76 0 3.396.535 4.752 1.452M16.799 9.32c.443.793.696 1.707.696 2.68M11.995 6.5c.972 0 1.885.252 2.677.694"/><g fill="none"  stroke-linecap="round" stroke-miterlimit="10"><path d="M8.158 13.72l-1.25-1.25c-.699-.699-.619-1.835.187-2.641L8.51 8.415c.327-.374.22-1.195-.18-1.595L5.306 3.797c-.391-.391-.989-.382-1.393.021L2.057 5.675C1.013 6.761.507 7.923.505 9.236c-.004 2.413.967 4.629 4.132 8.002M6.761 19.362c3.372 3.164 5.585 4.132 7.998 4.128 1.313-.002 2.475-.508 3.561-1.552l1.857-1.857c.403-.403.413-1.002.022-1.392l-3.024-3.024c-.4-.4-1.221-.507-1.594-.18L14.166 16.9c-.806.806-1.942.886-2.641.187l-1.248-1.248"/></g><path fill="none"  stroke-miterlimit="10" d="M18.763 21.496L14.166 16.9M7.095 9.829L2.499 5.233"/><path fill="none"  stroke-linecap="round" stroke-linejoin="round" stroke-miterlimit="10" d="M1.495 22.5l21-21"/></svg>