<svg id="icon-stroke-medium-mute-audio" xmlns="http://www.w3.org/2000/svg" viewBox="0 0 24 24"><path fill="none"  stroke-linecap="round" stroke-linejoin="round" stroke-miterlimit="10" d="M17.5 8.621v5.352c0 3.053-2.462 5.527-5.5 5.527h.084a5.603 5.603 0 0 1-3.887-1.576M6.647 15.23a5.432 5.432 0 0 1-.147-1.257V6.027C6.5 2.975 8.962.5 12 .5h.084c2.535 0 4.611 1.723 5.228 4.068M4.996 16.882a6.378 6.378 0 0 1-.496-2.471V9.5"/><path fill="none"  stroke-linecap="round" stroke-linejoin="round" stroke-miterlimit="10" d="M19.5 9.5v5.147c0 3.91-3.539 6.682-7.418 6.85-.027.007-.055 0-.082 0-.027 0-.048.007-.082 0a8.265 8.265 0 0 1-5.157-2.134M15 23.5H9M12 22.943v-1.446M1.5 22.5l21-21"/></svg>