<svg id="icon-stroke-medium-no-time-limit" xmlns="http://www.w3.org/2000/svg" viewBox="0 0 24 24"><path fill="none"  stroke-width=".958" stroke-linecap="round" stroke-miterlimit="10" d="M18.514 21.367A11.384 11.384 0 0 1 12 23.5C5.649 23.563.5 18.351.5 12c0-2.436.758-4.696 2.05-6.556M5.421 2.567A11.443 11.443 0 0 1 12 .5C18.351.5 23.625 5.65 23.5 12a11.719 11.719 0 0 1-2.154 6.518"/><g fill="none"  stroke-linecap="round" stroke-linejoin="round" stroke-miterlimit="10"><path d="M8.562 11.469l-2.907.137M11.637 5.484l-.155 3.126M12.501 15.422l-.145 2.906M18.499 12.359l-3.171.149M11.261 20.456l-7.722-7.739a1.022 1.022 0 0 1-.016-1.426l.014-.015a1.02 1.02 0 0 1 1.461-.016L12.721 19a1.022 1.022 0 0 1-.002 1.444l-.015.015a1.021 1.021 0 0 1-1.443-.003zM19.026 12.709L11.304 4.97a1.022 1.022 0 0 1-.016-1.426l.014-.015a1.02 1.02 0 0 1 1.461-.016l7.722 7.74a1.022 1.022 0 0 1-.002 1.444l-.015.015a1.02 1.02 0 0 1-1.442-.003z"/></g><path fill="none"  stroke-linecap="round" stroke-linejoin="round" stroke-miterlimit="10" d="M4 4l15.833 15.833"/></svg>