<svg id="icon-stroke-medium-notes" xmlns="http://www.w3.org/2000/svg" viewBox="0 0 24 24"><path fill="none"  stroke-linecap="round" stroke-linejoin="round" stroke-miterlimit="10" d="M11.5 23.5h-10a1 1 0 0 1-1-1v-21a1 1 0 0 1 1-1h11M18.5 6.5v7"/><path fill="none"  stroke-linejoin="round" stroke-miterlimit="10" d="M18.5 6.5h-5a1 1 0 0 1-1-1v-5l6 6z"/><path fill="none"  stroke-linecap="round" stroke-linejoin="round" stroke-miterlimit="10" d="M2.5 14.5h13M2.5 11.5h14M2.5 8.5h14"/><path fill="none"  stroke-miterlimit="10" d="M.5 4.5h12"/><path fill="none"  stroke-linecap="round" stroke-linejoin="round" stroke-miterlimit="10" d="M2.5 17.5h11M2.5 20.5h9"/><path fill="none"  stroke-miterlimit="10" d="M4.5 4.5v19"/><g fill="none"  stroke-linecap="round" stroke-linejoin="round" stroke-miterlimit="10"><path d="M16.5 22.5l-2-2 7.007-7 1.993 2zM20 15l2 2M14.5 20.531l-.987 2.507a.367.367 0 0 0 .453.448l2.534-.971"/></g></svg>