<svg id="icon-stroke-small-notifications" xmlns="http://www.w3.org/2000/svg" viewBox="0 0 16 16"><path fill="none"  stroke-miterlimit="10" d="M9.639 13.853c0 .948-.707 1.669-1.636 1.669-.93 0-1.636-.721-1.636-1.669M12.995 13.567H3.01c-.686 0-1.185-.663-.969-1.309.324-.972 1.569-2.183 1.663-4.046.138-2.598 1.523-4.182 3.238-4.725a3.552 3.552 0 0 1 2.121 0c1.714.542 3.1 2.127 3.238 4.724.095 1.864 1.339 3.074 1.663 4.046.216.647-.283 1.31-.969 1.31z"/><path fill="none"  stroke-linecap="round" stroke-miterlimit="10" d="M9.452 1.641C9.29.987 8.704.5 8 .5S6.71.987 6.548 1.641"/></svg>