<svg id="icon-stroke-small-one-drive" xmlns="http://www.w3.org/2000/svg" viewBox="0 0 16 16"><path fill="none"  stroke-width="1.02" stroke-miterlimit="10" d="M14.1 9.3c0-1.4-1.1-2.4-2.4-2.4-.4 0-.8.1-1.1.3C10.1 6.5 9.3 6 8.3 6 6.8 6 5.6 7.1 5.6 8.5h-.1c-1.1 0-2 .9-2 2s.9 2 2 2h8.4c.9 0 1.7-.7 1.7-1.6-.1-.9-.7-1.5-1.5-1.6z"/><path fill="none"  stroke-width="1.011" stroke-linecap="round" stroke-miterlimit="10" d="M12 4.6c-.4-1.2-1.6-2.1-2.9-2.1H9c-1.3 0-2.5.8-2.9 2-.4-.3-.8-.4-1.3-.4-1.4 0-2.5 1.1-2.5 2.4v.4c-1 .1-1.8 1-1.8 2 0 1.1.9 2 2 2h.7"/></svg>