<svg id="icon-stroke-medium-overall-grade" xmlns="http://www.w3.org/2000/svg" viewBox="0 0 24 24"><path fill="none"  stroke-miterlimit="10" d="M8.5 6.587v13.802c0 .087.103.141.183.094l4.812-2.328 4.788 2.328c.08.046.212-.007.212-.094V6.587H8.5z"/><path fill="none"  stroke-linejoin="round" stroke-miterlimit="10" d="M13.497 9.841l.941 1.881 2.103.302-1.522 1.464.359 2.068-1.881-.976-1.881.976.36-2.068-1.522-1.464 2.103-.302z"/><path fill="none"  stroke-miterlimit="10" d="M18.5.5h-13c-1.65 0-3 1.35-3 3v17c0 1.65 1.35 3 3 3h13c1.65 0 3-1.35 3-3V6.618"/><path fill="none"  stroke-linecap="round" stroke-miterlimit="10" d="M21.5 6.5h-16c-1.65 0-3-1.35-3-3s1.35-3 3-3h16M5.5 4.5h16M5.5 2.5h16"/><path fill="none"  stroke-miterlimit="10" d="M5.5 6.489V23.5"/></svg>