<svg id="icon-stroke-medium-partial-credit" xmlns="http://www.w3.org/2000/svg" viewBox="0 0 24 24"><path fill="none"  stroke-miterlimit="10" d="M23.5 11.969c0-6.351-5.149-11.5-11.5-11.5S.5 5.618.5 11.969s5.149 11.5 11.5 11.5 11.5-5.148 11.5-11.5z"/><path fill="none"  stroke-linecap="round" stroke-linejoin="round" stroke-miterlimit="10" d="M12 5.469a6.5 6.5 0 1 0 0 13v-13z"/><path fill="none"  stroke-linecap="round" stroke-linejoin="round" stroke-miterlimit="10" d="M11.25 6.219c-2.761 0-5 2.574-5 5.75s2.239 5.75 5 5.75v-11.5z"/><path fill="none"  stroke-linecap="round" stroke-linejoin="round" stroke-miterlimit="10" d="M10.5 6.969c-1.933 0-3.5 2.239-3.5 5s1.567 5 3.5 5v-10z"/><path fill="none"  stroke-linecap="round" stroke-linejoin="round" stroke-miterlimit="10" d="M9.75 7.469c-1.105 0-2 2.015-2 4.5s.895 4.5 2 4.5v-9z"/><path fill="none"  stroke-linecap="round" stroke-linejoin="round" stroke-miterlimit="10" d="M9.25 7.469c-.552 0-1 2.015-1 4.5s.448 4.5 1 4.5v-9z"/></svg>