<svg id="Layer_1" xmlns="http://www.w3.org/2000/svg" viewBox="0 0 24 24"><style>.st0{stroke-linejoin:round}.st0,.st1,.st2{fill:none;stroke:#000;stroke-linecap:round}.st2{stroke:#333;stroke-linejoin:round}</style><g id="Medium-Symbols"><g id="Icon_x2F_Post-First_x2F_Medium"><path id="Stroke-2" class="st0" d="M22.5 23.5h-6c-.5 0-1-.5-1-1v-4c0-.6.4-1 1-1h6c.6 0 1 .4 1 1v4c0 .6-.5 1-1 1z"/><path id="Stroke-6" class="st0" d="M17.5 17.5v-1.9c0-.6.5-1.1 1.1-1.1h1.7c.6 0 1.1.5 1.1 1.1v1.9"/><path id="Stroke-8" class="st0" d="M23.2 14.5c.2-.8.3-1.6.3-2.5C23.5 5.7 18.3.5 12 .5S.5 5.7.5 12c0 2.2.6 4.3 1.8 6.1L.9 23.5 6.3 22C8 23 10 23.5 12 23.5c.5 0 1 0 1.5-.1"/><path id="Stroke-10" class="st1" d="M19.5 11.5c0-4.1-2.9-7-7-7"/><path id="Stroke-4" class="st2" d="M19.5 19.5v2"/></g></g></svg>