<svg id="icon-stroke-medium-preferences" xmlns="http://www.w3.org/2000/svg" viewBox="0 0 24 24"><g fill="none"  stroke-miterlimit="10"><path d="M13.77 11.055c.215.059.412.174.569.333l8.174 8.26a2.239 2.239 0 0 1 0 3.143 2.183 2.183 0 0 1-3.11 0l-8.196-8.282a1.286 1.286 0 0 1-.313-.519l-.732-1.974c-.309-.974.573-1.906 1.549-1.639l2.059.678zM9.881 15.849a3.212 3.212 0 0 1-.756-1.227l-.72-1.94-.015-.042-7.02 7.094a2.223 2.223 0 0 0 0 3.121 2.168 2.168 0 0 0 3.089 0l6.177-6.241-.755-.765zM12.384 8.604l1.933.636c.509.15.975.428 1.35.807l.759.767a5.206 5.206 0 0 0 1.811.324c2.899 0 5.237-2.341 5.264-5.27a5.355 5.355 0 0 0-.312-1.856.132.132 0 0 0-.218-.049l-2.616 2.643c-.826.834-2.193.85-3.002 0a2.12 2.12 0 0 1 .028-2.946l2.622-2.65a.134.134 0 0 0-.05-.221A5.222 5.222 0 0 0 18.255.5c-2.887-.01-5.265 2.37-5.282 5.287a5.345 5.345 0 0 0 .33 1.889l-.919.928zM10.524 10.847L5.568 5.838M2.436.794l3.109 1.772a.646.646 0 0 1 .317.405l.441 1.663a.654.654 0 0 1-.166.629l-1.139 1.15a.638.638 0 0 1-.622.168l-1.645-.445a.641.641 0 0 1-.401-.321L.577 2.674a.655.655 0 0 1 .112-.768l.988-.998a.639.639 0 0 1 .759-.114z"/></g></svg>