<svg id="icon-stroke-medium-print" xmlns="http://www.w3.org/2000/svg" viewBox="0 0 24 24"><path fill="none"  stroke-miterlimit="10" d="M7.5 13.523v6.717c0 .708.551 1.283 1.227 1.283h6.545c.677 0 1.227-.576 1.227-1.283v-6.717"/><circle fill="none"  stroke-miterlimit="10" cx="19" cy="10.023" r="1.5"/><path fill="none"  stroke-miterlimit="10" d="M17.5 4.648c0-.62-.569-1.125-1.269-1.125H7.769c-.7 0-1.269.505-1.269 1.125V6.5h11V4.648z"/><path fill="none"  stroke-linecap="round" stroke-miterlimit="10" d="M9.5 19.523h5M9.5 17.523h5"/><path fill="none"  stroke-width=".943" stroke-linejoin="round" stroke-miterlimit="10" d="M21.5 6.5h-19a2 2 0 0 0-2 2v9a2 2 0 0 0 2 2h3v-5a1 1 0 0 1 1-1h11a1 1 0 0 1 1 1v5h3a2 2 0 0 0 2-2v-9a2 2 0 0 0-2-2z"/></svg>