<svg id="icon-stroke-medium-programs" xmlns="http://www.w3.org/2000/svg" viewBox="0 0 24 24"><path fill="none"  stroke-linecap="round" stroke-linejoin="round" stroke-miterlimit="10" d="M6.567 2.012s-1.015-.5-2.995-.5-3.005.5-3.005.5v20s1.289.5 3 .5 3-.5 3-.5v-20zM13.567 9.012s-1.185-.5-3.494-.5-3.506.5-3.506.5v13s1.504.5 3.5.5 3.5-.5 3.5-.5v-13zM6.572 6.512h-6M.572 4.512h6M6.572 12.512h-6M.572 10.512h6M13.567 15.512h-7M6.567 11.512h7M2.567 17.512h2M9.067 20.012h2M9.567 18.012h1M9.067 13.512h2"/><g fill="none"  stroke-linecap="round" stroke-linejoin="round" stroke-miterlimit="10"><path d="M19.96 1.556s-1.253-.287-3.527.114-3.366 1.101-3.366 1.101l3.473 19.696s1.568.231 3.534-.115 3.36-1.1 3.36-1.1L19.96 1.556z"/><path d="M15.701 6.198l2.954-.52.521 2.954-2.954.52z" stroke-width=".99998"/><path d="M21.087 19.463l-2.955.521M20.74 17.494l-2.955.52"/></g></svg>