<svg id="icon-stroke-medium-raise-hand" xmlns="http://www.w3.org/2000/svg" viewBox="0 0 24 24"><path fill="none"  stroke-linecap="round" stroke-miterlimit="10" d="M10 12.067V5.373c0-1.23-.974-2.23-2.171-2.23h-.158c-1.197 0-2.171 1-2.171 2.23v5.889M14.5 9.962V2.71c0-1.23-.974-2.23-2.171-2.23h-.157c-1.197 0-2.171 1-2.171 2.23v9.324M19 9.962V2.71c0-1.23-.974-2.23-2.171-2.23h-.158c-1.197 0-2.171 1-2.171 2.23v9.324"/><path fill="none"  stroke-linecap="round" stroke-miterlimit="10" d="M14 19c-.682-4.881-7-5-7-5l-1.183-2.144c-.504-1.384-2.159-2.033-3.543-1.53a2.674 2.674 0 0 0-1.596 3.422l3.114 7.007c.729 1.697 2.399 2.724 4.246 2.724h9.665c3.191 0 5.777-2.515 5.777-5.705V6.242c0-1.23-.956-2.23-2.131-2.23h-.22c-1.175 0-2.131 1-2.131 2.23v5.755"/></svg>