<svg id="icon-stroke-medium-rubric" xmlns="http://www.w3.org/2000/svg" viewBox="-467 269 24 24"><path fill="none"  stroke-miterlimit="10" d="M-453 278.5h-4c-.3 0-.5-.2-.5-.5v-3c0-.3.2-.5.5-.5h4c.3 0 .5.2.5.5v3c0 .3-.2.5-.5.5zM-444 278.5h-4c-.3 0-.5-.2-.5-.5v-3c0-.3.2-.5.5-.5h4c.3 0 .5.2.5.5v3c0 .3-.2.5-.5.5zM-453 285.5h-4c-.3 0-.5-.2-.5-.5v-3c0-.3.2-.5.5-.5h4c.3 0 .5.2.5.5v3c0 .3-.2.5-.5.5zM-444 285.5h-4c-.3 0-.5-.2-.5-.5v-3c0-.3.2-.5.5-.5h4c.3 0 .5.2.5.5v3c0 .3-.2.5-.5.5zM-453 292.5h-4c-.3 0-.5-.2-.5-.5v-3c0-.3.2-.5.5-.5h4c.3 0 .5.2.5.5v3c0 .3-.2.5-.5.5zM-444 292.5h-4c-.3 0-.5-.2-.5-.5v-3c0-.3.2-.5.5-.5h4c.3 0 .5.2.5.5v3c0 .3-.2.5-.5.5z"/><path fill="none"  stroke-linecap="round" stroke-miterlimit="10" d="M-466.5 274.5h5M-466.5 276.5h2M-457.5 269.5h5M-457.5 271.5h2M-448.5 269.5h5M-448.5 271.5h2M-466.5 281.5h5M-466.5 283.5h2M-466.5 288.5h5M-466.5 290.5h2"/></svg>