<svg id="icon-stroke-medium-settings" xmlns="http://www.w3.org/2000/svg" viewBox="0 0 24 24"><path fill="none"  stroke-miterlimit="10" d="M8.53.5a.942.942 0 0 0-.344.066l-1.323.53a.923.923 0 0 0-.577.936l.238 2.821c-.58.437-1.104.94-1.563 1.505l-2.793-.302a.926.926 0 0 0-.95.555L.657 7.922A.924.924 0 0 0 .91 8.991l2.105 1.778a8.938 8.938 0 0 0-.04 2.265L.844 14.752a.924.924 0 0 0-.278 1.063l.529 1.321c.142.353.483.58.858.58.026 0 .052 0 .078-.003l2.687-.226a8.954 8.954 0 0 0 1.625 1.675l-.288 2.671a.925.925 0 0 0 .556.948l1.31.561a.922.922 0 0 0 1.071-.255l1.734-2.053a9.035 9.035 0 0 0 2.328.017l1.694 2.104a.926.926 0 0 0 1.065.278l1.322-.53a.924.924 0 0 0 .577-.935l-.23-2.734a8.921 8.921 0 0 0 1.604-1.586l2.745.296a.925.925 0 0 0 .95-.556l.56-1.311a.922.922 0 0 0-.254-1.068l-2.153-1.818a8.98 8.98 0 0 0 .009-2.161l2.211-1.781a.925.925 0 0 0 .278-1.063l-.53-1.322a.926.926 0 0 0-.936-.576l-2.867.242a8.904 8.904 0 0 0-1.465-1.496l.309-2.864a.922.922 0 0 0-.555-.948l-1.31-.561a.922.922 0 0 0-1.071.253L13.15 3.111a9.084 9.084 0 0 0-2.098-.028L9.251.845A.925.925 0 0 0 8.53.5z"/><path fill="none"  stroke-miterlimit="10" d="M12 15.538A3.542 3.542 0 0 1 8.462 12c0-1.952 1.587-3.539 3.538-3.539s3.539 1.587 3.539 3.539A3.543 3.543 0 0 1 12 15.538z"/></svg>