<svg id="icon-stroke-medium-speaker-view" xmlns="http://www.w3.org/2000/svg" viewBox="0 0 24 24"><path fill="none"  stroke-linecap="round" stroke-linejoin="round" stroke-miterlimit="10" d="M22.5 16.5h-21a1 1 0 0 1-1-1v-14a1 1 0 0 1 1-1h21a1 1 0 0 1 1 1v14a1 1 0 0 1-1 1z"/><path fill="none"  stroke-linecap="round" stroke-miterlimit="10" d="M4.5 23.5h-3a1 1 0 0 1-1-1v-3a1 1 0 0 1 1-1h3a1 1 0 0 1 1 1v3a1 1 0 0 1-1 1zM13.5 23.5h-3a1 1 0 0 1-1-1v-3a1 1 0 0 1 1-1h3a1 1 0 0 1 1 1v3a1 1 0 0 1-1 1zM22.5 23.5h-3a1 1 0 0 1-1-1v-3a1 1 0 0 1 1-1h3a1 1 0 0 1 1 1v3a1 1 0 0 1-1 1z"/></svg>