<svg id="icon-stroke-medium-telephony" xmlns="http://www.w3.org/2000/svg" viewBox="0 0 24 24"><path fill="none"  stroke-linecap="round" stroke-linejoin="round" stroke-miterlimit="10" d="M12 .5C18.351.5 23.5 5.649 23.5 12M12 3.5a8.5 8.5 0 0 1 8.5 8.5M12 6.5a5.5 5.5 0 0 1 5.5 5.5"/><path fill="none"  stroke-miterlimit="10" d="M5.706 18.334c3.986 3.986 6.401 5.161 9.058 5.156 1.313-.002 2.475-.508 3.561-1.552l1.857-1.857c.403-.403.413-1.002.022-1.392l-3.024-3.024c-.4-.4-1.221-.507-1.594-.18L14.171 16.9c-.806.806-1.942.886-2.641.187l-2.306-2.306-2.31-2.31c-.7-.7-.62-1.836.186-2.642l1.414-1.414c.327-.373.22-1.194-.18-1.594L5.31 3.797c-.39-.391-.989-.382-1.392.021L2.061 5.675C1.017 6.761.511 7.923.509 9.236c-.005 2.657 1.174 5.075 5.16 9.062l.037.036zM18.767 21.496L14.171 16.9M7.1 9.829L2.504 5.233"/></svg>