<svg id="icon-stroke-medium-time-limit" xmlns="http://www.w3.org/2000/svg" viewBox="0 0 24 24"><path fill="none"  stroke-linejoin="round" stroke-miterlimit="10" d="M20.906 8.515L7.848 3.385a1.485 1.485 0 0 1-.839-1.925l.011-.028A1.485 1.485 0 0 1 8.945.593l13.058 5.13c.763.3 1.139 1.162.839 1.925l-.011.028a1.485 1.485 0 0 1-1.925.839zM15.056 23.407l-13.058-5.13a1.485 1.485 0 0 1-.839-1.925l.011-.028a1.485 1.485 0 0 1 1.925-.839l13.058 5.13c.763.3 1.139 1.162.839 1.925l-.011.028a1.485 1.485 0 0 1-1.925.839zM7.861 3.391l2.994 7.506a.998.998 0 0 1-.445 1.133l-7.302 3.46M20.892 8.51l-7.3 3.459c-.39.234-.573.701-.447 1.137l2.994 7.503"/></svg>