<svg id="icon-stroke-small-unlocked" xmlns="http://www.w3.org/2000/svg" viewBox="0 0 16 16"><path fill="none"  stroke-width="1.055" stroke-miterlimit="10" d="M13.054 15.5H2.946A1.455 1.455 0 0 1 1.5 14.037V7.963c0-.808.647-1.463 1.446-1.463h10.109c.798 0 1.446.655 1.446 1.463v6.075a1.456 1.456 0 0 1-1.447 1.462z"/><path fill="none"  stroke-miterlimit="10" d="M8.015 13.5h-.03c-.82 0-1.485-.665-1.485-1.485v-2.03c0-.82.665-1.485 1.485-1.485h.03c.82 0 1.485.665 1.485 1.485v2.03c0 .82-.665 1.485-1.485 1.485z"/><path fill="none"  stroke-linecap="round" stroke-miterlimit="10" d="M11.531 3.5a3.542 3.542 0 0 0-3.496-3h-.071a3.551 3.551 0 0 0-3.551 3.551v1.971"/></svg>