<svg id="icon-stroke-medium-user-focus" xmlns="http://www.w3.org/2000/svg" viewBox="0 0 24 24"><path fill="none"  stroke-linecap="round" stroke-linejoin="round" stroke-miterlimit="10" d="M9.417 11.31c-.884.886-1.448 2.228-1.448 3.729 0 .899.206 1.738.558 2.459h6.84c.352-.721.558-1.56.558-2.459 0-1.488-.554-2.819-1.425-3.705"/><ellipse fill="none"  stroke-linecap="round" stroke-miterlimit="10" cx="11.947" cy="8.998" rx="3" ry="3.5"/><path fill="none"  stroke-miterlimit="10" d="M11.99.5C5.639.5.49 5.649.49 12s5.149 11.5 11.5 11.5 11.5-5.149 11.5-11.5S18.342.5 11.99.5z"/><path fill="none"  stroke-linecap="round" stroke-miterlimit="10" d="M11.99.5v3M11.99 20.5v3M.49 12h3M20.49 12h3"/></svg>