<?xml version="1.0"?><svg version="1.2" baseProfile="tiny-ps" viewBox="0 0 300 300" xmlns="http://www.w3.org/2000/svg" xmlns:xlink="http://www.w3.org/1999/xlink"><title>AppyMeal LLC</title><g><g fill="#fff" transform="matrix(.1 0 0 -.1 0 300)"><path d="M1302 2989c-174-23-402-101-548-187-39-23-109-69-155-103l-84-62-85-87-85-86-67-95-67-94-50-100c-62-125-104-246-133-378L6 1695v-390l22-102C158 602 605 158 1210 29l105-23h370l105 23c607 129 1052 574 1181 1181l23 105v370l-23 105c-128 603-575 1054-1169 1180l-97 21-165 4-165 4-73-10z"/></g><g fill="#f9e9e5" transform="matrix(.1 0 0 -.1 0 300)"><path d="M1302 2989c-174-23-402-101-548-187-39-23-109-69-155-103l-84-62-85-87-85-86-67-95-67-94-50-100c-62-125-104-246-133-378L6 1695v-390l22-102C158 602 605 158 1210 29l105-23h370l105 23c607 129 1052 574 1181 1181l23 105v370l-23 105c-128 603-575 1054-1169 1180l-97 21-165 4-165 4-73-10zm453-84c188-33 382-114 550-229l89-61 88-84 89-84 59-79c78-103 133-197 182-310l40-93 29-114 29-113 11-120 12-119-12-119-12-120-24-98c-40-167-101-303-202-457l-60-90-78-83c-142-151-302-264-486-344l-94-40-110-28-111-28-121-13-122-12-119 12-120 11-113 29-114 29-93 40c-181 78-334 185-473 329l-86 89-60 90c-116 172-194 360-230 554l-17 95v165l1 165 21 102c29 136 73 256 138 383l55 105 64 85 63 86 99 94 99 95 84 56c195 130 409 210 636 239l69 9 130-4 130-4 90-16zm-475-59c-228-41-425-125-599-256l-78-59-90-94-90-94-52-79c-95-142-169-315-206-484l-16-75-6-151-6-152 12-83c23-162 87-358 156-475l27-45 28 45 29 45 59 43c32 24 81 54 110 67l52 24v97h163l33-37 34-38 34 38 33 37h163V750H910v194l-35-34-35-34-35 34-35 34V750H610v202l-58-32c-31-18-76-50-99-73l-43-41-10-32-11-32 17-41 16-41 42-36 41-36 80-38c154-75 379-126 656-151l134-12 215 6 215 6 132 20c244 37 437 97 549 170 69 45 88 64 108 113l15 36-9 33-10 33-37 39c-45 46-116 88-207 122-36 14-69 25-71 25-3 0-5-34-5-75v-75h150v-90h-310v370h160v-55l68-24c147-53 255-124 302-198l28-43 29 52c103 182 163 426 163 658v108l-20 114-19 113-30 88c-41 120-90 219-163 329l-62 93-105 106-106 105-101 67c-151 100-297 162-477 202l-72 17-175 3-175 4-75-13zm397-187c36-13 43-25 43-77v-43l18-5c185-57 325-156 411-287l40-62 20-60c10-33 22-87 26-120l6-60-23-45-23-45-48-32c-62-42-135-68-255-93l-98-20-146-11-146-11-154 11-153 11-110 25-110 25-74 37-74 38-31 38-31 39 1 71v72l18 55c26 78 69 151 129 217l52 57 73 48 74 48 84 32 84 31v98l33 14 32 14 152 1h152l28-11zM976 1432l63-183-82 3-81 3-10 33-9 33-66-3-65-3-10-32-9-33H550v7c0 4 28 88 61 186l62 178 120-3 119-3 64-183zm484 153 31-31 5-36 6-35-17-37-18-37-28-14-28-15h-77l-22 16-22 15v-161h-160v371l150-3 150-3 30-30zm431 18 29-17 15-32c19-41 19-77 0-114l-15-30-30-15-29-15h-77l-22 16-22 15v-161h-160v370h282l29-17zm305-23c15-22 29-40 33-40 3 0 17 18 31 40l25 40h77c43 0 78-2 78-5s-29-49-65-103l-65-97v-165h-160v164l-71 103-70 103h161l26-40zm-716-500v-40h-140v-60h100v-90h-100v-50h140v-90h-300v370h300v-40zm496-147 63-183h-159l-15 35-14 36-63-3-62-3-10-32-9-33h-157v7c0 4 28 87 62 185l62 179 119-3 119-3 64-182zm-629 1680-18-5 3-26 3-27 55 5c30 3 80 5 110 5s80-2 110-5l55-5 3 26 3 26-23 7c-26 7-274 6-301-1zm8-128c-130-24-221-63-320-138l-60-45-36-49c-47-61-79-115-79-130v-12l65 30 65 31 117 25 118 24 210 6 210 5 120-16c147-19 231-40 313-77 34-15 62-25 62-22s-14 31-30 62l-31 57-62 62-62 61-59 35c-149 90-360 125-541 91zm4-325c-194-12-337-43-441-96l-46-23-21-27-21-27v-46l30-35 30-34 63-26c71-29 148-49 262-67l80-13h410l80 13c114 18 191 38 262 67l63 26 30 34 30 35v46l-20 26-21 26-62 31c-147 71-427 107-708 90zm-579-684c-5-15-13-38-16-51l-6-25h71l-16 48c-20 60-20 60-33 28zm510 29v-45h18c24 0 42 19 42 45s-18 45-42 45h-18v-45zm450 0v-45h18c24 0 42 19 42 45s-18 45-42 45h-18v-45zm40-529c-5-15-13-38-16-51l-6-25h71l-16 48c-20 60-20 60-33 28zM644 442c13-21 188-132 269-171 45-21 125-52 177-69l95-30 110-17 110-18 140 6 140 5 80 17c115 24 247 70 349 121 93 47 236 141 236 155v8l-42-15c-137-48-349-87-578-105l-145-12-180 6-180 6-120 16c-178 24-346 61-452 102l-16 6 7-11z"/></g><g fill="#efc9c6" transform="matrix(.1 0 0 -.1 0 300)"><path d="M1302 2989c-174-23-402-101-548-187-39-23-109-69-155-103l-84-62-85-87-85-86-67-95-67-94-50-100c-62-125-104-246-133-378L6 1695v-390l22-102C158 602 605 158 1210 29l105-23h370l105 23c607 129 1052 574 1181 1181l23 105v370l-23 105c-128 603-575 1054-1169 1180l-97 21-165 4-165 4-73-10zm480-89c200-42 384-122 544-236l89-63 91-91 91-91 57-79c116-161 205-363 248-563l21-102 1-165v-165l-17-95c-36-193-117-390-235-566l-61-90-113-110-113-110-85-56c-169-112-361-190-550-225l-95-17h-165l-165 1-102 21c-199 43-396 129-556 243l-82 58-99 98-98 98-60 89c-115 170-189 343-229 539l-20 99-6 112-6 111 12 102c7 56 23 148 37 204l24 101 40 94c146 350 424 628 774 775l94 39 104 25c56 13 135 29 173 34l70 10 145-4 145-4 97-21zm-517-59c-188-34-384-114-544-224l-76-52-105-105-105-105-52-76c-72-105-136-236-177-360l-34-104-16-101-16-101v-218l15-95c7-52 26-135 40-185l26-90 51-107c28-60 55-108 59-108 5 0 15 13 23 29 9 16 37 48 63 71l48 42 72 36 73 36v96h168l31-38 31-37 31 38 31 37h168V750H910v180h-9c-5 0-21-14-35-31l-26-31-26 31c-14 17-30 31-35 31h-9V750H610v95c0 52-3 95-6 95s-33-14-66-32l-59-32-40-44-39-45v-80l22-35 21-34 66-43c126-81 304-136 564-177l142-22h275l275-1 95 13c379 54 629 145 716 263l24 33v67l-14 28c-8 15-32 43-53 61l-38 33-90 43c-49 23-100 45-112 49l-23 6V840h150v-90h-310v370h159l3-27 3-27 70-26c144-53 267-135 301-201 8-16 18-29 23-29 12 0 96 182 125 273 14 43 33 117 43 165l18 87v340l-24 104c-56 256-170 471-351 665l-64 67-99 75-99 75-121 59-122 59-90 26c-49 14-133 33-185 40l-95 15-120-1-120-1-100-17zm425-184 25-12 3-52 3-52 52-17c29-9 87-34 129-56l77-40 67-61 68-62 37-58 38-58 22-67 23-67v-72l1-71-31-39-31-38-49-27c-69-39-181-73-309-94l-110-18h-410l-110 18c-197 32-323 82-384 151l-30 35-7 37-7 38 11 70 12 70 37 75 36 75 81 81 81 80 80 41c44 22 103 48 132 57l52 17 3 52 3 52 25 12 25 13h330l25-13zM976 1435c35-99 64-181 64-182 0-2-36-3-80-3h-80l-15 35-14 36-63-3-62-3-10-32-9-33H542l17 48c10 26 39 109 66 185l47 138 121-3 120-3 63-180zm464 170 30-15 15-30 15-29v-68l-23-34-23-34-39-13-39-13-25 10c-14 5-34 12-43 16l-18 7v-152h-170v370h291l29-15zm450 0 30-15 15-30 15-29v-68l-23-34-23-34-39-13-39-13-25 10c-14 5-34 12-43 16l-18 7v-152h-160v370h281l29-15zm311-26 27-42 27 42 28 41h168l-70-103-71-103v-164h-160v162l-63 92c-35 50-67 97-71 104l-7 12h166l26-41zm-721-499v-40h-140v-60h100v-90h-100v-50h140v-90h-310v370h310v-40zm497-145c34-99 63-181 63-182 0-2-36-3-81-3h-80l-10 30-11 30h-129l-10-30-11-30h-158v9c0 5 28 89 61 185l61 177 121-3 120-3 64-180zm-624 1678-23-4v-45h340v36l-26 10-25 10-122-1c-67-1-132-4-144-6zm4-128c-161-31-288-97-389-203l-56-58-27-53-27-54 19 8c74 32 157 58 245 77l103 22 265 1h265l95-18c80-15 199-51 274-82l19-8-29 53c-16 30-53 80-82 111l-53 58-62 39c-78 48-147 78-229 97l-63 15-95 5-95 5-78-15zm-122-336c-105-14-233-47-293-74l-54-25-29-31-29-31v-51l39-38 40-37 58-22c32-12 96-30 143-41l85-18 153-13 152-12 153 12 152 13 85 18c149 33 248 83 272 137l11 23-13 30-12 30-36 25c-52 35-126 62-239 87l-98 21-235 3-235 4-70-10zm-453-679c-5-14-12-35-16-47l-7-23h61l-1 13c0 6-6 28-14 47l-13 35-10-25zm508 35v-45h40l11 24 11 23-11 22-12 21h-39v-45zm450 0v-45h18c24 0 42 19 42 45s-18 45-42 45h-18v-45zm43-535c-6-14-13-35-17-47l-7-23h61v18c-1 9-7 31-14 47l-14 30-9-25zM713 391c138-101 322-181 508-222l104-24h340l87 18c183 37 352 107 505 209 51 34 91 64 89 65-2 2-51-10-109-26-429-120-1045-120-1473 0-57 16-107 29-111 29s23-22 60-49z"/></g><g fill="#e09393" transform="matrix(.1 0 0 -.1 0 300)"><path d="M1302 2989c-174-23-402-101-548-187-39-23-109-69-155-103l-84-62-85-87-85-86-67-95-67-94-50-100c-62-125-104-246-133-378L6 1695v-390l22-102C158 602 605 158 1210 29l105-23h370l105 23c607 129 1052 574 1181 1181l23 105v370l-23 105c-128 603-575 1054-1169 1180l-97 21-165 4-165 4-73-10zm493-88c132-31 207-57 330-116l110-53 89-63 90-64 86-85c102-101 163-178 236-302l54-92 39-101c139-359 134-732-15-1086l-45-106-70-108c-119-183-248-311-439-434l-94-61-106-44C1707 37 1334 32 975 171l-101 39-92 54c-127 75-202 134-311 245l-93 95-64 97c-105 158-171 315-214 504l-21 90-5 155-6 155 16 100c96 626 571 1107 1196 1210l85 14 170-4 170-4 90-20zm-470-52c-216-29-414-106-600-233l-90-61-95-95-95-95-63-93c-107-156-182-335-219-520l-17-87v-330l17-87c29-144 131-411 166-432l10-6 6 19c3 11 33 45 66 75l60 56 69 32 70 33v105h158l36-40 36-40 36 40 36 40h158V750H900v93l-1 92-29-35-30-35-30 35-29 35-1-92v-93H610v190h-8c-13 0-125-69-150-93-13-12-30-34-38-49l-14-27v-72l45-48 46-49 67-35c134-70 317-120 562-153l125-18h510l125 18c442 60 720 189 720 333v28l-25 37-25 37-47 33c-48 32-188 98-210 98h-13V840h140v-90h-310v381l83-3 82-3 3-30 3-30 77-29c137-51 226-110 283-189l28-38 26 45c72 123 135 327 156 507l12 104-7 103-6 103-20 99c-84 412-350 759-726 948-85 43-249 98-346 117l-83 16-140 4-140 4-70-10zm371-193 24-16v-97l43-12c23-7 74-28 114-47l72-34 63-51c83-67 134-129 175-216l35-72 10-69 11-68-7-40-8-39-48-46-47-47-82-31-81-31-118-21-117-20-170-6-170-5-135 15c-277 33-434 97-487 200l-16 31 6 71 5 70 23 60c30 82 81 159 146 222l54 53 74 43c40 24 105 54 144 67l71 25v93l16 13c25 21 97 28 242 24l133-3 25-16zM971 1455c33-93 62-178 65-187l5-18H872l-7 30-7 30H729l-10-30-11-30H541l64 186c36 102 65 188 65 190 0 3 54 3 121 2l121-3 59-170zm456 156 42-19 16-33 17-32-5-44-5-44-23-25-23-24-38-12-38-11-40 16-40 15v-148h-170v380h265l42-19zm435 9 37-11 25-30 26-31v-100l-33-33-33-33-37-7-36-7-32 16c-18 9-34 16-36 16-1 0-3-34-3-75v-75h-170v380h255l37-10zm334-30c15-22 29-40 33-40 3 0 19 18 34 40l28 40h80c43 0 79-2 79-5s-31-53-70-110l-70-104v-161h-160v155l-75 113-75 112h170l26-40zm-711-510v-45l-72-3-73-3v-49h100v-90h-100v-50h150v-90h-320v381l158-3 157-3v-45zm485-120c31-91 60-175 64-187l7-23h-169l-7 30-7 30h-129l-10-30-11-30h-166l60 173c33 94 63 180 65 190l5 18 120-3 120-3 58-165zm-602 1653-28-4v-44h320v42l-37 7c-41 6-210 6-255-1zm67-120c-22-2-74-10-115-19l-75-16-93-44-94-45-72-72-72-72-28-54-29-54 14 6c95 41 150 59 235 76l101 21 147 10 146 11 146-11 147-10 101-21 101-20 68-29 67-28v12c0 6-18 39-41 73l-40 63-56 49-56 50-81 41-81 40-75 19c-79 19-198 30-265 24zm-145-340c-100-11-224-36-295-61l-80-27-44-42-43-42 7-28c10-42 33-63 111-99l70-33 100-20 100-20 142-11 142-11 139 11c220 16 361 49 458 105l43 26 15 29 15 29-9 23c-29 75-172 133-399 163l-113 15-162-2c-89 0-178-3-197-5zm-508-683c-5-14-12-35-16-47l-7-23h61l-1 13c0 6-6 28-14 47l-13 35-10-25zm508 35v-45h14c18 0 46 27 46 45s-28 45-46 45h-14v-45zm450 0v-45h14c18 0 46 27 46 45s-28 45-46 45h-14v-45zm42-535c-5-14-12-35-16-47l-7-23h61l-1 13c0 6-6 28-14 47l-13 35-10-25zM664 432c10-17 163-116 231-150 89-44 224-89 335-112l99-20 103-6 103-7 104 12c131 16 265 49 378 95 92 38 248 127 298 171l30 27-20-7c-150-49-335-85-534-105l-103-10h-376l-103 10c-200 20-428 65-533 106l-19 7 7-11z"/></g><g fill="#d25e65" transform="matrix(.1 0 0 -.1 0 300)"><path d="M1302 2989c-174-23-402-101-548-187-39-23-109-69-155-103l-84-62-85-87-85-86-67-95-67-94-50-100c-62-125-104-246-133-378L6 1695v-390l22-102C158 602 605 158 1210 29l105-23h370l105 23c607 129 1052 574 1181 1181l23 105v370l-23 105c-128 603-575 1054-1169 1180l-97 21-165 4-165 4-73-10zm423-74c50-8 131-26 180-40l90-26 110-53c61-29 135-69 166-89 155-99 304-245 410-400l61-88 48-102c64-133 96-236 121-375l19-114v-256l-19-114-20-113-36-104c-150-429-467-746-896-896l-104-36-113-20-114-19h-256l-114 19c-139 25-242 57-375 121l-102 48-93 64-93 63-110 110-110 110-59 89c-32 49-82 139-112 200l-53 111-26 90c-14 49-32 130-40 180l-15 90v270l15 90c99 610 574 1087 1185 1190l75 13 145 1 145 1 90-15zm-380-66c-562-68-1022-471-1160-1014l-23-91-13-122-12-122 12-122 13-122 24-95c25-97 77-228 122-308l24-44 28 44 27 43 49 36c27 20 77 50 112 67l62 31v100h160l35-38 35-37 35 38 35 37h160V750H900v180l-30-32-30-33-30 33-30 32V750H610v95c0 52-3 95-6 95-18 0-122-68-155-101l-38-38-7-36-6-35 12-31 13-30 43-38 44-38 72-36c140-67 365-123 598-148l115-12h410l115 12c233 25 458 81 598 148l72 36 44 38 43 38 13 30 12 31-6 33-6 33-29 31c-16 18-53 47-82 66-53 32-171 87-190 87h-9V840h150v-90h-320v380h170v-66l45-13c67-20 181-77 238-118l50-37 28-44 28-44 39 79c80 159 125 316 142 501l10 112-10 113c-23 244-97 454-233 657l-50 75-111 111-111 111-77 51c-226 151-458 227-728 237l-115 4-80-10zm347-191 27-18 3-47 3-47 62-22c91-33 173-79 245-139l64-52 47-69 47-69 21-60c24-68 35-157 25-208l-6-34-37-38-37-38-71-32c-85-40-171-61-313-80l-107-15h-324l-113 15c-62 8-149 24-193 36l-80 21-69 36-69 36-28 39-29 40v133l16 55c9 30 30 81 47 114l32 60 70 70 70 70 65 38c36 21 98 50 137 65l73 27v81l13 18 14 19 39 8 39 8 145-2 146-2 26-17zM977 1445c34-99 63-183 63-187v-8H872l-11 30-10 30H732l-11-30-10-30h-85c-48 0-86 1-86 3 0 4 54 158 106 305l26 73 121-3 121-3 63-180zm447 171 33-14 21-27 22-28v-97l-33-36-32-35-41-6-41-5-31 16-32 17v-151h-170v380h271l33-14zm443 3c15-6 38-20 51-31l22-22 9-33 9-33-9-33-9-33-29-28-29-28-39-5-40-5-31 16-32 17v-151h-170v380h269l28-11zm329-29c15-22 29-40 33-40 3 0 17 18 31 40l25 40h175l-75-112-75-113v-155h-170v168l-54 79c-29 43-61 90-71 106l-17 27h172l26-40zm-706-510v-50h-150v-40h100V890h-100v-50h150v-90h-320v380h320v-50zm487-130c34-96 62-181 62-187l1-13h-168l-7 30-7 30h-126l-11-30-10-30h-173l7 18c10 25 125 356 125 360 0 1 55 1 122 0l123-3 62-175zm-637 1638v-23h320v45h-320v-22zm-31-118c-99-25-177-60-256-116l-64-46-40-51c-22-28-50-68-61-90l-20-40 19 8c79 32 175 59 273 77l115 21 215 1h215l110-18 110-18 90-29c49-17 95-35 102-41 32-26-3 45-57 118l-39 51-61 46c-34 26-90 60-124 77l-63 30-84 20-84 20-110-1h-110l-76-19zm6-317c-206-18-384-70-447-130l-28-27v-67l24-24c56-55 207-103 396-126l104-12 206 6 205 6 98 21c54 11 127 32 161 46l63 25 32 31 31 30v66l-32 28c-71 59-224 104-422 123-102 10-299 12-391 4zm-534-696c-6-16-11-35-11-43v-14h25c28 0 29 2 10 50l-13 35-11-28zm509 44v-41h14c7 0 19 7 26 14l12 15-4 23-3 23-22 3-23 3v-40zm450-1v-40h14c8 0 22 10 30 22l15 21-10 19-10 18h-39v-40zm41-543c-6-16-11-35-11-43v-14h25c28 0 29 2 10 50l-13 35-11-28zM660 434c0-10 156-107 235-146 158-79 305-120 493-138l112-10 113 10c242 23 443 93 645 227 45 30 82 56 82 58 0 1-34-8-76-21-105-32-254-61-409-79l-130-16h-450l-130 16c-155 18-304 47-409 79-42 13-76 22-76 20z"/></g><g fill="#c0212e" transform="matrix(.1 0 0 -.1 0 300)"><path d="M1302 2989c-174-23-402-101-548-187-39-23-109-69-155-103l-84-62-85-87-85-86-67-95-67-94-50-100c-62-125-104-246-133-378L6 1695v-390l22-102C158 602 605 158 1210 29l105-23h370l105 23c607 129 1052 574 1181 1181l23 105v370l-23 105c-128 603-575 1054-1169 1180l-97 21-165 4-165 4-73-10zm438-75c222-37 415-119 611-260l81-59 97-101 98-101 66-100c112-167 188-358 221-552l16-95v-292l-16-95c-33-191-110-385-224-559l-62-95-117-116-116-115-93-62c-170-113-368-193-561-226l-95-16h-292l-95 16c-194 33-385 109-553 221l-99 66-110 106-109 106-74 110C166 918 93 1126 69 1392l-9 108 10 117 10 118 25 101c39 166 104 312 204 464l55 85 126 125 125 126 85 55c206 136 431 217 662 238l93 9 100-5c55-2 138-11 185-19zm-355-65c-183-15-348-64-516-151l-97-50-84-63-84-64-86-90-86-90-55-83c-107-163-180-343-212-528l-17-95v-140l1-140 20-106c12-58 32-139 46-180 27-80 105-249 114-249 3 0 16 16 28 35 30 45 109 107 183 142l59 28v53l1 52h175l33-37 32-38 33 38 32 37h175l-2-192-3-193-87-3-88-3v93l-1 93-29-33-30-32-30 32-29 33-1-93v-93l-87 3-88 3-3 92c-1 51-5 93-8 93s-23-9-45-20c-51-27-116-85-136-123l-15-29 7-35 6-35 42-41 42-42 70-36c122-63 291-111 515-146l115-18h600l90 13c301 44 507 109 631 202l51 38 18 38 17 37-11 37-11 38-46 42-46 42-81 38c-45 21-92 41-104 45l-23 6V851l73-3 72-3V745h-320l-3 193-2 192h179l3-32 3-31 52-18c135-46 251-118 303-191l29-39 16 25c10 14 35 67 57 118l40 93 31 115 30 115 1 210 1 210-27 106c-45 179-98 298-197 446-161 240-399 425-673 522l-88 30-107 20c-132 24-249 30-368 20zm287-179 38-11 10-19c5-10 10-36 10-57v-38l78-28 78-27 75-49c132-88 219-198 260-330l19-64 1-62 1-62-16-30c-41-80-162-139-371-180l-90-18h-520l-100 19c-233 44-356 112-384 213l-10 37 9 67c5 37 19 91 30 120 64 161 233 313 413 371l67 22v82l13 17c6 10 26 21 42 26l30 9 140 1 140 1 37-10zM981 1440c36-104 64-192 61-195s-41-5-84-5h-79l-15 35-14 35H732l-12-35-12-35H540v9c0 8 97 294 120 357l10 24h245l66-190zm456 173 36-17 19-43 19-44-7-32c-9-43-32-75-65-93l-28-14h-77l-22 16-22 15v-161h-170v390h282l35-17zm452-1 34-19 19-34c22-42 23-71 1-116l-16-35-31-19-31-19h-81l-22 16-22 15v-161h-170v390h285l34-18zm312-23 27-42 27 42 28 41h178l-7-12c-4-7-35-53-68-103l-61-90-5-90-5-90h-170l-5 90-5 90-67 96c-38 53-68 100-68 103s39 6 88 6h87l26-41zm-711-509v-50h-150v-39l53-3 52-3 3-47 3-48h-111v-40h150V740h-320v390h320v-50zm491-137c36-104 64-191 62-195l-4-8h-166l-9 33-10 32-60 3-61 3-9-33-10-33-87-3-87-3v10c0 7 90 275 125 369l4 12h246l66-187zm-634 1661c-4-4-7-14-7-23v-16h321l-3 20-3 20-151 3-150 3-7-7zm-10-130c-94-21-162-47-236-92l-62-37-58-58-59-59-27-50-28-51 19 8c65 29 193 66 279 81l100 18h470l100-18c86-15 214-52 279-81l19-8-24 44-24 44-75 75-75 76-70 36c-39 20-104 46-145 58l-75 22-120 4-120 4-68-16zm-28-324c-185-18-330-55-411-106-41-26-58-51-58-86v-24l28-27c164-157 879-187 1184-50l59 26 24 29 25 30v49l-24 24c-81 81-296 132-591 140l-150 4-86-9zm-528-703c-14-37-14-37 9-37h20l-1 13c0 6-4 21-9 32l-8 20-11-28zm509 60c0-18 3-37 6-40l7-6 19 10 19 10-3 27-3 27-22 3-23 3v-34zm450 0c0-18 3-37 6-40l7-6 19 10 19 10-3 27-3 27-22 3-23 3v-34zm42-556c-7-19-12-38-12-42v-9h25c28 0 28 1 11 50l-13 34-11-33zM699 410c49-41 176-114 264-153l92-39 115-31 115-31h430l115 31 115 31 92 39c88 39 215 112 264 153l24 19-65-19c-88-27-292-66-425-81l-110-13-235 1h-235l-130 17c-146 19-288 47-385 76l-65 19 24-19z"/></g></g></svg>