<svg id="icon-color-large-advanced-in-c" xmlns="http://www.w3.org/2000/svg" viewBox="0 0 38 38"><path fill="#0095AE" d="M29 17l7.822 7.093a.51.51 0 0 1-.333.895h-5.966a.51.51 0 0 0-.509.509v5.992a.51.51 0 0 1-.895.333L24 26l-2.177-2.504L29 17zM9 17l-7.822 7.093a.51.51 0 0 0 .333.895h5.966a.51.51 0 0 1 .509.509v5.992c0 .472.587.69.895.333L14 26l2.177-2.504L9 17z"/><path fill="#0095AE" d="M23.738 20l.871 17.452a.51.51 0 0 1-.868.398l-4.344-4.344a.509.509 0 0 0-.72 0l-4.344 4.344a.51.51 0 0 1-.868-.398L14.335 20h9.403z"/><path fill="#26D3F9" d="M29 16l7.822 7.093a.51.51 0 0 1-.333.895h-5.966a.51.51 0 0 0-.509.509v5.992a.51.51 0 0 1-.895.333L24 25l-2.177-2.504L29 16zM9 16l-7.822 7.093a.51.51 0 0 0 .333.895h5.966a.51.51 0 0 1 .509.509v5.992c0 .472.587.69.895.333L14 25l2.177-2.504L9 16z"/><path fill="#0095AE" d="M9 16l-7.822 7.093a.51.51 0 0 0 .333.895h5.966a.51.51 0 0 1 .509.509v5.992c0 .472.587.69.895.333L14 25l2.177-2.504L9 16z" opacity=".25"/><path fill="#26D3F9" d="M23.738 19l.871 17.452a.51.51 0 0 1-.868.398l-4.344-4.344a.509.509 0 0 0-.72 0l-4.344 4.344a.51.51 0 0 1-.868-.398L14.335 19h9.403z"/><path fill="#0095AE" d="M19.036 19h-4.701l-.871 17.452a.51.51 0 0 0 .868.398l4.344-4.344a.509.509 0 0 1 .36-.149V19z" opacity=".25"/><path fill="#0095AE" d="M19.036 1c-7.168 0-13 5.832-13 13s5.832 13 13 13 13-5.832 13-13-5.831-13-13-13z"/><path fill="#0095AE" d="M29 16l-5.178 4.687L23.737 19h-9.402l-.087 1.75L9 16l-2.722 2.468c.698 3.616 2.902 6.693 5.928 8.572L14 25l.038-.044-.149 2.976c1.58.685 3.319 1.068 5.147 1.068s3.567-.383 5.147-1.067l-.144-2.888 1.78 2.025c3.035-1.867 5.252-4.933 5.966-8.543L29 16z" opacity=".4"/><path fill="#26D3F9" d="M19.036 1c-6.627 0-12 5.373-12 12s5.373 12 12 12 12-5.373 12-12-5.372-12-12-12z"/><path fill="#86EAFB" d="M19.036 2c6.065 0 11 4.935 11 11s-4.935 11-11 11-11-4.935-11-11 4.935-11 11-11m0-2c-7.168 0-13 5.832-13 13s5.832 13 13 13 13-5.832 13-13-5.831-13-13-13z"/><path fill="#FFF" d="M19.673 5l1.458 4.551a.67.67 0 0 0 .631.45h4.608c.644.005.912.847.393 1.223l-3.707 2.687a.65.65 0 0 0-.241.728l1.39 4.502c.194.603-.505 1.102-1.029.734l-3.749-2.63a.68.68 0 0 0-.78 0l-3.749 2.63c-.524.368-1.224-.131-1.029-.734l1.39-4.502a.652.652 0 0 0-.241-.728l-3.707-2.687c-.518-.376-.251-1.218.393-1.223h4.608a.67.67 0 0 0 .631-.45L18.4 5c.204-.6 1.069-.6 1.273 0z"/><path fill="#0095AE" d="M19.036 0c-7.168 0-13 5.832-13 13s5.832 13 13 13V0z" opacity=".25"/></svg>