<svg id="icon-color-large-advanced-in-a" xmlns="http://www.w3.org/2000/svg" viewBox="0 0 38 38"><path fill="#FFF" d="M29.501 31.5a.997.997 0 0 1-.761-.351l-5.116-5.819-2.5-2.876L29 15.325l8.158 7.397c.313.271.426.709.277 1.108s-.52.657-.946.657h-5.966l-.009 6.001a1.012 1.012 0 0 1-1.013 1.012z"/><path fill="#FF3B30" d="M29 16l7.822 7.093a.51.51 0 0 1-.333.895h-5.966a.51.51 0 0 0-.509.509v5.992a.508.508 0 0 1-.895.332L24 25l-2.177-2.504L29 16m.001-1.349l-.672.608-7.177 6.496-.727.658.643.74 2.177 2.504 5.123 5.827c.282.325.697.516 1.132.516.835 0 1.514-.678 1.514-1.51v-5.502h5.475c.637 0 1.193-.386 1.415-.983a1.497 1.497 0 0 0-.429-1.669l-7.804-7.077-.67-.608z"/><path fill="#FFF" d="M8.5 31.5a1.013 1.013 0 0 1-1.014-1.011v-5.992l-5.976-.009c-.426 0-.797-.258-.946-.657a1.002 1.002 0 0 1 .287-1.117L9 15.325l7.876 7.129-2.498 2.874-5.121 5.824a.991.991 0 0 1-.757.348z"/><path fill="#FF3B30" d="M9 16l7.177 6.496L14 25l-5.119 5.822a.508.508 0 0 1-.895-.332v-5.992a.51.51 0 0 0-.509-.509H1.51a.51.51 0 0 1-.333-.895L9 16m-.001-1.349l-.671.609-7.822 7.093a1.488 1.488 0 0 0-.41 1.652c.222.597.777.983 1.415.983h5.475v5.502c0 .832.679 1.51 1.514 1.51.436 0 .851-.191 1.138-.524l5.113-5.815 2.181-2.508.643-.74-.727-.658-7.177-6.496-.672-.608z"/><g><path fill="#FFF" d="M24.096 37.5a.998.998 0 0 1-.709-.296l-4.344-4.345-4.357 4.344a1.002 1.002 0 0 1-.709.297c-.283 0-.555-.119-.748-.326a.993.993 0 0 1-.263-.759L13.86 18.5h10.353l.895 17.927a.987.987 0 0 1-.264.747 1.026 1.026 0 0 1-.748.326z"/><path fill="#FF3B30" d="M14.335 19h9.402l.871 17.452a.51.51 0 0 1-.868.397l-4.344-4.344a.509.509 0 0 0-.72 0l-4.344 4.344a.51.51 0 0 1-.868-.397L14.335 19m-.951-1l-.047.95-.871 17.452c-.03.401.111.804.397 1.112.286.309.692.486 1.113.486.4 0 .777-.157 1.063-.443l3.997-3.997 3.997 3.997a1.5 1.5 0 0 0 1.063.443c.421 0 .827-.177 1.114-.486.286-.308.427-.712.396-1.136l-.87-17.428-.047-.95H13.384z"/></g><g><path fill="#FFF" d="M19.037 25.5c-6.893 0-12.5-5.607-12.5-12.5S12.144.5 19.037.5c6.892 0 12.5 5.607 12.5 12.5s-5.608 12.5-12.5 12.5z"/><path fill="#FF3B30" d="M19.036 1c6.627 0 12 5.373 12 12s-5.373 12-12 12-12-5.373-12-12 5.373-12 12-12m0-1c-7.168 0-13 5.832-13 13s5.832 13 13 13 13-5.832 13-13-5.831-13-13-13z"/><path fill="#FBE9E8" stroke="#FF3B30" stroke-linejoin="round" stroke-miterlimit="10" d="M19.036 4.5l2.473 5.267 5.527.844-4 4.1.945 5.789-4.945-2.733-4.944 2.733.944-5.789-4-4.1 5.528-.844z"/></g></svg>