<svg id="icon-color-large-alert-error" viewBox="0 0 38 38" xmlns="http://www.w3.org/2000/svg"><title>6ADEC914-B9BE-4C5C-9A65-96F01C13EDA0</title><g fill="none" fill-rule="evenodd"><path d="M19 1.5C9.335 1.5 1.5 9.33 1.5 18.988c0 3.423.999 6.607 2.701 9.303L2.531 36.5l7.887-2.281A17.413 17.413 0 0 0 19 36.476c9.665 0 17.5-7.83 17.5-17.488S28.665 1.5 19 1.5" fill="#FFF"/><path d="M19 1.5C9.335 1.5 1.5 9.33 1.5 18.988c0 3.423.999 6.607 2.701 9.303L2.531 36.5l7.887-2.281A17.413 17.413 0 0 0 19 36.476c9.665 0 17.5-7.83 17.5-17.488S28.665 1.5 19 1.5z" stroke="#767676" stroke-linejoin="round"/><path d="M19 11.297V24.62" stroke="#767676" stroke-linecap="round"/><path d="M19.774 27.929a.774.774 0 1 1-1.548 0 .774.774 0 0 1 1.548 0" fill="#767676"/></g></svg>