<svg id="icon-color-large-alert-a" xmlns="http://www.w3.org/2000/svg" viewBox="0 0 38 38"><path d="M19.752 32.904c-2.504 0-4.975-.653-7.146-1.887l-.18-.102-6.605 1.659 1.772-6.28-.122-.195a14.458 14.458 0 0 1-2.204-7.679c0-7.988 6.499-14.485 14.485-14.485s14.485 6.498 14.485 14.485-6.498 14.484-14.485 14.484z" fill="#fff" stroke="#ff3b30" stroke-miterlimit="10"/><path d="M19.752 32.921c-2.507 0-4.981-.653-7.154-1.889l-.174-.099-6.627 1.663 1.778-6.301-.118-.188a14.471 14.471 0 0 1-2.207-7.689c0-7.997 6.506-14.502 14.502-14.502s14.502 6.506 14.502 14.502-6.505 14.503-14.502 14.503z" fill="#fff"/><path d="M19.752 4.417c7.721 0 14.002 6.281 14.002 14.002s-6.281 14.002-14.002 14.002a13.99 13.99 0 0 1-6.906-1.824l-.349-.197-.389.098-5.596 1.405 1.483-5.257.12-.427-.235-.376a13.971 13.971 0 0 1-2.131-7.424c.001-7.721 6.282-14.002 14.003-14.002m0-1c-8.272 0-15.002 6.729-15.002 15.002 0 2.825.789 5.568 2.283 7.954l-1.952 6.919 7.271-1.825a14.973 14.973 0 0 0 7.401 1.954c8.272 0 15.002-6.73 15.002-15.002 0-8.273-6.731-15.002-15.003-15.002z" fill="#ff3b30"/><path fill="#ff3b30" d="M19.166 11.694h1.035v9.312h-1.035zM19.166 23.075h1.035v2.069h-1.035z"/></svg>