<svg id="icon-color-large-announcement-c" xmlns="http://www.w3.org/2000/svg" viewBox="0 0 38 38"><path fill="#BFA0A0" d="M16 22l1 10c0 2.094-1.906 4-4 4-2.094 0-4-1.906-4-4l3-14 4 4z"/><path fill="#A37F7E" d="M13 34c-1.717 0-3.289-1.287-3.806-2.903L9 32c0 2.094 1.906 4 4 4s4-1.906 4-4l-.114-1.142C16.457 32.586 14.802 34 13 34zM16.386 25.856L16 22l-4-4-1.312 6.122z"/><path fill="#E8D2CE" d="M30 28L7 21s-1-.359-1-1v-7c0-.703 1-1 1-1l23-7c.55 0 1 .45 1 1v21c0 .55-.45 1-1 1z"/><path fill="#E8D2CE" d="M33 31h-5c-.55 0-1-.45-1-1V4c0-.55.45-1 1-1h5c.55 0 1 .45 1 1v26c0 .55-.45 1-1 1z"/><path fill="#FFEFEB" d="M33 29h-5c-.55 0-1-.45-1-1V4c0-.55.45-1 1-1h5c.55 0 1 .45 1 1v24c0 .55-.45 1-1 1z"/><path fill="#E8D2CE" d="M4.5 20a.501.501 0 0 1-.5-.5v-6c0-.275.225-.5.5-.5s.5.225.5.5v6c0 .275-.225.5-.5.5z"/><path fill="#FFEFEB" d="M4.5 18a.501.501 0 0 1-.5-.5v-4c0-.275.225-.5.5-.5s.5.225.5.5v4c0 .275-.225.5-.5.5z"/><g><path fill="#FFEFEB" d="M7 19l19 5.783V6.217L7 12s-1 .297-1 1v5c0 .641 1 1 1 1z"/></g><path fill="#D3C0BE" d="M5 14h1v5H5z"/><path fill="#BFA9A7" d="M5 17h1v2H5z"/></svg>