<svg id="icon-color-large-attendance-a" xmlns="http://www.w3.org/2000/svg" xmlns:xlink="http://www.w3.org/1999/xlink" width="38" height="38" viewBox="0 0 38 38"><defs><path id="a" d="M0 38h28V0H0z"/></defs><g transform="translate(5)" fill="none" fill-rule="evenodd"><path fill="#FFF" d="M26 38H2c-1.1 0-2-.9-2-2V5c0-1.1.9-2 2-2h24c1.1 0 2 .9 2 2v31c0 1.1-.9 2-2 2z"/><mask id="b" fill="#fff"><use xlink:href="#a"/></mask><path fill="#BFC1C0" d="M7 9h14V8H7z" mask="url(#b)"/><path fill="#C23E37" d="M26 3H2C.9 3 0 3.9 0 5v31c0 1.1.9 2 2 2h24c1.1 0 2-.9 2-2V5c0-1.1-.9-2-2-2m0 1c.551 0 1 .449 1 1v31c0 .551-.449 1-1 1H2c-.551 0-1-.449-1-1V5c0-.551.449-1 1-1h24" mask="url(#b)"/><path fill="#C23E37" d="M11 15h12v-1H11zm0 3h8v-1h-8zm0 4h12v-1H11zm0 3h8v-1h-8zm0 4h12v-1H11zm0 3h8v-1h-8z" mask="url(#b)"/><path fill="#FBE9E8" d="M5.5 8.5V7c0-1.93 1.57-3.5 3.5-3.5h10c1.93 0 3.5 1.57 3.5 3.5v1.5h-17z" mask="url(#b)"/><path fill="#C23E37" d="M19 3H9a4 4 0 0 0-4 4v2h18V7a4 4 0 0 0-4-4m0 1c1.654 0 3 1.346 3 3v1H6V7c0-1.654 1.346-3 3-3h10" mask="url(#b)"/><path fill="#FBE9E8" d="M17 3.5a3 3 0 1 1-6 0 3 3 0 0 1 6 0" mask="url(#b)"/><path stroke="#C23E37" d="M17 3.5a3 3 0 1 1-6 0 3 3 0 0 1 6 0z" mask="url(#b)"/><path stroke="#C23E37" stroke-linecap="round" stroke-linejoin="round" d="M5.5 16L7 17.5l1.5-3m-3 8.5L7 24.5l1.5-3m-3 7l3 3m0-3l-3 3" mask="url(#b)"/></g></svg>