<svg id="icon-color-large-audio-c" xmlns="http://www.w3.org/2000/svg" viewBox="0 0 38 38"><path fill="#BA15AB" d="M31 33H7c-1.1 0-2-.9-2-2V7c0-1.1.9-2 2-2h24c1.1 0 2 .9 2 2v24c0 1.1-.9 2-2 2z"/><path fill="#C914AB" d="M31 31H7c-1.1 0-2-.9-2-2V7c0-1.1.9-2 2-2h24c1.1 0 2 .9 2 2v22c0 1.1-.9 2-2 2z"/><path fill="#BA15AB" d="M16 11v11.056A3.484 3.484 0 0 0 13.5 21a3.5 3.5 0 1 0 0 7 3.49 3.49 0 0 0 3.45-3H17V11.833l10-1.667v9.889A3.487 3.487 0 0 0 24.5 19a3.5 3.5 0 1 0 0 7 3.49 3.49 0 0 0 3.45-3H28V9l-12 2z"/><path fill="#FFF" d="M27.82 10.116a.49.49 0 0 0-.41-.108l-11 2a.5.5 0 0 0-.41.492v10.556A3.484 3.484 0 0 0 13.5 22a3.5 3.5 0 1 0 3.5 3.5V12.917l10-1.818v9.956a3.55 3.55 0 0 0-.543-.458C25.898 20.22 25.225 20 24.5 20s-1.398.22-1.957.598A3.5 3.5 0 1 0 28 23.5v-13a.497.497 0 0 0-.18-.384z"/></svg>