<svg id="icon-color-large-audio" xmlns="http://www.w3.org/2000/svg" viewBox="0 0 38 38"><path fill="#FFF" d="M7 32.5c-.827 0-1.5-.673-1.5-1.5V7c0-.827.673-1.5 1.5-1.5h24c.827 0 1.5.673 1.5 1.5v24c0 .827-.673 1.5-1.5 1.5H7z"/><path fill="#767676" d="M31 6c.551 0 1 .449 1 1v24c0 .551-.449 1-1 1H7c-.551 0-1-.449-1-1V7c0-.551.449-1 1-1h24m0-1H7c-1.1 0-2 .9-2 2v24c0 1.1.9 2 2 2h24c1.1 0 2-.9 2-2V7c0-1.1-.9-2-2-2z"/><circle fill="#F3E2F7" cx="13.5" cy="25.5" r="3"/><path fill="#767676" d="M13.5 23c1.378 0 2.5 1.122 2.5 2.5S14.878 28 13.5 28 11 26.878 11 25.5s1.122-2.5 2.5-2.5m0-1a3.5 3.5 0 1 0 0 7 3.5 3.5 0 0 0 0-7z"/><g><circle fill="#F3E2F7" cx="24.5" cy="23.5" r="3"/><path fill="#767676" d="M24.5 21c1.378 0 2.5 1.122 2.5 2.5S25.878 26 24.5 26 22 24.878 22 23.5s1.122-2.5 2.5-2.5m0-1a3.5 3.5 0 1 0 0 7 3.5 3.5 0 0 0 0-7z"/></g><path fill="none" stroke="#767676" stroke-linecap="round" stroke-linejoin="round" stroke-miterlimit="10" d="M16.5 25.5v-13l11-2v13"/></svg>