<svg id="icon-color-large-blank-space" xmlns="http://www.w3.org/2000/svg" viewBox="0 0 38 38"><path fill="#FFF" stroke="#767676" stroke-width="1.036" stroke-miterlimit="10" d="M31.5 33.5h-25c-1.1 0-2-.9-2-2v-25c0-1.1.9-2 2-2h25c1.1 0 2 .9 2 2v25c0 1.1-.9 2-2 2z"/><path fill="#FFF" d="M9.5 9.5h19v19h-19z"/><g fill="none" stroke="#CDCDCD" stroke-linejoin="round"><path d="M28.5 27.5v1h-1"/><path stroke-dasharray="1.8889,2.8333" d="M24.667 28.5h-12.75"/><path d="M10.5 28.5h-1v-1"/><path stroke-dasharray="1.8889,2.8333" d="M9.5 24.667v-12.75"/><path d="M9.5 10.5v-1h1"/><path stroke-dasharray="1.8889,2.8333" d="M13.333 9.5h12.75"/><path d="M27.5 9.5h1v1"/><path stroke-dasharray="1.8889,2.8333" d="M28.5 13.333v12.75"/></g></svg>