<svg id="icon-color-large-blog-c" xmlns="http://www.w3.org/2000/svg" viewBox="0 0 38 38"><path fill="#FFF" d="M31.002 4H6.998A1.999 1.999 0 0 0 5 5.998v23.003C5 30.105 5.895 31 6.998 31H15l4 4 4-4h8.002A1.999 1.999 0 0 0 33 29.002V5.998A1.999 1.999 0 0 0 31.002 4z"/><path fill="#E77A14" d="M31.002 4H6.998A1.999 1.999 0 0 0 5 5.998v23.003C5 30.105 5.895 31 6.998 31H15l4 4 4-4h8.002A1.999 1.999 0 0 0 33 29.002V5.998A1.999 1.999 0 0 0 31.002 4z"/><path fill="#FA9126" d="M31 4H7c-1.1 0-2 .9-2 2v21c0 1.1.9 2 2 2h9l3 3 3-3h9c1.1 0 2-.9 2-2V6c0-1.1-.9-2-2-2z"/><path fill="none" stroke="#FFF" stroke-linecap="round" stroke-miterlimit="10" d="M10.5 11.5h17M10.5 15.5h17M10.5 19.5h17M10.5 23.5h8"/></svg>