<svg id="icon-color-large-calculation-c" xmlns="http://www.w3.org/2000/svg" viewBox="0 0 38 38"><path fill="#E2E2E2" d="M20 34h12c1.1 0 2-.9 2-2V20H20v14z"/><path fill="#FFF" d="M20 32h12c1.1 0 2-.9 2-2V20H20v12z"/><path fill="#FF3A30" d="M19 5H7c-1.1 0-2 .9-2 2v12h14V5z"/><path fill="#D1373C" d="M5 20v12c0 1.1.9 2 2 2h12V20H5z"/><path fill="#FF3A30" d="M5 20v10c0 1.1.9 2 2 2h12V20H5zM32 5H20v14h14V7c0-1.1-.9-2-2-2z"/><g fill="none" stroke-linecap="round" stroke-miterlimit="10"><path stroke="#FF3A30" d="M29.5 25.5h-6M29.5 27.5h-6"/><path stroke="#FFF" d="M12.5 9.5v6M15.5 12.5h-6M29.5 12.5h-6M10.379 24.379l4.242 4.242M14.621 24.379l-4.242 4.242"/></g></svg>