<svg id="icon-color-large-calendar-c" xmlns="http://www.w3.org/2000/svg" viewBox="0 0 38 38"><path fill="#CB2D28" d="M30 30H8c-1.1 0-2-.9-2-2V9c0-1.1.9-2 2-2h22c1.1 0 2 .9 2 2v19c0 1.1-.9 2-2 2z"/><path fill="#E2E2E2" d="M32 32H6c-1.1 0-2-.9-2-2V11c0-1.1.9-2 2-2h26c1.1 0 2 .9 2 2v19c0 1.1-.9 2-2 2z"/><path fill="#FFF" d="M32 30H6c-1.1 0-2-.9-2-2V11c0-1.1.9-2 2-2h26c1.1 0 2 .9 2 2v17c0 1.1-.9 2-2 2z"/><path fill="#FF3A30" d="M4 17v-6c0-1.1.9-2 2-2h26c1.1 0 2 .9 2 2v6H4z"/><path opacity=".2" fill="#303030" d="M10 7h1.5v4H10zM25 7h1.521v4H25z"/><path fill="none" stroke="#FFF" stroke-linecap="round" stroke-miterlimit="10" d="M11.5 6.5v4M26.5 6.5v4"/></svg>