<svg id="icon-color-large-certification" xmlns="http://www.w3.org/2000/svg" viewBox="0 0 38 38"><path fill-rule="evenodd" clip-rule="evenodd" fill="#FFF" stroke="#767676" stroke-miterlimit="10" d="M2.556.489h32.889c1.135 0 2.056.912 2.056 2.038v22.925c0 1.125-.92 2.038-2.056 2.038H2.556A2.047 2.047 0 0 1 .5 25.452V2.527C.5 1.401 1.42.489 2.556.489z"/><path fill-rule="evenodd" clip-rule="evenodd" fill="#D7F9E4" d="M30.328 27.612L27.5 30.44l5.657 7.071v-4.243h4.242z"/><path fill="none" stroke="#767676" stroke-linejoin="round" stroke-miterlimit="10" d="M30.328 27.612L27.5 30.44l5.657 7.071v-4.243h4.242z"/><path fill-rule="evenodd" clip-rule="evenodd" fill="#D7F9E4" d="M28.399 30.44l-2.828-2.828-7.071 5.656h4.243v4.243z"/><path fill="none" stroke="#767676" stroke-linejoin="round" stroke-miterlimit="10" d="M28.399 30.44l-2.828-2.828-7.071 5.656h4.243v4.243z"/><g stroke="#767676" stroke-miterlimit="10"><path fill="#D7F9E4" d="M28 19.285l.92 1.053 1.201-.717.55 1.286 1.363-.311.125 1.393 1.393.125-.311 1.364 1.286.55-.717 1.2 1.053.92-1.053.92.717 1.201-1.286.55.311 1.363-1.393.126-.125 1.392-1.363-.311-.55 1.286-1.201-.717-.92 1.053-.92-1.053-1.201.717-.55-1.286-1.363.311-.125-1.392-1.393-.126.311-1.363-1.286-.55.717-1.201-1.053-.92 1.053-.92-.717-1.2 1.286-.55-.311-1.364 1.393-.125.125-1.393 1.363.311.55-1.286 1.201.717z"/><path fill-rule="evenodd" clip-rule="evenodd" fill="#FFF9CC" d="M28 22.732a3.42 3.42 0 0 1 3.424 3.416A3.42 3.42 0 0 1 28 29.564a3.42 3.42 0 0 1-3.424-3.416A3.42 3.42 0 0 1 28 22.732z"/></g><path clip-rule="evenodd" fill="none" stroke="#767676" stroke-linecap="round" stroke-linejoin="round" stroke-miterlimit="10" d="M7.5 9.989a1.5 1.5 0 0 1-3 0v-3a1.5 1.5 0 0 1 3 0"/><g clip-rule="evenodd" fill="none" stroke="#767676" stroke-linecap="round" stroke-linejoin="round" stroke-miterlimit="10"><path d="M13.5 5.489v6M15 8.489h-1.5v-3H15a1.5 1.5 0 0 1 0 3zM16.5 11.489l-2-3h-1"/></g><g clip-rule="evenodd" fill="none" stroke="#767676" stroke-linecap="round" stroke-linejoin="round" stroke-miterlimit="10"><path d="M19.5 11.489v-6M18 5.489h3"/></g><g clip-rule="evenodd" fill="none" stroke="#767676" stroke-linecap="round" stroke-linejoin="round" stroke-miterlimit="10"><path d="M11.5 11.489h-2v-6h2M11.5 8.489h-2"/></g><path fill="none" stroke="#CDCDCD" stroke-linecap="round" stroke-miterlimit="10" d="M4.5 15.489h29M4.5 19.489h13M4.5 23.489h13M25.5 7.489h8M25.5 11.489h8"/></svg>