<svg id="icon-color-medium-chat-c" xmlns="http://www.w3.org/2000/svg" viewBox="0 0 24 24"><path fill="#40BEC4" d="M12 24c-2.006 0-3.985-.505-5.74-1.462L.937 23.964a.499.499 0 0 1-.612-.612l1.388-5.176A11.964 11.964 0 0 1 0 12C0 5.383 5.383 0 12 0s12 5.383 12 12-5.383 12-12 12z"/><g fill="#039696"><path d="M2.156 16.61C.835 14.67.213 12.848.05 11.013.023 11.34 0 11.667 0 12c0 2.183.592 4.313 1.712 6.176l.444-1.566zM12 22c-2.006 0-3.985-.505-5.74-1.462L.937 21.964a.476.476 0 0 1-.24 0l-.372 1.387a.502.502 0 0 0 .612.612l5.323-1.426A11.996 11.996 0 0 0 12 24c6.617 0 12-5.383 12-12 0-.338-.023-.669-.051-1C23.438 17.149 18.28 22 12 22z"/></g><path fill="none" stroke="#ABDCE3" stroke-linecap="round" stroke-miterlimit="10" d="M19.45 11.45c0-4.069-2.831-6.9-6.9-6.9"/></svg>