<svg id="icon-color-large-collaborate-c" xmlns="http://www.w3.org/2000/svg" viewBox="0 0 38 38"><path fill="none" d="M222 122h38v11.875h-38zM512.289 122h38v11.875h-38zM280.058 180h38v11.875h-38zM338.116 180h38v11.875h-38zM570.347 180h38v11.875h-38zM686.463 180h38v11.875h-38zM-161.479 64h38v11.875h-38zM-161.479 122h38v11.875h-38zM-103.421 122h38v11.875h-38z"/><path fill="#166CAA" d="M-689-139v-7c0-1.1.9-2 2-2h7.649c.227 0 .448.077.626.219l4.451 3.561c.178.142.399.22.627.22H-661c1.1 0 2 .9 2 2v3h-30z"/><path fill="#008EFF" d="M-659-140v18c0 1.1-.9 2-2 2h-26c-1.1 0-2-.9-2-2v-18h30z"/><path fill="#095E92" d="M-689-141h30v1h-30z"/><path fill="#26D7FD" d="M37.258 10.702a1.501 1.501 0 0 0-1.52.006l-1.51.98L29 15.079V9.5c0-.827-.673-1.5-1.5-1.5h-26C.673 8 0 8.673 0 9.5v19c0 .827.673 1.5 1.5 1.5h26c.827 0 1.5-.673 1.5-1.5v-5.579l5.228 3.391h.001l1.51.98a1.502 1.502 0 0 0 1.519.006c.465-.267.742-.742.742-1.271V11.973a1.45 1.45 0 0 0-.742-1.271z"/><path fill="#86EAFB" d="M1.5 10h26c.827 0 1.5.673 1.5 1.5v-2c0-.827-.673-1.5-1.5-1.5h-26C.673 8 0 8.673 0 9.5v2c0-.827.673-1.5 1.5-1.5z"/><path fill="#11B1D0" d="M1 28.5v-19C1 8.673 1.673 8 2.5 8h-1C.673 8 0 8.673 0 9.5v19c0 .827.673 1.5 1.5 1.5h1c-.827 0-1.5-.673-1.5-1.5z"/><path fill="#26D7FD" stroke="#11B1D0" stroke-linecap="round" stroke-linejoin="round" stroke-miterlimit="10" d="M3.481 18.5H.48"/><path opacity=".5" fill="none" stroke="#11B1D0" stroke-miterlimit="10" d="M29.021 18.5h-3"/><path opacity=".7" fill="#11B1D0" d="M0 14.706V28.5c0 .827.673 1.5 1.5 1.5h21.105l3.458-3.458L3.021 11.684 0 14.706z"/><path fill="#26D7FD" d="M25.521 11h-22a.5.5 0 0 0-.5.5v15a.5.5 0 0 0 .5.5h22a.5.5 0 0 0 .5-.5v-15a.5.5 0 0 0-.5-.5z"/><path opacity=".5" fill="#02C6F2" d="M3.521 11a.5.5 0 0 0-.5.5v15a.5.5 0 0 0 .5.5h22a.5.5 0 0 0 .5-.5L3.521 11z"/><path fill="#86EAFB" d="M25.521 11h-22a.5.5 0 0 0-.5.5v1a.5.5 0 0 1 .5-.5h22a.5.5 0 0 1 .5.5v-1a.5.5 0 0 0-.5-.5z"/><path fill="#11B1D0" d="M4.021 26.5v-15a.5.5 0 0 1 .5-.5h-1a.5.5 0 0 0-.5.5v15a.5.5 0 0 0 .5.5h1a.5.5 0 0 1-.5-.5z"/><path fill="#11B1D0" d="M25.521 26h-22a.5.5 0 0 1-.5-.5v1a.5.5 0 0 0 .5.5h22a.5.5 0 0 0 .5-.5v-1a.5.5 0 0 1-.5.5z"/><path fill="#FFF" d="M11.152 23.63a.996.996 0 0 1-.997-.923.99.99 0 0 1 .237-.728L12.689 19l-2.313-3a.977.977 0 0 1-.221-.707.998.998 0 0 1 .997-.924c.292 0 .569.127.759.349l2.842 3.649a.988.988 0 0 1-.015 1.283l-2.812 3.612a1.007 1.007 0 0 1-.774.368z"/><path fill="#11B1D0" d="M11.152 14.87c.141 0 .281.059.38.175l2.826 3.63a.5.5 0 0 1 0 .65l-2.826 3.63a.499.499 0 0 1-.705.054.5.5 0 0 1-.055-.705L13.32 19l-2.548-3.305a.5.5 0 0 1 .38-.825m0-1a1.5 1.5 0 0 0-1.16 2.451L12.058 19l-2.066 2.68a1.49 1.49 0 0 0-.335 1.066c.031.4.216.763.52 1.024a1.501 1.501 0 0 0 2.113-.161l2.857-3.668c.455-.529.455-1.35-.03-1.915l-2.797-3.594a1.513 1.513 0 0 0-1.168-.562z"/><path fill="#86EAFB" d="M11.152 23.13a.5.5 0 0 1-.38-.826L13.32 19l-2.548-3.305a.5.5 0 0 1 .055-.705l-.653-.758a1.49 1.49 0 0 0-.518 1.022c-.03.389.089.766.336 1.066L12.058 19l-2.066 2.68a1.49 1.49 0 0 0-.335 1.066c.031.4.216.763.52 1.024.268.232.616.361.975.361V23.13z"/><path fill="#FFF" d="M16.152 23.63a.996.996 0 0 1-.997-.923.99.99 0 0 1 .237-.728L17.689 19l-2.313-3a.977.977 0 0 1-.221-.707.998.998 0 0 1 .997-.924c.292 0 .569.127.759.349l2.842 3.649a.988.988 0 0 1-.015 1.283l-2.812 3.612a1.007 1.007 0 0 1-.774.368z"/><path fill="#11B1D0" d="M16.152 14.87c.141 0 .281.059.38.175l2.826 3.63a.5.5 0 0 1 0 .65l-2.826 3.63a.499.499 0 0 1-.705.054.5.5 0 0 1-.055-.705L18.32 19l-2.548-3.305a.5.5 0 0 1 .38-.825m0-1a1.5 1.5 0 0 0-1.16 2.451L17.058 19l-2.066 2.68a1.49 1.49 0 0 0-.335 1.066c.031.4.216.763.52 1.024a1.501 1.501 0 0 0 2.113-.161l2.857-3.668c.455-.529.455-1.35-.03-1.915l-2.797-3.594a1.513 1.513 0 0 0-1.168-.562z"/><path fill="#86EAFB" d="M16.152 23.13a.5.5 0 0 1-.38-.826L18.32 19l-2.548-3.305a.5.5 0 0 1 .055-.705l-.653-.758a1.49 1.49 0 0 0-.518 1.022c-.03.389.089.766.336 1.066L17.058 19l-2.066 2.68a1.49 1.49 0 0 0-.335 1.066c.031.4.216.763.52 1.024.268.232.616.361.975.361V23.13z"/><path fill="#26D7FD" d="M29 22.921l5.228 3.391h.001l1.51.98a1.502 1.502 0 0 0 1.519.006c.465-.267.742-.742.742-1.271V11.973c0-.529-.277-1.005-.742-1.271a1.501 1.501 0 0 0-1.52.006l-1.51.98L29 15.079v7.842z"/><path opacity=".5" fill="#11B1D0" d="M37.258 21.851c-.476.201-1.045.2-1.519-.004l-1.51-.72h-.001l-4.43-2.113A1.404 1.404 0 0 1 29 17.748v5.172l5.228 3.391h.001l1.51.98a1.502 1.502 0 0 0 1.519.006 1.45 1.45 0 0 0 .742-1.27v-5.11c0 .389-.277.738-.742.934z"/><path fill="#86EAFB" d="M37.258 10.702a1.501 1.501 0 0 0-1.52.006l-1.51.98L29 15.079v2l5.228-3.391 1.51-.98a1.501 1.501 0 0 1 1.52-.006c.465.266.742.741.742 1.271v-2a1.45 1.45 0 0 0-.742-1.271z"/><path fill="#11B1D0" d="M37.258 25.297a1.502 1.502 0 0 1-1.519-.006l-1.51-.98h-.001L29 20.921v2l5.228 3.391h.001l1.51.98a1.502 1.502 0 0 0 1.519.006c.465-.267.742-.742.742-1.271v-2a1.45 1.45 0 0 1-.742 1.27zM27.5 28h-26C.673 28 0 27.327 0 26.5v2c0 .827.673 1.5 1.5 1.5h26c.827 0 1.5-.673 1.5-1.5v-2c0 .827-.673 1.5-1.5 1.5z"/><path fill="#11B1D0" d="M34.375 26.407l1 .648V10.944l-1 .649z"/></svg>