<svg id="icon-color-large-course" xmlns="http://www.w3.org/2000/svg" viewBox="0 0 38 38"><path d="M8 37.5c-1.93 0-3.5-1.57-3.5-3.5V4h29v30c0 1.93-1.57 3.5-3.5 3.5H8z" fill="#fff"/><path d="M33 4.5V34c0 1.654-1.346 3-3 3H8c-1.654 0-3-1.346-3-3V4.5h28m1-1H4V34c0 2.2 1.8 4 4 4h22c2.2 0 4-1.8 4-4V3.5z" fill="#767676"/><path fill="#fff" d="M34 6h-1V1h1v1zM15 22.5c-.827 0-1.5-.673-1.5-1.5v-5c0-.827.673-1.5 1.5-1.5h12c.827 0 1.5.673 1.5 1.5v5c0 .827-.673 1.5-1.5 1.5H15z"/><path d="M27 15c.55 0 1 .45 1 1v5c0 .55-.45 1-1 1H15c-.55 0-1-.45-1-1v-5c0-.55.45-1 1-1h12m0-1H15c-1.103 0-2 .897-2 2v5c0 1.103.897 2 2 2h12c1.103 0 2-.897 2-2v-5c0-1.103-.897-2-2-2zM8 7h1v30H8z" fill="#767676"/><path d="M5 34V5.938A3.486 3.486 0 0 0 7.5 7H8v30c-1.654 0-3-1.346-3-3zm4 3" fill="#f3e2f7"/><path fill="none" stroke="#767676" stroke-linecap="round" stroke-miterlimit="10" d="M17.5 29.5h6M18.5 31.5h4"/><path d="M33.5 6.5H7.47A2.97 2.97 0 0 1 4.5 3.53v-.06A2.97 2.97 0 0 1 7.47.5H33.5" fill="#fff" stroke="#767676" stroke-linecap="round" stroke-miterlimit="10"/><path fill="none" stroke="#767676" stroke-linecap="round" stroke-miterlimit="10" d="M8.5 2.5h25M8.5 4.5h25"/></svg>