<svg id="icon-color-large-course-c" xmlns="http://www.w3.org/2000/svg" viewBox="0 0 38 38"><path fill="#C26FD2" d="M4 3.5V34c0 2.2 1.8 4 4 4h22c2.2 0 4-1.8 4-4V3.5H4z"/><path fill="#955CA1" d="M34 7H7.5A3.51 3.51 0 0 1 4 3.5 3.51 3.51 0 0 1 7.5 0H34v7z"/><path fill="#955CA1" d="M8 3.5H4V34c0 2.2 1.8 4 4 4V3.5z"/><path fill="#DFF1FF" d="M4.164 4.5C4.599 5.938 5.925 7 7.5 7H34V2H7.5C5.925 2 4.599 3.062 4.164 4.5z"/><path fill="#D498DF" d="M33 1v5H7.5C6.122 6 5 4.878 5 3.5S6.122 1 7.5 1H33m1-1H7.5C5.575 0 4 1.575 4 3.5S5.575 7 7.5 7H34V0z"/><path fill="#DFF1FF" d="M33 2h1v4h-1z"/><path fill="none" stroke="#C4DAE8" stroke-linecap="round" stroke-miterlimit="10" d="M8.5 2.5h25M8.5 4.5h25"/><path fill="#955CA1" d="M32 1h2v1h-2zM27 14c.55 0 1 .45 1 1v5c0 .55-.45 1-1 1H15c-.55 0-1-.45-1-1v-5c0-.55.45-1 1-1h12m0-1H15c-1.103 0-2 .897-2 2v5c0 1.103.897 2 2 2h12c1.103 0 2-.897 2-2v-5c0-1.103-.897-2-2-2z"/><path fill="#D498DF" d="M15 22.5c-.827 0-1.5-.673-1.5-1.5v-5c0-.827.673-1.5 1.5-1.5h12c.827 0 1.5.673 1.5 1.5v5c0 .827-.673 1.5-1.5 1.5H15z"/><path fill="#FFF" d="M27 15c.55 0 1 .45 1 1v5c0 .55-.45 1-1 1H15c-.55 0-1-.45-1-1v-5c0-.55.45-1 1-1h12m0-1H15c-1.103 0-2 .897-2 2v5c0 1.103.897 2 2 2h12c1.103 0 2-.897 2-2v-5c0-1.103-.897-2-2-2z"/><path fill="none" stroke="#7B5080" stroke-linecap="round" stroke-miterlimit="10" d="M17.5 29.5h6M18.5 31.5h4"/></svg>