<svg id="icon-color-large-discussion" xmlns="http://www.w3.org/2000/svg" viewBox="0 0 38 38"><path fill="#FFF" d="M17.5 29.5c-2.247 0-4.464-.586-6.413-1.693l-.176-.1-6.155 1.582 1.847-5.7-.124-.197A12.965 12.965 0 0 1 4.5 16.499C4.5 9.332 10.332 3.5 17.5 3.5s13 5.832 13 12.999c0 7.169-5.832 13.001-13 13.001z"/><path fill="#767676" d="M17.5 4C24.393 4 30 9.607 30 16.499 30 23.392 24.393 29 17.5 29a12.5 12.5 0 0 1-6.166-1.628l-.352-.2-.392.101-5.079 1.306 1.495-4.614.144-.444-.248-.395A12.465 12.465 0 0 1 5 16.499C5 9.607 10.607 4 17.5 4m0-1C10.056 3 4 9.056 4 16.499c0 2.542.71 5.012 2.056 7.158L4 30l6.84-1.759A13.487 13.487 0 0 0 17.5 30C24.944 30 31 23.943 31 16.499 31 9.056 24.944 3 17.5 3z"/><path fill="#D0F4F5" d="M28.149 32.326c-1.396.737-3.212 1.174-4.901 1.174-5.466 0-9.748-4.393-9.748-10.001 0-5.514 4.472-9.999 9.968-9.999 5.626 0 10.032 4.275 10.032 9.733 0 1.796-.529 3.76-1.424 5.305l1.677 5.161-5.604-1.373z"/><path fill="#767676" d="M23.467 14C28.688 14 33 17.996 33 23.234c0 1.763-.55 3.748-1.47 5.243L33 33l-4.919-1.205c-1.407.788-3.22 1.205-4.833 1.205C18.027 33 14 28.738 14 23.499 14 18.261 18.247 14 23.467 14m0-1C17.696 13 13 17.71 13 23.499 13 29.387 17.501 34 23.248 34c1.7 0 3.523-.424 4.964-1.144l4.55 1.115 1.744.427-.555-1.708-1.332-4.099c.87-1.585 1.381-3.553 1.381-5.357C34 17.495 29.374 13 23.467 13z"/><circle fill="#767676" cx="19.5" cy="23.5" r="1.5"/><g><circle fill="#767676" cx="23.5" cy="23.5" r="1.5"/></g><g><circle fill="#767676" cx="27.5" cy="23.5" r="1.5"/></g></svg>