<svg id="icon-color-large-discussion-c" xmlns="http://www.w3.org/2000/svg" viewBox="0 0 38 38"><path fill="#28C3C8" d="M16.994 30c-2.337 0-4.635-.607-6.66-1.759L3.494 30l2.056-6.343a13.447 13.447 0 0 1-2.056-7.158C3.494 9.056 9.55 3 16.994 3s13.5 6.056 13.5 13.499c0 7.444-6.056 13.501-13.5 13.501z"/><path fill="#2EDFE0" d="M16.994 3C13.018 3 9.449 4.738 6.976 7.482 9.37 5.326 12.526 4 15.994 4c7.444 0 13.5 6.056 13.5 13.499 0 3.468-1.326 6.625-3.483 9.019 2.745-2.473 4.483-6.042 4.483-10.019C30.494 9.056 24.438 3 16.994 3z"/><path opacity=".2" fill="#303030" d="M30.329 18.498C28.597 15.207 25.096 13 20.961 13c-5.772 0-10.468 4.71-10.468 10.499 0 2.051.556 3.941 1.511 5.541 1.581.63 3.274.96 4.99.96 6.763 0 12.364-5.005 13.335-11.502z"/><path fill="#3FEBD3" d="M33.445 32.691l-1.332-4.099c.87-1.586 1.381-3.554 1.381-5.359C33.494 17.495 28.867 13 22.961 13c-5.772 0-10.468 4.71-10.468 10.499C12.494 29.387 16.995 34 22.742 34c1.7 0 3.523-.424 4.964-1.144l4.55 1.115 1.744.428-.555-1.708zM18.994 25a1.5 1.5 0 1 1 .001-3.001A1.5 1.5 0 0 1 18.994 25zm4 0a1.5 1.5 0 1 1 .001-3.001A1.5 1.5 0 0 1 22.994 25zm4 0a1.5 1.5 0 1 1 .001-3.001A1.5 1.5 0 0 1 26.994 25z"/><path fill="#3DF8E3" d="M21.961 14c5.906 0 10.532 4.495 10.532 10.234 0 1.805-.511 3.772-1.381 5.359l1.332 4.099.115.355 1.441.352-.555-1.708-1.332-4.099c.87-1.586 1.381-3.554 1.381-5.359C33.494 17.495 28.867 13 22.961 13c-3.132 0-5.939 1.393-7.859 3.587A10.398 10.398 0 0 1 21.961 14z"/><circle fill="#2CA5A9" cx="22.994" cy="23.5" r="1.5"/><circle fill="#2CA5A9" cx="18.994" cy="23.5" r="1.5"/><circle fill="#2CA5A9" cx="26.994" cy="23.5" r="1.5"/></svg>