<svg id="icon-color-large-document-2x-a" xmlns="http://www.w3.org/2000/svg" viewBox="0 0 38 38"><path fill="#FBE9E8" d="M32.5 36h-25c-.3 0-.5-.2-.5-.5V.5c0-.3.2-.5.5-.5h25c.3 0 .5.2.5.5v35c0 .3-.2.5-.5.5z"/><path fill="#FFF" d="M7 37.5c-.8 0-1.5-.7-1.5-1.5V4c0-.8.7-1.5 1.5-1.5h13.6l2 7.9 7.9 2V36c0 .8-.7 1.5-1.5 1.5H7z"/><path fill="#FF3B30" d="M20.2 3l1.8 7.2.1.6.6.1 7.2 1.8V36c0 .6-.4 1-1 1h-22c-.6 0-1-.4-1-1V4c0-.6.4-1 1-1h13.3m.8-1H7c-1.1 0-2 .9-2 2v32c0 1.1.9 2 2 2h22c1.1 0 2-.9 2-2V12l-8-2-2-8z"/><path fill="#FBE9E8" d="M22 12.5c-.8 0-1.5-.7-1.5-1.5V2.5h.5c.1 0 .3.1.4.1l9 9c.1.1.1.2.1.4v.5H22z"/><path fill="#FF3B30" d="M21 3l9 9h-8c-.5 0-1-.4-1-1V3m0-1h-1v9c0 1.1.9 2 2 2h9v-1c0-.3-.1-.5-.3-.7l-9-9c-.2-.2-.4-.3-.7-.3z"/><path fill="none" stroke="#FF3B30" stroke-linecap="square" stroke-linejoin="round" stroke-miterlimit="10" d="M7.5.5h25v35"/></svg>