<svg id="icon-color-large-document-multiple-c" xmlns="http://www.w3.org/2000/svg" viewBox="0 0 38 38"><path fill="#CEEAF8" d="M33 34H9V0h23.5a.5.5 0 0 1 .5.5V34z"/><path fill="#CEEAF8" d="M7 2h24v34H7z"/><path fill="#CEEAF8" d="M29 14v22c0 1.1-.9 2-2 2H7c-1.1 0-2-.9-2-2V6c0-1.1.9-2 2-2h12l2 8 8 2z"/><path fill="#DEF1FF" d="M29 14v20c0 1.1-.9 2-2 2H7c-1.1 0-2-.9-2-2V6c0-1.1.9-2 2-2h12l2 8 8 2z"/><path fill="#C4DAE8" d="M29 15a.995.995 0 0 0-.293-.706l-9-9.003A1.006 1.006 0 0 0 19 5h-1v9c0 1.1.898 2 1.996 2H29v-1z"/><path fill="#FFF" d="M29 14a.995.995 0 0 0-.293-.706l-9-9.003A1.006 1.006 0 0 0 19 4h-1v9c0 1.1.898 2 1.996 2H29v-1z"/><path fill="#C4DAE8" d="M19 4c.265 0 .519.105.706.292l9 9.003c.189.186.294.44.294.705v22h1V14c0-.527-.214-1.042-.588-1.414l-8.999-9.001A1.987 1.987 0 0 0 19 3H7v1h12"/><path fill="none" stroke="#AAC3D4" stroke-linecap="round" stroke-miterlimit="10" d="M11.5 20.5h11M11.5 23.5h11M11.5 26.5h11M11.5 29.5h11M11.5 32.5h11"/><path fill="none" stroke="#C4DAE8" stroke-linejoin="round" stroke-miterlimit="10" d="M9 1.5h22.5V34"/></svg>