<svg id="icon-color-large-document-text-c" xmlns="http://www.w3.org/2000/svg" viewBox="0 0 38 38"><path fill="#0481FF" d="M33 10v26c0 1.1-.9 2-2 2H7c-1.1 0-2-.9-2-2V2c0-1.1.9-2 2-2h16l2 8 8 2z"/><path fill="#008EFF" d="M33 10v24c0 1.1-.9 2-2 2H7c-1.1 0-2-.9-2-2V2c0-1.1.9-2 2-2h16l2 8 8 2z"/><path fill="#067EFF" d="M33 11a.995.995 0 0 0-.293-.706l-9-9.003A1.006 1.006 0 0 0 23 1h-1v9c0 1.1.898 2 1.996 2H33v-1z"/><path fill="#80C6FF" d="M33 10a.995.995 0 0 0-.293-.706l-9-9.003A1.006 1.006 0 0 0 23 0h-1v9c0 1.1.898 2 1.996 2H33v-1z"/><path fill="none" stroke="#FFF" stroke-linecap="round" stroke-miterlimit="10" d="M10.5 15.5h17M10.5 31.5h17M20.5 19.5h7M20.5 23.5h7M20.5 27.5h7"/><path fill="#9FC8FB" stroke="#FFF" stroke-linejoin="round" stroke-miterlimit="10" d="M10.5 19.5h7v8h-7z"/></svg>