<svg id="icon-color-large-document-2x-c" xmlns="http://www.w3.org/2000/svg" viewBox="0 0 38 38"><path fill="#CEEAF8" d="M31.5 36H6.501a.5.5 0 0 1-.5-.5V.5a.5.5 0 0 1 .5-.5H31.5a.5.5 0 0 1 .5.5v35a.5.5 0 0 1-.5.5z"/><path fill="#CEEAF8" d="M30 12v24c0 1.1-.9 2-2 2H6c-1.1 0-2-.9-2-2V4c0-1.1.9-2 2-2h14l2 8 8 2z"/><path fill="#DEF1FF" d="M30 12v22c0 1.1-.9 2-2 2H6c-1.1 0-2-.9-2-2V4c0-1.1.9-2 2-2h14l2 8 8 2z"/><path fill="#C4DAE8" d="M30 13a.995.995 0 0 0-.293-.706l-9-9.003A1.006 1.006 0 0 0 20 3h-1v9c0 1.1.898 2 1.996 2H30v-1z"/><path fill="#FFF" d="M30 12a.995.995 0 0 0-.293-.706l-9-9.003A1.006 1.006 0 0 0 20 2h-1v9c0 1.1.898 2 1.996 2H30v-1z"/><path fill="#C4DAE8" d="M20 2c.265 0 .519.105.706.292l9 9.003c.189.186.294.44.294.705v24h1V12c0-.527-.214-1.042-.588-1.414l-8.999-9.001A1.987 1.987 0 0 0 20 1H6v1h14"/></svg>