<svg id="icon-color-medium-draw-c" xmlns="http://www.w3.org/2000/svg" viewBox="0 0 24 24"><path fill="#F3C5A1" d="M22.482 22.47c.344-.339.686-.673.96-.94l-1.599-5.409-2.855 2.855 3.494 3.494z"/><path fill="#FFE100" d="M18.988 18.976l2.855-2.855-.132-.446a.494.494 0 0 0-.126-.212L9.228 3.082 6.161 6.149l12.827 12.827z"/><path fill="#E6B892" d="M22.482 22.47l-3.494-3.494-2.853 2.853 5.388 1.595c.271-.273.613-.613.959-.954z"/><path fill="#EBBD1D" d="M6.161 6.149L3.095 9.215 15.477 21.57a.504.504 0 0 0 .212.126l.447.132 2.853-2.853L6.161 6.149z"/><path fill="#F59698" d="M9.228 3.082L6.888.738c-.971-.968-2.655-.968-3.626 0L2.006 1.994l4.155 4.155 3.067-3.067z"/><path fill="#DF8383" d="M2.006 1.994L.75 3.249A2.558 2.558 0 0 0 0 5.062c0 .686.267 1.33.751 1.813l2.344 2.339 3.066-3.066-4.155-4.154z"/><path fill="#5A5A5F" d="M23.854 23.841a.498.498 0 0 0 .126-.495l-.537-1.816c-.274.267-.616.601-.96.94l1.371 1.371z"/><path fill="#4C4E52" d="M22.482 22.47c-.346.341-.689.681-.959.954l1.835.543a.493.493 0 0 0 .496-.125l-1.372-1.372z"/><g><path fill="#E5E5E4" d="M8.523 2.376l.706.708-3.07 3.064-.706-.708z"/><path fill="#CDCDCD" d="M6.162 6.15L3.096 9.214l-.707-.707 3.066-3.066z"/></g><g><path fill="#E9BC1E" d="M9.136 8.488a.63.63 0 0 1 .449.186l5.729 5.727a.63.63 0 0 1 .187.452c0 .17-.066.329-.186.45l.707.707c.31-.31.479-.72.479-1.156 0-.437-.17-.848-.479-1.158l-5.729-5.728c-.615-.616-1.688-.62-2.313.001l.707.707a.625.625 0 0 1 .449-.188z"/><path fill="#FFE100" d="M7.5 9.123c0 .438.17.849.479 1.158l5.729 5.729c.31.308.72.478 1.155.478.438 0 .848-.17 1.156-.479l-.707-.707v.001a.653.653 0 0 1-.898 0L8.687 9.575a.634.634 0 0 1-.001-.901l-.707-.707c-.309.31-.479.721-.479 1.156z"/></g></svg>