<svg id="icon-color-medium-edit-tool-c" xmlns="http://www.w3.org/2000/svg" viewBox="0 0 24 24"><path fill="#E5E5E4" d="M19.4 23.2L7.5 11.4c-.5.2-1.1.3-1.7.3C2.6 11.6 0 9.1 0 5.9c0-.7.1-1.4.3-2 .1-.2.2-.4.5-.4.2 0 .4 0 .6.2L4 6.3c.3.3.7.5 1.2.5.4 0 .8-.2 1.1-.5.7-.7.6-1.7 0-2.3L3.7 1.4c-.2-.2-.2-.4-.2-.6.1-.2.2-.4.4-.5C4.5.1 5.2 0 5.8 0c3.2 0 5.8 2.6 5.8 5.8 0 .6-.1 1.2-.3 1.8l11.8 11.8c.5.5.8 1.2.8 1.9s-.3 1.4-.8 1.9c-.4.5-1.1.8-1.8.8s-1.4-.3-1.9-.8z"/><g fill="#CDCCCC"><path d="M6.3 3L3.7.4c-.1.1-.2.2-.2.4s0 .4.2.6L6.3 4c.2.2.3.4.4.6.2-.5.1-1.1-.4-1.6zM0 5.4v.4c0 3.2 2.6 5.8 5.8 5.8.6 0 1.1-.1 1.7-.3l11.9 11.8c.5.5 1.2.8 1.9.8a2.732 2.732 0 0 0 2.7-2.7v-.5c-.1.5-.4 1-.7 1.4-.6.6-1.3.9-2 .9s-1.4-.3-1.9-.8L7.5 10.4c-.5.2-1.1.3-1.7.3-3-.1-5.5-2.3-5.8-5.3z"/></g></svg>