<svg id="icon-color-large-essay-a" xmlns="http://www.w3.org/2000/svg" viewBox="0 0 38 38"><path fill="#FFF" stroke="#FF3B30" stroke-linejoin="round" stroke-miterlimit="10" d="M31.5 37.5h-25a1 1 0 0 1-1-1v-35a1 1 0 0 1 1-1h25a1 1 0 0 1 1 1v35a1 1 0 0 1-1 1z"/><path fill="#FFF" stroke="#FF3B30" stroke-linecap="round" stroke-linejoin="round" stroke-miterlimit="10" d="M13 4.493h19M13 6.493h19M13 8.493h19M13 10.493h19M13 12.493h19M13 14.493h19M13 16.493h19M13 18.493h19M13 20.493h19M13 22.493h19M13 24.493h19M13 26.493h19M13 28.493h19M13 30.493h19M13 32.493h19"/><circle fill="#FF3B30" cx="9" cy="7" r="1"/><circle fill="#FF3B30" cx="9" cy="19" r="1"/><circle fill="#FF3B30" cx="9" cy="31" r="1"/><path fill="none" stroke="#FFD8D6" stroke-miterlimit="10" d="M12.5 1v35.986"/></svg>