<svg id="icon-color-large-essay" xmlns="http://www.w3.org/2000/svg" viewBox="0 0 38 38"><path fill="#FFF" d="M7 32.5c-.827 0-1.5-.673-1.5-1.5V7c0-.827.673-1.5 1.5-1.5h24c.827 0 1.5.673 1.5 1.5v24c0 .827-.673 1.5-1.5 1.5H7z"/><path fill="#777677" d="M31 6c.551 0 1 .449 1 1v24c0 .551-.449 1-1 1H7c-.551 0-1-.449-1-1V7c0-.551.449-1 1-1h24m0-1H7c-1.1 0-2 .9-2 2v24c0 1.1.9 2 2 2h24c1.1 0 2-.9 2-2V7c0-1.1-.9-2-2-2z"/><path fill="#BFC0BF" d="M10 11h18v1H10zM10 15h12v1H10zM10 19h18v1H10zM10 27h18v1H10zM10 23h12v1H10z"/></svg>