<svg id="icon-color-large-exam-a" xmlns="http://www.w3.org/2000/svg" viewBox="0 0 38 38"><path fill="#FFF" d="M7.074 37.5A1.566 1.566 0 0 1 5.5 35.946V2.054C5.5 1.197 6.206.5 7.074.5h23.852c.868 0 1.574.697 1.574 1.554v33.892c0 .856-.706 1.554-1.574 1.554H7.074z"/><path fill="#FF3B30" d="M30.926 1C31.518 1 32 1.473 32 2.054v33.892c0 .581-.482 1.054-1.074 1.054H7.074A1.066 1.066 0 0 1 6 35.946V2.054C6 1.473 6.482 1 7.074 1h23.852m0-1H7.074C5.929 0 5 .92 5 2.054v33.892C5 37.08 5.929 38 7.074 38h23.852C32.071 38 33 37.08 33 35.946V2.054A2.065 2.065 0 0 0 30.926 0z"/><path fill="#FFF" stroke="#FF3B30" stroke-linejoin="round" stroke-miterlimit="10" d="M18.508 11.5h3v3h-3z"/><path fill="#FBE9E8" stroke="#FBE9E8" stroke-linecap="round" stroke-linejoin="round" stroke-miterlimit="10" d="M24.508 11.5h3v3h-3zM18.508 5.5h3v3h-3z"/><path fill="#FFF" stroke="#FF3B30" stroke-linejoin="round" stroke-miterlimit="10" d="M24.508 5.5h3v3h-3z"/><path fill="#FBE9E8" stroke="#FBE9E8" stroke-linecap="round" stroke-linejoin="round" stroke-miterlimit="10" d="M18.508 17.5h3v3h-3z"/><path fill="#FFF" stroke="#FF3B30" stroke-linejoin="round" stroke-miterlimit="10" d="M24.508 17.5h3v3h-3z"/><g fill="#FF3B30"><path d="M10.008 24h1.983v.992h-1.983zM14.008 24h1.983v.992h-1.983zM18.008 24h1.983v.992h-1.983zM22.008 24.008h1.983V25h-1.983zM26.008 24h2v1h-2z"/></g><path fill="#FFF" stroke="#FF3B30" stroke-linecap="round" stroke-linejoin="round" stroke-miterlimit="10" d="M10.508 5.5h5M10.508 8.5h3M10.508 11.5h5M10.508 14.5h3M10.508 17.5h5M10.508 20.5h3"/><path fill="#FFF" stroke="#FF3B30" stroke-linejoin="round" stroke-miterlimit="10" d="M18.508 29.5h3v3h-3z"/><path fill="#FBE9E8" stroke="#FBE9E8" stroke-linecap="round" stroke-linejoin="round" stroke-miterlimit="10" d="M24.508 29.5h3v3h-3z"/><path fill="#FFF" stroke="#FF3B30" stroke-linecap="round" stroke-linejoin="round" stroke-miterlimit="10" d="M10.508 29.5h5M10.508 32.5h3"/></svg>