<svg id="icon-color-large-familiar-with-c" xmlns="http://www.w3.org/2000/svg" viewBox="0 0 38 38"><path fill="#B89D00" d="M26.062 37.77l-6.624-6.625a.778.778 0 0 0-1.099 0l-6.624 6.625c-.509.509-1.377.112-1.324-.606l1.8-24.444a.777.777 0 0 1 .775-.72h11.846c.407 0 .745.314.775.72l1.8 24.444c.052.718-.816 1.116-1.325.606z"/><path fill="#FBDF03" d="M26.062 36.77l-6.624-6.625a.778.778 0 0 0-1.099 0l-6.624 6.625c-.509.509-1.377.112-1.324-.606l1.8-24.444a.777.777 0 0 1 .775-.72h11.846c.407 0 .745.314.775.72l1.8 24.444c.052.718-.816 1.116-1.325.606z"/><path fill="#B89D00" d="M12.965 11a.777.777 0 0 0-.775.72l-1.8 24.444c-.053.718.815 1.115 1.324.606l6.624-6.625a.773.773 0 0 1 .549-.228V11h-5.922z" opacity=".25"/><path fill="#B89D00" d="M18.888 1c-7.168 0-13 5.832-13 13s5.832 13 13 13 13-5.832 13-13-5.832-13-13-13z"/><path fill="#B89D00" d="M18.888 29c2.918 0 5.606-.978 7.778-2.608l-1.08-14.672a.777.777 0 0 0-.775-.72H12.965a.777.777 0 0 0-.775.72l-1.08 14.672A12.915 12.915 0 0 0 18.888 29z" opacity=".4"/><path fill="#FBDF03" d="M18.888 1c-6.627 0-12 5.373-12 12s5.373 12 12 12 12-5.373 12-12-5.373-12-12-12z"/><path fill="#FBDF03" d="M18.888 1c-6.627 0-12 5.373-12 12s5.373 12 12 12 12-5.373 12-12-5.373-12-12-12z"/><path fill="#FBECA5" d="M18.888 2c6.065 0 11 4.935 11 11s-4.935 11-11 11-11-4.935-11-11 4.935-11 11-11m0-2c-7.168 0-13 5.832-13 13s5.832 13 13 13 13-5.832 13-13-5.832-13-13-13z"/><path fill="#FFF" d="M19.524 5l1.458 4.551a.67.67 0 0 0 .631.45h4.608c.644.005.912.847.393 1.223l-3.707 2.687a.65.65 0 0 0-.241.728l1.39 4.502c.194.603-.505 1.102-1.029.734l-3.749-2.63a.68.68 0 0 0-.78 0l-3.749 2.63c-.524.368-1.224-.131-1.029-.734l1.39-4.502a.652.652 0 0 0-.241-.728l-3.707-2.687c-.518-.376-.251-1.218.393-1.223h4.608a.67.67 0 0 0 .631-.45L18.252 5c.204-.6 1.068-.6 1.272 0z"/><path fill="#B89D00" d="M18.888 0c-7.168 0-13 5.832-13 13s5.832 13 13 13V0z" opacity=".25"/></svg>