<svg id="icon-color-large-field-work" xmlns="http://www.w3.org/2000/svg" viewBox="0 0 38 38"><path fill="#FFF" d="M31.015 38h-24c-1.1 0-2-.9-2-2V5c0-1.1.9-2 2-2h24c1.1 0 2 .9 2 2v31c0 1.1-.9 2-2 2z"/><path fill="#BFC1C0" d="M12.029 8h14v1h-14z"/><path fill="#767676" d="M31 4c.551 0 1 .449 1 1v31c0 .551-.449 1-1 1H7c-.551 0-1-.449-1-1V5c0-.551.449-1 1-1h24m0-1H7c-1.1 0-2 .9-2 2v31c0 1.1.9 2 2 2h24c1.1 0 2-.9 2-2V5c0-1.1-.9-2-2-2z"/><path fill="#E0E0E0" d="M10.529 8.5V7c0-1.93 1.57-3.5 3.5-3.5h10c1.93 0 3.5 1.57 3.5 3.5v1.5h-17z"/><path fill="#767676" d="M24.029 4c1.654 0 3 1.346 3 3v1h-16V7c0-1.654 1.346-3 3-3h10m0-1h-10a4 4 0 0 0-4 4v1.5a.5.5 0 0 0 .5.5h17a.5.5 0 0 0 .5-.5V7a4 4 0 0 0-4-4z"/><circle fill="#E0E0E0" stroke="#767676" stroke-miterlimit="10" cx="19.029" cy="3.5" r="3"/><path fill="none" stroke="#CDCDCD" stroke-linecap="round" stroke-miterlimit="10" d="M10.5 15.5h16M10.5 19.5h9M10.5 23.5h5M10.5 31.5h5M10.5 27.5h5"/><g><path fill="#FFF9CC" stroke="#767676" stroke-linejoin="round" stroke-miterlimit="10" d="M25.448 30.408l8.396-8.396-4.243-4.243-8.396 8.396a.5.5 0 0 0-.126.211l-1.5 5.043a.5.5 0 0 0 .614.614l5.043-1.5a.496.496 0 0 0 .212-.125z"/><path fill="#767676" d="M31.016 19.89l.707.707-7.778 7.778-.708-.707z"/><path fill="#FFD8D6" stroke="#767676" stroke-miterlimit="10" d="M33.844 22.012l-4.243-4.243 1.414-1.414a2 2 0 0 1 2.828 0l1.414 1.414a2 2 0 0 1 0 2.828l-1.413 1.415z"/><path fill="#FFF9CC" stroke="#767676" stroke-miterlimit="10" d="M21.213 26.217l4.125 4.126"/></g></svg>