<svg id="icon-color-large-field-work-c" xmlns="http://www.w3.org/2000/svg" viewBox="0 0 38 38"><path fill="#C19F5E" d="M31 38H7c-1.1 0-2-.9-2-2V5.107c0-1.1.9-2 2-2h24c1.1 0 2 .9 2 2V36c0 1.1-.9 2-2 2z"/><path fill="#A37D33" d="M31 37H7c-1.1 0-2-.9-2-2v1c0 1.1.9 2 2 2h24c1.1 0 2-.9 2-2v-1c0 1.1-.9 2-2 2z"/><path fill="#FFF" d="M7 6.107h24V35H7z"/><path fill="#E0E0E0" d="M28 9V7a4 4 0 0 0-4-4H14a4 4 0 0 0-4 4v2h18z"/><g fill="#E0E0E0"><circle cx="19" cy="3.5" r="3"/><path d="M19 7c-1.93 0-3.5-1.57-3.5-3.5S17.07 0 19 0s3.5 1.57 3.5 3.5S20.93 7 19 7zm0-6c-1.379 0-2.5 1.121-2.5 2.5S17.621 6 19 6s2.5-1.121 2.5-2.5S20.379 1 19 1z"/></g><circle fill="none" stroke="#BFC1C1" stroke-miterlimit="10" cx="19" cy="3.107" r="1.5"/><path fill="#BFC1C1" d="M10 8h18v1H10z"/><path fill="none" stroke="#CDCDCD" stroke-linecap="round" stroke-miterlimit="10" d="M10.5 15.5h16M10.5 19.5h9M10.5 23.5h5M10.5 31.5h5M10.5 27.5h5"/><path fill="#FEC34C" d="M20.88 25.883l4.929 4.929c.031-.024.065-.044.092-.072l8.757-8.757-4.95-4.95-8.753 8.754c-.029.029-.05.064-.075.096z"/><path fill="#FCB73D" d="M25.821 30.802c.026-.021.056-.038.08-.062l8.757-8.757-2.471-2.471-8.828 8.828 2.462 2.462z"/><path fill="#C8C8C8" d="M32.187 19.511l2.471 2.472-1.414 1.414-2.471-2.472z"/><path fill="#E2DFE5" d="M29.708 17.033l2.471 2.471-1.414 1.414-2.471-2.471z"/><path fill="#FF9594" d="M34.646 22.008l-4.95-4.95 1.037-1.037c.99-.99 2.594-.99 3.584 0l1.366 1.366c.99.99.99 2.594 0 3.584l-1.037 1.037z"/><path fill="#FCD3A6" d="M20.485 32.227l5.324-1.4-4.938-4.939-1.401 5.325z"/><path fill="#FCD3A6" d="M20.871 25.888h1.646v1.646h1.646v1.647h1.646v1.646"/><path fill="#333" d="M19.659 30.495l-.44 1.675a.253.253 0 0 0 .309.309l1.675-.44-1.544-1.544z"/></svg>