<svg id="icon-color-large-fill-in-the-blank" xmlns="http://www.w3.org/2000/svg" viewBox="0 0 38 38"><path fill="#FFF" stroke="#767676" stroke-width="1.036" stroke-miterlimit="10" d="M31.47 33.5h-25c-1.1 0-2-.9-2-2v-25c0-1.1.9-2 2-2h25c1.1 0 2 .9 2 2v25c0 1.1-.9 2-2 2z"/><path fill="#FFF9CC" d="M20.971 24.5a.509.509 0 0 1-.415-.229.484.484 0 0 1-.048-.464l1.883-4.708a.511.511 0 0 1 .11-.167l9.754-9.754c.284-.284.661-.44 1.062-.44s.778.156 1.062.44l1.41 1.41c.586.586.586 1.54 0 2.125l-9.752 9.751a.498.498 0 0 1-.17.112l-4.706 1.883a.462.462 0 0 1-.19.041z"/><path fill="#767676" d="M33.317 9.239c.268 0 .52.104.709.294l1.41 1.41a1.004 1.004 0 0 1 0 1.418l-9.753 9.753-4.711 1.879 1.884-4.708 9.752-9.752a.999.999 0 0 1 .709-.294m0-1c-.513 0-1.025.196-1.416.587l-9.752 9.752a.999.999 0 0 0-.222.337l-1.883 4.708c-.276.69.26 1.377.926 1.377.123 0 .25-.023.378-.074l4.708-1.883a.999.999 0 0 0 .337-.222l9.752-9.752a2.003 2.003 0 0 0 0-2.832l-1.41-1.41a2 2 0 0 0-1.418-.588z"/><path fill="#FFD8D6" d="M34.377 13.42l1.059-1.058a.997.997 0 0 0 .294-.709.993.993 0 0 0-.294-.709l-1.41-1.41a.997.997 0 0 0-.709-.294.993.993 0 0 0-.709.294l-1.058 1.058"/><path fill="#767676" d="M31.196 9.531l4.243 4.243-.707.707-4.243-4.243zM23.418 18.723l2.828 2.828-.707.707-2.828-2.828z"/><path fill="none" stroke="#CDCDCD" stroke-linecap="round" stroke-miterlimit="10" d="M10.47 27.5h17"/></svg>