<svg id="icon-color-large-folder-open-a" xmlns="http://www.w3.org/2000/svg" viewBox="0 0 38 38"><path fill="#FBE9E8" d="M4 13h30v1H4zM34 14c.6 0 1.1.5 1 1.1L33.1 30c0 1.1-.9 2-2 2h-24c-1.1 0-2-.9-2-2L3.2 15.1c-.1-.6.4-1.1 1-1.1H34zM4.5 12.5V6c0-.8.7-1.5 1.5-1.5h7.6c.1 0 .2 0 .3.1l4.5 3.6c.3.2.6.3.9.3h12.6c.8 0 1.5.7 1.5 1.5v2.5H4.5z"/><path fill="#FF3B30" d="M13.6 5l4.5 3.6c.4.3.8.4 1.3.4H32c.6 0 1 .4 1 1v2H5V6c0-.6.4-1 1-1h7.6m0-1H6c-1.1 0-2 .9-2 2v7h30v-3c0-1.1-.9-2-2-2H19.4c-.2 0-.4-.1-.6-.2l-4.5-3.6c-.2-.1-.4-.2-.7-.2z"/><path fill="#FFF" d="M7 33.5c-.8 0-1.5-.7-1.5-1.5L3.6 17.1c0-.1 0-.3.1-.4.1-.1.2-.2.4-.2h29.7c.1 0 .3.1.4.2.1.1.1.2.1.4L32.4 32c0 .9-.7 1.6-1.5 1.6L7 33.5z"/><path fill="#FF3B30" d="M33.9 17L32 31.9v.2c0 .6-.4 1-1 1H7c-.6 0-1-.4-1-1v-.2L4.1 17h29.8m0-1H4.2c-.6 0-1.1.5-1 1.1L5.1 32c0 1.1.9 2 2 2h24c1.1 0 2-.9 2-2L35 17.1c-.1-.6-.5-1.1-1.1-1.1zM34.5 15h-31c-.3 0-.5-.2-.5-.5s.2-.5.5-.5h31c.3 0 .5.2.5.5s-.2.5-.5.5z"/></svg>