<svg id="icon-color-large-folder-a" xmlns="http://www.w3.org/2000/svg" viewBox="0 0 38 38"><path fill="#FBE9E8" d="M4.5 12.5V6c0-.827.673-1.5 1.5-1.5h7.649c.113 0 .225.039.314.11l4.45 3.561c.266.212.599.329.939.329H32c.827 0 1.5.673 1.5 1.5v2.5h-29z"/><path fill="#FF3B30" d="M13.649 5l4.452 3.561c.353.283.798.439 1.251.439H32c.551 0 1 .449 1 1v2H5V6c0-.551.449-1 1-1h7.649m0-1H6c-1.1 0-2 .9-2 2v7h30v-3c0-1.1-.9-2-2-2H19.352c-.228 0-.449-.078-.627-.22l-4.451-3.561A1 1 0 0 0 13.649 4z"/><g><path fill="#FFF" d="M6 33.5c-.827 0-1.5-.673-1.5-1.5V12.5h29V32c0 .827-.673 1.5-1.5 1.5H6z"/><path fill="#FF3B30" d="M33 13v19c0 .551-.449 1-1 1H6c-.551 0-1-.449-1-1V13h28m1-1H4v20c0 1.1.9 2 2 2h26c1.1 0 2-.9 2-2V12z"/></g></svg>