<svg id="icon-color-large-folder-open-c" xmlns="http://www.w3.org/2000/svg" viewBox="0 0 38 38"><path fill="#166CAA" d="M5 13V6c0-1.1.9-2 2-2h7.649c.227 0 .448.077.626.219l4.451 3.561c.177.142.398.22.626.22H33c1.1 0 2 .9 2 2v3H5z"/><path fill="#095E92" d="M5 13h30v1H5z"/><path fill="#C4DAE8" d="M35.004 14a.996.996 0 0 1 .988 1.119L34.132 30c0 1.1-.9 2-2 2h-24c-1.1 0-2-.9-2-2l-1.86-14.88A.996.996 0 0 1 5.261 14h29.743z"/><path fill="#FFF" d="M35.5 15h-31a.501.501 0 0 1-.5-.5c0-.275.225-.5.5-.5h31c.275 0 .5.225.5.5s-.225.5-.5.5z"/><path fill="#008EFF" d="M34.872 16a.996.996 0 0 1 .988 1.119L34 32c0 1.1-.9 2-2 2H8c-1.1 0-2-.9-2-2L4.14 17.12A.996.996 0 0 1 5.129 16h29.743z"/><path fill="#25A3F9" d="M5.259 18h29.483c.434 0 .79.283.925.666l.193-1.547A.996.996 0 0 0 34.872 16H5.129a.997.997 0 0 0-.989 1.12l.193 1.546A.984.984 0 0 1 5.259 18z"/></svg>