<svg id="icon-color-large-goal" xmlns="http://www.w3.org/2000/svg" viewBox="0 0 38 38"><path fill="#FFF" stroke="#767676" stroke-linejoin="round" stroke-miterlimit="10" d="M11.5 33.975c3-.253 4.5-2.475 4.5-4.475h6c0 2 1.5 4.222 3.5 4.475M7 15.5H5.13a3.63 3.63 0 0 1-3.63-3.63V7.5H6M32 7.5h4.5v4.37a3.63 3.63 0 0 1-3.63 3.63H31M32.5 4.5h-27a1 1 0 0 1-1-1v-2a1 1 0 0 1 1-1h27a1 1 0 0 1 1 1v2a1 1 0 0 1-1 1z"/><path fill="#FFF" stroke="#767676" stroke-linejoin="round" stroke-miterlimit="10" d="M19.125 24.5h-.25C12.04 24.5 6.5 18.96 6.5 12.125V4.5h25v7.625c0 6.835-5.54 12.375-12.375 12.375z"/><path fill="#FFF" stroke="#767676" stroke-linejoin="round" stroke-miterlimit="10" d="M21.025 29.5h-4.05a2.475 2.475 0 0 1-2.475-2.475v-.05a2.475 2.475 0 0 1 2.475-2.475h4.05a2.475 2.475 0 0 1 2.475 2.475v.05a2.475 2.475 0 0 1-2.475 2.475zM26.5 37.5h-15a1 1 0 0 1-1-1v-2a1 1 0 0 1 1-1h15a1 1 0 0 1 1 1v2a1 1 0 0 1-1 1z"/><path fill="#FFF9CC" stroke="#767676" stroke-linejoin="round" stroke-miterlimit="10" d="M19 8.169l1.714 3.472 3.832.557-2.773 2.703.654 3.816L19 16.915l-3.427 1.802.654-3.816-2.773-2.703 3.832-.557z"/><path fill="none" d="M0 0h38v38H0z"/></svg>