<svg id="icon-color-large-grades-c" xmlns="http://www.w3.org/2000/svg" viewBox="0 0 38 38"><path fill="#CEEAF8" d="M31 10v26c0 1.1-.9 2-2 2H6c-1.1 0-2-.9-2-2V2c0-1.1.9-2 2-2h15l2 8 8 2z"/><path fill="#DEF1FF" d="M31 10v24c0 1.1-.9 2-2 2H6c-1.1 0-2-.9-2-2V2c0-1.1.9-2 2-2h15l2 8 8 2z"/><path fill="#AAC3D4" d="M31 11a.995.995 0 0 0-.293-.706l-9-9.003A1.006 1.006 0 0 0 21 1h-1v9c0 1.1.898 2 1.996 2H31v-1z" opacity=".5"/><path fill="#FFF" d="M31 10a.995.995 0 0 0-.293-.706l-9-9.003A1.006 1.006 0 0 0 21 0h-1v9c0 1.1.898 2 1.996 2H31v-1z"/><path fill="#FF9594" d="M33.483 18.29l-1.44-1.44c-.799-.799-2.076-.816-2.852-.04l-1.403 1.403 4.332 4.332 1.403-1.403c.776-.776.759-2.053-.04-2.852z"/><path fill="#CEC4B6" d="M18.205 27.797v.001M18.205 27.797v.001"/><path fill="#C8C8C8" d="M28.516 17.485l4.343 4.343-1.23 1.23-4.343-4.343z"/><path fill="#E2DFE5" d="M28.516 17.485l2.163 2.163-1.23 1.23-2.163-2.163z"/><path fill="#EBBB00" d="M27.285 18.716l4.344 4.343-9.301 9.301-4.344-4.343z"/><path fill="#FFD200" d="M27.285 18.716l2.172 2.173-9.301 9.3-2.172-2.171z"/><path fill="#EDD1AD" d="M20.909 29.437c-1.199-1.199-2.508-1.832-2.926-1.416h-.001l-.289 4.615 4.629-.271h.004c.416-.418-.218-1.729-1.417-2.928z"/><path fill="#333" d="M18.865 31.479c-.435-.435-.911-.665-1.063-.514l-.105 1.676 1.681-.098h.001c.152-.152-.078-.628-.514-1.064z"/><path fill="none" stroke="#AAC3D4" stroke-linecap="round" stroke-miterlimit="10" d="M9.5 15.5h16M9.5 19.5h9M9.5 23.5h5M9.5 31.5h5M9.5 27.5h5"/></svg>