<svg id="icon-color-large-happy-a" xmlns="http://www.w3.org/2000/svg" viewBox="0 0 38 38"><path fill="none" d="M222 122h38v11.875h-38zM512.289 122h38v11.875h-38zM280.058 180h38v11.875h-38zM338.116 180h38v11.875h-38zM570.347 180h38v11.875h-38zM686.463 180h38v11.875h-38zM-161.479 64h38v11.875h-38zM-161.479 122h38v11.875h-38zM-103.421 122h38v11.875h-38z"/><path fill="#166CAA" d="M-689-139v-7c0-1.1.9-2 2-2h7.649c.227 0 .448.077.626.219l4.451 3.561c.178.142.399.22.627.22H-661c1.1 0 2 .9 2 2v3h-30z"/><path fill="#008EFF" d="M-659-140v18c0 1.1-.9 2-2 2h-26c-1.1 0-2-.9-2-2v-18h30z"/><path fill="#095E92" d="M-689-141h30v1h-30z"/><circle fill="#FFF" stroke="#FF3B30" stroke-linecap="round" stroke-linejoin="round" stroke-miterlimit="10" cx="19" cy="19" r="18.5"/><path fill="#FF3B30" stroke="#FF3B30" stroke-linecap="round" stroke-linejoin="round" stroke-miterlimit="10" d="M7.651 24.62c.544 1.819 1.535 3.448 2.973 4.886 2.298 2.298 5.069 3.447 8.314 3.447s6.01-1.149 8.295-3.447c1.447-1.439 2.438-3.067 2.973-4.886-1.886-.24-4.241-.417-7.064-.53-5.655-.24-10.819-.063-15.491.53z"/><path fill="#FF3B30" d="M28.408 13.825c0-.783-.221-1.452-.663-2.007s-.978-.833-1.61-.833c-.619 0-1.149.278-1.591.833-.455.556-.682 1.225-.682 2.007.001.794.311.958.928.492.627-.451 1.233-.583 1.818-.398.598.186 1.046.413 1.345.682.302.28.453.021.455-.776zM14.015 13.825c0-.783-.221-1.452-.663-2.007s-.979-.833-1.61-.833c-.619 0-1.149.278-1.591.833-.455.556-.682 1.225-.682 2.007-.001.796.245.973.739.53.495-.43 1.051-.607 1.667-.53.629.077 1.14.291 1.534.644.404.366.606.151.606-.644z"/><path fill="none" stroke="#FF3B30" stroke-linecap="round" stroke-linejoin="round" stroke-miterlimit="10" d="M23.446 9.659c1.742-1.553 3.478-1.553 5.208 0M9.109 9.659c1.742-1.553 3.478-1.553 5.208 0"/><path fill="#FFF" d="M23.123 24.589c-5.363-.227-10.336-.075-14.806.453.207.571.479 1.117.784 1.649 4.418-.244 7.693-.367 9.8-.367 2.442-.012 5.731.121 9.846.395.312-.541.588-1.096.797-1.677-1.761-.2-3.918-.352-6.421-.453z"/></svg>