<svg id="icon-color-large-help-light-bulb-c" xmlns="http://www.w3.org/2000/svg" viewBox="0 0 38 38"><path fill="#FFF" d="M19.104 6.377a.797.797 0 0 1-.797-.797V.797a.797.797 0 0 1 1.594 0V5.58c0 .44-.357.797-.797.797zM36.84 19.405h-4.783a.797.797 0 0 1 0-1.594h4.783a.797.797 0 0 1 0 1.594zM6.076 19.33H1.293a.797.797 0 0 1 0-1.594h4.783a.797.797 0 0 1 0 1.594zM9.907 10.156a.795.795 0 0 1-.564-.234L5.961 6.54a.797.797 0 0 1 1.127-1.127l3.382 3.382a.797.797 0 0 1-.563 1.361zM28.279 10.209a.797.797 0 0 1-.564-1.361l3.382-3.382a.797.797 0 0 1 1.127 1.127l-3.382 3.382a.791.791 0 0 1-.563.234zM31.608 31.962a.795.795 0 0 1-.564-.234l-3.382-3.382a.797.797 0 0 1 1.127-1.127l3.382 3.382a.797.797 0 0 1-.563 1.361zM6.472 31.909a.797.797 0 0 1-.564-1.361l3.382-3.382a.797.797 0 0 1 1.127 1.127l-3.382 3.382a.791.791 0 0 1-.563.234z" opacity=".8"/><path fill="#FFF" d="M24.081 7.385a.798.798 0 0 1-.736-1.103l.917-2.209a.798.798 0 0 1 1.473.611l-.917 2.209a.8.8 0 0 1-.737.492zM31.086 14.44a.798.798 0 0 1-.305-1.534l2.21-.914a.798.798 0 0 1 .609 1.473l-2.21.914a.797.797 0 0 1-.304.061zM33.259 25.299a.802.802 0 0 1-.305-.061l-2.209-.917a.798.798 0 0 1 .611-1.473l2.209.917a.798.798 0 0 1-.306 1.534zM4.837 25.21a.798.798 0 0 1-.305-1.534l2.21-.914a.797.797 0 0 1 .609 1.473l-2.21.914a.793.793 0 0 1-.304.061zM7.082 14.354a.798.798 0 0 1-.305-.061l-2.209-.917a.798.798 0 0 1 .611-1.473l2.209.917a.798.798 0 0 1-.306 1.534zM14.139 7.349a.798.798 0 0 1-.737-.493l-.914-2.21a.797.797 0 1 1 1.473-.609l.914 2.21a.797.797 0 0 1-.736 1.102z" opacity=".3"/><g fill="#DABC26"><path d="M21.964 27.513c4.045-1.309 6.875-5.356 6.426-9.921-.447-4.542-4.221-8.146-8.778-8.404a9.372 9.372 0 0 0-9.916 9.355c0 4.169 2.742 7.754 6.506 8.97v2.381c0 .44.357.797.797.797h4.167c.44 0 .797-.357.797-.797v-2.381z"/><path d="M21.166 31.089H17a1.197 1.197 0 0 1-1.196-1.196v-2.096c-3.845-1.374-6.506-5.138-6.506-9.255a9.678 9.678 0 0 1 3.061-7.101 9.697 9.697 0 0 1 7.276-2.651c4.752.269 8.687 4.036 9.152 8.763.442 4.49-2.247 8.751-6.424 10.245v2.096a1.198 1.198 0 0 1-1.197 1.195zM19.061 9.571a8.89 8.89 0 0 0-6.156 2.45 8.892 8.892 0 0 0-2.811 6.522c0 3.874 2.562 7.406 6.23 8.591l.276.089v2.671a.4.4 0 0 0 .399.399h4.167a.4.4 0 0 0 .399-.399v-2.671l.276-.089c3.98-1.288 6.567-5.284 6.152-9.503-.427-4.339-4.04-7.798-8.404-8.045a9.332 9.332 0 0 0-.528-.015z"/></g><g fill="#FFE200"><path d="M16.203 27.513c-3.765-1.216-6.506-4.801-6.506-8.97a9.37 9.37 0 0 1 9.916-9.355c4.557.258 8.331 3.862 8.778 8.404.449 4.565-2.381 8.612-6.426 9.921h-5.762z"/><path d="M22.027 27.911l-5.947-.019c-3.993-1.289-6.782-5.134-6.782-9.349a9.678 9.678 0 0 1 3.061-7.101 9.697 9.697 0 0 1 7.276-2.651c4.752.269 8.687 4.036 9.152 8.763.452 4.588-2.366 8.937-6.7 10.339l-.06.018zm-5.761-.797H21.9c3.947-1.308 6.506-5.286 6.093-9.483-.427-4.339-4.04-7.798-8.404-8.045-2.498-.137-4.872.723-6.684 2.435a8.892 8.892 0 0 0-2.811 6.522c.001 3.852 2.535 7.368 6.172 8.571z"/></g><path fill="#AEAEAF" d="M21.332 35.852a2.148 2.148 0 0 1-4.296 0M21.75 31.964l.688 1.438-5.82 2.788-.688-1.437z"/><path fill="#CDCCCC" d="M22.093 33.481h-5.819a.797.797 0 0 1 0-1.594h5.819a.797.797 0 0 1 0 1.594zM22.093 36.271h-5.819a.797.797 0 0 1 0-1.594h5.819a.797.797 0 0 1 0 1.594z"/><g opacity=".1"><path d="M19.066 31.897h-2.791a.797.797 0 0 0 0 1.594h2.313l-2.657 1.274.001.002a.795.795 0 0 0 .343 1.514h.804a2.143 2.143 0 0 0 1.988 1.718v-6.102zM9.361 19.582c.019.171.036.343.063.512.016.1.04.199.06.298.029.151.056.303.093.452.025.105.059.207.088.31.04.141.077.283.122.423.035.105.076.208.115.312.049.134.096.268.15.4.043.104.093.205.14.307.058.127.115.256.178.381.052.101.109.199.164.298.067.121.132.243.204.362.06.098.125.192.188.289.075.115.149.23.229.342.067.094.139.184.21.276.083.108.165.217.252.322.075.089.154.174.231.261.09.101.18.202.275.3.082.084.167.164.252.245.098.093.194.187.295.277.088.078.18.152.271.227.104.085.207.171.315.252.095.071.193.139.29.207.11.077.22.154.333.226.101.064.204.125.308.185.116.068.231.136.35.199.107.057.216.11.325.163.121.059.242.116.365.17.112.049.226.093.341.138.08.031.157.067.238.096v2.096c0 .659.536 1.196 1.196 1.196h2.066V8.785c-5.389 0-9.768 4.382-9.768 9.768 0 .261.011.519.032.777.006.085.02.168.029.252z"/></g><path fill="#FFF" d="M25.573 19.014a1.194 1.194 0 0 1-1.188-1.079c-.192-1.946-1.45-3.63-3.282-4.393a1.196 1.196 0 1 1 .92-2.208c2.647 1.103 4.464 3.543 4.742 6.367a1.195 1.195 0 0 1-1.192 1.313z" opacity=".7"/></svg>