<svg id="icon-color-large-help-c" xmlns="http://www.w3.org/2000/svg" viewBox="0 0 38 38"><path fill="#FFF" d="M17 23.4v-.8c0-.9.2-1.7.5-2.3s.9-1.3 1.8-1.9c1-.8 1.7-1.4 1.9-1.9s.4-1 .4-1.6c0-.7-.2-1.3-.7-1.6-.5-.4-1.2-.6-2-.6s-1.5.1-2.2.3-1.4.5-2 .8l-1.1-2.2c1.7-1 3.6-1.4 5.5-1.4 1.7 0 3 .4 3.9 1.2 1 .8 1.5 1.9 1.5 3.4 0 .6-.1 1.2-.3 1.7-.2.5-.5 1-.8 1.4-.4.4-1 1-1.9 1.8-.8.6-1.3 1.1-1.6 1.5-.3.4-.4 1-.4 1.6v.6H17zm-.5 4c0-1.3.6-1.9 1.9-1.9.6 0 1.1.2 1.4.5.3.3.5.8.5 1.4 0 .6-.2 1.1-.5 1.4-.3.4-.8.5-1.4.5s-1.1-.2-1.4-.5c-.4-.3-.5-.8-.5-1.4z"/><g fill="#FF9400"><path d="M19 1.5C9.3 1.5 1.5 9.3 1.5 19c0 3.4 1 6.6 2.7 9.3l-1.7 8.2 7.9-2.3c2.5 1.4 5.5 2.3 8.6 2.3 9.7 0 17.5-7.8 17.5-17.5S28.7 1.5 19 1.5z"/><path d="M2.5 37c-.1 0-.2 0-.3-.1-.1-.1-.2-.3-.2-.5l1.6-8C1.9 25.5 1 22.3 1 19 1 9.1 9.1 1 19 1s18 8.1 18 18-8.1 18-18 18c-3 0-6-.8-8.6-2.2L2.7 37h-.2zm7.9-3.3c.1 0 .2 0 .2.1 2.5 1.4 5.4 2.2 8.3 2.2 9.4 0 17-7.6 17-17S28.4 2 19 2C9.6 2 2 9.6 2 19c0 3.2.9 6.3 2.6 9 .1.1.1.2.1.4l-1.5 7.4 7.1-2.1h.1z"/></g><path fill="#E77A14" d="M4 27l-.4-.6c-1.5-2.4-2.4-5.1-2.6-8v.8c0 3.3.9 6.5 2.7 9.3L4 27zM19 34.9c-3 0-6-.8-8.6-2.2l-7.7 2.2H2.4L2 36.4c0 .2 0 .4.2.5.1.1.2.1.3.1h.1l7.7-2.2C13 36.2 16 37 19 37c9.9 0 18-8 18-17.7 0-.3 0-.7-.1-1-.5 9.2-8.3 16.6-17.9 16.6z"/><g><path fill="#FFF" d="M19 24.1c-.3 0-.5-.2-.5-.5v-1.2c0-1.5 1-2.8 2.4-3.3 1.9-.7 3.1-2.2 3.1-4 0-2.4-2.2-4.3-5-4.3s-5 1.9-5 4.3c0 .3-.2.5-.5.5s-.5-.2-.5-.5c0-2.9 2.7-5.3 6-5.3s6 2.4 6 5.3c0 2.2-1.5 4.1-3.8 4.9-1 .4-1.7 1.3-1.7 2.3v1.2c0 .4-.2.6-.5.6z"/><circle fill="#FFF" cx="19" cy="26.9" r=".8"/></g></svg>