<svg id="icon-color-large-help-ticket-a" xmlns="http://www.w3.org/2000/svg" viewBox="0 0 38 38"><path fill="#FFF" d="M23 1v.518c0 2.089-1.527 3.955-3.607 4.153A4 4 0 0 1 15 1.69V1a1 1 0 0 0-1-1H8a1 1 0 0 0-1 1v36a1 1 0 0 0 1 1h6a1 1 0 0 0 1-1v-.394c0-2.089 1.527-3.955 3.607-4.153A4.001 4.001 0 0 1 23 36.435V37a1 1 0 0 0 1 1h6a1 1 0 0 0 1-1V1a1 1 0 0 0-1-1h-6a1 1 0 0 0-1 1z"/><path fill="#FBE9E8" d="M7 25v12a1 1 0 0 0 1 1h6a1 1 0 0 0 1-1v-.394c0-2.089 1.527-3.955 3.607-4.153A4.001 4.001 0 0 1 23 36.435V37a1 1 0 0 0 1 1h6a1 1 0 0 0 1-1V25H7z"/><path fill="#FF3B30" d="M30 1v36h-6v-.565a5.006 5.006 0 0 0-5.488-4.977c-2.53.241-4.512 2.503-4.512 5.148V37H8V1h6v.69a5.006 5.006 0 0 0 5.488 4.977C22.018 6.426 24 4.164 24 1.518V1h6m0-1h-6a1 1 0 0 0-1 1v.518c0 2.089-1.527 3.955-3.607 4.153A4 4 0 0 1 15 1.69V1a1 1 0 0 0-1-1H8a1 1 0 0 0-1 1v36a1 1 0 0 0 1 1h6a1 1 0 0 0 1-1v-.394c0-2.089 1.527-3.955 3.607-4.153A4 4 0 0 1 23 36.434V37a1 1 0 0 0 1 1h6a1 1 0 0 0 1-1V1a1 1 0 0 0-1-1z"/><g fill="none" stroke="#FF3B30" stroke-linecap="round" stroke-linejoin="round" stroke-miterlimit="10"><path d="M19.034 20.135L19 10M22.951 16.007l-3.917 4.44-3.918-4.44"/></g><g fill="#FF3B30"><path d="M8 25h2v1H8zM12 25h2v1h-2zM16 25h2v1h-2zM20 25h2v1h-2zM24 25h2v1h-2zM28 25h2v1h-2z"/></g></svg>