<svg id="icon-color-large-homework-a" xmlns="http://www.w3.org/2000/svg" viewBox="0 0 38 38"><path fill="#FFF" d="M30.5 37.5h-23c-.6 0-1-.4-1-1v-3h25v3c0 .6-.5 1-1 1z"/><path fill="#FFF" stroke="#FF3B30" stroke-linejoin="round" stroke-miterlimit="10" d="M22.5.5h-7c-.6 0-1 .4-1 1v4h2v-3h5v3h2v-4c0-.6-.5-1-1-1zM5.2 20.5h27.5c1 0 1.8.6 1.8 1.4v10.2c0 .8-.8 1.4-1.8 1.4H5.2c-1 0-1.8-.6-1.8-1.4V21.9c.1-.8.8-1.4 1.8-1.4z"/><path fill="none" stroke="#CDCDCD" stroke-linecap="round" stroke-miterlimit="10" d="M6.5 25.5h25"/><path fill="#FBE9E8" d="M6.5 33.5v-20c0-4.4 3.6-8 8-8h9c4.4 0 8 3.6 8 8v20"/><path fill="none" stroke="#FF3B30" stroke-linejoin="round" stroke-miterlimit="10" d="M30.5 37.5h-23c-.6 0-1-.4-1-1v-23c0-4.4 3.6-8 8-8h9c4.4 0 8 3.6 8 8v23c0 .6-.5 1-1 1z"/><path fill="none" stroke="#FF3B30" stroke-linecap="round" stroke-linejoin="round" stroke-miterlimit="10" d="M6.5 33.5h24.7"/><path fill="none" stroke="#767676" stroke-linejoin="round" stroke-miterlimit="10" d="M6.5 20.5h25"/><path fill="#FFF" stroke="#FF3B30" stroke-linejoin="round" stroke-miterlimit="10" d="M15.31 12.973l3.677-3.677 3.677 3.677-3.677 3.677z" stroke-width=".99999"/><path fill="#FFF" stroke="#FF3B30" stroke-linejoin="round" stroke-miterlimit="10" d="M28.5 29.5h-19c-1.7 0-3-1.3-3-3v-6h25v6c0 1.7-1.5 3-3 3z"/><path fill="#FFF" stroke="#FF3B30" stroke-linecap="round" stroke-linejoin="round" stroke-miterlimit="10" d="M13.5 31.5c.6 0 1-.4 1-1v-11h-2v11c0 .6.4 1 1 1zM24.5 31.5c.6 0 1-.4 1-1v-11h-2v11c0 .6.4 1 1 1z"/><path fill="none" stroke="#FF3B30" stroke-linecap="round" stroke-linejoin="round" stroke-miterlimit="10" d="M17.5 13h3"/></svg>