<svg id="icon-color-large-individual-chat-c" xmlns="http://www.w3.org/2000/svg" viewBox="0 0 38 38"><path fill="#40BEC4" stroke="#40BEC4" stroke-linejoin="round" stroke-miterlimit="10" d="M17.469.5C8.097.5.5 8.106.5 17.488c0 3.326.969 6.418 2.619 9.038L1.5 34.5l7.647-2.216a16.858 16.858 0 0 0 8.321 2.192c9.372 0 16.969-7.606 16.969-16.988S26.84.5 17.469.5z"/><g fill="#039696"><path d="M2.938 25.188l-.349-.566a17.465 17.465 0 0 1-2.548-7.946c-.012.271-.041.538-.041.812 0 3.22.895 6.373 2.589 9.133l.349-1.433zM17.469 32.977c-2.921 0-5.814-.744-8.383-2.154L1.639 32.98a.496.496 0 0 1-.336-.024L1.01 34.4a.502.502 0 0 0 .49.6.502.502 0 0 0 .139-.02l7.447-2.158a17.453 17.453 0 0 0 8.383 2.154c9.632 0 17.469-7.845 17.469-17.488 0-.338-.032-.667-.051-1-.522 9.178-8.124 16.489-17.418 16.489z"/></g><path fill="none" stroke="#FFF" stroke-linecap="round" stroke-miterlimit="10" d="M9.969 13.469h15M9.969 17.5h15M9.969 21.5h15"/><g opacity=".5" fill="none" stroke="#039696" stroke-linecap="round" stroke-linejoin="round" stroke-miterlimit="10"><path d="M9.969 14.469h15M9.969 18.5h15M9.969 22.5h15"/></g><path fill="none" stroke="#ABDCE3" stroke-linecap="round" stroke-miterlimit="10" d="M29.75 11c-1.631-3.112-4.325-5.427-7.747-6.612"/><path fill="#C26FD2" d="M29.5 24.5c-4.418 0-8 3.857-8 8.615 0 1.603.414 3.099 1.122 4.385h13.755a9.07 9.07 0 0 0 1.122-4.385C37.5 28.357 33.918 24.5 29.5 24.5z"/><path fill="#955CA1" d="M22.923 37A8.613 8.613 0 0 1 22 33.115C22 28.641 25.364 25 29.5 25v-1c-4.687 0-8.5 4.089-8.5 9.115 0 1.62.409 3.22 1.185 4.626l.142.259h14.346l-.596-1H22.923z"/><path fill="#D498DF" d="M38 33.115C38 28.089 34.187 24 29.5 24v1c4.136 0 7.5 3.641 7.5 8.115 0 1.354-.318 2.69-.923 3.885l.596 1 .143-.259A9.606 9.606 0 0 0 38 33.115z"/><path fill="#884D8A" d="M35.062 26.239C33.57 24.848 31.627 24 29.5 24c-2.865 0-5.399 1.533-6.939 3.869 1.39 1.762 3.452 2.884 5.76 2.884 2.091 0 3.985-.918 5.356-2.402.564-.611 1.021-1.332 1.385-2.112z"/><path fill="#C26FD2" d="M29.5 29.5c-3.309 0-6-3.141-6-7s2.691-7 6-7 6 3.141 6 7-2.691 7-6 7z"/><g><path fill="#D498DF" d="M29.5 16c3.033 0 5.5 2.916 5.5 6.5 0 1.764-.6 3.364-1.568 4.536l.665.767C35.272 26.446 36 24.571 36 22.5c0-4.142-2.91-7.5-6.5-7.5-1.795 0-3.42.839-4.596 2.197l.665.767C26.568 16.754 27.96 16 29.5 16z"/><path fill="#955CA1" d="M29.5 30c1.795 0 3.42-.839 4.596-2.197l-.665-.767C32.432 28.246 31.04 29 29.5 29c-3.033 0-5.5-2.916-5.5-6.5 0-1.764.6-3.364 1.568-4.536l-.665-.767C23.728 18.554 23 20.429 23 22.5c0 4.142 2.91 7.5 6.5 7.5z"/></g></svg>