<svg id="icon-color-large-institution-tools-illustration" xmlns="http://www.w3.org/2000/svg" viewBox="0 0 200 200"><circle fill="#E3F4FC" cx="100" cy="100" r="100"/><path fill="#3A76A8" d="M59 106.8V58c0-3.3 2.7-6 6-6h24.2c1.2 0 2.4.5 3.3 1.3l9.4 9.3c.3.3.7.4 1.1.4h41.1c3.3 0 6 2.7 6 6v37.7l-91.1.1z"/><path fill="#545C61" d="M59.7 82.1c-11.6 0-21 9.4-21 21s9.4 21 21 21 21-9.4 21-21-9.4-21-21-21zm0 24c-1.7 0-3-1.3-3-3s1.3-3 3-3 3 1.3 3 3-1.3 3-3 3z"/><path fill="#CCC" d="M59.7 69.1c-18.8 0-34 15.2-34 34s15.2 34 34 34 34-15.2 34-34-15.2-34-34-34zm18 16c4.4 0 8 3.6 8 8s-3.6 8-8 8-8-3.6-8-8 3.6-8 8-8zm-36 36c-4.4 0-8-3.6-8-8s3.6-8 8-8 8 3.6 8 8-3.6 8-8 8zm0-20c-4.4 0-8-3.6-8-8s3.6-8 8-8 8 3.6 8 8-3.6 8-8 8zm18 30c-4.4 0-8-3.6-8-8s3.6-8 8-8 8 3.6 8 8-3.6 8-8 8zm-4-28c0-2.2 1.8-4 4-4s4 1.8 4 4-1.8 4-4 4-4-1.8-4-4zm4-12c-4.4 0-8-3.6-8-8s3.6-8 8-8 8 3.6 8 8-3.6 8-8 8zm18 30c-4.4 0-8-3.6-8-8s3.6-8 8-8 8 3.6 8 8-3.6 8-8 8z"/><circle fill="none" stroke="#5D5D5D" stroke-width="2" stroke-miterlimit="10" cx="59.7" cy="103.1" r="4"/><circle fill="#545C61" cx="53.7" cy="93.1" r="1"/><circle fill="#545C61" cx="65.7" cy="93.1" r="1"/><circle fill="#545C61" cx="53.7" cy="113.1" r="1"/><circle fill="#545C61" cx="65.7" cy="113.1" r="1"/><circle fill="#545C61" cx="48.7" cy="103.1" r="1"/><circle fill="#545C61" cx="70.7" cy="103.1" r="1"/><path opacity=".2" d="M41.7 85.1c-2.7 0-5.1 1.4-6.6 3.4 1.3-.9 2.9-1.4 4.6-1.4 4.4 0 8 3.6 8 8 0 1.7-.5 3.3-1.4 4.6 2.1-1.4 3.4-3.8 3.4-6.6 0-4.4-3.6-8-8-8zM41.7 105.1c-2.7 0-5.1 1.4-6.6 3.4 1.3-.9 2.9-1.4 4.6-1.4 4.4 0 8 3.6 8 8 0 1.7-.5 3.3-1.4 4.6 2.1-1.4 3.4-3.8 3.4-6.6 0-4.4-3.6-8-8-8zM59.7 115.1c-2.7 0-5.1 1.4-6.6 3.4 1.3-.9 2.9-1.4 4.6-1.4 4.4 0 8 3.6 8 8 0 1.7-.5 3.3-1.4 4.6 2.1-1.4 3.4-3.8 3.4-6.6 0-4.4-3.6-8-8-8z"/><path fill="#FFFDE1" d="M146 86.1H63v-7.5c0-.9.7-1.7 1.7-1.7h79.7c.9 0 1.7.7 1.7 1.7v7.5z"/><g><path fill="#545C61" d="M142 86h-28V52c0-1.1.9-2 2-2h24c1.1 0 2 .9 2 2v34z"/><path fill="#3F4549" d="M114 52v34h28l-27.5-35.3c-.3.3-.5.8-.5 1.3z"/><path fill="#E3F4FC" d="M118 54h4v4h-4zM118 62h4v4h-4zM118 70h4v4h-4zM118 78h4v4h-4zM134 54h4v4h-4zM134 62h4v4h-4zM134 70h4v4h-4zM134 78h4v4h-4z"/></g><path opacity=".2" d="M59 82h91v4.1H59z"/><path fill="#1994FC" d="M144.6 148.9H64.5c-3.3 0-6-2.7-6-6l-6.4-52.1c0-2.7 2.1-4.8 4.8-4.8h95.3c2.6 0 4.7 2.1 4.7 4.8v.2l-6.3 52c0 3.2-2.7 5.9-6 5.9z"/><path fill="#30A8F9" d="M56.9 93.1h95.3c1.8 0 3.3 1 4.1 2.5l.7-4.6v-.2c0-2.6-2.1-4.8-4.7-4.8H56.9c-2.6 0-4.8 2.2-4.8 4.8l.6 4.8c.9-1.5 2.4-2.5 4.2-2.5z"/><g><path fill="#26D4FA" d="M118.5 99.7c-.1 0-.3 0-.4-.1-.9-.1-1.8.5-2 1.5l-11.9 44.4c-.3 1.1.3 2.2 1.4 2.4l46.4 12.4c1.1.3 2.2-.3 2.4-1.4l11.9-44.4c.2-.9-.2-1.9-1-2.3-.1 0-.2-.1-.4-.1l-46.4-12.4z"/><circle fill="#FFE000" cx="143.4" cy="134.3" r="5"/><path fill="#FBF96E" d="M144.2 131.4c1.6.4 2.5 2.1 2.1 3.7-.4 1.6-2.1 2.5-3.7 2.1-1.6-.4-2.5-2.1-2.1-3.7s2.1-2.5 3.7-2.1m.5-1.9c-2.7-.7-5.4.9-6.1 3.5-.7 2.7.9 5.4 3.5 6.1 2.7.7 5.4-.9 6.1-3.5.8-2.7-.8-5.4-3.5-6.1z"/><path fill="#303030" d="M138.6 148.5l-12.7-22-22.6 14.7-.5 1.9c-.6 2.1.7 4.3 2.8 4.9l46.4 12.4c2.1.6 4.3-.7 4.9-2.8l1-3.9-7.1-12.2-12.2 7z" opacity=".2"/><path fill="#39E079" d="M149.8 145.9l-12.2 7.1-12.7-22-20.1 13-.6 2.1c-.3 1.1.3 2.2 1.4 2.4l46.4 12.4c1.1.3 2.2-.3 2.4-1.4l1-3.9-5.6-9.7z"/><path fill="#C1C1C1" d="M102.3 145.4l-.5 1.9c-.6 2.1.7 4.3 2.8 4.9l46.4 12.4c2.1.6 4.3-.7 4.9-2.8l.5-1.9-1.9-.5-.5 1.9c-.3 1.1-1.4 1.7-2.4 1.4l-46.4-12.4c-1.1-.3-1.7-1.4-1.4-2.4l.5-1.9-2-.6z"/><path fill="#FFF" d="M164.9 112.5c1.1.3 1.7 1.4 1.4 2.4l-11.9 44.4c-.3 1.1-1.4 1.7-2.4 1.4l-46.4-12.4c-1.1-.3-1.7-1.4-1.4-2.4l11.9-44.4c.3-1.1 1.4-1.7 2.4-1.4l46.4 12.4m.5-1.9L119 98.2c-2.1-.6-4.3.7-4.9 2.8l-11.9 44.4c-.6 2.1.7 4.3 2.8 4.9l46.4 12.4c2.1.6 4.3-.7 4.9-2.8l11.9-44.4c.6-2.2-.6-4.4-2.8-4.9z"/><path fill="#26D4FA" d="M113.6 102.5l-5.1 19.3z"/><g><path fill="#7DF977" d="M149.8 145.3l-12.2 7.1-12.7-22-20.1 13-.6 2.1c-.1.2-.1.4-.1.6l20-13 11.7 20.2 1 1.7 1.7-1 10.5-6.1 5.7 9.8.7-2.7-5.6-9.7z"/></g></g><path fill="#C378D0" d="M80.2 39.3v17.2c0 .6-.7 1-1.2.7-.9-.5-1.9-.7-3-.7-3.3 0-5.9 2.3-5.9 5.2 0 2.9 2.7 5.2 5.9 5.2s5.8-2.2 5.9-5V39.3c0-.5-.4-.8-.8-.8-.5 0-.9.3-.9.8zM108.2 22.3v17.2c0 .6-.7 1-1.2.7-.9-.5-1.9-.7-3-.7-3.3 0-5.9 2.3-5.9 5.2s2.7 5.2 5.9 5.2 5.8-2.2 5.9-5V22.3c0-.5-.4-.8-.8-.8-.5 0-.9.4-.9.8z"/><path fill="#925A9C" d="M75.9 65c-2.9 0-5.3-1.8-5.8-4.2-.1.3-.1.7-.1 1 0 2.9 2.7 5.2 5.9 5.2s5.8-2.2 5.9-5v-2c-.1 2.8-2.7 5-5.9 5zM104 48c-2.9 0-5.3-1.8-5.8-4.2-.1.3-.1.7-.1 1 0 2.9 2.7 5.2 5.9 5.2s5.8-2.2 5.9-5v-2c-.1 2.8-2.7 5-5.9 5z"/></svg>