<svg id="icon-color-large-internship-c" xmlns="http://www.w3.org/2000/svg" viewBox="0 0 38 38"><path fill="#E2E2E2" d="M6 17v19c0 1.1.9 2 2 2h22c1.1 0 2-.9 2-2V17H6z"/><path fill="#FFF" d="M6 17v17c0 1.1.9 2 2 2h22c1.1 0 2-.9 2-2V17H6z"/><path fill="#A8C1D1" d="M19 28c-2.205 0-4-1.795-4-4s1.795-3.962 4-4c2.164-.038 3.954 1.753 4 4 .045 2.205-1.795 4-4 4z" opacity=".5"/><path fill="#A8C1D1" d="M19 26.286c-.945 0-1.714-1.912-1.714-2.857 0-.945.769-1.714 1.714-1.714s1.714.769 1.714 1.714-.769 2.857-1.714 2.857z"/><path fill="#A8C1D1" d="M19 28a3.98 3.98 0 0 0 2.892-1.252A3.42 3.42 0 0 0 19 25.143a3.42 3.42 0 0 0-2.892 1.605A3.98 3.98 0 0 0 19 28z"/><path fill="#FA9126" d="M29.926 7H8.074C6.934 7 6 7.9 6 9v9h26V9c0-1.1-.933-2-2.074-2zm-7.406 8h-7.04a1.98 1.98 0 0 1-1.98-1.98v-.04A1.98 1.98 0 0 1 15.48 11h7.04a1.98 1.98 0 0 1 1.98 1.98v.04A1.98 1.98 0 0 1 22.52 15z"/><path fill="none" stroke="#CDCDCD" stroke-linecap="round" stroke-miterlimit="10" d="M12.5 30.5h13"/><path fill="#FBA751" d="M13.5 12.987v-.007A1.98 1.98 0 0 1 15.48 11h7.04a1.98 1.98 0 0 1 1.98 1.98v.007h.997C25.479 11.32 24.152 10 22.52 10h-7.04a2.984 2.984 0 0 0-2.98 2.98l.001.007h.999z"/><path fill="#BB6D1C" d="M24.497 13.008v.007a1.98 1.98 0 0 1-1.98 1.98h-7.04a1.98 1.98 0 0 1-1.98-1.98v-.007H12.5c.018 1.667 1.345 2.987 2.977 2.987h7.04a2.984 2.984 0 0 0 2.98-2.98l-.001-.007h-.999z"/><path fill="none" stroke="#CDCDCD" stroke-linecap="round" stroke-miterlimit="10" d="M14.5 32.5h9"/><path fill="#E2E2E2" d="M20.514 0h-3.028C16.667 0 16 .664 16 1.479v10.047c0 .262.213.474.477.474h5.047a.475.475 0 0 0 .476-.474V1.479C22 .664 21.333 0 20.514 0zM19 5.5c-.827 0-1.5-.673-1.5-1.5s.673-1.5 1.5-1.5 1.5.673 1.5 1.5-.673 1.5-1.5 1.5z"/><path fill="#AAA" d="M21.523 11h-5.047a.475.475 0 0 1-.476-.474v1c0 .262.213.474.477.474h5.047a.475.475 0 0 0 .476-.474v-1a.475.475 0 0 1-.477.474z"/><path opacity=".3" fill="none" stroke="#AAA" stroke-miterlimit="10" d="M19 2.5c-.827 0-1.5.673-1.5 1.5s.673 1.5 1.5 1.5 1.5-.673 1.5-1.5-.673-1.5-1.5-1.5"/></svg>