<svg id="icon-color-large-internship-a" xmlns="http://www.w3.org/2000/svg" viewBox="0 0 38 38"><path fill="#FFF" d="M30 7H8c-1.1 0-2 .9-2 2v27c0 1.1.9 2 2 2h22c1.1 0 2-.9 2-2V9c0-1.1-.9-2-2-2zm-5.5 5.5c0 1.1-.9 2-2 2h-7c-1.1 0-2-.9-2-2s.9-2 2-2h7c1.1 0 2 .9 2 2z"/><path fill="#FBE9E8" d="M30 7H8.1C7 7 6 7.9 6 9v8h26V9c.1-1.1-.8-2-2-2zm-5.4 5.5c0 1.1-.9 2-2 2h-7c-1.1 0-2-.9-2-2s.9-2 2-2h7c1.1 0 2 .9 2 2z"/><path fill="#FF3B30" d="M7 17h24v1H7z"/><path fill="#FF3B30" d="M30 8c.6 0 1 .4 1 1v27c0 .6-.4 1-1 1H8c-.6 0-1-.4-1-1V9c0-.6.4-1 1-1h22m0-1H8c-1.1 0-2 .9-2 2v27c0 1.1.9 2 2 2h22c1.1 0 2-.9 2-2V9c0-1.1-.9-2-2-2z"/><path fill="#FFF" d="M19 28.5c-1.9 0-3.5-1.6-3.5-3.5s1.6-3.5 3.5-3.5 3.5 1.6 3.5 3.5-1.6 3.5-3.5 3.5z"/><path fill="#FF3B30" d="M19 22c1.7 0 3 1.3 3 3s-1.3 3-3 3-3-1.3-3-3 1.3-3 3-3m0-1c-2.2 0-4 1.8-4 4s1.8 4 4 4 4-1.8 4-4-1.8-4-4-4z"/><path fill="none" stroke="#FF3B30" stroke-linecap="round" stroke-linejoin="round" stroke-miterlimit="10" d="M12.5 31.5h13M14.5 33.5h9M22.5 14.5h-7c-1.1 0-2-.9-2-2s.9-2 2-2h7c1.1 0 2 .9 2 2s-.9 2-2 2z"/><path fill="#FFF" stroke="#FF3B30" stroke-linejoin="round" stroke-miterlimit="10" d="M20.5.5h-3c-.6 0-1 .4-1 1v10h5v-10c0-.6-.4-1-1-1z"/><circle fill="none" stroke="#FBE9E8" stroke-linejoin="round" stroke-miterlimit="10" cx="19" cy="4" r="1"/></svg>