<svg id="icon-color-large-jobs" xmlns="http://www.w3.org/2000/svg" viewBox="0 0 38 38"><path fill="#FFF" d="M14 12.5c-.8 0-1.5-.7-1.5-1.5V6c0-.8.7-1.5 1.5-1.5h10c.8 0 1.5.7 1.5 1.5v5c0 .8-.7 1.5-1.5 1.5H14z"/><path fill="#777677" d="M24 5c.6 0 1 .4 1 1v5c0 .6-.4 1-1 1H14c-.6 0-1-.4-1-1V6c0-.6.4-1 1-1h10m0-1H14c-1.1 0-2 .9-2 2v5c0 1.1.9 2 2 2h10c1.1 0 2-.9 2-2V6c0-1.1-.9-2-2-2z"/><path fill="#FFF" d="M2 33.5c-.8 0-1.5-.7-1.5-1.5V11c0-.8.7-1.5 1.5-1.5h34c.8 0 1.5.7 1.5 1.5v21c0 .8-.7 1.5-1.5 1.5H2z"/><path fill="#777677" d="M36 10c.6 0 1 .4 1 1v21c0 .6-.4 1-1 1H2c-.6 0-1-.4-1-1V11c0-.6.4-1 1-1h34m0-1H2c-1.1 0-2 .9-2 2v21c0 1.1.9 2 2 2h34c1.1 0 2-.9 2-2V11c0-1.1-.9-2-2-2z"/><path fill="none" stroke="#767676" stroke-linecap="round" stroke-linejoin="round" stroke-miterlimit="10" d="M1 17.5L19 22l18-4.5"/><path fill="#FFF9CC" d="M7.5 9.5h4v24h-4z"/><path fill="#767676" d="M11 10v23H8V10h3m1-1H7v25h5V9z"/><g><path fill="#FFF9CC" d="M26.5 9.5h4v24h-4z"/><path fill="#767676" d="M30 10v23h-3V10h3m1-1h-5v25h5V9z"/></g><circle fill="#FFF9CC" stroke="#767676" stroke-width=".875" stroke-linejoin="round" stroke-miterlimit="10" cx="19" cy="22" r="1.8"/></svg>