<svg id="icon-color-large-journal-c" xmlns="http://www.w3.org/2000/svg" viewBox="0 0 38 38"><path fill="none" stroke="#C26FD2" stroke-linecap="round" stroke-miterlimit="10" d="M4.5 31.5h1.917M4.5 27.5h1.917M4.5 23.5h1.917M4.5 15.5h1.917M4.5 19.5h1.917M4.5 11.5h1.917"/><path fill="#C26FD2" d="M33 36a2 2 0 0 1-2 2H7a2 2 0 0 1-2-2V3.5a2 2 0 0 1 2-2h24a2 2 0 0 1 2 2V36z"/><path fill="#955CA1" d="M29 3h2a2 2 0 0 1 2 2v31a2 2 0 0 1-2 2h-2"/><path fill="#955CA1" d="M33 7H8.5A3.51 3.51 0 0 1 5 3.5 3.51 3.51 0 0 1 8.5 0H33v7z"/><path fill="#DFF1FF" d="M5.164 4.5C5.599 5.938 6.925 7 8.5 7H33V2H8.5C6.925 2 5.599 3.062 5.164 4.5z"/><path fill="#D498DF" d="M32 1v5H8.5C7.122 6 6 4.878 6 3.5S7.122 1 8.5 1H32m1-1H8.5C6.575 0 5 1.575 5 3.5S6.575 7 8.5 7H33V0z"/><path fill="#DFF1FF" d="M32 2h1v4h-1z"/><path fill="#955CA1" d="M31 1h2v1h-2zM5 19h2v1H5zM4.984 15H7v1H4.984zM5 11h2v1H5zM5 31h2v1H5zM5 23h2v1H5zM5 27h2v1H5z"/><path fill="none" stroke="#C4DAE8" stroke-linecap="round" stroke-miterlimit="10" d="M9.5 2.5h23M9.5 4.5h23"/><path fill="#7B5080" d="M28 0h1v38h-1z"/><path opacity=".1" d="M27 0h1v38h-1z"/></svg>