<svg id="icon-color-large-journal-a" xmlns="http://www.w3.org/2000/svg" viewBox="0 0 38 38"><path fill="#FFF" d="M33 4v32c0 1.1-.9 2-2 2H7c-1.1 0-2-.9-2-2V4h28z"/><path fill="#FBE9E8" d="M29 4v34h2c1.1 0 2-.9 2-2V4h-4z"/><path fill="#FF3B30" d="M32 4.5V36c0 .6-.4 1-1 1H7c-.6 0-1-.4-1-1V4.5h26m1-1H5V36c0 1.1.9 2 2 2h24c1.1 0 2-.9 2-2V3.5z"/><path fill="#FFF" stroke="#FF3B30" stroke-linecap="round" stroke-miterlimit="10" d="M32.5 6.5h-24c-1.6 0-3-1.3-3-3v-.1c0-1.6 1.3-3 3-3h24"/><path fill="#FFF" d="M32 1h1v5h-1z"/><path fill="#FF3B30" d="M28 0h1v37h-1z"/><path fill="none" stroke="#FF3B30" stroke-linecap="round" stroke-miterlimit="10" d="M9.5 2.5h17M9.5 4.5h17M30.5 2.5h2M30.5 4.5h2M4.5 11.5h2M4.5 15.5h2M4.5 19.5h2M4.5 23.5h2M4.5 27.5h2M4.5 31.5h2"/><path fill="#FF3A30" d="M5 19h2v1H5zM5 15h2v1H5zM5 11h2v1H5zM5 31h2v1H5zM5 23h2v1H5zM5 27h2v1H5z"/></svg>