<svg id="icon-color-large-kudos" xmlns="http://www.w3.org/2000/svg" viewBox="0 0 38 38"><path fill="#FFF" d="M10.813 12.5a.495.495 0 0 1-.485-.388L7.511 1.101a.493.493 0 0 1 .098-.413A.493.493 0 0 1 7.998.5h22.004c.152 0 .294.068.389.188.096.12.13.275.096.425l-2.812 10.988a.5.5 0 0 1-.488.399H10.813z"/><path fill="#767676" d="M29.999 1l-2.813 11-16.376-.023L7.998 1h22.001m.003-1H7.998a1 1 0 0 0-.972 1.225l2.815 11a.998.998 0 0 0 .972.775h16.373a.997.997 0 0 0 .972-.775l2.815-11A.999.999 0 0 0 30.002 0z"/><path fill="#F3E2F7" d="M15.429 12.5L13.583.5h10.834l-1.846 12z"/><path fill="#767676" d="M23.834 1l-1.692 11h-6.284L14.166 1h9.668M25 0H13l2 13h8l2-13z"/><path fill="#FFF" d="M9 14.5a.5.5 0 0 1-.5-.5v-3a.5.5 0 0 1 .5-.5h20a.5.5 0 0 1 .5.5v3a.5.5 0 0 1-.5.5H9z"/><path fill="#767676" d="M29 11v3H9v-3h20m0-1H9c-.55 0-1 .45-1 1v3c0 .55.45 1 1 1h20c.55 0 1-.45 1-1v-3c0-.55-.45-1-1-1z"/><g><path fill="#FFF" d="M19 37.5c-5.79 0-10.5-4.71-10.5-10.5S13.21 16.5 19 16.5 29.5 21.21 29.5 27 24.79 37.5 19 37.5z"/><path fill="#767676" d="M19 17c5.523 0 10 4.477 10 10s-4.477 10-10 10S9 32.523 9 27s4.477-10 10-10m0-1c-6.065 0-11 4.935-11 11s4.935 11 11 11 11-4.935 11-11-4.935-11-11-11z"/></g><g><circle fill="#FFF" cx="19" cy="15" r="1.5"/><path fill="#767676" d="M19 14a1 1 0 1 1 0 2 1 1 0 0 1 0-2m0-1c-1.103 0-2 .897-2 2s.897 2 2 2 2-.897 2-2-.897-2-2-2z"/></g><path fill="#FFF9CC" stroke="#767676" stroke-linejoin="round" stroke-miterlimit="10" d="M19 19.5l2.163 4.609 4.837.739-3.5 3.587.826 5.065L19 31.109 14.674 33.5l.826-5.065-3.5-3.587 4.837-.739z"/></svg>