<svg id="icon-color-large-labs" xmlns="http://www.w3.org/2000/svg" viewBox="0 0 38 38"><path fill="#DEF1FF" d="M25.5 11.4l-2.2 2.2c2.4 1.4 4.1 4 4.1 7 0 4.4-3.6 8-8 8-2.7 0-5.1-1.4-6.5-3.4H9.5c1.7 3.8 5.6 6.4 10 6.4 6.1 0 11-4.9 11-11-.1-3.9-2-7.3-5-9.2z"/><path fill="#FFF" stroke="#767676" stroke-width=".9289907100000001" stroke-linecap="round" stroke-linejoin="round" stroke-miterlimit="10" d="M14.725 13.751L27.241 1.236l4.172 4.171-12.516 12.516z"/><path fill="#FFF" stroke="#767676" stroke-width=".9289907100000001" stroke-linecap="round" stroke-linejoin="round" stroke-miterlimit="10" d="M28.157 2.173L29.854.476l2.475 2.475-1.697 1.697zM13.11 17.136l2.475-2.475 2.475 2.475-2.475 2.475z"/><path fill="none" stroke="#767676" stroke-width=".929" stroke-linecap="round" stroke-linejoin="round" stroke-miterlimit="10" d="M27.8 27.8c-2 2.3-5 3.8-8.3 3.8-4.5 0-8.3-2.7-10-6.5M25.5 11.4c3 2 5 5.4 5 9.2v1"/><path fill="none" stroke="#767676" stroke-width=".929" stroke-linecap="round" stroke-linejoin="round" stroke-miterlimit="10" d="M23.3 13.6c2.5 1.4 4.2 4 4.2 7 0 4.4-3.6 8-8 8-2.7 0-5.2-1.4-6.6-3.5"/><path fill="#FFF" stroke="#767676" stroke-width=".929" stroke-linecap="round" stroke-linejoin="round" stroke-miterlimit="10" d="M34.5 37.6h-30v-.1c0-3.3 2.7-5.9 5.9-5.9h18.1c3.3 0 6 2.7 6 6z"/><circle fill="#FFF" stroke="#767676" stroke-miterlimit="10" cx="30.1" cy="25.1" r="3.5"/><path fill="none" stroke="#767676" stroke-width=".929" stroke-linecap="round" stroke-linejoin="round" stroke-miterlimit="10" d="M4 25.1h15"/></svg>