<svg id="icon-color-large-labs-c" xmlns="http://www.w3.org/2000/svg" viewBox="0 0 38 38"><path fill="#008EFF" d="M26.022 20.501c0 .219-.014.434-.033.648.851-.685 1.918-1.113 3.094-1.113.296 0 .583.037.865.087a11.451 11.451 0 0 0-5.106-9.179l-2.884 2.884c2.411 1.255 4.064 3.773 4.064 6.673z"/><path fill="#008EFF" d="M29.083 21.036a3.96 3.96 0 1 0-2.187 7.265 11.412 11.412 0 0 0 3.044-7.167 3.97 3.97 0 0 0-.857-.098z"/><path fill="#166CAA" d="M33.5 37.964h-30a.464.464 0 0 1-.464-.464c0-3.591 2.873-6.464 6.404-6.464h18.12a6.411 6.411 0 0 1 6.404 6.404c0 .256-.208.524-.464.524z"/><path fill="#095E92" d="M33.5 36.964h-30a.46.46 0 0 1-.411-.259 6.511 6.511 0 0 0-.053.795c0 .256.208.464.464.464h30c.256 0 .464-.268.464-.524 0-.265-.021-.525-.053-.782-.076.169-.229.306-.411.306zM18.499 32.974c2.362 0 4.556-.715 6.38-1.938H12.137a11.372 11.372 0 0 0 6.362 1.938z"/><path fill="#008EFF" d="M24.162 25.437a7.503 7.503 0 0 1-5.664 2.587 7.499 7.499 0 0 1-5.639-2.56H8.167c1.852 3.848 5.776 6.51 10.332 6.51 2.958 0 5.645-1.129 7.679-2.967a4.94 4.94 0 0 1-2.016-3.57z"/><g fill="#0481FF"><path d="M24.164 25.454a7.513 7.513 0 0 1-5.664 2.581 7.535 7.535 0 0 1-6.229-3.294.465.465 0 0 0-.768.524 8.468 8.468 0 0 0 6.997 3.7 8.427 8.427 0 0 0 5.894-2.402 4.966 4.966 0 0 1-.23-1.109zM22.089 13.873a7.534 7.534 0 0 1 3.947 6.627c0 .215-.015.426-.032.637.296-.237.614-.443.96-.608l.001-.029a8.464 8.464 0 0 0-4.432-7.444.464.464 0 1 0-.444.817z"/></g><path fill="#0481FF" d="M25.072 11.119l-2.863 2.863a7.532 7.532 0 0 1 1.663 1.289l2.796-2.796a11.418 11.418 0 0 0-1.596-1.356z"/><g><path fill="#166CAA" d="M29.599 4.986a.46.46 0 0 1-.328-.136l-2.496-2.496a.462.462 0 0 1 0-.656L28.439.033a.477.477 0 0 1 .657 0l2.497 2.497a.464.464 0 0 1 0 .657l-1.665 1.664a.466.466 0 0 1-.329.135z"/><path fill="#80C6FF" d="M14.621 19.964a.46.46 0 0 1-.328-.136l-2.496-2.496a.462.462 0 0 1 0-.656l2.496-2.497a.477.477 0 0 1 .657 0l2.497 2.497a.464.464 0 0 1 0 .657l-2.497 2.496a.466.466 0 0 1-.329.135z"/><path fill="#008EFF" d="M17.95 18.3a.464.464 0 0 1-.328-.136l-4.161-4.161a.464.464 0 0 1 0-.657L25.943.865a.464.464 0 0 1 .656 0l4.16 4.16a.462.462 0 0 1 0 .656L18.278 18.164a.464.464 0 0 1-.328.136z"/><path fill="#25A3F9" d="M24.812 1.995l1.13-1.13a.464.464 0 0 1 .656 0l4.16 4.16a.462.462 0 0 1 0 .656l-1.13 1.13"/><path fill="#008EFF" d="M29.083 28.964c-2.186 0-3.964-1.778-3.964-3.964s1.778-3.964 3.964-3.964 3.964 1.778 3.964 3.964-1.778 3.964-3.964 3.964z"/><path fill="#0481FF" d="M24.162 25.437a7.568 7.568 0 0 1-1.621 1.39 6.804 6.804 0 0 0 2.124 3.33 11.539 11.539 0 0 0 1.512-1.15 4.942 4.942 0 0 1-2.015-3.57z"/><path fill="#80C6FF" d="M29.083 27c-1.103 0-2-.897-2-2s.897-2 2-2 2 .897 2 2-.898 2-2 2z"/><path fill="#008EFF" d="M18 25.464H3a.464.464 0 0 1 0-.928h15a.464.464 0 0 1 0 .928z"/></g><path fill="#25A3F9" d="M13.943 14.509l3.174 3.174-.766.766-3.174-3.174z"/><path fill="#0481FF" d="M12.86 25.464H8.167a11.53 11.53 0 0 0 5.01 5.192l3.005-3.005a7.541 7.541 0 0 1-3.322-2.187z"/></svg>