<svg id="icon-color-large-labs-a" xmlns="http://www.w3.org/2000/svg" viewBox="0 0 38 38"><path fill="#FBE9E8" d="M24.507 11.278l-2.174 2.174c2.433 1.373 4.084 3.977 4.084 6.964 0 4.411-3.589 8-8 8a7.99 7.99 0 0 1-6.547-3.417H8.426c1.739 3.784 5.553 6.417 9.99 6.417 6.075 0 11-4.925 11-11 .001-3.818-1.953-7.169-4.909-9.138z"/><path fill="#FFF" stroke="#FF3B30" stroke-linejoin="round" stroke-miterlimit="10" d="M26.27 1.193l4.161 4.161-12.482 12.482-4.16-4.16z" stroke-width=".99999"/><path fill="#FFF" stroke="#FF3B30" stroke-linejoin="round" stroke-miterlimit="10" d="M28.767.361l2.496 2.496-1.664 1.665-2.497-2.496zM14.62 14.507l2.497 2.496L14.62 19.5l-2.496-2.497z" stroke-width=".99999"/><path fill="none" stroke="#FF3B30" stroke-linejoin="round" stroke-miterlimit="10" d="M26.832 27.682A10.975 10.975 0 0 1 18.5 31.5c-4.47 0-8.318-2.667-10.039-6.496M24.505 11.282a10.99 10.99 0 0 1 4.949 10.236M22.311 13.464a8 8 0 1 1-10.424 11.539"/><path fill="#FFF" stroke="#FF3B30" stroke-linejoin="round" stroke-miterlimit="10" d="M33.5 37.5h-30v-.06a5.94 5.94 0 0 1 5.94-5.94h18.12a5.94 5.94 0 0 1 5.94 5.94v.06z"/><circle fill="#FFF" stroke="#FF3B30" stroke-linejoin="round" stroke-miterlimit="10" cx="29.082" cy="25" r="3.5"/><path fill="none" stroke="#FF3B30" stroke-linecap="round" stroke-linejoin="round" stroke-miterlimit="10" d="M3 25h15"/></svg>