<svg id="icon-color-large-lti-a" xmlns="http://www.w3.org/2000/svg" viewBox="0 0 38 38"><path fill="none" d="M222 122h38v11.875h-38zM512.289 122h38v11.875h-38zM280.058 180h38v11.875h-38zM338.116 180h38v11.875h-38zM570.347 180h38v11.875h-38zM686.463 180h38v11.875h-38zM-161.479 64h38v11.875h-38zM-161.479 122h38v11.875h-38zM-103.421 122h38v11.875h-38z"/><path fill="#166CAA" d="M-689-139v-7c0-1.1.9-2 2-2h7.649c.227 0 .448.077.626.219l4.451 3.561c.178.142.399.22.627.22H-661c1.1 0 2 .9 2 2v3h-30z"/><path fill="#008EFF" d="M-659-140v18c0 1.1-.9 2-2 2h-26c-1.1 0-2-.9-2-2v-18h30z"/><path fill="#095E92" d="M-689-141h30v1h-30z"/><path fill="#FFF" d="M7 38c-.827 0-2-1.173-2-2V2c0-.827 1.173-1 2-1h15.609l1.905 7.371c.045.179-.065.194.114.239L32 10.391V36c0 .827-.173 2-1 2H7z"/><path fill="#FF3B30" d="M22.219 1l1.811 7.243c.09.358.369.638.728.728L32 10.781V36c0 .551-.449 1-1 1H7c-.551 0-1-.449-1-1V2c0-.551.449-1 1-1h15m1-1H7C5.9 0 5 .9 5 2v34c0 1.1.9 2 2 2h24c1.1 0 2-.9 2-2V10l-8-2-2-8z"/><path fill="#FBE9E8" d="M23.996 11C23.171 11 22 9.827 22 9V1h1c.132 0 .26-.197.354-.104l8.75 8.877c.092.093-.104.096-.104.227v1h-8.004z"/><path fill="#FF3B30" d="M23 1l9 9h-8.004A1 1 0 0 1 23 9V1m0-1h-1v9c0 1.1.898 2 1.996 2H33v-1a.995.995 0 0 0-.293-.706l-9-9.003A1.006 1.006 0 0 0 23 0z"/><path fill="#FBE9E8" stroke="#FF3B30" stroke-linejoin="round" stroke-miterlimit="10" d="M16 12.5l2.5 4 2.5 4H11l2.5-4z"/><path fill="#FBE9E8" stroke="#FF3B30" stroke-linejoin="round" stroke-miterlimit="10" d="M26.5 24.5h-7a1 1 0 0 1-1-1v-7a1 1 0 0 1 1-1h7a1 1 0 0 1 1 1v7a1 1 0 0 1-1 1z"/><circle fill="#FBE9E8" stroke="#FF3B30" stroke-linejoin="round" stroke-miterlimit="10" cx="20" cy="26" r="4.5"/></svg>