<svg id="icon-color-large-lti" xmlns="http://www.w3.org/2000/svg" viewBox="0 0 38 38"><path fill="#FFF" d="M7 38c-.827 0-2-1.173-2-2V2c0-.827 1.173-1 2-1h15.609l1.729 7.662L32 10.391V36c0 .827-.173 2-1 2H7z"/><path fill="#767676" d="M22.219 1l1.811 7.243.146.582.582.146L32 10.781V36c0 .551-.449 1-1 1H7c-.551 0-1-.449-1-1V2c0-.551.449-1 1-1h15m1-1H7C5.9 0 5 .9 5 2v34c0 1.1.9 2 2 2h24c1.1 0 2-.9 2-2V10l-8-2-2-8z"/><path fill="#E0E0E0" d="M23.996 11C23.171 11 22 9.827 22 9V1h1c.132 0 .26-.197.354-.104l8.75 8.877c.092.093-.104.096-.104.227v1h-8.004z"/><path fill="#767676" d="M23 1l9 9h-8.004A1 1 0 0 1 23 9V1m0-1h-1v9c0 1.1.898 2 1.996 2H33v-1a.995.995 0 0 0-.293-.706l-9-9.003A1.006 1.006 0 0 0 23 0z"/><path fill="#FFF6CB" stroke="#666" stroke-width=".981" stroke-linejoin="round" stroke-miterlimit="10" d="M16 12.5l2.5 4 2.5 4H11l2.5-4z"/><path fill="#D5F6E2" stroke="#666" stroke-miterlimit="10" d="M26.5 24.5h-7a1 1 0 0 1-1-1v-7a1 1 0 0 1 1-1h7a1 1 0 0 1 1 1v7a1 1 0 0 1-1 1z"/><circle fill="#CFE1FA" stroke="#666" stroke-miterlimit="10" cx="20" cy="26" r="4.5"/></svg>