<svg id="icon-color-large-message-a" xmlns="http://www.w3.org/2000/svg" viewBox="0 0 38 38"><path fill="#FFF" d="M6 29.5c-.827 0-1.5-.673-1.5-1.5V10c0-.827.673-1.5 1.5-1.5h26c.827 0 1.5.673 1.5 1.5v18c0 .827-.673 1.5-1.5 1.5H6z"/><path fill="#FF3B30" d="M32 9c.551 0 1 .449 1 1v18c0 .551-.449 1-1 1H6c-.551 0-1-.449-1-1V10c0-.551.449-1 1-1h26m0-1H6c-1.1 0-2 .9-2 2v18c0 1.1.9 2 2 2h26c1.1 0 2-.9 2-2V10c0-1.1-.9-2-2-2z"/><path fill="#FFF" stroke="#FF3B30" stroke-linecap="round" stroke-linejoin="round" stroke-miterlimit="10" d="M5 9l14 11L33 9"/><path fill="#FFF" stroke="#FF3B30" stroke-linecap="round" stroke-miterlimit="10" d="M16 18L5 29M33 29L22 18"/></svg>