<svg id="icon-color-large-message-c" xmlns="http://www.w3.org/2000/svg" viewBox="0 0 38 38"><path fill="#EFE9CE" d="M32 30H6c-1.1 0-2-.9-2-2V10c0-1.1.9-2 2-2h26c1.1 0 2 .9 2 2v18c0 1.1-.9 2-2 2z"/><path fill="#FFF9EA" d="M32 28H6c-1.1 0-2-.9-2-2V10c0-1.1.9-2 2-2h26c1.1 0 2 .9 2 2v16c0 1.1-.9 2-2 2z"/><path fill="#E2DBB2" d="M33.063 8.314L19 19.364 4.937 8.314c-.287.182-.52.436-.684.735l11.195 8.796L4.284 29.009c.173.292.415.534.707.707L16.24 18.467l2.451 1.926a.502.502 0 0 0 .618 0l2.451-1.926 11.249 11.249c.292-.173.534-.415.707-.707L22.552 17.845l11.195-8.796a2.011 2.011 0 0 0-.684-.735z"/></svg>