<svg id="icon-color-large-multiple-choice" xmlns="http://www.w3.org/2000/svg" viewBox="0 0 38 38"><path fill="#FFF" stroke="#767676" stroke-width="1.036" stroke-miterlimit="10" d="M31.5 33.5h-25c-1.1 0-2-.9-2-2v-25c0-1.1.9-2 2-2h25c1.1 0 2 .9 2 2v25c0 1.1-.9 2-2 2z"/><path fill="none" stroke="#CDCDCD" stroke-linecap="round" stroke-miterlimit="10" d="M16.5 10.5h11M16.5 12.5h7M16.5 17.5h11M16.5 19.5h7"/><path fill="#FFF" stroke="#767676" stroke-linejoin="round" stroke-miterlimit="10" d="M10.5 10.5h3v3h-3zM10.5 17.5h3v3h-3z"/><path fill="#E0E0E0" stroke="#767676" stroke-linejoin="round" stroke-miterlimit="10" d="M10.5 24.5h3v3h-3z"/><path fill="none" stroke="#CDCDCD" stroke-linecap="round" stroke-miterlimit="10" d="M16.5 24.5h11M16.5 26.5h7"/></svg>