<svg id="icon-color-large-neutral-a" xmlns="http://www.w3.org/2000/svg" viewBox="0 0 38 38"><path fill="none" d="M222 122h38v11.875h-38zM512.289 122h38v11.875h-38zM280.058 180h38v11.875h-38zM338.116 180h38v11.875h-38zM570.347 180h38v11.875h-38zM686.463 180h38v11.875h-38zM-161.479 64h38v11.875h-38zM-161.479 122h38v11.875h-38zM-103.421 122h38v11.875h-38z"/><path fill="#166CAA" d="M-689-139v-7c0-1.1.9-2 2-2h7.649c.227 0 .448.077.626.219l4.451 3.561c.178.142.399.22.627.22H-661c1.1 0 2 .9 2 2v3h-30z"/><path fill="#008EFF" d="M-659-140v18c0 1.1-.9 2-2 2h-26c-1.1 0-2-.9-2-2v-18h30z"/><path fill="#095E92" d="M-689-141h30v1h-30z"/><circle fill="#FFF" stroke="#FF3B30" stroke-linecap="round" stroke-linejoin="round" stroke-miterlimit="10" cx="19" cy="19" r="18.5"/><path fill="none" stroke="#FF3B30" stroke-linecap="round" stroke-linejoin="round" stroke-miterlimit="10" d="M11.512 26.962h15.051"/><path fill="#FF3B30" d="M28.541 13.89c0-.786-.222-1.459-.666-2.017s-.983-.837-1.617-.837c-.622 0-1.154.279-1.598.837-.457.558-.685 1.23-.685 2.017 0 .799.228 1.471.685 2.017.444.558.977.837 1.598.837.634 0 1.173-.279 1.617-.837.444-.545.666-1.218.666-2.017zM14.08 13.89c0-.786-.222-1.459-.666-2.017-.444-.558-.983-.837-1.617-.837-.622 0-1.154.279-1.598.837-.457.558-.685 1.23-.685 2.017 0 .799.228 1.471.685 2.017.444.558.977.837 1.598.837.634 0 1.173-.279 1.617-.837.444-.545.666-1.218.666-2.017z"/><path fill="none" stroke="#FF3B30" stroke-linecap="round" stroke-linejoin="round" stroke-miterlimit="10" d="M23.556 9.704h5.233M9.152 9.704h5.233"/></svg>