<svg id="icon-color-medium-onedrive" xmlns="http://www.w3.org/2000/svg" viewBox="0 0 24 24"><path fill="#094ab1" d="M0 0h24v24H0z"/><path d="M19.747 13.686c0-.01.003-.019.003-.03a2.875 2.875 0 0 0-2.875-2.875 2.84 2.84 0 0 0-1.326.338 3.401 3.401 0 0 0-2.658-1.292 3.41 3.41 0 0 0-3.378 2.984H9.5a2.53 2.53 0 1 0 0 5.062h9.954a2.103 2.103 0 1 0 .293-4.187z" fill="#fff"/><path d="M5.969 15.344a3.535 3.535 0 0 1 2.725-3.436 4.422 4.422 0 0 1 4.197-3.079 4.37 4.37 0 0 1 2.912 1.112c.351-.105.71-.158 1.073-.158.045 0 .087.01.131.012-.13-2.01-1.851-3.605-3.975-3.605-1.551 0-2.88.857-3.544 2.096a3.185 3.185 0 0 0-1.659-.474c-1.769 0-3.204 1.424-3.204 3.18 0 .217.023.429.064.635a2.57 2.57 0 0 0-2.252 2.545 2.578 2.578 0 0 0 2.578 2.578h1.249a3.512 3.512 0 0 1-.295-1.406z" fill="#fff"/></svg>