<svg id="icon-color-large-overall-grade" xmlns="http://www.w3.org/2000/svg" viewBox="0 0 38 38"><path fill="#FFF" d="M8 37.45c-1.93 0-3.5-1.57-3.5-3.5v-30h29v30c0 1.93-1.57 3.5-3.5 3.5H8z"/><path fill="#767676" d="M33 4.45v29.5c0 1.654-1.346 3-3 3H8c-1.654 0-3-1.346-3-3V4.45h28m1-1H4v30.5c0 2.2 1.8 4 4 4h22c2.2 0 4-1.8 4-4V3.45z"/><path fill="#FFF" d="M33 .95h1v5h-1z"/><path fill="#767676" d="M8 6.95h1v30H8z"/><path fill="#F3E2F7" d="M28.8 32.45a.704.704 0 0 1-.373-.108L21 28.305l-7.455 4.054a.7.7 0 0 1-1.045-.608V6.45h17v25.3a.7.7 0 0 1-.7.7z"/><path fill="#767676" d="M29 6.95v24.8a.2.2 0 0 1-.306.169L21 27.736l-7.694 4.184a.2.2 0 0 1-.306-.169V6.95h16m1-1H12v25.8a1.202 1.202 0 0 0 1.799 1.039L21 28.874l7.201 3.916A1.198 1.198 0 0 0 30 31.751V5.95z"/><path fill="#FFF" stroke="#767676" stroke-linejoin="round" stroke-miterlimit="10" d="M21.006 13.95l1.547 3.135 3.46.502-2.504 2.44.591 3.446-3.094-1.627-3.094 1.627.591-3.446L16 17.587l3.459-.502z"/><path fill="#FFF" stroke="#767676" stroke-linecap="round" stroke-miterlimit="10" d="M33.5 6.45H7.47A2.97 2.97 0 0 1 4.5 3.48v-.06A2.97 2.97 0 0 1 7.47.45H33.5"/><path fill="none" stroke="#767676" stroke-linecap="round" stroke-miterlimit="10" d="M8.5 2.45h25M8.5 4.45h25"/></svg>