<svg id="icon-color-large-participants-c" xmlns="http://www.w3.org/2000/svg" viewBox="0 0 38 38"><path fill="#39DF79" d="M29.5 12.5c-4.418 0-8 3.857-8 8.615 0 1.603.414 3.099 1.122 4.385h13.755a9.07 9.07 0 0 0 1.122-4.385C37.5 16.357 33.918 12.5 29.5 12.5z"/><path fill="#27C762" d="M22.923 25A8.613 8.613 0 0 1 22 21.115C22 16.641 25.364 13 29.5 13v-1c-4.687 0-8.5 4.089-8.5 9.115 0 1.62.409 3.22 1.185 4.626l.142.259h14.346l-.596-1H22.923z"/><path fill="#A0EBBB" d="M38 21.115C38 16.089 34.187 12 29.5 12v1c4.136 0 7.5 3.641 7.5 8.115 0 1.354-.318 2.69-.923 3.885l.596 1 .143-.259A9.606 9.606 0 0 0 38 21.115z"/><path fill="#0CA440" d="M35.062 14.239C33.57 12.848 31.627 12 29.5 12c-2.865 0-5.399 1.533-6.939 3.869 1.39 1.762 3.452 2.884 5.76 2.884 2.091 0 3.985-.918 5.356-2.402.564-.611 1.021-1.332 1.385-2.112z"/><path fill="#39DF79" d="M29.5 17.5c-3.309 0-6-3.141-6-7s2.691-7 6-7 6 3.141 6 7-2.691 7-6 7z"/><path fill="#A0EBBB" d="M29.5 4c3.033 0 5.5 2.916 5.5 6.5 0 1.764-.6 3.364-1.568 4.536l.665.767C35.272 14.446 36 12.571 36 10.5 36 6.358 33.09 3 29.5 3c-1.795 0-3.42.839-4.596 2.197l.665.767C26.568 4.754 27.96 4 29.5 4z"/><path fill="#27C762" d="M29.5 18c1.795 0 3.42-.839 4.596-2.197l-.665-.767C32.432 16.246 31.04 17 29.5 17c-3.033 0-5.5-2.916-5.5-6.5 0-1.764.6-3.364 1.568-4.536l-.665-.767C23.728 6.554 23 8.429 23 10.5c0 4.142 2.91 7.5 6.5 7.5z"/><path fill="#26D3F9" d="M8.5 12.5c-4.418 0-8 3.857-8 8.615 0 1.603.414 3.099 1.122 4.385h13.755a9.07 9.07 0 0 0 1.122-4.385C16.5 16.357 12.918 12.5 8.5 12.5z"/><path fill="none" d="M1 21.115c0 1.354.318 2.69.923 3.885h13.154l-1.433-2.406L8.5 16.375V13C4.364 13 1 16.641 1 21.115z"/><path fill="#11B1D0" d="M1.923 25A8.613 8.613 0 0 1 1 21.115C1 16.641 4.364 13 8.5 13v-1C3.813 12 0 16.089 0 21.115c0 1.62.409 3.22 1.185 4.626l.142.259h14.346l-.596-1H1.923z"/><path fill="#8AD3EC" d="M17 21.115C17 16.089 13.187 12 8.5 12v1c4.136 0 7.5 3.641 7.5 8.115 0 1.354-.318 2.69-.923 3.885l.596 1 .143-.259A9.606 9.606 0 0 0 17 21.115z"/><path fill="#0095AE" d="M14.062 14.239C12.57 12.848 10.627 12 8.5 12c-2.865 0-5.399 1.533-6.939 3.869 1.39 1.762 3.452 2.884 5.76 2.884 2.091 0 3.985-.918 5.356-2.402.564-.611 1.021-1.332 1.385-2.112z"/><path fill="#26D3F9" d="M8.5 17.5c-3.309 0-6-3.141-6-7s2.691-7 6-7 6 3.141 6 7-2.691 7-6 7z"/><g><path fill="#86EAFB" d="M8.5 4c3.033 0 5.5 2.916 5.5 6.5 0 1.764-.6 3.364-1.568 4.536l.665.767C14.272 14.446 15 12.571 15 10.5 15 6.358 12.09 3 8.5 3c-1.795 0-3.42.839-4.596 2.197l.665.767C5.568 4.754 6.96 4 8.5 4z"/><path fill="#11B1D0" d="M8.5 18c1.795 0 3.42-.839 4.596-2.197l-.665-.767C11.432 16.246 10.04 17 8.5 17 5.467 17 3 14.084 3 10.5c0-1.764.6-3.364 1.568-4.536l-.664-.767C2.728 6.554 2 8.429 2 10.5 2 14.642 4.91 18 8.5 18z"/></g><path fill="#AE74AE" d="M19 17.589c-5.799 0-10.5 5.314-10.5 11.87 0 2.209.544 4.27 1.473 6.041h18.054a12.976 12.976 0 0 0 1.473-6.041c0-6.556-4.701-11.87-10.5-11.87z"/><path fill="#C26FD2" d="M19 17.589c-5.799 0-10.5 5.314-10.5 11.87 0 2.209.544 4.27 1.473 6.041h18.054a12.976 12.976 0 0 0 1.473-6.041c0-6.556-4.701-11.87-10.5-11.87z"/><g><path fill="#955CA1" d="M10.28 35A12.552 12.552 0 0 1 9 29.459c0-6.27 4.486-11.37 10-11.37v-1c-6.065 0-11 5.549-11 12.37 0 2.195.529 4.365 1.531 6.273l.14.268h18.658l-.609-1H10.28z"/><path fill="#D498DF" d="M30 29.459c0-6.821-4.935-12.37-11-12.37v1c5.514 0 10 5.101 10 11.37 0 1.933-.441 3.842-1.28 5.541l.609 1 .14-.268A13.54 13.54 0 0 0 30 29.459z"/></g><path fill="#884D8A" d="M19 17.089c-3.951 0-7.411 2.362-9.352 5.889 1.939 2.376 4.709 3.882 7.805 3.882 2.927 0 5.578-1.332 7.497-3.486.708-.794 1.287-1.719 1.768-2.714-1.987-2.206-4.712-3.571-7.718-3.571z"/><path fill="#C26FD2" d="M19 25.5c-4.687 0-8.5-4.486-8.5-10s3.813-10 8.5-10 8.5 4.486 8.5 10-3.813 10-8.5 10z"/><g><path fill="#D498DF" d="M19 6c4.411 0 8 4.262 8 9.5 0 2.589-.879 4.937-2.298 6.652l.662.772C26.993 21.025 28 18.399 28 15.5 28 9.701 23.971 5 19 5c-2.485 0-4.735 1.175-6.364 3.075l.662.772C14.75 7.093 16.769 6 19 6z"/><path fill="#955CA1" d="M19 26c2.485 0 4.735-1.175 6.364-3.075l-.662-.772C23.25 23.907 21.231 25 19 25c-4.411 0-8-4.262-8-9.5 0-2.589.879-4.937 2.298-6.652l-.662-.772C11.007 9.976 10 12.6 10 15.5c0 5.799 4.029 10.5 9 10.5z"/></g></svg>