<svg id="icon-color-small-past-due-date" width="17" height="16" viewBox="0 0 17 16" xmlns="http://www.w3.org/2000/svg"><title>zzz</title><g stroke="#ED423E" fill="none" fill-rule="evenodd"><path d="M1.17 5.5h14.933" stroke-linejoin="round"/><path d="M6.032 1.5h5.458M14.053 1.5h1.083c.55 0 1 .45 1 1v12c0 .55-.45 1-1 1h-13c-.55 0-1-.45-1-1v-12c0-.55.45-1 1-1H3.24"/><path d="M4.136 8.5h.1M7.136 8.5h.1M10.136 8.5h.1M13.136 8.5h.1M4.136 10.5h.1M7.136 10.5h.1M10.136 10.5h.1M13.136 10.5h.1M4.136 12.5h.1M7.136 12.5h.1M10.136 12.5h.1M13.136 12.5h.1M3.407 2.5h2.534v-2H3.407zM11.407 2.5h2.534v-2h-2.534z" stroke-linecap="round" stroke-linejoin="round"/></g></svg>