<svg id="icon-color-large-pdf-c" xmlns="http://www.w3.org/2000/svg" viewBox="0 0 38 38"><path fill="#D1373C" d="M33 10v26c0 1.1-.9 2-2 2H7c-1.1 0-2-.9-2-2V2c0-1.1.9-2 2-2h16l2 8 8 2z"/><path fill="#F93D39" d="M33 10v24c0 1.1-.9 2-2 2H7c-1.1 0-2-.9-2-2V2c0-1.1.9-2 2-2h16l2 8 8 2z"/><path fill="#D1373C" d="M33 11a.995.995 0 0 0-.293-.706l-9-9.003A1.006 1.006 0 0 0 23 1h-1v9c0 1.1.898 2 1.996 2H33v-1z"/><path fill="#FB9A98" d="M33 10a.995.995 0 0 0-.293-.706l-9-9.003A1.006 1.006 0 0 0 23 0h-1v9c0 1.1.898 2 1.996 2H33v-1z"/><path fill="#FF8781" stroke="#FFF" stroke-linejoin="round" stroke-miterlimit="10" d="M8.5 16.5h9v6h-9zM20.5 16.5h9v6h-9z"/><path fill="none" stroke="#FFF" stroke-linecap="round" stroke-miterlimit="10" d="M8.5 25.5h9M8.5 28.5h9M8.5 31.5h9M20.5 25.5h9M20.5 28.5h9M20.5 31.5h9"/></svg>