<svg id="icon-color-medium-people-c" xmlns="http://www.w3.org/2000/svg" viewBox="0 0 24 24"><path fill="#26D3F9" d="M21.253 8.5a6.274 6.274 0 0 1 2.246 4.842 6.33 6.33 0 0 1-.842 3.158h-8.824l-3.085-2.95 1.749-3.638a6.17 6.17 0 0 1 1.226-1.394"/><path fill="#11B1D0" d="M22.36 16h-8.325l-2.678-2.561 1.562-3.257a5.66 5.66 0 0 1 1.127-1.281.5.5 0 0 0-.642-.767c-.514.431-.96.938-1.355 1.561l-1.906 3.965L13.634 17h9.313l-.587-1z"/><path fill="#86EAFB" d="M22.948 17l.144-.251A6.87 6.87 0 0 0 24 13.342c0-2.041-.885-3.945-2.427-5.227a.5.5 0 1 0-.639.769C22.247 9.975 23 11.6 23 13.342c0 .923-.221 1.836-.64 2.658l.588 1z"/><path fill="#0095AE" d="M21.177 8.012a.494.494 0 0 0-.308.169.493.493 0 0 0-.109.32l-6.541.016a.486.486 0 0 0-.111-.32.5.5 0 0 0-.704-.062 6.5 6.5 0 0 0-.787.795c.806 1.526 2.327 2.57 4.093 2.57 2.101 0 3.86-1.471 4.467-3.488z"/><path fill="#C26FD2" d="M3.096 13.929C1.512 15.294.5 17.378.5 19.713c0 1.384.362 2.676.982 3.787h12.036a7.75 7.75 0 0 0 .982-3.787c0-2.347-1.023-4.442-2.621-5.805"/><path fill="#955CA1" d="M13.217 23H1.782A7.294 7.294 0 0 1 1 19.713c0-2.108.883-4.078 2.423-5.405l-.653-.758C1.009 15.067 0 17.313 0 19.713c0 1.411.361 2.804 1.045 4.031l.142.256h12.625l-.595-1z"/><path fill="#D498DF" d="M13.812 24l.143-.256A8.305 8.305 0 0 0 15 19.713c0-2.415-1.02-4.669-2.797-6.186l-.648.761C13.108 15.614 14 17.591 14 19.713c0 1.143-.27 2.273-.782 3.287l.594 1z"/><path fill="#884D8A" d="M6.676 17.545c2.388 0 4.437-1.497 5.323-3.635l-8.687.018-.377-.378a8.319 8.319 0 0 0-1.206 1.104c1.016 1.731 2.849 2.891 4.947 2.891z"/><path fill="#C26FD2" d="M7.5 4.545c-2.762 0-5 2.686-5 6s2.238 6 5 6 5-2.686 5-6-2.238-6-5-6z"/><path fill="#D498DF" d="M7.5 5.045c2.481 0 4.5 2.467 4.5 5.5 0 1.483-.485 2.829-1.269 3.819l.656.775C12.383 13.962 13 12.337 13 10.545c0-3.584-2.468-6.5-5.5-6.5-1.516 0-2.891.729-3.887 1.906l.656.775C5.087 5.692 6.232 5.045 7.5 5.045z"/><path fill="#955CA1" d="M7.5 17.045c1.516 0 2.891-.729 3.887-1.906l-.656-.775c-.819 1.034-1.964 1.681-3.231 1.681-2.481 0-4.5-2.467-4.5-5.5 0-1.483.485-2.829 1.269-3.819l-.657-.775C2.617 7.128 2 8.753 2 10.545c0 3.584 2.467 6.5 5.5 6.5z"/><path fill="#26D3F9" d="M17.5.5c-2.209 0-4 2.239-4 5s1.791 5 4 5 4-2.239 4-5-1.791-5-4-5z"/><g><path fill="#86EAFB" d="M17.5 1C19.43 1 21 3.019 21 5.5c0 1.2-.373 2.285-.97 3.092l.65.795C21.495 8.391 22 7.016 22 5.5 22 2.467 19.981 0 17.5 0c-1.241 0-2.366.617-3.181 1.613l.65.795C15.608 1.545 16.503 1 17.5 1z"/><path fill="#11B1D0" d="M17.5 11c1.241 0 2.366-.617 3.181-1.613l-.65-.795C19.392 9.455 18.497 10 17.5 10 15.57 10 14 7.981 14 5.5c0-1.2.373-2.285.97-3.092l-.65-.795C13.504 2.609 13 3.984 13 5.5c0 3.033 2.018 5.5 4.5 5.5z"/></g></svg>