<svg id="icon-color-large-photo" xmlns="http://www.w3.org/2000/svg" viewBox="0 0 38 38"><path fill="#FFF" d="M7 32.5c-.827 0-1.5-.673-1.5-1.5V7c0-.827.673-1.5 1.5-1.5h24c.827 0 1.5.673 1.5 1.5v24c0 .827-.673 1.5-1.5 1.5H7z"/><path fill="#767676" d="M31 6c.551 0 1 .449 1 1v24c0 .551-.449 1-1 1H7c-.551 0-1-.449-1-1V7c0-.551.449-1 1-1h24m0-1H7c-1.1 0-2 .9-2 2v24c0 1.1.9 2 2 2h24c1.1 0 2-.9 2-2V7c0-1.1-.9-2-2-2z"/><circle fill="#FFF" cx="23.5" cy="19.5" r="2"/><path fill="#767676" d="M23.5 18c.827 0 1.5.673 1.5 1.5s-.673 1.5-1.5 1.5-1.5-.673-1.5-1.5.673-1.5 1.5-1.5m0-1a2.5 2.5 0 1 0 0 5 2.5 2.5 0 0 0 0-5z"/><g><path fill="#D7F9E4" d="M7 32.5c-.827 0-1.5-.673-1.5-1.5v-.809l8.17-9.078a.492.492 0 0 1 .718-.019l8.259 8.259a.502.502 0 0 0 .707.001l4.297-4.297a.49.49 0 0 1 .7 0l4.15 4.15V31c0 .827-.673 1.5-1.5 1.5H7z"/><path fill="#767676" d="M14.038 21.452l8.255 8.255a.997.997 0 0 0 1.414 0l4.289-4.297L32 29.414V31c0 .551-.449 1-1 1H7c-.551 0-1-.449-1-1v-.616l8.038-8.932m0-1.002a.99.99 0 0 0-.739.329L5 30v1c0 1.1.9 2 2 2h24c1.1 0 2-.9 2-2v-2l-4.297-4.297a.992.992 0 0 0-1.406 0L23 29l-8.259-8.259a.99.99 0 0 0-.703-.291z"/></g></svg>