<svg id="icon-color-large-polling" xmlns="http://www.w3.org/2000/svg" viewBox="0 0 38 38"><path fill="#FFF" d="M5 29.5c-.827 0-1.5-.673-1.5-1.5V4c0-.827.673-1.5 1.5-1.5h28c.827 0 1.5.673 1.5 1.5v24c0 .827-.673 1.5-1.5 1.5H5z"/><path fill="#767676" d="M33 3c.551 0 1 .449 1 1v24c0 .551-.449 1-1 1H5c-.551 0-1-.449-1-1V4c0-.551.449-1 1-1h28m0-1H5c-1.1 0-2 .9-2 2v24c0 1.1.9 2 2 2h28c1.1 0 2-.9 2-2V4c0-1.1-.9-2-2-2z"/><path fill="none" stroke="#CDCDCD" stroke-miterlimit="10" d="M4 14.5h30M4 8.5h30M4 26.5h30M4 20.5h30"/><path fill="#F3E2F7" d="M7.5 29.5V21a.5.5 0 0 1 .5-.5h4a.5.5 0 0 1 .5.5v8.5h-5z"/><path fill="#767676" d="M12 21v8H8v-8h4m0-1H8c-.55 0-1 .45-1 1v9h6v-9c0-.55-.45-1-1-1z"/><path fill="#FFF9CC" d="M16.5 29.5V9a.5.5 0 0 1 .5-.5h4a.5.5 0 0 1 .5.5v20.5h-5z"/><path fill="#767676" d="M21 9v20h-4V9h4m0-1h-4c-.55 0-1 .45-1 1v21h6V9c0-.55-.45-1-1-1z"/><path fill="#D7F9E4" d="M25.5 29.5V15a.5.5 0 0 1 .5-.5h4a.5.5 0 0 1 .5.5v14.5h-5z"/><path fill="#767676" d="M30 15v14h-4V15h4m0-1h-4c-.55 0-1 .45-1 1v15h6V15c0-.55-.45-1-1-1z"/><path fill="#FFF" stroke="#767676" stroke-linejoin="round" stroke-miterlimit="10" d="M8.5 32.5h3v3h-3zM17.5 32.5h3v3h-3zM26.5 32.5h3v3h-3z"/></svg>