<svg id="icon-color-large-portfolios-c" xmlns="http://www.w3.org/2000/svg" viewBox="0 0 38 38"><path fill="#EDEDED" d="M33 17.417V36c0 1.1-.9 2-2 2H7c-1.1 0-2-.9-2-2V17.417"/><path fill="#E2E2E2" d="M31 36H7c-1.1 0-2-.9-2-2v2c0 1.1.9 2 2 2h24c1.1 0 2-.9 2-2v-2c0 1.1-.9 2-2 2z"/><path fill="#C26FD2" d="M14.5 21h-5a.5.5 0 0 0-.5.5v5a.5.5 0 0 0 .5.5h5a.5.5 0 0 0 .5-.5v-5a.5.5 0 0 0-.5-.5z"/><path fill="#FFD200" d="M21.5 21h-5a.5.5 0 0 0-.5.5v5a.5.5 0 0 0 .5.5h5a.5.5 0 0 0 .5-.5v-5a.5.5 0 0 0-.5-.5z"/><path fill="#44DE7D" d="M28.5 21h-5a.5.5 0 0 0-.5.5v5a.5.5 0 0 0 .5.5h5a.5.5 0 0 0 .5-.5v-5a.5.5 0 0 0-.5-.5z"/><path fill="#FA9126" d="M14.5 28h-5a.5.5 0 0 0-.5.5v5a.5.5 0 0 0 .5.5h5a.5.5 0 0 0 .5-.5v-5a.5.5 0 0 0-.5-.5z"/><path fill="#008EFF" d="M21.5 28h-5a.5.5 0 0 0-.5.5v5a.5.5 0 0 0 .5.5h5a.5.5 0 0 0 .5-.5v-5a.5.5 0 0 0-.5-.5z"/><path fill="#FF3A30" d="M28.5 28h-5a.5.5 0 0 0-.5.5v5a.5.5 0 0 0 .5.5h5a.5.5 0 0 0 .5-.5v-5a.5.5 0 0 0-.5-.5z"/><path fill="#666" d="M33 18V2c0-1.1-.9-2-2-2H7C5.9 0 5 .9 5 2v16h28z"/><path fill="#AAC3D4" d="M19.5 10C17.57 10 16 8.43 16 6.5S17.57 3 19.5 3 23 4.57 23 6.5 21.43 10 19.5 10z"/><g><path fill="#FFF" d="M19.5 8.5C18.673 8.5 18 6.827 18 6s.673-1.5 1.5-1.5S21 5.173 21 6s-.673 2.5-1.5 2.5z"/></g><path fill="#FFF" d="M19.5 10a3.48 3.48 0 0 0 2.531-1.096C21.499 8.064 20.566 7.5 19.5 7.5s-1.999.564-2.531 1.404A3.48 3.48 0 0 0 19.5 10z"/><path fill="#555" d="M5 17h28v1H5z"/><path fill="none" stroke="#CACACA" stroke-linecap="round" stroke-miterlimit="10" d="M9.5 12.5h19M14.5 14.5h9"/></svg>