<svg id="icon-color-large-post-c" xmlns="http://www.w3.org/2000/svg" viewBox="0 0 38 38"><path fill="#CEEAF8" d="M33.916 7.619a.5.5 0 0 0-.635-.173l-22.062 10.75a.5.5 0 0 0-.281.45v10.938a.502.502 0 0 0 .781.414l7.226-4.91a.501.501 0 0 0 .066-.773l-1.646-1.588L33.83 8.272a.503.503 0 0 0 .086-.653z"/><path fill="#AAC3D4" d="M15.896 22.691l-4.731 7.298c.015.01.022.027.038.036a.5.5 0 0 0 .515-.028l7.205-4.896-3.027-2.41z"/><g fill="#DFF1FF"><path d="M33.975 7.736a.498.498 0 0 0-.563-.337L6.039 12.274c-.511.091-.905.459-1.031.962s.049 1.015.456 1.335l5.472 4.311.192.151a.499.499 0 0 0 .529.057L33.719 8.34a.499.499 0 0 0 .256-.604z"/><path d="M33.779 7.476a.502.502 0 0 0-.609.039l-2.799 2.457L17.42 21.339h-.001l-1.125.987c-.01.009-.015.022-.024.032l-.375.332.375.362.007.01 1.305 1.259 6.547 6.314a1.3 1.3 0 0 0 2.129-.505l7.714-22.074a.5.5 0 0 0-.193-.58z"/></g><path fill="#CEEAF8" d="M10.936 18.882l19.372-8.856-19.371 10.025z"/></svg>