<svg id="icon-color-large-presentation-event-c" xmlns="http://www.w3.org/2000/svg" viewBox="0 0 38 38"><path fill="#E0F1FA" stroke="#CEE9F7" stroke-linecap="round" stroke-linejoin="round" stroke-miterlimit="10" d="M27.657 25.5H8.028c-.844 0-1.528-.653-1.528-1.458V3.5h25v16.818L27.657 25.5z"/><path fill="none" stroke="#C4DAE7" stroke-linecap="round" stroke-linejoin="round" stroke-miterlimit="10" d="M10.38 6.5h16M10.495 9.5h10"/><path fill="#BDC2C9" d="M32.531 0H5.453a1.46 1.46 0 0 0-1.461 1.458v1.083A1.46 1.46 0 0 0 5.453 4h27.078a1.46 1.46 0 0 0 1.461-1.458V1.458A1.46 1.46 0 0 0 32.531 0z"/><path fill="#A4AAAD" d="M32.531 3H5.453a1.46 1.46 0 0 1-1.461-1.458v1A1.46 1.46 0 0 0 5.453 4h27.078a1.46 1.46 0 0 0 1.461-1.458v-1A1.46 1.46 0 0 1 32.531 3z"/><path fill="none" stroke="#E3E3E2" stroke-linecap="round" stroke-linejoin="round" stroke-miterlimit="10" d="M5.487 1.5h27.004"/><path fill="#CEE9F7" stroke="#CEE9F7" stroke-linecap="round" stroke-linejoin="round" stroke-miterlimit="10" d="M10.5 12.5h17v7h-17z"/><path fill="#39DF79" d="M29 20.5c-3.59 0-6.5 3.264-6.5 7.29 0 1.357.336 2.622.912 3.71h11.176a7.915 7.915 0 0 0 .912-3.71c0-4.026-2.91-7.29-6.5-7.29z"/><path fill="#27C762" d="M23.721 31A7.468 7.468 0 0 1 23 27.79c0-3.692 2.619-6.699 5.864-6.782l.009-1.001c-3.8.076-6.873 3.535-6.873 7.783 0 1.38.336 2.743.97 3.943l.141.267h11.777l-.609-1H23.721z"/><path fill="#A0EBBB" d="M36 27.79c0-4.296-3.141-7.79-7-7.79-.043 0-.084.006-.127.007l-.009 1.001c.046-.001.09-.008.136-.008 3.309 0 6 3.046 6 6.79 0 1.116-.248 2.22-.721 3.21l.609 1 .142-.267c.634-1.2.97-2.563.97-3.943z"/><path fill="#339647" d="M23.388 23.156C24.489 24.588 26.146 25.5 28 25.5c1.656 0 3.155-.727 4.24-1.902a6.514 6.514 0 0 0 1.185-1.838C32.219 20.661 30.678 20 29 20c-.043 0-.084.006-.127.007-2.246.045-4.231 1.277-5.485 3.149z"/><path fill="#39DF79" d="M29 24.5c-2.481 0-4.5-2.468-4.5-5.5s2.019-5.5 4.5-5.5 4.5 2.468 4.5 5.5-2.019 5.5-4.5 5.5z"/><g><path fill="#39DF79" d="M29 14c-1.137 0-2.159.603-2.888 1.558l5.765 6.901C32.569 21.559 33 20.343 33 19c0-2.757-1.794-5-4-5z"/><path fill="#A0EBBB" d="M29 14c2.206 0 4 2.243 4 5 0 1.343-.431 2.559-1.123 3.458l.657.786C33.439 22.159 34 20.658 34 19c0-3.314-2.239-6-5-6-1.386 0-2.64.677-3.545 1.77l.658.787C26.841 14.603 27.863 14 29 14z"/><path fill="#27C762" d="M29 25c1.38 0 2.629-.671 3.534-1.755l-.657-.786C31.149 23.405 30.131 24 29 24c-2.206 0-4-2.243-4-5 0-1.336.427-2.544 1.112-3.442l-.658-.787C24.556 15.855 24 17.35 24 19c0 3.314 2.239 6 5 6z"/></g><g><path fill="#26D3F9" d="M9 20.5c-3.59 0-6.5 3.264-6.5 7.29 0 1.357.336 2.622.912 3.71h11.176a7.915 7.915 0 0 0 .912-3.71c0-4.026-2.91-7.29-6.5-7.29z"/><path fill="#11B1D0" d="M3.721 31A7.468 7.468 0 0 1 3 27.79c0-3.692 2.619-6.699 5.864-6.782l.009-1.001C5.073 20.083 2 23.542 2 27.79c0 1.38.336 2.743.97 3.943l.141.267h11.777l-.609-1H3.721z"/><path fill="#86EAFB" d="M16 27.79C16 23.494 12.859 20 9 20c-.043 0-.084.006-.127.007l-.009 1.001C8.91 21.007 8.954 21 9 21c3.309 0 6 3.046 6 6.79 0 1.116-.248 2.22-.721 3.21l.609 1 .142-.267c.634-1.2.97-2.563.97-3.943z"/><path fill="#0095AE" d="M3.388 23.156C4.489 24.588 6.146 25.5 8 25.5c1.656 0 3.155-.727 4.24-1.902a6.514 6.514 0 0 0 1.185-1.838C12.219 20.661 10.678 20 9 20c-.043 0-.084.006-.127.007-2.246.045-4.231 1.277-5.485 3.149z"/><path fill="#26D3F9" d="M9 24.5c-2.481 0-4.5-2.468-4.5-5.5s2.019-5.5 4.5-5.5 4.5 2.468 4.5 5.5-2.019 5.5-4.5 5.5z"/><g><path fill="none" d="M9 14c-1.137 0-2.159.603-2.888 1.558l5.765 6.901C12.569 21.559 13 20.343 13 19c0-2.757-1.794-5-4-5z"/><path fill="#86EAFB" d="M9 14c2.206 0 4 2.243 4 5 0 1.343-.431 2.559-1.123 3.458l.657.786C13.439 22.159 14 20.658 14 19c0-3.314-2.239-6-5-6-1.386 0-2.64.677-3.545 1.77l.658.787C6.841 14.603 7.863 14 9 14z"/><path fill="#11B1D0" d="M9 25c1.38 0 2.629-.671 3.534-1.755l-.657-.786C11.149 23.405 10.131 24 9 24c-2.206 0-4-2.243-4-5 0-1.336.427-2.544 1.112-3.442l-.657-.788C4.556 15.855 4 17.35 4 19c0 3.314 2.239 6 5 6z"/></g></g><g><path fill="#C26FD2" d="M19 26.5c-3.59 0-6.5 3.264-6.5 7.29 0 1.357.336 2.622.912 3.71h11.176a7.915 7.915 0 0 0 .912-3.71c0-4.026-2.91-7.29-6.5-7.29z"/><path fill="#955CA1" d="M13.721 37A7.468 7.468 0 0 1 13 33.79c0-3.692 2.619-6.699 5.864-6.782l.009-1.001c-3.8.076-6.873 3.535-6.873 7.783 0 1.38.336 2.743.97 3.943l.141.267h11.777l-.609-1H13.721z"/><path fill="#D498DF" d="M26 33.79c0-4.296-3.141-7.79-7-7.79-.043 0-.084.006-.127.007l-.009 1.001c.046-.001.09-.008.136-.008 3.309 0 6 3.046 6 6.79 0 1.116-.248 2.22-.721 3.21l.609 1 .142-.267c.634-1.2.97-2.563.97-3.943z"/><path fill="#884D8A" d="M13.388 29.156C14.489 30.588 16.146 31.5 18 31.5c1.656 0 3.155-.727 4.24-1.902a6.514 6.514 0 0 0 1.185-1.838C22.219 26.661 20.678 26 19 26c-.043 0-.084.006-.127.007-2.246.045-4.231 1.277-5.485 3.149z"/><path fill="#C26FD2" d="M19 30.5c-2.481 0-4.5-2.468-4.5-5.5s2.019-5.5 4.5-5.5 4.5 2.468 4.5 5.5-2.019 5.5-4.5 5.5z"/><g><path fill="#C26FD2" d="M19 20c-1.137 0-2.159.603-2.888 1.558l5.765 6.901C22.569 27.559 23 26.343 23 25c0-2.757-1.794-5-4-5z"/><path fill="#D498DF" d="M19 20c2.206 0 4 2.243 4 5 0 1.343-.431 2.559-1.123 3.458l.657.786C23.439 28.159 24 26.658 24 25c0-3.314-2.239-6-5-6-1.386 0-2.64.677-3.545 1.77l.658.787C16.841 20.603 17.863 20 19 20z"/><path fill="#955CA1" d="M19 31c1.38 0 2.629-.671 3.534-1.755l-.657-.786C21.149 29.405 20.131 30 19 30c-2.206 0-4-2.243-4-5 0-1.336.427-2.544 1.112-3.442l-.658-.787C14.556 21.855 14 23.35 14 25c0 3.314 2.239 6 5 6z"/></g></g></svg>