<svg id="icon-color-large-quiz-c" xmlns="http://www.w3.org/2000/svg" viewBox="0 0 38 38"><path fill="#CEEAF8" d="M23 0H7C5.9 0 5 .9 5 2v34c0 1.1.9 2 2 2h24c1.1 0 2-.9 2-2V10l-8-2-2-8z"/><path fill="#DEF1FF" d="M23 0H7C5.9 0 5 .9 5 2v32c0 1.1.9 2 2 2h24c1.1 0 2-.9 2-2V10l-8-4-2-6z"/><path fill="none" stroke="#AAC3D4" stroke-linecap="round" stroke-linejoin="round" stroke-miterlimit="10" d="M10.5 14.5h7v7h-7z"/><path fill="#D7F9E4" d="M20.5 14.5h7v7h-7z"/><path fill="#39E379" d="M27.5 22h-7a.5.5 0 0 1-.5-.5v-7a.5.5 0 0 1 .5-.5h7a.5.5 0 0 1 .5.5v7a.5.5 0 0 1-.5.5z"/><path fill="none" stroke="#AAC3D4" stroke-linecap="round" stroke-linejoin="round" stroke-miterlimit="10" d="M10.5 25.5h7v7h-7zM20.5 25.5h7v7h-7z"/><g fill="none" stroke="#FFF" stroke-width="1.014" stroke-linecap="round" stroke-linejoin="round" stroke-miterlimit="10"><path d="M22.5 16.5l3 3M25.5 16.5l-3 3"/></g><path fill="#AAC3D4" d="M33 11a.995.995 0 0 0-.293-.706l-9-9.003A1.006 1.006 0 0 0 23 1h-1v9c0 1.1.898 2 1.996 2H33v-1z" opacity=".5"/><g><path fill="#FFF" d="M33 10a.995.995 0 0 0-.293-.706l-9-9.003A1.006 1.006 0 0 0 23 0h-1v9c0 1.1.898 2 1.996 2H33v-1z"/></g></svg>