<svg id="icon-color-large-raise-hand-a" xmlns="http://www.w3.org/2000/svg" viewBox="0 0 38 38"><path fill="#FFF" d="M9.6 24v-4.5l10.5-3.1h13.1V24z"/><path fill="#FFF" stroke="#FF3B30" stroke-linecap="round" stroke-miterlimit="10" d="M30.6 18.5V4c0-1.9-1.6-3.4-3.5-3.4S23.6 2.1 23.6 4v14.5"/><path fill="#FFF" stroke="#FF3B30" stroke-linecap="round" stroke-miterlimit="10" d="M30.6 18.5V9.9c0-1.9 1.6-3.4 3.5-3.4s3.5 1.5 3.5 3.4v16.8c0 4.6-4.5 10.8-9 10.8H11.3c-2.6 0-4.9-3.1-6-5.5L.7 21.2c-.7-1.9.3-4 2.2-4.7l.2-.1c1.9-.7 4 .3 4.7 2.2L9.5 22"/><path fill="#FFF" stroke="#FF3B30" stroke-linecap="round" stroke-miterlimit="10" d="M23.6 18.5V4c0-1.9-1.6-3.4-3.5-3.4S16.6 2.1 16.6 4v14.5M16.6 18.5V7.9c0-1.9-1.6-3.4-3.5-3.4S9.6 6 9.6 7.9v13.6M9.6 22s8.2 1.8 9 7.5"/></svg>