<svg id="icon-color-medium-raise-hand-c" xmlns="http://www.w3.org/2000/svg" viewBox="0 0 24 24"><path fill="#C26FD2" d="M21.332 4.033h-.22c-1.175 0-2.131 1-2.131 2.23V2.73c0-1.23-.974-2.23-2.171-2.23h-.157c-1.197 0-2.171 1-2.171 2.23 0-1.23-.974-2.23-2.171-2.23h-.157c-1.197 0-2.171 1-2.171 2.23v2.663c0-1.23-.974-2.23-2.171-2.23h-.16c-1.197 0-2.171 1-2.171 2.23v5.903c-.698-.971-2.055-1.377-3.225-.951a2.673 2.673 0 0 0-1.595 3.422l3.114 7.007C4.503 22.472 6.173 23.5 8.02 23.5h9.665c3.191 0 5.777-2.515 5.777-5.705V6.263c0-1.23-.955-2.23-2.13-2.23z"/><path fill="#955CA1" d="M9.98 12.587a.5.5 0 0 1-.5-.5V5.394c0-.954-.75-1.73-1.671-1.73h-.158c-.921 0-1.671.776-1.671 1.73v5.889a.5.5 0 0 1-1 0V5.394c0-1.505 1.198-2.73 2.671-2.73h.159c1.473 0 2.671 1.225 2.671 2.73v6.694a.5.5 0 0 1-.501.499z"/><path fill="#D498DF" d="M7.81 3.664c.921 0 1.671.776 1.671 1.73v6.694a.5.5 0 0 0 1 0V5.394c0-1.505-1.198-2.73-2.671-2.73v1z"/><path fill="#955CA1" d="M9.98 12.554a.5.5 0 0 1-.5-.5V2.73C9.48 1.225 10.679 0 12.151 0h.158c1.473 0 2.671 1.225 2.671 2.73v7.251a.5.5 0 0 1-1 0V2.73c0-.954-.75-1.73-1.67-1.73h-.158c-.922 0-1.672.776-1.672 1.73v9.324c0 .277-.223.5-.5.5z"/><path fill="#D498DF" d="M12.31 1c.921 0 1.671.776 1.671 1.73v7.251a.5.5 0 0 0 1 0V2.73C14.98 1.225 13.782 0 12.31 0v1z"/><path fill="#955CA1" d="M14.48 12.554a.5.5 0 0 1-.5-.5V2.73c0-1.505 1.198-2.73 2.671-2.73h.158c1.473 0 2.671 1.225 2.671 2.73v7.251a.5.5 0 0 1-1 0V2.73c0-.954-.75-1.73-1.67-1.73h-.158c-.922 0-1.672.776-1.672 1.73v9.324c0 .277-.223.5-.5.5z"/><path fill="#D498DF" d="M16.81 1c.921 0 1.671.776 1.671 1.73v7.251a.5.5 0 0 0 1 0V2.73C19.48 1.225 18.282 0 16.81 0v1z"/><path fill="#955CA1" d="M17.686 24H8.02c-2.068 0-3.915-1.188-4.704-3.027L.204 13.972c-.302-.827-.265-1.687.094-2.455s.992-1.351 1.787-1.64c1.681-.614 3.6.224 4.184 1.829l1.017 1.833c1.309.104 6.548.806 7.191 5.413a.5.5 0 1 1-.99.138c-.615-4.408-6.455-4.568-6.515-4.569l-.288-.005-1.324-2.398c-.431-1.166-1.758-1.728-2.935-1.302-.543.198-.978.597-1.223 1.123s-.271 1.115-.073 1.659l3.102 6.975C4.875 22.072 6.326 22 8.02 22h9.666c2.91 0 5.277-1.335 5.277-4.205V6.263c0-.954-.731-1.73-1.631-1.73h-.221c-.899 0-1.631.776-1.631 1.73v5.755a.5.5 0 0 1-1 0V6.263c0-1.505 1.181-2.73 2.631-2.73h.221c1.45 0 2.631 1.225 2.631 2.73v11.532c0 3.421-2.817 6.205-6.277 6.205z"/><g fill="#D498DF"><path d="M2.426 10.816c1.177-.426 2.504.136 2.935 1.302l1.322 2.397.288.005c.06.001 5.899.162 6.515 4.569a.5.5 0 0 0 .99-.138c-.644-4.607-5.883-5.31-7.191-5.413l-1.017-1.833c-.584-1.604-2.503-2.443-4.184-1.829l.342.94zM21.332 3.533v1c.899 0 1.631.776 1.631 1.73v11.532c0 1.43-.881 2.433-1.83 3.375l.999.999a6.151 6.151 0 0 0 1.831-4.374V6.263c0-1.505-1.181-2.73-2.631-2.73z"/></g></svg>