<svg id="icon-color-large-raise-hand" xmlns="http://www.w3.org/2000/svg" viewBox="0 0 38 38"><path fill="#FFF" d="M10 9h24v23H10z"/><path fill="#FFF" stroke="#767676" stroke-linecap="round" stroke-miterlimit="10" d="M30.5 18.471V3.921c0-1.873-1.567-3.392-3.5-3.392s-3.5 1.518-3.5 3.392v14.492"/><path fill="#FFF" stroke="#767676" stroke-linecap="round" stroke-miterlimit="10" d="M30.5 18.471V9.862c0-1.873 1.567-3.392 3.5-3.392s3.5 1.518 3.5 3.392v16.816c0 4.598-4.474 10.792-8.952 10.792H11.242c-2.592 0-4.944-3.105-5.968-5.55L.72 21.228c-.689-1.943.29-4.098 2.182-4.806l.249-.093c1.892-.707 3.991.298 4.68 2.241L9.5 21.971"/><path fill="#FFF" stroke="#767676" stroke-linecap="round" stroke-miterlimit="10" d="M23.5 18.471V3.921c0-1.873-1.567-3.392-3.5-3.392s-3.5 1.518-3.5 3.392v14.492M16.5 18.471V7.892C16.5 6.018 14.933 4.5 13 4.5S9.5 6.018 9.5 7.892v13.579M9.5 21.971s8.208 1.833 9 7.5"/></svg>