<svg id="icon-color-medium-record-c" xmlns="http://www.w3.org/2000/svg" viewBox="0 0 24 24"><path fill="#E5E5E4" d="M17.5 19.499h-16c-.827 0-1.5-.673-1.5-1.5v-12c0-.827.673-1.5 1.5-1.5h16c.827 0 1.5.673 1.5 1.5v1.975l2.954-1.914c.45-.264.964-.252 1.377-.007.413.245.669.698.669 1.181v9.532c0 .483-.257.936-.669 1.18a1.364 1.364 0 0 1-1.357.005L19 16.024v1.975c0 .828-.673 1.5-1.5 1.5z"/><g fill="#F0F0F0"><path d="M23.331 6.054a1.337 1.337 0 0 0-1.377.007L19 7.975v1l2.954-1.914c.45-.264.964-.252 1.377-.007s.669.697.669 1.18v-1c0-.483-.256-.936-.669-1.18zM1.5 5.499h16c.827 0 1.5.673 1.5 1.5v-1c0-.827-.673-1.5-1.5-1.5h-16c-.827 0-1.5.673-1.5 1.5v1c0-.827.673-1.5 1.5-1.5z"/></g><g fill="#CDCCCC"><path d="M17.5 18.499h-16c-.827 0-1.5-.673-1.5-1.5v1c0 .827.673 1.5 1.5 1.5h16c.827 0 1.5-.673 1.5-1.5v-1c0 .828-.673 1.5-1.5 1.5zM23.331 16.946a1.364 1.364 0 0 1-1.357.005L19 15.024v1l2.974 1.926c.406.236.934.241 1.357-.005.412-.243.669-.696.669-1.179v-1c0 .483-.257.936-.669 1.18z"/></g><path fill="#EE4136" stroke="#EE4136" stroke-miterlimit="10" d="M9.5 8.999a3 3 0 1 0 0 6 3 3 0 0 0 0-6z"/></svg>