<svg id="icon-color-large-reminder-a" xmlns="http://www.w3.org/2000/svg" viewBox="0 0 38 38"><path fill="#FBE9E8" d="M8 26.5c-.827 0-1.5-.673-1.5-1.5V7c0-.827.673-1.5 1.5-1.5h18c.827 0 1.5.673 1.5 1.5v18c0 .827-.673 1.5-1.5 1.5H8z"/><path fill="#FF3B30" d="M26 6c.551 0 1 .449 1 1v18c0 .551-.449 1-1 1H8c-.551 0-1-.449-1-1V7c0-.551.449-1 1-1h18m0-1H8c-1.1 0-2 .9-2 2v18c0 1.1.9 2 2 2h18c1.1 0 2-.9 2-2V7c0-1.1-.9-2-2-2z"/><path fill="#FFF" d="M6 28.5c-.827 0-1.5-.673-1.5-1.5V9c0-.827.673-1.5 1.5-1.5h22c.827 0 1.5.673 1.5 1.5v18c0 .827-.673 1.5-1.5 1.5H6z"/><path fill="#FF3B30" d="M28 8c.551 0 1 .449 1 1v18c0 .551-.449 1-1 1H6c-.551 0-1-.449-1-1V9c0-.551.449-1 1-1h22m0-1H6c-1.1 0-2 .9-2 2v18c0 1.1.9 2 2 2h22c1.1 0 2-.9 2-2V9c0-1.1-.9-2-2-2z"/><path fill="#FF3B30" d="M5 14h24v1H5z"/><path fill="#FFF" d="M25.5 34.5c-4.411 0-8-3.589-8-8s3.589-8 8-8 8 3.589 8 8-3.589 8-8 8z"/><path fill="#FF3B30" d="M25.5 19a7.5 7.5 0 1 1 0 15 7.5 7.5 0 0 1 0-15m0-1c-4.687 0-8.5 3.813-8.5 8.5s3.813 8.5 8.5 8.5 8.5-3.813 8.5-8.5-3.813-8.5-8.5-8.5z"/><path fill="#FFF" stroke="#FF3B30" stroke-linecap="round" stroke-miterlimit="10" d="M11.5 4.5v4M22.5 4.5v4"/><path fill="#FFF" stroke="#FF3B30" stroke-linecap="round" stroke-linejoin="round" stroke-miterlimit="10" d="M25.5 21.5v5h3"/></svg>