<svg id="icon-color-large-rubric-c" xmlns="http://www.w3.org/2000/svg" viewBox="0 0 38 38"><path fill="#DEF1FF" d="M34 33H4c-1.1 0-2-.9-2-2V7c0-1.1.9-2 2-2h30c1.1 0 2 .9 2 2v24c0 1.1-.9 2-2 2z"/><path fill="#CEEAF8" d="M34 31H4c-1.1 0-2-.9-2-2v2c0 1.1.9 2 2 2h30c1.1 0 2-.9 2-2v-2c0 1.1-.9 2-2 2z"/><path fill="#39E379" stroke="#39E379" stroke-width=".994" stroke-linejoin="round" stroke-miterlimit="10" d="M25.5 13.5h7v6h-7z"/><path fill="none" stroke="#FFF" stroke-linecap="round" stroke-linejoin="round" stroke-miterlimit="10" d="M27 16.372L28.469 18 31 15.372"/><path fill="#39E379" stroke="#39E379" stroke-width=".994" stroke-linejoin="round" stroke-miterlimit="10" d="M15.5 23.5h7v6h-7z"/><path fill="none" stroke="#FFF" stroke-linecap="round" stroke-linejoin="round" stroke-miterlimit="10" d="M17 26l1.469 1.628L21 25"/><path fill="none" stroke="#AAC3D4" stroke-linecap="round" stroke-miterlimit="10" d="M5.5 13.5h7M5.5 15.5h4M5.5 23.5h7M5.5 25.5h4M15.5 8.5h7M15.5 10.5h4M25.5 8.5h7M25.5 10.5h4"/><path fill="none" stroke="#AAC3D4" stroke-linecap="round" stroke-linejoin="round" stroke-miterlimit="10" d="M15.5 13.5h7v6h-7zM25.5 23.5h7v6h-7z"/></svg>