<svg id="icon-color-medium-select-c" xmlns="http://www.w3.org/2000/svg" viewBox="0 0 24 24"><path fill="#26D3F9" d="M22.338 24a1.65 1.65 0 0 1-1.175-.487l-8.302-8.301-3.869 7.371a.509.509 0 0 1-.475.267.502.502 0 0 1-.437-.326L.03.674A.503.503 0 0 1 .672.03l21.85 8.05a.5.5 0 0 1 .059.913l-7.37 3.869 8.301 8.302c.315.313.488.73.488 1.174s-.173.861-.487 1.175a1.65 1.65 0 0 1-1.175.487z"/><path fill="#11B1D0" d="M23.512 23.513c-.313.314-.73.487-1.174.487s-.861-.173-1.175-.487l-8.302-8.301-3.869 7.371a.509.509 0 0 1-.475.267.502.502 0 0 1-.437-.326L.03.674A.503.503 0 0 1 .146.146l1.197 1.197L8.63 21.122l3.662-6.976a.498.498 0 0 1 .796-.122l8.782 8.782c.25.25.686.25.936 0l.706.707zm-9.629-10.854a.5.5 0 0 1 .262-.368l6.976-3.662 1.728-.113a.501.501 0 0 1-.267.476l-7.37 3.869-1.329-.202z"/></svg>