<svg id="icon-color-medium-settings-c" xmlns="http://www.w3.org/2000/svg" viewBox="0 0 24 24"><path fill="#BDC2C9" d="M20.937 13.188a8.98 8.98 0 0 0 .009-2.161l2.211-1.781a.925.925 0 0 0 .278-1.063l-.53-1.322a.926.926 0 0 0-.936-.576l-2.869.241a8.904 8.904 0 0 0-1.465-1.496l.309-2.864a.924.924 0 0 0-.555-.948L16.08.657a.922.922 0 0 0-1.071.253l-1.857 2.199a9.084 9.084 0 0 0-2.098-.028L9.252.843A.925.925 0 0 0 8.187.564l-1.323.53a.923.923 0 0 0-.577.936l.238 2.821c-.58.437-1.104.94-1.563 1.505l-2.793-.302a.926.926 0 0 0-.95.556L.658 7.92a.922.922 0 0 0 .253 1.068l2.105 1.778a8.892 8.892 0 0 0-.04 2.265L.845 14.75a.924.924 0 0 0-.278 1.063l.529 1.321c.142.353.483.58.858.58.026 0 .052 0 .078-.003l2.687-.226a8.918 8.918 0 0 0 1.625 1.674l-.288 2.671a.925.925 0 0 0 .556.948l1.31.561a.924.924 0 0 0 1.071-.255l1.734-2.053a9.035 9.035 0 0 0 2.328.017l1.694 2.104a.926.926 0 0 0 1.065.278l1.322-.53a.924.924 0 0 0 .577-.935l-.23-2.734a8.921 8.921 0 0 0 1.604-1.586l2.745.296a.925.925 0 0 0 .95-.556l.56-1.311a.922.922 0 0 0-.254-1.068l-2.151-1.818zm-8.936 2.349a3.542 3.542 0 0 1-3.538-3.538 3.542 3.542 0 0 1 3.538-3.539 3.543 3.543 0 0 1 3.539 3.539 3.543 3.543 0 0 1-3.539 3.538z"/><path fill="#EEE" d="M6.825 5.251l.221-.167-.262-3.096a.422.422 0 0 1 .266-.43l1.322-.53a.433.433 0 0 1 .49.128l1.973 2.451.271-.029a8.462 8.462 0 0 1 1.98.026l.271.036 2.034-2.408a.427.427 0 0 1 .491-.117l1.309.561c.173.074.275.25.256.436l-.337 3.137.213.171a8.44 8.44 0 0 1 1.383 1.412l.166.215 3.175-.267c.174 0 .329.105.395.266l.53 1.323a.42.42 0 0 1-.128.487l-2.426 1.954.031.274a8.498 8.498 0 0 1-.008 2.041l-.033.269 2.358 1.993c.144.121.19.318.117.49l-.56 1.311c-.067.157-.208.259-.437.255l-3.021-.326-.171.219a8.524 8.524 0 0 1-.64.718l.708.708c.188-.19.372-.386.543-.591l2.477.267.15.008c.572 0 1.086-.34 1.311-.866l.56-1.311a1.415 1.415 0 0 0-.392-1.646l-1.948-1.646a9.533 9.533 0 0 0 .008-1.731l1.999-1.611a1.416 1.416 0 0 0 .429-1.639l-.53-1.324a1.423 1.423 0 0 0-1.322-.893l-2.721.225a9.41 9.41 0 0 0-1.164-1.189l.28-2.598a1.419 1.419 0 0 0-.856-1.461l-1.307-.56a1.447 1.447 0 0 0-1.651.39L12.943 2.58a9.47 9.47 0 0 0-1.667-.022L9.642.53A1.45 1.45 0 0 0 8.001.1L6.679.63a1.416 1.416 0 0 0-.891 1.442l.215 2.55a9.615 9.615 0 0 0-.728.654l.708.708c.265-.261.544-.509.842-.733z"/><path fill="#A4AAAD" d="M12.001 8.96a3.042 3.042 0 0 1 3.038 3.039c0 .839-.342 1.599-.893 2.149l.707.707a4.027 4.027 0 0 0 1.186-2.856 4.044 4.044 0 0 0-4.038-4.039 4.027 4.027 0 0 0-2.856 1.186l.707.707a3.026 3.026 0 0 1 2.149-.893zM2.22 5.557l-.15-.007c-.571 0-1.086.339-1.311.864l-.56 1.31a1.41 1.41 0 0 0 .39 1.647l1.896 1.602a9.483 9.483 0 0 0-.032 1.838L.53 14.361a1.419 1.419 0 0 0-.427 1.638l.529 1.321a1.42 1.42 0 0 0 1.322.895l2.534-.207c.396.5.842.959 1.329 1.369l-.258 2.4a1.417 1.417 0 0 0 .854 1.462l1.315.563c.572.24 1.254.072 1.646-.394l1.56-1.846a9.51 9.51 0 0 0 1.902.014l1.522 1.891a1.421 1.421 0 0 0 1.641.429l1.322-.53c.585-.235.941-.814.889-1.441l-.208-2.467c.266-.216.517-.45.758-.693l-.708-.708a8.397 8.397 0 0 1-.874.779l-.218.167.254 3.007a.423.423 0 0 1-.266.43l-1.321.53a.425.425 0 0 1-.49-.127l-1.869-2.32-.275.033a8.607 8.607 0 0 1-2.199-.016l-.27-.04-1.912 2.263a.447.447 0 0 1-.492.118l-1.31-.561a.422.422 0 0 1-.255-.436l.316-2.944-.216-.171a8.446 8.446 0 0 1-1.534-1.581l-.166-.223-3 .25a.423.423 0 0 1-.395-.267l-.529-1.321a.422.422 0 0 1 .127-.487l2.345-1.889-.029-.272a8.456 8.456 0 0 1 .038-2.139l.04-.275-2.318-1.958a.42.42 0 0 1-.116-.49l.561-1.311c.067-.156.182-.233.436-.255l3.063.331.172-.211c.196-.241.41-.469.633-.688l-.708-.707a9.796 9.796 0 0 0-.525.554l-2.53-.273z"/><path fill="#EEE" d="M12.001 16.037a4.023 4.023 0 0 0 2.852-1.183l-.707-.707a3.03 3.03 0 0 1-2.145.89 3.042 3.042 0 0 1-3.038-3.039c0-.837.34-1.595.889-2.145l-.707-.707a4.026 4.026 0 0 0-1.182 2.852 4.044 4.044 0 0 0 4.038 4.039z"/></svg>