<svg id="icon-color-medium-share-file-c" xmlns="http://www.w3.org/2000/svg" viewBox="0 0 24 24"><path fill="#166CAA" d="M22.43 11h-.012l-20.919-.49a.5.5 0 0 1-.488-.5V5.453c0-1.071.869-1.943 1.937-1.943h5.205c.276 0 .547.095.763.268l3.207 2.68c.032.025.08.042.13.042h8.739c1.068 0 1.938.848 1.938 1.89v2.11a.503.503 0 0 1-.5.5z"/><path fill="#008EFF" d="M20.605 24H3.355c-1.068 0-1.937-.795-1.937-1.772L.009 10.271a1.079 1.079 0 0 1 .262-.851C.502 9.153.847 9 1.216 9h21.568c.369 0 .714.153.945.42.209.241.304.555.26.862l-1.451 12.006c.004.917-.865 1.712-1.933 1.712z"/><path fill="#0783D8" d="M20.868 22H3.091c-.818 0-1.522-.453-1.83-1.099l.156 1.327c0 .977.869 1.772 1.938 1.772h17.25c1.068 0 1.938-.795 1.934-1.712l.166-1.377C22.403 21.54 21.693 22 20.868 22z"/><path fill="#095E92" d="M1.011 9H22.93v-.61c0-.134-.015-.264-.042-.39H1.011v1z"/><path fill="none" stroke="#EEE" stroke-linecap="round" stroke-linejoin="round" stroke-miterlimit="10" d="M17 .5V16M13.019 4.49L17 .51l3.981 3.98"/><path opacity=".5" fill="#166CAA" d="M15.395 9l-.793 6.919a.5.5 0 1 0 .994.114L16.402 9h-1.007z"/></svg>