<svg id="icon-color-large-smile" xmlns="http://www.w3.org/2000/svg" viewBox="0 0 38 38"><path fill="#FFF9CC" stroke="#767676" stroke-miterlimit="10" d="M32.046 32.084c3.61-3.61 5.415-7.971 5.415-13.084 0-5.101-1.805-9.456-5.415-13.066C28.449 2.324 24.093.519 18.98.519c-5.101 0-9.456 1.805-13.065 5.415S.5 13.899.5 19c0 5.113 1.805 9.474 5.415 13.084 3.61 3.597 7.965 5.396 13.065 5.396 5.113 0 9.468-1.799 13.066-5.396z"/><path fill="none" stroke="#767676" stroke-linecap="round" stroke-linejoin="round" d="M28.924 25.765a11.284 11.284 0 0 1-2.12 2.84c-2.171 2.209-4.808 3.313-7.913 3.313s-5.755-1.104-7.951-3.313a11.078 11.078 0 0 1-2.082-2.84"/><path fill="#767676" d="M28.356 13.839c0-.782-.221-1.451-.663-2.007-.442-.555-.978-.833-1.609-.833-.618 0-1.148.278-1.59.833-.454.555-.681 1.224-.681 2.007 0 .795.227 1.464.681 2.007.442.555.972.833 1.59.833.631 0 1.167-.278 1.609-.833.442-.543.663-1.212.663-2.007zM13.969 13.839c0-.782-.221-1.451-.663-2.007-.442-.555-.978-.833-1.609-.833-.618 0-1.148.278-1.59.833-.454.555-.681 1.224-.681 2.007 0 .795.227 1.464.681 2.007.442.555.972.833 1.59.833.631 0 1.167-.278 1.609-.833.442-.543.663-1.212.663-2.007z"/><path fill="none" stroke="#767676" stroke-linecap="round" stroke-linejoin="round" d="M23.396 9.675c1.742-1.552 3.477-1.552 5.206 0M9.066 9.675c1.742-1.552 3.477-1.552 5.206 0"/></svg>