<svg id="icon-color-large-stop-recording-c" xmlns="http://www.w3.org/2000/svg" viewBox="0 0 38 38"><path fill="#CBCACA" stroke="#CBCACA" stroke-miterlimit="10" d="M35.992 11.14L28.5 16V9.5a1 1 0 0 0-1-1h-26a1 1 0 0 0-1 1v19a1 1 0 0 0 1 1h26a1 1 0 0 0 1-1V22l7.492 4.86c.664.388 1.508-.078 1.508-.833V11.973c0-.755-.845-1.222-1.508-.833z"/><path fill="#676767" d="M11 15h8v8h-8z"/><g fill="#E2E2E2"><path d="M35.719 10.72L29 15.079v2l6.719-4.359c1.037-.609 2.281.177 2.281 1.253v-2c0-1.076-1.244-1.862-2.281-1.253zM1.5 10h26c.827 0 1.5.673 1.5 1.5v-2c0-.827-.673-1.5-1.5-1.5h-26C.673 8 0 8.673 0 9.5v2c0-.827.673-1.5 1.5-1.5z"/></g><g fill="#A8A8A8"><path d="M27.5 28h-26C.673 28 0 27.327 0 26.5v2c0 .827.673 1.5 1.5 1.5h26c.827 0 1.5-.673 1.5-1.5v-2c0 .827-.673 1.5-1.5 1.5zM36.502 25.499c-.266 0-.53-.071-.764-.208L29 20.92v2l6.738 4.371a1.51 1.51 0 0 0 1.799-.199c.299-.279.463-.657.463-1.066v-2c0 .408-.164.787-.463 1.065a1.51 1.51 0 0 1-1.035.408z"/></g></svg>