<svg id="icon-color-large-support-document-a" xmlns="http://www.w3.org/2000/svg" viewBox="0 0 38 38"><path fill="#FFF" d="M7 37.5c-.827 0-1.5-.673-1.5-1.5V2c0-.827.673-1.5 1.5-1.5h15.609l1.905 7.621a.503.503 0 0 0 .365.364l7.621 1.906V36c0 .827-.673 1.5-1.5 1.5H7z"/><path fill="#FF3B30" d="M22.219 1l1.811 7.243c.09.358.369.638.728.728L32 10.781V36c0 .551-.449 1-1 1H7c-.551 0-1-.449-1-1V2c0-.551.449-1 1-1h15.219M23 0H7C5.9 0 5 .9 5 2v34c0 1.1.9 2 2 2h24c1.1 0 2-.9 2-2V10l-8-2-2-8z"/><path fill="#FBE9E8" d="M23.996 10.5A1.5 1.5 0 0 1 22.5 9V.5h.5c.132 0 .26.053.354.146l9 9.002A.505.505 0 0 1 32.5 10v.5h-8.504z"/><path fill="#FF3B30" d="M23 1l9 9h-8.004A1 1 0 0 1 23 9V1m0-1h-1v9c0 1.1.898 2 1.996 2H33v-1a.995.995 0 0 0-.293-.706l-9-9.003A1.006 1.006 0 0 0 23 0z"/><g><path fill="#FFF" d="M14.316 20.944c0-2.178 2.009-3.944 4.488-3.944s4.488 1.766 4.488 3.944c0 1.66-1.166 3.08-2.818 3.662-.985.347-1.67 1.242-1.67 2.287v1.002"/><path fill="none" stroke="#FF3B30" stroke-linecap="round" stroke-miterlimit="10" d="M14.316 20.944c0-2.178 2.009-3.944 4.488-3.944s4.488 1.766 4.488 3.944c0 1.66-1.166 3.08-2.818 3.662-.985.347-1.67 1.242-1.67 2.287v1.002"/><circle fill="#FF3B30" cx="18.804" cy="30.601" r=".633"/></g></svg>