<svg id="icon-color-large-support-call-c" xmlns="http://www.w3.org/2000/svg" viewBox="0 0 38 38"><g fill="#DEF1FF"><path d="M17.99.668c-.851 0-1.469.753-1.469 1.792 0 .93.701 1.63 1.631 1.63 9.074 0 16.457 7.383 16.457 16.457 0 .93.701 1.631 1.63 1.631.93 0 1.631-.701 1.631-1.631C37.87 9.586 28.952.668 17.99.668z"/><path d="M17.99 7.128c-.929 0-1.63.701-1.63 1.63s.701 1.63 1.63 1.63c5.507 0 10.159 4.652 10.159 10.159 0 .93.701 1.631 1.63 1.631.938 0 1.792-.7 1.792-1.469 0-7.489-6.092-13.581-13.581-13.581z"/><path d="M17.99 13.426c-.929 0-1.63.701-1.63 1.63s.701 1.63 1.63 1.63a3.864 3.864 0 0 1 3.86 3.86c0 .93.701 1.631 1.631 1.631.938 0 1.792-.7 1.792-1.469 0-4.015-3.267-7.282-7.283-7.282z"/></g><g fill="#FAFAFA"><path d="M17.275 1.375c10.962 0 19.88 8.918 19.88 19.879 0 .274-.067.525-.177.747a1.59 1.59 0 0 0 .884-1.454c0-10.961-8.918-19.879-19.88-19.879-.551 0-1.002.32-1.253.826.168-.075.35-.119.546-.119z"/><path d="M17.275 7.835c7.488 0 13.581 6.092 13.581 13.581 0 .177-.05.349-.131.512.492-.271.838-.73.838-1.219 0-7.489-6.093-13.581-13.581-13.581-.655 0-1.19.352-1.453.884.223-.11.473-.177.746-.177zM17.275 14.133c4.016 0 7.283 3.267 7.283 7.283 0 .177-.05.35-.131.512.492-.271.838-.73.838-1.219 0-4.016-3.267-7.283-7.283-7.283-.655 0-1.19.352-1.453.884.223-.11.473-.177.746-.177z"/></g><path fill="#27C762" d="M28.519 31.499l-3.392-3.392c-.971-.971-2.731-.913-3.452 0l-1.131 1.13c-.283.283-.59.315-.943-.032-4.168-3.444-7.675-6.95-10.399-10.389-.212-.317-.212-.743-.062-.984l1.131-1.13a2.525 2.525 0 0 0 .748-1.918c-.035-.634-.315-1.192-.748-1.534l-3.23-3.23c-.419-.418-1.027-.63-1.807-.63-.682 0-1.273.259-1.808.792L1.65 11.958c-1.323 1.324-1.485 3.527-.384 4.994 5.546 8.234 12.575 15.263 20.324 20.324.646.43 1.391.658 2.153.658 1.048 0 2.104-.42 3-1.205l1.776-1.777a2.526 2.526 0 0 0 .749-1.917c-.036-.636-.317-1.194-.749-1.536z"/><path fill="#39DF79" d="M1.972 16.244c5.546 8.234 12.575 15.263 20.324 20.324.646.43 1.391.658 2.153.658 1.048 0 2.104-.42 2.999-1.204l1.07-1.07a2.526 2.526 0 0 0 .749-1.917c-.035-.634-.316-1.192-.749-1.535l-3.392-3.392c-.971-.971-2.731-.913-3.452 0l-1.131 1.13c-.283.283-.59.315-.943-.032-4.168-3.444-7.675-6.95-10.399-10.389-.212-.317-.212-.743-.063-.985l.707-.706v-.001l.425-.425a2.526 2.526 0 0 0 .747-1.917c-.035-.634-.315-1.192-.748-1.534l-3.23-3.23c-.419-.418-1.027-.63-1.807-.63-.682 0-1.273.259-1.808.793L2.356 11.25c-1.324 1.325-1.486 3.527-.384 4.994z"/><path fill="#0CA440" d="M7.496 18.367a2.74 2.74 0 0 1-1.898-.766l1.628 1.628a.38.38 0 0 0 .539 0l1.628-1.628a2.737 2.737 0 0 1-1.897.766zM20.03 30.901c0 .737.294 1.404.766 1.898l-1.628-1.628a.38.38 0 0 1 0-.539l1.628-1.628a2.737 2.737 0 0 0-.766 1.897z"/><path fill="#A0EBBB" d="M6.528 16.154L4.06 13.686a1.702 1.702 0 0 1 0-2.406l.024-.024a1.702 1.702 0 0 1 2.406 0l2.468 2.468a1.702 1.702 0 0 1 0 2.406l-.024.024a1.7 1.7 0 0 1-2.406 0zM24.73 34.356l-2.468-2.468a1.702 1.702 0 0 1 0-2.406l.024-.024a1.702 1.702 0 0 1 2.406 0l2.468 2.468a1.702 1.702 0 0 1 0 2.406l-.024.024a1.702 1.702 0 0 1-2.406 0z"/><path fill="#27C762" d="M8.959 13.723l-2.468-2.468a1.702 1.702 0 0 0-2.406 0l-.024.025a1.688 1.688 0 0 0-.217.265 1.702 1.702 0 0 1 2.141.217l2.468 2.468c.582.582.654 1.48.217 2.141.094-.062.183-.134.265-.217l.024-.024a1.703 1.703 0 0 0 0-2.407zM27.161 31.925l-2.468-2.468a1.702 1.702 0 0 0-2.406 0l-.024.024a1.688 1.688 0 0 0-.217.265 1.702 1.702 0 0 1 2.141.217l2.468 2.468c.582.582.654 1.48.217 2.141.094-.062.183-.134.265-.217l.024-.024a1.702 1.702 0 0 0 0-2.406z"/></svg>