<svg id="icon-color-large-survey-a" xmlns="http://www.w3.org/2000/svg" viewBox="0 0 38 38"><path fill="#FFF" d="M31 38H7c-1.1 0-2-.9-2-2V5c0-1.1.9-2 2-2h24c1.1 0 2 .9 2 2v31c0 1.1-.9 2-2 2z"/><path fill="#BFC1C0" d="M12 8h14v1H12z"/><path fill="#FF3B30" d="M31 4c.551 0 1 .449 1 1v31c0 .551-.449 1-1 1H7c-.551 0-1-.449-1-1V5c0-.551.449-1 1-1h24m0-1H7c-1.1 0-2 .9-2 2v31c0 1.1.9 2 2 2h24c1.1 0 2-.9 2-2V5c0-1.1-.9-2-2-2z"/><path fill="#FBE9E8" d="M10.5 8.5V7c0-1.93 1.57-3.5 3.5-3.5h10c1.93 0 3.5 1.57 3.5 3.5v1.5h-17z"/><path fill="#FF3B30" d="M24 4c1.654 0 3 1.346 3 3v1H11V7c0-1.654 1.346-3 3-3h10m0-1H14a4 4 0 0 0-4 4v2h18V7a4 4 0 0 0-4-4z"/><circle fill="#FBE9E8" stroke="#FF3B30" stroke-miterlimit="10" cx="19" cy="3.5" r="3"/><path fill="none" stroke="#FF3B30" stroke-linecap="round" stroke-linejoin="round" stroke-miterlimit="10" d="M16.5 15.5h11M16.5 18.5h7M10.5 15.5h3v3h-3zM16.5 21.5h11M16.5 24.5h7M10.5 21.5h3v3h-3zM16.5 27.5h11M16.5 30.5h7M10.5 27.5h3v3h-3z"/></svg>