<svg id="icon-color-large-technical-diploma-a" xmlns="http://www.w3.org/2000/svg" viewBox="0 0 38 38"><path fill-rule="evenodd" clip-rule="evenodd" fill="#FFF" stroke="#FF3B30" stroke-linejoin="round" stroke-miterlimit="10" d="M2.556.5h32.889c1.135 0 2.056.912 2.056 2.038v22.925c0 1.125-.92 2.038-2.056 2.038H2.556A2.048 2.048 0 0 1 .5 25.462V2.538C.5 1.412 1.42.5 2.556.5z"/><path fill-rule="evenodd" clip-rule="evenodd" fill="#FBE9E8" d="M30.328 27.622L27.5 30.451l5.657 7.071v-4.243h4.242z"/><path fill="none" stroke="#FF3B30" stroke-linejoin="round" stroke-miterlimit="10" d="M30.328 27.622L27.5 30.451l5.657 7.071v-4.243h4.242z"/><path fill-rule="evenodd" clip-rule="evenodd" fill="#FBE9E8" d="M28.399 30.451l-2.828-2.829-7.071 5.657h4.243v4.243z"/><path fill="none" stroke="#FF3B30" stroke-linejoin="round" stroke-miterlimit="10" d="M28.399 30.451l-2.828-2.829-7.071 5.657h4.243v4.243z"/><g stroke="#FF3B30" stroke-miterlimit="10"><path fill="#FBE9E8" d="M28 19.296l.92 1.053 1.201-.717.55 1.286 1.363-.311.125 1.393 1.393.125-.311 1.364 1.286.55-.717 1.2 1.053.92-1.053.92.717 1.201-1.286.55.311 1.363-1.393.126-.125 1.392-1.363-.311-.55 1.286-1.201-.717-.92 1.053-.92-1.053-1.201.717-.55-1.286-1.363.311-.125-1.392-1.393-.126.311-1.363-1.286-.55.717-1.201-1.053-.92 1.053-.92-.717-1.2 1.286-.55-.311-1.364L23.841 22l.125-1.393 1.363.311.55-1.286 1.201.717z"/><path fill-rule="evenodd" clip-rule="evenodd" fill="#FFF" d="M28 22.743a3.42 3.42 0 0 1 3.424 3.416A3.42 3.42 0 0 1 28 29.575a3.42 3.42 0 0 1-3.424-3.416A3.42 3.42 0 0 1 28 22.743z"/></g><path fill-rule="evenodd" clip-rule="evenodd" fill="#FFF" stroke="#FF3B30" stroke-linecap="round" stroke-linejoin="round" stroke-miterlimit="10" d="M15.5 10a1.5 1.5 0 0 1-3 0V7a1.5 1.5 0 0 1 3 0"/><g fill-rule="evenodd" clip-rule="evenodd" fill="#FFF" stroke="#FF3B30" stroke-linecap="round" stroke-linejoin="round" stroke-miterlimit="10"><path d="M5.5 11.5v-6M4 5.5h3"/></g><g fill-rule="evenodd" clip-rule="evenodd" fill="#FFF" stroke="#FF3B30" stroke-linecap="round" stroke-linejoin="round" stroke-miterlimit="10"><path d="M10.5 11.5h-2v-6h2M10.5 8.5h-2"/></g><g fill-rule="evenodd" clip-rule="evenodd" fill="#FFF" stroke="#FF3B30" stroke-linecap="round" stroke-linejoin="round" stroke-miterlimit="10"><path d="M17.5 11.5v-6M20.5 11.5v-6M20 8.5h-2.5"/></g><path fill="#FFF" stroke="#FF3B30" stroke-linecap="round" stroke-miterlimit="10" d="M4.5 15.5h29M4.5 19.5h13M4.5 23.5h13M25.5 7.5h8M25.5 11.5h8"/></svg>