<svg id="icon-color-medium-telephony-c" xmlns="http://www.w3.org/2000/svg" viewBox="0 0 24 24"><path fill="none" stroke="#DEF1FF" stroke-linecap="round" stroke-linejoin="round" stroke-miterlimit="10" d="M12.012.486c6.351 0 11.5 5.149 11.5 11.5M12.012 3.486a8.5 8.5 0 0 1 8.5 8.5M12.012 6.486a5.5 5.5 0 0 1 5.5 5.5"/><path fill="#39DF79" d="M14.759 23.976c-2.982 0-5.531-1.439-9.395-5.302l-.038-.039C1.454 14.763.015 12.212.021 9.221c.002-1.447.556-2.725 1.691-3.906l1.863-1.864c.596-.595 1.518-.605 2.1-.022L8.7 6.453c.541.542.747 1.655.202 2.277l-1.437 1.438c-.604.604-.686 1.436-.188 1.935l4.617 4.617c.237.237.539.354.892.326.367-.026.737-.208 1.042-.513l1.415-1.415c.646-.566 1.76-.361 2.301.18l3.024 3.024c.582.583.572 1.505-.022 2.1l-1.856 1.857c-1.188 1.142-2.466 1.695-3.914 1.698l-.017-.001z"/><path fill="#27C762" d="M15.772 22.984h-.018c-2.982 0-5.531-1.439-9.395-5.302l-.038-.039C2.449 13.771 1.01 11.22 1.016 8.229c.002-1.447.556-2.725 1.691-3.906l.864-.864-.001.001-1.862 1.862C.572 6.504.019 7.782.017 9.229c-.006 2.991 1.433 5.542 5.305 9.414l.038.039c3.863 3.863 6.412 5.302 9.395 5.302h.018c1.448-.003 2.727-.556 3.914-1.698l.999-.999c-1.189 1.141-2.467 1.694-3.914 1.697z"/><path fill="#A0EBBB" d="M6.172 8.378l-2.049-2.05a1.217 1.217 0 0 1 0-1.721l.017-.017a1.217 1.217 0 0 1 1.721 0L7.91 6.64a1.217 1.217 0 0 1 0 1.721l-.017.017a1.217 1.217 0 0 1-1.721 0z"/><path fill="#27C762" d="M7.91 6.64L5.861 4.59a1.217 1.217 0 0 0-1.721 0l-.017.018a1.198 1.198 0 0 0-.155.189 1.217 1.217 0 0 1 1.531.156l2.049 2.049c.416.416.468 1.058.155 1.531.067-.044.131-.096.19-.155l.017-.018a1.215 1.215 0 0 0 0-1.72z"/><path fill="#A0EBBB" d="M17.672 19.878l-2.049-2.049a1.217 1.217 0 0 1 0-1.721l.017-.017a1.217 1.217 0 0 1 1.721 0l2.049 2.049a1.217 1.217 0 0 1 0 1.721l-.017.017a1.217 1.217 0 0 1-1.721 0z"/><path fill="#27C762" d="M19.41 18.14l-2.049-2.049a1.217 1.217 0 0 0-1.721 0l-.017.017a1.205 1.205 0 0 0-.155.19 1.217 1.217 0 0 1 1.531.155l2.049 2.049c.416.416.468 1.058.155 1.531.067-.044.131-.096.19-.155l.017-.017a1.216 1.216 0 0 0 0-1.721z"/><path fill="#0CA440" d="M6.45 10.269a2.2 2.2 0 0 1-1.525-.615l1.308 1.308c.12.12.314.12.433 0l1.308-1.308a2.196 2.196 0 0 1-1.524.615zM13.684 17.593a2.2 2.2 0 0 0 .615 1.525l-1.308-1.308a.305.305 0 0 1 0-.433l1.308-1.308a2.2 2.2 0 0 0-.615 1.524z"/></svg>