<svg id="icon-color-large-textbook-c" xmlns="http://www.w3.org/2000/svg" viewBox="0 0 38 38"><path fill="#AD74AF" stroke="#965E9F" stroke-miterlimit="10" d="M36.5 4.5h-35a1 1 0 0 0-1 1v26a1 1 0 0 0 1 1h15a2.5 2.5 0 1 0 5 0h15a1 1 0 0 0 1-1v-26a1 1 0 0 0-1-1z"/><path fill="#AD74AF" stroke="#965E9F" stroke-linecap="round" stroke-linejoin="round" stroke-miterlimit="10" d="M34.5 31.417a1 1 0 0 0 1-1V5.5a1 1 0 0 0-1-1H20a1 1 0 0 0-1 1 1 1 0 0 0-1-1H3.5a1 1 0 0 0-1 1v24.917a1 1 0 0 0 1 1h31z"/><path fill="#DEEDF9" d="M34.5 3H20c-.384 0-.734.145-1 .383A1.494 1.494 0 0 0 18 3H3.5C2.673 3 2 3.673 2 4.5v24.917c0 .827.673 1.5 1.5 1.5h13.397c.518 0 .992.262 1.269.698l.411.651a.5.5 0 0 0 .846.001l.411-.65a1.49 1.49 0 0 1 1.269-.699H34.5c.827 0 1.5-.673 1.5-1.5V4.5c0-.827-.673-1.5-1.5-1.5z"/><path opacity=".5" fill="#A8C1D1" stroke="#A8C1D1" stroke-linejoin="round" stroke-miterlimit="10" d="M5.5 7.5h10v6h-10z"/><path fill="#A8C1D1" stroke="#A8C1D1" stroke-linejoin="round" stroke-miterlimit="10" d="M15.5 13.5h-10l2.917-3.25 3.333 2.955 1.667-1.773z"/><circle fill="#A8C1D1" cx="12" cy="9" r="1"/><path opacity=".5" fill="#FFF" d="M18 3v28.412c.059.064.118.128.166.203l.411.651A.5.5 0 0 0 19 32.5V3.383A1.494 1.494 0 0 0 18 3z"/><path opacity=".5" fill="#A9C2D1" d="M20 3c-.384 0-.734.145-1 .383V32.5a.502.502 0 0 0 .423-.233l.411-.65c.048-.076.107-.14.166-.204V3z"/><path fill="#A9C2D1" d="M34.5 29.917H21.103c-.518 0-.992.262-1.269.699l-.411 1.65a.5.5 0 0 1-.846.001l-.411-1.651a1.492 1.492 0 0 0-1.269-.698H3.5c-.827 0-1.5-.673-1.5-1.5v1c0 .827.673 1.5 1.5 1.5h13.397c.518 0 .992.262 1.269.698l.411.651a.502.502 0 0 0 .846 0l.411-.65a1.49 1.49 0 0 1 1.269-.699H34.5c.827 0 1.5-.673 1.5-1.5v-1c0 .826-.673 1.499-1.5 1.499z"/><path fill="none" stroke="#A9C2D1" stroke-linecap="round" stroke-linejoin="round" stroke-miterlimit="10" d="M5.5 17.5h10M5.5 21.5h10M5.5 25.539h4.885M22.5 7.5h10M22.5 11.5h10M22.5 15.5h10M22.5 19.5h10M22.5 23.5H28"/></svg>