<svg id="icon-color-medium-trash-c" xmlns="http://www.w3.org/2000/svg" viewBox="0 0 24 24"><path fill="#E5E5E4" d="M21.06 3.504a.5.5 0 0 1 .429.562l-2.365 17.609c-.099 1.27-1.22 2.325-2.497 2.325H7.36c-1.276 0-2.397-1.055-2.499-2.352L2.499 4.066a.5.5 0 0 1 .428-.562H21.06z"/><path fill="#CDCCCC" d="M16.741 23H7.246c-1.126 0-2.131-.804-2.455-1.875l.07.524C4.962 22.945 6.083 24 7.36 24h9.268c1.276 0 2.397-1.055 2.496-2.324l.072-.534C18.873 22.196 17.868 23 16.741 23z"/><g fill="none" stroke="#777677" stroke-linecap="round" stroke-linejoin="round" stroke-miterlimit="10"><path d="M7.571 7.135l1.326 13.269M16.417 7.135L15.09 20.404M11.994 7.135v13.269"/></g><path fill="none" stroke="#E5E5E4" stroke-linecap="round" stroke-miterlimit="10" d="M8.455 3V1.983c0-.818.67-1.483 1.493-1.483h4.09a1.49 1.49 0 0 1 1.494 1.483V3M1.494 3.5h21"/><path fill="#CDCCCC" d="M2.499 4.066L2.624 5h18.739l.125-.934c.004-.023-.004-.043-.004-.066H2.503c0 .023-.008.043-.004.066z"/></svg>