<svg id="icon-color-large-user-card-c" xmlns="http://www.w3.org/2000/svg" viewBox="0 0 38 38"><path fill="#E2E2E2" d="M5 13v19c0 1.1.9 2 2 2h24c1.1 0 2-.9 2-2V13H5z"/><path fill="#FFF" d="M5 13v17c0 1.1.9 2 2 2h24c1.1 0 2-.9 2-2V13H5z"/><path fill="#AAC3D4" d="M19 24c-2.205 0-4-1.795-4-4s1.795-3.962 4-4c2.164-.038 3.954 1.753 4 4 .045 2.205-1.795 4-4 4z"/><path fill="#FFF" d="M19 22.286c-.945 0-1.714-1.912-1.714-2.857 0-.945.769-1.714 1.714-1.714s1.714.769 1.714 1.714-.769 2.857-1.714 2.857z"/><path fill="#FFF" d="M19 24a3.98 3.98 0 0 0 2.892-1.252A3.42 3.42 0 0 0 19 21.143a3.42 3.42 0 0 0-2.892 1.605A3.98 3.98 0 0 0 19 24z"/><path fill="#14C4CA" d="M30.926 4H7.074C5.933 4 5 4.9 5 6v7h28V6c0-1.1-.933-2-2.074-2zM20.5 10h-3a1.5 1.5 0 0 1 0-3h3a1.5 1.5 0 0 1 0 3z"/><path opacity=".2" fill="#303030" d="M20.5 10h-3A1.5 1.5 0 0 1 16 8.5h-1c0 1.378 1.121 2.5 2.5 2.5h3c1.379 0 2.5-1.122 2.5-2.5h-1a1.5 1.5 0 0 1-1.5 1.5z"/><path fill="#2EDFE0" d="M20.5 6h-3A2.503 2.503 0 0 0 15 8.5h1A1.5 1.5 0 0 1 17.5 7h3A1.5 1.5 0 0 1 22 8.5h1C23 7.122 21.879 6 20.5 6z"/><path fill="none" stroke="#CDCDCD" stroke-linecap="round" stroke-miterlimit="10" d="M12.5 26.5h13M14.5 28.5h9"/></svg>