<svg id="icon-color-medium-vertical-menu-c" xmlns="http://www.w3.org/2000/svg" viewBox="0 0 24 24"><path fill="#C26FD2" d="M24 12c0-6.6-5.4-12-12-12S0 5.4 0 12s5.4 12 12 12 12-5.4 12-12zM10.5 7c0-.8.7-1.5 1.5-1.5s1.5.7 1.5 1.5-.7 1.5-1.5 1.5-1.5-.7-1.5-1.5zm0 5c0-.8.7-1.5 1.5-1.5s1.5.7 1.5 1.5-.7 1.5-1.5 1.5-1.5-.7-1.5-1.5zm0 5c0-.8.7-1.5 1.5-1.5s1.5.7 1.5 1.5-.7 1.5-1.5 1.5-1.5-.7-1.5-1.5z"/><circle fill="#FFF" cx="12" cy="7" r="1.5"/><circle fill="#FFF" cx="12" cy="12" r="1.5"/><circle fill="#FFF" cx="12" cy="17" r="1.5"/></svg>