<svg id="icon-color-medium-video-on-c" xmlns="http://www.w3.org/2000/svg" viewBox="0 0 24 24"><path fill="#26D3F9" d="M23.076 5.984a.829.829 0 0 0-.85-.004L18.5 8.395V5.5a1 1 0 0 0-1-1h-16a1 1 0 0 0-1 1v12a1 1 0 0 0 1 1h16a1 1 0 0 0 1-1v-2.895l3.726 2.414a.845.845 0 0 0 .85-.002.87.87 0 0 0 .424-.75V6.734a.872.872 0 0 0-.424-.75z"/><path fill="none" d="M1.5 18h16a.5.5 0 0 0 .5-.5v-3.814l4.497 2.914a.386.386 0 0 0 .328-.016.369.369 0 0 0 .175-.317V11.5H1v6a.5.5 0 0 0 .5.5z"/><path fill="#11B1D0" d="M23 16.267a.368.368 0 0 1-.175.317.39.39 0 0 1-.328.016L18 13.686V17.5a.5.5 0 0 1-.5.5h-16a.5.5 0 0 1-.5-.5v-6H0v6c0 .827.673 1.5 1.5 1.5h16c.827 0 1.5-.673 1.5-1.5v-1.975l2.974 1.926c.406.236.934.241 1.357-.005.412-.244.669-.696.669-1.179V11.5h-1v4.767z"/><path fill="#86EAFB" d="M23.331 5.554a1.337 1.337 0 0 0-1.377.007L19 7.475V5.5c0-.827-.673-1.5-1.5-1.5h-16C.673 4 0 4.673 0 5.5v6h1v-6a.5.5 0 0 1 .5-.5h16a.5.5 0 0 1 .5.5v3.814l4.478-2.901a.341.341 0 0 1 .344.001c.11.066.178.189.178.32V11.5h1V6.734c0-.483-.256-.935-.669-1.18z"/></svg>