<svg id="icon-color-large-video-a" xmlns="http://www.w3.org/2000/svg" viewBox="0 0 38 38"><path fill="#FFF" d="M31 33H7c-1.1 0-2-.9-2-2V8c0-1.1.9-2 2-2h24c1.1 0 2 .9 2 2v23c0 1.1-.9 2-2 2z"/><path fill="#FBE9E8" d="M10 33H7c-1.1 0-2-.9-2-2V8c0-1.1.9-2 2-2h3v27zM28 33h3c1.1 0 2-.9 2-2V8c0-1.1-.9-2-2-2h-3v27zM17 23.5a.498.498 0 0 1-.5-.5v-7a.498.498 0 0 1 .5-.5.5.5 0 0 1 .287.09l5 3.5a.503.503 0 0 1 0 .819l-5 3.5A.494.494 0 0 1 17 23.5z"/><path fill="#FF3B30" d="M17 16l5 3.5-5 3.5v-7m0-1a.998.998 0 0 0-1 1v7a.999.999 0 0 0 1.574.819l5-3.5a1 1 0 0 0-.001-1.638l-5-3.5A.998.998 0 0 0 17 15zM9 7h1v25H9zM28 7h1v25h-1zM6 11h3v1H6zM6 15h3v1H6zM6 23h3v1H6zM6 27h3v1H6zM6 19h3v1H6zM29 11h3v1h-3zM29 15h3v1h-3zM29 23h3v1h-3zM29 27h3v1h-3zM29 19h3v1h-3z"/><g><path fill="#FF3B30" d="M31 7c.551 0 1 .449 1 1v23c0 .551-.449 1-1 1H7c-.551 0-1-.449-1-1V8c0-.551.449-1 1-1h24m0-1H7c-1.1 0-2 .9-2 2v23c0 1.1.9 2 2 2h24c1.1 0 2-.9 2-2V8c0-1.1-.9-2-2-2z"/></g></svg>