<svg id="icon-color-large-whiteboard-a" xmlns="http://www.w3.org/2000/svg" viewBox="0 0 38 38"><path fill="#FFF" d="M25.8 27.5H.5v-26h35v19.1"/><path fill="#FBE9E8" d="M25.7 27.5H.5v-3h28.2z"/><g stroke="#FF3B30" stroke-miterlimit="10"><path fill="#FBE9E8" stroke-linejoin="round" d="M22.3 31.2l-1.8 4.5c-.1.5.3.9.8.8l4.5-1.8"/><path fill="#FFF" d="M26.2 34.5c-.3.3-.7.3-.9 0l-2.8-2.8c-.3-.3-.3-.7 0-.9l11.1-11.1c.3-.3.7-.3.9 0l2.8 2.8c.3.3.3.7 0 .9L26.2 34.5z"/><path fill="#FBE9E8" stroke-linejoin="round" d="M31.3 22l2.3-2.3c.3-.3.7-.3.9 0l2.8 2.8c.3.3.3.7 0 .9L35 25.7 31.3 22z"/><path fill="none" stroke-linecap="round" d="M31.3 22l3.7 3.7"/></g><path fill="none" stroke="#FF3B30" stroke-linejoin="round" stroke-miterlimit="10" d="M25.8 27.5H.5v-26h35v19.1"/><path fill="none" stroke="#FF3B30" stroke-linecap="round" stroke-miterlimit="10" d="M.5 24.5h28.3M19 8.5h11M19 11.5h8M19 14.5h10M19 17.5h3M25 17.5h3"/><path fill="#FBE9E8" stroke="#FF3B30" stroke-linejoin="round" stroke-miterlimit="10" d="M10.5 12.5v-4H10c-2.5 0-4.5 2-4.5 4.5s2 4.5 4.5 4.5 4.5-2 4.5-4.5v-.5h-4z"/></svg>