<svg id="icon-color-large-wiki-a" xmlns="http://www.w3.org/2000/svg" viewBox="0 0 38 38"><path fill="#FFF" d="M31 32H7c-1.1 0-2-.9-2-2V7c0-1.1.9-2 2-2h24c1.1 0 2 .9 2 2v23c0 1.1-.9 2-2 2z"/><path fill="#FBE9E8" d="M5 12V7c0-1.1.933-2 2.074-2h23.852C32.067 5 33 5.9 33 7v5H5z"/><path fill="#FF3B30" d="M6 12h26v1H6z"/><path fill="#FF3B30" d="M31 6c.551 0 1 .449 1 1v23c0 .551-.449 1-1 1H7c-.551 0-1-.449-1-1V7c0-.551.449-1 1-1h24m0-1H7c-1.1 0-2 .9-2 2v23c0 1.1.9 2 2 2h24c1.1 0 2-.9 2-2V7c0-1.1-.9-2-2-2z"/><circle fill="#FF3B30" cx="9" cy="9" r="1"/><circle fill="#FF3B30" cx="13" cy="9" r="1"/><circle fill="#FF3B30" cx="17" cy="9" r="1"/><path fill="none" stroke="#FF3B30" stroke-linejoin="round" stroke-miterlimit="10" d="M8.5 15.5h9v6h-9z"/><path fill="#FFF" stroke="#FF3B30" stroke-linecap="round" stroke-miterlimit="10" d="M8.5 24.5h9M8.5 27.5h9"/><path fill="none" stroke="#FF3B30" stroke-linejoin="round" stroke-miterlimit="10" d="M20.5 15.5h9v6h-9z"/><path fill="#FFF" stroke="#FF3B30" stroke-linecap="round" stroke-miterlimit="10" d="M20.5 24.5h9M20.5 27.5h9"/></svg>