<svg id="icon-color-large-zip-a" xmlns="http://www.w3.org/2000/svg" viewBox="0 0 38 38"><path fill="#FFF" d="M10 20c2.2 0 4-1.8 4-4M7 37.5c-.827 0-1.5-.673-1.5-1.5V2c0-.827.673-1.5 1.5-1.5h15.609l1.979 7.912 7.912 1.979V36c0 .827-.673 1.5-1.5 1.5H7z"/><path fill="#BFC1C0" d="M22.219 1l1.811 7.243.146.582.582.146L32 10.781V36c0 .551-.449 1-1 1H7c-.551 0-1-.449-1-1V2c0-.551.449-1 1-1h15.219M23 0H7C5.9 0 5 .9 5 2v34c0 1.1.9 2 2 2h24c1.1 0 2-.9 2-2V10l-8-2-2-8z"/><path fill="#FFF" d="M7 37.5c-.827 0-1.5-.673-1.5-1.5V2c0-.827.673-1.5 1.5-1.5h24c.827 0 1.5.673 1.5 1.5v34c0 .827-.673 1.5-1.5 1.5H7z"/><path fill="#FF3B30" d="M31 1c.551 0 1 .449 1 1v34c0 .551-.449 1-1 1H7c-.551 0-1-.449-1-1V2c0-.551.449-1 1-1h24m0-1H7C5.9 0 5 .9 5 2v34c0 1.1.9 2 2 2h24c1.1 0 2-.9 2-2V2c0-1.1-.9-2-2-2z"/><path fill="#FBE9E8" d="M17 1h2v2h-2zM19 3h2v2h-2zM17 5h2v2h-2zM19 7h2v2h-2zM17 9h2v2h-2zM19 11h2v2h-2zM17 13h2v2h-2zM19 15h2v2h-2zM17 17h2v2h-2zM19 19h2v2h-2z"/></svg>