<svg id="icon-color-large-zip-c" xmlns="http://www.w3.org/2000/svg" viewBox="0 0 38 38"><path fill="#CEEAF8" d="M31 38H7c-1.1 0-2-.9-2-2V2c0-1.1.9-2 2-2h24c1.1 0 2 .9 2 2v34c0 1.1-.9 2-2 2z"/><path fill="#DFF1FF" d="M31 36H7c-1.1 0-2-.9-2-2V2c0-1.1.9-2 2-2h24c1.1 0 2 .9 2 2v32c0 1.1-.9 2-2 2z"/><path fill="#AAC3D4" d="M17 1h2v2h-2z"/><path fill="#FFF" d="M19 1h2v2h-2z"/><path fill="#AAC3D4" d="M19 3h2v2h-2zM17 5h2v2h-2zM19 7h2v2h-2zM17 9h2v2h-2zM19 11h2v2h-2zM17 13h2v2h-2zM19 15h2v2h-2zM17 17h2v2h-2zM19 19h2v2h-2z"/><path fill="#FFF" d="M17 3h2v2h-2zM16 0h1v22h-1z"/><path fill="#C1E8F7" d="M21 0h1v21h-1zM21 1h-4l-1-1h5z"/><path fill="#FFF" d="M19 5h2v2h-2zM17 7h2v2h-2zM19 9h2v2h-2zM17 11h2v2h-2zM19 13h2v2h-2zM17 15h2v2h-2zM19 17h2v2h-2zM17 19h2v2h-2zM22 22h-6v-1h5z"/></svg>