<svg id="icon-stroke-medium-admin-menu" xmlns="http://www.w3.org/2000/svg" viewBox="0 0 24 24"><ellipse fill="none"  stroke-miterlimit="10" cx="9.503" cy="7.818" rx="6.273" ry="7.318"/><path fill="none"  stroke-linecap="round" stroke-miterlimit="10" d="M4.022 12.289c-1.557 1.653-2.535 3.995-2.535 6.6 0 1.686.415 3.259 1.125 4.611h13.781"/><path fill="none"  stroke-miterlimit="10" d="M16.991 13.5a.396.396 0 0 0-.15.029l-.575.23a.401.401 0 0 0-.251.407l.104 1.227c-.252.19-.48.409-.68.654l-1.214-.131c-.015-.002-.029-.002-.043-.002a.401.401 0 0 0-.369.244l-.244.57a.402.402 0 0 0 .11.465l.915.773a3.864 3.864 0 0 0-.017.985l-.927.747a.4.4 0 0 0-.121.462l.23.574c.062.154.21.252.373.252l.034-.001 1.168-.098c.204.274.44.517.706.728l-.125 1.161a.4.4 0 0 0 .242.412l.57.244a.403.403 0 0 0 .466-.111l.754-.893a3.985 3.985 0 0 0 1.012.008l.737.915a.402.402 0 0 0 .464.121l.575-.231a.402.402 0 0 0 .251-.407l-.1-1.189c.262-.201.496-.432.697-.689l1.193.129a.403.403 0 0 0 .413-.241l.243-.57a.401.401 0 0 0-.11-.464l-.936-.791c.039-.313.04-.628.004-.939l.961-.774a.4.4 0 0 0 .121-.462l-.231-.575a.403.403 0 0 0-.373-.252l-.034.002-1.247.105c-.187-.242-.4-.46-.637-.65l.134-1.245a.4.4 0 0 0-.241-.412l-.569-.244a.4.4 0 0 0-.465.111l-.809.951a3.9 3.9 0 0 0-.912-.012l-.783-.973a.403.403 0 0 0-.314-.15z"/><path fill="none"  stroke-miterlimit="10" d="M18.5 20.167a1.67 1.67 0 0 1-1.667-1.667 1.67 1.67 0 0 1 1.667-1.667 1.67 1.67 0 0 1 1.667 1.667 1.67 1.67 0 0 1-1.667 1.667z"/><path fill="none"  stroke-linecap="round" stroke-miterlimit="10" d="M16.148 13.833a8.949 8.949 0 0 0-1.164-1.544"/></svg>