<svg id="icon-stroke-small-applause" xmlns="http://www.w3.org/2000/svg" viewBox="0 0 16 16"><g fill="none"  stroke-linecap="round" stroke-miterlimit="10"><path d="M5.993 7.985l2.195-2.343a1.276 1.276 0 0 0 .004-1.726l-.059-.061a1.103 1.103 0 0 0-1.625.004L3.644 6.912"/><path d="M8.441 8.953l2.648-2.812a1.276 1.276 0 0 0 .004-1.726l-.059-.062a1.102 1.102 0 0 0-1.624.004L6.005 7.972"/><path d="M10.121 10.736l2.234-2.391a1.276 1.276 0 0 0 .004-1.726l-.059-.062a1.103 1.103 0 0 0-1.625.004l-2.99 3.195"/><path d="M4.767 5.731c-.036-.541-.362-1.059-.849-1.3-.69-.341-1.512-.024-1.833.708L.664 9.064a2.61 2.61 0 0 0 .556 2.703l2.025 2.15c1.988 2.111 5.241 2.111 7.229 0l2.68-2.846c.449-.477.465-1.235.036-1.691l-.117-.124c-.429-.456-1.143-.438-1.592.039L9.38 11.527M11.5.5V2M8.5.5l1 1.5M15.5 4.5H14M15.5 7.5l-1.5-1M14.5 1.5L13 3"/></g></svg>