<svg id="icon-stroke-medium-audio-on" xmlns="http://www.w3.org/2000/svg" viewBox="0 0 24 24"><path fill="none"  stroke-linecap="round" stroke-linejoin="round" stroke-miterlimit="10" d="M17.501 13.973c0 3.053-2.462 5.527-5.5 5.527h.084c-3.038 0-5.584-2.475-5.584-5.527V6.027C6.501 2.974 8.963.5 12.001.5h.084c3.038 0 5.416 2.475 5.416 5.527v7.946z"/><path fill="none"  stroke-linecap="round" stroke-linejoin="round" stroke-miterlimit="10" d="M19.501 9.5v5.147c0 3.91-3.539 6.682-7.418 6.85-.027.007-.055 0-.082 0-.027 0-.048.007-.082 0-3.893-.182-7.418-3.176-7.418-7.086V9.5M15.001 23.5h-6M12.001 22.943v-1.446"/></svg>