<svg id="icon-stroke-medium-calendar" xmlns="http://www.w3.org/2000/svg" viewBox="0 0 24 24"><path fill="none"  stroke-miterlimit="10" d="M7.5 3.7c0 .442-.336.8-.75.8h-1.5c-.414 0-.75-.358-.75-.8V1.3c0-.442.336-.8.75-.8h1.5c.414 0 .75.358.75.8v2.4zM19.5 3.7c0 .442-.336.8-.75.8h-1.5c-.414 0-.75-.358-.75-.8V1.3c0-.442.336-.8.75-.8h1.5c.414 0 .75.358.75.8v2.4z"/><path fill="none"  stroke-linejoin="round" stroke-miterlimit="10" d="M4.5 10.5h3v2h-3zM10.5 10.5h3v2h-3zM16.5 10.5h3v2h-3zM4.5 14.5h3v2h-3zM10.5 14.5h3v2h-3zM16.5 14.5h3v2h-3zM4.5 18.5h3v2h-3zM10.5 18.5h3v2h-3zM16.5 18.5h3v2h-3z"/><path fill="none"  stroke-miterlimit="10" d="M19.5 2.5h2a2 2 0 0 1 2 2v17a2 2 0 0 1-2 2h-19a2 2 0 0 1-2-2v-17a2 2 0 0 1 2-2h2M7.5 2.5h9M1 7.5h22"/></svg>