<svg id="icon-stroke-medium-camera" xmlns="http://www.w3.org/2000/svg" viewBox="0 0 24 24"><path fill="none"  stroke-linejoin="round" stroke-miterlimit="10" d="M21.5 6.5h-2v-3a1 1 0 0 0-1-1h-6a1 1 0 0 0-1 1v3h-9a2 2 0 0 0-2 2v10a2 2 0 0 0 2 2h19a2 2 0 0 0 2-2v-10a2 2 0 0 0-2-2z"/><path fill="none"  stroke-linejoin="round" stroke-miterlimit="10" d="M4.5 4.487h3V6.5h-3z"/><circle fill="none"  stroke-width=".909" stroke-linejoin="round" stroke-miterlimit="10" cx="15.5" cy="13.5" r="5"/><circle fill="none"  stroke-width=".923" stroke-linejoin="round" stroke-miterlimit="10" cx="15.5" cy="13.5" r="3"/><path fill="none"  stroke-linecap="round" stroke-miterlimit="10" d="M14 5.5h3"/><path fill="none"  stroke-linecap="round" stroke-linejoin="round" stroke-miterlimit="10" d="M7.5 8.5v10"/></svg>