<svg id="icon-stroke-medium-course-complete" xmlns="http://www.w3.org/2000/svg" viewBox="0 0 24 24"><path fill="none"  stroke-linecap="round" stroke-miterlimit="10" d="M20.5 13.5V6.6M17.5.5h-13c-1.7 0-3 1.4-3 3v17c0 1.6 1.3 3 3 3h8"/><path fill="none"  stroke-linecap="round" stroke-miterlimit="10" d="M20.5 6.5h-16c-1.7 0-3-1.4-3-3s1.3-3 3-3h16M4.5 4.5h16M4.5 2.5h16"/><path fill="none"  stroke-miterlimit="10" d="M4.5 6.5v17"/><path fill="none"  stroke-linecap="round" stroke-linejoin="round" stroke-miterlimit="10" d="M13.5 20l3.5 3.5 5.5-8.5"/><path fill="none"  stroke-miterlimit="10" d="M16.5 13.5h-8c-.6 0-1-.4-1-1v-2c0-.6.4-1 1-1h8c.5 0 1 .4 1 1v2c0 .6-.5 1-1 1z"/></svg>