<svg id="icon-stroke-medium-courses" xmlns="http://www.w3.org/2000/svg" viewBox="0 0 24 24"><path fill="none"  stroke-miterlimit="10" d="M18.5.512h-13c-1.65 0-3 1.35-3 3v17c0 1.65 1.35 3 3 3h13c1.65 0 3-1.35 3-3V6.484"/><path fill="none"  stroke-linecap="round" stroke-miterlimit="10" d="M21.5 6.512h-16c-1.65 0-3-1.35-3-3s1.35-3 3-3h16M5.5 4.512h16M5.5 2.512h16"/><path fill="none"  stroke-miterlimit="10" d="M5.5 6.501v17.011M17.5 13.512h-8c-.55 0-1-.45-1-1v-2c0-.55.45-1 1-1h8c.55 0 1 .45 1 1v2c0 .55-.45 1-1 1z"/><path fill="none"  stroke-linecap="round" stroke-miterlimit="10" d="M10.5 18.512h6M11.5 20.512h4"/></svg>