<svg id="icon-stroke-medium-exam" xmlns="http://www.w3.org/2000/svg" viewBox="0 0 24 24"><path fill="none"  stroke-width="1.005" stroke-linejoin="round" stroke-miterlimit="10" d="M20.5 23.5h-17c-.6 0-1-.4-1-1v-21c0-.6.4-1 1-1h17c.6 0 1 .4 1 1v21c0 .6-.4 1-1 1z"/><path fill="none"  stroke-linejoin="round" stroke-miterlimit="10" d="M12.5 3.5h2v2h-2z"/><path fill="none"  stroke-linejoin="round" stroke-miterlimit="10" d="M13.5 3.5h1v2h-1z"/><path fill="none"  stroke-linecap="round" stroke-linejoin="round" stroke-miterlimit="10" d="M5.5 5.5h3M5.5 20.5h3M5.5 3.5h5"/><path fill="none"  stroke-linejoin="round" stroke-miterlimit="10" d="M12.5 7.5h2v2h-2zM16.5 3.5h2v2h-2zM12.5 18.5h2v2h-2z"/><path fill="none"  stroke-linecap="round" stroke-linejoin="round" stroke-miterlimit="10" d="M5.5 18.5h5"/><path fill="none"  stroke-linejoin="round" stroke-miterlimit="10" d="M16.5 7.5h2v2h-2z"/><path fill="none"  stroke-linejoin="round" stroke-miterlimit="10" d="M17.5 7.5h1v2h-1z"/><path fill="none"  stroke-linecap="round" stroke-linejoin="round" stroke-miterlimit="10" d="M5.5 9.5h3M5.5 7.5h5"/><path fill="none"  stroke-linejoin="round" stroke-miterlimit="10" d="M16.5 18.5h2v2h-2z"/><path fill="none"  stroke-linejoin="round" stroke-miterlimit="10" d="M17.5 18.5h1v2h-1z"/><path fill="none"  stroke-miterlimit="10" d="M5 13.5h2M9 13.5h2M13 13.5h2M17 13.5h2"/></svg>