<svg id="icon-stroke-medium-full-screen" xmlns="http://www.w3.org/2000/svg" viewBox="0 0 24 24"><path fill="none"  stroke-linecap="round" stroke-linejoin="round" stroke-miterlimit="10" d="M18.499 14.5v-13a1 1 0 0 0-1-1h-16a1 1 0 0 0-1 1v14a1 1 0 0 0 1 1h12M.499 4.5h18"/><path fill="none"  stroke-linecap="round" stroke-linejoin="round" stroke-miterlimit="10" d="M5.499 16.5v6a1 1 0 0 0 1 1h16a1 1 0 0 0 1-1v-14a1 1 0 0 0-1-1h-4"/><path fill="none"  stroke-linecap="round" stroke-linejoin="round" stroke-miterlimit="10" d="M20.499 15.5v5h-5M19.999 20l-9.5-9.5"/></svg>