<svg id="icon-stroke-medium-halloween" xmlns="http://www.w3.org/2000/svg" viewBox="0 0 24 24"><path fill="none"  stroke-linecap="round" stroke-linejoin="round" stroke-miterlimit="10" d="M16.5 23.5h-9a7 7 0 0 1-7-7v-4a7 7 0 0 1 7-7h9a7 7 0 0 1 7 7v4a7 7 0 0 1-7 7z"/><path fill="none"  stroke-linecap="round" stroke-linejoin="round" stroke-miterlimit="10" d="M8.113 7.37a4.991 4.991 0 0 1 3.9-1.87 4.99 4.99 0 0 1 3.896 1.866M15.909 21.63a4.991 4.991 0 0 1-3.9 1.87 4.99 4.99 0 0 1-3.896-1.866"/><path fill="none"  stroke-linecap="round" stroke-linejoin="round" stroke-miterlimit="10" d="M14 5.5h-3l2-5h2zM5.513 12.371h3l-1.488-3zM15.513 12.371h3l-1.488-3zM11.013 14h2l-.992-2zM18.857 15.269c-1.65.752-4.103 1.231-6.845 1.231-.517 0-1.02-.022-1.513-.055V18h-2v-1.783c-1.292-.214-2.433-.538-3.332-.948-.1.236-.155.48-.155.731 0 1.933 3.134 3.5 7 3.5.511 0 1.008-.029 1.487-.081V18h2v1.032c2.098-.604 3.513-1.734 3.513-3.032a1.828 1.828 0 0 0-.155-.731z"/></svg>