<svg id="icon-stroke-medium-hand-pointer" xmlns="http://www.w3.org/2000/svg" viewBox="0 0 24 24"><path fill="none"  stroke-linecap="round" stroke-miterlimit="10" d="M9 10.51V3C9 1.721 7.918.5 6.588.5h-.176C5.082.5 4 1.721 4 3v11.75"/><path fill="none"  stroke-linecap="round" stroke-miterlimit="10" d="M19 11c0-1.292.957-2.25 2.134-2.25h.232c1.177 0 2.134.958 2.134 2.25v6.505c0 3.353-3.591 5.995-6.786 5.995H8.033a4.558 4.558 0 0 1-4.253-2.863L.661 13.274c-.504-1.454.212-3.067 1.598-3.596a2.768 2.768 0 0 1 1.744-.07"/><path fill="none"  stroke-linecap="round" stroke-miterlimit="10" d="M19 11V9.76c0-1.248-1.082-2.25-2.412-2.25h-.175C15.082 7.51 14 8.512 14 9.744v.766M14 10v-.75C14 8.002 12.918 7 11.587 7h-.175C10.082 7 9 8.002 9 9.234V10"/></svg>