<svg id="icon-stroke-medium-lower-hand" xmlns="http://www.w3.org/2000/svg" viewBox="0 0 24 24"><path fill="none"  stroke-linecap="round" stroke-miterlimit="10" d="M10 12.087V5.393c0-1.23-.974-2.23-2.171-2.23h-.158c-1.197 0-2.171 1-2.171 2.23v5.889M14.5 9.982V2.73C14.5 1.5 13.526.5 12.329.5h-.157C10.974.5 10 1.5 10 2.73v9.324M19 9.982V2.73C19 1.5 18.026.5 16.829.5h-.157c-1.197 0-2.171 1-2.171 2.23v9.324M23.482 13.795V6.263c0-1.23-.956-2.23-2.131-2.23h-.22c-1.175 0-2.131 1-2.131 2.23v5.755"/><path fill="none"  stroke-linecap="round" stroke-miterlimit="10" d="M11.998 15.64C9.915 14.075 7 14.02 7 14.02l-1.183-2.144c-.504-1.384-2.159-2.033-3.543-1.53a2.674 2.674 0 0 0-1.596 3.422l3.114 7.007c.731 1.697 2.4 2.725 4.247 2.725h5.665"/><g clip-rule="evenodd" fill="none"  stroke-miterlimit="10"><circle cx="18.482" cy="18.5" r="5"/><path stroke-linecap="round" d="M20.5 18.5h-4"/></g></svg>