<svg id="icon-stroke-medium-office-hours" xmlns="http://www.w3.org/2000/svg" viewBox="0 0 24 24"><circle fill="none"  stroke-linecap="round" stroke-miterlimit="10" cx="16" cy="14.5" r=".5"/><path fill="none"  stroke-linecap="round" stroke-miterlimit="10" d="M13 14.5h3"/><path fill="none"  stroke-miterlimit="10" d="M15.5 11.5h-2a1 1 0 0 1-1-1v-6a1 1 0 0 1 1-1h2a1 1 0 0 1 1 1v6a1 1 0 0 1-1 1z"/><path fill="none"  stroke-miterlimit="10" d="M18.5 23.5h-14a1 1 0 0 1-1-1v-21a1 1 0 0 1 1-1h14a1 1 0 0 1 1 1v21a1 1 0 0 1-1 1z"/></svg>