<svg id="icon-stroke-medium-people" xmlns="http://www.w3.org/2000/svg" viewBox="0 0 24 24"><path fill="none"  stroke-linejoin="round" stroke-miterlimit="10" d="M3.095 13.941C1.511 15.306.499 17.389.499 19.725c0 1.384.362 2.676.982 3.787h12.036a7.75 7.75 0 0 0 .982-3.787c0-2.347-1.023-4.442-2.621-5.805"/><path fill="none"  stroke-linejoin="round" stroke-miterlimit="10" d="M7.499 4.557c-2.762 0-5 2.686-5 6s2.238 6 5 6 5-2.686 5-6-2.238-6-5-6z"/><path fill="none"  stroke-linecap="round" stroke-linejoin="round" stroke-miterlimit="10" d="M13.834 16.512h8.824a6.33 6.33 0 0 0 .842-3.158 6.279 6.279 0 0 0-2.246-4.842M13.724 8.53a6.146 6.146 0 0 0-1.226 1.394"/><path fill="none"  stroke-linejoin="round" stroke-miterlimit="10" d="M17.499.512c-2.209 0-4 2.239-4 5s1.791 5 4 5 4-2.239 4-5-1.79-5-4-5z"/></svg>