<svg id="icon-stroke-medium-polls" xmlns="http://www.w3.org/2000/svg" viewBox="0 0 24 24"><path fill="none"  stroke-linecap="round" stroke-linejoin="round" stroke-miterlimit="10" d="M21.5 18.5h-19c-1.1 0-2-.9-2-2v-14c0-1.1.9-2 2-2h19c1.1 0 2 .9 2 2v14c0 1.1-.9 2-2 2z"/><path fill="none"  stroke-linecap="round" stroke-linejoin="round" stroke-miterlimit="10" d="M7 18.5H3v-5c0-.55.45-1 1-1h2c.55 0 1 .45 1 1v5zM14 18.5h-4v-14c0-.55.45-1 1-1h2c.55 0 1 .45 1 1v14zM21 18.5h-4v-8c0-.55.45-1 1-1h2c.55 0 1 .45 1 1v8zM4.5 21.5h2v2h-2zM11.5 21.5h2v2h-2zM18.5 21.5h2v2h-2zM17 3.5h6.5M17 6.5h6.5M.5 3.5H7M.5 6.5H7M.5 9.5H7"/></svg>