<svg id="icon-stroke-small-unlinked" xmlns="http://www.w3.org/2000/svg" viewBox="0 0 16 16"><path fill="none"  stroke-linecap="round" stroke-linejoin="round" stroke-miterlimit="10" d="M4 11.525H2.859c-1.252 0-2.267-.943-2.267-2.105V6.525c0-1.163 1.015-2 2.267-2h4.548L4 7.306v1.055h3.408L4 11.525z"/><path fill="none"  stroke-linejoin="round" stroke-miterlimit="10" d="M8.592 11.525h4.546c1.253 0 2.27-.944 2.27-2.108V6.525c0-1.164-1.016-2-2.27-2H12L8.592 7.306H12v1.055l-3.408 3.164z"/><path fill="none"  stroke-linecap="round" stroke-miterlimit="10" d="M8.202 12.975v2.5M10.457 14.107l1.367 1.368M5.947 14.107l-1.368 1.368M8.202 3.025v-2.5M5.947 1.893L4.579.525M10.457 1.893L11.824.525"/></svg>