<svg id="icon-stroke-medium-whiteboard" xmlns="http://www.w3.org/2000/svg" viewBox="0 0 24 24"><g fill="none"  stroke-linecap="round" stroke-miterlimit="10"><path stroke-linejoin="round" d="M14 18.5H.5V.5h23V13"/><path d="M1 15.5h16M12.5 6.466H18M12.5 8.5h6.73M12.5 10.534h1.985M16.519 10.534h2.033"/><path stroke-linejoin="round" d="M6.833 8.167V5.534C6.722 5.521 6.614 5.5 6.5 5.5a3 3 0 1 0 3 3c0-.114-.021-.222-.034-.333H6.833z"/><g stroke-linejoin="round"><path d="M16.5 22.5l-2-2 7.007-7 1.993 2zM20 15l2 2"/><path d="M14.551 20.5l-1.038 2.539a.367.367 0 0 0 .453.448L16.5 22.46"/></g></g></svg>