<svg width="1192" height="510" viewBox="0 0 1192 510" fill="none" xmlns="http://www.w3.org/2000/svg">
<mask id="mask0_2014_36581" style="mask-type:luminance" maskUnits="userSpaceOnUse" x="0" y="0" width="1192" height="510">
<path d="M1192 0H0V510H1192V0Z" fill="white"/>
</mask>
<g mask="url(#mask0_2014_36581)">
<path d="M1221.52 407.263L1116.5 364.033L1081 427.255H1189.68L1221.53 414.161C1226.16 412.258 1226.16 409.169 1221.52 407.263Z" fill="#ECF1F5"/>
<path d="M871.235 452.651L639.125 357.217C540.595 360.614 521.639 383.076 518 391.92L768.471 494.904C796.847 506.573 842.858 506.573 871.235 494.904C899.611 483.236 899.611 464.32 871.235 452.651Z" fill="#ECF1F5"/>
<path d="M817.65 449.529L789.289 437.868H817.648L817.65 449.529Z" fill="#D6DFE6"/>
<path d="M870.034 428.146L841.672 416.485H870.031L870.034 428.146Z" fill="#D6DFE6"/>
<path d="M920.713 407.218L892.352 395.558H920.71L920.713 407.218Z" fill="#D6DFE6"/>
<path d="M1178.32 403.888L904.275 288.865C894.976 285.045 879.898 285.045 870.597 288.865L794.092 319.41C784.79 323.229 784.795 329.428 794.094 333.254L881.443 369.917C773.328 414.37 413.834 562.182 413.73 562.224C385.458 573.849 385.46 592.696 413.732 604.321C442.006 615.946 487.845 615.946 516.117 604.321C516.218 604.279 873.401 457.417 982.773 412.447L1068.14 448.277C1077.44 452.1 1092.51 452.1 1101.81 448.278L1178.32 417.733C1187.62 413.911 1187.62 407.714 1178.32 403.888Z" stroke="#D6DFE6" stroke-width="6" stroke-linecap="round" stroke-linejoin="round"/>
<path d="M254.742 465.599C252.785 466.404 249.611 466.403 247.654 465.599L77.4684 396.131C75.5107 395.325 75.5107 394.021 77.4674 393.216L88.1611 388.82C90.1178 388.015 93.2913 388.016 95.249 388.82L265.434 458.288C267.392 459.094 267.392 460.398 265.435 461.203L254.742 465.599Z" fill="#ECF1F5"/>
<path d="M893.504 416.598C888.501 418.655 880.39 418.655 875.387 416.598C870.382 414.54 870.382 411.204 875.386 409.147C880.389 407.089 888.501 407.09 893.505 409.147C898.508 411.204 898.508 414.54 893.504 416.598Z" fill="#ECF1F5"/>
<path d="M888.922 408.666C888.922 412.781 884.238 416.116 878.461 416.116C872.683 416.116 868 412.781 868 408.666C868 404.551 872.683 401.217 878.461 401.217C884.238 401.217 888.922 404.551 888.922 408.666Z" fill="#FF9800"/>
<path d="M995.439 444.73L986.867 441.206L995.439 437.682L991.909 436.231L983.337 439.755L974.766 436.231L971.237 437.682L979.807 441.206L971.237 444.73L974.766 446.182L983.337 442.658L991.91 446.182L995.439 444.73Z" fill="#D6DFE6"/>
<path d="M1156.04 328.376C1156.04 330.868 1154.92 332.626 1153.12 333.461C1151.28 334.312 1136.59 341.044 1133.13 342.585L977.004 58.1838C979.982 56.928 994.919 50.1152 996.583 49.24C998.434 48.2663 1001.09 48.3284 1004.03 49.6534L1145.9 113.446C1151.5 115.963 1156.04 122.083 1156.04 127.116V328.376Z" fill="#D9E1E6"/>
<path d="M1133.13 342.585C1136.59 341.044 1151.29 334.312 1153.13 333.461C1154.93 332.626 1156.04 330.867 1156.04 328.376V127.116C1156.04 124.822 1155.09 122.304 1153.53 120.002L1049.52 166.819L1133.13 342.585Z" fill="#A0AFB9"/>
<path d="M1153.12 333.461C1154.93 332.626 1156.04 330.868 1156.04 328.376V127.116C1156.04 122.083 1151.5 115.963 1145.9 113.446L1004.04 49.6534C1001.77 48.6355 999.686 48.3658 997.999 48.7346C993.199 50.958 985.67 54.376 982.975 55.5432C984.749 54.9658 987.055 55.1653 989.581 56.3017L1131.45 120.095C1137.05 122.612 1141.58 128.731 1141.58 133.765V335.025C1141.58 337.548 1140.44 339.318 1138.6 340.139L1138.61 340.155C1140.89 339.139 1148.06 335.863 1153.21 333.508C1153.12 333.493 1153.09 333.477 1153.12 333.461Z" fill="#4678A2"/>
<path d="M1139 126.542C1140.6 128.873 1141.58 131.433 1141.58 133.764V335.024C1141.58 337.548 1140.44 339.318 1138.6 340.139L1138.61 340.155C1140.89 339.138 1148.06 335.863 1153.21 333.507C1153.12 333.493 1153.09 333.477 1153.12 333.461C1154.93 332.626 1156.04 330.867 1156.04 328.376V127.116C1156.04 124.822 1155.09 122.304 1153.53 120.002L1139 126.542Z" fill="#2D4558"/>
<path d="M1141.58 319.408L1156.04 308.15V290.279L1141.58 301.537V319.408ZM1141.58 234.685V285.652L1156.04 274.394V223.427L1141.58 234.685Z" fill="#3A5E7D"/>
<path d="M1136.11 337.453C1136.11 342.486 1131.57 344.526 1125.97 342.01L984.102 278.217C978.506 275.699 973.97 269.58 973.97 264.547V63.2868C973.97 58.2546 978.506 56.2142 984.102 58.7306L1125.97 122.524C1131.57 125.041 1136.11 131.161 1136.11 136.194V337.453Z" fill="#ECF0F1"/>
<path d="M1136.1 143.069L1126.25 138.639L1126.25 193.283L1136.1 197.714V143.069Z" fill="#95A2AC"/>
<path d="M1057.4 100.363C1057.4 101.874 1056.03 102.487 1054.35 101.732C1052.67 100.976 1051.31 99.1376 1051.31 97.6258C1051.31 96.1145 1052.67 95.5015 1054.35 96.2572C1056.03 97.0133 1057.4 98.8518 1057.4 100.363Z" fill="#2D4558"/>
<path d="M1151.27 146.48C1151.26 145.367 1150.26 144.916 1149.02 145.473C1147.78 146.03 1146.78 147.383 1146.78 148.497L1146.78 174.989C1146.81 176.071 1147.8 176.505 1149.02 175.956C1150.25 175.407 1151.24 174.079 1151.26 172.973L1151.27 146.48Z" fill="#A0AFB9"/>
<path d="M1151.27 183.661C1151.26 182.548 1150.26 182.097 1149.02 182.654C1147.78 183.211 1146.78 184.563 1146.78 185.677L1146.78 212.169C1146.81 213.252 1147.8 213.686 1149.02 213.136C1150.25 212.587 1151.24 211.259 1151.26 210.154L1151.27 183.661Z" fill="#A0AFB9"/>
<path d="M1126.25 326.151C1126.25 330.57 1122.27 332.364 1117.35 330.153L992.723 274.111C987.807 271.901 983.82 266.527 983.82 262.101V74.5916L1126.25 138.639V326.151Z" fill="#FDC25E"/>
<path d="M1023.32 177.879V199.361L1032 195.562V174.081L1023.32 177.879Z" fill="#FFD695"/>
<path d="M1009.1 184.194V205.676L1017.78 201.877V180.396L1009.1 184.194Z" fill="#FFD695"/>
<path d="M1115.17 170.528L1091.84 181.021V202.884L1115.17 192.392V170.528Z" fill="#FFD695"/>
<path d="M1087.19 176.606L1074.98 182.095V206.802L1087.19 201.314V176.606Z" fill="#FFD695"/>
<path d="M995.126 224.814V246.678L1030.72 230.67V208.806L995.126 224.814Z" fill="#FFD695"/>
<path d="M994.675 190.558V212.04L1003.36 208.242V186.76L994.675 190.558Z" fill="#FFD695"/>
<path d="M983.82 174.669C984.076 174.808 984.343 174.944 984.632 175.074C989.681 177.344 997.866 177.345 1002.92 175.074C1005.48 173.921 1006.73 172.404 1006.69 170.894L1006.7 139.657H983.82V174.669Z" fill="#FFD695"/>
<path d="M1041.78 197.733V219.614C1048.21 219.999 1054.95 219.089 1059.9 216.867C1064.07 214.989 1066.18 212.532 1066.21 210.071L1066.22 187.237C1066.22 187.237 1052.67 193.037 1041.78 197.733Z" fill="#FFD695"/>
<path d="M986.306 268.76L1126.25 205.486V194.607L983.82 258.654V262.101C983.82 264.255 984.77 266.632 986.306 268.76Z" fill="#FEAA4E"/>
<path d="M1007.13 253.528C1007.13 254.516 1008.16 255.316 1009.43 255.316C1010.7 255.316 1011.73 254.516 1011.73 253.528V244.394L1007.13 246.54V253.528ZM1052.51 232.705C1052.51 233.693 1053.53 234.493 1054.8 234.493C1056.07 234.493 1057.1 233.693 1057.1 232.705V223.571L1052.51 225.717V232.705ZM1098.1 205.931V212.919C1098.1 213.907 1099.13 214.707 1100.4 214.707C1101.67 214.707 1102.7 213.907 1102.7 212.919V203.785L1098.1 205.931Z" fill="#FFC85E"/>
<path d="M1110.2 131.419L983.82 188.246V191.336L1113.63 132.964L1110.2 131.419Z" fill="#FFD695"/>
<path d="M983.82 221.905V224.996L1126.25 160.948V157.858L983.82 221.905Z" fill="#FFD695"/>
<path d="M983.82 258.653L1126.25 194.607V191.517L983.82 255.563V258.653Z" fill="#FFD695"/>
<path d="M989.401 139.657H983.82V174.669C984.076 174.808 984.343 174.944 984.632 175.074C986.026 175.7 987.662 176.148 989.401 176.428V139.657Z" fill="#FEAA4E"/>
<path d="M1025.27 206.355L1030.73 208.807V217.428C1033.96 218.654 1037.81 219.378 1041.78 219.615V198.931L1025.27 206.355Z" fill="#FEAA4E"/>
<path d="M983.82 224.995V241.593L995.126 246.677V224.813L989.675 222.362L983.82 224.995Z" fill="#FEAA4E"/>
<path d="M1066.22 187.944L1066.21 202.86L1074.98 206.803V184.003L1066.22 187.944Z" fill="#FEAA4E"/>
<path d="M1087.19 200.793L1091.84 202.885V181.021L1087.19 178.93V200.793Z" fill="#FEAA4E"/>
<path d="M983.82 191.336V207.159L994.674 212.04V190.559L990.131 188.499L983.82 191.336Z" fill="#FEAA4E"/>
<path d="M998.678 184.655L1003.36 186.761V203.095L1009.1 205.675V184.194L1004.42 182.073L998.678 184.655Z" fill="#FEAA4E"/>
<path d="M1012.97 178.23L1017.78 180.396V196.871L1023.32 199.361V177.879L1018.55 175.718L1012.97 178.23Z" fill="#FEAA4E"/>
<path d="M1126.25 261.345V246.637L1109.9 253.99L1126.25 261.345ZM1126.25 287.972L1109.9 295.325L1126.25 302.679V287.972ZM1018.49 254.217L1063.95 274.659L1109.9 253.99L1064.34 233.502L1018.49 254.217ZM1110.19 212.787L1126.25 220.011V205.529L1110.19 212.787ZM1074.9 311.066L1109.9 295.325L1063.95 274.659L1028.94 290.398L1074.9 311.066Z" fill="#FFD695"/>
<path d="M1003.36 186.761L998.677 184.655L990.14 188.494L994.703 190.546L1003.36 186.761ZM1017.78 180.396L1012.97 178.23L1004.43 182.069L1009.13 184.181L1017.78 180.396ZM1018.56 175.714L1023.35 177.866L1032 174.081L1027.1 171.875L1018.56 175.714ZM989.705 222.349L995.155 224.8L1030.72 208.807L1025.27 206.355L989.705 222.349ZM1044.11 197.886C1049.8 197.953 1055.54 197.016 1059.89 195.06C1064.07 193.182 1066.18 190.725 1066.21 188.264V187.946L1044.11 197.886Z" fill="#FFE7BD"/>
<path d="M1136.78 65.7969L1140.7 74.698L1149.46 79.7833L1143.14 82.6453L1144.62 91.014L1137.43 94.2713L1116.91 71.636L1124.1 68.3787L1128.98 69.9369L1129.59 69.0542L1136.78 65.7969Z" fill="#CFD9DF"/>
<path d="M1144.62 91.014L1137.43 94.2718L1135.93 85.7495L1143.14 82.6448L1144.62 91.014Z" fill="#B6C3CC"/>
<path d="M1129.59 69.0542L1133.51 77.9553L1142.27 83.0406L1135.93 85.749L1137.43 94.2718L1129.59 87.0404L1121.76 87.2233L1123.25 80.0474L1116.91 71.6365L1125.68 74.433L1129.59 69.0542Z" fill="#ECEFF1"/>
<path d="M1140.7 74.698L1133.51 77.9553L1129.59 69.0542L1136.78 65.7974L1140.7 74.698Z" fill="#B6C3CC"/>
<path d="M1136.78 65.7969L1140.7 74.698L1149.46 79.7833L1143.14 82.6453L1144.62 91.014L1137.43 94.2713L1116.91 71.636L1124.1 68.3787L1128.98 69.9369L1129.59 69.0542L1136.78 65.7969Z" fill="#FFE7BD"/>
<path d="M1144.62 91.014L1137.43 94.2718L1135.93 85.7495L1143.14 82.6448L1144.62 91.014Z" fill="#FFD695"/>
<path d="M1140.7 74.698L1133.51 77.9553L1129.59 69.0542L1136.78 65.7974L1140.7 74.698Z" fill="#FFD695"/>
<path d="M1129.59 69.0542L1133.51 77.9553L1142.27 83.0406L1135.93 85.749L1137.43 94.2718L1129.59 87.0404L1121.76 87.2233L1123.25 80.0474L1116.91 71.6365L1125.68 74.433L1129.59 69.0542Z" fill="#FEB154"/>
<path d="M1103.64 47.2361L1108.21 57.6386L1118.46 63.5815L1111.27 66.8388L1111.07 66.8725L1112.8 76.7066L1105.61 79.9639L1081.63 53.5113L1088.82 50.254L1095.3 52.3219L1096.45 50.4934L1103.64 47.2361Z" fill="#CFD9DF"/>
<path d="M1112.8 76.7066L1105.61 79.9639L1103.86 70.0042L1111.27 66.8389L1112.8 76.7066Z" fill="#B6C3CC"/>
<path d="M1096.45 50.4932L1101.03 60.8961L1111.27 66.8386L1103.86 70.0039L1105.61 79.9641L1096.45 71.5134L1087.29 71.7262L1089.04 63.3409L1081.63 53.5116L1091.87 56.7793L1096.45 50.4932Z" fill="#ECEFF1"/>
<path d="M1108.21 57.6386L1101.03 60.8959L1096.45 50.4934L1103.64 47.2361L1108.21 57.6386Z" fill="#B6C3CC"/>
<path d="M1103.64 47.2361L1108.21 57.6386L1118.46 63.5815L1111.27 66.8388L1111.07 66.8725L1112.8 76.7066L1105.61 79.9639L1081.63 53.5113L1088.82 50.254L1095.3 52.3219L1096.45 50.4934L1103.64 47.2361Z" fill="#FFE7BD"/>
<path d="M1112.8 76.7066L1105.61 79.9639L1103.86 70.0042L1111.27 66.8389L1112.8 76.7066Z" fill="#FFD695"/>
<path d="M1108.21 57.6386L1101.03 60.8959L1096.45 50.4934L1103.64 47.2361L1108.21 57.6386Z" fill="#FFD695"/>
<path d="M1096.45 50.4932L1101.03 60.8961L1111.27 66.8386L1103.86 70.0039L1105.61 79.9641L1096.45 71.5134L1087.29 71.7262L1089.04 63.3409L1081.63 53.5116L1091.87 56.7793L1096.45 50.4932Z" fill="#FEB154"/>
<path d="M1066.91 25.5542L1072.41 38.0758L1084.74 45.2299L1077.56 48.4868L1075.82 49.04L1077.93 61.0288L1070.75 64.2866L1041.88 32.4448L1049.07 29.1875L1057.54 31.8911L1059.72 28.812L1066.91 25.5542Z" fill="#CFD9DF"/>
<path d="M1077.93 61.0287L1070.75 64.2865L1068.64 52.2973L1075.82 49.0396L1077.93 61.0287Z" fill="#B6C3CC"/>
<path d="M1059.72 28.8115L1065.23 41.3331L1077.56 48.4868L1068.64 52.2969L1070.75 64.2861L1059.72 54.114L1048.7 54.3705L1050.8 44.2761L1041.88 32.4443L1054.21 36.3786L1059.72 28.8115Z" fill="#ECEFF1"/>
<path d="M1072.41 38.0758L1065.23 41.3331L1059.72 28.8115L1066.91 25.5542L1072.41 38.0758Z" fill="#B6C3CC"/>
<path d="M1066.91 25.5542L1072.41 38.0758L1084.74 45.2299L1077.56 48.4868L1075.82 49.04L1077.93 61.0288L1070.75 64.2866L1041.88 32.4448L1049.07 29.1875L1057.54 31.8911L1059.72 28.812L1066.91 25.5542Z" fill="#FFE7BD"/>
<path d="M1077.93 61.0287L1070.75 64.2865L1068.64 52.2973L1075.82 49.0396L1077.93 61.0287Z" fill="#FFD695"/>
<path d="M1072.41 38.0758L1065.23 41.3331L1059.72 28.8115L1066.91 25.5542L1072.41 38.0758Z" fill="#FFD695"/>
<path d="M1059.72 28.8115L1065.23 41.3331L1077.56 48.4868L1068.64 52.2969L1070.75 64.2861L1059.72 54.114L1048.7 54.3705L1050.8 44.2761L1041.88 32.4443L1054.21 36.3786L1059.72 28.8115Z" fill="#FEB154"/>
<path d="M1030.17 14.2017L1034.75 24.6041L1044.99 30.5466L1037.8 33.8039L1037.6 33.8063L1039.34 43.6721L1032.15 46.9295L1008.17 20.4769L1015.35 17.2196L1021.89 19.3069L1022.99 17.459L1030.17 14.2017Z" fill="#CFD9DF"/>
<path d="M1039.34 43.6722L1032.15 46.9295L1030.4 36.9698L1037.8 33.8044L1039.34 43.6722Z" fill="#B6C3CC"/>
<path d="M1022.99 17.459L1027.56 27.8619L1037.8 33.8044L1030.4 36.9698L1032.15 46.9299L1022.99 38.4792L1013.83 38.692L1015.58 30.3067L1008.17 20.4774L1018.41 23.7451L1022.99 17.459Z" fill="#ECEFF1"/>
<path d="M1034.75 24.6041L1027.56 27.8615L1022.99 17.459L1030.17 14.2017L1034.75 24.6041Z" fill="#B6C3CC"/>
<path d="M1030.17 14.2017L1034.75 24.6041L1044.99 30.5466L1037.8 33.8039L1037.6 33.8063L1039.34 43.6721L1032.15 46.9295L1008.17 20.4769L1015.35 17.2196L1021.89 19.3069L1022.99 17.459L1030.17 14.2017Z" fill="#FFE7BD"/>
<path d="M1039.34 43.6722L1032.15 46.9295L1030.4 36.9698L1037.8 33.8044L1039.34 43.6722Z" fill="#FFD695"/>
<path d="M1034.75 24.6041L1027.56 27.8615L1022.99 17.459L1030.17 14.2017L1034.75 24.6041Z" fill="#FFD695"/>
<path d="M1022.99 17.459L1027.56 27.8619L1037.8 33.8044L1030.4 36.9698L1032.15 46.9299L1022.99 38.4792L1013.83 38.692L1015.58 30.3067L1008.17 20.4774L1018.41 23.7451L1022.99 17.459Z" fill="#FEB154"/>
<path d="M997.03 2.95752L1000.95 11.8586L1009.71 16.944L1003.4 19.8059L1004.87 28.1747L997.682 31.432L977.161 8.79662L984.347 5.5393L989.23 7.09756L989.844 6.21485L997.03 2.95752Z" fill="#CFD9DF"/>
<path d="M1004.87 28.1746L997.682 31.432L996.183 22.9101L1003.4 19.8059L1004.87 28.1746Z" fill="#B6C3CC"/>
<path d="M989.844 6.2146L993.761 15.1157L1002.52 20.2015L996.184 22.9103L997.682 31.4322L989.844 24.2012L982.007 24.3837L983.504 17.2082L977.161 8.79685L985.927 11.5939L989.844 6.2146Z" fill="#ECEFF1"/>
<path d="M1000.95 11.8586L993.76 15.116L989.843 6.21486L997.029 2.95801L1000.95 11.8586Z" fill="#B6C3CC"/>
<path d="M997.03 2.95752L1000.95 11.8586L1009.71 16.944L1003.4 19.8059L1004.87 28.1747L997.682 31.432L977.161 8.79662L984.347 5.5393L989.23 7.09756L989.844 6.21485L997.03 2.95752Z" fill="#FFE7BD"/>
<path d="M1004.87 28.1746L997.682 31.432L996.183 22.9101L1003.4 19.8059L1004.87 28.1746Z" fill="#FFD695"/>
<path d="M1000.95 11.8586L993.76 15.116L989.843 6.21486L997.029 2.95801L1000.95 11.8586Z" fill="#FFD695"/>
<path d="M989.844 6.2146L993.761 15.1157L1002.52 20.2015L996.184 22.9103L997.682 31.4322L989.844 24.2012L982.007 24.3837L983.504 17.2082L977.161 8.79685L985.927 11.5939L989.844 6.2146Z" fill="#FEB154"/>
<path d="M1042.19 167.13C1042.19 172.163 1046.75 178.29 1052.37 180.816C1057.99 183.343 1062.54 181.313 1062.54 176.28L1042.19 167.13ZM1011.67 162.517C1017.29 165.043 1021.85 163.013 1021.85 157.98L1001.5 148.83C1001.5 153.863 1006.05 159.991 1011.67 162.517ZM970.977 144.218C976.595 146.744 981.15 144.713 981.15 139.681L960.802 130.53C960.802 135.563 965.358 141.691 970.977 144.218Z" fill="#E65845"/>
<path d="M1062.54 176.28C1062.54 181.313 1067.1 187.44 1072.72 189.966C1078.34 192.494 1082.89 190.462 1082.89 185.43L1062.54 176.28ZM1032.02 171.668C1037.64 174.194 1042.19 172.163 1042.19 167.13L1021.85 157.981C1021.85 163.013 1026.4 169.141 1032.02 171.668ZM991.323 153.367C996.943 155.894 1001.5 153.863 1001.5 148.83L981.15 139.681C981.15 144.713 985.705 150.841 991.323 153.367ZM950.627 135.068C956.246 137.594 960.802 135.563 960.802 130.53L940.453 121.38C940.454 126.413 945.009 132.541 950.627 135.068Z" fill="#CFD9DF"/>
<path d="M1082.68 185.406L1126.71 138.521L984.278 74.4734C964.227 83.4892 947.106 102.425 940.245 121.359L1082.68 185.406Z" fill="#F5F7FA"/>
<path d="M1024.97 92.7764L1004.63 83.623C984.575 92.6389 967.454 111.575 960.593 130.509L980.941 139.659C987.804 120.726 1004.92 101.792 1024.97 92.7764Z" fill="#FF6F58"/>
<path d="M1065.67 111.076L1045.32 101.922C1025.27 110.938 1008.15 129.874 1001.29 148.808L1021.64 157.958C1028.5 139.025 1045.62 120.091 1065.67 111.076Z" fill="#FF6F58"/>
<path d="M1106.36 129.375L1086.02 120.222C1065.97 129.238 1048.85 148.174 1041.98 167.108L1062.33 176.258C1069.2 157.325 1086.31 138.391 1106.36 129.375Z" fill="#FF6F58"/>
<path d="M1126.71 165.607L1126.71 138.52C1106.66 147.536 1089.54 166.472 1082.68 185.407L1126.71 165.607Z" fill="#8CA6B9"/>
<g opacity="0.5">
<path d="M1012 361.542C1012 378.963 993.867 393.085 971.499 393.085C949.133 393.085 931 378.963 931 361.542C931 344.122 949.133 330 971.499 330C993.867 330 1012 344.122 1012 361.542Z" fill="#ECF1F5"/>
</g>
<path d="M990.408 375.668C990.408 375.668 985.46 371.549 984.105 363.659C983.517 368.588 984.473 374.626 984.473 374.626L990.408 375.668Z" fill="#657883"/>
<path d="M959.703 375.096C959.703 375.096 962.694 367.478 963.154 363.445C962.348 363.088 953.602 359.771 951.532 350.72C953.503 346.597 965.964 338.848 978.804 338.621C983.407 340.951 991.115 350.9 990.886 356.815C989.439 359.632 986.264 362.165 984.105 363.659C983.898 367.62 984.877 372.595 988.014 376.041C986.864 377.924 967.297 382.176 959.703 375.096Z" fill="#37454B"/>
<path d="M971.497 391.991C981.846 391.991 991.244 388.839 998.214 383.706C996.117 380.972 992.793 376.779 991.511 375.929C978.89 369.5 956.364 371.254 956.364 371.254C949.394 376.575 946.015 381.32 944.649 383.607C951.63 388.798 961.083 391.991 971.497 391.991Z" fill="#FF6F58"/>
<path d="M962.133 348.574L957.18 351.566C957.18 351.566 956.775 364.085 964.357 369.439L966.783 369.204L966.48 370.857L964.256 371.093C964.256 371.093 962.538 377.472 965.267 382.668C965.874 381.092 972.95 374.48 980.128 372.354C980.128 370.542 979.219 366.291 981.848 361.96C980.128 361.724 967.39 358.417 962.133 348.574Z" fill="#FFC3B1"/>
<path d="M949.381 386.604L952.196 378.877L947.604 385.59C948.183 385.941 948.778 386.278 949.381 386.604ZM984.248 380.721L983.029 390.63C983.968 390.403 984.891 390.149 985.799 389.869L984.248 380.721Z" fill="#FF8C6F"/>
<path d="M966.118 342.432C965.474 342.671 964.845 342.923 964.23 343.184C966.042 346.875 970.721 354.673 979.031 357.605C971.152 353.911 967.495 346.213 966.118 342.432Z" fill="#657883"/>
<path d="M971.025 340.881C970.333 341.063 969.652 341.262 968.982 341.475C969.566 342.877 971.689 347.533 975.676 351.638C972.583 347.749 971.388 342.777 971.025 340.881Z" fill="#657883"/>
<path d="M1012 361.542C1012 378.963 993.867 393.085 971.499 393.085C949.133 393.085 931 378.963 931 361.542C931 344.122 949.133 330 971.499 330C993.867 330 1012 344.122 1012 361.542Z" stroke="#F5F7FA" stroke-width="4"/>
<path d="M975.751 338.443C971.344 338.443 967.771 341.226 967.771 344.658C967.771 348.09 971.344 350.872 975.751 350.872C980.158 350.872 983.731 348.09 983.731 344.658C983.731 341.226 980.158 338.443 975.751 338.443ZM989.113 351.932C986.961 351.932 985.216 353.291 985.216 354.967C985.216 356.644 986.961 358.003 989.113 358.003C991.265 358.003 993.01 356.644 993.01 354.967C993.01 353.291 991.265 351.932 989.113 351.932Z" fill="white"/>
<g opacity="0.5">
<path d="M945.999 204.841C945.999 220.77 927.867 233.683 905.499 233.683C883.133 233.683 865 220.77 865 204.841C865 188.912 883.133 176 905.499 176C927.867 176 945.999 188.912 945.999 204.841Z" fill="#ECF1F5"/>
</g>
<path d="M923.652 220.134C912.767 215.671 907.085 214.541 895.081 214.037C889.622 215.997 882.812 222.198 881.306 228.12C896.04 237.182 922.711 233.94 928.402 228.626C928.069 226.597 926.259 221.75 923.652 220.134Z" fill="#98C238"/>
<path d="M894.139 186.981C893.08 187.161 887.253 188.28 889.02 194.496C889.463 201.806 884.526 204.799 884.526 204.799C884.526 204.799 886.597 205.279 888.41 205.288C887.988 205.938 886.755 206.472 885.671 206.832C886.418 207.987 889.795 209.173 894.139 209.245V186.981Z" fill="#3C322E"/>
<path d="M913.396 216.856C912.172 212.031 911.347 204.004 911.347 204.004L899.314 207.724C899.314 207.724 900.168 215.055 900.168 217.301C900.168 217.786 898.719 218.643 899.883 220.667C900.733 222.152 910.385 223.39 913.396 216.856Z" fill="#955337"/>
<path d="M903.115 187.551C894.288 186.774 891.397 191.644 891.073 196.986C890.973 198.636 891.776 199.571 891.656 200.207C891.513 200.971 890.234 202.16 891.007 204.305C891.59 205.917 894.047 212.04 896.228 212.644C898.82 213.361 909.515 211.77 915.318 200.343C915.318 200.343 907.712 190.797 903.115 187.551Z" fill="#A2613D"/>
<path d="M908.747 202.844C904.894 210.1 900.764 212.22 898.041 212.779C901.112 212.644 906.594 211.102 911.197 206.244C911.197 206.244 910.577 203.92 908.747 202.844Z" fill="#955337"/>
<path d="M925.563 203.625C920.712 200.936 922.454 193.241 919.728 190.299C915.865 186.128 903.076 181.795 893.654 187.2C890.217 193.687 895.371 198.623 904.246 198.635C899.772 197.343 897.763 195.181 897.397 193.96C897.394 193.948 901.825 197.152 906.16 198.671C908.523 203.831 904.778 209.711 904.778 209.711C904.778 209.711 907.942 208.159 909.004 204.961C908.379 208.251 906.192 212.056 906.192 212.056C908.735 211.783 916.666 210.667 920.533 207.37L919.613 205.689C919.613 205.689 920.495 206.695 921.037 207.07C921.93 206.578 923.321 205.525 923.853 205.068C922.975 204.514 921.416 203.481 921.06 202.541C921.815 203.625 924.776 204.02 925.563 203.625Z" fill="#3C322E"/>
<path d="M945.999 204.841C945.999 220.77 927.867 233.683 905.499 233.683C883.133 233.683 865 220.77 865 204.841C865 188.912 883.133 176 905.499 176C927.867 176 945.999 188.912 945.999 204.841Z" stroke="#F5F7FA" stroke-width="4"/>
<path d="M920.707 183.72C916.301 183.72 912.728 186.264 912.728 189.403C912.728 192.541 916.301 195.085 920.707 195.085C925.114 195.085 928.687 192.541 928.687 189.403C928.687 186.264 925.114 183.72 920.707 183.72ZM934.069 196.054C931.917 196.054 930.172 197.297 930.172 198.829C930.172 200.362 931.917 201.605 934.069 201.605C936.222 201.605 937.966 200.362 937.966 198.829C937.966 197.297 936.222 196.054 934.069 196.054Z" fill="white"/>
<path d="M89.2189 293.435C89.2189 293.435 78.2822 280.524 85.623 268.916C92.9637 257.308 121.278 252.214 130.567 236.579C138.207 239.777 217.457 276.258 217.457 276.258L299.853 278.414V311.32C299.853 332.246 261.533 371.489 196.265 341.877C130.997 312.265 89.2189 293.435 89.2189 293.435Z" fill="#ECF1F5"/>
<path d="M228.781 316.762C228.781 329.958 220.039 342.7 199.774 333.463C180.639 324.742 109.363 291.927 83.4131 281.13C84.673 288.06 89.2185 293.435 89.2185 293.435C89.2185 293.435 131.487 312.81 196.755 342.422C262.023 372.033 299.853 332.246 299.853 311.32V278.414L228.781 276.258V316.762Z" fill="#CFD9DF"/>
<path d="M163.763 262.518C170.157 259.598 176.074 258.752 180.914 259.688C180.081 259.309 179.251 258.931 178.427 258.556C173.591 257.628 167.684 258.477 161.301 261.391C144.94 268.86 131.678 287.023 131.678 301.959C131.678 308.081 133.91 312.705 137.667 315.523C138.478 315.892 139.291 316.262 140.104 316.631C136.362 313.812 134.14 309.193 134.14 303.085C134.14 288.149 147.402 269.986 163.763 262.518ZM135.704 249.69C141.988 246.822 147.811 245.951 152.605 246.81C151.759 246.424 150.931 246.048 150.121 245.68C145.332 244.828 139.516 245.7 133.242 248.563C116.882 256.032 103.619 274.195 103.619 289.131C103.619 295.428 105.982 300.139 109.936 302.93C110.733 303.292 111.542 303.659 112.361 304.03C108.43 301.235 106.081 296.534 106.081 290.258C106.081 275.321 119.343 257.158 135.704 249.69ZM192.145 275.6C198.811 272.558 204.957 271.766 209.907 272.899C209.08 272.522 208.252 272.145 207.422 271.767C202.477 270.642 196.338 271.435 189.683 274.474C173.323 281.943 160.06 300.105 160.06 315.041C160.06 320.94 162.134 325.448 165.645 328.291C166.474 328.669 167.294 329.045 168.106 329.416C164.595 326.574 162.521 322.066 162.521 316.168C162.521 301.231 175.784 283.069 192.145 275.6ZM188.212 327.645C188.212 333.792 190.462 338.428 194.246 341.242C195.258 341.718 196.139 342.136 196.875 342.489C192.992 339.687 190.674 335.007 190.674 328.772C190.674 315.042 201.882 298.594 216.399 290.224V287.766C200.705 295.615 188.212 313.149 188.212 327.645Z" fill="#D8E2EB"/>
<path d="M131.693 302.613C131.849 308.409 134.047 312.807 137.667 315.522C137.856 315.608 139.481 316.347 140.104 316.631C136.494 313.91 134.304 309.509 134.155 303.716C133.331 303.346 132.511 302.979 131.693 302.613ZM106.103 291.159C105.26 290.782 104.441 290.415 103.641 290.057C103.863 295.889 106.181 300.277 109.936 302.93C110.734 303.292 111.543 303.659 112.362 304.03C108.622 301.37 106.318 296.984 106.103 291.159ZM160.066 315.318C160.131 321.057 162.175 325.457 165.607 328.256C166.435 328.635 167.255 329.009 168.067 329.381C164.632 326.578 162.586 322.17 162.527 316.421C161.712 316.055 160.892 315.688 160.066 315.318ZM190.687 329.301L188.226 328.178C188.353 334.023 190.55 338.457 194.185 341.193C195.176 341.658 196.052 342.072 196.798 342.428C193.074 339.702 190.815 335.228 190.687 329.301Z" fill="#8CA6B9"/>
<path d="M216.77 294.941V314.444L218.673 297.753L216.77 294.941Z" fill="#8CA6B9"/>
<path d="M299.846 293.924V280.862C298.528 284.753 294.596 288.495 288.029 291.493C271.597 298.994 244.954 298.994 228.521 291.492C222.056 288.542 218.147 284.869 216.768 281.043V294.94C216.768 294.94 222.393 311.33 258.87 311.33C295.346 311.33 299.846 293.924 299.846 293.924Z" fill="#2D4558"/>
<path d="M130.317 0.320019C130.317 0.320019 109.909 -2.47442 101.071 8.45189C92.2331 19.3782 96.5714 29.7961 92.8762 39.7059C89.1804 49.6163 82.5918 54.19 82.5918 54.19C82.5918 54.19 189.612 102.597 199.093 107.425C208.574 112.253 216.768 117.207 216.768 132.581V153.926C216.768 153.926 222.394 170.315 258.87 170.315C295.347 170.315 299.846 152.909 299.846 152.909V114.793C299.846 100.817 295.667 75.6618 260.637 59.6533C225.606 43.6444 130.317 0.320019 130.317 0.320019Z" fill="#ECF1F5"/>
<path d="M299.846 152.909V139.847C298.528 143.738 294.596 147.481 288.029 150.478C271.597 157.98 244.954 157.979 228.521 150.477C222.056 147.526 218.147 143.854 216.768 140.028V153.926C216.768 153.926 222.393 170.316 258.87 170.316C295.346 170.316 299.846 152.909 299.846 152.909Z" fill="#2D4558"/>
<path d="M199.076 96.4558C182.006 88.7733 101.989 52.9645 89.0446 47.1721C85.8337 51.936 82.5923 54.1901 82.5923 54.1901C82.5923 54.1901 189.612 102.597 199.093 107.425C208.574 112.253 216.768 117.208 216.768 132.581V153.926C216.768 153.926 218.792 159.812 228.262 164.529V128.557C228.262 113.608 217.663 104.821 199.076 96.4558Z" fill="#CFD9DF"/>
<path d="M228.262 150.354C221.955 147.424 218.128 143.801 216.768 140.028V153.926C216.768 153.926 218.792 159.812 228.262 164.529V150.354Z" fill="#546A7D"/>
<path d="M135.722 13.3445C142.006 10.4763 147.83 9.60565 152.623 10.4642C151.776 10.0792 150.949 9.70268 150.139 9.3344C145.35 8.48227 139.534 9.35424 133.26 12.2181C116.9 19.6867 103.637 37.8492 103.637 52.7856C103.637 59.0826 106.001 63.7934 109.954 66.5853C110.751 66.9471 111.56 67.3141 112.379 67.6854C108.448 64.8901 106.098 60.1891 106.098 53.912C106.098 38.9756 119.362 20.8131 135.722 13.3445ZM235.58 48.2382C230.627 47.0971 224.47 47.8867 217.793 50.9343C201.433 58.4034 188.169 76.5654 188.169 91.5023C188.169 97.6483 190.421 102.285 194.204 105.099C195.215 105.575 196.097 105.992 196.833 106.345C192.95 103.543 190.632 98.8639 190.632 92.6282C190.632 77.6918 203.895 59.5298 220.255 52.0607C226.94 49.0093 233.103 48.221 238.06 49.3685C237.242 48.9955 236.415 48.619 235.58 48.2382ZM192.163 39.2546C198.828 36.2122 204.975 35.4205 209.925 36.5534C209.098 36.1769 208.27 35.8 207.44 35.4222C202.494 34.2971 196.356 35.0906 189.701 38.1287C173.34 45.5973 160.077 63.7598 160.077 78.6962C160.077 84.5955 162.151 89.1029 165.663 91.9447C166.492 92.3238 167.312 92.6994 168.123 93.0702C164.613 90.2284 162.539 85.7206 162.539 79.8226C162.539 64.8858 175.802 46.7237 192.163 39.2546ZM163.781 26.1717C170.175 23.2526 176.091 22.407 180.932 23.3423C180.099 22.9633 179.27 22.5859 178.445 22.2108C173.609 21.2832 167.701 22.1319 161.318 25.0457C144.958 32.5148 131.696 50.6769 131.696 65.6133C131.696 71.7356 133.929 76.3597 137.685 79.1779C138.496 79.547 139.308 79.9166 140.121 80.2862C136.38 77.4663 134.157 72.8482 134.157 66.7397C134.157 51.8033 147.42 33.6403 163.781 26.1717Z" fill="#D8E2EB"/>
<path d="M131.711 66.2683C131.865 72.0637 134.065 76.4615 137.684 79.1774C137.874 79.2633 139.498 80.0024 140.121 80.2857C136.511 77.5646 134.321 73.1638 134.171 67.3701C133.348 67.0014 132.528 66.6344 131.711 66.2683ZM106.12 54.8137C105.277 54.4368 104.458 54.0694 103.659 53.7119C103.881 59.5436 106.198 63.9318 109.953 66.5844C110.751 66.9462 111.56 67.3132 112.378 67.6845C108.639 65.0255 106.336 60.6389 106.12 54.8137ZM160.084 78.973C160.148 84.7124 162.192 89.1119 165.623 91.9102C166.452 92.2893 167.272 92.6644 168.084 93.0357C164.649 90.2331 162.604 85.8259 162.545 80.0757C161.729 79.71 160.909 79.343 160.084 78.973ZM190.632 92.6632C189.843 92.3087 189.024 91.9417 188.171 91.5587C188.185 97.6418 190.409 102.239 194.143 105.05C195.134 105.515 196.01 105.929 196.756 106.285C192.927 103.483 190.641 98.8381 190.632 92.6632Z" fill="#8CA6B9"/>
<path d="M264.934 155.859V170.142C266.946 170.025 268.843 169.85 270.634 169.625V155.257C268.76 155.519 266.856 155.718 264.934 155.859ZM238.015 168.044C243.494 169.418 250.338 170.315 258.87 170.315C258.886 170.315 258.901 170.315 258.917 170.315V156.097C251.716 156.147 244.497 155.357 238.015 153.73V168.044Z" fill="#758EA1"/>
<path d="M264.934 296.874V311.157C266.946 311.04 268.843 310.865 270.634 310.64V296.273C268.76 296.534 266.856 296.734 264.934 296.874ZM238.015 309.059C243.494 310.434 250.338 311.331 258.87 311.331C258.886 311.331 258.901 311.33 258.917 311.33V297.112C251.716 297.162 244.497 296.372 238.015 294.745V309.059Z" fill="#758EA1"/>
<path d="M203.594 280.318C198.846 281.768 195.016 284.204 193.291 285.448C192.232 286.186 191.081 285.657 191.081 285.657L127.516 256.72C127.516 256.72 126.169 256.141 127.31 255.372C129.323 253.919 133.981 250.857 138.757 249.822C140.563 249.416 141.359 249.73 141.922 249.983C157.028 256.78 191.285 272.45 204.388 278.441C205.417 278.911 205.602 279.704 203.594 280.318Z" fill="#D8E2EB"/>
<path d="M287.78 292.556C271.486 299.995 245.067 299.995 228.773 292.556C212.479 285.117 212.478 273.058 228.772 265.62C245.066 258.181 271.485 258.181 287.78 265.62C304.073 273.059 304.073 285.118 287.78 292.556Z" fill="#ECF1F5"/>
<path d="M284.502 291.06C270.019 297.676 246.534 297.676 232.051 291.06C217.567 284.444 217.566 273.731 232.05 267.116C246.533 260.501 270.018 260.501 284.502 267.117C298.985 273.732 298.985 284.445 284.502 291.06Z" fill="#8399AB"/>
<path d="M232.05 278.328C246.533 271.713 270.018 271.712 284.501 278.329C288.571 280.188 291.498 282.37 293.28 284.695C297.84 278.748 294.914 271.873 284.501 267.117C270.018 260.5 246.533 260.5 232.05 267.116C221.637 271.873 218.71 278.747 223.271 284.694C225.054 282.37 227.98 280.187 232.05 278.328Z" fill="#375066"/>
<g opacity="0.5">
<path d="M296.103 267.453C296.103 283.3 279.855 296.146 259.813 296.146C239.771 296.146 223.523 283.3 223.523 267.453C223.523 251.606 239.771 238.761 259.813 238.761C279.855 238.761 296.103 251.606 296.103 267.453Z" fill="#ECF1F5"/>
</g>
<path d="M286.922 285.323C286.723 285.165 268.712 277.958 268.299 277.935C267.886 277.911 255.708 277.987 255.178 278.092C254.648 278.197 237.55 283.855 237.086 284.222C236.886 284.38 236.291 286.508 235.68 288.875C242.094 293.395 250.545 296.146 259.813 296.146C270.744 296.146 280.539 292.319 287.192 286.274C287.052 285.703 286.954 285.348 286.922 285.323Z" fill="#D6DFE6"/>
<path d="M256.081 283.934L252.309 286.233L255.125 289.213L259.514 287.26L256.081 283.934Z" fill="#FF6F58"/>
<path d="M270.476 278.735C269.217 278.249 268.385 277.939 268.3 277.935C267.887 277.911 255.708 277.987 255.178 278.092C255.068 278.114 254.237 278.377 252.993 278.781C249.805 282.135 251.354 287.143 251.354 287.143L256.081 283.935L259.576 288.143C266.859 285.2 269.698 280.361 270.476 278.735Z" fill="white"/>
<path d="M246.831 255.766C246.831 255.766 248.945 273.026 249.156 274.489C249.367 275.951 252.856 276.703 254.124 276.662L254.547 278.25C254.547 278.25 253.914 281.803 256.081 283.934C257.561 283.934 264.485 282.513 268.713 277.958C268.554 276.663 267.499 273.402 269.877 268.68C272.255 263.957 272.149 257.688 264.221 254.136C256.292 250.584 247.2 255.14 246.831 255.766Z" fill="#FFC3B1"/>
<path d="M244.25 253.217C244.25 253.217 244.383 255.609 246.962 256.98C248.208 256.734 256.524 256.277 260.97 260.743C261.504 260.391 261.771 258.246 261.282 257.121C262.349 257.296 264.616 259.934 263.06 265.946C263.55 266.157 263.86 266.227 263.86 266.227C263.86 266.227 263.727 262.957 266.707 262.395C269.687 261.832 272.176 266.192 267.863 267.88C267.997 269.145 268.041 271.044 269.464 272.064C270.042 270.517 270.845 268.72 272.356 265.17C273.868 261.621 275.563 254.454 270.042 251.002C259.414 244.357 250.965 250.897 244.25 253.217Z" fill="#2D4558"/>
<path d="M256.156 295.998L255.085 288.619C255.085 288.619 253.969 292.511 253.091 295.652C254.098 295.802 255.121 295.916 256.156 295.998Z" fill="#FF6F58"/>
<path d="M296.103 267.453C296.103 283.3 279.855 296.146 259.813 296.146C239.771 296.146 223.523 283.3 223.523 267.453C223.523 251.606 239.771 238.761 259.813 238.761C279.855 238.761 296.103 251.606 296.103 267.453Z" stroke="#F5F7FA" stroke-width="4"/>
<path d="M273.439 263.69C269.491 263.69 266.289 266.222 266.289 269.344C266.289 272.466 269.491 274.997 273.439 274.997C277.388 274.997 280.589 272.466 280.589 269.344C280.589 266.222 277.388 263.69 273.439 263.69ZM285.412 275.961C283.484 275.961 281.92 277.197 281.92 278.722C281.92 280.247 283.484 281.483 285.412 281.483C287.341 281.483 288.904 280.247 288.904 278.722C288.904 277.197 287.341 275.961 285.412 275.961Z" fill="white"/>
<g opacity="0.5">
<path d="M1115 264.841C1115 280.77 1096.87 293.683 1074.5 293.683C1052.13 293.683 1034 280.77 1034 264.841C1034 248.912 1052.13 236 1074.5 236C1096.87 236 1115 248.912 1115 264.841Z" fill="#ECF1F5"/>
</g>
<path d="M1099.34 278.966C1088.54 274.945 1077.98 274.892 1068.16 274.892C1058.35 274.892 1055.33 276.555 1052.75 280.802C1051.74 282.458 1050.2 285.053 1048.93 287.204C1055.9 291.253 1064.8 293.683 1074.5 293.683C1086.55 293.683 1097.37 289.928 1104.79 283.978C1103.72 282.877 1100.64 279.451 1099.34 278.966Z" fill="#4678A2"/>
<path d="M1066.04 275.221C1066.04 275.221 1066.34 278.328 1064.16 281.398C1064.06 282.879 1070.2 285.914 1077.91 283.096C1085.62 280.278 1085.67 275.763 1085.67 275.763C1085.67 275.763 1081.56 272.91 1082.98 267.022C1085.31 265.818 1091.89 260.647 1091.45 254.414C1090.54 253.208 1088.91 251.922 1088.91 251.922C1088.91 251.922 1089.55 247.487 1082.27 245.493C1071.15 242.447 1067.2 248.563 1060.71 247.443C1058.94 248.093 1058.07 252.03 1060.66 253.909C1060 255.932 1058.42 265.25 1059.42 272.745C1061.36 274.355 1066.04 275.221 1066.04 275.221Z" fill="#FFC3B1"/>
<path d="M1075.42 268.438C1075.42 268.438 1064.79 274.517 1059.15 269.73C1059.2 270.752 1059.29 271.765 1059.42 272.745C1061.36 274.355 1066.04 275.221 1066.04 275.221C1066.04 275.221 1074.12 274.636 1080.39 270.217C1079.83 269.165 1078.84 266.288 1079.62 264.056L1077.33 264.432C1076.31 266.675 1075.42 268.438 1075.42 268.438Z" fill="#ECB4A2"/>
<path d="M1091.45 254.414C1090.54 253.208 1088.91 251.922 1088.91 251.922C1088.91 251.922 1089.55 247.487 1082.27 245.493C1071.14 242.447 1067.2 248.563 1060.71 247.443C1058.93 248.093 1058.07 252.03 1060.66 253.909C1060.66 253.909 1063.55 255.467 1068.16 255.515C1072.99 255.566 1076.77 252.717 1079.16 253.676C1080.86 254.36 1080.39 256.431 1079.82 258.249C1079.24 260.096 1078.23 262.452 1077.33 264.432L1079.62 264.056C1079.82 263.5 1080.12 262.983 1080.56 262.546C1082.71 260.452 1087.01 261.423 1084.84 265.811C1087.7 263.66 1091.8 259.375 1091.45 254.414Z" fill="#37454B"/>
<path d="M1115 264.841C1115 280.77 1096.87 293.683 1074.5 293.683C1052.13 293.683 1034 280.77 1034 264.841C1034 248.912 1052.13 236 1074.5 236C1096.87 236 1115 248.912 1115 264.841Z" stroke="#F5F7FA" stroke-width="4"/>
<path d="M1089.71 249.888C1085.3 249.888 1081.73 252.432 1081.73 255.571C1081.73 258.709 1085.3 261.253 1089.71 261.253C1094.11 261.253 1097.69 258.709 1097.69 255.571C1097.69 252.432 1094.11 249.888 1089.71 249.888ZM1103.07 262.223C1100.92 262.223 1099.17 263.465 1099.17 264.998C1099.17 266.53 1100.92 267.773 1103.07 267.773C1105.22 267.773 1106.97 266.53 1106.97 264.998C1106.97 263.465 1105.22 262.223 1103.07 262.223Z" fill="white"/>
<g opacity="0.5">
<path d="M296.999 126.187C296.999 142.033 280.751 154.879 260.709 154.879C240.667 154.879 224.419 142.033 224.419 126.187C224.419 110.34 240.667 97.4941 260.709 97.4941C280.751 97.4941 296.999 110.34 296.999 126.187Z" fill="#ECF1F5"/>
</g>
<path d="M240.34 138.252C237.542 140.189 235.297 143.282 233.908 145.529C240.544 151.274 250.093 154.879 260.709 154.879C272.62 154.879 283.189 150.342 289.806 143.334C271.805 130.815 245.485 136.784 240.34 138.252Z" fill="#FEAA4E"/>
<path d="M273.087 121.837C276.234 114.288 272.87 108.333 264.224 107.097C253.297 105.536 246.358 110.926 247.081 118.451C247.805 125.976 248.878 136.783 249.253 137.153C249.61 137.506 252.093 138.121 254.318 137.989L253.372 140.19C253.372 140.19 254.717 145.278 264.837 142.61C270.347 141.157 272.35 136.273 272.35 136.273C272.35 136.273 266.871 134.342 270.167 127.287C273.989 125.066 273.468 122.715 273.087 121.837Z" fill="#905431"/>
<path d="M273.428 112.77C272.489 112.336 270.17 111.534 266.691 112.103C262.294 112.822 259.829 115.655 260.545 119.446C262.16 127.995 261.576 129.698 258.082 130.977C259.036 133.205 259.628 134.175 259.628 134.175L265.764 131.48L266.594 127.802C264.925 122.226 269.671 118.684 273.088 121.837C274.529 118.379 274.6 115.259 273.428 112.77Z" fill="#744529"/>
<path d="M259.712 132.709C258.194 129.309 254.592 128.031 251.515 128.064C250.259 128.067 249.082 128.257 248.093 128.583C248.137 129.001 248.181 129.413 248.224 129.816C249.055 129.472 250.246 129.224 251.515 129.227C254.172 129.26 257.057 130.18 258.349 133.196C257.798 133.379 257.216 133.557 256.592 133.73C255.781 133.954 254.595 133.813 253.617 133.046C252.567 132.221 250.973 131.687 248.501 132.29C248.821 135.051 249.097 136.999 249.252 137.153C249.61 137.506 252.092 138.122 254.318 137.989C254.318 137.989 263.221 137.506 266.946 132.328L266.593 127.802C266.593 127.802 265.599 130.444 259.712 132.709Z" fill="#372E29"/>
<path d="M296.999 126.187C296.999 142.033 280.751 154.879 260.709 154.879C240.667 154.879 224.419 142.033 224.419 126.187C224.419 110.34 240.667 97.4941 260.709 97.4941C280.751 97.4941 296.999 110.34 296.999 126.187Z" stroke="#F5F7FA" stroke-width="4"/>
<path d="M274.335 105.174C270.387 105.174 267.185 107.705 267.185 110.828C267.185 113.95 270.387 116.481 274.335 116.481C278.284 116.481 281.485 113.95 281.485 110.828C281.485 107.705 278.284 105.174 274.335 105.174ZM286.308 117.445C284.38 117.445 282.816 118.681 282.816 120.206C282.816 121.731 284.38 122.967 286.308 122.967C288.237 122.967 289.8 121.731 289.8 120.206C289.8 118.681 288.237 117.445 286.308 117.445Z" fill="white"/>
<path d="M199.613 209.205L147.989 185.639C145.892 184.683 144.001 184.623 142.665 185.302C141.423 185.933 130.54 190.891 128.149 191.976L190.158 261.007C193.216 259.622 203.446 254.93 204.771 254.336C206.111 253.736 206.941 252.433 206.941 250.575V219.241C206.941 215.546 203.66 211.052 199.613 209.205Z" fill="#ECEFF1"/>
<path d="M190.158 261.007C193.216 259.622 203.447 254.929 204.771 254.336C206.112 253.735 206.941 252.433 206.941 250.574V219.241C206.941 217.609 206.3 215.822 205.236 214.175L164.708 232.675L190.158 261.007Z" fill="#CFD9DF"/>
<path d="M165.892 226.99L151.608 233.504L170.66 231.79L165.892 226.99Z" fill="#ECEFF1"/>
<path d="M165.891 226.99L151.607 212.682V233.504L165.891 226.99Z" fill="#CFD9DF"/>
<path d="M184.887 215.927L133.263 192.362C129.215 190.514 125.934 192.012 125.934 195.707L125.934 227.04C125.934 230.735 129.215 235.228 133.263 237.076L184.887 260.642C188.934 262.489 192.216 260.991 192.216 257.297V225.964C192.216 222.268 188.935 217.775 184.887 215.927ZM151.608 233.504V212.681L170.66 231.79L151.608 233.504Z" fill="#FF6F58"/>
<path d="M90.7832 197.738C81.3704 193.441 73.7384 182.988 73.7384 174.396C73.7384 173.446 73.8316 172.56 74.0111 171.739C66.0916 166.39 48.7294 172.93 62.001 193.558C78.4879 219.182 102.362 203.763 90.7832 197.738Z" fill="#CFD9DF"/>
<path d="M119.349 190.352L104.623 197.074L96.8276 216.926C102.03 214.578 107.683 212.014 111.461 210.246C116.642 207.823 119.839 202.704 119.84 195.441C119.839 193.779 119.671 192.076 119.349 190.352Z" fill="#CFD9DF"/>
<path d="M95.7726 178.415L110.499 171.694C105.319 164.958 98.3928 159.124 90.7826 155.649C82.7644 151.99 75.5082 151.642 70.2531 154.038C66.0813 155.94 60.5437 158.46 56.0903 160.577C56.0903 160.577 92.7608 174.592 95.7726 178.415Z" fill="#ECEFF1"/>
<path d="M119.35 190.353L104.624 197.075L76.2368 184.116L90.962 177.394L119.35 190.353Z" fill="#ECEFF1"/>
<path d="M104.624 197.075L76.2359 184.116V194.273L92.0879 201.509C89.7153 206.414 83.4305 207.826 76.057 204.46C66.6442 200.164 59.0122 189.711 59.0122 181.118C59.0122 172.526 66.6442 169.041 76.057 173.338C80.4051 175.323 84.3741 178.624 87.3859 182.448L95.7722 178.415C90.5929 171.679 83.6672 165.846 76.057 162.371C60.0087 155.046 47 160.984 47 175.635C47 190.286 60.0087 208.1 76.057 215.426C92.1048 222.752 105.114 216.814 105.114 202.163C105.114 200.501 104.945 198.799 104.624 197.075Z" fill="#ECEFF1"/>
<path d="M50.2447 164.939C48.1759 167.642 47 171.244 47 175.635C47 179.932 48.1257 184.501 50.1127 188.998L59.8876 186.439C59.3226 184.634 59.0122 182.839 59.0122 181.119C59.0122 179.209 59.3908 177.554 60.0802 176.178L50.2447 164.939Z" fill="#FF9800"/>
<path d="M105.114 202.163C105.114 200.501 104.944 198.798 104.623 197.075L76.2354 184.115V194.273L92.0873 201.509C90.889 203.986 88.6937 205.57 85.8641 206.1C85.9001 206.125 85.9252 206.142 85.9252 206.142L95.3227 217.544C101.326 215.425 105.114 210.064 105.114 202.163Z" fill="#2095F2"/>
<path d="M50.2456 164.939L60.0811 176.178C62.4946 171.363 68.7368 169.996 76.058 173.338C80.406 175.323 84.3745 178.624 87.3868 182.448L95.7726 178.415C90.5933 171.68 83.6676 165.846 76.058 162.372C64.8197 157.242 55.0791 158.623 50.2456 164.939Z" fill="#FF6F58"/>
<path d="M85.9253 206.142L85.8643 206.1C83.0903 206.62 79.7076 206.126 76.0571 204.46C68.5288 201.023 62.1441 193.649 59.8877 186.438L50.1128 188.997C54.8994 199.833 64.7158 210.249 76.0571 215.426C83.4508 218.801 90.1949 219.355 95.3234 217.544L85.9253 206.142Z" fill="#98C238"/>
<path d="M186.717 175.81L158.404 162.885C155.218 161.429 152.362 158.955 150.27 156.095C148.183 153.233 146.902 150.041 146.9 147.131V121.291L138.997 115.588L130.452 120.475L130.18 158.065L138.088 168.99L180.358 188.396L187.812 185.449L186.717 175.81Z" fill="#ECEFF1"/>
<path d="M150.269 156.095C148.182 153.233 146.901 150.041 146.899 147.131V121.292L138.996 115.588L130.451 120.475L130.179 158.065L134.379 163.868L150.566 156.478C150.468 156.35 150.363 156.225 150.269 156.095Z" fill="#CFD9DF"/>
<path d="M147.582 135.846L162.582 128.98L178.902 134.742L188.038 147.464L186.061 161.371L170.993 168.163L171.88 152.908L160.017 139.809L147.582 135.846Z" fill="#ECEFF1"/>
<path d="M194.512 141.14L179.644 147.96L174.085 140.384L188.895 133.628L194.512 141.14Z" fill="#CFD9DF"/>
<path d="M189.197 122.128L158.404 108.071C153.501 105.834 149.064 105.624 145.854 107.092C142.869 108.457 134.828 112.141 131.225 113.802L178.085 133.412L188.447 145.631L187.924 189.93C192.51 187.843 199.297 184.746 201.778 183.602C204.968 182.131 206.94 178.996 206.941 174.54V146.427C206.938 137.478 198.998 126.604 189.197 122.128Z" fill="#ECEFF1"/>
<path d="M201.778 183.602C204.969 182.131 206.94 178.996 206.941 174.54V146.427C206.94 142.34 205.279 137.851 202.545 133.753L187.235 140.742L187.925 189.93C192.511 187.843 199.297 184.746 201.778 183.602Z" fill="#CFD9DF"/>
<path d="M142.388 144.46C142.39 136.047 149.858 132.638 159.075 136.844C168.292 141.053 175.759 151.279 175.761 159.695C175.759 168.108 168.292 171.517 159.075 167.311C149.858 163.102 142.39 152.876 142.388 144.46Z" fill="url(#paint0_linear_2014_36581)"/>
<path d="M180.721 145.965C180.721 147.939 178.969 148.739 176.807 147.752C174.645 146.765 172.892 144.365 172.892 142.392C172.893 140.418 174.645 139.618 176.807 140.605C178.969 141.592 180.721 143.992 180.721 145.965Z" fill="url(#paint1_linear_2014_36581)"/>
<path d="M143.678 175.305C133.877 170.829 125.936 159.954 125.934 151.005V122.893C125.937 113.946 133.878 110.322 143.678 114.793L174.471 128.85C184.272 133.326 192.212 144.2 192.215 153.149V181.261C192.212 190.208 184.272 193.833 174.471 189.361L143.678 175.305ZM135.543 119.853C133.457 120.809 132.176 122.833 132.174 125.742V153.854C132.176 156.764 133.457 159.956 135.543 162.818C137.636 165.678 140.492 168.152 143.678 169.608L174.471 183.664C177.659 185.118 180.515 185.252 182.606 184.301C184.692 183.344 185.973 181.322 185.976 178.413L185.975 150.301C185.973 147.39 184.693 144.199 182.606 141.336C180.514 138.477 177.658 136.003 174.471 134.547L143.678 120.49C140.492 119.037 137.636 118.903 135.543 119.853Z" fill="url(#paint2_linear_2014_36581)"/>
<path d="M151.688 141.962C149.793 142.831 148.63 144.667 148.628 147.309C148.63 149.952 149.793 152.85 151.688 155.449C153.588 158.047 156.18 160.292 159.075 161.615C161.969 162.935 164.562 163.056 166.462 162.193C168.357 161.323 169.519 159.488 169.521 156.846C169.519 154.202 168.357 151.306 166.462 148.706C164.562 146.108 161.969 143.863 159.075 142.541C156.18 141.221 153.588 141.099 151.688 141.962Z" fill="#ECEFF1"/>
<path d="M166.462 148.706C164.562 146.108 161.969 143.863 159.075 142.54C156.18 141.22 153.587 141.099 151.688 141.962C149.792 142.831 148.63 144.666 148.628 147.308C148.63 149.952 149.792 152.849 151.688 155.449C151.774 155.567 151.87 155.681 151.959 155.797L166.707 149.065C166.624 148.945 166.548 148.824 166.462 148.706Z" fill="#CFD9DF"/>
<path d="M81.1519 119.888C81.1519 127.102 81.1519 147.193 81.1519 147.193L95.8781 140.471V122.182L81.1519 119.888Z" fill="#ECEFF1"/>
<path d="M95.8776 101.755V100.391L80.5176 96.0156L81.1514 108.478L95.8776 101.755Z" fill="#CFD9DF"/>
<path d="M93.9329 91.3687L108.659 84.647C108.659 84.647 101.394 81.3304 94.0616 77.9831C90.704 76.4504 88.1504 76.3927 86.3685 77.2396C84.2594 78.2427 74.6022 82.6844 71.7944 83.9398L93.9329 91.3687Z" fill="#ECEFF1"/>
<path d="M68.5059 102.704L58.1064 97.9572L68.5337 93.1687L68.5059 102.704Z" fill="#ECEFF1"/>
<path d="M94.0113 114.348L81.1515 108.478V99.7822C81.1515 98.0012 82.6312 96.7735 84.8854 97.802C87.1385 98.8309 93.9322 101.932 93.9322 101.932V91.3692C93.9322 91.3692 86.6678 88.0525 79.3352 84.7057C72.0027 81.3584 68.5055 85.0429 68.5049 89.8331V102.704L58.1055 97.9572V109.368L68.5049 114.115C68.5055 127.534 68.5049 141.42 68.5049 141.42L81.1515 147.193V119.888L91.8634 124.778L94.0113 114.348Z" fill="#2095F2"/>
<path d="M108.658 95.209L93.9321 101.932V91.3683L108.658 84.6458V95.209Z" fill="#CFD9DF"/>
<path d="M106.59 118.055L91.8633 124.777L94.0111 114.347L108.737 107.625L106.59 118.055Z" fill="#CFD9DF"/>
<path d="M108.738 107.626L95.8781 101.756L81.1519 108.478L94.0117 114.348L108.738 107.626Z" fill="#ECEFF1"/>
<path d="M230.329 496.298C230.329 497.896 229.549 499.022 228.286 499.558C226.998 500.103 220.988 502.625 218.561 503.612L109.129 349.366C111.216 348.561 117.396 345.987 118.563 345.426C119.861 344.802 121.721 344.841 123.787 345.691L223.226 386.577C227.149 388.19 230.329 392.112 230.329 395.338V496.298Z" fill="#D9E1E6"/>
<path d="M218.561 503.612C220.988 502.625 226.998 500.103 228.286 499.558C229.549 499.022 230.329 497.896 230.329 496.298V395.338C230.329 393.867 229.663 392.254 228.572 390.778L159.954 418.991L218.561 503.612Z" fill="#8CA6B9"/>
<path d="M220.101 463.647L230.328 455.507V445.689L220.101 453.637V463.647ZM220.101 416.689V444.811L230.328 436.975V409.046L220.101 416.689Z" fill="#B0C2D0"/>
<path d="M220.646 500.324C220.646 503.549 217.466 504.856 213.543 503.244L114.103 462.358C110.181 460.745 107 456.823 107 453.597V352.636C107 349.41 110.18 348.103 114.103 349.716L213.543 390.602C217.466 392.215 220.646 396.137 220.646 399.363V500.324Z" fill="#ECEFF1"/>
<path d="M215.957 494.407C215.957 497.347 213.044 498.539 209.452 497.059L118.377 459.612C114.786 458.137 111.872 454.555 111.872 451.609V359.161C111.872 356.216 114.786 355.029 118.378 356.509L209.452 393.955C213.044 395.431 215.957 399.012 215.958 401.958L215.957 494.407Z" fill="#2D4558"/>
<path d="M125.492 431.959L157.286 445.032C158.463 445.516 159.417 445.126 159.417 444.162C159.418 443.198 158.463 442.024 157.286 441.54L125.492 428.468C124.314 427.984 123.36 428.373 123.359 429.337C123.359 430.301 124.314 431.475 125.492 431.959ZM125.492 440.687L157.286 453.761C158.463 454.245 159.417 453.854 159.418 452.891C159.418 451.927 158.463 450.753 157.285 450.269L125.492 437.197C124.314 436.712 123.36 437.101 123.359 438.066C123.36 439.029 124.315 440.204 125.492 440.687ZM157.286 458.998L125.492 445.925C124.315 445.442 123.359 445.83 123.359 446.795C123.36 447.758 124.314 448.933 125.492 449.417L157.285 462.49C158.463 462.973 159.417 462.584 159.417 461.619C159.417 460.655 158.463 459.482 157.286 458.998Z" fill="#4678A2"/>
<path d="M129.57 385.573C129.57 385.959 129.187 386.116 128.714 385.921L124.214 384.071C123.742 383.877 123.358 383.405 123.358 383.019V379.333C123.358 378.946 123.742 378.79 124.214 378.984L128.714 380.834C129.186 381.028 129.57 381.5 129.57 381.888V385.573Z" fill="#FF6F58"/>
<path d="M129.57 406.332C129.57 406.719 129.186 406.875 128.714 406.682L124.214 404.831C123.742 404.636 123.358 404.166 123.358 403.778V400.093C123.358 399.706 123.742 399.55 124.214 399.744L128.714 401.595C129.186 401.789 129.57 402.26 129.57 402.647V406.332Z" fill="#FF6F58"/>
<path d="M128.714 370.455L124.214 368.605C123.742 368.41 123.358 368.567 123.358 368.954V372.638C123.358 373.026 123.742 373.497 124.214 373.691L128.714 375.541C129.187 375.736 129.57 375.579 129.57 375.192V371.508C129.57 371.12 129.187 370.649 128.714 370.455ZM128.53 374.147C128.53 374.404 128.274 374.509 127.96 374.379L124.969 373.149C124.654 373.02 124.399 372.706 124.399 372.449V370C124.399 369.743 124.654 369.638 124.969 369.767L127.96 370.997C128.274 371.127 128.53 371.44 128.53 371.697V374.147Z" fill="white"/>
<path d="M128.714 391.214L124.214 389.365C123.742 389.17 123.358 389.326 123.358 389.713V393.398C123.358 393.785 123.741 394.257 124.214 394.451L128.714 396.301C129.186 396.496 129.57 396.339 129.57 395.952V392.267C129.57 391.881 129.187 391.409 128.714 391.214ZM128.53 394.907C128.53 395.164 128.274 395.268 127.96 395.139L124.969 393.909C124.655 393.78 124.399 393.466 124.399 393.208V390.759C124.399 390.502 124.655 390.398 124.969 390.527L127.96 391.756C128.274 391.886 128.53 392.2 128.53 392.457V394.907Z" fill="white"/>
<path d="M185.874 409.312C191.052 411.442 195.249 409.731 195.249 405.49C195.249 401.249 191.052 396.087 185.874 393.958C180.697 391.829 176.499 393.54 176.499 397.78C176.499 402.021 180.697 407.184 185.874 409.312Z" fill="#4678A2"/>
<path d="M193.295 413.948C191.219 414.348 188.653 414.035 185.874 412.892C183.096 411.75 180.531 409.953 178.455 407.846C172.915 407.811 169.103 410.916 169.103 416.319L202.646 430.111C202.646 424.708 198.835 418.468 193.295 413.948Z" fill="#4678A2"/>
<path d="M128.714 411.974L124.214 410.124C123.742 409.93 123.358 410.086 123.358 410.472V414.158C123.358 414.544 123.741 415.016 124.214 415.21L128.714 417.061C129.186 417.255 129.57 417.099 129.57 416.712V413.026C129.57 412.64 129.187 412.169 128.714 411.974ZM128.53 415.666C128.53 415.924 128.274 416.028 127.96 415.898L124.969 414.668C124.655 414.54 124.399 414.225 124.399 413.968V411.518C124.399 411.261 124.655 411.157 124.969 411.287L127.96 412.516C128.274 412.645 128.53 412.96 128.53 413.217V415.666Z" fill="white"/>
<path d="M202.49 446.579C202.49 447.03 202.044 447.211 201.492 446.985L188.727 441.737C188.176 441.509 187.73 440.961 187.73 440.51V430.181C187.73 429.73 188.176 429.548 188.727 429.775L201.493 435.024C202.044 435.249 202.49 435.799 202.49 436.249V446.579Z" fill="#4678A2"/>
<path d="M183.708 438.856C183.708 439.306 183.262 439.488 182.71 439.262L169.945 434.014C169.394 433.786 168.948 433.238 168.948 432.787V422.458C168.948 422.007 169.394 421.825 169.945 422.052L182.711 427.301C183.262 427.526 183.708 428.076 183.708 428.526V438.856Z" fill="#8FC8FB"/>
<path d="M191.699 433.726L194.148 434.733L195.114 439.499L196.074 435.525L198.524 436.532V443.034L196.971 442.395V437.741L195.843 441.932L194.432 441.351L193.251 436.212V440.866L191.699 440.228V433.726Z" fill="#2D4558"/>
<path d="M177.849 428.032L178.179 428.168V428.404V429.006V429.242L177.849 429.106L175.976 428.336V429.978L177.004 430.401L177.335 430.537V430.773V431.375V431.606L177.004 431.471L175.976 431.048V433.528V433.764L175.651 433.63L174.801 433.281L174.476 433.147V432.911V426.881V426.645L174.801 426.779L177.849 428.032Z" fill="#2D4558"/>
<path d="M148.964 439.864C148.964 441.632 147.215 442.346 145.056 441.458C142.899 440.571 141.147 438.418 141.148 436.651C141.148 434.882 142.899 434.17 145.056 435.057C147.215 435.944 148.964 438.096 148.964 439.864Z" fill="#98C238"/>
<path d="M151.513 449.641C151.513 451.409 149.764 452.123 147.605 451.235C145.447 450.348 143.696 448.195 143.696 446.427C143.696 444.659 145.447 443.947 147.605 444.834C149.764 445.721 151.513 447.872 151.513 449.641Z" fill="#FF6F58"/>
<path d="M143.033 454.884C143.032 456.652 141.283 457.364 139.124 456.476C136.966 455.589 135.215 453.437 135.215 451.67C135.215 449.9 136.967 449.189 139.124 450.075C141.283 450.963 143.033 453.114 143.033 454.884Z" fill="#E7ECF1"/>
<path d="M186.786 452.856C179.215 449.743 173.081 452.265 173.081 458.49C173.081 464.716 179.215 472.283 186.786 475.396C194.356 478.509 200.492 475.986 200.492 469.761C200.492 463.535 194.356 455.968 186.786 452.856Z" stroke="#FF6F58" stroke-width="13"/>
<path d="M176.409 467.221C178.922 470.648 182.638 473.691 186.786 475.396C194.357 478.509 200.492 475.986 200.492 469.761C200.492 463.535 194.357 455.969 186.786 452.856" stroke="#98C238" stroke-width="13"/>
<path d="M198.736 474.562C199.853 473.39 200.491 471.767 200.491 469.76C200.491 463.535 194.356 455.968 186.786 452.856" stroke="#8FC8FB" stroke-width="13"/>
<path d="M188.689 457.579L184.877 456.012V448.413L188.689 449.981V457.579Z" fill="#2D4558"/>
<path d="M178.709 464.048L181.096 467.474L173.889 469.267L171.503 465.841L178.709 464.048Z" fill="#2D4558"/>
<path d="M193.666 471.68L195.462 469.653L203.613 476.585L201.817 478.611L193.666 471.68Z" fill="#2D4558"/>
<path d="M135.463 389.097L158.525 398.579C158.999 398.773 159.381 398.617 159.381 398.23V394.545C159.381 394.158 158.998 393.686 158.525 393.492L135.463 384.01C134.99 383.815 134.606 383.972 134.606 384.359V388.043C134.607 388.431 134.99 388.902 135.463 389.097ZM158.526 414.252L135.463 404.769C134.99 404.574 134.606 404.73 134.606 405.118V408.803C134.606 409.19 134.99 409.661 135.463 409.857L158.525 419.339C158.999 419.533 159.381 419.377 159.381 418.989V415.304C159.381 414.918 158.999 414.445 158.526 414.252ZM135.463 378.717L158.525 388.2C158.999 388.394 159.381 388.237 159.381 387.85V384.165C159.381 383.778 158.998 383.307 158.525 383.113L135.463 373.631C134.99 373.436 134.606 373.592 134.606 373.979V377.663C134.607 378.05 134.99 378.522 135.463 378.717ZM135.463 399.477L158.525 408.96C158.999 409.153 159.381 408.997 159.381 408.61V404.925C159.381 404.538 158.998 404.066 158.525 403.872L135.463 394.39C134.99 394.195 134.606 394.351 134.606 394.739V398.424C134.607 398.811 134.99 399.282 135.463 399.477ZM158.526 424.632L135.463 415.149C134.99 414.954 134.606 415.11 134.606 415.498V419.182C134.606 419.569 134.99 420.041 135.463 420.236L158.525 429.718C158.999 429.912 159.381 429.755 159.381 429.368V425.684C159.381 425.297 158.999 424.825 158.526 424.632Z" fill="#4678A2"/>
<path d="M140.58 421.638C140.58 422.025 140.197 422.181 139.724 421.988L116.661 412.505C116.188 412.31 115.805 411.838 115.805 411.451V407.767C115.805 407.379 116.188 407.223 116.661 407.418L139.725 416.901C140.197 417.094 140.58 417.566 140.58 417.953V421.638Z" fill="#8FC8FB"/>
<path d="M142.249 411.945C142.249 412.332 141.866 412.488 141.392 412.294L118.33 402.812C117.857 402.616 117.474 402.145 117.474 401.758V398.073C117.474 397.686 117.857 397.53 118.33 397.725L141.394 407.207C141.866 407.401 142.249 407.873 142.249 408.26V411.945Z" fill="#8FC8FB"/>
<path d="M145.06 402.721C145.06 403.108 144.678 403.264 144.205 403.07L121.142 393.588C120.669 393.393 120.286 392.921 120.286 392.535V388.85C120.286 388.462 120.669 388.307 121.142 388.502L144.205 397.984C144.678 398.178 145.06 398.649 145.06 399.036V402.721Z" fill="#8FC8FB"/>
<path d="M142.512 391.293C142.512 391.681 142.129 391.836 141.657 391.642L118.594 382.16C118.121 381.965 117.738 381.494 117.738 381.107V377.423C117.738 377.035 118.121 376.878 118.594 377.073L141.657 386.556C142.129 386.75 142.512 387.221 142.512 387.609V391.293Z" fill="#8FC8FB"/>
<path d="M146.992 382.756C146.992 383.143 146.609 383.299 146.137 383.106L123.074 373.623C122.601 373.428 122.218 372.956 122.218 372.57V368.885C122.218 368.498 122.601 368.342 123.074 368.537L146.137 378.02C146.609 378.213 146.992 378.684 146.992 379.071V382.756Z" fill="#8FC8FB"/>
<path d="M55.8437 482.019C53.286 483.07 49.1396 483.07 46.5807 482.018L10.9191 467.256C8.36081 466.204 8.3602 464.499 10.9179 463.448L34.4813 453.759C37.0396 452.709 41.1866 452.709 43.7449 453.759L79.4065 468.521C81.9654 469.574 81.9648 471.279 79.4071 472.329L55.8437 482.019Z" fill="#ECF1F5"/>
<path d="M24.7938 464.244C24.7938 464.244 24.4785 467.299 24.6757 467.495C24.8723 467.692 27.1153 468.757 30.6974 468.7C32.3896 467.635 40.8375 460.695 40.8375 460.695C40.8375 460.695 41.5704 458.496 41.0037 457.804C40.2806 457.353 36.7898 457.138 36.7898 457.138L24.7938 464.244Z" fill="#2D4558"/>
<path d="M44.4569 470.633C44.4569 470.633 44.1143 473.41 44.1143 473.633C44.5385 474.237 46.5526 475.396 48.9162 475.618C51.5025 474.983 64.9246 468.949 65.0579 468.822C65.1918 468.695 65.4511 466.938 64.9246 465.901C63.1965 464.623 59.7313 463.929 59.5292 463.996C52.6176 466.282 44.4569 470.633 44.4569 470.633Z" fill="#2D4558"/>
<path d="M23.9641 406.626L26.6399 432.358L23.8418 441.543C23.8418 441.543 24.4505 464.07 24.5722 464.33C24.694 464.59 27.4927 465.456 29.9256 465.542C32.4803 464.676 37.3467 460.691 37.3467 460.691C37.3467 460.691 36.6169 438.943 46.4715 425.34V409.918L23.9641 406.626Z" fill="#2095F2"/>
<path d="M40.9385 424.002C40.9385 424.002 44.1584 438.678 44.1584 439.137C44.1584 439.595 41.2605 446.933 41.2605 447.277C41.2605 447.621 43.8194 470.657 44.0227 470.874C44.2254 471.091 48.4868 472.535 48.9938 472.391C49.5008 472.247 55.8342 470.781 58.076 468.683C58.4649 468.319 56.298 454.546 59.7468 439.808C59.9501 427.887 59.7468 420.157 59.7468 420.157L40.9385 424.002Z" fill="#2095F2"/>
<path d="M21.8568 377.658C21.8568 377.658 20.4111 382.968 20.4111 383.185C20.4111 383.402 26.7268 397.056 26.7268 397.056L29.3138 389.525L25.966 377.929L21.8568 377.658Z" fill="#FFC3B1"/>
<path d="M20.8472 377.575C20.8472 377.575 26.4154 380.667 32.7932 379.264C33.8828 375.356 35.2225 370.551 35.8427 368.328C36.4624 366.106 36.3942 363.005 31.1455 362.263C26.5938 361.619 24.3173 364.099 23.6197 366.6C22.7225 369.818 20.8472 377.575 20.8472 377.575Z" fill="#D8E2EB"/>
<path d="M33.8425 361.407C34.6387 361.415 55.7485 366.728 61.2686 370.354C63.1695 371.603 58.5807 386.431 58.6817 394.451C58.7834 402.47 59.1814 408.904 59.1814 408.904C59.1814 408.904 53.6601 413.005 44.8341 413.366C36.9212 412.716 25.9899 409.331 23.1242 406.358C22.7188 403.396 27.791 391.186 27.1823 389.669C26.5736 388.152 22.0231 366.704 26.0666 363.516C28.7442 361.405 32.3871 361.393 33.8425 361.407Z" fill="#D8E2EB"/>
<path d="M37.4934 359.313C37.4934 359.313 38.9421 362.492 37.7832 365.322C38.544 366.478 44.175 368.284 49.5009 365.792C49.0956 364.346 48.9677 361.621 49.6531 360.156C52.293 353.793 35.7708 353.959 37.4934 359.313Z" fill="#FFC3B1"/>
<path d="M69.8071 414.59C69.8071 415.191 69.2149 415.921 68.4839 416.222L39.1191 429.147C38.7478 429.005 37.9449 428.658 37.7057 428.562C37.4628 428.465 37.3125 428.253 37.3125 427.95V410.499C37.3125 409.899 37.9048 409.167 38.6358 408.867L68.4839 396.594C68.8722 396.435 69.2216 396.429 69.4632 396.548C69.6769 396.654 70.5035 396.975 70.8364 397.131L69.8071 414.59Z" fill="#CFD9DF"/>
<path d="M71.2052 415.168C71.2052 415.768 70.6123 416.499 69.8813 416.8L40.0339 429.072C39.3028 429.373 38.71 429.129 38.71 428.528V411.077C38.71 410.477 39.3028 409.746 40.0339 409.446L69.8813 397.173C70.6123 396.873 71.2052 397.116 71.2052 397.717V415.168Z" fill="#ECF1F5"/>
<path d="M52.4482 386.617L55.5964 422.671L52.8311 423.812C52.8311 423.812 55.1532 425.204 55.849 425.149C56.5447 425.094 63.656 422.727 63.7333 422.507C63.8106 422.286 63.5786 420.085 63.5786 420.085L64.7376 418.324L60.1779 415.186L61.4915 385.572L52.4482 386.617Z" fill="#FFC3B1"/>
<path d="M50.7155 387.554C50.7155 387.554 57.2985 388.96 62.8941 386.07V373.647C62.8941 371.38 61.3207 368.871 56.2016 369.896C50.8275 370.97 50.4331 374.397 50.4331 377.679C50.4331 380.96 50.7155 387.554 50.7155 387.554Z" fill="#D8E2EB"/>
<path d="M56.7412 352.542L59.9699 354.612C60.1765 354.745 60.2973 355.01 60.2393 355.204L59.6506 357.177C59.5928 357.37 59.3781 357.42 59.1713 357.287L55.9427 355.218" stroke="#2D4558"/>
<path d="M36.6819 359.303C36.6819 359.303 42.0636 362.816 54.4103 363.977C55.078 362.772 58.8071 355.257 56.6747 349.289C38.7556 348.905 36.6819 359.303 36.6819 359.303Z" fill="#FFC3B1"/>
<path d="M36.6825 359.303C36.6825 359.303 38.7834 360.674 43.3725 361.987C45.4627 360.959 46.3294 358.904 46.5489 357.608C46.7564 356.387 49.4684 356.157 49.7788 358.124C50.1112 360.231 48.8672 362.4 48.3817 363.149C50.17 363.479 52.1744 363.766 54.4103 363.977C55.1099 363.196 56.0212 360.925 55.9173 360.881C55.8138 360.838 50.6125 361.325 51.6029 356.572C52.5938 351.82 58.1308 350.834 59.2233 347.493C58.0448 346.216 52.1684 342.72 44.5801 343.876C35.3534 345.281 34.1503 351.327 34.1503 351.327C34.1503 351.327 37.1961 354.367 36.6825 359.303Z" fill="#2D4558"/>
<path d="M52.3565 344.224C52.3565 344.224 52.2008 345.179 53.352 346.014C56.4144 346.259 58.3287 345.239 59.6998 344.402C57.3871 344.9 54.5577 344.674 52.3565 344.224Z" fill="#2D4558"/>
</g>
<defs>
<linearGradient id="paint0_linear_2014_36581" x1="131.804" y1="165.23" x2="180.895" y2="130.268" gradientUnits="userSpaceOnUse">
<stop stop-color="#FD8838"/>
<stop offset="0.5" stop-color="#D66876"/>
<stop offset="1" stop-color="#AF48B3"/>
</linearGradient>
<linearGradient id="paint1_linear_2014_36581" x1="130.992" y1="164.878" x2="180.814" y2="130.342" gradientUnits="userSpaceOnUse">
<stop stop-color="#FD8838"/>
<stop offset="0.5" stop-color="#D66876"/>
<stop offset="1" stop-color="#AF48B3"/>
</linearGradient>
<linearGradient id="paint2_linear_2014_36581" x1="131.531" y1="165.014" x2="179.043" y2="129.737" gradientUnits="userSpaceOnUse">
<stop stop-color="#FD8838"/>
<stop offset="0.5" stop-color="#D66876"/>
<stop offset="1" stop-color="#AF48B3"/>
</linearGradient>
</defs>
</svg>
